<svg xmlns="http://www.w3.org/2000/svg" width="12.208" height="22.518" viewBox="0 0 12.208 22.518">
  <g id="Group_2" data-name="Group 2" transform="translate(-144 -313)">
    <g id="Group_3" data-name="Group 3" transform="translate(144 314)">
      <g id="Group_1" data-name="Group 1">
        <g id="Group_19" data-name="Group 19">
          <path id="Path" d="M3.453.454A.68.68,0,0,1,4.061,0H9.626a.3.3,0,0,1,.29.443l-2.9,7.245a.3.3,0,0,0,.288.443H11.95c.257,0,.336.166.173.376L2.433,20.983c-.641.826-.909.678-.6-.326l2.548-8.249a.327.327,0,0,0-.323-.452H.342A.327.327,0,0,1,.021,11.5Z" fill="#464748"/>
        </g>
      </g>
    </g>
    <circle id="Oval" cx="3.5" cy="3.5" r="3.5" transform="translate(149 313)" fill="#e02020"/>
  </g>
</svg>
