<svg xmlns="http://www.w3.org/2000/svg" xmlns:xlink="http://www.w3.org/1999/xlink" width="35" height="35" viewBox="0 0 35 35">
    <defs>
        <circle id="prefix__a" cx="17.5" cy="17.5" r="17.5"/>
    </defs>
    <g fill="none" fill-rule="evenodd">
        <mask id="prefix__b" fill="#fff">
            <use xlink:href="#prefix__a"/>
        </mask>
        <circle cx="17.5" cy="17.5" r="17" stroke="#E9E3E2"/>
        <path fill="#000" fill-rule="nonzero" d="M13.768 10c-.273 0-.519.165-.624.418l-1.538 3.672H8.68c-.18 0-.353.072-.48.2-.127.127-.199.3-.199.482v9.546c0 .181.072.355.199.482.127.128.3.2.48.2h17.642c.18 0 .353-.072.48-.2.127-.127.199-.3.199-.482v-9.546c0-.181-.072-.355-.199-.483-.127-.127-.3-.2-.48-.2h-2.922l-1.543-3.673c-.106-.252-.352-.416-.624-.416h-7.464zm3.733 5C19.426 15 21 16.574 21 18.499S19.426 22 17.501 22 14 20.424 14 18.499C14 16.574 15.576 15 17.501 15z" mask="url(#prefix__b)"/>
    </g>
</svg>
