<?xml version="1.0" encoding="utf-8"?>
<!-- Generator: Adobe Illustrator 24.2.1, SVG Export Plug-In . SVG Version: 6.00 Build 0)  -->
<svg version="1.1" id="Layer_1" xmlns="http://www.w3.org/2000/svg" xmlns:xlink="http://www.w3.org/1999/xlink" x="0px" y="0px"
	 width="35px" height="35px" viewBox="0 0 35 35" style="enable-background:new 0 0 35 35;" xml:space="preserve">
<style type="text/css">
	.st0{display:none;fill-rule:evenodd;clip-rule:evenodd;fill:#464748;}
	.st1{display:none;fill:#464748;}
	.st2{display:none;}
	.st3{display:inline;fill:#464748;}
	.st4{fill:#464748;}
</style>
<path class="st0" d="M33.9,14.1L30.2,8H10.7L7,14.1c-2.1,1.9-3,4.8-2.3,7.6c0.8,2.7,3.1,4.8,5.9,5.2c2.7,0.5,5.6-0.8,7.1-3.3h5.5
	c1.6,2.4,4.4,3.7,7.1,3.3c2.8-0.5,5.1-2.5,5.9-5.3C37,18.9,36.1,15.9,33.9,14.1z M11.8,23.4c-1.5,0-2.8-0.9-3.4-2.3
	c-0.5-1.4-0.3-2.9,0.8-3.9c1-1.1,2.6-1.4,3.9-0.8c1.4,0.5,2.3,1.9,2.3,3.3C15.5,21.8,13.8,23.4,11.8,23.4z M32.7,22.3
	c-0.6,0.7-1.6,1.1-2.6,1.1c-2,0-3.7-1.6-3.7-3.6s1.6-3.6,3.7-3.6s3.7,1.6,3.7,3.6C33.8,20.8,33.4,21.7,32.7,22.3z"/>
<path class="st1" d="M17.8,7.2c0.1-0.3,0.3-0.5,0.6-0.5H24c0.3,0,0.4,0.2,0.3,0.4l-2.9,7.2c-0.1,0.2,0,0.4,0.3,0.4h4.6
	c0.3,0,0.3,0.2,0.2,0.4l-9.7,12.5c-0.6,0.8-0.9,0.7-0.6-0.3l2.5-8.2c0.1-0.2-0.1-0.5-0.3-0.5h-3.7c-0.3,0-0.4-0.2-0.3-0.5L17.8,7.2z
	"/>
<g id="noun_campaign_2981126" transform="translate(0 0)" class="st2">
	<path id="Shape" class="st3" d="M28.8,27.5c-0.1,0-0.1,0-0.2-0.1l-7.1-6.5h-2.7v3.9c0,1.3-1.1,2.4-2.4,2.4c-0.3,0-0.5-0.2-0.5-0.4
		l0,0V21h-0.8v-6.9h6.5l7-6.5c0.1-0.1,0.3-0.1,0.4,0s0.1,0.1,0.1,0.2v7.7c1.1,0.5,1.6,1.7,1.2,2.8c-0.2,0.5-0.6,0.9-1.2,1.2v7.7
		C29.1,27.4,28.9,27.5,28.8,27.5z M13.9,20.9L13.9,20.9c-1,0-2-0.3-2.6-1.1c-0.6-0.6-0.9-1.5-0.9-2.4c-0.1-1.8,1.4-3.4,3.2-3.4
		c0.1,0,0.2,0,0.3,0C13.9,14.1,13.9,20.9,13.9,20.9z"/>
</g>
<path class="st0" d="M18.3,23.4h-5.6c-0.9,0-1.7-0.8-1.7-1.8V9.8c0-1,0.8-1.8,1.7-1.8h15.6C29.2,8,30,8.8,30,9.8v11.7
	c0,1-0.8,1.8-1.7,1.8h-5.5l-1.5,3.3c-0.2,0.4-1.2,0.4-1.4,0L18.3,23.4z M26.9,15.7c0-0.8-0.6-1.5-1.4-1.5s-1.4,0.7-1.4,1.5
	s0.6,1.5,1.4,1.5S26.9,16.5,26.9,15.7z M20.5,14.2c0.8,0,1.4,0.7,1.4,1.5s-0.6,1.5-1.4,1.5s-1.4-0.7-1.4-1.5
	C19.1,14.9,19.7,14.2,20.5,14.2z M16.9,15.7c0-0.8-0.6-1.5-1.4-1.5s-1.4,0.7-1.4,1.5s0.6,1.5,1.4,1.5S16.9,16.5,16.9,15.7z"/>
<path class="st0" d="M10,15.4c0-4.6,3.8-8.3,8.5-8.3s8.5,3.7,8.5,8.3c0,2-0.7,3.8-1.9,5.3l5.7,5.6c0.3,0.3,0.3,0.9,0,1.2
	c-0.3,0.3-0.9,0.3-1.2,0l-5.7-5.6c-1.5,1.2-3.3,1.9-5.3,1.9C13.8,23.8,10,20,10,15.4z M25.1,15.4c0-3.7-3-6.6-6.7-6.6
	s-6.7,3-6.7,6.6c0,3.7,3,6.6,6.7,6.6C22.1,22.1,25.1,19.1,25.1,15.4z"/>
<path class="st0" d="M27.8,11.4c0.4,0.4,0.3,0.7,0,1c-1.2,1.4-0.5,3.2,1.4,3.5c0.2,0,0.4,0.1,0.6,0.2c0.1,0.1,0.2,0.1,0.3,0.2v2.3
	c-0.1,0-0.2,0.1-0.2,0.2c-0.2,0.1-0.3,0.3-0.5,0.3c-0.9,0.1-1.5,0.4-1.9,1.2c-0.4,0.9-0.2,1.7,0.4,2.3c0.3,0.3,0.3,0.7,0,1
	c-0.4,0.3-0.7,0.7-1.1,1.1s-0.8,0.5-1.3,0c-1.2-1-2.9-0.4-3.3,1.1C21.8,27,21.8,27,20.6,27H20c-0.9,0-1-0.1-1.1-1
	c-0.2-1.5-1.9-2.3-3.2-1.5c-1,0.6-1,0.6-1.8-0.2c-0.1-0.1-0.3-0.3-0.4-0.4c-0.1-0.1-0.3-0.3-0.4-0.4c-0.3-0.3-0.3-0.6,0-0.9
	c1.3-1.2,0.5-3.5-1.5-3.6c-0.3,0-0.6-0.2-0.6-0.6c0-0.6,0-1.2,0-1.8c0-0.4,0.2-0.7,0.7-0.7c0.9,0,1.6-0.4,1.9-1.2
	c0.3-0.9,0.2-1.6-0.4-2.3c-0.3-0.3-0.3-0.7,0-1c0.3-0.4,0.7-0.7,1-1c0.4-0.4,0.8-0.5,1.4-0.1c1.4,1.1,3.2,0.3,3.4-1.5
	c0-0.2,0.1-0.4,0.2-0.5s0.1-0.2,0.1-0.3h2.3c0,0.1,0.1,0.2,0.2,0.2c0.1,0.2,0.2,0.3,0.3,0.5c0.1,0.9,0.4,1.6,1.3,1.9
	c0.8,0.3,1.7,0.2,2.3-0.5c0.3-0.3,0.6-0.3,0.9,0L27.8,11.4z M17.3,17.5c0,1.7,1.4,3.2,3.2,3.2c1.7,0,3.1-1.4,3.2-3.1
	c0-1.8-1.3-3.1-3.2-3.2C18.8,14.3,17.4,15.8,17.3,17.5z"/>
<g>
	<path class="st4" d="M31.3,17.1l-4.6-4.6c-0.2-0.2-0.6-0.2-0.8,0L25,13.4c-0.2,0.2-0.2,0.6,0,0.8l2,2h-9.2c-0.3,0-0.6,0.3-0.6,0.6
		v1.3c0,0.3,0.3,0.6,0.6,0.6h9.1l-2,2c-0.2,0.2-0.2,0.6,0,0.8l0.9,0.9c0.2,0.2,0.6,0.2,0.8,0l3.6-3.6l0,0l0.9-0.9
		C31.6,17.7,31.6,17.3,31.3,17.1z"/>
	<path class="st4" d="M23.5,6.5H11.2c-0.9,0-1.7,0.8-1.7,1.7v18.6c0,0.9,0.8,1.7,1.7,1.7h12.3c0.9,0,1.7-0.8,1.7-1.7v-2.4
		c0-0.3-0.3-0.6-0.6-0.6h-1.2c-0.3,0-0.6,0.3-0.6,0.6v0.9c0,0.5-0.4,0.8-0.9,0.8h-9.2c-0.5,0-0.9-0.4-0.9-0.9V9.7
		c0-0.5,0.4-0.9,0.9-0.9H22c0.5,0,0.8,0.4,0.9,0.8v0.9c0,0.3,0.3,0.6,0.6,0.6h1.2c0.3,0,0.6-0.3,0.6-0.6V8.2
		C25.2,7.3,24.5,6.5,23.5,6.5z"/>
</g>
</svg>
