<svg width="16" height="16" viewBox="0 0 16 16" fill="none" xmlns="http://www.w3.org/2000/svg">
<path d="M7.99978 0C3.4939 0 0 3.30191 0 7.75979C0 10.0917 0.955973 12.1077 2.51193 13.4996C2.64193 13.6156 2.72192 13.7796 2.72592 13.9556L2.76992 15.3796C2.77313 15.4844 2.80202 15.5867 2.85405 15.6777C2.90609 15.7687 2.97968 15.8455 3.06836 15.9014C3.15704 15.9573 3.25808 15.9906 3.36262 15.9983C3.46716 16.006 3.57199 15.9879 3.6679 15.9456L5.25585 15.2456C5.38985 15.1856 5.54185 15.1756 5.68384 15.2136C6.41382 15.4136 7.1898 15.5216 7.99978 15.5216C12.5057 15.5216 15.9996 12.2197 15.9996 7.76179C15.9996 3.30391 12.5057 0 7.99978 0Z" fill="url(#paint0_radial_10025_4288)"/>
<path d="M3.19576 10.0298L5.5457 6.30187C5.6341 6.16152 5.75064 6.04102 5.88796 5.94798C6.02528 5.85494 6.1804 5.79137 6.34352 5.76131C6.50664 5.73124 6.67423 5.73531 6.8357 5.77328C6.99717 5.81124 7.14901 5.88227 7.28165 5.98188L9.1516 7.38385C9.23507 7.44634 9.33664 7.47996 9.44092 7.47959C9.5452 7.47923 9.64653 7.44492 9.72958 7.38184L12.2535 5.4659C12.5895 5.2099 13.0295 5.61389 12.8055 5.97188L10.4536 9.69778C10.3652 9.83813 10.2486 9.95864 10.1113 10.0517C9.97398 10.1447 9.81886 10.2083 9.65573 10.2384C9.49261 10.2684 9.32502 10.2643 9.16355 10.2264C9.00209 10.1884 8.85024 10.1174 8.71761 10.0178L6.84766 8.61581C6.76418 8.55331 6.66262 8.5197 6.55833 8.52006C6.45405 8.52042 6.35272 8.55474 6.26968 8.61781L3.74575 10.5338C3.40976 10.7898 2.96977 10.3878 3.19576 10.0298Z" fill="white"/>
<defs>
<radialGradient id="paint0_radial_10025_4288" cx="0" cy="0" r="1" gradientUnits="userSpaceOnUse" gradientTransform="translate(2.67992 15.9996) scale(17.5995 17.5995)">
<stop stop-color="#0099FF"/>
<stop offset="0.6" stop-color="#A033FF"/>
<stop offset="0.9" stop-color="#FF5280"/>
<stop offset="1" stop-color="#FF7061"/>
</radialGradient>
</defs>
</svg>
