<svg width="20" height="20" viewBox="0 0 20 20" fill="none" xmlns="http://www.w3.org/2000/svg" class="text-blue-500">
  <g clip-path="url(#clip0_11535_195)">
    <path d="M5.83301 11.6668L7.49584 9.67141C8.02595 9.03533 8.29101 8.71725 8.61076 8.71725C8.93059 8.71725 9.19559 9.03533 9.72576 9.67141L10.2736 10.3289C10.8038 10.965 11.0688 11.2831 11.3886 11.2831C11.7083 11.2831 11.9734 10.965 12.5035 10.3289L14.1663 8.3335" stroke="currentColor" stroke-width="1.5" stroke-linecap="round" stroke-linejoin="round"/>
    <path d="M10.0003 18.3332C14.6027 18.3332 18.3337 14.6022 18.3337 9.99984C18.3337 5.39746 14.6027 1.6665 10.0003 1.6665C5.39795 1.6665 1.66699 5.39746 1.66699 9.99984C1.66699 11.1489 1.89955 12.2437 2.32018 13.2396C2.55264 13.7899 2.66888 14.0652 2.68327 14.2732C2.69766 14.4812 2.63644 14.7099 2.51401 15.1675L1.66699 18.3332L4.83263 17.4862C5.29023 17.3638 5.51903 17.3025 5.72701 17.3169C5.935 17.3313 6.2102 17.4475 6.76062 17.68C7.75653 18.1006 8.85124 18.3332 10.0003 18.3332Z" stroke="currentColor" stroke-width="1.5" stroke-linejoin="round"/>
  </g>
  <defs>
    <clipPath id="clip0_11535_195">
      <rect width="20" height="20" fill="white"/>
    </clipPath>
  </defs>
</svg>
