<svg width="16" height="16" viewBox="0 0 16 16" fill="none" xmlns="http://www.w3.org/2000/svg">
<path d="M6.33301 9.16658C6.33301 9.81324 6.83302 10.3332 7.44635 10.3332H8.69967C9.233 10.3332 9.66634 9.87991 9.66634 9.31324C9.66634 8.70658 9.39968 8.48658 9.00635 8.34658L6.99967 7.64658C6.60634 7.50658 6.33968 7.29324 6.33968 6.67991C6.33968 6.11991 6.773 5.65991 7.30634 5.65991H8.55967C9.17301 5.65991 9.67301 6.17991 9.67301 6.82658" stroke="black" stroke-linecap="round" stroke-linejoin="round"/>
<path d="M8 5V11" stroke="black" stroke-linecap="round" stroke-linejoin="round"/>
<path d="M14.6663 7.99992C14.6663 11.6799 11.6797 14.6666 7.99967 14.6666C4.31967 14.6666 1.33301 11.6799 1.33301 7.99992C1.33301 4.31992 4.31967 1.33325 7.99967 1.33325" stroke="black" stroke-linecap="round" stroke-linejoin="round"/>
<path d="M11.333 2V4.66667H13.9997" stroke="black" stroke-linecap="round" stroke-linejoin="round"/>
<path d="M14.6663 1.33325L11.333 4.66659" stroke="black" stroke-linecap="round" stroke-linejoin="round"/>
</svg>
