<svg width="215" height="32" viewBox="0 0 215 32" fill="none" xmlns="http://www.w3.org/2000/svg">
<path fill-rule="evenodd" clip-rule="evenodd" d="M32 16C32 24.8366 24.8366 32 16 32C7.16344 32 0 24.8366 0 16C0 7.16344 7.16344 0 16 0C24.8366 0 32 7.16344 32 16ZM17.6241 4.91034H21.269V25.131H19.4976L19.4941 25.131H14.9214C11.4223 25.131 8.57931 22.2864 8.57931 18.7854C8.57931 15.2844 11.4223 12.4398 14.9214 12.4398C15.8877 12.4398 16.8039 12.6567 17.6241 13.0445V4.91034Z" fill="#2EC99E"/>
<path d="M14.9214 16.0502C13.427 16.0502 12.2242 17.2537 12.2242 18.7489C12.2242 20.2442 13.427 21.4476 14.9214 21.4476H17.6186V18.7854C17.6186 17.2902 16.4158 16.0502 14.9214 16.0502Z" fill="#2EC99E"/>
<path d="M66.0364 26.3239V10.5831H70.4155V15.0304L69.7983 13.743C70.2685 12.6312 71.0229 11.7925 72.0613 11.2268C73.0998 10.6417 74.3635 10.3491 75.8526 10.3491V14.5622C75.6567 14.5427 75.4804 14.533 75.3236 14.533C75.1669 14.5135 75.0003 14.5037 74.824 14.5037C73.57 14.5037 72.5512 14.8646 71.7674 15.5863C71.0033 16.2884 70.6212 17.3905 70.6212 18.8924V26.3239H66.0364Z" fill="#2EC99E"/>
<path d="M86.5756 26.558C84.8906 26.558 83.3917 26.2069 82.0789 25.5047C80.7858 24.8025 79.7571 23.8468 78.993 22.6374C78.2484 21.4086 77.8762 20.014 77.8762 18.4535C77.8762 16.8736 78.2484 15.479 78.993 14.2696C79.7571 13.0408 80.7858 12.085 82.0789 11.4024C83.3917 10.7002 84.8906 10.3491 86.5756 10.3491C88.241 10.3491 89.7301 10.7002 91.0429 11.4024C92.3556 12.085 93.3843 13.0311 94.1288 14.2404C94.8734 15.4497 95.2457 16.8541 95.2457 18.4535C95.2457 20.014 94.8734 21.4086 94.1288 22.6374C93.3843 23.8468 92.3556 24.8025 91.0429 25.5047C89.7301 26.2069 88.241 26.558 86.5756 26.558ZM86.5756 22.813C87.3397 22.813 88.0255 22.6374 88.6329 22.2863C89.2403 21.9352 89.7203 21.4379 90.073 20.7942C90.4257 20.131 90.602 19.3508 90.602 18.4535C90.602 17.5368 90.4257 16.7566 90.073 16.1129C89.7203 15.4692 89.2403 14.9718 88.6329 14.6207C88.0255 14.2696 87.3397 14.0941 86.5756 14.0941C85.8115 14.0941 85.1257 14.2696 84.5183 14.6207C83.9109 14.9718 83.4211 15.4692 83.0488 16.1129C82.6961 16.7566 82.5198 17.5368 82.5198 18.4535C82.5198 19.3508 82.6961 20.131 83.0488 20.7942C83.4211 21.4379 83.9109 21.9352 84.5183 22.2863C85.1257 22.6374 85.8115 22.813 86.5756 22.813Z" fill="#2EC99E"/>
<path d="M108.244 26.558C106.912 26.558 105.746 26.2654 104.747 25.6803C103.747 25.0951 102.964 24.2076 102.395 23.0178C101.847 21.8085 101.573 20.287 101.573 18.4535C101.573 16.6005 101.837 15.0791 102.366 13.8893C102.895 12.6995 103.659 11.812 104.658 11.2268C105.658 10.6417 106.853 10.3491 108.244 10.3491C109.733 10.3491 111.065 10.6904 112.241 11.3731C113.436 12.0363 114.377 12.9725 115.063 14.1819C115.768 15.3912 116.121 16.8151 116.121 18.4535C116.121 20.1115 115.768 21.5451 115.063 22.7545C114.377 23.9638 113.436 24.9001 112.241 25.5632C111.065 26.2264 109.733 26.558 108.244 26.558ZM98.898 32V10.5831H103.277V13.8015L103.189 18.4828L103.483 23.1348V32H98.898ZM107.451 22.813C108.215 22.813 108.891 22.6374 109.478 22.2863C110.086 21.9352 110.566 21.4379 110.919 20.7942C111.291 20.131 111.477 19.3508 111.477 18.4535C111.477 17.5368 111.291 16.7566 110.919 16.1129C110.566 15.4692 110.086 14.9718 109.478 14.6207C108.891 14.2696 108.215 14.0941 107.451 14.0941C106.686 14.0941 106.001 14.2696 105.393 14.6207C104.786 14.9718 104.306 15.4692 103.953 16.1129C103.6 16.7566 103.424 17.5368 103.424 18.4535C103.424 19.3508 103.6 20.131 103.953 20.7942C104.306 21.4379 104.786 21.9352 105.393 22.2863C106.001 22.6374 106.686 22.813 107.451 22.813Z" fill="#2EC99E"/>
<path d="M119.778 26.3239V1.31661H124.362V26.3239H119.778Z" fill="#2EC99E"/>
<path d="M129.205 26.3239V7.28524H133.79V26.3239H129.205ZM131.498 5.09089C130.655 5.09089 129.969 4.84708 129.44 4.35945C128.911 3.87181 128.647 3.26714 128.647 2.54545C128.647 1.82375 128.911 1.21908 129.44 0.731452C129.969 0.243817 130.655 0 131.498 0C132.34 0 133.026 0.234065 133.555 0.702194C134.084 1.15082 134.349 1.73598 134.349 2.45767C134.349 3.21838 134.084 3.85231 133.555 4.35945C133.046 4.84708 132.36 5.09089 131.498 5.09089Z" fill="#2EC99E"/>
<path d="M148.244 10.3491C149.498 10.3491 150.614 10.6026 151.594 11.1098C152.593 11.5974 153.377 12.3581 153.945 13.3919C154.513 14.4062 154.798 15.713 154.798 17.3125V26.3239H150.213V18.0147C150.213 16.7468 149.929 15.8106 149.36 15.2059C148.812 14.6012 148.028 14.2989 147.009 14.2989C146.284 14.2989 145.628 14.4549 145.04 14.767C144.472 15.0596 144.021 15.518 143.688 16.1422C143.375 16.7663 143.218 17.566 143.218 18.5413V26.3239H138.633V10.5831H143.012V14.9426L142.189 13.626C142.757 12.5727 143.571 11.7632 144.629 11.1976C145.687 10.6319 146.892 10.3491 148.244 10.3491Z" fill="#2EC99E"/>
<path d="M163.333 23.1056L163.45 17.5465L170.827 10.5831H176.293L169.211 17.7513L166.83 19.6824L163.333 23.1056ZM159.541 26.3239V1.31661H164.126V26.3239H159.541ZM171.327 26.3239L165.978 19.7116L168.858 16.1714L176.881 26.3239H171.327Z" fill="#2EC99E"/>
<path d="M186.718 26.558C184.915 26.558 183.328 26.2069 181.957 25.5047C180.605 24.8025 179.557 23.8468 178.812 22.6374C178.068 21.4086 177.695 20.014 177.695 18.4535C177.695 16.8736 178.058 15.479 178.783 14.2696C179.527 13.0408 180.536 12.085 181.81 11.4024C183.083 10.7002 184.524 10.3491 186.13 10.3491C187.678 10.3491 189.069 10.6807 190.304 11.3438C191.558 11.9875 192.547 12.9238 193.272 14.1526C193.997 15.3619 194.359 16.8151 194.359 18.5121C194.359 18.6876 194.35 18.8924 194.33 19.1265C194.31 19.341 194.291 19.5458 194.271 19.7409H181.428V17.0784H191.861L190.098 17.8684C190.098 17.0492 189.931 16.3372 189.598 15.7325C189.265 15.1279 188.805 14.6597 188.217 14.3282C187.629 13.9771 186.943 13.8015 186.16 13.8015C185.376 13.8015 184.68 13.9771 184.073 14.3282C183.485 14.6597 183.025 15.1376 182.692 15.7618C182.358 16.3665 182.192 17.0882 182.192 17.9269V18.6291C182.192 19.4873 182.378 20.248 182.75 20.9112C183.142 21.5549 183.681 22.0523 184.367 22.4034C185.072 22.735 185.895 22.9008 186.836 22.9008C187.678 22.9008 188.413 22.774 189.04 22.5204C189.686 22.2668 190.274 21.8865 190.803 21.3793L193.243 24.0126C192.518 24.8318 191.606 25.4657 190.509 25.9143C189.412 26.3434 188.148 26.558 186.718 26.558Z" fill="#2EC99E"/>
<path d="M204.789 26.558C203.3 26.558 201.957 26.2264 200.762 25.5632C199.567 24.8806 198.617 23.9345 197.911 22.7252C197.226 21.5159 196.883 20.092 196.883 18.4535C196.883 16.7956 197.226 15.3619 197.911 14.1526C198.617 12.9433 199.567 12.007 200.762 11.3438C201.957 10.6807 203.3 10.3491 204.789 10.3491C206.121 10.3491 207.287 10.6417 208.286 11.2268C209.285 11.812 210.059 12.6995 210.608 13.8893C211.156 15.0791 211.431 16.6005 211.431 18.4535C211.431 20.287 211.166 21.8085 210.637 23.0178C210.108 24.2076 209.344 25.0951 208.345 25.6803C207.365 26.2654 206.18 26.558 204.789 26.558ZM205.582 22.813C206.327 22.813 207.003 22.6374 207.61 22.2863C208.217 21.9352 208.698 21.4379 209.05 20.7942C209.422 20.131 209.609 19.3508 209.609 18.4535C209.609 17.5368 209.422 16.7566 209.05 16.1129C208.698 15.4692 208.217 14.9718 207.61 14.6207C207.003 14.2696 206.327 14.0941 205.582 14.0941C204.818 14.0941 204.132 14.2696 203.525 14.6207C202.917 14.9718 202.428 15.4692 202.055 16.1129C201.703 16.7566 201.526 17.5368 201.526 18.4535C201.526 19.3508 201.703 20.131 202.055 20.7942C202.428 21.4379 202.917 21.9352 203.525 22.2863C204.132 22.6374 204.818 22.813 205.582 22.813ZM209.726 26.3239V23.1056L209.814 18.4243L209.52 13.7723V1.31661H214.105V26.3239H209.726Z" fill="#2EC99E"/>
<path fill-rule="evenodd" clip-rule="evenodd" d="M52.6009 26.3241C47.8507 26.3241 44 22.4907 44 17.7618C44 13.033 47.8507 9.19958 52.6009 9.19958C54.0528 9.19958 55.4208 9.55775 56.6204 10.1902V1.08272H61.2018V26.3241H56.6204H52.6009ZM56.6204 21.7633V17.8049C56.6204 15.6187 54.8401 13.8464 52.6441 13.8464C50.4481 13.8464 48.6678 15.6187 48.6678 17.8049C48.6678 19.9911 50.4481 21.7633 52.6441 21.7633H56.6204Z" fill="#2EC99E"/>
</svg>
