<svg width="24" height="24" viewBox="0 0 24 24" fill="none" xmlns="http://www.w3.org/2000/svg">
<path fill-rule="evenodd" clip-rule="evenodd" d="M13.4791 2.62356C12.6857 1.75243 11.3151 1.75243 10.5217 2.62356L9.50148 3.74379C9.10053 4.18406 8.52425 4.42276 7.92942 4.39496L6.41591 4.32423C5.23894 4.26922 4.26971 5.23845 4.32472 6.41541L4.39545 7.92893C4.42325 8.52376 4.18455 9.10004 3.74428 9.50099L2.62405 10.5212C1.75292 11.3146 1.75292 12.6852 2.62405 13.4786L3.74428 14.4988C4.18455 14.8997 4.42325 15.476 4.39545 16.0709L4.32472 17.5844C4.26971 18.7613 5.23894 19.7306 6.4159 19.6756L7.92942 19.6048C8.52425 19.577 9.10053 19.8157 9.50148 20.256L10.5217 21.3762C11.3151 22.2474 12.6857 22.2474 13.4791 21.3762L14.4993 20.256C14.9002 19.8157 15.4765 19.577 16.0714 19.6048L17.5849 19.6756C18.7618 19.7306 19.7311 18.7613 19.6761 17.5844L19.6053 16.0709C19.5775 15.476 19.8162 14.8997 20.2565 14.4988L21.3767 13.4786C22.2479 12.6852 22.2479 11.3146 21.3767 10.5212L20.2565 9.50099C19.8162 9.10004 19.5775 8.52376 19.6053 7.92893L19.6761 6.41542C19.7311 5.23845 18.7618 4.26922 17.5849 4.32423L16.0714 4.39496C15.4765 4.42276 14.9002 4.18406 14.4993 3.74379L13.4791 2.62356ZM15.5303 10.5302C15.8232 10.2373 15.8232 9.76244 15.5303 9.46955C15.2374 9.17665 14.7626 9.17665 14.4697 9.46955L11 12.9392L9.53033 11.4695C9.23744 11.1767 8.76256 11.1767 8.46967 11.4695C8.17678 11.7624 8.17678 12.2373 8.46967 12.5302L10.4697 14.5302C10.7626 14.8231 11.2374 14.8231 11.5303 14.5302L15.5303 10.5302Z" fill="black"/>
</svg>
