<svg width="83" height="20" viewBox="0 0 83 20" fill="none" xmlns="http://www.w3.org/2000/svg">
<path d="M0.0390625 19.7782V4.2605H2.47829L2.71058 5.51301H2.82679C3.52366 4.65511 4.70798 4.04061 6.357 4.04061C9.3749 4.04061 11.7913 6.37096 11.7913 9.82052C11.7913 13.27 9.37702 15.6003 6.357 15.6003C4.73085 15.6003 3.59413 14.9622 2.9906 14.2378H2.87439V19.7762H0.0411738L0.0390625 19.7782ZM8.95594 9.8224C8.95594 7.80028 7.58494 6.52612 5.91305 6.52612C4.24129 6.52612 2.87029 7.80028 2.87029 9.8224C2.87029 11.8446 4.24129 13.1188 5.91305 13.1188C7.58494 13.1188 8.95594 11.8446 8.95594 9.8224Z" fill="black"/>
<path d="M13.2316 9.82238C13.2316 6.45928 15.785 4.04254 19.1991 4.04254C22.6131 4.04254 25.1664 6.45928 25.1664 9.82238C25.1664 13.1855 22.6131 15.6023 19.1991 15.6023C15.785 15.6023 13.2316 13.1619 13.2316 9.82238ZM22.3103 9.82238C22.3103 7.84343 20.9165 6.5261 19.1991 6.5261C17.4816 6.5261 16.065 7.84543 16.065 9.82238C16.065 11.7994 17.4816 13.0971 19.1991 13.0971C20.9165 13.0971 22.3103 11.8013 22.3103 9.82238Z" fill="black"/>
<path d="M27.2154 -0.00195312H30.0486V15.3841H27.2154V-0.00195312Z" fill="black"/>
<path d="M40.5692 4.2602H43.5871L38.4784 17.7773C37.9682 19.1182 37.2712 19.7778 35.4356 19.7778H32.6956V17.2943H35.0188C35.4377 17.2943 35.6679 17.0961 35.809 16.7662L36.0869 16.0418L31.3039 4.2602H34.3218L37.3647 11.9759H37.8292L40.5692 4.2602Z" fill="black"/>
<path d="M44.1289 15.9321H47.0079C47.1241 16.6566 47.8894 17.6461 49.7023 17.6461C51.3968 17.6461 52.5127 16.6349 52.5127 15.0957V13.535H52.3965C51.7701 14.173 50.6087 14.7444 49.1215 14.7444C46.1036 14.7444 43.7804 12.5454 43.7804 9.38066C43.7804 6.2159 46.1036 4.04061 49.1215 4.04061C50.6771 4.04061 51.8159 4.63351 52.5355 5.46983H52.6517L52.884 4.2605H55.3461V15.0957C55.3461 18.0406 53.2552 19.998 49.7023 19.998C45.7323 19.998 44.1995 17.5361 44.1289 15.9321ZM52.5127 9.38266C52.5127 7.64712 51.2122 6.43777 49.5633 6.43777C47.9143 6.43777 46.6366 7.64712 46.6366 9.38266C46.6366 11.1182 47.9372 12.3492 49.5633 12.3492C51.1895 12.3492 52.5127 11.1397 52.5127 9.38266Z" fill="black"/>
<path d="M57.3131 9.82238C57.3131 6.45928 59.8664 4.04254 63.2806 4.04254C66.6946 4.04254 69.2479 6.45928 69.2479 9.82238C69.2479 13.1855 66.6946 15.6023 63.2806 15.6023C59.8664 15.6023 57.3131 13.1619 57.3131 9.82238ZM66.3918 9.82238C66.3918 7.84343 64.998 6.5261 63.2806 6.5261C61.5631 6.5261 60.1465 7.84543 60.1465 9.82238C60.1465 11.7994 61.5631 13.0971 63.2806 13.0971C64.998 13.0971 66.3918 11.8013 66.3918 9.82238Z" fill="black"/>
<path d="M71.2203 15.3824V4.2605H73.6574L73.8897 5.31478H74.0059C74.4704 4.81022 75.632 4.04061 77.3956 4.04061C80.089 4.04061 82.0391 5.88604 82.0391 8.69941V15.3804H79.2061V9.05091C79.2061 7.62159 78.1378 6.58894 76.6756 6.58894C75.2134 6.58894 74.0515 7.66676 74.0515 9.05091V15.3804H71.2181L71.2203 15.3824Z" fill="black"/>
</svg>
