<svg width="24" height="24" viewBox="0 0 24 24" fill="none" xmlns="http://www.w3.org/2000/svg">
<path fill-rule="evenodd" clip-rule="evenodd" d="M12 24C5.37259 24 0 18.6275 0 12C0 5.37259 5.37259 0 12 0C18.6275 0 24 5.37259 24 12C24 18.6275 18.6275 24 12 24ZM17.5312 9.08234C17.9081 8.67859 17.8863 8.0458 17.4825 7.66897C17.0788 7.29214 16.446 7.31396 16.0691 7.71771L10.0802 14.1344L7.93125 11.832C7.55442 11.4282 6.92163 11.4064 6.51788 11.7833C6.11413 12.1601 6.09231 12.7929 6.46914 13.1966L9.34914 16.2823C9.53827 16.485 9.80301 16.6 10.0802 16.6C10.3574 16.6 10.6221 16.485 10.8113 16.2823L17.5312 9.08234Z" fill="black"/>
</svg>
