<svg xmlns="http://www.w3.org/2000/svg" width="24" height="24" viewBox="0 0 24 24">
    <path d="M23.745 23.49h-8.262c1.87-.565 3.582-1.585 5.002-3.005C22.752 18.22 24 15.205 24 12c0-3.205-1.248-6.219-3.515-8.485C18.22 1.248 15.205 0 12 0 8.795 0 5.781 1.248 3.515 3.515 1.248 5.78 0 8.795 0 12c0 3.205 1.248 6.219 3.515 8.485C5.78 22.752 8.795 24 12 24c.15 0 .298-.004.447-.009.02.005.041.009.064.009h11.234c.14 0 .255-.114.255-.255 0-.141-.114-.256-.255-.256zM21 12c0 1.103-.897 2-2 2s-2-.897-2-2 .897-2 2-2 2 .897 2 2zm-5.415-7.414C15.963 4.208 16.465 4 17 4s1.037.208 1.415.586c.78.78.78 2.048 0 2.828-.378.378-.88.586-1.415.586s-1.037-.208-1.415-.586c-.78-.78-.78-2.048 0-2.828zM12 2c1.103 0 2 .897 2 2s-.897 2-2 2-2-.897-2-2 .897-2 2-2zM3 12c0-1.103.897-2 2-2s2 .897 2 2-.897 2-2 2-2-.897-2-2zm5.415 6.414C8.037 18.792 7.535 19 7 19c-.534 0-1.037-.208-1.415-.586-.78-.78-.78-2.048 0-2.828C5.963 15.208 6.465 15 7 15c.534 0 1.037.208 1.415.586.78.78.78 2.048 0 2.828zm0-11C8.035 7.792 7.533 8 7 8c-.535 0-1.037-.208-1.415-.586-.78-.78-.78-2.048 0-2.828C5.963 4.208 6.465 4 7 4c.534 0 1.036.208 1.414.586C8.792 4.964 9 5.466 9 6c0 .534-.208 1.036-.586 1.414zM12 21c-1.103 0-2-.897-2-2s.897-2 2-2 2 .897 2 2-.897 2-2 2zm0-6c-1.654 0-3-1.346-3-3s1.346-3 3-3 3 1.346 3 3-1.346 3-3 3zm3.585.586c.378-.378.88-.586 1.415-.586s1.037.208 1.415.586c.78.78.78 2.048 0 2.828-.378.378-.88.586-1.415.586s-1.037-.208-1.415-.586c-.78-.78-.78-2.048 0-2.828z"/>
</svg>
