<svg xmlns="http://www.w3.org/2000/svg" width="26" height="19" viewBox="0 0 26 19">
    <g>
        <path d="M12.76 14.354c-.506-.317-1.13-.775-1.85-1.353-1.103-.886-2.384-2.024-3.703-3.285-.396.174-.91.282-1.47.282-1.258 0-2.277-.53-2.277-1.185 0-.546.711-1.007 1.68-1.143C3.862 6.364 2.707 5.094 1.767 3.97.825 4.978.29 6.128.29 7.349c0 4.006 5.755 7.255 12.854 7.255l-.066-.06c-.1-.056-.207-.12-.318-.19zM13.144.096c-3.417 0-6.522.752-8.824 1.978.562.478 1.16 1.006 1.773 1.57.201-.03.416-.048.638-.048 1.258 0 2.277.531 2.277 1.185 0 .358-.305.68-.787.896l.227.224c1.917 1.913 3.634 3.805 4.83 5.325.577.735 1.01 1.352 1.283 1.832l.95 1.052c.066-.017.112-.027.132-.03l.053-.01h.053c.055 0 .514.008 1.077.227.474-.081.938-.174 1.387-.285.1-.025.199-.048.297-.075.65-.204 1.097-.632 1.097-1.13 0-.637-.736-1.163-1.692-1.243-.086-.003-.171-.005-.255-.01h-.002c-1.579-.096-2.797-.74-2.797-1.52 0-.846 1.435-1.533 3.205-1.533 1.372 0 2.545.413 3.001.994.013.015.026.033.036.048.375.475 1.192.808 2.138.808 1.019 0 1.884-.38 2.214-.916 0 0 .003-.003.003-.005l.075-.149c.303-.616.464-1.268.464-1.94C26 3.342 20.243.096 13.144.096zm-.54 4.12c-1.258 0-2.277-.532-2.277-1.186 0-.654 1.019-1.185 2.277-1.185 1.258 0 2.277.53 2.277 1.185 0 .654-1.021 1.185-2.277 1.185zm6.325.855c-1.259 0-2.277-.531-2.277-1.185 0-.655 1.018-1.186 2.277-1.186 1.258 0 2.277.531 2.277 1.186 0 .654-1.019 1.185-2.277 1.185zM18.316 16.868c-.575-2.204-2.567-2.207-2.567-2.207l-.03.008-.04.04-.949.946-.093.094c-.023.302.063.687.335 1.17.36.636.784 1.087 1.23 1.396.039.026.076.05.112.076.055.035.11.07.169.103.055.033.113.063.169.09.075.039.15.074.227.104l.058.023c.037.015.075.03.113.042.056.02.114.038.169.056.018.005.038.01.055.017l.111.03c.056.016.111.028.167.038.035.008.073.015.108.02.255.046.497.063.722.063.174 0 .337-.01.484-.025.017-.002.038-.005.055-.005.01 0 .02-.002.03-.005l.056-.007c.245-.036.436-.081.545-.111l.022-.008c.056-.015.084-.025.084-.025s-.865-.088-1.342-1.923zM5.924 7.63c.13.134.262.264.396.398.474.473.94.928 1.4 1.364.148.14.294.28.438.415.053.05.109.1.161.151.053.05.109.1.162.148l.161.149c.346.317.684.622 1.009.911.05.045.1.088.151.13l.076.066c.174.151.343.3.51.44l.14.121.142.119.139.115c.123.104.244.202.363.3.02.015.04.033.058.048.02.015.04.032.058.048l1.256-1.254.017-.017C11.436 9.89 9.855 8.144 8.03 6.322c-.148-.149-.295-.295-.44-.438-.75-.738-1.484-1.43-2.18-2.064-.575-.518-1.122-1.001-1.636-1.432C2.033.924.7.023.209.023c-.017 0-.032 0-.048.002C.146.028.134.03.12.035L.083.05c-.01.008-.02.013-.03.023C-.224.35.63 1.696 2.181 3.558c1.004 1.19 2.288 2.6 3.743 4.072zM15.454 14.488L15.209 14.216 14.912 13.886 12.755 11.503 12.75 11.511 11.522 12.736 11.517 12.741 13.58 14.599 13.58 14.599 13.726 14.732 13.903 14.89 14.19 15.15 14.521 15.447 15.469 14.503z"/>
    </g>
</svg>
