<svg xmlns="http://www.w3.org/2000/svg" width="20" height="26" viewBox="0 0 20 26">
    <g>
        <path d="M18.903 8.574c-1.022-1.653-2.081-1.879-3.67-1.916-.265.563-.947 1.09-2.233 1.09s-1.968-.527-2.232-1.09c-1.59.037-2.687.225-3.67 1.916-.38.601-.833 1.578-1.098 2.217l2.422 1.916.492-.413v6.725s1.135.639 4.162.639 4.162-.639 4.162-.639v-6.725l.378.413L20 10.791c-.19-.639-.757-1.616-1.097-2.217z" transform="translate(0 -.658)"/>
        <path d="M12.985 21.204c0 1.063-.875 1.955-1.995 1.955H3.01c-1.085 0-1.995-.857-1.995-1.955V5.323c0-1.064.875-1.955 1.995-1.955h7.98c1.085 0 1.995.857 1.995 1.955v2.264H14V3.402c0-1.51-1.26-2.744-2.8-2.744H2.8C1.26.658 0 1.893 0 3.402v20.512c0 1.51 1.26 2.744 2.8 2.744h8.4c1.54 0 2.8-1.235 2.8-2.744v-4.048h-1.015v1.338zM4.2 1.824h5.6c.14 0 .21.103.21.206s-.105.206-.21.206H4.2c-.14 0-.21-.103-.21-.206s.07-.206.21-.206zM7 25.938c-.595 0-1.085-.48-1.085-1.064 0-.583.49-1.063 1.085-1.063s1.085.48 1.085 1.063-.49 1.064-1.085 1.064z" transform="translate(0 -.658)"/>
    </g>
</svg>
