<svg xmlns="http://www.w3.org/2000/svg" width="24" height="20" viewBox="0 0 24 20">
    <g>
        <path d="M6.91 2.463c0-.422-.292-.704-.728-.704H4.727c-.436 0-.727.282-.727.704v.704h2.91v-.704zM20.727 2.463c0-.422-.29-.704-.727-.704h-1.455c-.436 0-.727.282-.727.704v.704h2.91v-.704zM14.91 15.833c2.4 0 4.363-1.9 4.363-4.222 0-2.322-1.964-4.222-4.364-4.222s-4.364 1.9-4.364 4.222c0 2.322 1.964 4.222 4.364 4.222z" transform="translate(0 .6)"/>
        <path d="M20.727 4.574H3.273c-1.6 0-2.91 1.267-2.91 2.815v.704H10.4c1.09-1.267 2.69-2.112 4.51-2.112 1.817 0 3.49.845 4.508 2.112h4.218v-.704c0-1.548-1.309-2.815-2.909-2.815zM20.727 11.611c0 3.096-2.618 5.63-5.818 5.63C10.836 17.24 8 13.23 9.527 9.5H.364v6.333c0 1.548 1.309 2.815 2.909 2.815h17.454c1.6 0 2.91-1.267 2.91-2.815V9.5H20.29c.29.633.436 1.337.436 2.111zM14.545 1.267c-.218-.563-.727-.915-1.381-.915h-2.328c-.654 0-1.163.352-1.381.915l-.728 1.9h6.546l-.728-1.9z" transform="translate(0 .6)"/>
    </g>
</svg>
