<svg xmlns="http://www.w3.org/2000/svg" width="24" height="24" viewBox="0 0 24 24">
    <path d="M23.242.759c-.615-.616-1.5-.881-2.352-.706l-6.834 1.361C7.674 2.684 2.686 7.671 1.415 14.05L.053 20.88c-.175.854.09 1.738.705 2.355s1.498.885 2.353.714l6.834-1.361c6.385-1.272 11.374-6.264 12.641-12.647l1.362-6.831c.173-.853-.092-1.735-.706-2.351zm-6.679 10.284c.357.306.512.786.402 1.243-.11.458-.466.815-.923.925-.456.11-.936-.046-1.241-.403l-.988-.989-2 1.99.988.989c.356.306.512.786.402 1.243-.11.457-.467.814-.923.924-.457.11-.936-.045-1.242-.403l-.987-.988-.988.988c-.496.426-1.235.397-1.697-.065-.462-.462-.49-1.203-.065-1.7l.987-.988-.987-.989c-.425-.496-.397-1.236.065-1.699.462-.462 1.201-.49 1.697-.065l.988.988 1.987-1.99-.987-.988c-.425-.497-.397-1.237.065-1.7.462-.462 1.201-.49 1.697-.065l.988.989.987-.989c.496-.425 1.235-.397 1.697.066.462.462.49 1.202.066 1.699l-.988.988 1 .99z"/>
</svg>
