<svg xmlns="http://www.w3.org/2000/svg" width="24" height="22" viewBox="0 0 24 22">
    <g>
        <path d="M21.975 8.669c-.85 0-1.575.561-1.8 1.318H16.95V7.96h1.775c.3 0 .55-.244.55-.537v-2.05c.3-.099.575-.22.8-.465.35-.342.55-.806.55-1.294 0-1.026-.85-1.856-1.9-1.856-1.05 0-1.9.83-1.9 1.856 0 .83.575 1.538 1.35 1.758v1.514h-1.4c-.3-.708-1.025-1.22-1.875-1.22h-2.4V3.711c.775-.22 1.35-.928 1.35-1.759 0-1.025-.85-1.855-1.9-1.855-1.05 0-1.9.83-1.9 1.855 0 .83.575 1.539 1.35 1.759v1.953H9c-.85 0-1.575.513-1.875 1.221h-1.4V5.372c.775-.22 1.35-.928 1.35-1.758 0-1.026-.85-1.856-1.9-1.856-1.05 0-1.9.83-1.9 1.856 0 .83.575 1.538 1.35 1.758v2.051c0 .293.25.537.55.537H6.95v2.027H3.825c-.225-.757-.95-1.318-1.8-1.318-1.05 0-1.9.83-1.9 1.855 0 1.026.85 1.856 1.9 1.856.85 0 1.575-.561 1.8-1.318H7.05v2.026H5.275c-.3 0-.55.245-.55.538V15.7c-.775.22-1.35.928-1.35 1.758 0 1.026.85 1.856 1.9 1.856 1.05 0 1.9-.83 1.9-1.856 0-.83-.575-1.538-1.35-1.758v-1.538h1.4c.3.708 1.025 1.22 1.875 1.22h2.4v1.954c-.775.22-1.35.928-1.35 1.758 0 1.026.85 1.856 1.9 1.856 1.05 0 1.9-.83 1.9-1.856 0-.83-.575-1.538-1.35-1.758v-1.953H15c.85 0 1.575-.513 1.875-1.221h1.4V15.7c-.775.22-1.35.928-1.35 1.758 0 1.026.85 1.856 1.9 1.856 1.05 0 1.9-.83 1.9-1.856 0-.83-.575-1.538-1.35-1.758v-2.075c0-.293-.25-.538-.55-.538H17.05v-2.026h3.225c.225.757.95 1.318 1.8 1.318 1.05 0 1.9-.83 1.9-1.856-.1-1.05-.95-1.855-2-1.855zm-4.05-5.055c0-.44.375-.781.8-.781.45 0 .8.366.8.781 0 .22-.1.415-.225.562-.15.146-.35.22-.575.22-.425 0-.8-.343-.8-.782zM11.2 1.954c0-.44.375-.782.8-.782.45 0 .8.366.8.781 0 .44-.375.782-.8.782-.45.024-.8-.342-.8-.782zm-6.75 1.66c0-.44.375-.781.8-.781.45 0 .8.366.8.781 0 .44-.375.781-.8.781-.425 0-.8-.342-.8-.781zm-2.425 7.692c-.45 0-.8-.366-.8-.782 0-.415.375-.781.8-.781.425 0 .8.366.8.781 0 .416-.375.782-.8.782zm4.05 6.104c0 .44-.375.782-.8.782-.45 0-.8-.366-.8-.782 0-.44.375-.78.8-.78.425 0 .8.365.8.78zm6.725 1.637c0 .439-.375.78-.8.78-.45 0-.8-.341-.8-.78 0-.44.375-.782.8-.782.45-.024.8.342.8.782zm6.75-1.637c0 .44-.375.782-.8.782-.45 0-.8-.366-.8-.782 0-.44.375-.78.8-.78.425 0 .8.365.8.78zm-3.675-4.053c0 .513-.425.928-.95.928h-5.85c-.525 0-.95-.415-.95-.928V7.643c0-.513.425-.928.95-.928h5.875c.525 0 .95.415.95.928v5.714h-.025zm6.1-2.051c-.45 0-.8-.366-.8-.782 0-.415.375-.781.8-.781.45 0 .8.366.8.781 0 .416-.35.782-.8.782z" transform="translate(0 .83)"/>
        <path d="M13.35 8.962l-1.875 1.929-.85-.855c-.2-.22-.55-.22-.775-.024-.225.195-.225.537-.025.757l1.225 1.27c.1.097.25.17.4.17.15 0 .3-.049.4-.17l2.275-2.345c.2-.22.2-.537-.025-.757-.2-.195-.55-.17-.75.025z" transform="translate(0 .83)"/>
    </g>
</svg>
