<svg width="56" height="56" viewBox="0 0 56 56" fill="none" xmlns="http://www.w3.org/2000/svg">
<rect width="56" height="56" rx="8" fill="#DBDBD8"/>
<path fill-rule="evenodd" clip-rule="evenodd" d="M22.4489 8.07444C22.2089 8.02769 21.9597 8.067 21.7473 8.18833L16.1068 11.4115C15.4379 11.7937 14.9093 12.3805 14.5986 13.0854L10.0341 23.4434C9.94661 23.6418 10.0332 23.8738 10.2293 23.9664L16.6606 27.0034C16.8804 27.1072 17.1413 26.9925 17.2134 26.7602L18.8769 21.4C18.8769 21.4 18.5097 28.5368 18.2769 33.1C18.094 36.6853 17.464 41.8135 17.1975 43.8825C17.1278 44.4234 17.4265 44.9434 17.9359 45.1379C19.9393 45.9027 22.0769 47.7 28.3769 47.7C34.6769 47.7 36.7056 45.8972 38.6501 45.1344C39.1442 44.9406 39.4364 44.4402 39.3797 43.9124C39.1596 41.8624 38.6301 36.6987 38.4769 33.1C38.2825 28.535 37.8769 21.4 37.8769 21.4L39.349 26.7365C39.4155 26.9776 39.6845 27.0992 39.9094 26.9899L46.1449 23.9612C46.3324 23.8702 46.4186 23.6504 46.3429 23.4562L42.3483 13.2092C42.0436 12.4277 41.4757 11.7771 40.7424 11.3697L35.0027 8.18101C34.7926 8.06426 34.5477 8.02712 34.3117 8.07311C33.2985 8.2706 30.3944 8.8 28.3769 8.8C26.3639 8.8 23.4682 8.27296 22.4489 8.07444Z" fill="#121314"/>
<path fill-rule="evenodd" clip-rule="evenodd" d="M22.4489 8.07444C22.2089 8.02769 21.9597 8.067 21.7473 8.18833L16.1068 11.4115C15.4379 11.7937 14.9093 12.3805 14.5986 13.0854L10.0341 23.4434C9.94661 23.6418 10.0332 23.8738 10.2293 23.9664L16.6606 27.0034C16.8804 27.1072 17.1413 26.9925 17.2134 26.7602L18.8769 21.4C18.8769 21.4 18.5097 28.5368 18.2769 33.1C18.094 36.6853 17.464 41.8135 17.1975 43.8825C17.1278 44.4234 17.4265 44.9434 17.9359 45.1379C19.9393 45.9027 22.0769 47.7 28.3769 47.7C34.6769 47.7 36.7056 45.8972 38.6501 45.1344C39.1442 44.9406 39.4364 44.4402 39.3797 43.9124C39.1596 41.8624 38.6301 36.6987 38.4769 33.1C38.2825 28.535 37.8769 21.4 37.8769 21.4L39.349 26.7365C39.4155 26.9776 39.6845 27.0992 39.9094 26.9899L46.1449 23.9612C46.3324 23.8702 46.4186 23.6504 46.3429 23.4562L42.3483 13.2092C42.0436 12.4277 41.4757 11.7771 40.7424 11.3697L35.0027 8.18101C34.7926 8.06426 34.5477 8.02712 34.3117 8.07311C33.2985 8.2706 30.3944 8.8 28.3769 8.8C26.3639 8.8 23.4682 8.27296 22.4489 8.07444Z" stroke="#DBDBD8" stroke-linejoin="round"/>
<path d="M28.1687 11.1284L28.6373 12.6391C28.661 12.7157 28.7291 12.7675 28.806 12.7675H30.3223C30.4941 12.7675 30.5656 12.9979 30.4265 13.1037L29.1998 14.0374C29.1377 14.0847 29.1117 14.1686 29.1354 14.2452L29.604 15.7559C29.6571 15.9271 29.47 16.0695 29.331 15.9637L28.1043 15.03C28.0421 14.9827 27.9579 14.9827 27.8957 15.03L26.669 15.9637C26.53 16.0695 26.3429 15.9271 26.396 15.7559L26.8646 14.2452C26.8883 14.1686 26.8623 14.0847 26.8002 14.0374L25.5735 13.1037C25.4344 12.9979 25.5059 12.7675 25.6777 12.7675H27.194C27.2709 12.7675 27.339 12.7157 27.3627 12.6391L27.8313 11.1284C27.8844 10.9572 28.1156 10.9572 28.1687 11.1284Z" fill="#F9F9F6"/>
<path fill-rule="evenodd" clip-rule="evenodd" d="M27.7624 11.1813C27.8375 10.9396 28.1625 10.9396 28.2376 11.1813L28.6914 12.6417C28.7035 12.6808 28.739 12.7087 28.7806 12.7087H30.2492C30.488 12.7087 30.5951 13.0333 30.3955 13.185L29.2074 14.0876C29.1747 14.1125 29.1618 14.1556 29.1738 14.1943L29.6276 15.6548C29.7047 15.9027 29.4352 16.0952 29.2438 15.9498L28.0557 15.0472C28.0226 15.022 27.9774 15.022 27.9443 15.0472L26.7562 15.9498C26.5648 16.0952 26.2953 15.9027 26.3724 15.6548L26.8262 14.1943C26.8382 14.1556 26.8253 14.1125 26.7926 14.0876L25.6045 13.185C25.4049 13.0333 25.512 12.7087 25.7508 12.7087H27.2194C27.261 12.7087 27.2965 12.6808 27.3086 12.6417L27.7624 11.1813ZM28.0893 11.2337C28.0615 11.1443 27.9385 11.1443 27.9107 11.2337L27.4569 12.6942C27.4231 12.8031 27.3266 12.8754 27.2194 12.8754H25.7508C25.6567 12.8754 25.6254 12.9962 25.6951 13.0492L26.8832 13.9518C26.9709 14.0184 27.0084 14.1375 26.9745 14.2468L26.5206 15.7072C26.4948 15.7904 26.5877 15.8732 26.6656 15.814L27.8537 14.9114C27.941 14.845 28.059 14.845 28.1463 14.9114L29.3344 15.814C29.4123 15.8732 29.5052 15.7904 29.4794 15.7072L29.0255 14.2468C28.9916 14.1375 29.0291 14.0184 29.1168 13.9518L30.3049 13.0492C30.3746 12.9962 30.3433 12.8754 30.2492 12.8754H28.7806C28.6734 12.8754 28.5769 12.8031 28.5431 12.6942L28.0893 11.2337Z" fill="#F9F9F6"/>
</svg>
