<svg width="56" height="56" viewBox="0 0 56 56" fill="none" xmlns="http://www.w3.org/2000/svg">
<rect width="56" height="56" rx="8" fill="#DBDBD8"/>
<path d="M32.4754 48H35.0005C35.5526 48 36.0007 47.5527 36.0037 47.0006C36.0191 44.2443 36.0978 36.3827 36.5 31C36.8953 25.7102 37.7586 22.799 38 17.5C38.1221 14.8205 38.0677 11.0498 38.0281 9.16632C38.0152 8.55278 37.4554 8.09851 36.8496 8.19625C35.0446 8.48746 31.4489 9 28.5 9C25.5494 9 21.9514 8.48688 20.1474 8.19576C19.5427 8.09817 18.9835 8.54919 18.9692 9.16161C18.9237 11.1211 18.858 15.1483 19 18C19.2542 23.1042 20.1685 25.9003 20.5 31C20.8483 36.3581 20.6332 44.1693 20.5382 46.9607C20.5189 47.5289 20.9738 48 21.5424 48H24.5246C25.0672 48 25.5112 47.5693 25.5278 47.0269C25.6119 44.2926 25.8953 36.3889 26.5 31C26.9871 26.6584 27.7308 20.2978 27.9422 18.4934C27.9753 18.2103 28.2149 18 28.5 18C28.7851 18 29.0247 18.2103 29.0579 18.4934C29.2693 20.2978 30.0129 26.6584 30.5 31C31.1047 36.3889 31.3881 44.2926 31.4722 47.0269C31.4888 47.5693 31.9328 48 32.4754 48Z" fill="black"/>
<path d="M34.2025 12.1541L34.7647 13.9669C34.7932 14.0588 34.875 14.121 34.9672 14.121H36.7867C36.9929 14.121 37.0787 14.3975 36.9118 14.5245L35.4398 15.6449C35.3652 15.7017 35.334 15.8023 35.3625 15.8942L35.9247 17.7071C35.9885 17.9125 35.764 18.0834 35.5971 17.9564L34.1251 16.836C34.0505 16.7792 33.9495 16.7792 33.8749 16.836L32.4028 17.9564C32.236 18.0834 32.0115 17.9125 32.0753 17.7071L32.6375 15.8942C32.666 15.8023 32.6348 15.7017 32.5602 15.6449L31.0882 14.5245C30.9213 14.3975 31.0071 14.121 31.2133 14.121H33.0328C33.125 14.121 33.2068 14.0588 33.2353 13.9669L33.7975 12.1541C33.8613 11.9486 34.1387 11.9486 34.2025 12.1541Z" fill="#F9F9F6"/>
<path fill-rule="evenodd" clip-rule="evenodd" d="M33.7149 12.2175C33.8051 11.9275 34.1949 11.9275 34.2851 12.2175L34.8296 13.97C34.8442 14.0169 34.8868 14.0505 34.9368 14.0505H36.699C36.9856 14.0505 37.1141 14.44 36.8746 14.622L35.4489 15.7051C35.4096 15.735 35.3941 15.7867 35.4086 15.8332L35.9532 17.5858C36.0456 17.8832 35.7223 18.1143 35.4925 17.9397L34.0668 16.8566C34.0271 16.8264 33.9729 16.8264 33.9332 16.8566L32.5075 17.9397C32.2777 18.1143 31.9544 17.8832 32.0468 17.5858L32.5914 15.8332C32.6059 15.7867 32.5904 15.735 32.5511 15.7051L31.1254 14.622C30.8859 14.44 31.0144 14.0505 31.301 14.0505H33.0632C33.1132 14.0505 33.1558 14.0169 33.1704 13.97L33.7149 12.2175ZM34.1071 12.2805C34.0738 12.1732 33.9262 12.1732 33.8929 12.2805L33.3483 14.033C33.3077 14.1638 33.1919 14.2505 33.0632 14.2505H31.301C31.188 14.2505 31.1505 14.3955 31.2341 14.459L32.6598 15.5422C32.7651 15.6221 32.8101 15.765 32.7693 15.8962L32.2248 17.6487C32.1938 17.7485 32.3053 17.8478 32.3987 17.7768L33.8244 16.6937C33.9292 16.6141 34.0708 16.6141 34.1756 16.6937L35.6013 17.7768C35.6947 17.8478 35.8062 17.7485 35.7752 17.6487L35.2307 15.8962C35.1899 15.765 35.2349 15.6221 35.3402 15.5422L36.7659 14.459C36.8495 14.3955 36.812 14.2505 36.699 14.2505H34.9368C34.8081 14.2505 34.6923 14.1638 34.6517 14.033L34.1071 12.2805Z" fill="#F9F9F6"/>
</svg>
