<svg width="56" height="58" viewBox="0 0 56 58" fill="none" xmlns="http://www.w3.org/2000/svg">
<path d="M9.3088 57.5C4.16769 57.5 0 53.3893 0 48.3186C0 43.2479 4.16769 39.1372 9.3088 39.1372C13.0307 39.1372 17.4211 39.2702 19.987 36.5742L34.8073 21.0028C37.4786 18.196 37.0688 13.604 37.0688 9.72923C37.0688 4.65849 41.2365 0.547852 46.3776 0.547852C51.5187 0.547852 55.6864 4.65849 55.6864 9.72923C55.6864 14.8 51.5187 18.9106 46.3776 18.9106C42.5526 18.9106 38.0032 18.7179 35.3663 21.4886L20.8773 36.7126C18.136 39.593 18.6176 44.3423 18.6176 48.3186C18.6176 53.3893 14.4499 57.5 9.3088 57.5Z" fill="#2BCFA1"/>
</svg>
