<svg width="56" height="58" viewBox="0 0 56 58" fill="none" xmlns="http://www.w3.org/2000/svg">
<path d="M46.6111 57.1047C51.7014 57.1047 55.828 52.9862 55.828 47.9058C55.828 42.8254 51.7014 38.7069 46.6111 38.7069C42.9079 38.7069 38.5478 38.9038 35.9492 36.2655L20.9461 21.0326C18.2359 18.2809 18.5755 13.6923 18.5755 9.82996C18.5755 4.74957 14.449 0.631104 9.35862 0.631104C4.26828 0.631104 0.141769 4.74957 0.141769 9.82996C0.141769 14.9103 4.26828 19.0288 9.35862 19.0288C13.165 19.0288 17.683 18.7694 20.354 21.4814L35.0215 36.3738C37.8022 39.1971 37.3942 43.9431 37.3942 47.9058C37.3942 52.9862 41.5208 57.1047 46.6111 57.1047Z" fill="#2BCFA1"/>
</svg>
