<svg width="56" height="59" viewBox="0 0 56 59" fill="none" xmlns="http://www.w3.org/2000/svg">
<path d="M9.12127 58.1044C4.11825 58.1044 0.0625 53.9427 0.0625 48.809C0.0625 43.6753 4.11825 39.5136 9.12127 39.5136C12.752 39.5136 17.0499 39.7211 19.5693 37.1067L35.2439 20.8409C37.9581 18.0243 37.6313 13.402 37.6313 9.49045C37.6313 4.35675 41.687 0.195068 46.6901 0.195068C51.6931 0.195068 55.7489 4.35675 55.7489 9.49045C55.7489 14.6242 51.6931 18.7858 46.6901 18.7858C42.9579 18.7858 38.5038 18.5157 35.9141 21.2032L20.57 37.1262C17.7855 40.0159 18.18 44.796 18.18 48.809C18.18 53.9427 14.1243 58.1044 9.12127 58.1044Z" fill="#2BCFA1"/>
</svg>
