<svg width="159" height="88" viewBox="0 0 159 88" fill="none" xmlns="http://www.w3.org/2000/svg">
<path d="M7.47028 87.1383C2.55327 85.851 -0.385963 80.8335 0.905317 75.9315C2.1966 71.0295 7.22941 68.0993 12.1464 69.3866C15.8081 70.3453 19.9293 71.8834 23.3479 70.2522L134.889 17.0287C138.277 15.4118 139.363 10.9993 140.319 7.37133C141.61 2.46932 146.643 -0.460938 151.56 0.8264C156.477 2.11374 159.416 7.13119 158.125 12.0332C156.834 16.9352 151.801 19.8655 146.884 18.5781C143.118 17.592 138.864 15.9425 135.348 17.6205L24.2374 70.6372C20.7636 72.2947 19.6911 76.8741 18.7114 80.5934C17.4201 85.4954 12.3873 88.4257 7.47028 87.1383Z" fill="#2BCFA1"/>
</svg>
