<svg width="20" height="20" viewBox="0 0 20 20" fill="none" xmlns="http://www.w3.org/2000/svg">
<path d="M16.6663 12.5H3.33301M16.6663 12.5V5.9974C16.6663 5.06581 16.6663 4.59931 16.4849 4.24314C16.3251 3.92954 16.0694 3.67476 15.7558 3.51497C15.3993 3.33331 14.9333 3.33331 13.9998 3.33331H5.99984C5.06642 3.33331 4.59936 3.33331 4.24284 3.51497C3.92924 3.67476 3.67445 3.92954 3.51466 4.24314C3.33301 4.59966 3.33301 5.06672 3.33301 6.00014V12.5M16.6663 12.5V14.0026C16.6663 14.9341 16.6663 15.4 16.4849 15.7561C16.3251 16.0697 16.0694 16.3254 15.7558 16.4852C15.3997 16.6666 14.9338 16.6666 14.0022 16.6666H5.9971C5.0655 16.6666 4.59901 16.6666 4.24284 16.4852C3.92924 16.3254 3.67445 16.0697 3.51466 15.7561C3.33301 15.3996 3.33301 14.9336 3.33301 14.0001V12.5" stroke="black" stroke-width="1.5" stroke-linecap="round" stroke-linejoin="round"/>
</svg>
