<svg width="24" height="24" viewBox="0 0 24 24" fill="none" xmlns="http://www.w3.org/2000/svg">
<path d="M19.5 3.75H4.5C3.25736 3.75 2.25 4.75736 2.25 6V19.5C2.25 20.7426 3.25736 21.75 4.5 21.75H19.5C20.7426 21.75 21.75 20.7426 21.75 19.5V6C21.75 4.75736 20.7426 3.75 19.5 3.75Z" stroke="black" stroke-width="2" stroke-linejoin="round"/>
<path d="M6 2.25V3.75" stroke="black" stroke-width="2" stroke-linecap="round" stroke-linejoin="round"/>
<path d="M18 2.25V3.75" stroke="black" stroke-width="2" stroke-linecap="round" stroke-linejoin="round"/>
<path d="M21.75 7.5H2.25" stroke="black" stroke-width="2" stroke-linecap="round" stroke-linejoin="round"/>
<path d="M14.25 12.1875L16.2853 10.6875H16.5V18.5625" stroke="black" stroke-width="2" stroke-linecap="round" stroke-linejoin="round"/>
<path d="M8.99387 14.3733C9.4209 14.3733 10.2028 14.1727 10.7151 13.6481C10.8829 13.4807 11.0155 13.2814 11.1051 13.062C11.1947 12.8425 11.2395 12.6073 11.2368 12.3703C11.2368 11.1459 10.1779 10.5 8.99199 10.5C7.98887 10.5 7.42074 11.0442 7.21777 11.3873" stroke="black" stroke-width="2" stroke-linecap="round" stroke-linejoin="round"/>
<path d="M6.98438 17.5388C7.21313 17.9264 7.90828 18.75 9.04125 18.75C10.3814 18.75 11.4844 18.0028 11.4844 16.6959C11.4844 16.1044 11.3128 15.5709 10.9416 15.1927C10.3622 14.6002 9.47672 14.3733 8.99391 14.3733" stroke="black" stroke-width="2" stroke-linecap="round" stroke-linejoin="round"/>
</svg>
