<svg width="16" height="16" viewBox="0 0 16 16" fill="none" xmlns="http://www.w3.org/2000/svg">
<path d="M10.2605 6.8864C10.5863 7.181 10.8493 7.53832 11.0337 7.93696C11.2181 8.33561 11.3202 8.76737 11.3338 9.2064C11.3587 10.6552 11.1814 12.1004 10.8071 13.5002C10.7694 13.6469 10.6828 13.7765 10.5616 13.8674C10.4403 13.9583 10.2917 14.005 10.1402 14H5.8474C5.69595 14.005 5.54731 13.9583 5.42605 13.8674C5.30479 13.7765 5.21818 13.6469 5.18052 13.5002C4.81075 12.0998 4.63799 10.6548 4.66724 9.20672C4.68002 8.76816 4.78108 8.33668 4.96439 7.93806C5.1477 7.53944 5.40949 7.18187 5.73412 6.88672C6.01845 6.64376 6.24847 6.34369 6.40924 6.00601C6.57 5.66833 6.65791 5.3006 6.66724 4.92672V2H9.33412V4.92672C9.34262 5.30009 9.42948 5.6675 9.58907 6.00515C9.74866 6.3428 9.97742 6.64283 10.2605 6.8864Z" stroke="black" stroke-linecap="round" stroke-linejoin="round"/>
<path d="M10 2H6" stroke="black" stroke-linecap="round" stroke-linejoin="round"/>
</svg>
