<svg width="20" height="20" viewBox="0 0 20 20" fill="none" xmlns="http://www.w3.org/2000/svg">
<path d="M4.94238 5.78L6.00488 9.32083M10.6774 13.995L14.2199 15.0575" stroke="black" stroke-width="1.5" stroke-linecap="round" stroke-linejoin="round"/>
<path d="M9.73584 10.2642L14.535 5.465" stroke="black" stroke-width="1.5" stroke-linecap="round" stroke-linejoin="round"/>
<path d="M3.3335 4.58333C3.3335 4.74748 3.36583 4.91003 3.42865 5.06168C3.49146 5.21334 3.58354 5.35114 3.69961 5.46721C3.81569 5.58329 3.95348 5.67536 4.10514 5.73818C4.2568 5.801 4.41934 5.83333 4.5835 5.83333C4.74765 5.83333 4.91019 5.801 5.06185 5.73818C5.21351 5.67536 5.35131 5.58329 5.46738 5.46721C5.58345 5.35114 5.67553 5.21334 5.73835 5.06168C5.80116 4.91003 5.8335 4.74748 5.8335 4.58333C5.8335 4.41918 5.80116 4.25663 5.73835 4.10497C5.67553 3.95332 5.58345 3.81552 5.46738 3.69944C5.35131 3.58337 5.21351 3.4913 5.06185 3.42848C4.91019 3.36566 4.74765 3.33333 4.5835 3.33333C4.41934 3.33333 4.2568 3.36566 4.10514 3.42848C3.95348 3.4913 3.81569 3.58337 3.69961 3.69944C3.58354 3.81552 3.49146 3.95332 3.42865 4.10497C3.36583 4.25663 3.3335 4.41918 3.3335 4.58333Z" stroke="black" stroke-width="1.5" stroke-linecap="round" stroke-linejoin="round"/>
<path d="M14.1665 4.58333C14.1665 4.91485 14.2982 5.23279 14.5326 5.46721C14.767 5.70163 15.085 5.83333 15.4165 5.83333C15.748 5.83333 16.066 5.70163 16.3004 5.46721C16.5348 5.23279 16.6665 4.91485 16.6665 4.58333C16.6665 4.25181 16.5348 3.93387 16.3004 3.69944C16.066 3.46502 15.748 3.33333 15.4165 3.33333C15.085 3.33333 14.767 3.46502 14.5326 3.69944C14.2982 3.93387 14.1665 4.25181 14.1665 4.58333Z" stroke="black" stroke-width="1.5" stroke-linecap="round" stroke-linejoin="round"/>
<path d="M14.1665 15.4167C14.1665 15.7482 14.2982 16.0661 14.5326 16.3006C14.767 16.535 15.085 16.6667 15.4165 16.6667C15.748 16.6667 16.066 16.535 16.3004 16.3006C16.5348 16.0661 16.6665 15.7482 16.6665 15.4167C16.6665 15.0852 16.5348 14.7672 16.3004 14.5328C16.066 14.2984 15.748 14.1667 15.4165 14.1667C15.085 14.1667 14.767 14.2984 14.5326 14.5328C14.2982 14.7672 14.1665 15.0852 14.1665 15.4167Z" stroke="black" stroke-width="1.5" stroke-linecap="round" stroke-linejoin="round"/>
<path d="M3.3335 12.9167C3.3335 13.9112 3.72858 14.8651 4.43185 15.5683C5.13511 16.2716 6.08893 16.6667 7.0835 16.6667C8.07806 16.6667 9.03188 16.2716 9.73515 15.5683C10.4384 14.8651 10.8335 13.9112 10.8335 12.9167C10.8335 11.9221 10.4384 10.9683 9.73515 10.265C9.03188 9.56176 8.07806 9.16667 7.0835 9.16667C6.08893 9.16667 5.13511 9.56176 4.43185 10.265C3.72858 10.9683 3.3335 11.9221 3.3335 12.9167Z" stroke="black" stroke-width="1.5" stroke-linecap="round" stroke-linejoin="round"/>
</svg>
