<svg width="24" height="24" viewBox="0 0 24 24" fill="none" xmlns="http://www.w3.org/2000/svg">
<g clip-path="url(#clip0_10025_4302)">
<path fill-rule="evenodd" clip-rule="evenodd" d="M12.009 0C5.36777 0 -0.000976562 5.40833 -0.000976562 12.0992C-0.000976562 17.4475 3.43897 21.9748 8.21108 23.5771C8.80771 23.6976 9.02626 23.3168 9.02626 22.9965C9.02626 22.716 9.00659 21.7545 9.00659 20.7527C5.66572 21.474 4.97001 19.3104 4.97001 19.3104C4.43312 17.9082 3.6376 17.5478 3.6376 17.5478C2.54413 16.8066 3.71725 16.8066 3.71725 16.8066C4.93019 16.8868 5.56665 18.0486 5.56665 18.0486C6.6402 19.8913 8.37013 19.3707 9.06608 19.0501C9.1654 18.2688 9.48376 17.728 9.82178 17.4276C7.15719 17.1471 4.35371 16.1055 4.35371 11.458C4.35371 10.1359 4.83063 9.05428 5.58632 8.21304C5.46709 7.91263 5.04942 6.67043 5.70579 5.00787C5.70579 5.00787 6.71985 4.6873 9.00635 6.24981C9.98528 5.98497 10.9948 5.85024 12.009 5.84911C13.023 5.84911 14.0567 5.98948 15.0113 6.24981C17.2981 4.6873 18.3121 5.00787 18.3121 5.00787C18.9685 6.67043 18.5506 7.91263 18.4313 8.21304C19.2069 9.05428 19.6642 10.1359 19.6642 11.458C19.6642 16.1055 16.8607 17.1269 14.1762 17.4276C14.6138 17.8081 14.9914 18.5292 14.9914 19.6711C14.9914 21.2936 14.9717 22.5957 14.9717 22.9962C14.9717 23.3168 15.1905 23.6976 15.7869 23.5774C20.559 21.9745 23.999 17.4475 23.999 12.0992C24.0186 5.40833 18.6302 0 12.009 0Z" fill="#24292F"/>
</g>
<defs>
<clipPath id="clip0_10025_4302">
<rect width="24" height="24" fill="white" transform="translate(-0.000976562)"/>
</clipPath>
</defs>
</svg>
