<svg width="21" height="22" viewBox="0 0 21 22" fill="none" xmlns="http://www.w3.org/2000/svg">
<path d="M17.8333 18.5C18.2013 18.5 18.5 18.8375 18.5 19.25V20.75C18.5 21.1655 18.2013 21.5 17.8333 21.5L3.16667 21.5C2.79867 21.5 2.5 21.1655 2.5 20.75V19.25C2.5 18.8375 2.79867 18.5 3.16667 18.5L17.8333 18.5Z" fill="#464748"/>
<path d="M18.8571 12.5C19.212 12.5 19.5 12.8375 19.5 13.25V14.75C19.5 15.1655 19.212 15.5 18.8571 15.5L2.14286 15.5C1.788 15.5 1.5 15.1655 1.5 14.75V13.25C1.5 12.8375 1.788 12.5 2.14286 12.5L18.8571 12.5Z" fill="#464748"/>
<path d="M20.3438 0C20.706 0 21 0.309375 21 0.6875L21 10.3125C21 10.6934 20.706 11 20.3437 11L0.65625 11C0.294001 11 0 10.6934 0 10.3125L0 0.6875C0 0.309375 0.294001 0 0.65625 0L20.3438 0Z" fill="#464748"/>
</svg>
