<?xml version="1.0" encoding="utf-8"?>
<!-- Generator: Adobe Illustrator 24.2.1, SVG Export Plug-In . SVG Version: 6.00 Build 0)  -->
<svg version="1.1" id="Layer_1" xmlns="http://www.w3.org/2000/svg" xmlns:xlink="http://www.w3.org/1999/xlink" x="0px" y="0px"
	 width="14px" height="14px" viewBox="0 0 14 14" style="enable-background:new 0 0 14 14;" xml:space="preserve">
<style type="text/css">
	.st0{fill-rule:evenodd;clip-rule:evenodd;}
</style>
<path class="st0" d="M0.7,6.7C0.7,3,3.7,0,7.3,0C11,0,14,3,14,6.7c0,3.7-3,6.7-6.7,6.7h-6c-0.3,0-0.5-0.1-0.6-0.4
	c-0.1-0.2,0-0.5,0.1-0.7l1.3-1.3C1.2,9.7,0.7,8.2,0.7,6.7z M2.9,12h4.4c2.5,0,4.7-1.8,5.2-4.3c0.5-2.5-0.8-5-3.2-6
	c-2.4-1-5.1-0.1-6.5,2s-1.1,4.9,0.7,6.7c0.3,0.3,0.3,0.7,0,0.9L2.9,12z"/>
</svg>
