<svg width="24" height="22" viewBox="0 0 24 22" fill="none" xmlns="http://www.w3.org/2000/svg">
<path d="M19.2838 10.6818C20.56 10.6818 21.5988 9.63111 21.5988 8.33994C21.5988 7.04826 20.5603 5.99731 19.2838 5.99731C18.007 5.99731 16.9678 7.048 16.9678 8.33994C16.968 9.63111 18.007 10.6818 19.2838 10.6818Z" fill="#464748"/>
<path d="M20.147 11.3345H18.4195C18.1168 11.3345 17.6428 11.9548 17.1455 12.855C17.25 13.0828 17.3478 13.3026 17.436 13.5072C18.3438 15.5992 19.0538 17.7726 19.3853 19.3903H23.2823C23.3273 19.3903 23.374 19.3786 23.415 19.2937C23.4555 19.2079 23.477 19.0744 23.477 18.8977C23.4765 16.8479 21.0493 11.3345 20.147 11.3345Z" fill="#464748"/>
<path d="M4.9891 10.6818C6.2656 10.6818 7.3041 9.63111 7.3041 8.33994C7.3041 7.04826 6.26585 5.99731 4.9891 5.99731C3.7121 5.99731 2.67285 7.048 2.67285 8.33994C2.67285 9.63111 3.71185 10.6818 4.9891 10.6818Z" fill="#464748"/>
<path d="M5.85259 11.3345H4.12509C3.22059 11.3345 0.788086 16.8491 0.788086 18.8994C0.788086 19.0757 0.809086 19.2087 0.850336 19.2944C0.890586 19.3784 0.937586 19.39 0.981836 19.39H4.88359C5.25934 17.566 6.10809 15.036 7.11709 12.8416C6.62359 11.9487 6.15334 11.3345 5.85259 11.3345Z" fill="#464748"/>
<path d="M12.1335 7.87615C14.258 7.87615 15.986 6.12753 15.986 3.97836C15.986 1.82893 14.258 0.0805664 12.1335 0.0805664C10.0085 0.0805664 8.2793 1.82893 8.2793 3.97836C8.2793 5.01792 8.6803 5.99604 9.4093 6.73316C10.1383 7.47029 11.1058 7.87615 12.1335 7.87615Z" fill="#464748"/>
<path d="M13.5084 8.83911H10.7689C9.10365 8.83911 5.2959 17.9072 5.2959 21.0185C5.2959 21.3306 5.33415 21.5617 5.4129 21.7258C5.4944 21.8947 5.61965 21.9807 5.78515 21.9807H18.4789C18.6474 21.9807 18.7694 21.8967 18.8529 21.7238C18.9301 21.5617 18.9696 21.3235 18.9696 21.0155C18.9694 17.9054 15.1691 8.83911 13.5084 8.83911Z" fill="#464748"/>
</svg>
