<svg xmlns="http://www.w3.org/2000/svg" width="19" height="20" viewBox="0 0 19 20">
    <g fill="#464748">
        <path d="M17.04 4.129C15.478 1.796 13.013.614 9.71.614c-3.301 0-5.768 1.182-7.33 3.515C.872 6.374.71 9.046.71 10.09c0 1.492 1.481 3.543 4.403 6.097 2.095 1.832 4.24 3.31 4.265 3.326.099.066.214.1.332.1.118 0 .233-.034.335-.102.02-.014 2.162-1.487 4.262-3.324 2.922-2.554 4.403-4.605 4.403-6.097 0-1.044-.163-3.716-1.67-5.961zM9.71 1.752c2.88 0 5.018 1.01 6.353 3s1.479 4.396 1.479 5.338c0 2.021-4.628 6-7.832 8.255-3.205-2.256-7.833-6.234-7.833-8.255 0-.942.145-3.349 1.48-5.338 1.335-1.99 3.472-3 6.353-3z"/>
        <path d="M6.887 10.038l-.474 2.885c-.037.224.05.445.224.578.17.13.415.145.594.045l2.48-1.363 2.478 1.363c.08.044.172.068.262.068.12 0 .235-.04.33-.113.174-.13.263-.357.226-.577l-.473-2.886 2.006-2.043c.154-.158.209-.39.142-.604-.065-.212-.243-.37-.455-.403l-2.771-.42-1.241-2.626c-.095-.202-.289-.328-.505-.328-.215 0-.409.126-.505.329l-1.24 2.625-2.773.42c-.213.033-.388.187-.454.402-.067.215-.012.446.142.605l2.007 2.043zm4.646-.626c-.132.137-.192.331-.16.52l.33 2.015-1.73-.952c-.163-.088-.36-.089-.524 0l-1.73.952.329-2.013c.032-.191-.028-.386-.16-.523L6.486 7.984l1.934-.294c.184-.028.342-.148.425-.322l.864-1.832.866 1.832c.082.173.241.294.425.322l1.933.294-1.401 1.428z"/>
    </g>
</svg>
