<svg width="20" height="22" viewBox="0 0 20 22" fill="none" xmlns="http://www.w3.org/2000/svg">
<path d="M2.11523 3.54504C2.11523 3.85814 2.36469 4.11205 2.67242 4.11205H18.0582C18.366 4.11205 18.6154 3.85814 18.6154 3.54504C18.6154 3.23193 18.366 2.97803 18.0582 2.97803H2.67242C2.36469 2.97803 2.11523 3.23193 2.11523 3.54504Z" fill="white"/>
<path d="M15.515 1.16234C15.8228 1.16234 16.0722 0.908434 16.0722 0.595331C16.0722 0.282228 15.8228 0.0283203 15.515 0.0283203H5.21636C4.90863 0.0283203 4.65918 0.282228 4.65918 0.595331C4.65918 0.908434 4.90863 1.16234 5.21636 1.16234H15.515Z" fill="white"/>
<path d="M15.4432 13.5674C15.4395 13.5674 15.4356 13.5674 15.4318 13.5674C15.0328 13.5674 14.6694 13.7548 14.4332 14.083L11.3758 18.3308C10.6285 19.369 9.21994 19.6216 8.16898 18.9059L5.88335 17.3493C5.46836 17.0667 4.93062 17.0646 4.51351 17.344L0.9375 19.7393V20.7114C0.9375 21.4064 1.49312 21.9718 2.17607 21.9718H18.6055C19.2884 21.9718 19.8441 21.4064 19.8441 20.7114V19.003L16.4443 14.1011C16.2116 13.7655 15.8468 13.5711 15.4432 13.5674Z" fill="white"/>
<path d="M8.32435 9.67432C7.20318 9.67432 6.29102 10.6025 6.29102 11.7435C6.29102 12.8844 7.20318 13.8126 8.32435 13.8126C9.44552 13.8126 10.3576 12.8844 10.3576 11.7435C10.3576 10.6025 9.44552 9.67432 8.32435 9.67432Z" fill="white"/>
<path fill-rule="evenodd" clip-rule="evenodd" d="M18.6055 7.11572C19.2884 7.11572 19.8441 7.68115 19.8441 8.37613H19.8441V17.036L17.3548 13.4467C16.9128 12.8094 16.2196 12.4399 15.4531 12.4331L15.4314 12.433C14.6734 12.433 13.9829 12.7892 13.5342 13.4125L10.4768 17.6604C10.0835 18.2069 9.34207 18.3399 8.78879 17.9631L6.50316 16.4065C5.71475 15.8696 4.69326 15.8656 3.90083 16.3964L0.9375 18.3814V8.37613C0.9375 7.68115 1.49312 7.11572 2.17607 7.11572H18.6055ZM5.17701 11.7432C5.17701 13.5094 6.58908 14.9464 8.32471 14.9464C10.0603 14.9464 11.4724 13.5095 11.4724 11.7432C11.4724 9.97703 10.0603 8.54005 8.32471 8.54005C6.58903 8.54005 5.17701 9.97703 5.17701 11.7432Z" fill="white"/>
</svg>
