<svg width="18" height="21" viewBox="0 0 18 21" fill="none" xmlns="http://www.w3.org/2000/svg">
<path d="M3.86047 7.54745L1.52713 5.76967C1.3774 5.65594 1.16913 5.69259 1.06213 5.85248C0.955118 6.01219 0.989785 6.23426 1.1396 6.34848L3.47293 8.12626C3.53168 8.17088 3.5994 8.19241 3.66645 8.19241C3.77038 8.19241 3.87292 8.14067 3.93793 8.04345C4.04495 7.88373 4.01028 7.66167 3.86047 7.54745Z" fill="white"/>
<path d="M3.47293 11.281L1.1396 13.0588C0.989785 13.173 0.955118 13.395 1.06213 13.5548C1.12715 13.652 1.2296 13.7037 1.33362 13.7037C1.40067 13.7037 1.46838 13.6822 1.52713 13.6376L3.86047 11.8598C4.01028 11.7456 4.04495 11.5235 3.93793 11.3638C3.83093 11.2039 3.62275 11.1671 3.47293 11.281Z" fill="white"/>
<path d="M3.16667 9.61483C3.16667 9.41848 3.01742 9.25928 2.83333 9.25928H0.333333C0.149249 9.25928 0 9.41848 0 9.61483C0 9.81119 0.149249 9.97039 0.333333 9.97039H2.83333C3.01742 9.97039 3.16667 9.81119 3.16667 9.61483Z" fill="white"/>
<path d="M15.7847 5.71123L14.2132 8.78188L14.1005 8.72943L14.7004 1.84233C14.7004 1.84233 12.7991 0.614221 12.4849 3.54658L12.1816 6.63959C11.0343 2.03638 11.0154 1.97652 10.1908 0.706204C10.1908 0.706204 8.61963 0.55264 8.90243 2.61002L9.84823 6.75536L10.0157 6.87444L9.81363 6.78623L5.91707 7.09321L4.0315 10.041C4.0315 10.041 6.00333 11.0544 6.75748 9.09643C6.75748 9.09643 7.74748 9.87956 8.8317 9.37301L9.53882 11.2156L8.33667 12.7815L6.68685 12.2748C6.68685 12.2748 6.3099 10.1023 4 10.9774L5.08423 13.8406L6.8518 15.522C6.8518 15.522 7.5118 17.8708 9.20882 19.0224C9.20882 19.0224 9.29322 19.5239 9.39738 19.9435C9.50147 20.3632 9.507 20.7036 10.3402 20.7036H13.4748C14.308 20.7036 14.2789 20.0454 14.3404 19.2337L14.8419 12.6202L18 5.48111C18 5.48111 16.6802 4.37555 15.7847 5.71123Z" fill="white"/>
</svg>
