<svg width="91" height="20" viewBox="0 0 91 20" fill="none" xmlns="http://www.w3.org/2000/svg">
<path d="M16.7799 12.5301C17.2002 10.485 19.0301 9.19333 21.4339 8.94218L24.6067 8.62952L24.6323 8.5065C24.8271 7.54802 24.2889 7.23536 23.3714 7.23536C22.4539 7.23536 21.721 7.65053 21.5262 8.30148H17.8973C18.4816 5.86171 20.7727 4.23177 24.1556 4.23177C27.5385 4.23177 29.0916 5.69256 28.456 8.79866L27.0618 15.6208H23.7251L23.843 14.119C23.0485 15.139 21.4493 15.831 19.8194 15.831C18.1895 15.831 16.375 14.5188 16.7799 12.5352M24.089 11.1564L24.13 10.9463L21.9619 11.1564C21.193 11.2384 20.8035 11.6177 20.7164 12.0534C20.6036 12.5967 20.8599 12.9709 21.6133 12.9709C22.782 12.9709 23.8378 12.1969 24.0941 11.1564" fill="#004EFF"/>
<path d="M42.5308 4.4368L40.3319 15.18C39.7066 18.2451 37.2156 19.998 33.4637 19.998C29.7118 19.998 28.3278 18.3937 28.7481 15.8258H32.5667C32.5257 16.6408 33.0895 17.0355 34.0941 17.0355C35.0987 17.0355 36.2161 16.4512 36.4211 15.4517L36.744 13.8679C35.8317 14.5547 34.7399 14.8878 33.5098 14.8878C30.4447 14.8878 29.558 12.9914 30.1372 10.1518L31.3058 4.4368H35.1654L34.0582 9.83916C33.7917 11.1308 34.3607 11.7151 35.4063 11.7151C36.4519 11.7151 37.3335 10.9617 37.5693 9.81865L38.6713 4.4368H42.5308Z" fill="#004EFF"/>
<path d="M61.1725 8.35786L60.0347 13.9089C59.8296 14.9032 58.9583 15.6157 57.9434 15.6157H55.8061L57.1848 8.87554C57.3899 7.87606 56.9234 7.39426 56.088 7.39426C55.2525 7.39426 54.4939 8.04008 54.2991 8.99856L52.946 15.6106H49.1274L50.5011 8.89092C50.7112 7.87093 50.2448 7.38913 49.4093 7.38913C48.5739 7.38913 47.8358 8.03495 47.641 8.99344L46.2879 15.6054H42.4078L44.6938 4.42142H48.0921L48.0818 5.59005C48.9275 4.71358 50.0757 4.21127 51.3468 4.21127C52.618 4.21127 53.7968 4.8776 54.1146 5.88221C55.0885 4.79559 56.4775 4.21127 58.0254 4.21127C60.6139 4.21127 61.6697 5.88221 61.1674 8.34249" fill="#004EFF"/>
<path d="M69.9475 4.22665C73.7866 4.22665 75.7548 6.54341 75.0424 10.0288C74.3401 13.4732 71.4186 15.8053 67.5795 15.8053C63.7405 15.8053 61.7569 13.4681 62.4591 10.0288C63.1715 6.54341 66.1085 4.22665 69.9475 4.22665ZM68.2407 12.5506C69.7835 12.5506 70.8086 11.5306 71.1213 10.0032C71.4647 8.33223 70.7215 7.48139 69.3427 7.48139C67.9639 7.48139 66.6979 8.48088 66.375 10.0493C66.0418 11.6741 66.8209 12.5506 68.2407 12.5506Z" fill="#004EFF"/>
<path d="M11.6133 4.22665C9.9014 4.22665 8.32785 4.79046 7.27711 5.72844L7.29248 4.4368H4.06849L2.80248 10.2389C2.50007 11.8535 3.59694 12.0483 4.15563 12.0995L4.13513 12.1354C3.57131 12.202 2.35655 12.5352 2.06952 13.8884L1.42882 17.1534C1.38782 17.3584 0.931641 19.7879 0.931641 19.7879H2.87423C3.91985 19.7879 4.82708 19.0498 5.03723 18.0247L5.7138 14.7187C6.42113 15.4465 7.59489 15.8258 8.90704 15.8258C12.4744 15.8258 15.2935 13.4681 16.006 9.98267C16.7133 6.51778 14.9706 4.22665 11.6133 4.22665ZM12.0849 10.0698C11.7722 11.5921 10.4652 12.6787 8.86091 12.6787C7.2566 12.6787 6.33912 11.6587 6.66204 10.0698L6.69791 9.88016C6.99007 8.46037 8.23046 7.37888 9.9014 7.37888C11.5723 7.37888 12.4129 8.4655 12.0849 10.0698Z" fill="#004EFF"/>
<path d="M85.5908 4.25228C83.966 4.25228 82.4386 4.77508 81.4903 5.63106L82.6436 -0.00195312H78.7635L77.8768 4.57006C77.5078 6.47165 78.784 6.69718 79.4298 6.75868L79.4094 6.79969C78.7482 6.8817 77.3335 7.27124 76.985 8.8653L75.5652 15.6464H78.9224L79.4606 14.3548C80.0193 15.2928 81.3007 15.8566 82.9921 15.8566C86.4775 15.8566 89.2043 13.5398 89.9219 10.0339C90.6292 6.56904 88.9122 4.2574 85.5959 4.2574M86.0162 10.0288C85.6984 11.5716 84.3658 12.6992 82.7563 12.6992C81.1469 12.6992 80.2653 11.6126 80.5575 10.1979L80.5985 10.0083C80.9111 8.486 82.1515 7.39938 83.8635 7.39938C85.5754 7.39938 86.3391 8.445 86.0162 10.0288Z" fill="#004EFF"/>
</svg>
