<svg width="24" height="24" viewBox="0 0 24 24" fill="none" xmlns="http://www.w3.org/2000/svg">
<path d="M4 18.6458V8.05426C4 5.20025 4 3.77325 4.87868 2.88663C5.75736 2 7.17157 2 10 2H14C16.8284 2 18.2426 2 19.1213 2.88663C20 3.77325 20 5.20025 20 8.05426V18.6458C20 20.1575 20 20.9133 19.538 21.2108C18.7831 21.6971 17.6161 20.6774 17.0291 20.3073C16.5441 20.0014 16.3017 19.8485 16.0325 19.8397C15.7417 19.8301 15.4949 19.9768 14.9709 20.3073L13.06 21.5124C12.5445 21.8374 12.2868 22 12 22C11.7132 22 11.4555 21.8374 10.94 21.5124L9.02913 20.3073C8.54415 20.0014 8.30166 19.8485 8.03253 19.8397C7.74172 19.8301 7.49493 19.9768 6.97087 20.3073C6.38395 20.6774 5.21687 21.6971 4.46195 21.2108C4 20.9133 4 20.1575 4 18.6458Z" stroke="black" stroke-width="2" stroke-linecap="round" stroke-linejoin="round"/>
<path d="M16 13H8" stroke="black" stroke-width="2" stroke-linecap="round" stroke-linejoin="round"/>
<path d="M10 10H8" stroke="black" stroke-width="2" stroke-linecap="round" stroke-linejoin="round"/>
<path d="M16 16H8" stroke="black" stroke-width="2" stroke-linecap="round" stroke-linejoin="round"/>
<path d="M13.5 8C13.5 8.55228 13.9477 9 14.5 9H15.5C16.0523 9 16.5 8.55228 16.5 8C16.5 7.44772 16.0523 7 15.5 7H14.5C13.9477 7 13.5 6.55228 13.5 6C13.5 5.44772 13.9477 5 14.5 5H15.5C16.0523 5 16.5 5.44772 16.5 6M15 4.5V9.5" stroke="black" stroke-linecap="round" stroke-linejoin="round"/>
</svg>
