<svg width="16" height="16" viewBox="0 0 16 16" fill="none" xmlns="http://www.w3.org/2000/svg">
<path d="M13.5 14C13.776 14 14 14.225 14 14.5V15.5C14 15.777 13.776 16 13.5 16L2.5 16C2.224 16 2 15.777 2 15.5V14.5C2 14.225 2.224 14 2.5 14L13.5 14Z" fill="#464748"/>
<path d="M14.5 10C14.776 10 15 10.225 15 10.5V11.5C15 11.777 14.776 12 14.5 12L1.5 12C1.224 12 1 11.777 1 11.5V10.5C1 10.225 1.224 10 1.5 10L14.5 10Z" fill="#464748"/>
<path d="M15.5 0C15.776 0 16 0.225 16 0.5L16 7.5C16 7.777 15.776 8 15.5 8L0.5 8C0.224 8 0 7.777 0 7.5V0.5C0 0.225 0.224 0 0.5 0L15.5 0Z" fill="#464748"/>
</svg>
