<svg width="18" height="14" viewBox="0 0 18 14" fill="none" xmlns="http://www.w3.org/2000/svg">
<path fill-rule="evenodd" clip-rule="evenodd" d="M3.03125 0.1875C2.35277 0.1875 1.80345 0.6666 1.6875 1.3125H1.59375C0.831897 1.3125 0.21875 1.95685 0.21875 2.71875V6.90625C1.84423 6.22325 3.62603 6.2284 4.59375 6.625C5.65738 7.06095 6.4338 7.90216 7.15979 8.68873L7.1875 8.71875C7.20283 8.70764 7.21881 8.69742 7.2348 8.68719C7.25046 8.67717 7.26614 8.66714 7.28125 8.65625C7.62651 8.40085 7.98037 8.11929 8.34282 7.8309C8.89601 7.39074 9.46923 6.93464 10.0625 6.53125C11.0445 5.86365 12.0757 5.33475 13.1875 5.34375C14.1195 5.35375 15.5682 5.7495 16.6562 6.6875V2.71875C16.6562 1.95695 16.0431 1.3125 15.2812 1.3125H2.25C2.35422 0.9828 2.66268 0.75 3.03125 0.75H16.4062C16.8636 0.75 17.2188 1.1051 17.2188 1.5625V10.7812C17.2188 11.1497 16.986 11.4583 16.6562 11.5625V7.5C15.6234 6.3423 14.0745 5.91335 13.1875 5.90625C12.2594 5.89625 11.315 6.3609 10.375 7C9.82648 7.37294 9.28874 7.80711 8.75681 8.23659L8.7568 8.2366C8.37718 8.54311 8.00052 8.84723 7.625 9.125C6.72329 9.792 5.85215 10.3438 4.9375 10.3438C4.78762 10.3438 4.625 10.2124 4.625 10.0625C4.625 9.9126 4.78762 9.78125 4.9375 9.78125C5.45848 9.78125 6.04574 9.44325 6.6875 9.03125C5.97527 8.26225 5.26603 7.52135 4.375 7.15625C3.50554 6.79985 1.79544 6.7566 0.21875 7.5V12.4375C0.21875 13.1994 0.831897 13.8125 1.59375 13.8125H15.2812C16.0431 13.8125 16.6562 13.1994 16.6562 12.4375V12.125C17.2943 12.0027 17.7812 11.4542 17.7812 10.7812V1.5625C17.7812 0.8006 17.1681 0.1875 16.4062 0.1875H3.03125ZM8.125 3.03125C8.90504 3.03125 9.5625 3.68865 9.5625 4.46875C9.5625 5.24875 8.90504 5.875 8.125 5.875C7.34496 5.875 6.71875 5.24875 6.71875 4.46875C6.71875 3.68865 7.34496 3.03125 8.125 3.03125ZM7.28125 4.46875C7.28125 3.99535 7.6516 3.625 8.125 3.625C8.5984 3.625 8.96875 3.99535 8.96875 4.46875C8.96875 4.94215 8.5984 5.3125 8.125 5.3125C7.6516 5.3125 7.28125 4.94215 7.28125 4.46875Z" fill="#464748"/>
</svg>
