<svg width="20" height="22" viewBox="0 0 20 22" fill="none" xmlns="http://www.w3.org/2000/svg">
<path d="M2.11523 3.54504C2.11523 3.85814 2.36469 4.11205 2.67242 4.11205H18.0582C18.366 4.11205 18.6154 3.85814 18.6154 3.54504C18.6154 3.23193 18.366 2.97803 18.0582 2.97803H2.67242C2.36469 2.97803 2.11523 3.23193 2.11523 3.54504Z" fill="#464748"/>
<path d="M15.515 1.16234C15.8228 1.16234 16.0722 0.908434 16.0722 0.595331C16.0722 0.282228 15.8228 0.0283203 15.515 0.0283203H5.21636C4.90863 0.0283203 4.65918 0.282228 4.65918 0.595331C4.65918 0.908434 4.90863 1.16234 5.21636 1.16234H15.515Z" fill="#464748"/>
<path d="M15.4432 13.5672C15.4395 13.5671 15.4356 13.5671 15.4318 13.5671C15.0328 13.5671 14.6694 13.7546 14.4332 14.0828L11.3758 18.3306C10.6285 19.3687 9.21994 19.6213 8.16898 18.9057L5.88335 17.3491C5.46836 17.0665 4.93062 17.0644 4.51351 17.3437L0.9375 19.7391V20.7112C0.9375 21.4062 1.49312 21.9716 2.17607 21.9716H18.6055C19.2884 21.9716 19.8441 21.4062 19.8441 20.7112V19.0027L16.4443 14.1008C16.2116 13.7653 15.8468 13.5708 15.4432 13.5672Z" fill="#464748"/>
<path d="M8.32435 9.67432C7.20318 9.67432 6.29102 10.6025 6.29102 11.7435C6.29102 12.8844 7.20318 13.8126 8.32435 13.8126C9.44552 13.8126 10.3576 12.8844 10.3576 11.7435C10.3576 10.6025 9.44552 9.67432 8.32435 9.67432Z" fill="#464748"/>
<path fill-rule="evenodd" clip-rule="evenodd" d="M18.6055 7.11597C19.2884 7.11597 19.8441 7.68139 19.8441 8.37637H19.8441V17.0362L17.3548 13.447C16.9128 12.8097 16.2196 12.4402 15.4531 12.4333L15.4314 12.4333C14.6734 12.4333 13.9829 12.7894 13.5342 13.4128L10.4768 17.6606C10.0835 18.2071 9.34207 18.3402 8.78879 17.9633L6.50316 16.4068C5.71475 15.8698 4.69326 15.8658 3.90083 16.3966L0.9375 18.3816V8.37637C0.9375 7.68139 1.49312 7.11597 2.17607 7.11597H18.6055ZM5.17701 11.7435C5.17701 13.5097 6.58908 14.9467 8.32471 14.9467C10.0603 14.9467 11.4724 13.5097 11.4724 11.7435C11.4724 9.97727 10.0603 8.5403 8.32471 8.5403C6.58903 8.5403 5.17701 9.97727 5.17701 11.7435Z" fill="#464748"/>
</svg>
