<svg width="79" height="34" viewBox="0 0 79 34" fill="none" xmlns="http://www.w3.org/2000/svg">
<path d="M2.87566 6.61621C10.325 9.42034 7.7358 14.4739 7.7358 14.4739C1.45238 14.9199 2.87566 6.61621 2.87566 6.61621Z" fill="#535356"/>
<path d="M12.4308 8.36621C14.0981 16.9711 7.47246 17.9912 7.47246 17.9912C3.24536 12.6029 12.4308 8.36621 12.4308 8.36621Z" fill="#535356"/>
<path d="M0.0205078 18.0467C8.78154 17.3097 9.07701 24.1579 9.07701 24.1579C3.24505 27.856 0.0205078 18.0467 0.0205078 18.0467Z" fill="#535356"/>
<path d="M11.9601 18.8662C17.6783 26.089 11.9967 30.2412 11.9967 30.2412C5.44915 27.2565 11.9601 18.8662 11.9601 18.8662Z" fill="#535356"/>
<path d="M1.83203 27.8102C11.8636 23.9686 14.5111 31.7161 14.5111 31.7161C8.91082 37.9472 1.83203 27.8102 1.83203 27.8102Z" fill="#535356"/>
<path d="M71.2169 18.8007C72.3473 17.2818 72.5502 15.8483 72.2299 14.5567C77.6313 14.3859 76.3415 5.6189 76.3415 5.6189C71.9198 7.55706 71.127 10.4454 71.1836 12.4065C69.3647 9.90242 66.0879 8.31044 66.0879 8.31044C64.3632 17.689 71.2169 18.8007 71.2169 18.8007Z" fill="#535356"/>
<path d="M69.3652 23.2362C70.2737 23.8262 71.1177 24.0735 71.8939 24.0735C76.0143 24.0735 78.2541 17.0992 78.2541 17.0992C77.816 17.0608 77.3976 17.0432 77.0004 17.0432C69.6259 17.0431 69.3652 23.2362 69.3652 23.2362Z" fill="#535356"/>
<path d="M68.3419 27.1436C70.0518 23.3872 65.7727 17.9219 65.7727 17.9219C60.9481 23.9622 63.9944 27.9015 65.2608 29.1335C64.0495 30.4058 63.6062 31.6968 63.6062 31.6968C64.9424 33.1738 66.3615 33.7401 67.7516 33.7401C72.2722 33.7401 76.4759 27.756 76.4759 27.756C74.4518 26.9866 72.7244 26.6781 71.2559 26.6781C70.1421 26.6782 69.1751 26.8554 68.3419 27.1436Z" fill="#535356"/>
<path d="M70.0717 8C74.019 3.03175 64.1004 0 64.1004 0C63.0874 7.57943 70.0717 8 70.0717 8Z" fill="#535356"/>
<path d="M12.9139 0C13.7822 7.57934 7.79565 8 7.79565 8C4.41231 3.03166 12.9139 0 12.9139 0Z" fill="#535356"/>
</svg>
