<svg width="16" height="16" viewBox="0 0 16 16" fill="none" xmlns="http://www.w3.org/2000/svg">
<path fill-rule="evenodd" clip-rule="evenodd" d="M13.9374 6.89778C13.9374 8.46222 13.404 9.90222 12.5329 11.0578L15.5374 14.0622C15.9818 14.5067 15.9818 15.2178 15.5374 15.6622C15.324 15.8933 15.0218 16 14.7374 16C14.4529 16 14.1507 15.8756 13.9374 15.6622L10.9151 12.64L10.8796 12.6044C9.77736 13.3511 8.44402 13.7956 7.0218 13.7956C3.21736 13.7956 0.124023 10.7022 0.124023 6.89778C0.124023 3.09333 3.21736 0 7.0218 0C10.8262 0 13.9374 3.09333 13.9374 6.89778ZM2.3818 6.89778C2.3818 9.45778 4.4618 11.5378 7.0218 11.5378C9.5818 11.5378 11.6618 9.45778 11.6618 6.89778C11.6618 4.33778 9.5818 2.25778 7.0218 2.25778C4.4618 2.25778 2.3818 4.33778 2.3818 6.89778Z" fill="#464748"/>
</svg>
