<svg width="16" height="21" viewBox="0 0 16 21" fill="none" xmlns="http://www.w3.org/2000/svg">
<path fill-rule="evenodd" clip-rule="evenodd" d="M8.88889 6.3913V3.12149L9.88997 4.14977C10.2293 4.49828 10.7941 4.50039 11.1413 4.14382C11.4908 3.78477 11.491 3.21181 11.1471 2.85854L8.6213 0.264151C8.4526 0.0908649 8.22813 0.00322045 8.00239 0.00272578L7.9956 0C7.77072 0.00021641 7.54683 0.0884886 7.37582 0.264151L4.85007 2.85854C4.51078 3.20704 4.50873 3.78725 4.85586 4.14382C5.20542 4.50287 5.76321 4.50305 6.10715 4.14977L7.11111 3.11853V6.3913V8.21739V11.8709C7.11111 12.374 7.50908 12.7826 8 12.7826C8.49434 12.7826 8.88889 12.3744 8.88889 11.8709V8.21739V6.3913ZM1.77341 6.3913H4.44444V8.21739L1.77778 8.21739V19.1739H14.2222V8.21739L11.5556 8.21739V6.3913H14.2266C15.206 6.3913 16 7.20803 16 8.21197V19.1793C16 20.1849 15.2066 21 14.2266 21H1.77341C0.793984 21 0 20.1833 0 19.1793V8.21197C0 7.20644 0.793442 6.3913 1.77341 6.3913Z" fill="#464748"/>
</svg>
