<svg width="20" height="19" viewBox="0 0 20 19" fill="none" xmlns="http://www.w3.org/2000/svg">
<path d="M9.58718 1.02058C9.78572 0.730095 10.2142 0.730095 10.4128 1.02058L13.4209 5.42176C13.486 5.51706 13.5822 5.58688 13.6929 5.61939L18.8089 7.12064C19.1465 7.21971 19.2789 7.62725 19.0639 7.90583L15.8073 12.127C15.7368 12.2184 15.7001 12.3313 15.7034 12.4467L15.8565 17.7754C15.8666 18.1271 15.5199 18.379 15.1886 18.2607L10.1681 16.4683C10.0594 16.4295 9.94057 16.4295 9.83185 16.4683L4.81138 18.2607C4.48002 18.379 4.13337 18.1271 4.14347 17.7754L4.29651 12.4467C4.29982 12.3313 4.26311 12.2184 4.19259 12.127L0.935993 7.90583C0.721069 7.62725 0.853469 7.21971 1.19108 7.12064L6.30702 5.61939C6.41779 5.58688 6.51389 5.51706 6.57903 5.42176L9.58718 1.02058ZM8.33747 10.125C8.33514 10.0553 8.27797 9.99996 8.20823 9.99996H7.16663C6.89049 9.99996 6.66279 10.2251 6.70405 10.4981C6.80768 11.1839 7.12359 11.8249 7.61364 12.3274C8.22082 12.9499 9.04725 13.3106 9.91661 13.3323C10.786 13.354 11.6294 13.0352 12.2669 12.4438C12.9045 11.8523 13.2857 11.0352 13.3291 10.1666C13.3314 10.0753 13.258 9.99996 13.1666 9.99996H12.1689C11.8919 9.99996 11.6748 10.2301 11.5937 10.495C11.5181 10.7423 11.3852 10.9709 11.203 11.1609C10.9037 11.4731 10.4947 11.6567 10.0625 11.6729C9.63033 11.6891 9.20876 11.5367 8.88687 11.2479C8.56498 10.959 8.36797 10.5564 8.33747 10.125Z" fill="#B3B3B3"/>
</svg>
