<svg width="286" height="40" viewBox="0 0 286 40" fill="none" xmlns="http://www.w3.org/2000/svg">
<path fill-rule="evenodd" clip-rule="evenodd" d="M40.0631 20.0778C40.0913 21.4815 39.9379 22.8162 39.6566 24.1357C39.2348 26.1085 38.5547 27.9843 37.5602 29.7478C36.9951 30.7508 36.356 31.7002 35.635 32.5935C34.689 33.7624 33.6203 34.8138 32.4315 35.7403C31.1915 36.7075 29.8671 37.537 28.4303 38.1852C26.794 38.9253 25.0887 39.4434 23.3144 39.7369C21.7804 39.9921 20.2387 40.0534 18.6919 39.9564C16.6517 39.8288 14.6729 39.3847 12.7656 38.6472C10.3035 37.6978 8.12523 36.2966 6.21284 34.4846C5.20296 33.525 4.30556 32.4659 3.51044 31.32C2.0199 29.1685 1.03047 26.8052 0.457776 24.2633C0.0614961 22.5151 -0.0688939 20.7337 0.0333661 18.9421C0.214886 15.7417 1.08672 12.7404 2.69742 9.96368C4.26466 7.26607 6.34323 5.05081 8.94848 3.32557C9.79729 2.7641 10.6768 2.26133 11.6023 1.83767C13.2769 1.07203 15.0231 0.541178 16.846 0.250238C18.3366 0.0128885 19.8348 -0.0483615 21.3381 0.0358585C23.0204 0.132838 24.6669 0.451858 26.2699 0.969938C27.7247 1.43953 29.1129 2.0597 30.4168 2.85852C31.777 3.69052 33.0272 4.66033 34.1624 5.78582C35.2822 6.896 36.2486 8.11847 37.0846 9.44814C37.8619 10.6859 38.4806 12.0003 38.9587 13.3784C39.3856 14.6086 39.7001 15.8693 39.8791 17.1607C40.0146 18.1484 40.1015 19.136 40.0631 20.0778ZM21.7472 9.26183C21.7369 8.95813 21.6781 8.63145 21.5324 8.3303C21.2614 7.77393 20.9572 7.23798 20.5967 6.73521C20.4944 6.58974 20.3691 6.46724 20.2183 6.37026C19.868 6.14057 19.4615 6.21968 19.2391 6.57188C19.17 6.68162 19.1189 6.80668 19.0678 6.92918C18.6766 7.81732 18.2931 8.70547 17.8994 9.59361C17.2116 11.1453 16.5264 12.697 15.831 14.2436C15.0334 16.0122 14.2229 17.7732 13.4227 19.5393C12.5585 21.4457 11.6969 23.3547 10.8404 25.2637C10.4518 26.1289 10.0811 26.9992 9.74872 27.8873C9.58509 28.3212 9.4547 28.7653 9.37033 29.2195C9.34221 29.3701 9.33198 29.5258 9.33454 29.6764C9.3371 29.7606 9.378 29.8474 9.42147 29.9214C9.55442 30.1587 9.80497 30.2276 10.0453 30.1153C10.2294 30.0286 10.3802 29.9035 10.5183 29.7606C10.8123 29.4594 11.0526 29.1174 11.2929 28.7729C11.7864 28.066 12.1852 27.3029 12.6122 26.5576C13.6093 24.8171 14.5962 23.0689 15.5907 21.3283C16.3347 20.0267 17.0659 18.72 17.7613 17.3904C18.7328 15.535 19.7172 13.6872 20.6938 11.8369C20.9623 11.329 21.2256 10.8212 21.4889 10.3133C21.6526 9.98917 21.7446 9.65229 21.7472 9.26181L21.7472 9.26183ZM20.7833 14.5294C20.7961 14.6545 20.8063 14.7413 20.8165 14.8306C20.8498 15.1419 20.9444 15.4329 21.0901 15.7085C21.3688 16.2343 21.65 16.76 21.9389 17.2781C22.6113 18.4929 23.2837 19.7077 23.9689 20.9174C24.8484 22.4717 25.7407 24.0183 26.6279 25.5674C27.1648 26.5041 27.6965 27.4458 28.2411 28.3799C28.5402 28.8954 28.8854 29.3803 29.3047 29.8116C29.4453 29.9571 29.6013 30.072 29.7956 30.1409C29.9106 30.1817 30.0103 30.1536 30.1075 30.0949C30.2507 30.0107 30.3299 29.8831 30.3606 29.7249C30.3913 29.5717 30.3759 29.4212 30.3325 29.268C30.1637 28.6734 30.0052 28.0787 29.7547 27.5122C29.5425 27.0273 29.3533 26.5347 29.1487 26.0472C28.9442 25.5598 28.7269 25.0774 28.5198 24.59C27.809 22.9056 27.1034 21.216 26.3926 19.5316C25.5183 17.4618 24.6362 15.3946 23.7593 13.3248C23.6135 12.9803 23.478 12.6306 23.3298 12.2861C23.2607 12.1253 23.1789 11.9671 23.0792 11.8216C22.8721 11.5179 22.4886 11.472 22.2099 11.7042C22.0565 11.8318 21.9287 11.985 21.8315 12.1585C21.6168 12.5439 21.3995 12.9267 21.1975 13.3197C21.085 13.5341 20.9827 13.7561 20.906 13.9833C20.8396 14.1696 20.8165 14.3686 20.7833 14.5294Z" fill="white"/>
<path d="M77.5223 12.6987C77.4482 12.7242 77.3868 12.7574 77.3229 12.7599C77.1235 12.7701 76.9266 12.7676 76.7272 12.7676C73.9225 12.7676 71.1153 12.7676 68.3106 12.7676C68.0908 12.7676 67.8683 12.7753 67.6485 12.7829C67.5641 12.7855 67.49 12.8646 67.4849 12.9539C67.4823 12.9973 67.4746 13.0407 67.4746 13.0866C67.4746 15.0722 67.4746 17.0552 67.4746 19.0407C67.4746 19.1071 67.4797 19.176 67.5028 19.2347C67.5155 19.2704 67.5641 19.3164 67.5974 19.3189C67.7968 19.3317 67.9936 19.3368 68.1931 19.3368C70.6449 19.3368 73.0968 19.3317 75.5486 19.3393C76.6608 19.3444 76.4869 19.1709 76.4997 20.2683C76.5048 20.6869 76.492 21.1054 76.4869 21.524C76.4869 21.6031 76.3974 21.6847 76.3131 21.6873C76.1136 21.6924 75.9168 21.7001 75.7174 21.7001C73.2885 21.7001 70.8571 21.7001 68.4283 21.7001C68.2953 21.7001 68.1624 21.7001 68.0294 21.7001C67.444 21.7001 67.4695 21.6618 67.4721 22.2896C67.4721 22.4223 67.4721 22.555 67.4721 22.6877C67.4721 24.8698 67.4721 27.0544 67.4695 29.2365C67.4695 29.456 67.5002 29.6755 67.4286 29.9128C67.3264 29.9281 67.219 29.9537 67.1116 29.9562C65.8205 29.9869 65.4881 29.9766 65.056 29.8975C65.0433 29.8414 65.0177 29.7801 65.0151 29.7189C65.0075 29.5428 65.01 29.3667 65.01 29.1906C65.01 23.1931 65.0075 17.1955 65.0126 11.198C65.0126 10.3635 64.9026 10.4477 65.7387 10.4477C69.4279 10.4451 73.1172 10.4477 76.8065 10.4477C76.9829 10.4477 77.1593 10.4477 77.3357 10.4579C77.3971 10.4604 77.4559 10.4962 77.5275 10.5217C77.5684 11.1648 77.5403 11.8054 77.5454 12.4435C77.5505 12.5251 77.5326 12.6119 77.5224 12.6987L77.5223 12.6987Z" fill="white"/>
<path d="M277.998 29.9118C277.374 29.9782 276.162 29.9731 275.686 29.9144C275.676 29.8965 275.661 29.8812 275.653 29.8634C275.643 29.8429 275.63 29.8225 275.63 29.8021C275.625 27.6634 275.62 25.5247 275.615 23.3682C274.359 21.2269 273.099 19.078 271.839 16.9291C270.591 14.8006 269.341 12.6747 268.088 10.5284C268.18 10.4952 268.241 10.4544 268.303 10.4544C269.011 10.4493 269.717 10.4518 270.425 10.4518C270.545 10.4518 270.634 10.508 270.698 10.6075C270.852 10.8499 271.003 11.0924 271.153 11.3374C272.915 14.1652 274.676 16.9904 276.438 19.8156C276.53 19.9636 276.632 20.1091 276.737 20.2495C276.75 20.2673 276.834 20.2673 276.85 20.2469C276.957 20.1065 277.059 19.9662 277.151 19.8156C278.284 17.9755 279.416 16.1329 280.547 14.2928C281.239 13.1647 281.935 12.0392 282.628 10.9112C282.697 10.7989 282.763 10.684 282.837 10.5743C282.888 10.5003 282.965 10.4493 283.06 10.4518C283.788 10.4544 284.517 10.4569 285.246 10.4595C285.299 10.4595 285.353 10.5539 285.328 10.6024C285.225 10.7963 285.126 10.9929 285.016 11.1843C282.807 14.9997 280.595 18.8177 278.384 22.6332C278.263 22.8424 278.105 23.0441 278.044 23.2712C277.982 23.4983 278.01 23.751 278.01 23.9935C278.008 25.7366 278.01 27.4797 278.008 29.2202C278.01 29.4423 278 29.6618 277.998 29.9119L277.998 29.9118Z" fill="white"/>
<path d="M172.06 12.8117C171.833 12.7454 171.61 12.7709 171.393 12.7709C169.757 12.7683 168.123 12.7709 166.487 12.7683C166.31 12.7683 166.134 12.7607 165.957 12.7454C165.924 12.7428 165.893 12.6918 165.868 12.6586C165.855 12.6433 165.858 12.6178 165.858 12.5948C165.858 11.9338 165.858 11.2728 165.858 10.6092C165.858 10.5199 165.932 10.451 166.026 10.4485C166.18 10.4459 166.336 10.4434 166.489 10.4434C171.086 10.4434 175.68 10.4434 180.277 10.4434C180.431 10.4434 180.587 10.4485 180.74 10.4536C180.801 10.4561 180.873 10.5199 180.876 10.5735C180.881 10.793 180.888 11.015 180.888 11.2345C180.891 12.6994 180.891 12.7148 180.809 12.7275C180.328 12.8092 179.843 12.7632 179.359 12.7658C178.012 12.7735 176.665 12.7683 175.315 12.7683C175.161 12.7683 175.005 12.7683 174.852 12.7734C174.653 12.7785 174.581 12.8526 174.578 13.0567C174.573 13.2762 174.576 13.4983 174.576 13.7177C174.576 18.8577 174.578 23.9952 174.573 29.1352C174.573 30.0667 174.699 29.9493 173.781 29.9544C173.318 29.957 172.853 29.957 172.39 29.9519C172.208 29.9493 172.142 29.8881 172.139 29.7247C172.137 29.5053 172.137 29.2832 172.137 29.0637C172.137 23.9237 172.137 18.7863 172.137 13.6463C172.137 13.4268 172.137 13.2048 172.127 12.9853C172.116 12.9291 172.081 12.8679 172.06 12.8117V12.8117Z" fill="white"/>
<path d="M102.411 27.5889C102.56 27.6782 102.716 27.6501 102.867 27.6501C103.618 27.6527 104.367 27.6527 105.119 27.6527C106.842 27.6527 108.563 27.6527 110.286 27.6552C110.457 27.6552 110.639 27.6118 110.797 27.7267C110.851 28.3009 110.846 29.4443 110.787 29.9037C110.728 29.9215 110.664 29.947 110.603 29.9547C110.493 29.9649 110.383 29.9624 110.273 29.9624C107.006 29.9624 103.736 29.9624 100.468 29.9624C100.335 29.9624 100.202 29.9573 100.072 29.9496C99.9979 29.947 99.9187 29.8526 99.9136 29.7684C99.911 29.702 99.9085 29.6357 99.9085 29.5693C99.9085 29.4366 99.9085 29.3039 99.9085 29.1737C99.9085 23.1992 99.9085 17.2272 99.911 11.2526C99.911 11.0127 99.8829 10.7677 99.9417 10.5329C99.9647 10.5176 99.98 10.4972 100 10.4947C100.108 10.4768 100.215 10.4513 100.323 10.4513C100.982 10.4615 101.644 10.4181 102.309 10.4768C102.332 10.5559 102.36 10.6146 102.363 10.6759C102.371 10.8953 102.368 11.1174 102.368 11.3369C102.368 16.5177 102.368 21.696 102.371 26.8768C102.365 27.1142 102.322 27.3592 102.411 27.5889Z" fill="white"/>
<path d="M203.228 20.1893C203.228 17.2135 203.228 14.2403 203.228 11.2645C203.228 11.045 203.235 10.823 203.24 10.6035C203.24 10.5575 203.32 10.4657 203.358 10.4631C203.402 10.458 203.445 10.4504 203.491 10.4504C204.11 10.4504 204.728 10.4478 205.345 10.4504C205.411 10.4504 205.48 10.458 205.539 10.4784C205.575 10.4912 205.621 10.5397 205.621 10.5729C205.634 10.7923 205.639 11.0118 205.639 11.2339C205.639 16.4351 205.639 21.6364 205.641 26.8351C205.641 27.7564 205.524 27.6492 206.441 27.6492C208.737 27.6518 211.033 27.6492 213.329 27.6518C213.529 27.6518 213.725 27.6543 213.925 27.6594C214.048 27.662 214.119 27.7411 214.119 27.8738C214.122 28.4914 214.122 29.1065 214.119 29.7241C214.119 29.8594 214.048 29.9359 213.927 29.941C213.774 29.9461 213.618 29.9512 213.465 29.9512C210.264 29.9512 207.063 29.9512 203.862 29.9512C203.685 29.9512 203.509 29.9436 203.335 29.9283C203.302 29.9257 203.251 29.8721 203.248 29.8364C203.233 29.6833 203.228 29.5301 203.228 29.3744C203.225 27.9427 203.228 26.5084 203.228 25.0766C203.228 23.4509 203.228 21.8201 203.228 20.1893L203.228 20.1893Z" fill="white"/>
<path d="M140.331 12.5307C140.316 12.7272 140.298 12.9237 140.203 13.1049C140.132 13.2402 140.073 13.3856 140.001 13.5209C137.483 18.4006 134.857 23.219 132.06 27.9456C131.779 28.4203 131.493 28.8924 131.153 29.3263C131.017 29.4998 130.864 29.6581 130.705 29.8112C130.646 29.8699 130.554 29.898 130.475 29.9286C130.386 29.9618 130.235 29.8622 130.224 29.7704C130.217 29.704 130.201 29.6376 130.209 29.5738C130.23 29.4207 130.255 29.2701 130.291 29.1196C130.421 28.6066 130.605 28.1089 130.818 27.624C131.285 26.5547 131.756 25.4853 132.239 24.4211C134.315 19.8681 136.378 15.3125 138.396 10.734C138.457 10.5936 138.521 10.4507 138.6 10.3205C138.7 10.1495 138.973 10.1036 139.127 10.2312C139.227 10.3154 139.331 10.4047 139.4 10.5145C139.666 10.9458 139.922 11.3848 140.175 11.8212C140.298 12.0407 140.323 12.2831 140.331 12.5307H140.331Z" fill="white"/>
<path d="M243.938 12.6817C243.938 12.6766 243.918 12.8323 243.867 12.9752C243.797 13.1615 243.711 13.3402 243.619 13.5163C241.116 18.3781 238.495 23.1761 235.713 27.8874C235.468 28.3059 235.202 28.7117 234.928 29.1124C234.78 29.3293 234.604 29.5284 234.427 29.7249C234.356 29.804 234.256 29.8602 234.161 29.9189C234.051 29.9852 233.865 29.8984 233.85 29.7759C233.842 29.7096 233.824 29.6432 233.829 29.5794C233.849 29.337 233.906 29.1022 233.977 28.8699C234.253 27.9843 234.627 27.137 235.008 26.2923C235.961 24.1842 236.928 22.0812 237.876 19.9706C239.249 16.9157 240.612 13.8557 241.98 10.7982C242.051 10.6375 242.128 10.4792 242.217 10.3286C242.32 10.1525 242.581 10.1066 242.739 10.2368C242.841 10.321 242.946 10.4103 243.015 10.5175C243.284 10.9488 243.547 11.3827 243.79 11.8242C243.907 12.036 243.974 12.2734 243.938 12.6817H243.938Z" fill="white"/>
<path d="M251.642 29.6175C251.63 29.6966 251.624 29.74 251.617 29.7834C251.601 29.8727 251.443 29.9672 251.356 29.9314C251.277 29.8982 251.187 29.8676 251.126 29.8089C250.983 29.6711 250.837 29.5333 250.725 29.3725C250.456 28.9974 250.182 28.6196 249.947 28.2215C249.254 27.0424 248.574 25.8582 247.899 24.6689C246.734 22.6196 245.575 20.5651 244.417 18.5106C244.19 18.1074 243.98 17.6965 243.76 17.2881C243.645 17.0738 243.561 16.8466 243.494 16.6118C243.423 16.349 243.42 16.0912 243.51 15.8309C243.53 15.7671 243.543 15.7007 243.571 15.642C243.839 15.0856 244.123 14.5369 244.463 14.0214C244.512 13.9499 244.578 13.8887 244.642 13.8274C244.785 13.6947 245.064 13.7279 245.164 13.9014C245.261 14.0724 245.35 14.2511 245.427 14.4323C245.744 15.1596 246.056 15.887 246.365 16.6195C247.623 19.6029 248.881 22.5889 250.139 25.5724C250.448 26.3023 250.773 27.0271 251.075 27.7595C251.277 28.247 251.461 28.7447 251.581 29.2602C251.614 29.3878 251.627 29.5205 251.642 29.6175V29.6175Z" fill="white"/>
<path d="M139.836 16.2486C139.846 15.9984 139.879 15.7611 140 15.5416C140.25 15.0771 140.501 14.6101 140.759 14.1481C140.813 14.0537 140.889 13.972 140.963 13.8904C141.153 13.6837 141.449 13.7041 141.577 13.9389C141.682 14.1328 141.774 14.3319 141.861 14.5361C143.106 17.4761 144.351 20.4187 145.596 23.3588C146.113 24.5762 146.634 25.7884 147.148 27.0058C147.432 27.6745 147.713 28.3457 147.915 29.045C147.981 29.2798 148.027 29.5146 147.997 29.7621C147.981 29.8846 147.803 29.9867 147.695 29.9229C147.601 29.8693 147.498 29.8157 147.427 29.7366C147.248 29.5401 147.069 29.3436 146.923 29.1266C146.639 28.7081 146.358 28.2844 146.107 27.8455C145.031 25.9722 143.96 24.0964 142.896 22.218C142.05 20.7225 141.211 19.2218 140.375 17.7211C140.237 17.471 140.12 17.2082 139.994 16.9529C139.879 16.7258 139.851 16.4859 139.836 16.2486H139.836Z" fill="white"/>
</svg>
