<svg xmlns="http://www.w3.org/2000/svg" viewBox="0 0 25 26">
    <defs>
        <linearGradient id="prefix__a" x1="9.154%" x2="90.029%" y1="90.847%" y2="9.97%">
            <stop offset="0%" stop-color="#FFC107"/>
            <stop offset="50.7%" stop-color="#F44336"/>
            <stop offset="100%" stop-color="#9C27B0"/>
        </linearGradient>
    </defs>
    <g fill="none">
        
        <g fill="white" transform="translate(6 6.368)">
            <path d="M8.25.286h-4.5C1.68.286 0 1.965 0 4.036v4.5c0 2.07 1.68 3.75 3.75 3.75h4.5c2.07 0 3.75-1.68 3.75-3.75v-4.5c0-2.071-1.68-3.75-3.75-3.75zm2.625 8.25c0 1.447-1.178 2.625-2.625 2.625h-4.5c-1.447 0-2.625-1.178-2.625-2.625v-4.5c0-1.448 1.178-2.625 2.625-2.625h4.5c1.447 0 2.625 1.177 2.625 2.625v4.5z"/>
            <path d="M6 3.286c-1.657 0-3 1.343-3 3 0 1.656 1.343 3 3 3s3-1.344 3-3c0-1.657-1.343-3-3-3zM6 8.16c-1.034 0-1.875-.842-1.875-1.875C4.125 5.25 4.966 4.41 6 4.41s1.875.84 1.875 1.875C7.875 7.319 7.034 8.16 6 8.16z"/>
            <circle cx="9.5" cy="3.786" r="1"/>
        </g>
    </g>
</svg>