<svg width="16" height="16" viewBox="0 0 16 16" fill="none" xmlns="http://www.w3.org/2000/svg">
<g clip-path="url(#clip0_10025_4312)">
<path fill-rule="evenodd" clip-rule="evenodd" d="M1.67427 7.23256C5.61132 5.51724 8.23663 4.38639 9.55021 3.84002C13.3008 2.28003 14.0801 2.00904 14.588 2.0001C14.6998 1.99813 14.9496 2.02582 15.1114 2.15711C15.248 2.26798 15.2856 2.41774 15.3036 2.52285C15.3216 2.62797 15.344 2.86742 15.3262 3.05451C15.1229 5.19002 14.2435 10.3723 13.7961 12.7642C13.6068 13.7762 13.234 14.1156 12.8731 14.1488C12.0889 14.2209 11.4933 13.6305 10.7337 13.1325C9.54507 12.3534 8.87357 11.8683 7.71979 11.108C6.38641 10.2293 7.25078 9.74635 8.01068 8.95709C8.20955 8.75054 11.6651 5.60745 11.732 5.32232C11.7403 5.28666 11.7481 5.15373 11.6691 5.08355C11.5901 5.01336 11.4736 5.03736 11.3895 5.05645C11.2703 5.08351 9.37142 6.33859 5.69292 8.8217C5.15393 9.19181 4.66574 9.37214 4.22833 9.36269C3.74612 9.35228 2.81855 9.09005 2.129 8.8659C1.28323 8.59097 0.611035 8.44562 0.669569 7.9787C0.700057 7.73551 1.03496 7.48679 1.67427 7.23256Z" fill="url(#paint0_linear_10025_4312)"/>
</g>
<defs>
<linearGradient id="paint0_linear_10025_4312" x1="733.999" y1="2" x2="733.999" y2="1208.46" gradientUnits="userSpaceOnUse">
<stop stop-color="#2AABEE"/>
<stop offset="1" stop-color="#229ED9"/>
</linearGradient>
<clipPath id="clip0_10025_4312">
<rect width="16" height="16" fill="white" transform="translate(-0.000976562)"/>
</clipPath>
</defs>
</svg>
