<svg width="149" height="33" viewBox="0 0 149 33" fill="none" xmlns="http://www.w3.org/2000/svg">
<path d="M48.0185 30.1372V9.96649H51.0196L51.3054 11.5946H51.4484C52.3058 10.4794 53.7629 9.68066 55.7918 9.68066C59.5049 9.68066 62.4779 12.7098 62.4779 17.1937C62.4779 21.6775 59.5075 24.7066 55.7918 24.7066C53.7911 24.7066 52.3925 23.8772 51.65 22.9355H51.507V30.1346H48.0211L48.0185 30.1372ZM58.9894 17.1962C58.9894 14.5677 57.3026 12.9115 55.2456 12.9115C53.1887 12.9115 51.5019 14.5677 51.5019 17.1962C51.5019 19.8248 53.1887 21.481 55.2456 21.481C57.3026 21.481 58.9894 19.8248 58.9894 17.1962Z" fill="white"/>
<path d="M64.2476 17.1956C64.2476 12.824 67.3891 9.68262 71.5896 9.68262C75.7901 9.68262 78.9316 12.824 78.9316 17.1956C78.9316 21.5671 75.7901 24.7086 71.5896 24.7086C67.3891 24.7086 64.2476 21.5365 64.2476 17.1956ZM75.4176 17.1956C75.4176 14.6232 73.7026 12.9109 71.5896 12.9109C69.4765 12.9109 67.7336 14.6258 67.7336 17.1956C67.7336 19.7655 69.4765 21.4523 71.5896 21.4523C73.7026 21.4523 75.4176 19.7679 75.4176 17.1956Z" fill="white"/>
<path d="M81.4562 24.423V4.42578H84.942V24.4254H81.4562V24.423Z" fill="white"/>
<path d="M97.8839 9.96582H101.597L95.3114 27.5361C94.6837 29.279 93.8262 30.1364 91.5678 30.1364H88.1966V26.9082H91.0549C91.5703 26.9082 91.8535 26.6506 92.0271 26.2218L92.369 25.2802L86.4842 9.96582H90.1973L93.9412 19.9951H94.5127L97.8839 9.96582Z" fill="white"/>
<path d="M102.264 25.1378H105.806C105.949 26.0796 106.891 27.3658 109.121 27.3658C111.206 27.3658 112.579 26.0515 112.579 24.0507V22.022H112.436C111.665 22.8513 110.236 23.594 108.406 23.594C104.693 23.594 101.835 20.7357 101.835 16.622C101.835 12.5082 104.693 9.68066 108.406 9.68066C110.32 9.68066 111.722 10.4514 112.607 11.5384H112.75L113.036 9.96649H116.065V24.0507C116.065 27.8787 113.492 30.423 109.121 30.423C104.237 30.423 102.351 27.2228 102.264 25.1378ZM112.579 16.6246C112.579 14.3686 110.979 12.7966 108.95 12.7966C106.921 12.7966 105.349 14.3686 105.349 16.6246C105.349 18.8805 106.949 20.4806 108.95 20.4806C110.951 20.4806 112.579 18.9085 112.579 16.6246Z" fill="white"/>
<path d="M118.487 17.1956C118.487 12.824 121.629 9.68262 125.829 9.68262C130.03 9.68262 133.171 12.824 133.171 17.1956C133.171 21.5671 130.03 24.7086 125.829 24.7086C121.629 24.7086 118.487 21.5365 118.487 17.1956ZM129.657 17.1956C129.657 14.6232 127.942 12.9109 125.829 12.9109C123.716 12.9109 121.973 14.6258 121.973 17.1956C121.973 19.7655 123.716 21.4523 125.829 21.4523C127.942 21.4523 129.657 19.7679 129.657 17.1956Z" fill="white"/>
<path d="M135.598 24.4234V9.96649H138.596L138.882 11.3369H139.025C139.597 10.681 141.026 9.68066 143.196 9.68066C146.51 9.68066 148.909 12.0795 148.909 15.7364V24.4208H145.423V16.1933C145.423 14.3354 144.109 12.9931 142.31 12.9931C140.511 12.9931 139.081 14.3941 139.081 16.1933V24.4208H135.595L135.598 24.4234Z" fill="white"/>
<path d="M27.7283 22.7362L36.2977 17.788C36.752 17.5251 37.0327 17.0377 37.0327 16.5145V6.61806C37.0327 6.0949 36.752 5.60748 36.2977 5.34462L27.7283 0.396374C27.274 0.133527 26.71 0.136081 26.2583 0.396374L17.6888 5.34462C17.2346 5.60748 16.9539 6.0949 16.9539 6.61806V24.3031L10.944 27.7712L4.93415 24.3031V17.3644L10.944 13.8963L14.9073 16.1853V11.5306L11.6789 9.66509C11.4569 9.5375 11.2018 9.4686 10.944 9.4686C10.6862 9.4686 10.4311 9.5375 10.2091 9.66509L1.63957 14.6133C1.18532 14.8762 0.904602 15.3637 0.904602 15.8868V25.7833C0.904602 26.3065 1.18532 26.7938 1.63957 27.0567L10.2091 32.005C10.6633 32.2653 11.2248 32.2653 11.6789 32.005L20.2485 27.0567C20.7028 26.7938 20.9834 26.3065 20.9834 25.7833V8.09565L21.0906 8.03439L26.9908 4.62753L33.0007 8.09565V15.0345L26.9908 18.5026L23.0326 16.2185V20.8734L26.2557 22.7337C26.71 22.994 27.274 22.994 27.7257 22.7337L27.7283 22.7362Z" fill="url(#paint0_linear_3211_15663)"/>
<defs>
<linearGradient id="paint0_linear_3211_15663" x1="0.787209" y1="26.753" x2="35.4811" y2="6.6155" gradientUnits="userSpaceOnUse">
<stop stop-color="#A726C1"/>
<stop offset="0.88" stop-color="#803BDF"/>
<stop offset="1" stop-color="#7B3FE4"/>
</linearGradient>
</defs>
</svg>
