<svg width="16" height="16" viewBox="0 0 16 16" fill="none" xmlns="http://www.w3.org/2000/svg">
<path d="M8.00749 1.33334L13.8817 4.72491V10.6375C13.8817 10.9021 13.812 11.1621 13.6797 11.3912C13.5474 11.6203 13.3571 11.8106 13.128 11.9429L8.76117 14.4647C8.53203 14.597 8.27209 14.6667 8.00749 14.6667C7.74289 14.6667 7.48296 14.597 7.25381 14.4647L2.88698 11.9429C2.65784 11.8106 2.46756 11.6203 2.33526 11.3912C2.20296 11.1621 2.13331 10.9021 2.1333 10.6375V4.72491L8.00749 1.33334Z" stroke="black" stroke-linecap="round" stroke-linejoin="round"/>
<path d="M8.00758 4.34805V8.11646M8.00758 8.11646L4.74414 10.0007M8.00758 8.11646L11.271 10.0007" stroke="black" stroke-linecap="round" stroke-linejoin="round"/>
</svg>
