<svg xmlns="http://www.w3.org/2000/svg" width="15.054" height="15.054" viewBox="0 0 15.054 15.054">
    <path id="prefix__clock" d="M8.527 2a7.527 7.527 0 1 0 7.527 7.527A7.527 7.527 0 0 0 8.527 2zm0 13.549a6.022 6.022 0 1 1 6.022-6.022 6.022 6.022 0 0 1-6.022 6.022zM10.86 10l-1.58-.909V5.764a.753.753 0 1 0-1.505 0v3.853a.489.489 0 0 0 .038.151.67.67 0 0 0 .06.128.647.647 0 0 0 .075.12l.12.1.068.068 1.957 1.129A.755.755 0 1 0 10.845 10z" transform="translate(-1 -2)" style="fill:#464748"/>
</svg>
