<svg width="30" height="30" viewBox="0 0 30 30" fill="none" xmlns="http://www.w3.org/2000/svg">
<circle cx="15" cy="15" r="15" fill="#E9E3E2"/>
<path d="M14.008 11.937V13.314H13V14.997H14.008V20H16.08V14.997H17.47C17.47 14.997 17.601 14.19 17.664 13.307H16.088V12.157C16.088 11.984 16.314 11.753 16.538 11.753H17.666V10H16.131C13.957 10 14.008 11.685 14.008 11.937Z" fill="#353536"/>
<path d="M15 23C17.1217 23 19.1566 22.1571 20.6569 20.6569C22.1571 19.1566 23 17.1217 23 15C23 12.8783 22.1571 10.8434 20.6569 9.34315C19.1566 7.84285 17.1217 7 15 7C12.8783 7 10.8434 7.84285 9.34315 9.34315C7.84285 10.8434 7 12.8783 7 15C7 17.1217 7.84285 19.1566 9.34315 20.6569C10.8434 22.1571 12.8783 23 15 23ZM15 25C9.477 25 5 20.523 5 15C5 9.477 9.477 5 15 5C20.523 5 25 9.477 25 15C25 20.523 20.523 25 15 25Z" fill="#353536"/>
</svg>
