<svg width="14" height="14" viewBox="0 0 14 14" fill="none" xmlns="http://www.w3.org/2000/svg">
<path d="M13.4166 11.0833C13.4166 11.3928 13.2937 11.6895 13.0749 11.9083C12.8561 12.1271 12.5593 12.25 12.2499 12.25H1.74992C1.4405 12.25 1.14375 12.1271 0.924961 11.9083C0.706168 11.6895 0.583252 11.3928 0.583252 11.0833V4.66667C0.583252 4.35725 0.706168 4.0605 0.924961 3.84171C1.14375 3.62292 1.4405 3.5 1.74992 3.5H4.08325L5.24992 1.75H8.74992L9.91658 3.5H12.2499C12.5593 3.5 12.8561 3.62292 13.0749 3.84171C13.2937 4.0605 13.4166 4.35725 13.4166 4.66667V11.0833Z" stroke="white" stroke-linecap="round" stroke-linejoin="round"/>
<path d="M7.00008 9.91667C8.28875 9.91667 9.33341 8.872 9.33341 7.58333C9.33341 6.29467 8.28875 5.25 7.00008 5.25C5.71142 5.25 4.66675 6.29467 4.66675 7.58333C4.66675 8.872 5.71142 9.91667 7.00008 9.91667Z" stroke="white" stroke-linecap="round" stroke-linejoin="round"/>
</svg>
