<svg width="14" height="14" viewBox="0 0 14 14" fill="none" xmlns="http://www.w3.org/2000/svg">
<path d="M8.45833 0.875H3.79167C3.48225 0.875 3.1855 0.997916 2.96671 1.21671C2.74792 1.4355 2.625 1.73225 2.625 2.04167V11.375C2.625 11.6844 2.74792 11.9812 2.96671 12.2C3.1855 12.4188 3.48225 12.5417 3.79167 12.5417H10.7917C11.1011 12.5417 11.3978 12.4188 11.6166 12.2C11.8354 11.9812 11.9583 11.6844 11.9583 11.375V4.375L8.45833 0.875Z" stroke="#E9E3E2" stroke-linecap="round" stroke-linejoin="round"/>
<path d="M9.62516 9.625H4.9585" stroke="#E9E3E2" stroke-linecap="round" stroke-linejoin="round"/>
<path d="M9.62516 7.2915H4.9585" stroke="#E9E3E2" stroke-linecap="round" stroke-linejoin="round"/>
<path d="M6.12516 4.9585H5.54183H4.9585" stroke="#E9E3E2" stroke-linecap="round" stroke-linejoin="round"/>
<path d="M8.4585 0.875V4.375H11.9585" stroke="#E9E3E2" stroke-linecap="round" stroke-linejoin="round"/>
</svg>
