<svg width="14" height="14" viewBox="0 0 14 14" fill="none" xmlns="http://www.w3.org/2000/svg">
<path d="M11.6668 7V12.8333H2.3335V7" stroke="#E9E3E2" stroke-linecap="round" stroke-linejoin="round"/>
<path d="M12.8332 4.0835H1.1665V7.00016H12.8332V4.0835Z" stroke="#E9E3E2" stroke-linecap="round" stroke-linejoin="round"/>
<path d="M7 12.8335V4.0835" stroke="#E9E3E2" stroke-linecap="round" stroke-linejoin="round"/>
<path d="M7 4.08317H9.625C10.0118 4.08317 10.3827 3.92953 10.6562 3.65603C10.9297 3.38254 11.0833 3.01161 11.0833 2.62484C11.0833 2.23806 10.9297 1.86713 10.6562 1.59364C10.3827 1.32015 10.0118 1.1665 9.625 1.1665C7.58333 1.1665 7 4.08317 7 4.08317Z" stroke="#E9E3E2" stroke-linecap="round" stroke-linejoin="round"/>
<path d="M6.99984 4.08317H4.37484C3.98806 4.08317 3.61713 3.92953 3.34364 3.65603C3.07015 3.38254 2.9165 3.01161 2.9165 2.62484C2.9165 2.23806 3.07015 1.86713 3.34364 1.59364C3.61713 1.32015 3.98806 1.1665 4.37484 1.1665C6.4165 1.1665 6.99984 4.08317 6.99984 4.08317Z" stroke="#E9E3E2" stroke-linecap="round" stroke-linejoin="round"/>
</svg>
