<svg width="40" height="40" viewBox="0 0 40 40" fill="none" xmlns="http://www.w3.org/2000/svg">
<path d="M37.5667 10.6998C37.3687 9.90885 36.9655 9.18412 36.3978 8.59885C35.8301 8.01357 35.118 7.58848 34.3334 7.3665C31.4667 6.6665 20.0001 6.6665 20.0001 6.6665C20.0001 6.6665 8.53339 6.6665 5.66672 7.43317C4.88214 7.65514 4.17002 8.08024 3.6023 8.66551C3.03458 9.25079 2.63137 9.97552 2.43339 10.7665C1.90875 13.6758 1.65212 16.627 1.66672 19.5832C1.64802 22.5616 1.90467 25.5353 2.43339 28.4665C2.65166 29.2329 3.0639 29.9301 3.6303 30.4906C4.19669 31.0512 4.89809 31.4562 5.66672 31.6665C8.53339 32.4332 20.0001 32.4332 20.0001 32.4332C20.0001 32.4332 31.4667 32.4332 34.3334 31.6665C35.118 31.4445 35.8301 31.0194 36.3978 30.4342C36.9655 29.8489 37.3687 29.1242 37.5667 28.3332C38.0873 25.4458 38.3439 22.5171 38.3334 19.5832C38.3521 16.6048 38.0954 13.631 37.5667 10.6998V10.6998Z" stroke="#978481" stroke-width="2" stroke-linecap="round" stroke-linejoin="round"/>
<path d="M16.25 25.0333L25.8333 19.5833L16.25 14.1333V25.0333Z" stroke="#978481" stroke-width="2" stroke-linecap="round" stroke-linejoin="round"/>
</svg>
