<svg width="24" height="24" viewBox="0 0 24 24" fill="none" xmlns="http://www.w3.org/2000/svg">
<path fill-rule="evenodd" clip-rule="evenodd" d="M12.4527 8.68946C12.4585 8.94936 12.5049 9.15493 12.5966 9.34825C12.676 9.5154 12.76 9.68055 12.8493 9.84249C13.2259 10.5258 13.6003 11.2103 13.9845 11.8891C14.8639 13.4426 15.7464 14.9942 16.6329 16.5435C16.8101 16.853 16.9796 17.1689 17.1989 17.4521C17.3202 17.6087 17.4512 17.7581 17.5816 17.9072C17.6524 17.988 17.7435 18.0406 17.8461 18.0765C17.9166 18.1009 17.9749 18.083 18.034 18.05C18.1213 18.0011 18.1715 17.9226 18.1839 17.8285C18.194 17.7513 18.1973 17.6669 18.1764 17.5934C18.0859 17.2759 18.0048 16.9562 17.8824 16.6473C17.6389 16.0327 17.3689 15.4297 17.1104 14.8217C16.6241 13.6784 16.1432 12.5329 15.6613 11.388C15.3176 10.5718 14.9761 9.75494 14.6329 8.93865C14.423 8.4392 14.2118 7.94021 14.0009 7.44122C13.9648 7.35596 13.932 7.26902 13.8885 7.18774C13.8577 7.13019 13.8164 7.07631 13.7712 7.02917C13.659 6.91222 13.4648 6.90059 13.3346 6.9958C13.226 7.07539 13.1401 7.17504 13.076 7.29244C12.9237 7.57071 12.7714 7.84898 12.6234 8.12955C12.5806 8.21082 12.5447 8.29761 12.5193 8.38593C12.4868 8.49951 12.468 8.61691 12.4527 8.68946ZM13.0256 5.57888C13.0205 5.38587 12.991 5.20188 12.912 5.03259C12.7438 4.67274 12.5492 4.32696 12.3104 4.00859C12.2562 3.93634 12.1827 3.87466 12.1083 3.82185C11.9061 3.67843 11.6547 3.72955 11.5224 3.93879C11.4802 4.00522 11.4507 4.07992 11.419 4.15232C11.1853 4.68468 10.9539 5.21811 10.719 5.75001C10.3135 6.66885 9.91011 7.58862 9.49801 8.50456C9.01546 9.57708 8.52312 10.6452 8.03782 11.7163C7.51976 12.8597 7.00321 14.0039 6.48912 15.1491C6.2565 15.6674 6.03475 16.1904 5.83583 16.7229C5.73858 16.9836 5.65803 17.249 5.60841 17.5227C5.59203 17.6127 5.58345 17.7057 5.58651 17.797C5.58973 17.8928 5.63814 17.9736 5.71561 18.033C5.79387 18.0931 5.87794 18.1138 5.97535 18.0763C6.08927 18.0324 6.18284 17.9615 6.26785 17.8766C6.45575 17.6884 6.60887 17.4728 6.76033 17.2556C7.04839 16.8426 7.28177 16.3969 7.53154 15.9613C8.14333 14.8947 8.74992 13.8252 9.35574 12.7555C9.79877 11.9735 10.2377 11.1893 10.6518 10.3912C11.2239 9.28856 11.8116 8.19384 12.392 7.09529C12.5525 6.79146 12.7104 6.48625 12.8692 6.1815C12.9685 5.99093 13.0236 5.78873 13.0256 5.57888ZM12.0456 0.000345413C12.9904 -0.00715476 13.9205 0.107644 14.8377 0.329434C15.6236 0.519541 16.385 0.780822 17.1181 1.12476C17.8997 1.4915 18.6274 1.9432 19.3153 2.46407C20.0472 3.01817 20.7032 3.65124 21.282 4.35963C22.185 5.46475 22.8824 6.68958 23.3441 8.04389C23.5921 8.77126 23.7824 9.51316 23.885 10.2751C23.9486 10.7467 24.0065 11.2198 23.9994 11.6977C23.9964 11.9094 23.9991 12.1211 23.9977 12.3328C23.9918 13.17 23.8736 13.9932 23.6794 14.8058C23.4916 15.5921 23.2302 16.3535 22.8866 17.0857C22.3254 18.2815 21.5875 19.3569 20.6726 20.309C20.0475 20.9593 19.3539 21.5266 18.6017 22.0283C17.3521 22.8619 15.9865 23.4117 14.5271 23.7326C13.462 23.9668 12.3792 24.0441 11.2905 23.9766C9.98731 23.8956 8.72695 23.6155 7.51209 23.1304C6.09342 22.5638 4.83751 21.7458 3.73 20.6996C3.12265 20.1259 2.58483 19.4913 2.10943 18.8027C1.31994 17.6588 0.755281 16.4144 0.399033 15.0728C0.239247 14.4709 0.134346 13.861 0.0647287 13.2418C-0.00507234 12.621 -0.0140463 11.9999 0.0170104 11.3795C0.0822785 10.0758 0.355265 8.81412 0.831116 7.59664C1.3966 6.14987 2.21899 4.86627 3.281 3.73558C3.81699 3.16511 4.4072 2.65556 5.04655 2.20325C5.65267 1.77437 6.28836 1.39522 6.96523 1.08955C8.13032 0.56347 9.34426 0.209279 10.6198 0.079786C10.8172 0.0597345 11.0141 0.0303461 11.2121 0.0202438C11.4896 0.00616187 11.7678 0.00631494 12.0456 0.000345413Z" fill="#54DDB7"/>
</svg>
