<svg width="30" height="30" viewBox="0 0 30 30" fill="none" xmlns="http://www.w3.org/2000/svg">
<circle cx="15" cy="15" r="15" fill="#E9E3E2"/>
<path d="M14.9938 10.8784C13.9042 10.8784 12.8592 11.3106 12.0887 12.0799C11.3182 12.8492 10.8854 13.8925 10.8854 14.9805C10.8854 16.0684 11.3182 17.1117 12.0887 17.881C12.8592 18.6503 13.9042 19.0825 14.9938 19.0825C16.0834 19.0825 17.1284 18.6503 17.8988 17.881C18.6693 17.1117 19.1022 16.0684 19.1022 14.9805C19.1022 13.8925 18.6693 12.8492 17.8988 12.0799C17.1284 11.3106 16.0834 10.8784 14.9938 10.8784ZM14.9938 17.6445C14.2859 17.6445 13.607 17.3637 13.1065 16.8639C12.6059 16.3642 12.3247 15.6863 12.3247 14.9796C12.3247 14.2728 12.6059 13.595 13.1065 13.0952C13.607 12.5954 14.2859 12.3147 14.9938 12.3147C15.7016 12.3147 16.3805 12.5954 16.8811 13.0952C17.3816 13.595 17.6628 14.2728 17.6628 14.9796C17.6628 15.6863 17.3816 16.3642 16.8811 16.8639C16.3805 17.3637 15.7016 17.6445 14.9938 17.6445Z" fill="#353536"/>
<path d="M19.2647 11.6839C19.7937 11.6839 20.2225 11.2557 20.2225 10.7276C20.2225 10.1994 19.7937 9.77128 19.2647 9.77128C18.7358 9.77128 18.3069 10.1994 18.3069 10.7276C18.3069 11.2557 18.7358 11.6839 19.2647 11.6839Z" fill="#353536"/>
<path d="M22.5762 9.75538C22.3705 9.22504 22.0562 8.74343 21.6533 8.34137C21.2505 7.93931 20.768 7.62566 20.2368 7.42049C19.6151 7.1875 18.9584 7.06151 18.2945 7.0479C17.4389 7.01065 17.1679 7 14.9982 7C12.8285 7 12.5504 7 11.7019 7.0479C11.0386 7.06082 10.3823 7.18683 9.76144 7.42049C9.23006 7.62542 8.74746 7.93898 8.34459 8.34108C7.94172 8.74317 7.62748 9.2249 7.42203 9.75538C7.18863 10.376 7.06274 11.0318 7.04976 11.6946C7.01155 12.548 7 12.8186 7 14.9858C7 17.1521 7 17.428 7.04976 18.277C7.06308 18.9406 7.18836 19.5953 7.42203 20.2171C7.62806 20.7474 7.9426 21.2289 8.34557 21.631C8.74853 22.033 9.23107 22.3467 9.76233 22.552C10.382 22.7944 11.0385 22.9294 11.7037 22.9512C12.5593 22.9885 12.8303 23 15 23C17.1697 23 17.4478 23 18.2963 22.9512C18.9601 22.9377 19.6168 22.8121 20.2386 22.5795C20.7697 22.3739 21.252 22.0599 21.6548 21.6578C22.0576 21.2556 22.372 20.774 22.578 20.2437C22.8116 19.6228 22.9369 18.9681 22.9502 18.3045C22.9884 17.4511 23 17.1805 23 15.0133C23 12.8461 23 12.5711 22.9502 11.7221C22.9399 11.0499 22.8134 10.3846 22.5762 9.75538ZM21.494 18.2114C21.4883 18.7226 21.3948 19.2291 21.2177 19.7088C21.0843 20.0538 20.88 20.367 20.618 20.6285C20.356 20.8899 20.0422 21.0936 19.6966 21.2267C19.2214 21.4027 18.7196 21.496 18.2128 21.5026C17.3687 21.5416 17.1306 21.5513 14.9662 21.5513C12.8001 21.5513 12.5789 21.5513 11.7188 21.5026C11.2123 21.4964 10.7106 21.403 10.2359 21.2267C9.8891 21.0945 9.57397 20.8911 9.31088 20.6296C9.04778 20.3681 8.84259 20.0544 8.70857 19.7088C8.53394 19.2342 8.44053 18.7337 8.43225 18.2282C8.39405 17.3855 8.38516 17.1477 8.38516 14.9867C8.38516 12.8248 8.38516 12.6039 8.43225 11.7443C8.438 11.2333 8.53146 10.7271 8.70857 10.2477C8.97956 9.54779 9.53487 8.9969 10.2359 8.72899C10.7109 8.55346 11.2124 8.46016 11.7188 8.45309C12.5637 8.41495 12.801 8.4043 14.9662 8.4043C17.1315 8.4043 17.3536 8.4043 18.2128 8.45309C18.7196 8.45918 19.2216 8.55251 19.6966 8.72899C20.0421 8.8623 20.356 9.06627 20.6179 9.32782C20.8799 9.58936 21.0842 9.9027 21.2177 10.2477C21.3923 10.7223 21.4857 11.2228 21.494 11.7283C21.5322 12.572 21.542 12.8088 21.542 14.9707C21.542 17.1317 21.542 17.3642 21.5038 18.2122H21.494V18.2114Z" fill="#353536"/>
</svg>
