<svg width="30" height="30" viewBox="0 0 30 30" fill="none" xmlns="http://www.w3.org/2000/svg">
<circle cx="15" cy="15" r="15" fill="#E9E3E2"/>
<path fill-rule="evenodd" clip-rule="evenodd" d="M15.4215 6C10.4909 6 8 9.51952 8 12.4612C8 13.0128 8.06387 13.525 8.19161 14.0109C8.4854 15.114 9.11131 15.9939 10.1332 16.4141C10.3759 16.5192 10.5803 16.4141 10.6569 16.1515C10.708 15.9676 10.823 15.508 10.8741 15.3241C10.938 15.0615 10.9124 14.9695 10.7208 14.7463C10.4653 14.4442 10.2737 14.1028 10.1588 13.6694C10.0821 13.3936 10.0438 13.0784 10.0438 12.7107C10.0438 10.0974 12.0109 7.75976 15.1661 7.75976C17.9507 7.75976 19.4964 9.45386 19.4964 11.7258C19.4964 12.3956 19.4325 13.039 19.3047 13.6431C18.8321 15.705 17.6953 17.2152 16.1752 17.2152C15.0894 17.2152 14.2719 16.3222 14.5274 15.2322C14.6807 14.6018 14.8978 13.9583 15.0766 13.3542C15.281 12.6845 15.4471 12.0541 15.4471 11.5682C15.4471 10.7146 14.9872 10.0186 14.042 10.0186C12.9307 10.0186 12.0365 11.1611 12.0365 12.6845C12.0365 12.9734 12.0748 13.236 12.1131 13.4593C12.2153 13.9977 12.3686 14.326 12.3686 14.326C12.3686 14.326 11.2318 19.1194 11.0274 19.9599C10.6314 21.6409 10.9635 23.6764 10.9891 23.8865C11.0018 24.0047 11.1679 24.0441 11.2445 23.9391C11.3467 23.8077 12.6624 22.1793 13.1223 20.564C13.25 20.1044 13.8504 17.7142 13.8504 17.7142C14.208 18.3971 15.2682 19.0012 16.3923 19.0012C19.1131 19.0012 21.1186 16.9919 21.7701 14.0503C21.9234 13.3805 22 12.6582 22 11.9096C22 8.84976 19.3942 6 15.4215 6Z" fill="#353536"/>
</svg>
