<svg width="30" height="30" viewBox="0 0 30 30" fill="none" xmlns="http://www.w3.org/2000/svg">
<circle cx="15" cy="15" r="15" fill="#E9E3E2"/>
<path fill-rule="evenodd" clip-rule="evenodd" d="M22.8367 19.3374C22.8367 19.3258 22.8251 19.3258 22.8251 19.3258C22.6383 19.2097 22.4399 19.1864 22.3232 19.14H22.3116C21.483 18.8844 20.7594 18.3152 20.2226 17.6298C19.9192 17.2465 19.6741 16.8283 19.5107 16.3869C19.5107 16.3869 19.5107 16.3869 19.5107 16.3753C19.4407 16.1894 19.4407 15.9687 19.534 15.8409C19.6857 15.6319 19.9658 15.4925 20.2459 15.3879C20.5727 15.2718 20.9228 15.144 21.2146 14.8884C21.2146 14.8884 21.2146 14.8884 21.2262 14.8884C21.2729 14.8536 21.3196 14.7955 21.3663 14.7142C21.3779 14.6909 21.3896 14.6793 21.3896 14.6445C21.413 14.5632 21.413 14.4702 21.3663 14.3889C21.2846 14.2263 21.1329 14.1334 21.0278 14.0637C20.8528 13.9591 20.631 13.9475 20.4443 14.0172C20.2459 14.0753 20.0825 14.145 19.9308 14.1682H19.9192C19.7091 14.2031 19.499 14.2147 19.3356 14.1566C19.3356 14.1334 19.3356 14.0869 19.324 14.0288C19.3123 13.6803 19.3473 13.3202 19.3473 12.9369C19.3707 12.3677 19.3823 11.7753 19.3006 11.1828V11.1712C19.1139 10.1722 18.472 9.31263 17.6551 8.74344C17.0599 8.32525 16.3597 8.09293 15.6362 8.03485C15.4027 8.01162 15.1693 8 14.9243 8C13.9556 8.01162 12.952 8.25556 12.1701 8.87122C11.5866 9.32425 11.1197 9.93991 10.828 10.6136C10.5479 11.3106 10.5712 12.0541 10.6062 12.7394C10.6296 13.2273 10.6879 13.6919 10.6413 14.1334C10.6413 14.145 10.6413 14.1566 10.6296 14.1682C10.4078 14.2031 10.1744 14.1914 9.94104 14.145C9.77765 14.1217 9.6026 14.0521 9.41587 13.994H9.4042C9.21748 13.9591 9.03075 14.0056 8.89071 14.1101H8.87904C8.87904 14.1101 8.86737 14.1101 8.86737 14.1217C8.75066 14.1914 8.58728 14.3192 8.58728 14.5399C8.58728 14.5515 8.58728 14.5632 8.58728 14.5748C8.61062 14.7026 8.69231 14.7955 8.76234 14.8652C8.83236 14.9233 8.90238 14.9697 8.93739 15.0046C8.93739 15.0046 8.94906 15.0046 8.94906 15.0162C9.29917 15.2485 9.69596 15.3531 10.0344 15.4808C10.2678 15.5854 10.4662 15.7364 10.5246 15.9455C10.5829 16.2011 10.4779 16.4915 10.3378 16.7702C9.95271 17.5137 9.39253 18.1642 8.69231 18.6521C8.33053 18.896 7.9104 19.0819 7.4786 19.198C7.4786 19.198 7.46693 19.198 7.45526 19.2097C7.3619 19.2445 7.15183 19.2561 7.02346 19.4536C7.01179 19.4652 7.01179 19.4884 7.00012 19.5001C6.95344 19.6278 7.01179 19.7556 7.07014 19.8369C7.12849 19.9066 7.19851 19.9531 7.25686 19.9763H7.26853C7.63031 20.1854 8.02711 20.2667 8.38889 20.3597C8.64563 20.4177 8.89071 20.4526 9.0891 20.5339C9.10077 20.5455 9.12411 20.6152 9.15913 20.7198C9.22915 20.9172 9.25249 21.1496 9.32251 21.3935C9.34585 21.4632 9.4042 21.5097 9.47422 21.5329C9.63761 21.5677 9.73097 21.5097 9.74264 21.5097C9.75431 21.5097 9.75431 21.5097 9.76598 21.5097C10.3728 21.4051 10.9797 21.3122 11.5282 21.4516C12.1117 21.6026 12.6135 22.0092 13.1854 22.346C13.5588 22.5784 14.0023 22.8107 14.5041 22.8339C14.8893 22.8571 15.2627 22.8339 15.6245 22.8107C15.6245 22.8107 15.6245 22.8107 15.6362 22.8107C15.9512 22.7758 16.2547 22.6713 16.5231 22.5087L16.5348 22.497C17.1299 22.1602 17.6668 21.7536 18.2503 21.498C18.437 21.4283 18.6821 21.44 18.9388 21.4167H18.9505C19.4407 21.4051 19.9192 21.4283 20.3976 21.4864C20.4093 21.4864 20.4326 21.4864 20.4443 21.4864C20.5143 21.4748 20.5727 21.44 20.6077 21.3935C20.6427 21.3587 20.6544 21.3122 20.6544 21.289C20.6661 21.2425 20.6777 21.2193 20.6544 21.2541C20.6661 21.2425 20.6661 21.2309 20.6777 21.2193C20.7711 20.9289 20.8178 20.6733 20.9578 20.5107C21.0162 20.4526 21.1329 20.4177 21.2612 20.4177C21.2729 20.4177 21.2846 20.4177 21.2846 20.4177C21.7047 20.3713 22.0782 20.2203 22.4399 20.0925H22.4516C22.58 20.0344 22.7784 19.9647 22.9184 19.7788C23.0468 19.6511 23.0001 19.4304 22.8367 19.3374Z" fill="#353536"/>
</svg>
