<svg width="30" height="30" viewBox="0 0 30 30" fill="none" xmlns="http://www.w3.org/2000/svg">
<circle cx="15" cy="15" r="15" fill="#E9E3E2"/>
<path d="M21.0954 7H8.90464C7.8544 7 7 7.8544 7 8.90464V21.0954C7 22.1456 7.8544 23 8.90464 23H21.0954C22.1456 23 23 22.1456 23 21.0954V8.90464C23 7.8544 22.1456 7 21.0954 7ZM19.5734 13.9805C19.4858 13.9888 19.3981 13.9933 19.3104 13.9939C18.3478 13.9939 17.4499 13.5088 16.9219 12.703V17.0979C16.9219 18.8918 15.4678 20.3466 13.6733 20.3466C11.8787 20.3466 10.4246 18.8925 10.4246 17.0979C10.4246 15.3034 11.8787 13.8493 13.6733 13.8493C13.7411 13.8493 13.8077 13.8557 13.8742 13.8595V15.4608C13.8077 15.4531 13.7418 15.4403 13.6733 15.4403C12.7574 15.4403 12.0157 16.1827 12.0157 17.0979C12.0157 18.0131 12.7581 18.7555 13.6733 18.7555C14.5891 18.7555 15.3981 18.0342 15.3981 17.1184L15.4141 9.65408H16.9456C17.0902 11.0275 18.1974 12.1002 19.5747 12.2006V13.9798" fill="#353536"/>
</svg>
