<svg width="30" height="30" viewBox="0 0 30 30" fill="none" xmlns="http://www.w3.org/2000/svg">
<circle cx="15" cy="15" r="15" fill="#E9E3E2"/>
<path fill-rule="evenodd" clip-rule="evenodd" d="M23 10.5182C22.4165 10.7752 21.7746 10.9504 21.1211 11.0204C21.798 10.6234 22.3231 9.9927 22.5565 9.23358C21.9263 9.6073 21.2261 9.87591 20.4675 10.0161C19.8724 9.39708 19.0204 9 18.0751 9C16.2662 9 14.7958 10.4482 14.7958 12.235C14.7958 12.492 14.8308 12.7372 14.8775 12.9708C12.1466 12.8307 9.73085 11.546 8.10868 9.59562C7.84026 10.0628 7.67688 10.6234 7.67688 11.219C7.67688 12.3401 8.26039 13.3212 9.13567 13.9051C8.59883 13.8818 8.09701 13.7416 7.65354 13.4964C7.65354 13.508 7.65354 13.5314 7.65354 13.5314C7.65354 13.9518 7.73523 14.3372 7.87527 14.6993C8.27206 15.7153 9.18235 16.4745 10.2794 16.6964C9.99927 16.7664 9.70751 16.8131 9.41575 16.8131C9.20569 16.8131 8.99562 16.7898 8.79723 16.7547C9.21736 18.0394 10.4311 18.9737 11.8665 18.9971C10.7345 19.8847 9.32239 20.3985 7.78191 20.3985C7.51349 20.3985 7.25675 20.3869 7 20.3518C8.45879 21.2745 10.1743 21.8 12.0299 21.8C17.1648 21.8 20.3158 18.238 21.1444 14.5591C21.2961 13.9051 21.3662 13.2511 21.3662 12.6088C21.3662 12.4686 21.3662 12.3285 21.3545 12.1883C22.008 11.7328 22.5565 11.1606 23 10.5182Z" fill="#353536"/>
</svg>
