<svg width="30" height="30" viewBox="0 0 30 30" fill="none" xmlns="http://www.w3.org/2000/svg">
<circle cx="15" cy="15" r="15" fill="#E9E3E2"/>
<path fill-rule="evenodd" clip-rule="evenodd" d="M17.6741 14.8269L13.353 17.2149V13.5373V12.4149L15.3033 13.5015L17.6741 14.8269ZM22.8476 11.591C22.8476 11.591 22.6958 10.4209 22.217 9.89552C21.6097 9.21493 20.9206 9.21493 20.617 9.1791C18.3748 9 15.0114 9 15.0114 9H14.9997C14.9997 9 11.6363 9 9.40575 9.16716C9.09043 9.20299 8.41309 9.20299 7.80581 9.88358C7.327 10.397 7.17518 11.5791 7.17518 11.5791C7.17518 11.5791 7 12.9761 7 14.3493V14.5164V15.6388C7 17.0239 7.1635 18.409 7.1635 18.409C7.1635 18.409 7.31532 19.5791 7.79413 20.1045C8.40141 20.7851 9.20722 20.7612 9.55757 20.8328C10.8422 20.9642 14.9997 21 14.9997 21C14.9997 21 18.3631 21 20.6053 20.8209C20.9206 20.7851 21.598 20.7851 22.2053 20.1045C22.6841 19.591 22.8359 18.409 22.8359 18.409C22.8359 18.409 22.9994 17.0239 22.9994 15.6388V14.5881V14.3493C23.0111 12.9761 22.8476 11.591 22.8476 11.591Z" fill="#353536"/>
</svg>
