<svg width="24" height="24" viewBox="0 0 24 24" fill="none" xmlns="http://www.w3.org/2000/svg">
<path d="M7.5 4.20557L12 11.9999" stroke="currentColor" stroke-width="2" stroke-linecap="round" stroke-linejoin="round"/>
<path d="M7.5 19.7944L12 12" stroke="currentColor" stroke-width="2" stroke-linecap="round" stroke-linejoin="round"/>
<path d="M21 12H12" stroke="currentColor" stroke-width="2" stroke-linecap="round" stroke-linejoin="round"/>
<path d="M10.9292 3.06177C12.6274 3.82163 14.0483 5.08907 14.9965 6.6897C15.9448 8.29034 16.3737 10.1455 16.2242 11.9999" stroke="currentColor" stroke-width="2" stroke-linecap="round" stroke-linejoin="round"/>
<path d="M4.79442 17.3962C4.60389 15.546 4.99132 13.6821 5.90342 12.0611C6.81552 10.44 8.20749 9.14134 9.88786 8.34375" stroke="currentColor" stroke-width="2" stroke-linecap="round" stroke-linejoin="round"/>
<path d="M20.2761 15.542C18.7687 16.6325 16.9604 17.229 15.1001 17.2495C13.2397 17.2699 11.4187 16.7134 9.8877 15.6564" stroke="currentColor" stroke-width="2" stroke-linecap="round" stroke-linejoin="round"/>
<path d="M12 21C16.9706 21 21 16.9706 21 12C21 7.02944 16.9706 3 12 3C7.02944 3 3 7.02944 3 12C3 16.9706 7.02944 21 12 21Z" stroke="currentColor" stroke-width="2" stroke-linecap="round" stroke-linejoin="round"/>
</svg>
