<svg width="16" height="16" viewBox="0 0 16 16" fill="none" xmlns="http://www.w3.org/2000/svg">
<path d="M5 2.80371L8 7.99996" stroke="currentColor" stroke-linecap="round" stroke-linejoin="round"/>
<path d="M5 13.1962L8 8" stroke="currentColor" stroke-linecap="round" stroke-linejoin="round"/>
<path d="M14 8H8" stroke="currentColor" stroke-linecap="round" stroke-linejoin="round"/>
<path d="M7.28613 2.04126C8.41824 2.54783 9.36555 3.3928 9.9977 4.45988C10.6298 5.52697 10.9158 6.76374 10.8161 8.00001" stroke="currentColor" stroke-linecap="round" stroke-linejoin="round"/>
<path d="M3.19612 11.5975C3.0691 10.364 3.32738 9.12142 3.93545 8.04071C4.54352 6.95999 5.4715 6.09423 6.59174 5.5625" stroke="currentColor" stroke-linecap="round" stroke-linejoin="round"/>
<path d="M13.5174 10.3613C12.5125 11.0883 11.307 11.486 10.0667 11.4996C8.82648 11.5133 7.61249 11.1423 6.5918 10.4376" stroke="currentColor" stroke-linecap="round" stroke-linejoin="round"/>
<path d="M8 14C11.3137 14 14 11.3137 14 8C14 4.68629 11.3137 2 8 2C4.68629 2 2 4.68629 2 8C2 11.3137 4.68629 14 8 14Z" stroke="currentColor" stroke-linecap="round" stroke-linejoin="round"/>
</svg>
