<svg width="28" height="28" viewBox="0 0 28 28" fill="none" xmlns="http://www.w3.org/2000/svg">
<path d="M14 27.9922C21.732 27.9922 28 21.7242 28 13.9922C28 6.2602 21.732 -0.0078125 14 -0.0078125C6.26801 -0.0078125 0 6.2602 0 13.9922C0 21.7242 6.26801 27.9922 14 27.9922Z" fill="#26A17B"/>
<path d="M15.4914 15.2834V15.2811C15.3946 15.2879 14.8949 15.3171 13.783 15.3171C12.8939 15.3171 12.2705 15.2924 12.0499 15.2811V15.2834C8.63091 15.1325 6.08075 14.5383 6.08075 13.8248C6.08075 13.1136 8.63316 12.5171 12.0499 12.3663V14.6914C12.2727 14.7071 12.9142 14.7454 13.7988 14.7454C14.8611 14.7454 15.3923 14.7004 15.4914 14.6914V12.3686C18.9036 12.5216 21.447 13.1158 21.447 13.8271C21.447 14.5383 18.9013 15.1325 15.4914 15.2856M15.4914 12.1277V10.048H20.2518V6.8766H7.29168V10.048H12.0521V12.1277C8.183 12.3055 5.27496 13.0708 5.27496 13.9891C5.27496 14.9075 8.18525 15.6727 12.0521 15.8528V22.5197H15.4936V15.8528C19.356 15.675 22.2595 14.9097 22.2595 13.9914C22.2595 13.0753 19.356 12.3078 15.4936 12.13" fill="white"/>
</svg>
