<svg width="80" height="20" viewBox="0 0 80 20" fill="none" xmlns="http://www.w3.org/2000/svg">
<path d="M5.99921 2.05762V5.98352H9.81474V8.92925H5.97294V14.9022C5.97294 16.2213 6.70083 16.8651 7.7677 16.8651C8.30114 16.8651 8.91867 16.697 9.4232 16.4447L10.3771 19.3615C9.39693 19.7531 8.58232 19.9212 7.54435 19.9501C4.54343 20.0631 2.58048 18.3525 2.58048 14.9022V8.92925H0V5.98352H2.58048V2.42288L5.99921 2.05762ZM71.7803 5.79957L72.0326 7.39726C73.0995 5.68658 74.529 5.43431 75.9322 5.43431C77.3617 5.43431 78.736 5.99403 79.4928 6.75083L77.9503 9.72284C77.2487 9.13422 76.6049 8.82414 75.4829 8.82414C73.6881 8.82414 72.0326 9.77802 72.0326 12.3296V19.6217H68.6112V5.79432L71.7803 5.79957ZM63.3951 11.0998C63.1717 9.30502 61.7685 8.40633 59.8055 8.40633C57.9556 8.40633 56.4394 9.30502 55.9348 11.0998H63.3951ZM55.8796 13.9325C56.103 15.6432 57.5903 16.8783 60.0026 16.8783C61.264 16.8783 62.9195 16.4 63.7052 15.588L65.8915 17.7481C64.4331 19.2617 62.0497 19.9922 59.9448 19.9922C55.178 19.9922 52.3427 17.0465 52.3427 12.616C52.3427 8.40895 55.2043 5.37913 59.6926 5.37913C64.3201 5.37913 67.2106 8.24078 66.6772 13.9325H55.8796ZM40.791 -0.0078125V7.6758C42.026 6.07812 43.5396 5.59986 45.111 5.59986C49.0369 5.59986 50.7765 8.26443 50.7765 12.3322V19.6243H47.3551V12.3611C47.3551 9.83584 46.036 8.77159 44.2123 8.77159C42.1916 8.77159 40.791 10.4823 40.791 12.5582V19.6269H37.3696V-0.00518416L40.791 -0.0078125ZM31.7041 1.89995V5.82585H35.5196V8.77159H31.6778V14.7445C31.6778 16.0637 32.4084 16.7075 33.4726 16.7075C34.006 16.7075 34.6236 16.5393 35.1281 16.287L36.082 19.2039C35.1018 19.5954 34.2872 19.7636 33.2492 19.7925C30.2483 19.9055 28.2854 18.1922 28.2854 14.7445V8.77159H25.7049V5.82585H28.2854V2.26521L31.7041 1.89995ZM22.252 11.0998C22.0286 9.30502 20.6254 8.40633 18.6625 8.40633C16.8125 8.40633 15.2963 9.30502 14.7918 11.0998H22.252ZM14.7366 13.9325C14.9599 15.6432 16.4472 16.8783 18.8595 16.8783C20.1209 16.8783 21.7764 16.4 22.5621 15.588L24.7484 17.7481C23.29 19.2617 20.9066 19.9922 18.8017 19.9922C14.0323 19.9922 11.1996 17.0465 11.1996 12.616C11.1996 8.40895 14.0612 5.37913 18.5468 5.37913C23.1744 5.37913 26.0623 8.24078 25.5315 13.9325H14.7366Z" fill="#5B5A5D"/>
</svg>
