<svg width="24" height="24" viewBox="0 0 24 24" fill="none" xmlns="http://www.w3.org/2000/svg">
<g clip-path="url(#clip0_8234_4646)">
<path d="M3.81836 13.1853V20.1818C3.81836 20.3988 3.90456 20.6069 4.058 20.7604C4.21144 20.9138 4.41955 21 4.63654 21H19.3638C19.5808 21 19.7889 20.9138 19.9424 20.7604C20.0958 20.6069 20.182 20.3988 20.182 20.1818V13.1853" stroke="black" stroke-width="2" stroke-linecap="round" stroke-linejoin="round"/>
<path d="M4.43164 3H19.568C19.7457 3.00003 19.9186 3.05794 20.0605 3.16496C20.2024 3.27199 20.3056 3.4223 20.3545 3.59318L21.818 8.72727H2.18164L3.64823 3.59318C3.69696 3.42281 3.79969 3.27286 3.94097 3.16588C4.08225 3.05891 4.25443 3.0007 4.43164 3Z" stroke="black" stroke-width="2" stroke-linecap="round" stroke-linejoin="round"/>
<path d="M8.7271 8.72727V10.3636C8.7271 11.2316 8.38229 12.064 7.76854 12.6778C7.15478 13.2916 6.32235 13.6364 5.45437 13.6364C4.58639 13.6364 3.75396 13.2916 3.1402 12.6778C2.52644 12.064 2.18164 11.2316 2.18164 10.3636V8.72727" stroke="black" stroke-width="2" stroke-linecap="round" stroke-linejoin="round"/>
<path d="M15.2725 8.72727V10.3636C15.2725 11.2316 14.9277 12.064 14.3139 12.6778C13.7002 13.2916 12.8678 13.6364 11.9998 13.6364C11.1318 13.6364 10.2994 13.2916 9.68561 12.6778C9.07185 12.064 8.72705 11.2316 8.72705 10.3636V8.72727" stroke="black" stroke-width="2" stroke-linecap="round" stroke-linejoin="round"/>
<path d="M21.8184 8.72727V10.3636C21.8184 11.2316 21.4736 12.064 20.8598 12.6778C20.2461 13.2916 19.4137 13.6364 18.5457 13.6364C17.6777 13.6364 16.8453 13.2916 16.2315 12.6778C15.6178 12.064 15.2729 11.2316 15.2729 10.3636V8.72727" stroke="black" stroke-width="2" stroke-linecap="round" stroke-linejoin="round"/>
</g>
<defs>
<clipPath id="clip0_8234_4646">
<rect width="24" height="24" fill="white"/>
</clipPath>
</defs>
</svg>
