<svg width="20" height="20" viewBox="0 0 20 20" fill="none" xmlns="http://www.w3.org/2000/svg">
<path d="M14.1667 9.16667H15.8333C16.2754 9.16667 16.6993 9.34226 17.0118 9.65482C17.3244 9.96738 17.5 10.3913 17.5 10.8333V12.5C17.5 12.721 17.4122 12.933 17.2559 13.0893C17.0996 13.2455 16.8877 13.3333 16.6667 13.3333H15.4167M14.1667 9.16667H8.75M14.1667 9.16667L12.1525 5.80917C12.0044 5.56237 11.795 5.35813 11.5445 5.21633C11.294 5.07453 11.0111 5 10.7233 5H8.75M15.4167 13.3333C15.4167 13.7754 15.2411 14.1993 14.9285 14.5118C14.616 14.8244 14.192 15 13.75 15C13.308 15 12.884 14.8244 12.5715 14.5118C12.2589 14.1993 12.0833 13.7754 12.0833 13.3333M15.4167 13.3333C15.4167 12.8913 15.2411 12.4674 14.9285 12.1548C14.616 11.8423 14.192 11.6667 13.75 11.6667C13.308 11.6667 12.884 11.8423 12.5715 12.1548C12.2589 12.4674 12.0833 12.8913 12.0833 13.3333M8.75 9.16667V5M8.75 9.16667H4.16667M8.75 5H6.36667C5.98123 4.99985 5.60765 5.13329 5.30954 5.37762C5.01143 5.62194 4.80721 5.96204 4.73167 6.34L4.16667 9.16667M4.16667 9.16667C3.72464 9.16667 3.30072 9.34226 2.98816 9.65482C2.67559 9.96738 2.5 10.3913 2.5 10.8333V12.5C2.5 12.721 2.5878 12.933 2.74408 13.0893C2.90036 13.2455 3.11232 13.3333 3.33333 13.3333H4.58333M4.58333 13.3333C4.58333 13.7754 4.75893 14.1993 5.07149 14.5118C5.38405 14.8244 5.80797 15 6.25 15C6.69203 15 7.11595 14.8244 7.42851 14.5118C7.74107 14.1993 7.91667 13.7754 7.91667 13.3333M4.58333 13.3333C4.58333 12.8913 4.75893 12.4674 5.07149 12.1548C5.38405 11.8423 5.80797 11.6667 6.25 11.6667C6.69203 11.6667 7.11595 11.8423 7.42851 12.1548C7.74107 12.4674 7.91667 12.8913 7.91667 13.3333M7.91667 13.3333H12.0833" stroke="black" stroke-width="1.5" stroke-linecap="round" stroke-linejoin="round"/>
</svg>
