<svg width="16" height="16" viewBox="0 0 16 16" fill="none" xmlns="http://www.w3.org/2000/svg">
<path d="M11.3333 7.33333H12.6667C13.0203 7.33333 13.3594 7.47381 13.6095 7.72386C13.8595 7.97391 14 8.31304 14 8.66667V10C14 10.1768 13.9298 10.3464 13.8047 10.4714C13.6797 10.5964 13.5101 10.6667 13.3333 10.6667H12.3333M11.3333 7.33333H7M11.3333 7.33333L9.722 4.64733C9.60354 4.4499 9.43597 4.2865 9.2356 4.17306C9.03524 4.05962 8.80892 4 8.57867 4H7M12.3333 10.6667C12.3333 11.0203 12.1929 11.3594 11.9428 11.6095C11.6928 11.8595 11.3536 12 11 12C10.6464 12 10.3072 11.8595 10.0572 11.6095C9.80714 11.3594 9.66667 11.0203 9.66667 10.6667M12.3333 10.6667C12.3333 10.313 12.1929 9.97391 11.9428 9.72386C11.6928 9.47381 11.3536 9.33333 11 9.33333C10.6464 9.33333 10.3072 9.47381 10.0572 9.72386C9.80714 9.97391 9.66667 10.313 9.66667 10.6667M7 7.33333V4M7 7.33333H3.33333M7 4H5.09333C4.78498 3.99988 4.48612 4.10663 4.24763 4.30209C4.00914 4.49755 3.84577 4.76963 3.78533 5.072L3.33333 7.33333M3.33333 7.33333C2.97971 7.33333 2.64057 7.47381 2.39052 7.72386C2.14048 7.97391 2 8.31304 2 8.66667V10C2 10.1768 2.07024 10.3464 2.19526 10.4714C2.32029 10.5964 2.48986 10.6667 2.66667 10.6667H3.66667M3.66667 10.6667C3.66667 11.0203 3.80714 11.3594 4.05719 11.6095C4.30724 11.8595 4.64638 12 5 12C5.35362 12 5.69276 11.8595 5.94281 11.6095C6.19286 11.3594 6.33333 11.0203 6.33333 10.6667M3.66667 10.6667C3.66667 10.313 3.80714 9.97391 4.05719 9.72386C4.30724 9.47381 4.64638 9.33333 5 9.33333C5.35362 9.33333 5.69276 9.47381 5.94281 9.72386C6.19286 9.97391 6.33333 10.313 6.33333 10.6667M6.33333 10.6667H9.66667" stroke="black" stroke-linecap="round" stroke-linejoin="round"/>
</svg>
