<svg width="944" height="498" viewBox="0 0 944 498" fill="none" xmlns="http://www.w3.org/2000/svg">
<mask id="mask0_10721_20511" style="mask-type:alpha" maskUnits="userSpaceOnUse" x="150" y="168" width="256" height="169">
<path d="M175.418 334.755C156.542 328.545 146.215 308.386 152.353 289.729C158.491 271.071 178.77 260.98 197.646 267.19V267.19C211.308 271.685 227.27 277.479 239.937 270.668L313.204 231.273C326.426 224.164 330.478 206.776 335.169 192.516V192.516C341.307 173.858 361.586 163.767 380.462 169.977C399.338 176.187 409.665 196.347 403.527 215.004C397.388 233.662 377.11 243.753 358.234 237.543V237.543C344.194 232.924 327.72 226.718 314.702 233.718L243.072 272.234C229.503 279.53 225.525 297.583 220.711 312.217V312.217C214.573 330.875 194.294 340.966 175.418 334.755Z" fill="#2BCFA1"/>
</mask>
<g mask="url(#mask0_10721_20511)">
<rect x="210.27" y="114.197" width="215.219" height="220.689" transform="rotate(18.2105 210.27 114.197)" fill="#2BCFA1"/>
</g>
<mask id="mask1_10721_20511" style="mask-type:alpha" maskUnits="userSpaceOnUse" x="538" y="156" width="256" height="170">
<path d="M563.777 323.226C544.901 317.016 534.575 296.857 540.713 278.199C546.851 259.542 567.129 249.451 586.005 255.661V255.661C599.667 260.155 615.629 265.949 628.297 259.138L701.564 219.744C714.786 212.635 718.837 195.247 723.529 180.987V180.987C729.667 162.329 749.945 152.238 768.821 158.448C787.698 164.658 798.024 184.817 791.886 203.475C785.748 222.133 765.47 232.224 746.593 226.014V226.014C732.553 221.394 716.079 215.189 703.061 222.189L631.431 260.705C617.863 268.001 613.884 286.054 609.07 300.688V300.688C602.932 319.345 582.654 329.436 563.777 323.226Z" fill="#2BCFA1"/>
</mask>
<g mask="url(#mask1_10721_20511)">
<rect x="598.629" y="102.667" width="215.219" height="220.689" transform="rotate(18.2105 598.629 102.667)" fill="#2BCFA1"/>
</g>
<mask id="mask2_10721_20511" style="mask-type:alpha" maskUnits="userSpaceOnUse" x="334" y="164" width="277" height="166">
<path d="M608.264 278.219C615.476 297.975 605.492 319.769 585.964 326.897C566.437 334.025 544.761 323.787 537.55 304.031V304.031C532.33 289.732 526.683 272.671 512.721 266.608L431.965 231.544C417.391 225.216 400.287 233.246 385.362 238.693V238.693C365.834 245.821 344.158 235.584 336.947 215.828C329.736 196.072 339.72 174.278 359.247 167.15C378.774 160.022 400.45 170.26 407.662 190.016V190.016C413.025 204.71 418.666 222.467 433.015 228.697L511.969 262.977C526.925 269.47 544.534 260.944 559.85 255.353V255.353C579.377 248.226 601.053 258.463 608.264 278.219Z" fill="#2BCFA1"/>
</mask>
<g mask="url(#mask2_10721_20511)">
<rect x="402.141" y="393.815" width="227.777" height="233.567" transform="rotate(-110.053 402.141 393.815)" fill="#2BCFA1"/>
</g>
<g filter="url(#filter0_f_10721_20511)">
<mask id="mask3_10721_20511" style="mask-type:alpha" maskUnits="userSpaceOnUse" x="150" y="168" width="256" height="169">
<path d="M175.418 334.755C156.542 328.545 146.215 308.386 152.353 289.729C158.491 271.071 178.77 260.98 197.646 267.19V267.19C211.308 271.685 227.27 277.479 239.937 270.668L313.204 231.273C326.426 224.164 330.478 206.776 335.169 192.516V192.516C341.307 173.858 361.586 163.767 380.462 169.977C399.338 176.187 409.665 196.347 403.527 215.004C397.388 233.662 377.11 243.753 358.234 237.543V237.543C344.194 232.924 327.72 226.718 314.702 233.718L243.072 272.234C229.503 279.53 225.525 297.583 220.711 312.217V312.217C214.573 330.875 194.294 340.966 175.418 334.755Z" fill="#2BCFA1"/>
</mask>
<g mask="url(#mask3_10721_20511)">
<rect x="210.27" y="114.197" width="215.219" height="220.689" transform="rotate(18.2105 210.27 114.197)" fill="#2BCFA1"/>
</g>
</g>
<g filter="url(#filter1_f_10721_20511)">
<mask id="mask4_10721_20511" style="mask-type:alpha" maskUnits="userSpaceOnUse" x="538" y="156" width="256" height="170">
<path d="M563.777 323.226C544.901 317.016 534.575 296.857 540.713 278.199C546.851 259.542 567.129 249.451 586.005 255.661V255.661C599.667 260.155 615.629 265.949 628.297 259.138L701.564 219.744C714.786 212.635 718.837 195.247 723.529 180.987V180.987C729.667 162.329 749.945 152.238 768.821 158.448C787.698 164.658 798.024 184.817 791.886 203.475C785.748 222.133 765.47 232.224 746.593 226.014V226.014C732.553 221.394 716.079 215.189 703.061 222.189L631.431 260.705C617.863 268.001 613.884 286.054 609.07 300.688V300.688C602.932 319.345 582.654 329.436 563.777 323.226Z" fill="#2BCFA1"/>
</mask>
<g mask="url(#mask4_10721_20511)">
<rect x="598.629" y="102.667" width="215.219" height="220.689" transform="rotate(18.2105 598.629 102.667)" fill="#2BCFA1"/>
</g>
</g>
<g filter="url(#filter2_f_10721_20511)">
<mask id="mask5_10721_20511" style="mask-type:alpha" maskUnits="userSpaceOnUse" x="334" y="164" width="277" height="166">
<path d="M608.264 278.219C615.476 297.975 605.492 319.769 585.964 326.897C566.437 334.025 544.761 323.787 537.55 304.031V304.031C532.33 289.732 526.683 272.671 512.721 266.608L431.965 231.544C417.391 225.216 400.287 233.246 385.362 238.693V238.693C365.834 245.821 344.158 235.584 336.947 215.828C329.736 196.072 339.72 174.278 359.247 167.15C378.774 160.022 400.45 170.26 407.662 190.016V190.016C413.025 204.71 418.666 222.467 433.015 228.697L511.969 262.977C526.925 269.47 544.534 260.944 559.85 255.353V255.353C579.377 248.226 601.053 258.463 608.264 278.219Z" fill="#2BCFA1"/>
</mask>
<g mask="url(#mask5_10721_20511)">
<rect x="402.141" y="393.815" width="227.777" height="233.567" transform="rotate(-110.053 402.141 393.815)" fill="#2BCFA1"/>
</g>
</g>
<path d="M139.632 368.176H145.54C146.287 368.176 147.043 368.26 147.808 368.428C148.573 368.577 149.255 368.848 149.852 369.24C150.468 369.613 150.963 370.127 151.336 370.78C151.728 371.433 151.924 372.255 151.924 373.244C151.924 374.289 151.607 375.204 150.972 375.988C150.337 376.753 149.488 377.257 148.424 377.5V377.556C149.712 377.705 150.776 378.209 151.616 379.068C152.475 379.908 152.904 381.056 152.904 382.512C152.904 383.333 152.727 384.089 152.372 384.78C152.036 385.452 151.551 386.031 150.916 386.516C150.281 386.983 149.507 387.347 148.592 387.608C147.677 387.869 146.651 388 145.512 388H139.632V368.176ZM141.648 376.856H145.708C146.193 376.856 146.679 376.8 147.164 376.688C147.668 376.576 148.125 376.389 148.536 376.128C148.947 375.848 149.273 375.484 149.516 375.036C149.777 374.588 149.908 374.037 149.908 373.384C149.908 372.749 149.777 372.217 149.516 371.788C149.273 371.34 148.937 370.976 148.508 370.696C148.079 370.416 147.575 370.22 146.996 370.108C146.417 369.977 145.801 369.912 145.148 369.912H141.648V376.856ZM141.648 386.264H145.4C146.128 386.264 146.819 386.199 147.472 386.068C148.144 385.919 148.723 385.695 149.208 385.396C149.712 385.079 150.113 384.677 150.412 384.192C150.711 383.688 150.86 383.091 150.86 382.4C150.86 381.093 150.412 380.123 149.516 379.488C148.639 378.835 147.388 378.508 145.764 378.508H141.648V386.264ZM157.321 377.78C157.321 377.425 157.311 376.968 157.293 376.408C157.274 375.848 157.246 375.344 157.209 374.896H159.029C159.066 375.251 159.094 375.643 159.113 376.072C159.131 376.501 159.141 376.856 159.141 377.136H159.197C159.57 376.371 160.13 375.755 160.877 375.288C161.623 374.803 162.463 374.56 163.397 374.56C163.639 374.56 163.854 374.569 164.041 374.588C164.246 374.607 164.451 374.644 164.657 374.7L164.405 376.492C164.293 376.455 164.106 376.417 163.845 376.38C163.583 376.343 163.322 376.324 163.061 376.324C162.557 376.324 162.071 376.417 161.605 376.604C161.138 376.791 160.727 377.089 160.373 377.5C160.037 377.892 159.757 378.405 159.533 379.04C159.327 379.656 159.225 380.403 159.225 381.28V388H157.321V377.78ZM175.343 379.544C175.343 378.405 175.044 377.556 174.447 376.996C173.849 376.436 172.981 376.156 171.843 376.156C171.059 376.156 170.331 376.296 169.659 376.576C168.987 376.856 168.417 377.229 167.951 377.696L166.887 376.436C167.428 375.895 168.137 375.447 169.015 375.092C169.911 374.737 170.919 374.56 172.039 374.56C172.748 374.56 173.411 374.663 174.027 374.868C174.643 375.055 175.184 375.344 175.651 375.736C176.117 376.128 176.481 376.623 176.743 377.22C177.004 377.817 177.135 378.517 177.135 379.32V385.06C177.135 385.564 177.153 386.087 177.191 386.628C177.228 387.169 177.284 387.627 177.359 388H175.651C175.595 387.683 175.548 387.337 175.511 386.964C175.473 386.591 175.455 386.227 175.455 385.872H175.399C174.801 386.749 174.12 387.384 173.355 387.776C172.608 388.149 171.703 388.336 170.639 388.336C170.135 388.336 169.612 388.261 169.071 388.112C168.548 387.981 168.063 387.757 167.615 387.44C167.185 387.123 166.821 386.712 166.523 386.208C166.243 385.704 166.103 385.088 166.103 384.36C166.103 383.352 166.355 382.559 166.859 381.98C167.381 381.383 168.072 380.944 168.931 380.664C169.789 380.365 170.769 380.179 171.871 380.104C172.991 380.011 174.148 379.964 175.343 379.964V379.544ZM174.783 381.448C173.999 381.448 173.205 381.485 172.403 381.56C171.619 381.616 170.9 381.747 170.247 381.952C169.612 382.139 169.089 382.419 168.678 382.792C168.268 383.165 168.062 383.66 168.062 384.276C168.062 384.743 168.147 385.135 168.315 385.452C168.501 385.769 168.744 386.031 169.043 386.236C169.341 386.423 169.668 386.563 170.023 386.656C170.396 386.731 170.769 386.768 171.143 386.768C171.815 386.768 172.412 386.656 172.935 386.432C173.457 386.189 173.896 385.872 174.251 385.48C174.605 385.069 174.876 384.603 175.063 384.08C175.249 383.557 175.343 383.007 175.343 382.428V381.448H174.783ZM183.748 374.896C183.785 375.251 183.813 375.643 183.832 376.072C183.85 376.501 183.86 376.856 183.86 377.136H183.916C184.289 376.371 184.896 375.755 185.736 375.288C186.576 374.803 187.462 374.56 188.396 374.56C190.057 374.56 191.298 375.055 192.12 376.044C192.96 377.033 193.38 378.34 193.38 379.964V388H191.476V380.748C191.476 380.057 191.42 379.432 191.308 378.872C191.196 378.312 191 377.836 190.72 377.444C190.458 377.033 190.094 376.716 189.628 376.492C189.18 376.268 188.61 376.156 187.92 376.156C187.416 376.156 186.921 376.259 186.436 376.464C185.969 376.669 185.549 376.987 185.176 377.416C184.802 377.827 184.504 378.359 184.28 379.012C184.056 379.647 183.944 380.403 183.944 381.28V388H182.04V377.78C182.04 377.425 182.03 376.968 182.012 376.408C181.993 375.848 181.965 375.344 181.928 374.896H183.748ZM209.089 385.788C208.529 386.628 207.801 387.263 206.905 387.692C206.009 388.121 205.085 388.336 204.133 388.336C203.106 388.336 202.173 388.159 201.333 387.804C200.512 387.449 199.802 386.964 199.205 386.348C198.626 385.732 198.169 385.004 197.833 384.164C197.516 383.324 197.357 382.419 197.357 381.448C197.357 380.477 197.516 379.572 197.833 378.732C198.169 377.892 198.626 377.164 199.205 376.548C199.802 375.932 200.512 375.447 201.333 375.092C202.173 374.737 203.106 374.56 204.133 374.56C205.085 374.56 206.009 374.784 206.905 375.232C207.801 375.661 208.529 376.305 209.089 377.164H209.145V366.832H211.049V388H209.145V385.788H209.089ZM199.373 381.448C199.373 382.176 199.485 382.867 199.709 383.52C199.933 384.155 200.25 384.715 200.661 385.2C201.09 385.667 201.613 386.04 202.229 386.32C202.845 386.581 203.545 386.712 204.329 386.712C205.057 386.712 205.729 386.581 206.345 386.32C206.961 386.04 207.493 385.667 207.941 385.2C208.389 384.733 208.734 384.183 208.977 383.548C209.238 382.895 209.369 382.195 209.369 381.448C209.369 380.701 209.238 380.011 208.977 379.376C208.734 378.723 208.389 378.163 207.941 377.696C207.493 377.211 206.961 376.837 206.345 376.576C205.729 376.296 205.057 376.156 204.329 376.156C203.545 376.156 202.845 376.296 202.229 376.576C201.613 376.856 201.09 377.239 200.661 377.724C200.25 378.191 199.933 378.751 199.709 379.404C199.485 380.039 199.373 380.72 199.373 381.448ZM223.109 378.004C222.829 377.463 222.4 377.024 221.821 376.688C221.261 376.333 220.617 376.156 219.889 376.156C219.553 376.156 219.217 376.193 218.881 376.268C218.545 376.343 218.247 376.464 217.985 376.632C217.724 376.8 217.509 377.015 217.341 377.276C217.192 377.537 217.117 377.845 217.117 378.2C217.117 378.816 217.369 379.292 217.873 379.628C218.377 379.945 219.171 380.216 220.253 380.44C221.803 380.757 222.941 381.224 223.669 381.84C224.416 382.437 224.789 383.249 224.789 384.276C224.789 385.023 224.64 385.657 224.341 386.18C224.061 386.684 223.688 387.104 223.221 387.44C222.755 387.757 222.223 387.981 221.625 388.112C221.047 388.261 220.459 388.336 219.861 388.336C218.872 388.336 217.911 388.131 216.977 387.72C216.044 387.309 215.279 386.665 214.681 385.788L216.193 384.668C216.529 385.247 217.024 385.732 217.677 386.124C218.331 386.516 219.049 386.712 219.833 386.712C220.244 386.712 220.636 386.675 221.009 386.6C221.383 386.525 221.709 386.395 221.989 386.208C222.269 386.021 222.493 385.788 222.661 385.508C222.829 385.209 222.913 384.845 222.913 384.416C222.913 383.725 222.577 383.212 221.905 382.876C221.252 382.521 220.3 382.195 219.049 381.896C218.657 381.803 218.237 381.691 217.789 381.56C217.36 381.411 216.959 381.205 216.585 380.944C216.212 380.664 215.904 380.319 215.661 379.908C215.419 379.497 215.297 378.984 215.297 378.368C215.297 377.696 215.428 377.127 215.689 376.66C215.951 376.175 216.296 375.783 216.725 375.484C217.173 375.167 217.677 374.933 218.237 374.784C218.797 374.635 219.376 374.56 219.973 374.56C220.888 374.56 221.775 374.765 222.633 375.176C223.492 375.587 224.136 376.165 224.565 376.912L223.109 378.004Z" fill="#80EDCF"/>
<path d="M512.632 368.176H518.232C519.24 368.176 520.155 368.288 520.976 368.512C521.797 368.717 522.497 369.044 523.076 369.492C523.673 369.921 524.131 370.472 524.448 371.144C524.765 371.797 524.924 372.572 524.924 373.468C524.924 374.364 524.756 375.148 524.42 375.82C524.103 376.473 523.645 377.024 523.048 377.472C522.469 377.901 521.76 378.228 520.92 378.452C520.099 378.676 519.184 378.788 518.176 378.788H514.648V388H512.632V368.176ZM514.648 377.08H518.064C519.651 377.08 520.855 376.772 521.676 376.156C522.497 375.54 522.908 374.644 522.908 373.468C522.908 372.236 522.479 371.34 521.62 370.78C520.78 370.201 519.595 369.912 518.064 369.912H514.648V377.08ZM536.942 388C536.905 387.645 536.877 387.253 536.858 386.824C536.84 386.395 536.83 386.04 536.83 385.76H536.774C536.401 386.525 535.794 387.151 534.954 387.636C534.114 388.103 533.228 388.336 532.294 388.336C530.633 388.336 529.382 387.841 528.542 386.852C527.721 385.863 527.31 384.556 527.31 382.932V374.896H529.214V382.148C529.214 382.839 529.27 383.464 529.382 384.024C529.494 384.584 529.681 385.069 529.942 385.48C530.222 385.872 530.586 386.18 531.034 386.404C531.501 386.628 532.08 386.74 532.77 386.74C533.274 386.74 533.76 386.637 534.226 386.432C534.712 386.227 535.141 385.919 535.514 385.508C535.888 385.079 536.186 384.547 536.41 383.912C536.634 383.259 536.746 382.493 536.746 381.616V374.896H538.65V385.116C538.65 385.471 538.66 385.928 538.678 386.488C538.697 387.048 538.725 387.552 538.762 388H536.942ZM545.652 385.788V388H543.748V366.832H545.652V377.164H545.708C546.268 376.305 546.996 375.661 547.892 375.232C548.788 374.784 549.712 374.56 550.664 374.56C551.691 374.56 552.615 374.737 553.436 375.092C554.276 375.447 554.985 375.932 555.564 376.548C556.161 377.164 556.619 377.892 556.936 378.732C557.272 379.572 557.44 380.477 557.44 381.448C557.44 382.419 557.272 383.324 556.936 384.164C556.619 385.004 556.161 385.732 555.564 386.348C554.985 386.964 554.276 387.449 553.436 387.804C552.615 388.159 551.691 388.336 550.664 388.336C549.712 388.336 548.788 388.121 547.892 387.692C546.996 387.263 546.268 386.628 545.708 385.788H545.652ZM555.424 381.448C555.424 380.72 555.312 380.039 555.088 379.404C554.864 378.751 554.537 378.191 554.108 377.724C553.697 377.239 553.184 376.856 552.568 376.576C551.952 376.296 551.252 376.156 550.468 376.156C549.74 376.156 549.068 376.296 548.452 376.576C547.836 376.837 547.304 377.211 546.856 377.696C546.408 378.163 546.053 378.723 545.792 379.376C545.549 380.011 545.428 380.701 545.428 381.448C545.428 382.195 545.549 382.895 545.792 383.548C546.053 384.183 546.408 384.733 546.856 385.2C547.304 385.667 547.836 386.04 548.452 386.32C549.068 386.581 549.74 386.712 550.468 386.712C551.252 386.712 551.952 386.581 552.568 386.32C553.184 386.04 553.697 385.667 554.108 385.2C554.537 384.715 554.864 384.155 555.088 383.52C555.312 382.867 555.424 382.176 555.424 381.448ZM563.48 388H561.576V366.832H563.48V388ZM570.507 388H568.603V374.896H570.507V388ZM570.899 369.856C570.899 370.248 570.759 370.575 570.479 370.836C570.199 371.079 569.891 371.2 569.555 371.2C569.219 371.2 568.911 371.079 568.631 370.836C568.351 370.575 568.211 370.248 568.211 369.856C568.211 369.464 568.351 369.147 568.631 368.904C568.911 368.643 569.219 368.512 569.555 368.512C569.891 368.512 570.199 368.643 570.479 368.904C570.759 369.147 570.899 369.464 570.899 369.856ZM582.547 378.004C582.267 377.463 581.837 377.024 581.259 376.688C580.699 376.333 580.055 376.156 579.327 376.156C578.991 376.156 578.655 376.193 578.319 376.268C577.983 376.343 577.684 376.464 577.423 376.632C577.161 376.8 576.947 377.015 576.779 377.276C576.629 377.537 576.555 377.845 576.555 378.2C576.555 378.816 576.807 379.292 577.311 379.628C577.815 379.945 578.608 380.216 579.691 380.44C581.24 380.757 582.379 381.224 583.107 381.84C583.853 382.437 584.227 383.249 584.227 384.276C584.227 385.023 584.077 385.657 583.779 386.18C583.499 386.684 583.125 387.104 582.659 387.44C582.192 387.757 581.66 387.981 581.063 388.112C580.484 388.261 579.896 388.336 579.299 388.336C578.309 388.336 577.348 388.131 576.415 387.72C575.481 387.309 574.716 386.665 574.119 385.788L575.631 384.668C575.967 385.247 576.461 385.732 577.115 386.124C577.768 386.516 578.487 386.712 579.271 386.712C579.681 386.712 580.073 386.675 580.447 386.6C580.82 386.525 581.147 386.395 581.427 386.208C581.707 386.021 581.931 385.788 582.099 385.508C582.267 385.209 582.351 384.845 582.351 384.416C582.351 383.725 582.015 383.212 581.343 382.876C580.689 382.521 579.737 382.195 578.487 381.896C578.095 381.803 577.675 381.691 577.227 381.56C576.797 381.411 576.396 381.205 576.023 380.944C575.649 380.664 575.341 380.319 575.099 379.908C574.856 379.497 574.735 378.984 574.735 378.368C574.735 377.696 574.865 377.127 575.127 376.66C575.388 376.175 575.733 375.783 576.163 375.484C576.611 375.167 577.115 374.933 577.675 374.784C578.235 374.635 578.813 374.56 579.411 374.56C580.325 374.56 581.212 374.765 582.071 375.176C582.929 375.587 583.573 376.165 584.003 376.912L582.547 378.004ZM590.032 377.052C590.387 376.287 590.975 375.68 591.796 375.232C592.617 374.784 593.495 374.56 594.428 374.56C596.089 374.56 597.331 375.055 598.152 376.044C598.992 377.033 599.412 378.34 599.412 379.964V388H597.508V380.748C597.508 380.057 597.452 379.432 597.34 378.872C597.228 378.312 597.032 377.836 596.752 377.444C596.491 377.033 596.127 376.716 595.66 376.492C595.212 376.268 594.643 376.156 593.952 376.156C593.448 376.156 592.953 376.259 592.468 376.464C592.001 376.669 591.581 376.987 591.208 377.416C590.835 377.827 590.536 378.359 590.312 379.012C590.088 379.647 589.976 380.403 589.976 381.28V388H588.072V366.832H589.976V377.052H590.032ZM614.336 380.44C614.28 379.208 613.879 378.191 613.132 377.388C612.404 376.567 611.359 376.156 609.996 376.156C609.362 376.156 608.774 376.277 608.232 376.52C607.691 376.744 607.215 377.061 606.804 377.472C606.394 377.864 606.067 378.321 605.824 378.844C605.582 379.348 605.442 379.88 605.404 380.44H614.336ZM616.268 381.056C616.268 381.187 616.268 381.327 616.268 381.476C616.268 381.625 616.259 381.784 616.24 381.952H605.376C605.395 382.605 605.526 383.221 605.768 383.8C606.011 384.379 606.347 384.883 606.776 385.312C607.206 385.741 607.71 386.087 608.288 386.348C608.867 386.591 609.492 386.712 610.164 386.712C611.154 386.712 612.003 386.488 612.712 386.04C613.44 385.573 613.991 385.041 614.364 384.444L615.792 385.564C615.008 386.553 614.14 387.263 613.188 387.692C612.255 388.121 611.247 388.336 610.164 388.336C609.194 388.336 608.288 388.168 607.448 387.832C606.627 387.477 605.918 386.992 605.32 386.376C604.723 385.76 604.247 385.032 603.892 384.192C603.556 383.352 603.388 382.437 603.388 381.448C603.388 380.459 603.556 379.544 603.892 378.704C604.228 377.864 604.695 377.136 605.292 376.52C605.89 375.904 606.59 375.428 607.392 375.092C608.195 374.737 609.063 374.56 609.996 374.56C611.023 374.56 611.928 374.737 612.712 375.092C613.496 375.428 614.15 375.895 614.672 376.492C615.195 377.071 615.587 377.752 615.848 378.536C616.128 379.32 616.268 380.16 616.268 381.056ZM620.364 377.78C620.364 377.425 620.354 376.968 620.336 376.408C620.317 375.848 620.289 375.344 620.252 374.896H622.072C622.109 375.251 622.137 375.643 622.156 376.072C622.174 376.501 622.184 376.856 622.184 377.136H622.24C622.613 376.371 623.173 375.755 623.92 375.288C624.666 374.803 625.506 374.56 626.44 374.56C626.682 374.56 626.897 374.569 627.084 374.588C627.289 374.607 627.494 374.644 627.7 374.7L627.448 376.492C627.336 376.455 627.149 376.417 626.888 376.38C626.626 376.343 626.365 376.324 626.104 376.324C625.6 376.324 625.114 376.417 624.648 376.604C624.181 376.791 623.77 377.089 623.416 377.5C623.08 377.892 622.8 378.405 622.576 379.04C622.37 379.656 622.268 380.403 622.268 381.28V388H620.364V377.78ZM637.426 378.004C637.146 377.463 636.716 377.024 636.138 376.688C635.578 376.333 634.934 376.156 634.206 376.156C633.87 376.156 633.534 376.193 633.198 376.268C632.862 376.343 632.563 376.464 632.302 376.632C632.04 376.8 631.826 377.015 631.658 377.276C631.508 377.537 631.434 377.845 631.434 378.2C631.434 378.816 631.686 379.292 632.19 379.628C632.694 379.945 633.487 380.216 634.57 380.44C636.119 380.757 637.258 381.224 637.986 381.84C638.732 382.437 639.106 383.249 639.106 384.276C639.106 385.023 638.956 385.657 638.658 386.18C638.378 386.684 638.004 387.104 637.538 387.44C637.071 387.757 636.539 387.981 635.942 388.112C635.363 388.261 634.775 388.336 634.178 388.336C633.188 388.336 632.227 388.131 631.294 387.72C630.36 387.309 629.595 386.665 628.998 385.788L630.51 384.668C630.846 385.247 631.34 385.732 631.994 386.124C632.647 386.516 633.366 386.712 634.15 386.712C634.56 386.712 634.952 386.675 635.326 386.6C635.699 386.525 636.026 386.395 636.306 386.208C636.586 386.021 636.81 385.788 636.978 385.508C637.146 385.209 637.23 384.845 637.23 384.416C637.23 383.725 636.894 383.212 636.222 382.876C635.568 382.521 634.616 382.195 633.366 381.896C632.974 381.803 632.554 381.691 632.106 381.56C631.676 381.411 631.275 381.205 630.902 380.944C630.528 380.664 630.22 380.319 629.978 379.908C629.735 379.497 629.614 378.984 629.614 378.368C629.614 377.696 629.744 377.127 630.006 376.66C630.267 376.175 630.612 375.783 631.042 375.484C631.49 375.167 631.994 374.933 632.554 374.784C633.114 374.635 633.692 374.56 634.29 374.56C635.204 374.56 636.091 374.765 636.95 375.176C637.808 375.587 638.452 376.165 638.882 376.912L637.426 378.004Z" fill="#80EDCF"/>
<path d="M717.492 128H715.28L723.848 108.176H725.808L734.32 128H732.08L729.896 122.792H719.648L717.492 128ZM720.404 120.944H729.14L724.772 110.416L720.404 120.944ZM737.125 117.78C737.125 117.425 737.116 116.968 737.097 116.408C737.079 115.848 737.051 115.344 737.013 114.896H738.833C738.871 115.251 738.899 115.643 738.917 116.072C738.936 116.501 738.945 116.856 738.945 117.136H739.001C739.375 116.371 739.935 115.755 740.681 115.288C741.428 114.803 742.268 114.56 743.201 114.56C743.444 114.56 743.659 114.569 743.845 114.588C744.051 114.607 744.256 114.644 744.461 114.7L744.209 116.492C744.097 116.455 743.911 116.417 743.649 116.38C743.388 116.343 743.127 116.324 742.865 116.324C742.361 116.324 741.876 116.417 741.409 116.604C740.943 116.791 740.532 117.089 740.177 117.5C739.841 117.892 739.561 118.405 739.337 119.04C739.132 119.656 739.029 120.403 739.029 121.28V128H737.125V117.78ZM752.795 116.492H749.099V124.136C749.099 124.621 749.146 125.023 749.239 125.34C749.333 125.657 749.463 125.909 749.631 126.096C749.818 126.264 750.033 126.385 750.275 126.46C750.518 126.516 750.779 126.544 751.059 126.544C751.321 126.544 751.591 126.507 751.871 126.432C752.17 126.357 752.45 126.255 752.711 126.124L752.795 127.776C752.459 127.907 752.105 128 751.731 128.056C751.377 128.131 750.985 128.168 750.555 128.168C750.201 128.168 749.827 128.121 749.435 128.028C749.043 127.935 748.679 127.757 748.343 127.496C748.007 127.235 747.727 126.88 747.503 126.432C747.298 125.984 747.195 125.396 747.195 124.668V116.492H744.479V114.896H747.195V111.2H749.099V114.896H752.795V116.492ZM757.706 128H755.802V114.896H757.706V128ZM758.098 109.856C758.098 110.248 757.958 110.575 757.678 110.836C757.398 111.079 757.09 111.2 756.754 111.2C756.418 111.2 756.11 111.079 755.83 110.836C755.55 110.575 755.41 110.248 755.41 109.856C755.41 109.464 755.55 109.147 755.83 108.904C756.11 108.643 756.418 108.512 756.754 108.512C757.09 108.512 757.398 108.643 757.678 108.904C757.958 109.147 758.098 109.464 758.098 109.856ZM769.746 118.004C769.466 117.463 769.037 117.024 768.458 116.688C767.898 116.333 767.254 116.156 766.526 116.156C766.19 116.156 765.854 116.193 765.518 116.268C765.182 116.343 764.883 116.464 764.622 116.632C764.361 116.8 764.146 117.015 763.978 117.276C763.829 117.537 763.754 117.845 763.754 118.2C763.754 118.816 764.006 119.292 764.51 119.628C765.014 119.945 765.807 120.216 766.89 120.44C768.439 120.757 769.578 121.224 770.306 121.84C771.053 122.437 771.426 123.249 771.426 124.276C771.426 125.023 771.277 125.657 770.978 126.18C770.698 126.684 770.325 127.104 769.858 127.44C769.391 127.757 768.859 127.981 768.262 128.112C767.683 128.261 767.095 128.336 766.498 128.336C765.509 128.336 764.547 128.131 763.614 127.72C762.681 127.309 761.915 126.665 761.318 125.788L762.83 124.668C763.166 125.247 763.661 125.732 764.314 126.124C764.967 126.516 765.686 126.712 766.47 126.712C766.881 126.712 767.273 126.675 767.646 126.6C768.019 126.525 768.346 126.395 768.626 126.208C768.906 126.021 769.13 125.788 769.298 125.508C769.466 125.209 769.55 124.845 769.55 124.416C769.55 123.725 769.214 123.212 768.542 122.876C767.889 122.521 766.937 122.195 765.686 121.896C765.294 121.803 764.874 121.691 764.426 121.56C763.997 121.411 763.595 121.205 763.222 120.944C762.849 120.664 762.541 120.319 762.298 119.908C762.055 119.497 761.934 118.984 761.934 118.368C761.934 117.696 762.065 117.127 762.326 116.66C762.587 116.175 762.933 115.783 763.362 115.484C763.81 115.167 764.314 114.933 764.874 114.784C765.434 114.635 766.013 114.56 766.61 114.56C767.525 114.56 768.411 114.765 769.27 115.176C770.129 115.587 770.773 116.165 771.202 116.912L769.746 118.004ZM781.123 116.492H777.427V124.136C777.427 124.621 777.474 125.023 777.567 125.34C777.661 125.657 777.791 125.909 777.959 126.096C778.146 126.264 778.361 126.385 778.603 126.46C778.846 126.516 779.107 126.544 779.387 126.544C779.649 126.544 779.919 126.507 780.199 126.432C780.498 126.357 780.778 126.255 781.039 126.124L781.123 127.776C780.787 127.907 780.433 128 780.059 128.056C779.705 128.131 779.313 128.168 778.883 128.168C778.529 128.168 778.155 128.121 777.763 128.028C777.371 127.935 777.007 127.757 776.671 127.496C776.335 127.235 776.055 126.88 775.831 126.432C775.626 125.984 775.523 125.396 775.523 124.668V116.492H772.807V114.896H775.523V111.2H777.427V114.896H781.123V116.492ZM791.074 118.004C790.794 117.463 790.365 117.024 789.786 116.688C789.226 116.333 788.582 116.156 787.854 116.156C787.518 116.156 787.182 116.193 786.846 116.268C786.51 116.343 786.211 116.464 785.95 116.632C785.689 116.8 785.474 117.015 785.306 117.276C785.157 117.537 785.082 117.845 785.082 118.2C785.082 118.816 785.334 119.292 785.838 119.628C786.342 119.945 787.135 120.216 788.218 120.44C789.767 120.757 790.906 121.224 791.634 121.84C792.381 122.437 792.754 123.249 792.754 124.276C792.754 125.023 792.605 125.657 792.306 126.18C792.026 126.684 791.653 127.104 791.186 127.44C790.719 127.757 790.187 127.981 789.59 128.112C789.011 128.261 788.423 128.336 787.826 128.336C786.837 128.336 785.875 128.131 784.942 127.72C784.009 127.309 783.243 126.665 782.646 125.788L784.158 124.668C784.494 125.247 784.989 125.732 785.642 126.124C786.295 126.516 787.014 126.712 787.798 126.712C788.209 126.712 788.601 126.675 788.974 126.6C789.347 126.525 789.674 126.395 789.954 126.208C790.234 126.021 790.458 125.788 790.626 125.508C790.794 125.209 790.878 124.845 790.878 124.416C790.878 123.725 790.542 123.212 789.87 122.876C789.217 122.521 788.265 122.195 787.014 121.896C786.622 121.803 786.202 121.691 785.754 121.56C785.325 121.411 784.923 121.205 784.55 120.944C784.177 120.664 783.869 120.319 783.626 119.908C783.383 119.497 783.262 118.984 783.262 118.368C783.262 117.696 783.393 117.127 783.654 116.66C783.915 116.175 784.261 115.783 784.69 115.484C785.138 115.167 785.642 114.933 786.202 114.784C786.762 114.635 787.341 114.56 787.938 114.56C788.853 114.56 789.739 114.765 790.598 115.176C791.457 115.587 792.101 116.165 792.53 116.912L791.074 118.004Z" fill="#80EDCF"/>
<path d="M308.648 130H306.632V110.176H308.648V130ZM315.501 116.896C315.539 117.251 315.567 117.643 315.585 118.072C315.604 118.501 315.613 118.856 315.613 119.136H315.669C316.043 118.371 316.649 117.755 317.489 117.288C318.329 116.803 319.216 116.56 320.149 116.56C321.811 116.56 323.052 117.055 323.873 118.044C324.713 119.033 325.133 120.34 325.133 121.964V130H323.229V122.748C323.229 122.057 323.173 121.432 323.061 120.872C322.949 120.312 322.753 119.836 322.473 119.444C322.212 119.033 321.848 118.716 321.381 118.492C320.933 118.268 320.364 118.156 319.673 118.156C319.169 118.156 318.675 118.259 318.189 118.464C317.723 118.669 317.303 118.987 316.929 119.416C316.556 119.827 316.257 120.359 316.033 121.012C315.809 121.647 315.697 122.403 315.697 123.28V130H313.793V119.78C313.793 119.425 313.784 118.968 313.765 118.408C313.747 117.848 313.719 117.344 313.681 116.896H315.501ZM340.199 130H338.295V108.832H340.199V130ZM335.607 118.492H332.527V130H330.623V118.492H327.879V116.896H330.623V113.312C330.623 111.819 330.987 110.643 331.715 109.784C332.443 108.925 333.563 108.496 335.075 108.496C335.318 108.496 335.579 108.515 335.859 108.552C336.139 108.571 336.4 108.617 336.643 108.692L336.307 110.372C336.102 110.316 335.896 110.269 335.691 110.232C335.486 110.195 335.252 110.176 334.991 110.176C334.487 110.176 334.067 110.26 333.731 110.428C333.414 110.596 333.162 110.839 332.975 111.156C332.807 111.455 332.686 111.809 332.611 112.22C332.555 112.631 332.527 113.069 332.527 113.536V116.896H335.607V118.492ZM354.813 130C354.776 129.645 354.748 129.253 354.729 128.824C354.711 128.395 354.701 128.04 354.701 127.76H354.645C354.272 128.525 353.665 129.151 352.825 129.636C351.985 130.103 351.099 130.336 350.165 130.336C348.504 130.336 347.253 129.841 346.413 128.852C345.592 127.863 345.181 126.556 345.181 124.932V116.896H347.085V124.148C347.085 124.839 347.141 125.464 347.253 126.024C347.365 126.584 347.552 127.069 347.813 127.48C348.093 127.872 348.457 128.18 348.905 128.404C349.372 128.628 349.951 128.74 350.641 128.74C351.145 128.74 351.631 128.637 352.097 128.432C352.583 128.227 353.012 127.919 353.385 127.508C353.759 127.079 354.057 126.547 354.281 125.912C354.505 125.259 354.617 124.493 354.617 123.616V116.896H356.521V127.116C356.521 127.471 356.531 127.928 356.549 128.488C356.568 129.048 356.596 129.552 356.633 130H354.813ZM371.559 122.44C371.503 121.208 371.102 120.191 370.355 119.388C369.627 118.567 368.582 118.156 367.219 118.156C366.584 118.156 365.996 118.277 365.455 118.52C364.914 118.744 364.438 119.061 364.027 119.472C363.616 119.864 363.29 120.321 363.047 120.844C362.804 121.348 362.664 121.88 362.627 122.44H371.559ZM373.491 123.056C373.491 123.187 373.491 123.327 373.491 123.476C373.491 123.625 373.482 123.784 373.463 123.952H362.599C362.618 124.605 362.748 125.221 362.991 125.8C363.234 126.379 363.57 126.883 363.999 127.312C364.428 127.741 364.932 128.087 365.511 128.348C366.09 128.591 366.715 128.712 367.387 128.712C368.376 128.712 369.226 128.488 369.935 128.04C370.663 127.573 371.214 127.041 371.587 126.444L373.015 127.564C372.231 128.553 371.363 129.263 370.411 129.692C369.478 130.121 368.47 130.336 367.387 130.336C366.416 130.336 365.511 130.168 364.671 129.832C363.85 129.477 363.14 128.992 362.543 128.376C361.946 127.76 361.47 127.032 361.115 126.192C360.779 125.352 360.611 124.437 360.611 123.448C360.611 122.459 360.779 121.544 361.115 120.704C361.451 119.864 361.918 119.136 362.515 118.52C363.112 117.904 363.812 117.428 364.615 117.092C365.418 116.737 366.286 116.56 367.219 116.56C368.246 116.56 369.151 116.737 369.935 117.092C370.719 117.428 371.372 117.895 371.895 118.492C372.418 119.071 372.81 119.752 373.071 120.536C373.351 121.32 373.491 122.16 373.491 123.056ZM379.294 116.896C379.332 117.251 379.36 117.643 379.378 118.072C379.397 118.501 379.406 118.856 379.406 119.136H379.462C379.836 118.371 380.442 117.755 381.282 117.288C382.122 116.803 383.009 116.56 383.942 116.56C385.604 116.56 386.845 117.055 387.666 118.044C388.506 119.033 388.926 120.34 388.926 121.964V130H387.022V122.748C387.022 122.057 386.966 121.432 386.854 120.872C386.742 120.312 386.546 119.836 386.266 119.444C386.005 119.033 385.641 118.716 385.174 118.492C384.726 118.268 384.157 118.156 383.466 118.156C382.962 118.156 382.468 118.259 381.982 118.464C381.516 118.669 381.096 118.987 380.722 119.416C380.349 119.827 380.05 120.359 379.826 121.012C379.602 121.647 379.49 122.403 379.49 123.28V130H377.586V119.78C377.586 119.425 377.577 118.968 377.558 118.408C377.54 117.848 377.512 117.344 377.474 116.896H379.294ZM403.292 119.892C402.975 119.388 402.508 118.977 401.892 118.66C401.295 118.324 400.641 118.156 399.932 118.156C399.167 118.156 398.476 118.296 397.86 118.576C397.244 118.837 396.712 119.211 396.264 119.696C395.835 120.163 395.499 120.723 395.256 121.376C395.032 122.011 394.92 122.701 394.92 123.448C394.92 124.195 395.032 124.885 395.256 125.52C395.499 126.155 395.835 126.715 396.264 127.2C396.693 127.667 397.216 128.04 397.832 128.32C398.448 128.581 399.139 128.712 399.904 128.712C400.744 128.712 401.453 128.553 402.032 128.236C402.611 127.919 403.087 127.508 403.46 127.004L404.888 128.068C404.328 128.759 403.637 129.309 402.816 129.72C402.013 130.131 401.043 130.336 399.904 130.336C398.84 130.336 397.879 130.168 397.02 129.832C396.161 129.477 395.424 128.992 394.808 128.376C394.211 127.76 393.744 127.032 393.408 126.192C393.072 125.352 392.904 124.437 392.904 123.448C392.904 122.459 393.072 121.544 393.408 120.704C393.744 119.864 394.211 119.136 394.808 118.52C395.424 117.904 396.161 117.428 397.02 117.092C397.879 116.737 398.84 116.56 399.904 116.56C400.781 116.56 401.668 116.756 402.564 117.148C403.479 117.521 404.216 118.081 404.776 118.828L403.292 119.892ZM417.852 122.44C417.796 121.208 417.395 120.191 416.648 119.388C415.92 118.567 414.875 118.156 413.512 118.156C412.877 118.156 412.289 118.277 411.748 118.52C411.207 118.744 410.731 119.061 410.32 119.472C409.909 119.864 409.583 120.321 409.34 120.844C409.097 121.348 408.957 121.88 408.92 122.44H417.852ZM419.784 123.056C419.784 123.187 419.784 123.327 419.784 123.476C419.784 123.625 419.775 123.784 419.756 123.952H408.892C408.911 124.605 409.041 125.221 409.284 125.8C409.527 126.379 409.863 126.883 410.292 127.312C410.721 127.741 411.225 128.087 411.804 128.348C412.383 128.591 413.008 128.712 413.68 128.712C414.669 128.712 415.519 128.488 416.228 128.04C416.956 127.573 417.507 127.041 417.88 126.444L419.308 127.564C418.524 128.553 417.656 129.263 416.704 129.692C415.771 130.121 414.763 130.336 413.68 130.336C412.709 130.336 411.804 130.168 410.964 129.832C410.143 129.477 409.433 128.992 408.836 128.376C408.239 127.76 407.763 127.032 407.408 126.192C407.072 125.352 406.904 124.437 406.904 123.448C406.904 122.459 407.072 121.544 407.408 120.704C407.744 119.864 408.211 119.136 408.808 118.52C409.405 117.904 410.105 117.428 410.908 117.092C411.711 116.737 412.579 116.56 413.512 116.56C414.539 116.56 415.444 116.737 416.228 117.092C417.012 117.428 417.665 117.895 418.188 118.492C418.711 119.071 419.103 119.752 419.364 120.536C419.644 121.32 419.784 122.16 419.784 123.056ZM423.879 119.78C423.879 119.425 423.87 118.968 423.851 118.408C423.833 117.848 423.805 117.344 423.767 116.896H425.587C425.625 117.251 425.653 117.643 425.671 118.072C425.69 118.501 425.699 118.856 425.699 119.136H425.755C426.129 118.371 426.689 117.755 427.435 117.288C428.182 116.803 429.022 116.56 429.955 116.56C430.198 116.56 430.413 116.569 430.599 116.588C430.805 116.607 431.01 116.644 431.215 116.7L430.963 118.492C430.851 118.455 430.665 118.417 430.403 118.38C430.142 118.343 429.881 118.324 429.619 118.324C429.115 118.324 428.63 118.417 428.163 118.604C427.697 118.791 427.286 119.089 426.931 119.5C426.595 119.892 426.315 120.405 426.091 121.04C425.886 121.656 425.783 122.403 425.783 123.28V130H423.879V119.78ZM440.941 120.004C440.661 119.463 440.232 119.024 439.653 118.688C439.093 118.333 438.449 118.156 437.721 118.156C437.385 118.156 437.049 118.193 436.713 118.268C436.377 118.343 436.079 118.464 435.817 118.632C435.556 118.8 435.341 119.015 435.173 119.276C435.024 119.537 434.949 119.845 434.949 120.2C434.949 120.816 435.201 121.292 435.705 121.628C436.209 121.945 437.003 122.216 438.085 122.44C439.635 122.757 440.773 123.224 441.501 123.84C442.248 124.437 442.621 125.249 442.621 126.276C442.621 127.023 442.472 127.657 442.173 128.18C441.893 128.684 441.52 129.104 441.053 129.44C440.587 129.757 440.055 129.981 439.457 130.112C438.879 130.261 438.291 130.336 437.693 130.336C436.704 130.336 435.743 130.131 434.809 129.72C433.876 129.309 433.111 128.665 432.513 127.788L434.025 126.668C434.361 127.247 434.856 127.732 435.509 128.124C436.163 128.516 436.881 128.712 437.665 128.712C438.076 128.712 438.468 128.675 438.841 128.6C439.215 128.525 439.541 128.395 439.821 128.208C440.101 128.021 440.325 127.788 440.493 127.508C440.661 127.209 440.745 126.845 440.745 126.416C440.745 125.725 440.409 125.212 439.737 124.876C439.084 124.521 438.132 124.195 436.881 123.896C436.489 123.803 436.069 123.691 435.621 123.56C435.192 123.411 434.791 123.205 434.417 122.944C434.044 122.664 433.736 122.319 433.493 121.908C433.251 121.497 433.129 120.984 433.129 120.368C433.129 119.696 433.26 119.127 433.521 118.66C433.783 118.175 434.128 117.783 434.557 117.484C435.005 117.167 435.509 116.933 436.069 116.784C436.629 116.635 437.208 116.56 437.805 116.56C438.72 116.56 439.607 116.765 440.465 117.176C441.324 117.587 441.968 118.165 442.397 118.912L440.941 120.004Z" fill="#80EDCF"/>
<defs>
<filter id="filter0_f_10721_20511" x="-8.76172" y="-36.043" width="573.402" height="576.819" filterUnits="userSpaceOnUse" color-interpolation-filters="sRGB">
<feFlood flood-opacity="0" result="BackgroundImageFix"/>
<feBlend mode="normal" in="SourceGraphic" in2="BackgroundImageFix" result="shape"/>
<feGaussianBlur stdDeviation="75" result="effect1_foregroundBlur_10721_20511"/>
</filter>
<filter id="filter1_f_10721_20511" x="379.598" y="-47.5723" width="573.402" height="576.819" filterUnits="userSpaceOnUse" color-interpolation-filters="sRGB">
<feFlood flood-opacity="0" result="BackgroundImageFix"/>
<feBlend mode="normal" in="SourceGraphic" in2="BackgroundImageFix" result="shape"/>
<feGaussianBlur stdDeviation="75" result="effect1_foregroundBlur_10721_20511"/>
</filter>
<filter id="filter2_f_10721_20511" x="173.891" y="-50" width="597.43" height="594.047" filterUnits="userSpaceOnUse" color-interpolation-filters="sRGB">
<feFlood flood-opacity="0" result="BackgroundImageFix"/>
<feBlend mode="normal" in="SourceGraphic" in2="BackgroundImageFix" result="shape"/>
<feGaussianBlur stdDeviation="75" result="effect1_foregroundBlur_10721_20511"/>
</filter>
</defs>
</svg>