<svg width="623" height="441" viewBox="0 0 623 441" fill="none" xmlns="http://www.w3.org/2000/svg">
<g filter="url(#filter0_f_10534_28981)">
<path d="M169.47 277.138C164.553 275.851 161.614 270.834 162.905 265.932C164.197 261.03 169.229 258.099 174.146 259.387C177.808 260.345 181.929 261.883 185.348 260.252L296.889 207.029C300.277 205.412 301.363 200.999 302.319 197.371C303.61 192.469 308.643 189.539 313.56 190.826C318.477 192.114 321.416 197.131 320.125 202.033C318.834 206.935 313.801 209.865 308.884 208.578C305.118 207.592 300.864 205.943 297.348 207.62L186.237 260.637C182.764 262.295 181.691 266.874 180.711 270.593C179.42 275.495 174.387 278.426 169.47 277.138Z" fill="#2BCFA1"/>
<path d="M134.309 315.5C129.168 315.5 125 311.389 125 306.319C125 301.248 129.168 297.137 134.309 297.137C138.031 297.137 142.421 297.27 144.987 294.574L159.807 279.003C162.479 276.196 162.069 271.604 162.069 267.729C162.069 262.658 166.236 258.548 171.378 258.548C176.519 258.548 180.686 262.658 180.686 267.729C180.686 272.8 176.519 276.911 171.378 276.911C167.553 276.911 163.003 276.718 160.366 279.489L145.877 294.713C143.136 297.593 143.618 302.342 143.618 306.319C143.618 311.389 139.45 315.5 134.309 315.5Z" fill="#2BCFA1"/>
<path d="M349.121 246.104C344.118 246.104 340.062 241.943 340.062 236.809C340.062 231.675 344.118 227.514 349.121 227.514C352.752 227.514 357.05 227.721 359.569 225.107L375.244 208.841C377.958 206.024 377.631 201.402 377.631 197.49C377.631 192.357 381.687 188.195 386.69 188.195C391.693 188.195 395.749 192.357 395.749 197.49C395.749 202.624 391.693 206.786 386.69 206.786C382.958 206.786 378.504 206.516 375.914 209.203L360.57 225.126C357.785 228.016 358.18 232.796 358.18 236.809C358.18 241.943 354.124 246.104 349.121 246.104Z" fill="#2BCFA1"/>
<path d="M488.862 274.905C493.908 274.379 497.565 269.818 497.03 264.716C496.495 259.615 491.971 255.905 486.925 256.431C483.145 256.825 478.844 257.806 475.652 255.74L400.121 206.837C396.957 204.788 396.464 200.239 396.071 196.491C395.536 191.389 391.012 187.68 385.966 188.206C380.921 188.732 377.264 193.293 377.799 198.395C378.333 203.496 382.857 207.206 387.903 206.68C391.793 206.275 396.241 205.199 399.524 207.325L474.654 255.966C477.896 258.066 478.355 262.779 478.757 266.62C479.292 271.722 483.816 275.431 488.862 274.905Z" fill="#2BCFA1"/>
<path d="M348.607 246.105C353.698 246.105 357.824 241.986 357.824 236.906C357.824 231.825 353.698 227.707 348.607 227.707C344.904 227.707 340.544 227.904 337.945 225.265L322.942 210.033C320.232 207.281 320.572 202.692 320.572 198.83C320.572 193.75 316.445 189.631 311.355 189.631C306.264 189.631 302.138 193.75 302.138 198.83C302.138 203.91 306.264 208.029 311.355 208.029C315.161 208.029 319.679 207.769 322.35 210.481L337.018 225.374C339.798 228.197 339.39 232.943 339.39 236.906C339.39 241.986 343.517 246.105 348.607 246.105Z" fill="#2BCFA1"/>
<path d="M312.161 208.296C317.232 208.296 321.344 204.172 321.344 199.085C321.344 193.998 317.232 189.874 312.161 189.874C308.433 189.874 304.075 190.182 301.36 187.628L256.826 145.736C254.04 143.115 254.26 138.536 254.26 134.711C254.26 129.624 250.148 125.5 245.077 125.5C240.005 125.5 235.894 129.624 235.894 134.711C235.894 139.798 240.005 143.922 245.077 143.922C248.91 143.922 253.425 143.546 256.217 146.172L300.403 187.737C303.26 190.425 302.978 195.162 302.978 199.085C302.978 204.172 307.089 208.296 312.161 208.296Z" fill="#2BCFA1"/>
<path d="M178.288 201.967C178.288 207.048 182.366 211.168 187.397 211.168C192.428 211.168 196.507 207.048 196.507 201.967C196.507 198.168 196.029 193.793 198.432 190.851L234.474 146.735C236.817 143.866 241.323 143.902 245.027 143.902C250.058 143.902 254.137 139.783 254.137 134.701C254.137 129.62 250.058 125.5 245.027 125.5C239.996 125.5 235.918 129.62 235.918 134.701C235.918 138.609 236.471 143.139 233.999 146.166L198.259 189.915C195.857 192.855 191.194 192.766 187.397 192.766C182.366 192.766 178.288 196.885 178.288 201.967Z" fill="#2BCFA1"/>
</g>
<g filter="url(#filter1_f_10534_28981)">
<path d="M169.47 277.138C164.553 275.851 161.614 270.834 162.905 265.932C164.197 261.03 169.229 258.099 174.146 259.387C177.808 260.345 181.929 261.883 185.348 260.252L296.889 207.029C300.277 205.412 301.363 200.999 302.319 197.371C303.61 192.469 308.643 189.539 313.56 190.826C318.477 192.114 321.416 197.131 320.125 202.033C318.834 206.935 313.801 209.865 308.884 208.578C305.118 207.592 300.864 205.943 297.348 207.62L186.237 260.637C182.764 262.295 181.691 266.874 180.711 270.593C179.42 275.495 174.387 278.426 169.47 277.138Z" fill="#2BCFA1"/>
<path d="M134.309 315.5C129.168 315.5 125 311.389 125 306.319C125 301.248 129.168 297.137 134.309 297.137C138.031 297.137 142.421 297.27 144.987 294.574L159.807 279.003C162.479 276.196 162.069 271.604 162.069 267.729C162.069 262.658 166.236 258.548 171.378 258.548C176.519 258.548 180.686 262.658 180.686 267.729C180.686 272.8 176.519 276.911 171.378 276.911C167.553 276.911 163.003 276.718 160.366 279.489L145.877 294.713C143.136 297.593 143.618 302.342 143.618 306.319C143.618 311.389 139.45 315.5 134.309 315.5Z" fill="#2BCFA1"/>
<path d="M349.121 246.104C344.118 246.104 340.062 241.943 340.062 236.809C340.062 231.675 344.118 227.514 349.121 227.514C352.752 227.514 357.05 227.721 359.569 225.107L375.244 208.841C377.958 206.024 377.631 201.402 377.631 197.49C377.631 192.357 381.687 188.195 386.69 188.195C391.693 188.195 395.749 192.357 395.749 197.49C395.749 202.624 391.693 206.786 386.69 206.786C382.958 206.786 378.504 206.516 375.914 209.203L360.57 225.126C357.785 228.016 358.18 232.796 358.18 236.809C358.18 241.943 354.124 246.104 349.121 246.104Z" fill="#2BCFA1"/>
<path d="M488.862 274.905C493.908 274.379 497.565 269.818 497.03 264.716C496.495 259.615 491.971 255.905 486.925 256.431C483.145 256.825 478.844 257.806 475.652 255.74L400.121 206.837C396.957 204.788 396.464 200.239 396.071 196.491C395.536 191.389 391.012 187.68 385.966 188.206C380.921 188.732 377.264 193.293 377.799 198.395C378.333 203.496 382.857 207.206 387.903 206.68C391.793 206.275 396.241 205.199 399.524 207.325L474.654 255.966C477.896 258.066 478.355 262.779 478.757 266.62C479.292 271.722 483.816 275.431 488.862 274.905Z" fill="#2BCFA1"/>
<path d="M348.607 246.105C353.698 246.105 357.824 241.986 357.824 236.906C357.824 231.825 353.698 227.707 348.607 227.707C344.904 227.707 340.544 227.904 337.945 225.265L322.942 210.033C320.232 207.281 320.572 202.692 320.572 198.83C320.572 193.75 316.445 189.631 311.355 189.631C306.264 189.631 302.138 193.75 302.138 198.83C302.138 203.91 306.264 208.029 311.355 208.029C315.161 208.029 319.679 207.769 322.35 210.481L337.018 225.374C339.798 228.197 339.39 232.943 339.39 236.906C339.39 241.986 343.517 246.105 348.607 246.105Z" fill="#2BCFA1"/>
<path d="M312.161 208.296C317.232 208.296 321.344 204.172 321.344 199.085C321.344 193.998 317.232 189.874 312.161 189.874C308.433 189.874 304.075 190.182 301.36 187.628L256.826 145.736C254.04 143.115 254.26 138.536 254.26 134.711C254.26 129.624 250.148 125.5 245.077 125.5C240.005 125.5 235.894 129.624 235.894 134.711C235.894 139.798 240.005 143.922 245.077 143.922C248.91 143.922 253.425 143.546 256.217 146.172L300.403 187.737C303.26 190.425 302.978 195.162 302.978 199.085C302.978 204.172 307.089 208.296 312.161 208.296Z" fill="#2BCFA1"/>
<path d="M178.288 201.967C178.288 207.048 182.366 211.168 187.397 211.168C192.428 211.168 196.507 207.048 196.507 201.967C196.507 198.168 196.029 193.793 198.432 190.851L234.474 146.735C236.817 143.866 241.323 143.902 245.027 143.902C250.058 143.902 254.137 139.783 254.137 134.701C254.137 129.62 250.058 125.5 245.027 125.5C239.996 125.5 235.918 129.62 235.918 134.701C235.918 138.609 236.471 143.139 233.999 146.166L198.259 189.915C195.857 192.855 191.194 192.766 187.397 192.766C182.366 192.766 178.288 196.885 178.288 201.967Z" fill="#2BCFA1"/>
</g>
<g filter="url(#filter2_f_10534_28981)">
<path d="M169.47 277.138C164.553 275.851 161.614 270.834 162.905 265.932C164.197 261.03 169.229 258.099 174.146 259.387C177.808 260.345 181.929 261.883 185.348 260.252L296.889 207.029C300.277 205.412 301.363 200.999 302.319 197.371C303.61 192.469 308.643 189.539 313.56 190.826C318.477 192.114 321.416 197.131 320.125 202.033C318.834 206.935 313.801 209.865 308.884 208.578C305.118 207.592 300.864 205.943 297.348 207.62L186.237 260.637C182.764 262.295 181.691 266.874 180.711 270.593C179.42 275.495 174.387 278.426 169.47 277.138Z" fill="#2BCFA1"/>
<path d="M134.309 315.5C129.168 315.5 125 311.389 125 306.319C125 301.248 129.168 297.137 134.309 297.137C138.031 297.137 142.421 297.27 144.987 294.574L159.807 279.003C162.479 276.196 162.069 271.604 162.069 267.729C162.069 262.658 166.236 258.548 171.378 258.548C176.519 258.548 180.686 262.658 180.686 267.729C180.686 272.8 176.519 276.911 171.378 276.911C167.553 276.911 163.003 276.718 160.366 279.489L145.877 294.713C143.136 297.593 143.618 302.342 143.618 306.319C143.618 311.389 139.45 315.5 134.309 315.5Z" fill="#2BCFA1"/>
<path d="M349.121 246.104C344.118 246.104 340.062 241.943 340.062 236.809C340.062 231.675 344.118 227.514 349.121 227.514C352.752 227.514 357.05 227.721 359.569 225.107L375.244 208.841C377.958 206.024 377.631 201.402 377.631 197.49C377.631 192.357 381.687 188.195 386.69 188.195C391.693 188.195 395.749 192.357 395.749 197.49C395.749 202.624 391.693 206.786 386.69 206.786C382.958 206.786 378.504 206.516 375.914 209.203L360.57 225.126C357.785 228.016 358.18 232.796 358.18 236.809C358.18 241.943 354.124 246.104 349.121 246.104Z" fill="#2BCFA1"/>
<path d="M488.862 274.905C493.908 274.379 497.565 269.818 497.03 264.716C496.495 259.615 491.971 255.905 486.925 256.431C483.145 256.825 478.844 257.806 475.652 255.74L400.121 206.837C396.957 204.788 396.464 200.239 396.071 196.491C395.536 191.389 391.012 187.68 385.966 188.206C380.921 188.732 377.264 193.293 377.799 198.395C378.333 203.496 382.857 207.206 387.903 206.68C391.793 206.275 396.241 205.199 399.524 207.325L474.654 255.966C477.896 258.066 478.355 262.779 478.757 266.62C479.292 271.722 483.816 275.431 488.862 274.905Z" fill="#2BCFA1"/>
<path d="M348.607 246.105C353.698 246.105 357.824 241.986 357.824 236.906C357.824 231.825 353.698 227.707 348.607 227.707C344.904 227.707 340.544 227.904 337.945 225.265L322.942 210.033C320.232 207.281 320.572 202.692 320.572 198.83C320.572 193.75 316.445 189.631 311.355 189.631C306.264 189.631 302.138 193.75 302.138 198.83C302.138 203.91 306.264 208.029 311.355 208.029C315.161 208.029 319.679 207.769 322.35 210.481L337.018 225.374C339.798 228.197 339.39 232.943 339.39 236.906C339.39 241.986 343.517 246.105 348.607 246.105Z" fill="#2BCFA1"/>
<path d="M312.161 208.296C317.232 208.296 321.344 204.172 321.344 199.085C321.344 193.998 317.232 189.874 312.161 189.874C308.433 189.874 304.075 190.182 301.36 187.628L256.826 145.736C254.04 143.115 254.26 138.536 254.26 134.711C254.26 129.624 250.148 125.5 245.077 125.5C240.005 125.5 235.894 129.624 235.894 134.711C235.894 139.798 240.005 143.922 245.077 143.922C248.91 143.922 253.425 143.546 256.217 146.172L300.403 187.737C303.26 190.425 302.978 195.162 302.978 199.085C302.978 204.172 307.089 208.296 312.161 208.296Z" fill="#2BCFA1"/>
<path d="M178.288 201.967C178.288 207.048 182.366 211.168 187.397 211.168C192.428 211.168 196.507 207.048 196.507 201.967C196.507 198.168 196.029 193.793 198.432 190.851L234.474 146.735C236.817 143.866 241.323 143.902 245.027 143.902C250.058 143.902 254.137 139.783 254.137 134.701C254.137 129.62 250.058 125.5 245.027 125.5C239.996 125.5 235.918 129.62 235.918 134.701C235.918 138.609 236.471 143.139 233.999 146.166L198.259 189.915C195.857 192.855 191.194 192.766 187.397 192.766C182.366 192.766 178.288 196.885 178.288 201.967Z" fill="#2BCFA1"/>
</g>
<path d="M169.47 277.138C164.553 275.851 161.614 270.834 162.905 265.932C164.197 261.03 169.229 258.099 174.146 259.387C177.808 260.345 181.929 261.883 185.348 260.252L296.889 207.029C300.277 205.412 301.363 200.999 302.319 197.371C303.61 192.469 308.643 189.539 313.56 190.826C318.477 192.114 321.416 197.131 320.125 202.033C318.834 206.935 313.801 209.865 308.884 208.578C305.118 207.592 300.864 205.943 297.348 207.62L186.237 260.637C182.764 262.295 181.691 266.874 180.711 270.593C179.42 275.495 174.387 278.426 169.47 277.138Z" fill="#2BCFA1"/>
<path d="M134.309 315.5C129.168 315.5 125 311.389 125 306.319C125 301.248 129.168 297.137 134.309 297.137C138.031 297.137 142.421 297.27 144.987 294.574L159.807 279.003C162.479 276.196 162.069 271.604 162.069 267.729C162.069 262.658 166.236 258.548 171.378 258.548C176.519 258.548 180.686 262.658 180.686 267.729C180.686 272.8 176.519 276.911 171.378 276.911C167.553 276.911 163.003 276.718 160.366 279.489L145.877 294.713C143.136 297.593 143.618 302.342 143.618 306.319C143.618 311.389 139.45 315.5 134.309 315.5Z" fill="#2BCFA1"/>
<path d="M349.121 246.104C344.118 246.104 340.062 241.943 340.062 236.809C340.062 231.675 344.118 227.514 349.121 227.514C352.752 227.514 357.05 227.721 359.569 225.107L375.244 208.841C377.958 206.024 377.631 201.402 377.631 197.49C377.631 192.357 381.687 188.195 386.69 188.195C391.693 188.195 395.749 192.357 395.749 197.49C395.749 202.624 391.693 206.786 386.69 206.786C382.958 206.786 378.504 206.516 375.914 209.203L360.57 225.126C357.785 228.016 358.18 232.796 358.18 236.809C358.18 241.943 354.124 246.104 349.121 246.104Z" fill="#2BCFA1"/>
<path d="M488.862 274.905C493.908 274.379 497.565 269.818 497.03 264.716C496.495 259.615 491.971 255.905 486.925 256.431C483.145 256.825 478.844 257.806 475.652 255.74L400.121 206.837C396.957 204.788 396.464 200.239 396.071 196.491C395.536 191.389 391.012 187.68 385.966 188.206C380.921 188.732 377.264 193.293 377.799 198.395C378.333 203.496 382.857 207.206 387.903 206.68C391.793 206.275 396.241 205.199 399.524 207.325L474.654 255.966C477.896 258.066 478.355 262.779 478.757 266.62C479.292 271.722 483.816 275.431 488.862 274.905Z" fill="#2BCFA1"/>
<path d="M348.607 246.105C353.698 246.105 357.824 241.986 357.824 236.906C357.824 231.825 353.698 227.707 348.607 227.707C344.904 227.707 340.544 227.904 337.945 225.265L322.942 210.033C320.232 207.281 320.572 202.692 320.572 198.83C320.572 193.75 316.445 189.631 311.355 189.631C306.264 189.631 302.138 193.75 302.138 198.83C302.138 203.91 306.264 208.029 311.355 208.029C315.161 208.029 319.679 207.769 322.35 210.481L337.018 225.374C339.798 228.197 339.39 232.943 339.39 236.906C339.39 241.986 343.517 246.105 348.607 246.105Z" fill="#2BCFA1"/>
<path d="M312.161 208.296C317.232 208.296 321.344 204.172 321.344 199.085C321.344 193.998 317.232 189.874 312.161 189.874C308.433 189.874 304.075 190.182 301.36 187.628L256.826 145.736C254.04 143.115 254.26 138.536 254.26 134.711C254.26 129.624 250.148 125.5 245.077 125.5C240.005 125.5 235.894 129.624 235.894 134.711C235.894 139.798 240.005 143.922 245.077 143.922C248.91 143.922 253.425 143.546 256.217 146.172L300.403 187.737C303.26 190.425 302.978 195.162 302.978 199.085C302.978 204.172 307.089 208.296 312.161 208.296Z" fill="#2BCFA1"/>
<path d="M178.288 201.967C178.288 207.048 182.366 211.168 187.397 211.168C192.428 211.168 196.507 207.048 196.507 201.967C196.507 198.168 196.029 193.793 198.432 190.851L234.474 146.735C236.817 143.866 241.323 143.902 245.027 143.902C250.058 143.902 254.137 139.783 254.137 134.701C254.137 129.62 250.058 125.5 245.027 125.5C239.996 125.5 235.918 129.62 235.918 134.701C235.918 138.609 236.471 143.139 233.999 146.166L198.259 189.915C195.857 192.855 191.194 192.766 187.397 192.766C182.366 192.766 178.288 196.885 178.288 201.967Z" fill="#2BCFA1"/>
<defs>
<filter id="filter0_f_10534_28981" x="0" y="0.5" width="622.082" height="440" filterUnits="userSpaceOnUse" color-interpolation-filters="sRGB">
<feFlood flood-opacity="0" result="BackgroundImageFix"/>
<feBlend mode="normal" in="SourceGraphic" in2="BackgroundImageFix" result="shape"/>
<feGaussianBlur stdDeviation="62.5" result="effect1_foregroundBlur_10534_28981"/>
</filter>
<filter id="filter1_f_10534_28981" x="41" y="41.5" width="540.082" height="358" filterUnits="userSpaceOnUse" color-interpolation-filters="sRGB">
<feFlood flood-opacity="0" result="BackgroundImageFix"/>
<feBlend mode="normal" in="SourceGraphic" in2="BackgroundImageFix" result="shape"/>
<feGaussianBlur stdDeviation="42" result="effect1_foregroundBlur_10534_28981"/>
</filter>
<filter id="filter2_f_10534_28981" x="90" y="90.5" width="442.082" height="260" filterUnits="userSpaceOnUse" color-interpolation-filters="sRGB">
<feFlood flood-opacity="0" result="BackgroundImageFix"/>
<feBlend mode="normal" in="SourceGraphic" in2="BackgroundImageFix" result="shape"/>
<feGaussianBlur stdDeviation="17.5" result="effect1_foregroundBlur_10534_28981"/>
</filter>
</defs>
</svg>
