<svg width="118" height="100" viewBox="0 0 118 100" fill="none" xmlns="http://www.w3.org/2000/svg">
<path d="M9.54482 56.9468L4.78623 49.3787H4.73614L4.80292 56.9468H2.03125V45.374H5.28713L10.029 52.9258H10.0791L10.0123 45.374H12.784V56.9468H9.54482Z" stroke="#696969"/>
<path d="M18.0442 47.7605V50.147H22.6191V52.4517H18.0442V56.9468H15.2224V45.374H23.0031V47.7605H18.0442Z" stroke="#696969"/>
<path d="M29.9018 47.7605V56.9468H27.0466V47.7605H23.7072V45.374H33.2411V47.7605H29.9018Z" stroke="#696969"/>
<path fill-rule="evenodd" clip-rule="evenodd" d="M20.6535 63.6367C19.2612 62.5239 17.0547 63.469 17.0547 65.2514V86.8676C17.0547 87.2776 17.1762 87.6774 17.4258 88.0026C19.8242 91.1272 26.0632 96.9149 34.7902 98.5952C43.1181 100.199 52.7956 99.9921 57.7507 98.9564C58.6081 98.7772 59.1766 97.9982 59.1766 97.1223V75.1984C59.1766 73.7112 57.56 72.6348 56.114 72.9825C51.7748 74.026 44.2034 74.6581 36.1204 71.9606C29.0515 69.6015 23.9392 66.263 20.6535 63.6367ZM34.5429 79.6655C33.2451 78.5556 31.2431 79.4778 31.2431 81.1855V87.3206C31.2431 88.5684 32.3731 89.5116 33.6008 89.2884L39.5175 88.2129C41.1755 87.9115 41.7403 85.8203 40.4596 84.7251L34.5429 79.6655Z" fill="#E63F43"/>
<path d="M33.6008 89.2884C32.3731 89.5116 31.2431 88.5684 31.2431 87.3206V81.1855C31.2431 79.4778 33.2451 78.5556 34.5429 79.6655L40.4596 84.7251C41.7403 85.8203 41.1755 87.9115 39.5175 88.2129L33.6008 89.2884Z" fill="black"/>
<ellipse cx="19.7149" cy="66.6331" rx="0.886776" ry="1.77564" fill="black"/>
<ellipse cx="29.9102" cy="73.2913" rx="0.886776" ry="1.77564" fill="black"/>
<ellipse cx="24.1524" cy="70.1838" rx="0.886776" ry="1.77564" fill="black"/>
<ellipse cx="36.5587" cy="75.511" rx="0.886776" ry="1.77564" fill="black"/>
<ellipse cx="42.7696" cy="77.2864" rx="0.886776" ry="1.77564" fill="black"/>
<ellipse cx="49.8633" cy="77.2864" rx="0.886776" ry="1.77564" fill="black"/>
<ellipse cx="56.0743" cy="76.3997" rx="0.886776" ry="1.77564" fill="black"/>
<ellipse cx="19.7149" cy="86.1653" rx="0.886776" ry="1.77564" fill="black"/>
<ellipse cx="29.4727" cy="93.2678" rx="0.886776" ry="1.77564" fill="black"/>
<ellipse cx="24.1524" cy="90.6047" rx="0.886776" ry="1.77564" fill="black"/>
<ellipse cx="36.5587" cy="95.9309" rx="0.886776" ry="1.77564" fill="black"/>
<ellipse cx="43.6602" cy="96.8196" rx="0.886776" ry="1.77564" fill="black"/>
<ellipse cx="49.8633" cy="96.8196" rx="0.886776" ry="1.77564" fill="black"/>
<ellipse cx="56.0743" cy="95.9309" rx="0.886776" ry="1.77564" fill="black"/>
<path d="M49.0078 42.9964C49.0078 26.9314 61.923 14.001 77.9692 14.001C94.0153 14.001 106.931 27.3232 106.931 43.3883V71.9918H77.9692C61.923 71.9918 49.0078 59.0614 49.0078 42.9964Z" fill="#00FFB8"/>
<rect x="40.6719" y="0.740234" width="32.3792" height="46.179" rx="16.1896" stroke="white"/>
<rect x="78.9609" y="34.1592" width="38.2697" height="8.82896" rx="4.41448" stroke="white"/>
<rect x="66.1953" y="47.9189" width="38.2697" height="8.82896" rx="4.41448" stroke="black"/>
<path d="M66.6797 60.1965L74.0428 64.1279L81.8967 60.1963L91.2232 64.1279L97.6046 60.1965L103.986 64.1279M103.986 68.8965L97.6046 65.111L91.2232 68.8967L81.8967 65.1108L74.0428 68.8965L66.6797 65.1108" stroke="black"/>
<mask id="mask0_10604_1005" style="mask-type:alpha" maskUnits="userSpaceOnUse" x="49" y="14" width="58" height="58">
<path d="M49.0078 42.9954C49.0078 26.9304 61.923 14 77.9692 14C94.0153 14 106.931 27.3222 106.931 43.3873V71.9909H77.9692C61.923 71.9909 49.0078 59.0605 49.0078 42.9954Z" fill="#2BCFA1"/>
</mask>
<g mask="url(#mask0_10604_1005)">
<rect x="40.1719" y="0.239258" width="33.3792" height="47.179" rx="16.6896" fill="white"/>
<rect x="78.9609" y="34.1572" width="38.2697" height="8.82896" rx="4.41448" stroke="#29009D"/>
<rect x="65.6953" y="47.418" width="39.2697" height="9.82896" rx="4.91448" fill="#8439FF"/>
<path d="M66.6797 60.1955L74.0428 64.1269L81.8967 60.1953L91.2232 64.1269L97.6046 60.1955L103.986 64.1269M103.986 68.8956L97.6046 65.11L91.2232 68.8958L81.8967 65.1098L74.0428 68.8956L66.6797 65.1098" stroke="#FBFF45"/>
</g>
<path d="M8.11029 53.4752L3.52794 45.9071H3.4797L3.54402 53.4752H0.875V41.9023H4.01029L8.57656 49.4541H8.6248L8.56049 41.9023H11.2295V53.4752H8.11029Z" fill="white"/>
<path d="M16.2948 44.2888V46.6753H20.7003V48.9801H16.2948V53.4752H13.5776V41.9023H21.0701V44.2888H16.2948Z" fill="white"/>
<path d="M27.7133 44.2888V53.4752H24.9639V44.2888H21.7482V41.9023H30.929V44.2888H27.7133Z" fill="white"/>
<mask id="mask1_10604_1005" style="mask-type:alpha" maskUnits="userSpaceOnUse" x="0" y="0" width="118" height="100">
<path d="M9.54482 56.9468L4.78623 49.3787H4.73614L4.80292 56.9468H2.03125V45.374H5.28713L10.029 52.9258H10.0791L10.0123 45.374H12.784V56.9468H9.54482Z" stroke="#696969"/>
<path d="M18.0442 47.7605V50.147H22.6191V52.4517H18.0442V56.9468H15.2224V45.374H23.0031V47.7605H18.0442Z" stroke="#696969"/>
<path d="M29.9018 47.7605V56.9468H27.0466V47.7605H23.7072V45.374H33.2411V47.7605H29.9018Z" stroke="#696969"/>
<path fill-rule="evenodd" clip-rule="evenodd" d="M20.6535 63.6367C19.2612 62.5239 17.0547 63.469 17.0547 65.2514V86.8676C17.0547 87.2776 17.1762 87.6774 17.4258 88.0026C19.8242 91.1272 26.0632 96.9149 34.7902 98.5952C43.1181 100.199 52.7956 99.9921 57.7507 98.9564C58.6081 98.7772 59.1766 97.9982 59.1766 97.1223V75.1984C59.1766 73.7112 57.56 72.6348 56.114 72.9825C51.7748 74.026 44.2034 74.6581 36.1204 71.9606C29.0515 69.6015 23.9392 66.263 20.6535 63.6367ZM34.5429 79.6655C33.2451 78.5556 31.2431 79.4778 31.2431 81.1855V87.3206C31.2431 88.5684 32.3731 89.5116 33.6008 89.2884L39.5175 88.2129C41.1755 87.9115 41.7403 85.8203 40.4596 84.7251L34.5429 79.6655Z" fill="#E63F43"/>
<path d="M33.6008 89.2884C32.3731 89.5116 31.2431 88.5684 31.2431 87.3206V81.1855C31.2431 79.4778 33.2451 78.5556 34.5429 79.6655L40.4596 84.7251C41.7403 85.8203 41.1755 87.9115 39.5175 88.2129L33.6008 89.2884Z" fill="black"/>
<ellipse cx="19.7149" cy="66.6331" rx="0.886776" ry="1.77564" fill="black"/>
<ellipse cx="29.9102" cy="73.2913" rx="0.886776" ry="1.77564" fill="black"/>
<ellipse cx="24.1524" cy="70.1838" rx="0.886776" ry="1.77564" fill="black"/>
<ellipse cx="36.5587" cy="75.511" rx="0.886776" ry="1.77564" fill="black"/>
<ellipse cx="42.7696" cy="77.2864" rx="0.886776" ry="1.77564" fill="black"/>
<ellipse cx="49.8633" cy="77.2864" rx="0.886776" ry="1.77564" fill="black"/>
<ellipse cx="56.0743" cy="76.3997" rx="0.886776" ry="1.77564" fill="black"/>
<ellipse cx="19.7149" cy="86.1653" rx="0.886776" ry="1.77564" fill="black"/>
<ellipse cx="29.4727" cy="93.2678" rx="0.886776" ry="1.77564" fill="black"/>
<ellipse cx="24.1524" cy="90.6047" rx="0.886776" ry="1.77564" fill="black"/>
<ellipse cx="36.5587" cy="95.9309" rx="0.886776" ry="1.77564" fill="black"/>
<ellipse cx="43.6602" cy="96.8196" rx="0.886776" ry="1.77564" fill="black"/>
<ellipse cx="49.8633" cy="96.8196" rx="0.886776" ry="1.77564" fill="black"/>
<ellipse cx="56.0743" cy="95.9309" rx="0.886776" ry="1.77564" fill="black"/>
<path d="M49.0078 42.9964C49.0078 26.9314 61.923 14.001 77.9692 14.001C94.0153 14.001 106.931 27.3232 106.931 43.3883V71.9918H77.9692C61.923 71.9918 49.0078 59.0614 49.0078 42.9964Z" fill="#80EDCF"/>
<rect x="40.6719" y="0.740234" width="32.3792" height="46.179" rx="16.1896" stroke="white"/>
<rect x="78.9609" y="34.1592" width="38.2697" height="8.82896" rx="4.41448" stroke="white"/>
<rect x="66.1953" y="47.9189" width="38.2697" height="8.82896" rx="4.41448" stroke="black"/>
<path d="M66.6797 60.1965L74.0428 64.1279L81.8967 60.1963L91.2232 64.1279L97.6046 60.1965L103.986 64.1279M103.986 68.8965L97.6046 65.111L91.2232 68.8967L81.8967 65.1108L74.0428 68.8965L66.6797 65.1108" stroke="black"/>
<mask id="mask2_10604_1005" style="mask-type:alpha" maskUnits="userSpaceOnUse" x="49" y="14" width="58" height="58">
<path d="M49.0078 42.9954C49.0078 26.9304 61.923 14 77.9692 14C94.0153 14 106.931 27.3222 106.931 43.3873V71.9909H77.9692C61.923 71.9909 49.0078 59.0605 49.0078 42.9954Z" fill="#2BCFA1"/>
</mask>
<g mask="url(#mask2_10604_1005)">
<rect x="40.1719" y="0.239258" width="33.3792" height="47.179" rx="16.6896" fill="white"/>
<rect x="78.9609" y="34.1572" width="38.2697" height="8.82896" rx="4.41448" stroke="#29009D"/>
<rect x="65.6953" y="47.418" width="39.2697" height="9.82896" rx="4.91448" fill="#8439FF"/>
<path d="M66.6797 60.1955L74.0428 64.1269L81.8967 60.1953L91.2232 64.1269L97.6046 60.1955L103.986 64.1269M103.986 68.8956L97.6046 65.11L91.2232 68.8958L81.8967 65.1098L74.0428 68.8956L66.6797 65.1098" stroke="#FBFF45"/>
</g>
<path d="M8.11029 53.4752L3.52794 45.9071H3.4797L3.54402 53.4752H0.875V41.9023H4.01029L8.57656 49.4541H8.6248L8.56049 41.9023H11.2295V53.4752H8.11029Z" fill="white"/>
<path d="M16.2948 44.2888V46.6753H20.7003V48.9801H16.2948V53.4752H13.5776V41.9023H21.0701V44.2888H16.2948Z" fill="white"/>
<path d="M27.7133 44.2888V53.4752H24.9639V44.2888H21.7482V41.9023H30.929V44.2888H27.7133Z" fill="white"/>
</mask>
<g mask="url(#mask1_10604_1005)">
<g style="mix-blend-mode:color" filter="url(#filter0_f_10604_1005)">
<path d="M-6.90485 82.1921C-19.6172 -5.76104 57.7227 -31.5824 73.9436 23.6335C84.5642 59.7861 6.793 46.5098 24.886 77.5629C45.1147 112.281 51.7591 97.8151 56.0946 116.91C58.9849 129.64 -0.906339 123.694 -6.90485 82.1921Z" fill="#702CFF"/>
</g>
</g>
<defs>
<filter id="filter0_f_10604_1005" x="-28.3086" y="-25.3789" width="123.254" height="168.248" filterUnits="userSpaceOnUse" color-interpolation-filters="sRGB">
<feFlood flood-opacity="0" result="BackgroundImageFix"/>
<feBlend mode="normal" in="SourceGraphic" in2="BackgroundImageFix" result="shape"/>
<feGaussianBlur stdDeviation="10" result="effect1_foregroundBlur_10604_1005"/>
</filter>
</defs>
</svg>
