<svg width="627" height="120" viewBox="0 0 627 120" fill="none" xmlns="http://www.w3.org/2000/svg">
<path d="M156.744 99.4639C150.543 99.4639 145.027 98.139 140.196 95.4892C135.437 92.8394 131.651 89.2327 128.839 84.6691C126.099 80.0319 124.729 74.7691 124.729 68.8806C124.729 62.9185 126.099 57.6556 128.839 53.0921C131.651 48.4549 135.437 44.8482 140.196 42.272C145.027 39.6221 150.543 38.2972 156.744 38.2972C162.873 38.2972 168.353 39.6221 173.184 42.272C178.015 44.8482 181.8 48.4181 184.54 52.9816C187.28 57.5452 188.65 62.8449 188.65 68.8806C188.65 74.7691 187.28 80.0319 184.54 84.6691C181.8 89.2327 178.015 92.8394 173.184 95.4892C168.353 98.139 162.873 99.4639 156.744 99.4639ZM156.744 85.3316C159.556 85.3316 162.08 84.6691 164.315 83.3442C166.55 82.0193 168.317 80.1423 169.615 77.7133C170.913 75.2107 171.562 72.2665 171.562 68.8806C171.562 65.4211 170.913 62.4768 169.615 60.0478C168.317 57.6188 166.55 55.7419 164.315 54.417C162.08 53.0921 159.556 52.4296 156.744 52.4296C153.932 52.4296 151.408 53.0921 149.173 54.417C146.938 55.7419 145.135 57.6188 143.765 60.0478C142.467 62.4768 141.818 65.4211 141.818 68.8806C141.818 72.2665 142.467 75.2107 143.765 77.7133C145.135 80.1423 146.938 82.0193 149.173 83.3442C151.408 84.6691 153.932 85.3316 156.744 85.3316Z" fill="url(#paint0_linear_10956_26954)"/>
<path d="M278.929 99.4639V4.96841H295.802V99.4639H278.929Z" fill="url(#paint1_linear_10956_26954)"/>
<path d="M313.624 98.5807V27.4919H330.497V98.5807H313.624ZM322.06 19.2112C318.96 19.2112 316.436 18.2911 314.49 16.451C312.543 14.6108 311.569 12.329 311.569 9.6056C311.569 6.88217 312.543 4.60039 314.49 2.76023C316.436 0.920079 318.96 0 322.06 0C325.161 0 327.685 0.883276 329.632 2.64983C331.578 4.34277 332.552 6.55095 332.552 9.27438C332.552 12.145 331.578 14.5372 329.632 16.451C327.757 18.2911 325.233 19.2112 322.06 19.2112Z" fill="url(#paint2_linear_10956_26954)"/>
<path d="M425.263 98.5807V4.96841H442.135V63.05V83.5047V98.5807H425.263Z" fill="url(#paint3_linear_10956_26954)"/>
<path fill-rule="evenodd" clip-rule="evenodd" d="M31.7144 98.5813C14.2335 98.5813 0.0625 84.1152 0.0625 66.2704C0.0625 48.4256 14.2335 33.9595 31.7144 33.9595C37.0577 33.9595 42.0918 35.3111 46.5065 37.6976V4.0858H63.3663V98.5813H31.7144ZM46.5065 81.3705V66.4327C46.5065 58.1829 39.955 51.495 31.8734 51.495C23.7918 51.495 17.2404 58.1829 17.2404 66.4327C17.2404 74.6826 23.7918 81.3705 31.8734 81.3705H46.5065Z" fill="url(#paint4_linear_10956_26954)"/>
<path d="M81.158 98.5807V39.1805H97.2735V46.9799C98.8634 44.767 100.882 42.9768 103.33 41.6095C107.152 39.4013 111.803 38.2972 117.283 38.2972V54.1962C116.562 54.1226 115.913 54.0857 115.336 54.0857C114.759 54.0121 114.146 53.9753 113.497 53.9753C108.882 53.9753 105.133 55.337 102.249 58.0605C99.4366 60.7103 98.0306 64.869 98.0306 70.5367V98.5807H81.158Z" fill="url(#paint5_linear_10956_26954)"/>
<path d="M223.615 96.1517C227.292 98.3598 231.582 99.4639 236.485 99.4639C241.965 99.4639 246.868 98.2126 251.195 95.71C255.593 93.2074 259.054 89.6743 261.578 85.1107C264.174 80.5471 265.471 75.1371 265.471 68.8806C265.471 62.6977 264.174 57.3244 261.578 52.7608C259.054 48.1973 255.593 44.6642 251.195 42.1616C246.868 39.5853 241.965 38.2972 236.485 38.2972C231.366 38.2972 226.968 39.4013 223.29 41.6095C221.356 42.7707 220.419 43.2529 218.964 45.045L218.748 51.1712V68.8806C218.748 65.4211 219.397 62.4768 220.694 60.0478C221.992 57.6188 223.759 55.7419 225.994 54.417C228.229 53.0921 230.753 52.4296 233.565 52.4296C236.377 52.4296 238.865 53.0921 241.028 54.417C243.263 55.7419 245.03 57.6188 246.328 60.0478C247.698 62.4768 248.383 65.4211 248.383 68.8806C248.383 72.2665 247.698 75.2107 246.328 77.7133C245.03 80.1423 243.263 82.0193 241.028 83.3442C238.865 84.6691 236.377 85.3316 233.565 85.3316C230.753 85.3316 228.229 84.6691 225.994 83.3442C223.759 82.0193 221.992 80.1423 220.694 77.7133C219.479 75.3693 218.832 72.6378 218.755 69.5188L218.964 86.5461V92.2917C220.34 93.8294 221.89 95.116 223.615 96.1517Z" fill="url(#paint6_linear_10956_26954)"/>
<path fill-rule="evenodd" clip-rule="evenodd" d="M202.091 39.1805V120H218.964V92.2917V86.5461L218.755 69.5188C218.75 69.3078 218.748 69.0951 218.748 68.8806V51.1712L218.964 45.045V39.1805H202.091Z" fill="url(#paint7_linear_10956_26954)"/>
<path d="M383.687 38.2972C388.301 38.2972 392.411 39.2541 396.016 41.1679C399.694 43.008 402.578 45.8787 404.669 49.7798C406.76 53.6073 407.806 58.5389 407.806 64.5746V98.5807H390.933V67.2244C390.933 62.44 389.888 58.9069 387.797 56.6252C385.778 54.3434 382.893 53.2025 379.144 53.2025C376.476 53.2025 374.061 53.7913 371.897 54.969C369.806 56.0731 368.148 57.8029 366.922 60.1583C365.768 62.5137 365.192 65.5315 365.192 69.2118V98.5807H348.319V39.1805H364.435V46.2361C366.104 44.3371 368.087 42.7581 370.383 41.4991C374.277 39.3645 378.711 38.2972 383.687 38.2972Z" fill="url(#paint8_linear_10956_26954)"/>
<path d="M486.912 39.1805H466.795L442.135 63.05V83.5047L450.547 75.6533L462.678 64.3297L486.912 39.1805Z" fill="url(#paint9_linear_10956_26954)"/>
<path d="M468.634 98.5807H489.076L462.678 64.3297L450.547 75.6533L468.634 98.5807Z" fill="url(#paint10_linear_10956_26954)"/>
<path d="M507.754 95.4892C512.801 98.139 518.642 99.4639 525.275 99.4639C530.539 99.4639 535.19 98.6543 539.227 97.0349C543.265 95.342 546.618 92.9498 549.286 89.8583L540.309 79.9215C538.362 81.8353 536.199 83.2706 533.82 84.2275C531.512 85.1843 528.808 85.6628 525.708 85.6628C522.247 85.6628 519.218 85.0371 516.623 83.7858C514.099 82.4609 512.116 80.584 510.674 78.155C509.928 76.792 509.385 75.3199 509.045 73.7386C508.761 72.4164 508.619 71.0179 508.619 69.543V66.8932C508.619 65.7703 508.696 64.703 508.85 63.6913C509.131 61.8513 509.667 60.1952 510.458 58.7229C511.683 56.3675 513.378 54.5642 515.541 53.3129C517.776 51.988 520.336 51.3255 523.22 51.3255C526.104 51.3255 528.628 51.988 530.791 53.3129C532.954 54.5642 534.649 56.3307 535.875 58.6125C536.688 60.1271 537.232 61.82 537.505 63.6913H508.85C508.696 64.703 508.619 65.7703 508.619 66.8932V69.543C508.619 71.0179 508.761 72.4164 509.045 73.7386H553.072C553.144 73.0025 553.216 72.2296 553.288 71.42C553.36 70.5367 553.396 69.7639 553.396 69.1014C553.396 62.6977 552.062 57.214 549.394 52.6504C546.726 48.0132 543.085 44.4801 538.47 42.0511C533.928 39.5485 528.808 38.2972 523.112 38.2972C517.2 38.2972 511.9 39.6221 507.213 42.272C502.526 44.8482 498.813 48.4549 496.073 53.0921C493.405 57.6556 492.071 62.9185 492.071 68.8806C492.071 74.7691 493.441 80.0319 496.181 84.6691C498.921 89.2327 502.779 92.8394 507.754 95.4892Z" fill="url(#paint11_linear_10956_26954)"/>
<path fill-rule="evenodd" clip-rule="evenodd" d="M576.959 95.71C581.358 98.2126 586.297 99.4639 591.777 99.4639C596.896 99.4639 601.258 98.3598 604.864 96.1517C606.755 95.0159 608.417 93.5784 609.851 91.839L609.19 45.3746C607.851 43.8789 606.337 42.6238 604.647 41.6095C600.97 39.4013 596.68 38.2972 591.777 38.2972C586.297 38.2972 581.358 39.5485 576.959 42.0511C572.561 44.5538 569.064 48.0868 566.468 52.6504C563.944 57.214 562.682 62.6241 562.682 68.8806C562.682 75.0635 563.944 80.4367 566.468 85.0003C569.064 89.5639 572.561 93.1338 576.959 95.71ZM602.16 83.3442C599.924 84.6691 597.437 85.3316 594.697 85.3316C591.885 85.3316 589.361 84.6691 587.126 83.3442C584.891 82.0193 583.088 80.1423 581.718 77.7133C580.42 75.2107 579.771 72.2665 579.771 68.8806C579.771 65.4211 580.42 62.4768 581.718 60.0478C583.088 57.6188 584.891 55.7419 587.126 54.417C589.361 53.0921 591.885 52.4296 594.697 52.4296C597.437 52.4296 599.924 53.0921 602.16 54.417C604.395 55.7419 606.162 57.6188 607.459 60.0478C608.829 62.4768 609.514 65.4211 609.514 68.8806C609.514 72.2665 608.829 75.2107 607.459 77.7133C606.162 80.1423 604.395 82.0193 602.16 83.3442Z" fill="url(#paint12_linear_10956_26954)"/>
<path d="M626.062 4.96841H609.19V45.3746L609.851 91.839L609.947 98.5807H626.062V4.96841Z" fill="url(#paint13_linear_10956_26954)"/>
<defs>
<linearGradient id="paint0_linear_10956_26954" x1="313.063" y1="120" x2="313.063" y2="-3.24893e-07" gradientUnits="userSpaceOnUse">
<stop stop-color="#6C46D6"/>
<stop offset="1" stop-color="#2BCFA1"/>
</linearGradient>
<linearGradient id="paint1_linear_10956_26954" x1="313.063" y1="120" x2="313.063" y2="-3.24893e-07" gradientUnits="userSpaceOnUse">
<stop stop-color="#6C46D6"/>
<stop offset="1" stop-color="#2BCFA1"/>
</linearGradient>
<linearGradient id="paint2_linear_10956_26954" x1="313.063" y1="120" x2="313.063" y2="-3.24893e-07" gradientUnits="userSpaceOnUse">
<stop stop-color="#6C46D6"/>
<stop offset="1" stop-color="#2BCFA1"/>
</linearGradient>
<linearGradient id="paint3_linear_10956_26954" x1="313.063" y1="120" x2="313.063" y2="-3.24893e-07" gradientUnits="userSpaceOnUse">
<stop stop-color="#6C46D6"/>
<stop offset="1" stop-color="#2BCFA1"/>
</linearGradient>
<linearGradient id="paint4_linear_10956_26954" x1="313.063" y1="120" x2="313.063" y2="-3.24893e-07" gradientUnits="userSpaceOnUse">
<stop stop-color="#6C46D6"/>
<stop offset="1" stop-color="#2BCFA1"/>
</linearGradient>
<linearGradient id="paint5_linear_10956_26954" x1="313.063" y1="120" x2="313.063" y2="-3.24893e-07" gradientUnits="userSpaceOnUse">
<stop stop-color="#6C46D6"/>
<stop offset="1" stop-color="#2BCFA1"/>
</linearGradient>
<linearGradient id="paint6_linear_10956_26954" x1="313.063" y1="120" x2="313.063" y2="-3.24893e-07" gradientUnits="userSpaceOnUse">
<stop stop-color="#6C46D6"/>
<stop offset="1" stop-color="#2BCFA1"/>
</linearGradient>
<linearGradient id="paint7_linear_10956_26954" x1="313.063" y1="120" x2="313.063" y2="-3.24893e-07" gradientUnits="userSpaceOnUse">
<stop stop-color="#6C46D6"/>
<stop offset="1" stop-color="#2BCFA1"/>
</linearGradient>
<linearGradient id="paint8_linear_10956_26954" x1="313.063" y1="120" x2="313.063" y2="-3.24893e-07" gradientUnits="userSpaceOnUse">
<stop stop-color="#6C46D6"/>
<stop offset="1" stop-color="#2BCFA1"/>
</linearGradient>
<linearGradient id="paint9_linear_10956_26954" x1="313.063" y1="120" x2="313.063" y2="-3.24893e-07" gradientUnits="userSpaceOnUse">
<stop stop-color="#6C46D6"/>
<stop offset="1" stop-color="#2BCFA1"/>
</linearGradient>
<linearGradient id="paint10_linear_10956_26954" x1="313.063" y1="120" x2="313.063" y2="-3.24893e-07" gradientUnits="userSpaceOnUse">
<stop stop-color="#6C46D6"/>
<stop offset="1" stop-color="#2BCFA1"/>
</linearGradient>
<linearGradient id="paint11_linear_10956_26954" x1="313.063" y1="120" x2="313.063" y2="-3.24893e-07" gradientUnits="userSpaceOnUse">
<stop stop-color="#6C46D6"/>
<stop offset="1" stop-color="#2BCFA1"/>
</linearGradient>
<linearGradient id="paint12_linear_10956_26954" x1="313.063" y1="120" x2="313.063" y2="-3.24893e-07" gradientUnits="userSpaceOnUse">
<stop stop-color="#6C46D6"/>
<stop offset="1" stop-color="#2BCFA1"/>
</linearGradient>
<linearGradient id="paint13_linear_10956_26954" x1="313.063" y1="120" x2="313.063" y2="-3.24893e-07" gradientUnits="userSpaceOnUse">
<stop stop-color="#6C46D6"/>
<stop offset="1" stop-color="#2BCFA1"/>
</linearGradient>
</defs>
</svg>
