<svg width="1500" height="430" viewBox="0 0 1500 430" fill="none" xmlns="http://www.w3.org/2000/svg">
<mask id="path-1-outside-1_10659_475" maskUnits="userSpaceOnUse" x="-364" y="0" width="2229" height="430" fill="black">
<rect fill="white" x="-364" width="2229" height="430"/>
<path d="M194.395 355.755C172.335 355.755 152.712 351.029 135.525 341.578C118.595 332.127 105.129 319.263 95.1245 302.986C85.377 286.447 80.5033 267.676 80.5033 246.674C80.5033 225.409 85.377 206.638 95.1245 190.362C105.129 173.822 118.595 160.958 135.525 151.77C152.712 142.319 172.335 137.593 194.395 137.593C216.199 137.593 235.694 142.319 252.881 151.77C270.067 160.958 283.534 173.691 293.281 189.968C303.029 206.245 307.903 225.147 307.903 246.674C307.903 267.676 303.029 286.447 293.281 302.986C283.534 319.263 270.067 332.127 252.881 341.578C235.694 351.029 216.199 355.755 194.395 355.755ZM194.395 305.349C204.399 305.349 213.378 302.986 221.329 298.261C229.281 293.535 235.566 286.841 240.183 278.178C244.8 269.252 247.109 258.75 247.109 246.674C247.109 234.335 244.8 223.834 240.183 215.171C235.566 206.507 229.281 199.813 221.329 195.087C213.378 190.362 204.399 187.999 194.395 187.999C184.391 187.999 175.413 190.362 167.461 195.087C159.509 199.813 153.097 206.507 148.223 215.171C143.606 223.834 141.297 234.335 141.297 246.674C141.297 258.75 143.606 269.252 148.223 278.178C153.097 286.841 159.509 293.535 167.461 298.261C175.413 302.986 184.391 305.349 194.395 305.349Z"/>
<path d="M629.071 355.755V18.7207H689.095V355.755H629.071Z"/>
<path d="M752.498 352.604V99.0544H812.523V352.604H752.498ZM782.51 69.5199C771.48 69.5199 762.502 66.2383 755.577 59.6751C748.651 53.1119 745.188 44.9735 745.188 35.26C745.188 25.5464 748.651 17.408 755.577 10.8448C762.502 4.28162 771.48 1 782.51 1C793.54 1 802.519 4.15035 809.445 10.451C816.371 16.4892 819.833 24.3651 819.833 34.0786C819.833 44.3172 816.371 52.8494 809.445 59.6751C802.775 66.2383 793.797 69.5199 782.51 69.5199Z"/>
<path d="M1149.65 352.604V18.7207H1209.68V225.878V298.834V352.604H1149.65Z"/>
<path fill-rule="evenodd" clip-rule="evenodd" d="M-250.398 352.607C-312.586 352.607 -363 301.011 -363 237.364C-363 173.718 -312.586 122.122 -250.398 122.122C-231.389 122.122 -213.48 126.943 -197.775 135.455V15.5727H-137.796V352.607H-250.398ZM-197.775 291.221V237.943C-197.775 208.519 -221.082 184.666 -249.832 184.666C-278.583 184.666 -301.889 208.519 -301.889 237.943C-301.889 267.368 -278.583 291.221 -249.832 291.221H-197.775Z"/>
<path d="M-74.502 352.604V140.744H-17.1712V168.562C-11.515 160.669 -4.33258 154.284 4.37592 149.407C17.9711 141.531 34.5162 137.593 54.0112 137.593V194.3C51.4461 194.037 49.1375 193.906 47.0854 193.906C45.0333 193.643 42.853 193.512 40.5443 193.512C24.1275 193.512 10.7888 198.369 0.528259 208.082C-9.47577 217.533 -14.4778 232.366 -14.4778 252.581V352.604H-74.502Z"/>
<path d="M432.289 343.941C445.371 351.817 460.633 355.755 478.076 355.755C497.571 355.755 515.014 351.292 530.405 342.366C546.052 333.44 558.365 320.838 567.343 304.562C576.577 288.285 581.195 268.989 581.195 246.674C581.195 224.622 576.577 205.457 567.343 189.18C558.365 172.904 546.052 160.302 530.405 151.376C515.014 142.188 497.571 137.593 478.076 137.593C459.864 137.593 444.216 141.531 431.134 149.407C424.255 153.549 420.92 155.269 415.743 161.661L414.974 183.511V246.674C414.974 234.335 417.283 223.834 421.9 215.171C426.517 206.507 432.802 199.813 440.753 195.087C448.705 190.362 457.683 187.999 467.687 187.999C477.691 187.999 486.541 190.362 494.237 195.087C502.188 199.813 508.473 206.507 513.09 215.171C517.964 223.834 520.401 234.335 520.401 246.674C520.401 258.75 517.964 269.252 513.09 278.178C508.473 286.841 502.188 293.535 494.237 298.261C486.541 302.986 477.691 305.349 467.687 305.349C457.683 305.349 448.705 302.986 440.753 298.261C432.802 293.535 426.517 286.841 421.9 278.178C417.575 269.817 415.276 260.075 415.002 248.95L415.743 309.681V330.174C420.638 335.658 426.153 340.247 432.289 343.941Z"/>
<path fill-rule="evenodd" clip-rule="evenodd" d="M355.719 140.744V429H415.743V330.174V309.681L415.002 248.95C414.983 248.198 414.974 247.439 414.974 246.674V183.511L415.743 161.661V140.744H355.719Z"/>
<path d="M1001.75 137.593C1018.16 137.593 1032.78 141.006 1045.61 147.832C1058.69 154.395 1068.95 164.634 1076.39 178.548C1083.83 192.199 1087.55 209.789 1087.55 231.316V352.604H1027.53V240.767C1027.53 223.703 1023.81 211.101 1016.37 202.963C1009.18 194.825 998.924 190.756 985.585 190.756C976.094 190.756 967.501 192.856 959.806 197.056C952.367 200.994 946.467 207.164 942.106 215.564C938.002 223.965 935.95 234.729 935.95 247.855V352.604H875.926V140.744H933.256V165.909C939.195 159.136 946.25 153.504 954.419 149.013C968.271 141.4 984.046 137.593 1001.75 137.593Z"/>
<path d="M1368.97 140.744H1297.4L1209.68 225.878V298.834L1239.6 270.83L1282.76 230.442L1368.97 140.744Z"/>
<path d="M1303.95 352.604H1376.67L1282.76 230.442L1239.6 270.83L1303.95 352.604Z"/>
<path d="M1443.12 341.578C1461.07 351.029 1481.85 355.755 1505.45 355.755C1524.17 355.755 1540.72 352.867 1555.08 347.091C1569.45 341.053 1581.38 332.521 1590.87 321.495L1558.93 286.053C1552.01 292.879 1544.31 297.998 1535.85 301.411C1527.64 304.824 1518.02 306.531 1506.99 306.531C1494.67 306.531 1483.9 304.299 1474.67 299.836C1465.69 295.111 1458.63 288.416 1453.5 279.753C1450.85 274.891 1448.92 269.641 1447.71 264.001C1446.7 259.285 1446.19 254.297 1446.19 249.037V239.586C1446.19 235.581 1446.47 231.774 1447.02 228.166C1448.02 221.603 1449.92 215.696 1452.73 210.445C1457.1 202.044 1463.12 195.612 1470.82 191.149C1478.77 186.424 1487.88 184.061 1498.14 184.061C1508.4 184.061 1517.38 186.424 1525.07 191.149C1532.77 195.612 1538.8 201.913 1543.16 210.051C1546.05 215.453 1547.98 221.491 1548.96 228.166H1447.02C1446.47 231.774 1446.19 235.581 1446.19 239.586V249.037C1446.19 254.297 1446.7 259.285 1447.71 264.001H1604.33C1604.59 261.376 1604.85 258.619 1605.1 255.731C1605.36 252.581 1605.49 249.824 1605.49 247.462C1605.49 224.622 1600.74 205.063 1591.25 188.787C1581.76 172.247 1568.81 159.646 1552.39 150.982C1536.23 142.056 1518.02 137.593 1497.75 137.593C1476.72 137.593 1457.87 142.319 1441.19 151.77C1424.52 160.958 1411.31 173.822 1401.56 190.362C1392.07 206.638 1387.32 225.409 1387.32 246.674C1387.32 267.676 1392.2 286.447 1401.95 302.986C1411.69 319.263 1425.42 332.127 1443.12 341.578Z"/>
<path fill-rule="evenodd" clip-rule="evenodd" d="M1689.31 342.366C1704.96 351.292 1722.53 355.755 1742.03 355.755C1760.24 355.755 1775.76 351.817 1788.58 343.941C1795.31 339.89 1801.23 334.763 1806.33 328.559L1803.98 162.836C1799.21 157.501 1793.82 153.025 1787.82 149.407C1774.73 141.531 1759.47 137.593 1742.03 137.593C1722.53 137.593 1704.96 142.056 1689.31 150.982C1673.67 159.908 1661.23 172.51 1651.99 188.787C1643.01 205.063 1638.52 224.359 1638.52 246.674C1638.52 268.726 1643.01 287.891 1651.99 304.168C1661.23 320.445 1673.67 333.177 1689.31 342.366ZM1778.97 298.261C1771.01 302.986 1762.16 305.349 1752.42 305.349C1742.41 305.349 1733.43 302.986 1725.48 298.261C1717.53 293.535 1711.12 286.841 1706.24 278.178C1701.63 269.252 1699.32 258.75 1699.32 246.674C1699.32 234.335 1701.63 223.834 1706.24 215.171C1711.12 206.507 1717.53 199.813 1725.48 195.087C1733.43 190.362 1742.41 187.999 1752.42 187.999C1762.16 187.999 1771.01 190.362 1778.97 195.087C1786.92 199.813 1793.2 206.507 1797.82 215.171C1802.69 223.834 1805.13 234.335 1805.13 246.674C1805.13 258.75 1802.69 269.252 1797.82 278.178C1793.2 286.841 1786.92 293.535 1778.97 298.261Z"/>
<path d="M1864 18.7207H1803.98V162.836L1806.33 328.559L1806.67 352.604H1864V18.7207Z"/>
</mask>
<path d="M414.974 183.511L414.474 183.493L414.474 183.502V183.511H414.974ZM414.974 246.674H414.474L414.474 246.68L414.974 246.674ZM415.743 309.681H416.244L416.243 309.675L415.743 309.681ZM415.002 248.95L415.502 248.944V248.944L415.002 248.95ZM414.474 183.511V246.674H415.474V183.511H414.474ZM1445.69 239.586V249.037H1446.69V239.586H1445.69ZM415.244 161.643L414.474 183.493L415.474 183.528L416.243 161.678L415.244 161.643ZM415.243 309.681V330.174H416.243V309.681H415.243ZM414.502 248.956L415.244 309.687L416.243 309.675L415.502 248.944L414.502 248.956ZM414.474 246.68L414.502 248.957L415.502 248.944L415.474 246.668L414.474 246.68ZM1209.18 225.878V298.834H1210.18V225.878H1209.18ZM1282.42 230.077L1239.26 270.465L1239.94 271.195L1283.1 230.808L1282.42 230.077ZM1446.52 228.091C1445.97 231.726 1445.69 235.558 1445.69 239.586H1446.69C1446.69 235.604 1446.97 231.822 1447.51 228.241L1446.52 228.091ZM1445.69 249.037C1445.69 254.329 1446.2 259.352 1447.22 264.106L1448.2 263.896C1447.2 259.218 1446.69 254.265 1446.69 249.037H1445.69ZM1803.48 162.843L1805.83 328.566L1806.83 328.552L1804.48 162.829L1803.48 162.843ZM-74.502 352.604H-75.502V353.604H-74.502V352.604ZM-74.502 140.744V139.744H-75.502V140.744H-74.502ZM-17.1712 140.744H-16.1712V139.744H-17.1712V140.744ZM4.37592 149.407L4.86453 150.28L4.87088 150.276L4.8772 150.273L4.37592 149.407ZM54.0112 137.593H55.0112V136.593H54.0112V137.593ZM54.0112 194.3L53.9094 195.294L55.0112 195.407V194.3H54.0112ZM47.0854 193.906L46.9585 194.898L47.0217 194.906H47.0854V193.906ZM0.528259 208.082L1.215 208.809L1.21576 208.809L0.528259 208.082ZM-14.4778 352.604V353.604H-13.4778V352.604H-14.4778ZM135.525 341.578L135.038 342.451L135.043 342.454L135.525 341.578ZM95.1245 302.986L94.263 303.494L94.2677 303.502L94.2726 303.51L95.1245 302.986ZM95.1245 190.362L94.2689 189.844L94.2666 189.848L95.1245 190.362ZM135.525 151.77L136.002 152.649L136.007 152.646L135.525 151.77ZM252.881 151.77L252.399 152.646L252.409 152.652L252.881 151.77ZM293.281 302.986L294.139 303.5L294.143 303.494L293.281 302.986ZM252.881 341.578L252.399 340.702L252.881 341.578ZM221.329 298.261L221.84 299.121L221.329 298.261ZM240.183 278.178L241.066 278.648L241.071 278.637L240.183 278.178ZM240.183 215.171L239.301 215.641L240.183 215.171ZM221.329 195.087L220.819 195.947L221.329 195.087ZM167.461 195.087L167.972 195.947L167.461 195.087ZM148.223 215.171L147.351 214.68L147.346 214.69L147.34 214.7L148.223 215.171ZM148.223 278.178L147.335 278.637L147.343 278.653L147.351 278.668L148.223 278.178ZM167.461 298.261L167.972 297.401L167.461 298.261ZM432.289 343.941L432.804 343.084L432.289 343.941ZM431.134 149.407L430.619 148.551L431.134 149.407ZM530.405 151.376L529.892 152.235L529.901 152.24L529.909 152.245L530.405 151.376ZM567.343 189.18L566.467 189.663L566.473 189.674L567.343 189.18ZM567.343 304.562L566.473 304.068L566.467 304.079L567.343 304.562ZM530.405 342.366L529.909 341.497L529.903 341.501L530.405 342.366ZM355.719 429H354.719V430H355.719V429ZM355.719 140.744V139.744H354.719V140.744H355.719ZM415.743 140.744H416.743V139.744H415.743V140.744ZM415.743 429V430H416.743V429H415.743ZM494.237 298.261L493.726 297.401L493.719 297.405L493.713 297.409L494.237 298.261ZM513.09 278.178L512.213 277.698L512.208 277.707L513.09 278.178ZM513.09 215.171L512.208 215.641L512.213 215.651L512.219 215.661L513.09 215.171ZM494.237 195.087L493.713 195.939L493.719 195.943L493.726 195.947L494.237 195.087ZM440.753 195.087L441.264 195.947L440.753 195.087ZM421.9 215.171L422.782 215.641L421.9 215.171ZM421.9 278.178L421.012 278.637L421.017 278.648L421.9 278.178ZM440.753 298.261L441.264 297.401L440.753 298.261ZM629.071 355.755H628.071V356.755H629.071V355.755ZM629.071 18.7207V17.7207H628.071V18.7207H629.071ZM689.095 18.7207H690.095V17.7207H689.095V18.7207ZM689.095 355.755V356.755H690.095V355.755H689.095ZM752.498 352.604H751.498V353.604H752.498V352.604ZM752.498 99.0544V98.0544H751.498V99.0544H752.498ZM812.523 99.0544H813.523V98.0544H812.523V99.0544ZM812.523 352.604V353.604H813.523V352.604H812.523ZM755.577 59.6751L754.889 60.401V60.401L755.577 59.6751ZM755.577 10.8448L756.264 11.5707V11.5707L755.577 10.8448ZM809.445 10.451L808.772 11.1907L808.78 11.1979L808.788 11.2048L809.445 10.451ZM809.445 59.6751L810.146 60.3879L810.147 60.3874L809.445 59.6751ZM1045.61 147.832L1045.14 148.715L1045.15 148.72L1045.16 148.726L1045.61 147.832ZM1076.39 178.548L1075.51 179.019L1075.51 179.026L1076.39 178.548ZM1087.55 352.604V353.604H1088.55V352.604H1087.55ZM1027.53 352.604H1026.53V353.604H1027.53V352.604ZM1016.37 202.963L1015.62 203.625L1015.62 203.631L1015.63 203.638L1016.37 202.963ZM959.806 197.056L960.274 197.94L960.285 197.934L959.806 197.056ZM942.106 215.564L941.219 215.104L941.213 215.115L941.208 215.125L942.106 215.564ZM935.95 352.604V353.604H936.95V352.604H935.95ZM875.926 352.604H874.926V353.604H875.926V352.604ZM875.926 140.744V139.744H874.926V140.744H875.926ZM933.256 140.744H934.256V139.744H933.256V140.744ZM954.419 149.013L954.901 149.89L954.419 149.013ZM1297.4 140.744V139.744H1297L1296.71 140.026L1297.4 140.744ZM1368.97 140.744L1369.69 141.437L1371.32 139.744H1368.97V140.744ZM1149.65 352.604H1148.65V353.604H1149.65V352.604ZM1149.65 18.7207V17.7207H1148.65V18.7207H1149.65ZM1209.68 18.7207H1210.68V17.7207H1209.68V18.7207ZM1209.68 352.604V353.604H1210.68V352.604H1209.68ZM1303.95 352.604L1303.16 353.223L1303.46 353.604H1303.95V352.604ZM1376.67 352.604V353.604H1378.7L1377.46 351.995L1376.67 352.604ZM1443.12 341.578L1442.64 342.46L1442.65 342.463L1443.12 341.578ZM1401.95 302.986L1401.08 303.494L1401.09 303.5L1401.95 302.986ZM1401.56 190.362L1400.7 189.854L1400.7 189.858L1401.56 190.362ZM1441.19 151.77L1441.67 152.646L1441.69 152.64L1441.19 151.77ZM1552.39 150.982L1551.91 151.858L1551.92 151.862L1551.92 151.867L1552.39 150.982ZM1591.25 188.787L1590.38 189.284L1590.39 189.29L1591.25 188.787ZM1605.1 255.731L1606.1 255.82L1606.1 255.812L1605.1 255.731ZM1604.33 264.001V265.001H1605.24L1605.33 264.098L1604.33 264.001ZM1543.16 210.051L1542.27 210.524L1543.16 210.051ZM1525.07 191.149L1524.55 192.001L1524.56 192.008L1524.57 192.014L1525.07 191.149ZM1470.82 191.149L1471.32 192.014L1471.33 192.009L1470.82 191.149ZM1452.73 210.445L1453.62 210.917L1453.62 210.906L1452.73 210.445ZM1453.5 279.753L1452.63 280.232L1452.64 280.247L1452.64 280.262L1453.5 279.753ZM1474.67 299.836L1474.2 300.721L1474.22 300.729L1474.23 300.736L1474.67 299.836ZM1535.85 301.411L1535.47 300.484L1535.46 300.488L1535.85 301.411ZM1558.93 286.053L1559.67 285.384L1558.97 284.607L1558.23 285.341L1558.93 286.053ZM1590.87 321.495L1591.63 322.147L1592.2 321.48L1591.61 320.825L1590.87 321.495ZM1555.08 347.091L1555.46 348.019L1555.46 348.016L1555.47 348.013L1555.08 347.091ZM1689.31 342.366L1688.81 343.228L1688.82 343.234L1689.31 342.366ZM1651.99 304.168L1651.12 304.651L1651.12 304.661L1651.99 304.168ZM1651.99 188.787L1651.12 188.293L1651.12 188.304L1651.99 188.787ZM1689.31 150.982L1688.82 150.114L1689.31 150.982ZM1787.82 149.407L1788.33 148.551L1787.82 149.407ZM1788.58 343.941L1788.07 343.084L1788.06 343.089L1788.58 343.941ZM1778.97 298.261L1778.46 297.401L1778.97 298.261ZM1797.82 278.178L1796.94 277.698L1796.94 277.707L1797.82 278.178ZM1797.82 215.171L1796.94 215.641L1796.94 215.651L1796.95 215.661L1797.82 215.171ZM1778.97 195.087L1778.46 195.947L1778.97 195.087ZM1725.48 195.087L1725.99 195.947L1725.48 195.087ZM1706.24 215.171L1705.37 214.68L1705.37 214.69L1705.36 214.7L1706.24 215.171ZM1706.24 278.178L1705.36 278.637L1705.36 278.653L1705.37 278.668L1706.24 278.178ZM1725.48 298.261L1725.99 297.401L1725.48 298.261ZM1806.67 352.604L1805.67 352.618L1805.68 353.604H1806.67V352.604ZM1803.98 18.7207V17.7207H1802.98V18.7207H1803.98ZM1864 18.7207H1865V17.7207H1864V18.7207ZM1864 352.604V353.604H1865V352.604H1864ZM-137.796 352.607V353.607H-136.796V352.607H-137.796ZM-197.775 15.5727V14.5727H-198.775V15.5727H-197.775ZM-137.796 15.5727H-136.796V14.5727H-137.796V15.5727ZM-197.775 291.221V292.221H-196.775V291.221H-197.775ZM-197.775 135.455L-198.252 136.334L-196.775 137.134V135.455H-197.775ZM-17.1712 168.562H-18.1712V171.674L-16.3584 169.144L-17.1712 168.562ZM415.743 161.661H414.743V164.484L416.521 162.29L415.743 161.661ZM415.743 330.174L416.49 329.508L414.743 327.552V330.174H415.743ZM415.002 248.95L414.002 248.975L415.002 248.95ZM933.256 165.909H932.256V168.566L934.008 166.568L933.256 165.909ZM1209.68 225.878H1208.68V228.242L1210.37 226.596L1209.68 225.878ZM1209.68 298.834L1208.99 298.103L1208.68 298.4V298.834H1209.68ZM1282.76 230.442L1282.04 229.749L1281.44 230.37L1281.97 231.052L1282.76 230.442ZM1239.6 270.83L1240.39 270.212L1239.71 269.356L1238.92 270.1L1239.6 270.83ZM1447.02 228.166L1446.03 228.015L1445.85 229.166H1447.02V228.166ZM1447.71 264.001V263.001H1446.47L1446.73 264.21L1447.71 264.001ZM1548.96 228.166V229.166H1550.11L1549.95 228.022L1548.96 228.166ZM1803.98 162.836L1803.23 163.502L1804.98 165.457V162.836H1803.98ZM1806.33 328.559L1807.33 328.545L1807.29 325.815L1805.56 327.924L1806.33 328.559ZM-73.502 352.604V140.744H-75.502V352.604H-73.502ZM-74.502 141.744H-17.1712V139.744H-74.502V141.744ZM4.8772 150.273C18.2874 142.504 34.6503 138.593 54.0112 138.593V136.593C34.3822 136.593 17.6548 140.559 3.87463 148.542L4.8772 150.273ZM53.0112 137.593V194.3H55.0112V137.593H53.0112ZM54.113 193.305C51.5222 193.04 49.1788 192.906 47.0854 192.906V194.906C49.0962 194.906 51.37 195.035 53.9094 195.294L54.113 193.305ZM47.2123 192.914C45.1136 192.645 42.8906 192.512 40.5443 192.512V194.512C42.8153 194.512 44.953 194.641 46.9585 194.898L47.2123 192.914ZM40.5443 192.512C23.9161 192.512 10.3169 197.438 -0.159241 207.356L1.21576 208.809C11.2607 199.299 24.3388 194.512 40.5443 194.512V192.512ZM-0.158478 207.355C-10.4404 217.069 -15.4778 232.221 -15.4778 252.581H-13.4778C-13.4778 232.512 -8.51114 217.998 1.215 208.809L-0.158478 207.355ZM-15.4778 252.581V352.604H-13.4778V252.581H-15.4778ZM-14.4778 351.604H-74.502V353.604H-14.4778V351.604ZM194.395 354.755C172.482 354.755 153.028 350.062 136.007 340.702L135.043 342.454C152.395 351.996 172.188 356.755 194.395 356.755V354.755ZM136.013 340.705C119.23 331.336 105.89 318.592 95.9765 302.463L94.2726 303.51C104.368 319.935 117.961 332.918 135.038 342.451L136.013 340.705ZM95.9861 302.479C86.3376 286.108 81.5033 267.515 81.5033 246.674H79.5033C79.5033 267.838 84.4165 286.787 94.263 303.494L95.9861 302.479ZM81.5033 246.674C81.5033 225.568 86.3388 206.979 95.9825 190.875L94.2666 189.848C84.4153 206.298 79.5033 225.251 79.5033 246.674H81.5033ZM95.9802 190.879C105.893 174.491 119.229 161.752 136.002 152.649L135.048 150.891C117.962 160.165 104.364 173.153 94.2689 189.844L95.9802 190.879ZM136.007 152.646C153.028 143.286 172.482 138.593 194.395 138.593V136.593C172.188 136.593 152.395 141.352 135.043 150.894L136.007 152.646ZM194.395 138.593C216.05 138.593 235.376 143.285 252.399 152.646L253.362 150.894C236.012 141.353 216.348 136.593 194.395 136.593V138.593ZM252.409 152.652C269.44 161.757 282.772 174.365 292.423 190.482L294.139 189.454C284.296 173.018 270.694 160.16 253.352 150.888L252.409 152.652ZM292.423 190.482C302.066 206.583 306.903 225.303 306.903 246.674H308.903C308.903 224.991 303.992 205.906 294.139 189.454L292.423 190.482ZM306.903 246.674C306.903 267.515 302.068 286.108 292.42 302.479L294.143 303.494C303.989 286.787 308.903 267.838 308.903 246.674H306.903ZM292.423 302.473C282.77 318.592 269.435 331.333 252.399 340.702L253.362 342.454C270.699 332.921 284.298 319.934 294.139 303.5L292.423 302.473ZM252.399 340.702C235.376 350.063 216.05 354.755 194.395 354.755V356.755C216.348 356.755 236.012 351.995 253.362 342.454L252.399 340.702ZM194.395 306.349C204.564 306.349 213.721 303.945 221.84 299.121L220.819 297.401C213.034 302.027 204.235 304.349 194.395 304.349V306.349ZM221.84 299.121C229.959 294.296 236.368 287.462 241.066 278.648L239.301 277.707C234.764 286.22 228.604 292.775 220.819 297.401L221.84 299.121ZM241.071 278.637C245.776 269.543 248.109 258.878 248.109 246.674H246.109C246.109 258.622 243.825 268.96 239.295 277.718L241.071 278.637ZM248.109 246.674C248.109 234.212 245.777 223.541 241.066 214.7L239.301 215.641C243.823 224.127 246.109 234.458 246.109 246.674H248.109ZM241.066 214.7C236.368 205.886 229.959 199.052 221.84 194.228L220.819 195.947C228.604 200.573 234.764 207.129 239.301 215.641L241.066 214.7ZM221.84 194.228C213.721 189.403 204.564 186.999 194.395 186.999V188.999C204.235 188.999 213.034 191.321 220.819 195.947L221.84 194.228ZM194.395 186.999C184.227 186.999 175.07 189.403 166.951 194.228L167.972 195.947C175.757 191.321 184.556 188.999 194.395 188.999V186.999ZM166.951 194.228C158.837 199.049 152.304 205.876 147.351 214.68L149.094 215.661C153.889 207.138 160.182 200.576 167.972 195.947L166.951 194.228ZM147.34 214.7C142.629 223.541 140.297 234.212 140.297 246.674H142.297C142.297 234.458 144.583 224.127 149.105 215.641L147.34 214.7ZM140.297 246.674C140.297 258.878 142.631 269.543 147.335 278.637L149.111 277.718C144.581 268.96 142.297 258.622 142.297 246.674H140.297ZM147.351 278.668C152.304 287.472 158.837 294.299 166.951 299.121L167.972 297.401C160.182 292.772 153.889 286.21 149.094 277.687L147.351 278.668ZM166.951 299.121C175.07 303.945 184.227 306.349 194.395 306.349V304.349C184.556 304.349 175.757 302.027 167.972 297.401L166.951 299.121ZM478.076 354.755C460.789 354.755 445.71 350.854 432.804 343.084L431.773 344.798C445.032 352.78 460.478 356.755 478.076 356.755V354.755ZM431.65 150.264C444.549 142.499 460.01 138.593 478.076 138.593V136.593C459.717 136.593 443.884 140.564 430.619 148.551L431.65 150.264ZM478.076 138.593C497.407 138.593 514.67 143.147 529.892 152.235L530.917 150.518C515.358 141.229 497.735 136.593 478.076 136.593V138.593ZM529.909 152.245C545.392 161.077 557.575 173.542 566.467 189.663L568.219 188.697C559.155 172.265 546.713 159.528 530.9 150.508L529.909 152.245ZM566.473 189.674C575.608 205.775 580.195 224.764 580.195 246.674H582.195C582.195 224.48 577.547 205.139 568.213 188.687L566.473 189.674ZM580.195 246.674C580.195 268.849 575.607 287.968 566.473 304.068L568.213 305.055C577.548 288.601 582.195 269.129 582.195 246.674H580.195ZM566.467 304.079C557.575 320.2 545.392 332.665 529.909 341.497L530.9 343.234C546.713 334.214 559.155 321.477 568.219 305.045L566.467 304.079ZM529.903 341.501C514.679 350.33 497.412 354.755 478.076 354.755V356.755C497.73 356.755 515.349 352.253 530.907 343.231L529.903 341.501ZM356.719 429V140.744H354.719V429H356.719ZM355.719 141.744H415.743V139.744H355.719V141.744ZM415.743 428H355.719V430H415.743V428ZM467.687 306.349C477.856 306.349 486.89 303.945 494.76 299.113L493.713 297.409C486.192 302.027 477.527 304.349 467.687 304.349V306.349ZM494.747 299.121C502.866 294.296 509.275 287.462 513.973 278.648L512.208 277.707C507.671 286.22 501.511 292.775 493.726 297.401L494.747 299.121ZM513.968 278.657C518.936 269.559 521.401 258.886 521.401 246.674H519.401C519.401 258.614 516.992 268.945 512.213 277.698L513.968 278.657ZM521.401 246.674C521.401 234.204 518.938 223.526 513.962 214.68L512.219 215.661C516.99 224.143 519.401 234.466 519.401 246.674H521.401ZM513.973 214.7C509.275 205.886 502.866 199.052 494.747 194.228L493.726 195.947C501.511 200.573 507.671 207.129 512.208 215.641L513.973 214.7ZM494.76 194.235C486.89 189.403 477.856 186.999 467.687 186.999V188.999C477.527 188.999 486.192 191.321 493.713 195.939L494.76 194.235ZM467.687 186.999C457.519 186.999 448.362 189.403 440.243 194.228L441.264 195.947C449.049 191.321 457.848 188.999 467.687 188.999V186.999ZM440.243 194.228C432.124 199.052 425.715 205.886 421.017 214.7L422.782 215.641C427.319 207.129 433.479 200.573 441.264 195.947L440.243 194.228ZM421.017 214.7C416.306 223.541 413.974 234.212 413.974 246.674H415.974C415.974 234.458 418.26 224.127 422.782 215.641L421.017 214.7ZM421.017 278.648C425.715 287.462 432.124 294.296 440.243 299.121L441.264 297.401C433.479 292.775 427.319 286.22 422.782 277.707L421.017 278.648ZM440.243 299.121C448.362 303.945 457.519 306.349 467.687 306.349V304.349C457.848 304.349 449.049 302.027 441.264 297.401L440.243 299.121ZM630.071 355.755V18.7207H628.071V355.755H630.071ZM629.071 19.7207H689.095V17.7207H629.071V19.7207ZM688.095 18.7207V355.755H690.095V18.7207H688.095ZM689.095 354.755H629.071V356.755H689.095V354.755ZM753.498 352.604V99.0544H751.498V352.604H753.498ZM752.498 100.054H812.523V98.0544H752.498V100.054ZM811.523 99.0544V352.604H813.523V99.0544H811.523ZM812.523 351.604H752.498V353.604H812.523V351.604ZM782.51 68.5199C771.693 68.5199 762.976 65.309 756.264 58.9493L754.889 60.401C762.029 67.1677 771.267 70.5199 782.51 70.5199V68.5199ZM756.264 58.9493C749.542 52.5787 746.188 44.7046 746.188 35.26H744.188C744.188 45.2425 747.76 53.6451 754.889 60.401L756.264 58.9493ZM746.188 35.26C746.188 25.8154 749.542 17.9412 756.264 11.5707L754.889 10.119C747.76 16.8748 744.188 25.2775 744.188 35.26H746.188ZM756.264 11.5707C762.976 5.21093 771.693 2 782.51 2V0C771.267 0 762.029 3.3523 754.889 10.119L756.264 11.5707ZM782.51 2C793.339 2 802.062 5.08671 808.772 11.1907L810.118 9.71134C802.976 3.21399 793.742 0 782.51 0V2ZM808.788 11.2048C815.482 17.0411 818.833 24.6353 818.833 34.0786H820.833C820.833 24.0948 817.259 15.9373 810.102 9.69729L808.788 11.2048ZM818.833 34.0786C818.833 44.0653 815.467 52.3359 808.743 58.9629L810.147 60.3874C817.274 53.3629 820.833 44.5692 820.833 34.0786H818.833ZM808.743 58.9624C802.298 65.3046 793.592 68.5199 782.51 68.5199V70.5199C794.002 70.5199 803.252 67.172 810.146 60.3879L808.743 58.9624ZM1001.75 138.593C1018.02 138.593 1032.48 141.976 1045.14 148.715L1046.08 146.949C1033.09 140.037 1018.3 136.593 1001.75 136.593V138.593ZM1045.16 148.726C1058.04 155.189 1068.16 165.273 1075.51 179.019L1077.27 178.076C1069.74 163.995 1059.34 153.601 1046.06 146.938L1045.16 148.726ZM1075.51 179.026C1082.85 192.485 1086.55 209.895 1086.55 231.316H1088.55C1088.55 209.683 1084.81 191.913 1077.27 178.069L1075.51 179.026ZM1086.55 231.316V352.604H1088.55V231.316H1086.55ZM1087.55 351.604H1027.53V353.604H1087.55V351.604ZM1028.53 352.604V240.767H1026.53V352.604H1028.53ZM1028.53 240.767C1028.53 223.585 1024.78 210.689 1017.11 202.288L1015.63 203.638C1022.83 211.513 1026.53 223.821 1026.53 240.767H1028.53ZM1017.12 202.301C1009.7 193.9 999.14 189.756 985.585 189.756V191.756C998.708 191.756 1008.67 195.75 1015.62 203.625L1017.12 202.301ZM985.585 189.756C975.941 189.756 967.181 191.891 959.327 196.178L960.285 197.934C967.821 193.82 976.247 191.756 985.585 191.756V189.756ZM959.338 196.172C951.697 200.217 945.661 206.546 941.219 215.104L942.994 216.025C947.273 207.781 953.036 201.771 960.274 197.94L959.338 196.172ZM941.208 215.125C937.015 223.707 934.95 234.634 934.95 247.855H936.95C936.95 234.824 938.989 224.224 943.005 216.003L941.208 215.125ZM934.95 247.855V352.604H936.95V247.855H934.95ZM935.95 351.604H875.926V353.604H935.95V351.604ZM876.926 352.604V140.744H874.926V352.604H876.926ZM875.926 141.744H933.256V139.744H875.926V141.744ZM954.901 149.89C968.588 142.367 984.194 138.593 1001.75 138.593V136.593C983.898 136.593 967.954 140.433 953.937 148.137L954.901 149.89ZM1297.4 141.744H1368.97V139.744H1297.4V141.744ZM1150.65 352.604V18.7207H1148.65V352.604H1150.65ZM1149.65 19.7207H1209.68V17.7207H1149.65V19.7207ZM1209.68 351.604H1149.65V353.604H1209.68V351.604ZM1376.67 351.604H1303.95V353.604H1376.67V351.604ZM1505.45 354.755C1481.98 354.755 1461.37 350.057 1443.58 340.693L1442.65 342.463C1460.77 352.001 1481.71 356.755 1505.45 356.755V354.755ZM1443.59 340.696C1426.04 331.325 1412.45 318.585 1402.8 302.473L1401.09 303.5C1410.93 319.942 1424.79 332.929 1442.64 342.46L1443.59 340.696ZM1402.81 302.479C1393.16 286.108 1388.32 267.515 1388.32 246.674H1386.32C1386.32 267.838 1391.24 286.787 1401.08 303.494L1402.81 302.479ZM1388.32 246.674C1388.32 225.563 1393.03 206.97 1402.42 190.865L1400.7 189.858C1391.11 206.307 1386.32 225.255 1386.32 246.674H1388.32ZM1402.42 190.869C1412.08 174.483 1425.16 161.747 1441.67 152.646L1440.71 150.894C1423.88 160.17 1410.54 173.162 1400.7 189.854L1402.42 190.869ZM1441.69 152.64C1458.19 143.282 1476.87 138.593 1497.75 138.593V136.593C1476.56 136.593 1457.54 141.356 1440.7 150.9L1441.69 152.64ZM1497.75 138.593C1517.87 138.593 1535.91 143.021 1551.91 151.858L1552.87 150.107C1536.55 141.092 1518.17 136.593 1497.75 136.593V138.593ZM1551.92 151.867C1568.17 160.439 1580.99 172.904 1590.38 189.284L1592.12 188.289C1582.54 171.59 1569.45 158.852 1552.86 150.098L1551.92 151.867ZM1590.39 189.29C1599.77 205.385 1604.49 224.761 1604.49 247.462H1606.49C1606.49 224.482 1601.71 204.742 1592.12 188.283L1590.39 189.29ZM1604.49 247.462C1604.49 249.79 1604.36 252.518 1604.11 255.65L1606.1 255.812C1606.36 252.643 1606.49 249.859 1606.49 247.462H1604.49ZM1604.11 255.643C1603.85 258.528 1603.6 261.281 1603.34 263.904L1605.33 264.098C1605.59 261.47 1605.84 258.71 1606.1 255.82L1604.11 255.643ZM1544.04 209.579C1539.59 201.284 1533.44 194.844 1525.57 190.284L1524.57 192.014C1532.1 196.381 1538 202.542 1542.27 210.524L1544.04 209.579ZM1525.6 190.297C1517.72 185.462 1508.56 183.061 1498.14 183.061V185.061C1508.24 185.061 1517.03 187.385 1524.55 192.001L1525.6 190.297ZM1498.14 183.061C1487.72 183.061 1478.43 185.462 1470.31 190.29L1471.33 192.009C1479.11 187.385 1488.04 185.061 1498.14 185.061V183.061ZM1470.32 190.284C1462.45 194.849 1456.29 201.426 1451.85 209.984L1453.62 210.906C1457.9 202.662 1463.8 196.376 1471.32 192.014L1470.32 190.284ZM1452.64 280.262C1457.87 289.086 1465.06 295.91 1474.2 300.721L1475.13 298.951C1466.32 294.311 1459.4 287.746 1454.37 279.243L1452.64 280.262ZM1474.23 300.736C1483.63 305.277 1494.55 307.531 1506.99 307.531V305.531C1494.8 305.531 1484.18 303.321 1475.1 298.936L1474.23 300.736ZM1506.99 307.531C1518.12 307.531 1527.87 305.809 1536.23 302.335L1535.46 300.488C1527.4 303.84 1517.92 305.531 1506.99 305.531V307.531ZM1536.22 302.339C1544.81 298.873 1552.62 293.678 1559.63 286.766L1558.23 285.341C1551.39 292.08 1543.81 297.123 1535.47 300.484L1536.22 302.339ZM1558.19 286.723L1590.12 322.164L1591.61 320.825L1559.67 285.384L1558.19 286.723ZM1590.11 320.842C1580.73 331.743 1568.93 340.187 1554.7 346.169L1555.47 348.013C1569.97 341.919 1582.03 333.299 1591.63 322.147L1590.11 320.842ZM1554.71 346.163C1540.49 351.883 1524.07 354.755 1505.45 354.755V356.755C1524.28 356.755 1540.95 353.851 1555.46 348.019L1554.71 346.163ZM1742.03 354.755C1722.69 354.755 1705.29 350.33 1689.81 341.497L1688.82 343.234C1704.63 352.253 1722.37 356.755 1742.03 356.755V354.755ZM1689.82 341.503C1674.33 332.407 1662.01 319.803 1652.86 303.674L1651.12 304.661C1660.44 321.086 1673 333.948 1688.81 343.228L1689.82 341.503ZM1652.87 303.685C1643.98 287.581 1639.52 268.589 1639.52 246.674H1637.52C1637.52 268.864 1642.04 288.201 1651.12 304.651L1652.87 303.685ZM1639.52 246.674C1639.52 224.494 1643.99 205.371 1652.87 189.27L1651.12 188.304C1642.04 204.755 1637.52 224.224 1637.52 246.674H1639.52ZM1652.86 189.28C1662.01 173.153 1674.32 160.684 1689.81 151.851L1688.82 150.114C1673.01 159.132 1660.44 171.866 1651.12 188.293L1652.86 189.28ZM1689.81 151.851C1705.29 143.018 1722.69 138.593 1742.03 138.593V136.593C1722.37 136.593 1704.63 141.095 1688.82 150.114L1689.81 151.851ZM1742.03 138.593C1759.32 138.593 1774.39 142.495 1787.3 150.264L1788.33 148.551C1775.07 140.568 1759.63 136.593 1742.03 136.593V138.593ZM1788.06 343.089C1775.42 350.849 1760.09 354.755 1742.03 354.755V356.755C1760.39 356.755 1776.09 352.784 1789.11 344.793L1788.06 343.089ZM1752.42 306.349C1762.33 306.349 1771.36 303.943 1779.48 299.121L1778.46 297.401C1770.67 302.03 1761.99 304.349 1752.42 304.349V306.349ZM1779.48 299.121C1787.6 294.296 1794 287.462 1798.7 278.648L1796.94 277.707C1792.4 286.22 1786.24 292.775 1778.46 297.401L1779.48 299.121ZM1798.7 278.657C1803.67 269.559 1806.13 258.886 1806.13 246.674H1804.13C1804.13 258.614 1801.72 268.945 1796.94 277.698L1798.7 278.657ZM1806.13 246.674C1806.13 234.204 1803.67 223.526 1798.69 214.68L1796.95 215.661C1801.72 224.143 1804.13 234.466 1804.13 246.674H1806.13ZM1798.7 214.7C1794 205.886 1787.6 199.052 1779.48 194.228L1778.46 195.947C1786.24 200.573 1792.4 207.129 1796.94 215.641L1798.7 214.7ZM1779.48 194.228C1771.36 189.405 1762.33 186.999 1752.42 186.999V188.999C1761.99 188.999 1770.67 191.318 1778.46 195.947L1779.48 194.228ZM1752.42 186.999C1742.25 186.999 1733.09 189.403 1724.97 194.228L1725.99 195.947C1733.78 191.321 1742.58 188.999 1752.42 188.999V186.999ZM1724.97 194.228C1716.86 199.049 1710.33 205.876 1705.37 214.68L1707.12 215.661C1711.91 207.138 1718.2 200.576 1725.99 195.947L1724.97 194.228ZM1705.36 214.7C1700.65 223.541 1698.32 234.212 1698.32 246.674H1700.32C1700.32 234.458 1702.6 224.127 1707.13 215.641L1705.36 214.7ZM1698.32 246.674C1698.32 258.878 1700.65 269.543 1705.36 278.637L1707.13 277.718C1702.6 268.96 1700.32 258.622 1700.32 246.674H1698.32ZM1705.37 278.668C1710.33 287.472 1716.86 294.299 1724.97 299.121L1725.99 297.401C1718.2 292.772 1711.91 286.21 1707.12 277.687L1705.37 278.668ZM1724.97 299.121C1733.09 303.945 1742.25 306.349 1752.42 306.349V304.349C1742.58 304.349 1733.78 302.027 1725.99 297.401L1724.97 299.121ZM1803.98 19.7207H1864V17.7207H1803.98V19.7207ZM1863 18.7207V352.604H1865V18.7207H1863ZM1864 351.604H1806.67V353.604H1864V351.604ZM-250.398 351.607C-312.012 351.607 -362 300.481 -362 237.364H-364C-364 301.541 -313.16 353.607 -250.398 353.607V351.607ZM-362 237.364C-362 174.248 -312.012 123.122 -250.398 123.122V121.122C-313.16 121.122 -364 173.187 -364 237.364H-362ZM-197.775 16.5727H-137.796V14.5727H-197.775V16.5727ZM-138.796 15.5727V352.607H-136.796V15.5727H-138.796ZM-198.775 237.943V291.221H-196.775V237.943H-198.775ZM-197.775 290.221H-249.832V292.221H-197.775V290.221ZM-249.832 290.221C-278.009 290.221 -300.889 266.838 -300.889 237.943H-302.889C-302.889 267.898 -279.157 292.221 -249.832 292.221V290.221ZM-249.832 185.666C-221.656 185.666 -198.775 209.049 -198.775 237.943H-196.775C-196.775 207.989 -220.508 183.666 -249.832 183.666V185.666ZM-249.832 183.666C-279.157 183.666 -302.889 207.989 -302.889 237.943H-300.889C-300.889 209.049 -278.009 185.666 -249.832 185.666V183.666ZM-196.775 135.455V15.5727H-198.775V135.455H-196.775ZM-250.398 123.122C-231.56 123.122 -213.815 127.899 -198.252 136.334L-197.299 134.576C-213.146 125.987 -231.218 121.122 -250.398 121.122V123.122ZM-137.796 351.607H-250.398V353.607H-137.796V351.607ZM-16.3584 169.144C-10.7901 161.374 -3.7196 155.087 4.86453 150.28L3.8873 148.535C-4.94556 153.481 -12.2399 159.964 -17.9841 167.979L-16.3584 169.144ZM-18.1712 140.744V168.562H-16.1712V140.744H-18.1712ZM414.743 140.744V161.661H416.743V140.744H414.743ZM416.521 162.29C421.574 156.051 424.765 154.409 431.65 150.264L430.619 148.551C423.745 152.689 420.267 154.487 414.966 161.031L416.521 162.29ZM414.743 330.174V429H416.743V330.174H414.743ZM432.804 343.084C426.757 339.443 421.319 334.919 416.49 329.508L414.997 330.84C419.957 336.397 425.549 341.051 431.773 344.798L432.804 343.084ZM422.788 277.718C418.545 269.515 416.272 259.926 416.002 248.926L414.002 248.975C414.279 260.223 416.606 270.12 421.012 278.637L422.788 277.718ZM413.974 246.674C413.974 247.447 413.983 248.214 414.002 248.975L416.002 248.926C415.983 248.182 415.974 247.431 415.974 246.674H413.974ZM934.008 166.568C939.868 159.885 946.83 154.326 954.901 149.89L953.937 148.137C945.669 152.681 938.523 158.386 932.504 165.25L934.008 166.568ZM932.256 140.744V165.909H934.256V140.744H932.256ZM1208.68 18.7207V225.878H1210.68V18.7207H1208.68ZM1210.37 226.596L1298.1 141.461L1296.71 140.026L1208.98 225.161L1210.37 226.596ZM1208.68 298.834V352.604H1210.68V298.834H1208.68ZM1281.97 231.052L1375.87 353.214L1377.46 351.995L1283.55 229.833L1281.97 231.052ZM1368.25 140.051L1282.04 229.749L1283.48 231.135L1369.69 141.437L1368.25 140.051ZM1238.92 270.1L1208.99 298.103L1210.36 299.564L1240.28 271.56L1238.92 270.1ZM1304.73 351.986L1240.39 270.212L1238.82 271.449L1303.16 353.223L1304.73 351.986ZM1451.85 209.973C1448.98 215.335 1447.04 221.353 1446.03 228.015L1448.01 228.316C1448.99 221.853 1450.86 216.057 1453.62 210.917L1451.85 209.973ZM1446.73 264.21C1447.96 269.941 1449.92 275.283 1452.63 280.232L1454.38 279.273C1451.78 274.5 1449.88 269.341 1448.69 263.791L1446.73 264.21ZM1604.33 263.001H1447.71V265.001H1604.33V263.001ZM1447.02 229.166H1548.96V227.166H1447.02V229.166ZM1549.95 228.022C1548.96 221.244 1546.99 215.093 1544.04 209.579L1542.27 210.524C1545.11 215.814 1547.01 221.739 1547.97 228.31L1549.95 228.022ZM1804.98 162.836V18.7207H1802.98V162.836H1804.98ZM1787.3 150.264C1793.22 153.829 1798.53 158.241 1803.23 163.502L1804.72 162.17C1799.89 156.762 1794.43 152.221 1788.33 148.551L1787.3 150.264ZM1805.33 328.573L1805.67 352.618L1807.67 352.59L1807.33 328.545L1805.33 328.573ZM1805.56 327.924C1800.53 334.042 1794.7 339.093 1788.07 343.084L1789.1 344.798C1795.93 340.687 1801.93 335.484 1807.1 329.194L1805.56 327.924Z" fill="#242424" mask="url(#path-1-outside-1_10659_475)"/>
</svg>
