<svg width="140" height="85" viewBox="0 0 140 85" fill="none" xmlns="http://www.w3.org/2000/svg">
<path d="M20.4117 70.1021C20.3102 69.5592 20.6679 69.0367 21.2108 68.9349L25.1284 68.2005C25.6712 68.0988 26.1936 68.4563 26.2951 68.9992L27.029 72.9236C27.1306 73.4665 26.7728 73.9891 26.23 74.0908L22.3124 74.8252C21.7695 74.927 21.2472 74.5694 21.1457 74.0265L20.4117 70.1021Z" fill="#A4A4A4"/>
<path d="M31.0018 68.1169C30.9003 67.574 31.258 67.0515 31.8009 66.9497L35.7185 66.2153C36.2613 66.1136 36.7837 66.4711 36.8852 67.014L37.6191 70.9384C37.7206 71.4813 37.3629 72.0038 36.8201 72.1056L32.9025 72.84C32.3596 72.9418 31.8373 72.5842 31.7357 72.0413L31.0018 68.1169Z" fill="#A4A4A4"/>
<path d="M41.5919 66.1317C41.4904 65.5888 41.8481 65.0663 42.3909 64.9645L46.3086 64.2301C46.8514 64.1283 47.3737 64.4859 47.4753 65.0288L48.2092 68.9532C48.3107 69.4961 47.953 70.0186 47.4102 70.1204L43.4925 70.8548C42.9497 70.9566 42.4274 70.599 42.3258 70.0561L41.5919 66.1317Z" fill="#A4A4A4"/>
<path d="M52.182 64.1465C52.0804 63.6036 52.4382 63.0811 52.981 62.9793L56.8986 62.2449C57.4415 62.1431 57.9638 62.5007 58.0654 63.0436L58.7993 66.968C58.9008 67.5109 58.5431 68.0334 58.0002 68.1352L54.0826 68.8696C53.5398 68.9713 53.0174 68.6138 52.9159 68.0709L52.182 64.1465Z" fill="#A4A4A4"/>
<path d="M62.7721 62.1613C62.6705 61.6184 63.0283 61.0958 63.5711 60.9941L67.4887 60.2597C68.0316 60.1579 68.5539 60.5155 68.6554 61.0584L69.3894 64.9828C69.4909 65.5257 69.1332 66.0482 68.5903 66.15L64.6727 66.8844C64.1299 66.9861 63.6075 66.6286 63.506 66.0857L62.7721 62.1613Z" fill="#A4A4A4"/>
<path d="M73.3621 60.1761C73.2606 59.6332 73.6184 59.1106 74.1612 59.0089L78.0788 58.2745C78.6216 58.1727 79.144 58.5303 79.2455 59.0732L79.9795 62.9976C80.081 63.5405 79.7232 64.063 79.1804 64.1648L75.2628 64.8992C74.72 65.0009 74.1976 64.6433 74.0961 64.1005L73.3621 60.1761Z" fill="#A4A4A4"/>
<path d="M83.9522 58.1909C83.8507 57.648 84.2084 57.1254 84.7513 57.0237L88.6689 56.2893C89.2117 56.1875 89.7341 56.5451 89.8356 57.088L90.5695 61.0124C90.6711 61.5553 90.3133 62.0778 89.7705 62.1796L85.8529 62.914C85.31 63.0157 84.7877 62.6581 84.6862 62.1153L83.9522 58.1909Z" fill="#A4A4A4"/>
<path d="M82.1897 48.7664C82.0881 48.2235 82.4459 47.701 82.9887 47.5992L86.9063 46.8648C87.4492 46.7631 87.9715 47.1207 88.073 47.6635L88.807 51.5879C88.9085 52.1308 88.5508 52.6534 88.0079 52.7551L84.0903 53.4895C83.5475 53.5913 83.0251 53.2337 82.9236 52.6908L82.1897 48.7664Z" fill="#A4A4A4"/>
<path d="M71.5996 50.7516C71.4981 50.2088 71.8558 49.6862 72.3986 49.5844L76.3163 48.85C76.8591 48.7483 77.3814 49.1059 77.483 49.6487L78.2169 53.5731C78.3184 54.116 77.9607 54.6386 77.4179 54.7403L73.5002 55.4747C72.9574 55.5765 72.435 55.2189 72.3335 54.676L71.5996 50.7516Z" fill="#A4A4A4"/>
<path d="M61.0095 52.7368C60.908 52.194 61.2657 51.6714 61.8086 51.5696L65.7262 50.8352C66.269 50.7335 66.7914 51.0911 66.8929 51.6339L67.6268 55.5583C67.7283 56.1012 67.3706 56.6238 66.8278 56.7255L62.9101 57.4599C62.3673 57.5617 61.845 57.2041 61.7434 56.6612L61.0095 52.7368Z" fill="#FF0000"/>
<path d="M50.4194 54.722C50.3179 54.1792 50.6756 53.6566 51.2185 53.5548L55.1361 52.8204C55.6789 52.7187 56.2013 53.0763 56.3028 53.6191L57.0367 57.5435C57.1383 58.0864 56.7805 58.609 56.2377 58.7107L52.3201 59.4451C51.7772 59.5469 51.2549 59.1893 51.1534 58.6464L50.4194 54.722Z" fill="#A4A4A4"/>
<path d="M39.8293 56.7072C39.7278 56.1644 40.0856 55.6418 40.6284 55.54L44.546 54.8056C45.0888 54.7039 45.6112 55.0615 45.7127 55.6043L46.4467 59.5287C46.5482 60.0716 46.1904 60.5942 45.6476 60.6959L41.73 61.4303C41.1872 61.5321 40.6648 61.1745 40.5633 60.6316L39.8293 56.7072Z" fill="#A4A4A4"/>
<path d="M29.2393 58.6924C29.1377 58.1496 29.4955 57.627 30.0383 57.5252L33.9559 56.7908C34.4988 56.6891 35.0211 57.0467 35.1226 57.5895L35.8566 61.5139C35.9581 62.0568 35.6004 62.5794 35.0575 62.6811L31.1399 63.4155C30.5971 63.5173 30.0747 63.1597 29.9732 62.6168L29.2393 58.6924Z" fill="#A4A4A4"/>
<path d="M18.6492 60.6776C18.5476 60.1348 18.9054 59.6122 19.4482 59.5104L23.3658 58.776C23.9087 58.6743 24.431 59.0319 24.5326 59.5747L25.2665 63.4991C25.368 64.042 25.0103 64.5646 24.4674 64.6663L20.5498 65.4007C20.007 65.5025 19.4846 65.1449 19.3831 64.602L18.6492 60.6776Z" fill="#A4A4A4"/>
<path d="M16.8866 51.2532C16.7851 50.7103 17.1428 50.1877 17.6857 50.086L21.6033 49.3516C22.1461 49.2498 22.6685 49.6074 22.77 50.1503L23.5039 54.0747C23.6055 54.6175 23.2477 55.1401 22.7049 55.2419L18.7873 55.9763C18.2444 56.078 17.7221 55.7204 17.6206 55.1775L16.8866 51.2532Z" fill="#A4A4A4"/>
<path d="M27.4767 49.268C27.3752 48.7251 27.7329 48.2025 28.2758 48.1007L32.1934 47.3664C32.7362 47.2646 33.2586 47.6222 33.3601 48.1651L34.094 52.0895C34.1955 52.6323 33.8378 53.1549 33.295 53.2567L29.3773 53.9911C28.8345 54.0928 28.3122 53.7352 28.2106 53.1923L27.4767 49.268Z" fill="#A4A4A4"/>
<path d="M38.0668 47.2828C37.9653 46.7399 38.323 46.2173 38.8658 46.1155L42.7835 45.3812C43.3263 45.2794 43.8486 45.637 43.9502 46.1799L44.6841 50.1042C44.7856 50.6471 44.4279 51.1697 43.8851 51.2715L39.9674 52.0058C39.4246 52.1076 38.9022 51.75 38.8007 51.2071L38.0668 47.2828Z" fill="#A4A4A4"/>
<path fill-rule="evenodd" clip-rule="evenodd" d="M12.3188 78.9276C12.8265 81.642 15.4383 83.43 18.1524 82.9212L96.5743 68.2203C99.2884 67.7115 101.077 65.0986 100.57 62.3843L92.6759 20.1767L4.42524 36.7201L12.3188 78.9276ZM21.0074 40.7258C20.9059 40.1829 20.3836 39.8253 19.8407 39.9271L15.9231 40.6615C15.3803 40.7632 15.0225 41.2858 15.1241 41.8287L15.858 45.7531C15.9595 46.2959 16.4819 46.6535 17.0247 46.5518L20.9423 45.8174C21.4852 45.7156 21.8429 45.193 21.7414 44.6502L21.0074 40.7258ZM31.5975 38.7406C31.496 38.1977 30.9736 37.8401 30.4308 37.9419L26.5132 38.6763C25.9704 38.778 25.6126 39.3006 25.7142 39.8435L26.4481 43.7679C26.5496 44.3107 27.072 44.6683 27.6148 44.5666L31.5324 43.8322C32.0752 43.7304 32.433 43.2078 32.3315 42.665L31.5975 38.7406ZM42.1876 36.7554C42.0861 36.2125 41.5637 35.8549 41.0209 35.9567L37.1033 36.6911C36.5605 36.7928 36.2027 37.3154 36.3042 37.8583L37.0382 41.7827C37.1397 42.3255 37.662 42.6831 38.2049 42.5814L42.1225 41.847C42.6653 41.7452 43.0231 41.2226 42.9215 40.6798L42.1876 36.7554ZM52.7777 34.7702C52.6762 34.2273 52.1538 33.8697 51.611 33.9715L47.6934 34.7059C47.1505 34.8076 46.7928 35.3302 46.8943 35.8731L47.6282 39.7975C47.7298 40.3403 48.2521 40.6979 48.795 40.5962L52.7126 39.8618C53.2554 39.76 53.6132 39.2374 53.5116 38.6946L52.7777 34.7702ZM63.3678 32.785C63.2662 32.2421 62.7439 31.8845 62.2011 31.9863L58.2834 32.7207C57.7406 32.8224 57.3829 33.345 57.4844 33.8879L58.2183 37.8123C58.3199 38.3551 58.8422 38.7127 59.385 38.611L63.3027 37.8766C63.8455 37.7748 64.2032 37.2522 64.1017 36.7094L63.3678 32.785ZM73.9579 30.7998C73.8563 30.2569 73.334 29.8993 72.7912 30.0011L68.8735 30.7355C68.3307 30.8372 67.973 31.3598 68.0745 31.9027L68.8084 35.8271C68.9099 36.3699 69.4323 36.7275 69.9751 36.6258L73.8927 35.8914C74.4356 35.7896 74.7933 35.267 74.6918 34.7242L73.9579 30.7998ZM84.5479 28.8146C84.4464 28.2717 83.9241 27.9141 83.3812 28.0159L79.4636 28.7503C78.9208 28.852 78.563 29.3746 78.6646 29.9175L79.3985 33.8418C79.5 34.3847 80.0224 34.7423 80.5652 34.6406L84.4828 33.9062C85.0257 33.8044 85.3834 33.2818 85.2819 32.739L84.5479 28.8146ZM22.77 50.1503C22.6685 49.6074 22.1461 49.2498 21.6033 49.3516L17.6857 50.086C17.1428 50.1877 16.7851 50.7103 16.8866 51.2532L17.6206 55.1775C17.7221 55.7204 18.2444 56.078 18.7873 55.9763L22.7049 55.2419C23.2477 55.1401 23.6055 54.6175 23.5039 54.0747L22.77 50.1503ZM33.3601 48.1651C33.2586 47.6222 32.7362 47.2646 32.1934 47.3664L28.2758 48.1007C27.7329 48.2025 27.3752 48.7251 27.4767 49.268L28.2106 53.1923C28.3122 53.7352 28.8345 54.0928 29.3773 53.9911L33.295 53.2567C33.8378 53.1549 34.1955 52.6323 34.094 52.0895L33.3601 48.1651ZM43.9502 46.1799C43.8486 45.637 43.3263 45.2794 42.7835 45.3812L38.8658 46.1155C38.323 46.2173 37.9653 46.7399 38.0668 47.2828L38.8007 51.2071C38.9022 51.75 39.4246 52.1076 39.9674 52.0058L43.8851 51.2715C44.4279 51.1697 44.7856 50.6471 44.6841 50.1042L43.9502 46.1799ZM54.5402 44.1947C54.4387 43.6518 53.9164 43.2942 53.3735 43.396L49.4559 44.1303C48.9131 44.2321 48.5553 44.7547 48.6569 45.2975L49.3908 49.2219C49.4923 49.7648 50.0147 50.1224 50.5575 50.0206L54.4751 49.2863C55.018 49.1845 55.3757 48.6619 55.2742 48.119L54.5402 44.1947ZM65.1303 42.2095C65.0288 41.6666 64.5064 41.309 63.9636 41.4107L60.046 42.1451C59.5032 42.2469 59.1454 42.7695 59.2469 43.3123L59.9809 47.2367C60.0824 47.7796 60.6048 48.1372 61.1476 48.0354L65.0652 47.3011C65.608 47.1993 65.9658 46.6767 65.8643 46.1338L65.1303 42.2095ZM75.7204 40.2243C75.6189 39.6814 75.0965 39.3238 74.5537 39.4255L70.6361 40.1599C70.0933 40.2617 69.7355 40.7843 69.837 41.3271L70.571 45.2515C70.6725 45.7944 71.1948 46.152 71.7377 46.0502L75.6553 45.3158C76.1981 45.2141 76.5559 44.6915 76.4543 44.1486L75.7204 40.2243ZM86.3105 38.239C86.209 37.6962 85.6866 37.3386 85.1438 37.4403L81.2262 38.1747C80.6833 38.2765 80.3256 38.7991 80.4271 39.3419L81.1611 43.2663C81.2626 43.8092 81.7849 44.1668 82.3278 44.065L86.2454 43.3306C86.7882 43.2289 87.146 42.7063 87.0444 42.1634L86.3105 38.239ZM24.5326 59.5747C24.431 59.0319 23.9087 58.6743 23.3658 58.776L19.4482 59.5104C18.9054 59.6122 18.5476 60.1348 18.6492 60.6776L19.3831 64.602C19.4846 65.1449 20.007 65.5025 20.5498 65.4007L24.4674 64.6663C25.0103 64.5646 25.368 64.042 25.2665 63.4991L24.5326 59.5747ZM35.1226 57.5895C35.0211 57.0467 34.4988 56.6891 33.9559 56.7908L30.0383 57.5252C29.4955 57.627 29.1377 58.1496 29.2393 58.6924L29.9732 62.6168C30.0747 63.1597 30.5971 63.5173 31.1399 63.4155L35.0575 62.6811C35.6004 62.5794 35.9581 62.0568 35.8566 61.5139L35.1226 57.5895ZM45.7127 55.6043C45.6112 55.0615 45.0888 54.7039 44.546 54.8056L40.6284 55.54C40.0856 55.6418 39.7278 56.1644 39.8293 56.7072L40.5633 60.6316C40.6648 61.1745 41.1872 61.5321 41.73 61.4303L45.6476 60.6959C46.1904 60.5942 46.5482 60.0716 46.4467 59.5287L45.7127 55.6043ZM56.3028 53.6191C56.2013 53.0763 55.6789 52.7187 55.1361 52.8204L51.2185 53.5548C50.6756 53.6566 50.3179 54.1792 50.4194 54.722L51.1534 58.6464C51.2549 59.1893 51.7772 59.5469 52.3201 59.4451L56.2377 58.7107C56.7805 58.609 57.1383 58.0864 57.0367 57.5435L56.3028 53.6191ZM66.8929 51.6339C66.7914 51.0911 66.269 50.7335 65.7262 50.8352L61.8086 51.5696C61.2657 51.6714 60.908 52.194 61.0095 52.7368L61.7434 56.6612C61.845 57.2041 62.3673 57.5617 62.9101 57.4599L66.8278 56.7255C67.3706 56.6238 67.7283 56.1012 67.6268 55.5583L66.8929 51.6339ZM77.483 49.6487C77.3814 49.1059 76.8591 48.7483 76.3163 48.85L72.3986 49.5844C71.8558 49.6862 71.4981 50.2088 71.5996 50.7516L72.3335 54.676C72.435 55.2189 72.9574 55.5765 73.5002 55.4747L77.4179 54.7403C77.9607 54.6386 78.3184 54.116 78.2169 53.5731L77.483 49.6487ZM88.073 47.6635C87.9715 47.1207 87.4492 46.7631 86.9063 46.8648L82.9887 47.5992C82.4459 47.701 82.0881 48.2235 82.1897 48.7664L82.9236 52.6908C83.0251 53.2337 83.5475 53.5913 84.0903 53.4895L88.0079 52.7551C88.5508 52.6534 88.9085 52.1308 88.807 51.5879L88.073 47.6635ZM26.2951 68.9992C26.1936 68.4563 25.6712 68.0988 25.1284 68.2005L21.2108 68.9349C20.6679 69.0367 20.3102 69.5592 20.4117 70.1021L21.1457 74.0265C21.2472 74.5694 21.7695 74.927 22.3124 74.8252L26.23 74.0908C26.7728 73.9891 27.1306 73.4665 27.029 72.9236L26.2951 68.9992ZM36.8852 67.014C36.7837 66.4711 36.2613 66.1136 35.7185 66.2153L31.8009 66.9497C31.258 67.0515 30.9003 67.574 31.0018 68.1169L31.7357 72.0413C31.8373 72.5842 32.3596 72.9418 32.9025 72.84L36.8201 72.1056C37.3629 72.0038 37.7206 71.4813 37.6191 70.9384L36.8852 67.014ZM47.4753 65.0288C47.3737 64.4859 46.8514 64.1283 46.3086 64.2301L42.3909 64.9645C41.8481 65.0663 41.4904 65.5888 41.5919 66.1317L42.3258 70.0561C42.4274 70.599 42.9497 70.9566 43.4925 70.8548L47.4102 70.1204C47.953 70.0186 48.3107 69.4961 48.2092 68.9532L47.4753 65.0288ZM58.0654 63.0436C57.9638 62.5007 57.4415 62.1431 56.8986 62.2449L52.981 62.9793C52.4382 63.0811 52.0804 63.6036 52.182 64.1465L52.9159 68.0709C53.0174 68.6138 53.5398 68.9713 54.0826 68.8696L58.0002 68.1352C58.5431 68.0334 58.9008 67.5109 58.7993 66.968L58.0654 63.0436ZM68.6554 61.0584C68.5539 60.5155 68.0316 60.1579 67.4887 60.2597L63.5711 60.9941C63.0283 61.0958 62.6705 61.6184 62.7721 62.1613L63.506 66.0857C63.6075 66.6286 64.1299 66.9861 64.6727 66.8844L68.5903 66.15C69.1332 66.0482 69.4909 65.5257 69.3894 64.9828L68.6554 61.0584ZM79.2455 59.0732C79.144 58.5303 78.6216 58.1727 78.0788 58.2745L74.1612 59.0089C73.6184 59.1106 73.2606 59.6332 73.3621 60.1761L74.0961 64.1005C74.1976 64.6433 74.72 65.0009 75.2628 64.8992L79.1804 64.1648C79.7232 64.063 80.081 63.5405 79.9795 62.9976L79.2455 59.0732ZM89.8356 57.088C89.7341 56.5451 89.2117 56.1875 88.6689 56.2893L84.7513 57.0237C84.2084 57.1254 83.8507 57.648 83.9522 58.1909L84.6862 62.1153C84.7877 62.6581 85.31 63.0157 85.8529 62.914L89.7705 62.1796C90.3133 62.0778 90.6711 61.5553 90.5695 61.0124L89.8356 57.088Z" fill="white"/>
<path d="M48.6569 45.2975C48.5553 44.7547 48.9131 44.2321 49.4559 44.1303L53.3735 43.396C53.9164 43.2942 54.4387 43.6518 54.5402 44.1947L55.2742 48.119C55.3757 48.6619 55.018 49.1845 54.4751 49.2863L50.5575 50.0206C50.0147 50.1224 49.4923 49.7648 49.3908 49.2219L48.6569 45.2975Z" fill="#A4A4A4"/>
<path d="M59.2469 43.3123C59.1454 42.7695 59.5032 42.2469 60.046 42.1451L63.9636 41.4107C64.5064 41.309 65.0288 41.6666 65.1303 42.2095L65.8643 46.1338C65.9658 46.6767 65.608 47.1993 65.0652 47.3011L61.1476 48.0354C60.6048 48.1372 60.0824 47.7796 59.9809 47.2367L59.2469 43.3123Z" fill="#A4A4A4"/>
<path d="M69.837 41.3271C69.7355 40.7843 70.0933 40.2617 70.6361 40.1599L74.5537 39.4255C75.0965 39.3238 75.6189 39.6814 75.7204 40.2243L76.4543 44.1486C76.5559 44.6915 76.1981 45.2141 75.6553 45.3158L71.7377 46.0502C71.1948 46.152 70.6725 45.7944 70.571 45.2515L69.837 41.3271Z" fill="#A4A4A4"/>
<path d="M80.4271 39.3419C80.3256 38.7991 80.6833 38.2765 81.2262 38.1747L85.1438 37.4403C85.6866 37.3386 86.209 37.6962 86.3105 38.239L87.0444 42.1634C87.146 42.7063 86.7882 43.2289 86.2454 43.3306L82.3278 44.065C81.7849 44.1668 81.2626 43.8092 81.1611 43.2663L80.4271 39.3419Z" fill="#A4A4A4"/>
<path d="M78.6646 29.9175C78.563 29.3746 78.9208 28.852 79.4636 28.7503L83.3812 28.0159C83.9241 27.9141 84.4464 28.2717 84.5479 28.8146L85.2819 32.739C85.3834 33.2818 85.0257 33.8044 84.4828 33.9062L80.5652 34.6406C80.0224 34.7423 79.5 34.3847 79.3985 33.8418L78.6646 29.9175Z" fill="#A4A4A4"/>
<path d="M68.0745 31.9027C67.973 31.3598 68.3307 30.8372 68.8735 30.7355L72.7912 30.0011C73.334 29.8993 73.8563 30.2569 73.9579 30.7998L74.6918 34.7242C74.7933 35.267 74.4356 35.7896 73.8927 35.8914L69.9751 36.6258C69.4323 36.7275 68.9099 36.3699 68.8084 35.8271L68.0745 31.9027Z" fill="#A4A4A4"/>
<path d="M57.4844 33.8879C57.3829 33.345 57.7406 32.8224 58.2834 32.7207L62.2011 31.9863C62.7439 31.8845 63.2662 32.2421 63.3678 32.785L64.1017 36.7094C64.2032 37.2522 63.8455 37.7748 63.3027 37.8766L59.385 38.611C58.8422 38.7127 58.3199 38.3551 58.2183 37.8123L57.4844 33.8879Z" fill="#A4A4A4"/>
<path d="M46.8943 35.8731C46.7928 35.3302 47.1505 34.8076 47.6934 34.7059L51.611 33.9715C52.1538 33.8697 52.6762 34.2273 52.7777 34.7702L53.5116 38.6946C53.6132 39.2374 53.2554 39.76 52.7126 39.8618L48.795 40.5962C48.2521 40.6979 47.7298 40.3403 47.6282 39.7975L46.8943 35.8731Z" fill="#F0EDED"/>
<path d="M36.3042 37.8583C36.2027 37.3154 36.5605 36.7928 37.1033 36.6911L41.0209 35.9567C41.5637 35.8549 42.0861 36.2125 42.1876 36.7554L42.9215 40.6798C43.0231 41.2226 42.6653 41.7452 42.1225 41.847L38.2049 42.5814C37.662 42.6831 37.1397 42.3255 37.0382 41.7827L36.3042 37.8583Z" fill="#F0EDED"/>
<path d="M25.7142 39.8435C25.6126 39.3006 25.9704 38.778 26.5132 38.6763L30.4308 37.9419C30.9736 37.8401 31.496 38.1977 31.5975 38.7406L32.3315 42.665C32.433 43.2078 32.0752 43.7304 31.5324 43.8322L27.6148 44.5666C27.072 44.6683 26.5496 44.3107 26.4481 43.7679L25.7142 39.8435Z" fill="#F0EDED"/>
<path d="M15.1241 41.8287C15.0225 41.2858 15.3803 40.7632 15.9231 40.6615L19.8407 39.9271C20.3836 39.8253 20.9059 40.1829 21.0074 40.7258L21.7414 44.6502C21.8429 45.193 21.4852 45.7156 20.9423 45.8174L17.0247 46.5518C16.4819 46.6535 15.9595 46.2959 15.858 45.7531L15.1241 41.8287Z" fill="#F0EDED"/>
<path fill-rule="evenodd" clip-rule="evenodd" d="M17.2985 20.8939L85.338 8.13929C88.0522 7.6305 90.6639 9.41847 91.1716 12.1328L92.6759 20.1767L4.42524 36.7201L2.92089 28.6762C2.41325 25.9618 4.20198 23.349 6.91612 22.8402L11.4151 21.9968L11.9665 24.9452C12.2704 26.5699 13.8338 27.6402 15.4584 27.3356C17.0831 27.0311 18.1538 25.467 17.8499 23.8423L17.2985 20.8939Z" fill="#FF4D4D"/>
<path d="M11.9665 24.9452C12.2704 26.5699 13.8338 27.6402 15.4584 27.3356C17.0831 27.0311 18.1538 25.467 17.8499 23.8423L17.2985 20.8939L16.5268 16.7675C16.2229 15.1427 14.6596 14.0724 13.0349 14.377C11.4103 14.6815 10.3395 16.2456 10.6434 17.8704L11.4151 21.9968L11.9665 24.9452Z" fill="black"/>
<path d="M33.146 20.9709C33.4502 22.5974 35.0138 23.6691 36.6385 23.3646C38.2631 23.06 39.3335 21.4945 39.0294 19.868L38.4786 16.9228L37.7074 12.7996C37.4032 11.173 35.8396 10.1014 34.2149 10.4059C32.5903 10.7105 31.5199 12.2759 31.8241 13.9025L32.5952 18.0257L33.146 20.9709Z" fill="black"/>
<path d="M75.5064 13.0307C75.8106 14.6573 77.3743 15.729 78.9989 15.4244C80.6236 15.1199 81.694 13.5544 81.3898 11.9278L80.839 8.98267L80.0679 4.85947C79.7637 3.23291 78.2 2.16121 76.5754 2.46576C74.9507 2.77032 73.8803 4.3358 74.1845 5.96236L74.9556 10.0856L75.5064 13.0307Z" fill="black"/>
<path d="M54.3263 17.0011C54.6305 18.6277 56.1941 19.6994 57.8187 19.3948C59.4434 19.0903 60.5138 17.5248 60.2096 15.8982L59.6588 12.9531L58.8877 8.82987C58.5835 7.20331 57.0199 6.13162 55.3952 6.43617C53.7706 6.74073 52.7001 8.3062 53.0043 9.93276L53.7755 14.056L54.3263 17.0011Z" fill="black"/>
<path d="M68.9141 53.4849C101.236 46.8931 92.8565 5.94999 119.193 2.54729C146.727 -1.01007 143.734 35.5068 122.785 39.7017" stroke="#FF0000" stroke-linecap="round" stroke-dasharray="4 4"/>
<path fill-rule="evenodd" clip-rule="evenodd" d="M126.769 25.7598C124.869 23.166 121 23.166 119.1 25.7598C118.08 27.1524 117.893 28.9888 118.612 30.5586L121.393 36.6329C121.998 37.9537 123.872 37.9537 124.477 36.6329L127.257 30.5586C127.976 28.9888 127.789 27.1524 126.769 25.7598ZM122.785 31.3116C124.107 31.3116 125.179 30.2384 125.179 28.9146C125.179 27.5907 124.107 26.5175 122.785 26.5175C121.463 26.5175 120.391 27.5907 120.391 28.9146C120.391 30.2384 121.463 31.3116 122.785 31.3116Z" fill="#FF4D4D"/>
<path d="M123.924 47.9134L123.915 68.0081L108.588 80.9812L108.902 61.029L123.924 47.9134Z" fill="#FFD600"/>
<path d="M123.924 47.9134L123.915 68.0081M123.924 47.9134L108.902 61.029M123.924 47.9134L114.397 68.4555M123.915 68.0081L108.588 80.9812M123.915 68.0081L114.397 68.4555M108.588 80.9812L108.902 61.029M108.588 80.9812L114.397 68.4555M108.902 61.029L114.397 68.4555" stroke="#DAAA00" stroke-linecap="round" stroke-linejoin="round"/>
<mask id="mask0_10604_1098" style="mask-type:alpha" maskUnits="userSpaceOnUse" x="2" y="1" width="138" height="83">
<path d="M20.4117 70.1021C20.3102 69.5592 20.6679 69.0367 21.2108 68.9349L25.1284 68.2005C25.6712 68.0988 26.1936 68.4563 26.2951 68.9992L27.029 72.9236C27.1306 73.4665 26.7728 73.9891 26.23 74.0908L22.3124 74.8252C21.7695 74.927 21.2472 74.5694 21.1457 74.0265L20.4117 70.1021Z" fill="#A4A4A4"/>
<path d="M31.0018 68.1169C30.9003 67.574 31.258 67.0515 31.8009 66.9497L35.7185 66.2153C36.2613 66.1136 36.7837 66.4711 36.8852 67.014L37.6191 70.9384C37.7206 71.4813 37.3629 72.0038 36.8201 72.1056L32.9025 72.84C32.3596 72.9418 31.8373 72.5842 31.7357 72.0413L31.0018 68.1169Z" fill="#A4A4A4"/>
<path d="M41.5919 66.1317C41.4904 65.5888 41.8481 65.0663 42.3909 64.9645L46.3086 64.2301C46.8514 64.1283 47.3737 64.4859 47.4753 65.0288L48.2092 68.9532C48.3107 69.4961 47.953 70.0186 47.4102 70.1204L43.4925 70.8548C42.9497 70.9566 42.4274 70.599 42.3258 70.0561L41.5919 66.1317Z" fill="#A4A4A4"/>
<path d="M52.182 64.1465C52.0804 63.6036 52.4382 63.0811 52.981 62.9793L56.8986 62.2449C57.4415 62.1431 57.9638 62.5007 58.0654 63.0436L58.7993 66.968C58.9008 67.5109 58.5431 68.0334 58.0002 68.1352L54.0826 68.8696C53.5398 68.9713 53.0174 68.6138 52.9159 68.0709L52.182 64.1465Z" fill="#A4A4A4"/>
<path d="M62.7721 62.1613C62.6705 61.6184 63.0283 61.0958 63.5711 60.9941L67.4887 60.2597C68.0316 60.1579 68.5539 60.5155 68.6554 61.0584L69.3894 64.9828C69.4909 65.5257 69.1332 66.0482 68.5903 66.15L64.6727 66.8844C64.1299 66.9861 63.6075 66.6286 63.506 66.0857L62.7721 62.1613Z" fill="#A4A4A4"/>
<path d="M73.3621 60.1761C73.2606 59.6332 73.6184 59.1106 74.1612 59.0089L78.0788 58.2745C78.6216 58.1727 79.144 58.5303 79.2455 59.0732L79.9795 62.9976C80.081 63.5405 79.7232 64.063 79.1804 64.1648L75.2628 64.8992C74.72 65.0009 74.1976 64.6433 74.0961 64.1005L73.3621 60.1761Z" fill="#A4A4A4"/>
<path d="M83.9522 58.1909C83.8507 57.648 84.2084 57.1254 84.7513 57.0237L88.6689 56.2893C89.2117 56.1875 89.7341 56.5451 89.8356 57.088L90.5695 61.0124C90.6711 61.5553 90.3133 62.0778 89.7705 62.1796L85.8529 62.914C85.31 63.0157 84.7877 62.6581 84.6862 62.1153L83.9522 58.1909Z" fill="#A4A4A4"/>
<path d="M82.1897 48.7664C82.0881 48.2235 82.4459 47.701 82.9887 47.5992L86.9063 46.8648C87.4492 46.7631 87.9715 47.1207 88.073 47.6635L88.807 51.5879C88.9085 52.1308 88.5508 52.6534 88.0079 52.7551L84.0903 53.4895C83.5475 53.5913 83.0251 53.2337 82.9236 52.6908L82.1897 48.7664Z" fill="#A4A4A4"/>
<path d="M71.5996 50.7516C71.4981 50.2088 71.8558 49.6862 72.3986 49.5844L76.3163 48.85C76.8591 48.7483 77.3814 49.1059 77.483 49.6487L78.2169 53.5731C78.3184 54.116 77.9607 54.6386 77.4179 54.7403L73.5002 55.4747C72.9574 55.5765 72.435 55.2189 72.3335 54.676L71.5996 50.7516Z" fill="#A4A4A4"/>
<path d="M61.0095 52.7368C60.908 52.194 61.2657 51.6714 61.8086 51.5696L65.7262 50.8352C66.269 50.7335 66.7914 51.0911 66.8929 51.6339L67.6268 55.5583C67.7283 56.1012 67.3706 56.6238 66.8278 56.7255L62.9101 57.4599C62.3673 57.5617 61.845 57.2041 61.7434 56.6612L61.0095 52.7368Z" fill="#FF0000"/>
<path d="M50.4194 54.722C50.3179 54.1792 50.6756 53.6566 51.2185 53.5548L55.1361 52.8204C55.6789 52.7187 56.2013 53.0763 56.3028 53.6191L57.0367 57.5435C57.1383 58.0864 56.7805 58.609 56.2377 58.7107L52.3201 59.4451C51.7772 59.5469 51.2549 59.1893 51.1534 58.6464L50.4194 54.722Z" fill="#A4A4A4"/>
<path d="M39.8293 56.7072C39.7278 56.1644 40.0856 55.6418 40.6284 55.54L44.546 54.8056C45.0888 54.7039 45.6112 55.0615 45.7127 55.6043L46.4467 59.5287C46.5482 60.0716 46.1904 60.5942 45.6476 60.6959L41.73 61.4303C41.1872 61.5321 40.6648 61.1745 40.5633 60.6316L39.8293 56.7072Z" fill="#A4A4A4"/>
<path d="M29.2393 58.6924C29.1377 58.1496 29.4955 57.627 30.0383 57.5252L33.9559 56.7908C34.4988 56.6891 35.0211 57.0467 35.1226 57.5895L35.8566 61.5139C35.9581 62.0568 35.6004 62.5794 35.0575 62.6811L31.1399 63.4155C30.5971 63.5173 30.0747 63.1597 29.9732 62.6168L29.2393 58.6924Z" fill="#A4A4A4"/>
<path d="M18.6492 60.6776C18.5476 60.1348 18.9054 59.6122 19.4482 59.5104L23.3658 58.776C23.9087 58.6743 24.431 59.0319 24.5326 59.5747L25.2665 63.4991C25.368 64.042 25.0103 64.5646 24.4674 64.6663L20.5498 65.4007C20.007 65.5025 19.4846 65.1449 19.3831 64.602L18.6492 60.6776Z" fill="#A4A4A4"/>
<path d="M16.8866 51.2532C16.7851 50.7103 17.1428 50.1877 17.6857 50.086L21.6033 49.3516C22.1461 49.2498 22.6685 49.6074 22.77 50.1503L23.5039 54.0747C23.6055 54.6175 23.2477 55.1401 22.7049 55.2419L18.7873 55.9763C18.2444 56.078 17.7221 55.7204 17.6206 55.1775L16.8866 51.2532Z" fill="#A4A4A4"/>
<path d="M27.4767 49.268C27.3752 48.7251 27.7329 48.2025 28.2758 48.1007L32.1934 47.3664C32.7362 47.2646 33.2586 47.6222 33.3601 48.1651L34.094 52.0895C34.1955 52.6323 33.8378 53.1549 33.295 53.2567L29.3773 53.9911C28.8345 54.0928 28.3122 53.7352 28.2106 53.1923L27.4767 49.268Z" fill="#A4A4A4"/>
<path d="M38.0668 47.2828C37.9653 46.7399 38.323 46.2173 38.8658 46.1155L42.7835 45.3812C43.3263 45.2794 43.8486 45.637 43.9502 46.1799L44.6841 50.1042C44.7856 50.6471 44.4279 51.1697 43.8851 51.2715L39.9674 52.0058C39.4246 52.1076 38.9022 51.75 38.8007 51.2071L38.0668 47.2828Z" fill="#A4A4A4"/>
<path fill-rule="evenodd" clip-rule="evenodd" d="M12.3188 78.9276C12.8265 81.642 15.4383 83.43 18.1524 82.9212L96.5743 68.2203C99.2884 67.7115 101.077 65.0986 100.57 62.3843L92.6759 20.1767L4.42524 36.7201L12.3188 78.9276ZM21.0074 40.7258C20.9059 40.1829 20.3836 39.8253 19.8407 39.9271L15.9231 40.6615C15.3803 40.7632 15.0225 41.2858 15.1241 41.8287L15.858 45.7531C15.9595 46.2959 16.4819 46.6535 17.0247 46.5518L20.9423 45.8174C21.4852 45.7156 21.8429 45.193 21.7414 44.6502L21.0074 40.7258ZM31.5975 38.7406C31.496 38.1977 30.9736 37.8401 30.4308 37.9419L26.5132 38.6763C25.9704 38.778 25.6126 39.3006 25.7142 39.8435L26.4481 43.7679C26.5496 44.3107 27.072 44.6683 27.6148 44.5666L31.5324 43.8322C32.0752 43.7304 32.433 43.2078 32.3315 42.665L31.5975 38.7406ZM42.1876 36.7554C42.0861 36.2125 41.5637 35.8549 41.0209 35.9567L37.1033 36.6911C36.5605 36.7928 36.2027 37.3154 36.3042 37.8583L37.0382 41.7827C37.1397 42.3255 37.662 42.6831 38.2049 42.5814L42.1225 41.847C42.6653 41.7452 43.0231 41.2226 42.9215 40.6798L42.1876 36.7554ZM52.7777 34.7702C52.6762 34.2273 52.1538 33.8697 51.611 33.9715L47.6934 34.7059C47.1505 34.8076 46.7928 35.3302 46.8943 35.8731L47.6282 39.7975C47.7298 40.3403 48.2521 40.6979 48.795 40.5962L52.7126 39.8618C53.2554 39.76 53.6132 39.2374 53.5116 38.6946L52.7777 34.7702ZM63.3678 32.785C63.2662 32.2421 62.7439 31.8845 62.2011 31.9863L58.2834 32.7207C57.7406 32.8224 57.3829 33.345 57.4844 33.8879L58.2183 37.8123C58.3199 38.3551 58.8422 38.7127 59.385 38.611L63.3027 37.8766C63.8455 37.7748 64.2032 37.2522 64.1017 36.7094L63.3678 32.785ZM73.9579 30.7998C73.8563 30.2569 73.334 29.8993 72.7912 30.0011L68.8735 30.7355C68.3307 30.8372 67.973 31.3598 68.0745 31.9027L68.8084 35.8271C68.9099 36.3699 69.4323 36.7275 69.9751 36.6258L73.8927 35.8914C74.4356 35.7896 74.7933 35.267 74.6918 34.7242L73.9579 30.7998ZM84.5479 28.8146C84.4464 28.2717 83.9241 27.9141 83.3812 28.0159L79.4636 28.7503C78.9208 28.852 78.563 29.3746 78.6646 29.9175L79.3985 33.8418C79.5 34.3847 80.0224 34.7423 80.5652 34.6406L84.4828 33.9062C85.0257 33.8044 85.3834 33.2818 85.2819 32.739L84.5479 28.8146ZM22.77 50.1503C22.6685 49.6074 22.1461 49.2498 21.6033 49.3516L17.6857 50.086C17.1428 50.1877 16.7851 50.7103 16.8866 51.2532L17.6206 55.1775C17.7221 55.7204 18.2444 56.078 18.7873 55.9763L22.7049 55.2419C23.2477 55.1401 23.6055 54.6175 23.5039 54.0747L22.77 50.1503ZM33.3601 48.1651C33.2586 47.6222 32.7362 47.2646 32.1934 47.3664L28.2758 48.1007C27.7329 48.2025 27.3752 48.7251 27.4767 49.268L28.2106 53.1923C28.3122 53.7352 28.8345 54.0928 29.3773 53.9911L33.295 53.2567C33.8378 53.1549 34.1955 52.6323 34.094 52.0895L33.3601 48.1651ZM43.9502 46.1799C43.8486 45.637 43.3263 45.2794 42.7835 45.3812L38.8658 46.1155C38.323 46.2173 37.9653 46.7399 38.0668 47.2828L38.8007 51.2071C38.9022 51.75 39.4246 52.1076 39.9674 52.0058L43.8851 51.2715C44.4279 51.1697 44.7856 50.6471 44.6841 50.1042L43.9502 46.1799ZM54.5402 44.1947C54.4387 43.6518 53.9164 43.2942 53.3735 43.396L49.4559 44.1303C48.9131 44.2321 48.5553 44.7547 48.6569 45.2975L49.3908 49.2219C49.4923 49.7648 50.0147 50.1224 50.5575 50.0206L54.4751 49.2863C55.018 49.1845 55.3757 48.6619 55.2742 48.119L54.5402 44.1947ZM65.1303 42.2095C65.0288 41.6666 64.5064 41.309 63.9636 41.4107L60.046 42.1451C59.5032 42.2469 59.1454 42.7695 59.2469 43.3123L59.9809 47.2367C60.0824 47.7796 60.6048 48.1372 61.1476 48.0354L65.0652 47.3011C65.608 47.1993 65.9658 46.6767 65.8643 46.1338L65.1303 42.2095ZM75.7204 40.2243C75.6189 39.6814 75.0965 39.3238 74.5537 39.4255L70.6361 40.1599C70.0933 40.2617 69.7355 40.7843 69.837 41.3271L70.571 45.2515C70.6725 45.7944 71.1948 46.152 71.7377 46.0502L75.6553 45.3158C76.1981 45.2141 76.5559 44.6915 76.4543 44.1486L75.7204 40.2243ZM86.3105 38.239C86.209 37.6962 85.6866 37.3386 85.1438 37.4403L81.2262 38.1747C80.6833 38.2765 80.3256 38.7991 80.4271 39.3419L81.1611 43.2663C81.2626 43.8092 81.7849 44.1668 82.3278 44.065L86.2454 43.3306C86.7882 43.2289 87.146 42.7063 87.0444 42.1634L86.3105 38.239ZM24.5326 59.5747C24.431 59.0319 23.9087 58.6743 23.3658 58.776L19.4482 59.5104C18.9054 59.6122 18.5476 60.1348 18.6492 60.6776L19.3831 64.602C19.4846 65.1449 20.007 65.5025 20.5498 65.4007L24.4674 64.6663C25.0103 64.5646 25.368 64.042 25.2665 63.4991L24.5326 59.5747ZM35.1226 57.5895C35.0211 57.0467 34.4988 56.6891 33.9559 56.7908L30.0383 57.5252C29.4955 57.627 29.1377 58.1496 29.2393 58.6924L29.9732 62.6168C30.0747 63.1597 30.5971 63.5173 31.1399 63.4155L35.0575 62.6811C35.6004 62.5794 35.9581 62.0568 35.8566 61.5139L35.1226 57.5895ZM45.7127 55.6043C45.6112 55.0615 45.0888 54.7039 44.546 54.8056L40.6284 55.54C40.0856 55.6418 39.7278 56.1644 39.8293 56.7072L40.5633 60.6316C40.6648 61.1745 41.1872 61.5321 41.73 61.4303L45.6476 60.6959C46.1904 60.5942 46.5482 60.0716 46.4467 59.5287L45.7127 55.6043ZM56.3028 53.6191C56.2013 53.0763 55.6789 52.7187 55.1361 52.8204L51.2185 53.5548C50.6756 53.6566 50.3179 54.1792 50.4194 54.722L51.1534 58.6464C51.2549 59.1893 51.7772 59.5469 52.3201 59.4451L56.2377 58.7107C56.7805 58.609 57.1383 58.0864 57.0367 57.5435L56.3028 53.6191ZM66.8929 51.6339C66.7914 51.0911 66.269 50.7335 65.7262 50.8352L61.8086 51.5696C61.2657 51.6714 60.908 52.194 61.0095 52.7368L61.7434 56.6612C61.845 57.2041 62.3673 57.5617 62.9101 57.4599L66.8278 56.7255C67.3706 56.6238 67.7283 56.1012 67.6268 55.5583L66.8929 51.6339ZM77.483 49.6487C77.3814 49.1059 76.8591 48.7483 76.3163 48.85L72.3986 49.5844C71.8558 49.6862 71.4981 50.2088 71.5996 50.7516L72.3335 54.676C72.435 55.2189 72.9574 55.5765 73.5002 55.4747L77.4179 54.7403C77.9607 54.6386 78.3184 54.116 78.2169 53.5731L77.483 49.6487ZM88.073 47.6635C87.9715 47.1207 87.4492 46.7631 86.9063 46.8648L82.9887 47.5992C82.4459 47.701 82.0881 48.2235 82.1897 48.7664L82.9236 52.6908C83.0251 53.2337 83.5475 53.5913 84.0903 53.4895L88.0079 52.7551C88.5508 52.6534 88.9085 52.1308 88.807 51.5879L88.073 47.6635ZM26.2951 68.9992C26.1936 68.4563 25.6712 68.0988 25.1284 68.2005L21.2108 68.9349C20.6679 69.0367 20.3102 69.5592 20.4117 70.1021L21.1457 74.0265C21.2472 74.5694 21.7695 74.927 22.3124 74.8252L26.23 74.0908C26.7728 73.9891 27.1306 73.4665 27.029 72.9236L26.2951 68.9992ZM36.8852 67.014C36.7837 66.4711 36.2613 66.1136 35.7185 66.2153L31.8009 66.9497C31.258 67.0515 30.9003 67.574 31.0018 68.1169L31.7357 72.0413C31.8373 72.5842 32.3596 72.9418 32.9025 72.84L36.8201 72.1056C37.3629 72.0038 37.7206 71.4813 37.6191 70.9384L36.8852 67.014ZM47.4753 65.0288C47.3737 64.4859 46.8514 64.1283 46.3086 64.2301L42.3909 64.9645C41.8481 65.0663 41.4904 65.5888 41.5919 66.1317L42.3258 70.0561C42.4274 70.599 42.9497 70.9566 43.4925 70.8548L47.4102 70.1204C47.953 70.0186 48.3107 69.4961 48.2092 68.9532L47.4753 65.0288ZM58.0654 63.0436C57.9638 62.5007 57.4415 62.1431 56.8986 62.2449L52.981 62.9793C52.4382 63.0811 52.0804 63.6036 52.182 64.1465L52.9159 68.0709C53.0174 68.6138 53.5398 68.9713 54.0826 68.8696L58.0002 68.1352C58.5431 68.0334 58.9008 67.5109 58.7993 66.968L58.0654 63.0436ZM68.6554 61.0584C68.5539 60.5155 68.0316 60.1579 67.4887 60.2597L63.5711 60.9941C63.0283 61.0958 62.6705 61.6184 62.7721 62.1613L63.506 66.0857C63.6075 66.6286 64.1299 66.9861 64.6727 66.8844L68.5903 66.15C69.1332 66.0482 69.4909 65.5257 69.3894 64.9828L68.6554 61.0584ZM79.2455 59.0732C79.144 58.5303 78.6216 58.1727 78.0788 58.2745L74.1612 59.0089C73.6184 59.1106 73.2606 59.6332 73.3621 60.1761L74.0961 64.1005C74.1976 64.6433 74.72 65.0009 75.2628 64.8992L79.1804 64.1648C79.7232 64.063 80.081 63.5405 79.9795 62.9976L79.2455 59.0732ZM89.8356 57.088C89.7341 56.5451 89.2117 56.1875 88.6689 56.2893L84.7513 57.0237C84.2084 57.1254 83.8507 57.648 83.9522 58.1909L84.6862 62.1153C84.7877 62.6581 85.31 63.0157 85.8529 62.914L89.7705 62.1796C90.3133 62.0778 90.6711 61.5553 90.5695 61.0124L89.8356 57.088Z" fill="white"/>
<path d="M48.6569 45.2975C48.5553 44.7547 48.9131 44.2321 49.4559 44.1303L53.3735 43.396C53.9164 43.2942 54.4387 43.6518 54.5402 44.1947L55.2742 48.119C55.3757 48.6619 55.018 49.1845 54.4751 49.2863L50.5575 50.0206C50.0147 50.1224 49.4923 49.7648 49.3908 49.2219L48.6569 45.2975Z" fill="#A4A4A4"/>
<path d="M59.2469 43.3123C59.1454 42.7695 59.5032 42.2469 60.046 42.1451L63.9636 41.4107C64.5064 41.309 65.0288 41.6666 65.1303 42.2095L65.8643 46.1338C65.9658 46.6767 65.608 47.1993 65.0652 47.3011L61.1476 48.0354C60.6048 48.1372 60.0824 47.7796 59.9809 47.2367L59.2469 43.3123Z" fill="#A4A4A4"/>
<path d="M69.837 41.3271C69.7355 40.7843 70.0933 40.2617 70.6361 40.1599L74.5537 39.4255C75.0965 39.3238 75.6189 39.6814 75.7204 40.2243L76.4543 44.1486C76.5559 44.6915 76.1981 45.2141 75.6553 45.3158L71.7377 46.0502C71.1948 46.152 70.6725 45.7944 70.571 45.2515L69.837 41.3271Z" fill="#A4A4A4"/>
<path d="M80.4271 39.3419C80.3256 38.7991 80.6833 38.2765 81.2262 38.1747L85.1438 37.4403C85.6866 37.3386 86.209 37.6962 86.3105 38.239L87.0444 42.1634C87.146 42.7063 86.7882 43.2289 86.2454 43.3306L82.3278 44.065C81.7849 44.1668 81.2626 43.8092 81.1611 43.2663L80.4271 39.3419Z" fill="#A4A4A4"/>
<path d="M78.6646 29.9175C78.563 29.3746 78.9208 28.852 79.4636 28.7503L83.3812 28.0159C83.9241 27.9141 84.4464 28.2717 84.5479 28.8146L85.2819 32.739C85.3834 33.2818 85.0257 33.8044 84.4828 33.9062L80.5652 34.6406C80.0224 34.7423 79.5 34.3847 79.3985 33.8418L78.6646 29.9175Z" fill="#A4A4A4"/>
<path d="M68.0745 31.9027C67.973 31.3598 68.3307 30.8372 68.8735 30.7355L72.7912 30.0011C73.334 29.8993 73.8563 30.2569 73.9579 30.7998L74.6918 34.7242C74.7933 35.267 74.4356 35.7896 73.8927 35.8914L69.9751 36.6258C69.4323 36.7275 68.9099 36.3699 68.8084 35.8271L68.0745 31.9027Z" fill="#A4A4A4"/>
<path d="M57.4844 33.8879C57.3829 33.345 57.7406 32.8224 58.2834 32.7207L62.2011 31.9863C62.7439 31.8845 63.2662 32.2421 63.3678 32.785L64.1017 36.7094C64.2032 37.2522 63.8455 37.7748 63.3027 37.8766L59.385 38.611C58.8422 38.7127 58.3199 38.3551 58.2183 37.8123L57.4844 33.8879Z" fill="#A4A4A4"/>
<path d="M46.8943 35.8731C46.7928 35.3302 47.1505 34.8076 47.6934 34.7059L51.611 33.9715C52.1538 33.8697 52.6762 34.2273 52.7777 34.7702L53.5116 38.6946C53.6132 39.2374 53.2554 39.76 52.7126 39.8618L48.795 40.5962C48.2521 40.6979 47.7298 40.3403 47.6282 39.7975L46.8943 35.8731Z" fill="#F0EDED"/>
<path d="M36.3042 37.8583C36.2027 37.3154 36.5605 36.7928 37.1033 36.6911L41.0209 35.9567C41.5637 35.8549 42.0861 36.2125 42.1876 36.7554L42.9215 40.6798C43.0231 41.2226 42.6653 41.7452 42.1225 41.847L38.2049 42.5814C37.662 42.6831 37.1397 42.3255 37.0382 41.7827L36.3042 37.8583Z" fill="#F0EDED"/>
<path d="M25.7142 39.8435C25.6126 39.3006 25.9704 38.778 26.5132 38.6763L30.4308 37.9419C30.9736 37.8401 31.496 38.1977 31.5975 38.7406L32.3315 42.665C32.433 43.2078 32.0752 43.7304 31.5324 43.8322L27.6148 44.5666C27.072 44.6683 26.5496 44.3107 26.4481 43.7679L25.7142 39.8435Z" fill="#F0EDED"/>
<path d="M15.1241 41.8287C15.0225 41.2858 15.3803 40.7632 15.9231 40.6615L19.8407 39.9271C20.3836 39.8253 20.9059 40.1829 21.0074 40.7258L21.7414 44.6502C21.8429 45.193 21.4852 45.7156 20.9423 45.8174L17.0247 46.5518C16.4819 46.6535 15.9595 46.2959 15.858 45.7531L15.1241 41.8287Z" fill="#F0EDED"/>
<path fill-rule="evenodd" clip-rule="evenodd" d="M17.2985 20.8939L85.338 8.13929C88.0522 7.6305 90.6639 9.41847 91.1716 12.1328L92.6759 20.1767L4.42524 36.7201L2.92089 28.6762C2.41325 25.9618 4.20198 23.349 6.91612 22.8402L11.4151 21.9968L11.9665 24.9452C12.2704 26.5699 13.8338 27.6402 15.4584 27.3356C17.0831 27.0311 18.1538 25.467 17.8499 23.8423L17.2985 20.8939Z" fill="#FF4D4D"/>
<path d="M11.9665 24.9452C12.2704 26.5699 13.8338 27.6402 15.4584 27.3356C17.0831 27.0311 18.1538 25.467 17.8499 23.8423L17.2985 20.8939L16.5268 16.7675C16.2229 15.1427 14.6596 14.0724 13.0349 14.377C11.4103 14.6815 10.3395 16.2456 10.6434 17.8704L11.4151 21.9968L11.9665 24.9452Z" fill="black"/>
<path d="M33.146 20.9709C33.4502 22.5974 35.0138 23.6691 36.6385 23.3646C38.2631 23.06 39.3335 21.4945 39.0294 19.868L38.4786 16.9228L37.7074 12.7996C37.4032 11.173 35.8396 10.1014 34.2149 10.4059C32.5903 10.7105 31.5199 12.2759 31.8241 13.9025L32.5952 18.0257L33.146 20.9709Z" fill="black"/>
<path d="M75.5064 13.0307C75.8106 14.6573 77.3743 15.729 78.9989 15.4244C80.6236 15.1199 81.694 13.5544 81.3898 11.9278L80.839 8.98267L80.0679 4.85947C79.7637 3.23291 78.2 2.16121 76.5754 2.46576C74.9507 2.77032 73.8803 4.3358 74.1845 5.96236L74.9556 10.0856L75.5064 13.0307Z" fill="black"/>
<path d="M54.3263 17.0011C54.6305 18.6277 56.1941 19.6994 57.8187 19.3948C59.4434 19.0903 60.5138 17.5248 60.2096 15.8982L59.6588 12.9531L58.8877 8.82987C58.5835 7.20331 57.0199 6.13162 55.3952 6.43617C53.7706 6.74073 52.7001 8.3062 53.0043 9.93276L53.7755 14.056L54.3263 17.0011Z" fill="black"/>
<path d="M68.9141 53.4849C101.236 46.8931 92.8565 5.94999 119.193 2.54729C146.727 -1.01007 143.734 35.5068 122.785 39.7017" stroke="#FF0000" stroke-linecap="round" stroke-dasharray="4 4"/>
<path fill-rule="evenodd" clip-rule="evenodd" d="M126.769 25.7598C124.869 23.166 121 23.166 119.1 25.7598C118.08 27.1524 117.893 28.9888 118.612 30.5586L121.393 36.6329C121.998 37.9537 123.872 37.9537 124.477 36.6329L127.257 30.5586C127.976 28.9888 127.789 27.1524 126.769 25.7598ZM122.785 31.3116C124.107 31.3116 125.179 30.2384 125.179 28.9146C125.179 27.5907 124.107 26.5175 122.785 26.5175C121.463 26.5175 120.391 27.5907 120.391 28.9146C120.391 30.2384 121.463 31.3116 122.785 31.3116Z" fill="#FF4D4D"/>
<path d="M123.924 47.9134L123.915 68.0081L108.588 80.9812L108.902 61.029L123.924 47.9134Z" fill="#FFD600"/>
<path d="M123.924 47.9134L123.915 68.0081M123.924 47.9134L108.902 61.029M123.924 47.9134L114.397 68.4555M123.915 68.0081L108.588 80.9812M123.915 68.0081L114.397 68.4555M108.588 80.9812L108.902 61.029M108.588 80.9812L114.397 68.4555M108.902 61.029L114.397 68.4555" stroke="#DAAA00" stroke-linecap="round" stroke-linejoin="round"/>
</mask>
<g mask="url(#mask0_10604_1098)">
<g style="mix-blend-mode:color" filter="url(#filter0_f_10604_1098)">
<path d="M1.84741 79.9831C-15.5354 52.7924 -12.8516 2.48648 20.3593 3.07766C35.8852 3.35404 -4.30559 28.6049 15.7786 59.6227C41.9908 100.105 64.7711 72.0067 61.2705 85.1076C57.7704 98.2068 26.1852 118.053 1.84741 79.9831Z" fill="#DB00FF"/>
</g>
<g filter="url(#filter1_f_10604_1098)">
<path d="M99.6427 63.1428C99.6462 53.5546 110.421 43.3667 118.795 43.3667C127.169 43.3667 113.408 55.9516 113.409 63.1423C113.41 68.7811 121.188 86.5639 113.41 86.564C107.011 86.5641 99.6394 72.2157 99.6427 63.1428Z" fill="#FF0000" fill-opacity="0.54"/>
</g>
</g>
<defs>
<filter id="filter0_f_10604_1098" x="-38.7148" y="-26.9277" width="130.344" height="159.037" filterUnits="userSpaceOnUse" color-interpolation-filters="sRGB">
<feFlood flood-opacity="0" result="BackgroundImageFix"/>
<feBlend mode="normal" in="SourceGraphic" in2="BackgroundImageFix" result="shape"/>
<feGaussianBlur stdDeviation="15" result="effect1_foregroundBlur_10604_1098"/>
</filter>
<filter id="filter1_f_10604_1098" x="89.6445" y="33.3667" width="41.8516" height="63.1973" filterUnits="userSpaceOnUse" color-interpolation-filters="sRGB">
<feFlood flood-opacity="0" result="BackgroundImageFix"/>
<feBlend mode="normal" in="SourceGraphic" in2="BackgroundImageFix" result="shape"/>
<feGaussianBlur stdDeviation="5" result="effect1_foregroundBlur_10604_1098"/>
</filter>
</defs>
</svg>
