<svg width="255" height="257" viewBox="0 0 255 257" fill="none" xmlns="http://www.w3.org/2000/svg">
<mask id="mask0_10668_19475" style="mask-type:alpha" maskUnits="userSpaceOnUse" x="8" y="50" width="239" height="156">
<path d="M32.1881 204.065C14.543 198.26 4.8319 179.593 10.4978 162.37C16.1636 145.148 35.0609 135.893 52.706 141.698C65.4966 145.906 80.4025 151.308 92.3018 145.006L160.554 108.86C172.784 102.383 176.517 86.3075 180.842 73.1616C186.508 55.9394 205.405 46.6839 223.05 52.4889C240.695 58.2939 250.406 76.9611 244.741 94.1833C239.075 111.405 220.177 120.661 202.532 114.856C189.388 110.532 174.005 104.746 161.776 111.223L95.0502 146.562C82.4996 153.209 78.8346 169.901 74.3963 183.392C68.7305 200.614 49.8332 209.87 32.1881 204.065Z" fill="#2BCFA1"/>
</mask>
<g mask="url(#mask0_10668_19475)">
<rect x="63.9609" y="0.344116" width="201.18" height="203.709" transform="rotate(18.2105 63.9609 0.344116)" fill="#2BCFA1"/>
</g>
</svg>
