<svg width="103" height="103" viewBox="0 0 103 103" fill="none" xmlns="http://www.w3.org/2000/svg">
<path d="M19.4196 55.7109C22.9605 59.614 19.9281 62.3714 23.3895 67.9295C28.9813 76.9083 38.9712 79.8773 45.171 80.1756C43.9445 82.7131 42.2302 89.6576 45.1853 97.1355C52.6376 98.1869 60.5746 95.8476 63.608 93.0904C62.8237 83.5135 56.055 80.6994 51.0366 78.7989C46.1573 76.9051 41.1213 69.6122 38.1327 62.8325C34.6566 54.9468 34.6949 48.1511 29.8942 44.6021C26.2937 41.9404 20.4864 44.979 18.9895 47.3953C18.3839 48.373 18.2228 49.5078 18.2926 50.6798C18.3953 52.4043 18.9979 54.209 19.4196 55.7109Z" fill="#7829D1"/>
<path d="M2.52523 62.4731C2.70121 63.7225 3.06304 64.9476 3.59161 66.1473C5.99069 67.9217 6.77756 68.7891 16.0291 65.9163C5.16409 67.882 3.15745 64.8171 2.52523 62.4731Z" fill="#7829D1"/>
<path d="M1.99415 73.5358C2.45252 75.4934 2.25917 79.272 8.72897 82.5695C16.3745 86.4662 21.228 82.9032 32.2261 90.9764C24.8643 71.7697 20.5914 74.4307 11.9531 73.1856C5.04245 72.1894 3.49934 68.0784 3.59161 66.1473C2.17293 69.8118 1.99415 73.5358 1.99415 73.5358Z" fill="#7829D1"/>
<path d="M23.3895 67.9295C19.9281 62.3714 22.9605 59.614 19.4196 55.7109C17.3871 53.4706 13.4775 51.9598 10.2188 51.5355C7.80025 51.2206 5.74026 51.5042 5.07236 52.5322C2.82544 55.9905 2.07969 59.3098 2.52523 62.4731C3.15745 64.8171 5.16409 67.882 16.0291 65.9163C6.77756 68.7891 5.99069 67.9217 3.59161 66.1473C3.49934 68.0784 5.04245 72.1894 11.9531 73.1856C20.5914 74.4307 24.8643 71.7697 32.2261 90.9764C32.8615 91.4429 33.5265 91.9513 34.2239 92.5059C37.6415 95.2235 41.4385 96.6069 45.1853 97.1355C42.2302 89.6576 43.9445 82.7131 45.171 80.1756C38.9712 79.8773 28.9813 76.9083 23.3895 67.9295Z" fill="#DEC2FD"/>
<path d="M1.99415 73.5358C1.9903 82.2453 3.48459 85.6351 11.2976 86.8405C19.1106 88.046 23.0847 91.5552 31.9191 97.372C40.7534 103.189 58.9387 104.064 63.4292 96.8144L63.608 93.0904C60.5746 95.8476 52.6376 98.1869 45.1853 97.1355C41.4385 96.6069 37.6415 95.2235 34.2239 92.5059C33.5265 91.9513 32.8615 91.4429 32.2261 90.9764C21.228 82.9032 16.3745 86.4662 8.72897 82.5695C2.25917 79.272 2.45252 75.4934 1.99415 73.5358Z" fill="#9754E3"/>
<path d="M10.2188 51.5355C13.4775 51.9598 17.3871 53.4706 19.4196 55.7109C18.9979 54.209 18.3953 52.4043 18.2926 50.6798C17.1141 50.2083 13.8495 49.7194 10.2188 51.5355Z" fill="#DEC2FD"/>
<path d="M1.99415 73.5358C1.9903 82.2453 3.48459 85.6351 11.2976 86.8405C19.1106 88.046 23.0847 91.5552 31.9191 97.372C40.7534 103.189 58.9387 104.064 63.4292 96.8145L63.608 93.0904M1.99415 73.5358C2.45252 75.4934 2.25918 79.272 8.72897 82.5695C16.3745 86.4662 21.228 82.9032 32.2261 90.9764M1.99415 73.5358C1.99415 73.5358 2.17293 69.8118 3.59161 66.1473M63.608 93.0904C62.8237 83.5135 56.055 80.6994 51.0366 78.7989C46.1573 76.9051 41.1213 69.6122 38.1327 62.8325C34.6566 54.9468 34.6949 48.1511 29.8942 44.6021C26.2937 41.9404 20.4864 44.979 18.9895 47.3953C18.3839 48.373 18.2228 49.5078 18.2926 50.6798M63.608 93.0904C60.5746 95.8476 52.6376 98.1869 45.1853 97.1355M3.59161 66.1473C3.49934 68.0784 5.04245 72.1894 11.9531 73.1856C20.5914 74.4307 24.8643 71.7697 32.2261 90.9764M3.59161 66.1473C3.06304 64.9476 2.70121 63.7225 2.52523 62.4731M3.59161 66.1473C5.99069 67.9217 6.77756 68.7891 16.0291 65.9163C5.16409 67.882 3.15745 64.8171 2.52523 62.4731M19.4196 55.7109C22.9605 59.614 19.9281 62.3714 23.3895 67.9295C28.9813 76.9083 38.9712 79.8773 45.171 80.1756C43.9445 82.7132 42.2302 89.6576 45.1853 97.1355M19.4196 55.7109C17.3871 53.4706 13.4775 51.9598 10.2188 51.5355M19.4196 55.7109C18.9979 54.209 18.3953 52.4043 18.2926 50.6798M45.1853 97.1355C41.4385 96.6069 37.6415 95.2235 34.2239 92.5059C33.5265 91.9513 32.8615 91.4429 32.2261 90.9764M10.2188 51.5355C7.80025 51.2206 5.74026 51.5042 5.07236 52.5322C2.82544 55.9905 2.07969 59.3098 2.52523 62.4731M10.2188 51.5355C13.8495 49.7194 17.1141 50.2083 18.2926 50.6798" stroke="#7829D1" stroke-linejoin="round"/>
<ellipse cx="1.24134" cy="1.24279" rx="1.24134" ry="1.24279" transform="matrix(0.998844 0.0480637 -0.0479511 0.99885 21.9219 68.2217)" fill="#9754E3"/>
<ellipse cx="1.24134" cy="1.24279" rx="1.24134" ry="1.24279" transform="matrix(0.998844 0.0480637 -0.0479511 0.99885 25.8594 72.5586)" fill="#9754E3"/>
<ellipse cx="1.24134" cy="1.24279" rx="1.24134" ry="1.24279" transform="matrix(0.998844 0.0480637 -0.0479511 0.99885 30.6641 76.1074)" fill="#9754E3"/>
<ellipse cx="1.24134" cy="1.24279" rx="1.24134" ry="1.24279" transform="matrix(0.998844 0.0480637 -0.0479511 0.99885 35.5 78.8291)" fill="#9754E3"/>
<ellipse cx="1.24134" cy="1.24279" rx="1.24134" ry="1.24279" transform="matrix(0.998844 0.0480637 -0.0479511 0.99885 42.0312 80.8018)" fill="#9754E3"/>
<path d="M43.6406 81.709C44.6063 78.8523 47.245 75.6613 50.4513 77.8892M43.3106 71.3246C39.6799 69.2913 37.2852 76.0114 37.0866 80.1493C38.4838 75.2396 44.8592 73.6012 48.0517 76.1149M41.4022 67.9145C39.4557 65.3327 31.2242 72.8166 31.813 77.8218C35.0835 70.099 43.7835 70.1031 45.6712 73.9266M38.7483 62.8102C35.9346 61.0158 30.8428 63.5319 27.0322 73.859C35.7559 64.7399 39.7626 67.5698 42.5436 70.0434M23.0978 69.5221C33.9873 58.4337 38.3143 63.204 40.6559 66.2199M36.1532 56.464C32.9453 54.2359 28.6132 58.175 23.099 69.5221M38.0001 61.1152C36.2602 56.7335 28.2638 52.4191 21.0538 60.2998" stroke="#400087" stroke-linecap="round" stroke-linejoin="round"/>
<ellipse cx="1.24134" cy="1.24279" rx="1.24134" ry="1.24279" transform="matrix(0.998844 0.0480637 -0.0479511 0.99885 19.0078 59.7861)" fill="#9754E3"/>
<path d="M20.1824 61.0879C18.8541 62.8527 16.1191 68.1088 17.5816 72.1607C19.4097 77.2256 29.2076 80.1855 29.2076 80.1855M36.9131 57.7456C41.8727 57.9842 40.4719 69.9444 54.1486 69.773C62.9807 69.6623 64.4055 63.2159 64.4055 63.2159" stroke="#400087" stroke-linecap="round" stroke-linejoin="round"/>
<mask id="mask0_10604_783" style="mask-type:alpha" maskUnits="userSpaceOnUse" x="1" y="43" width="64" height="60">
<path d="M19.4196 55.7109C22.9605 59.614 19.9281 62.3714 23.3895 67.9295C28.9813 76.9083 38.9712 79.8773 45.171 80.1756C43.9445 82.7131 42.2302 89.6576 45.1853 97.1355C52.6376 98.1869 60.5746 95.8476 63.608 93.0904C62.8237 83.5135 56.055 80.6994 51.0366 78.7989C46.1573 76.9051 41.1213 69.6122 38.1327 62.8325C34.6566 54.9468 34.6949 48.1511 29.8942 44.6021C26.2937 41.9404 20.4864 44.979 18.9895 47.3953C18.3839 48.373 18.2228 49.5078 18.2926 50.6798C18.3953 52.4043 18.9979 54.209 19.4196 55.7109Z" fill="#7829D1"/>
<path d="M2.52523 62.4731C2.70121 63.7225 3.06304 64.9476 3.59161 66.1473C5.99069 67.9217 6.77756 68.7891 16.0291 65.9163C5.16409 67.882 3.15745 64.8171 2.52523 62.4731Z" fill="#7829D1"/>
<path d="M1.99415 73.5358C2.45252 75.4934 2.25917 79.272 8.72897 82.5695C16.3745 86.4662 21.228 82.9032 32.2261 90.9764C24.8643 71.7697 20.5914 74.4307 11.9531 73.1856C5.04245 72.1894 3.49934 68.0784 3.59161 66.1473C2.17293 69.8118 1.99415 73.5358 1.99415 73.5358Z" fill="#7829D1"/>
<path d="M23.3895 67.9295C19.9281 62.3714 22.9605 59.614 19.4196 55.7109C17.3871 53.4706 13.4775 51.9598 10.2188 51.5355C7.80025 51.2206 5.74026 51.5042 5.07236 52.5322C2.82544 55.9905 2.07969 59.3098 2.52523 62.4731C3.15745 64.8171 5.16409 67.882 16.0291 65.9163C6.77756 68.7891 5.99069 67.9217 3.59161 66.1473C3.49934 68.0784 5.04245 72.1894 11.9531 73.1856C20.5914 74.4307 24.8643 71.7697 32.2261 90.9764C32.8615 91.4429 33.5265 91.9513 34.2239 92.5059C37.6415 95.2235 41.4385 96.6069 45.1853 97.1355C42.2302 89.6576 43.9445 82.7131 45.171 80.1756C38.9712 79.8773 28.9813 76.9083 23.3895 67.9295Z" fill="#DEC2FD"/>
<path d="M1.99415 73.5358C1.9903 82.2453 3.48459 85.6351 11.2976 86.8405C19.1106 88.046 23.0847 91.5552 31.9191 97.372C40.7534 103.189 58.9387 104.064 63.4292 96.8144L63.608 93.0904C60.5746 95.8476 52.6376 98.1869 45.1853 97.1355C41.4385 96.6069 37.6415 95.2235 34.2239 92.5059C33.5265 91.9513 32.8615 91.4429 32.2261 90.9764C21.228 82.9032 16.3745 86.4662 8.72897 82.5695C2.25917 79.272 2.45252 75.4934 1.99415 73.5358Z" fill="#9754E3"/>
<path d="M10.2188 51.5355C13.4775 51.9598 17.3871 53.4706 19.4196 55.7109C18.9979 54.209 18.3953 52.4043 18.2926 50.6798C17.1141 50.2083 13.8495 49.7194 10.2188 51.5355Z" fill="#DEC2FD"/>
<path d="M1.99415 73.5358C1.9903 82.2453 3.48459 85.6351 11.2976 86.8405C19.1106 88.046 23.0847 91.5552 31.9191 97.372C40.7534 103.189 58.9387 104.064 63.4292 96.8145L63.608 93.0904M1.99415 73.5358C2.45252 75.4934 2.25918 79.272 8.72897 82.5695C16.3745 86.4662 21.228 82.9032 32.2261 90.9764M1.99415 73.5358C1.99415 73.5358 2.17293 69.8118 3.59161 66.1473M63.608 93.0904C62.8237 83.5135 56.055 80.6994 51.0366 78.7989C46.1573 76.9051 41.1213 69.6122 38.1327 62.8325C34.6566 54.9468 34.6949 48.1511 29.8942 44.6021C26.2937 41.9404 20.4864 44.979 18.9895 47.3953C18.3839 48.373 18.2228 49.5078 18.2926 50.6798M63.608 93.0904C60.5746 95.8476 52.6376 98.1869 45.1853 97.1355M3.59161 66.1473C3.49934 68.0784 5.04245 72.1894 11.9531 73.1856C20.5914 74.4307 24.8643 71.7697 32.2261 90.9764M3.59161 66.1473C3.06304 64.9476 2.70121 63.7225 2.52523 62.4731M3.59161 66.1473C5.99069 67.9217 6.77756 68.7891 16.0291 65.9163C5.16409 67.882 3.15745 64.8171 2.52523 62.4731M19.4196 55.7109C22.9605 59.614 19.9281 62.3714 23.3895 67.9295C28.9813 76.9083 38.9712 79.8773 45.171 80.1756C43.9445 82.7132 42.2302 89.6576 45.1853 97.1355M19.4196 55.7109C17.3871 53.4706 13.4775 51.9598 10.2188 51.5355M19.4196 55.7109C18.9979 54.209 18.3953 52.4043 18.2926 50.6798M45.1853 97.1355C41.4385 96.6069 37.6415 95.2235 34.2239 92.5059C33.5265 91.9513 32.8615 91.4429 32.2261 90.9764M10.2188 51.5355C7.80025 51.2206 5.74026 51.5042 5.07236 52.5322C2.82544 55.9905 2.07969 59.3098 2.52523 62.4731M10.2188 51.5355C13.8495 49.7194 17.1141 50.2083 18.2926 50.6798" stroke="#7829D1" stroke-linejoin="round"/>
</mask>
<g mask="url(#mask0_10604_783)">
<g style="mix-blend-mode:overlay" filter="url(#filter0_f_10604_783)">
<path d="M13.7739 82.3456C28.137 93.82 49.5294 96.9231 49.2314 103.13C49.0923 106.026 10.8295 109.162 -2.82156 91.5008C-11.7916 79.8948 0.627042 48.1188 5.87702 48.3714C11.127 48.624 2.92149 73.6757 13.7739 82.3456Z" fill="white"/>
</g>
</g>
<path d="M77.1841 15.4039C74.6817 19.5978 77.94 21.5465 75.8123 27.2291C72.3751 36.4088 63.8446 40.9362 58.2681 42.3433C59.846 44.4232 62.6726 50.4165 61.3558 57.7499C54.7794 60.0705 47.1429 59.4003 43.8837 57.4519C42.8451 48.61 48.4784 44.8136 52.6888 42.1678C56.7743 39.5536 60.015 32.0068 61.4898 25.3015C63.2053 17.5022 61.928 11.337 65.6395 7.23383C68.423 4.15648 74.2531 5.85202 76.0544 7.77234C76.7833 8.54933 77.137 9.55058 77.2879 10.6278C77.5099 12.2129 77.2925 13.9625 77.1841 15.4039Z" fill="#D86600"/>
<path d="M93.7649 18.4497C93.8335 19.6167 93.7288 20.7957 93.4681 21.9822C91.6135 24.0335 91.0574 24.9655 82.1294 24.0517C92.357 23.8459 93.6192 20.6945 93.7649 18.4497Z" fill="#D86600"/>
<path d="M96.2698 28.4002C96.2114 30.2621 97.0778 33.6587 91.8045 37.8393C85.5728 42.7796 80.5132 40.4329 72.0001 49.7809C75.1749 30.9872 79.5423 32.621 87.1605 29.9071C93.255 27.7359 93.9049 23.7192 93.4681 21.9822C95.4266 25.0505 96.2698 28.4002 96.2698 28.4002Z" fill="#D86600"/>
<path d="M75.8123 27.2291C77.94 21.5465 74.6817 19.5978 77.1841 15.4039C78.6205 12.9966 81.8953 10.9079 84.7774 9.9254C86.9165 9.19617 88.8394 9.07623 89.6339 9.88752C92.307 12.6168 93.5912 15.4949 93.7649 18.4497C93.6192 20.6945 92.357 23.8459 82.1294 24.0517C91.0574 24.9655 91.6135 24.0335 93.4681 21.9822C93.9049 23.7192 93.255 27.7359 87.1605 29.9071C79.5423 32.621 75.1749 30.9872 72.0001 49.7809C71.5082 50.321 70.9972 50.9047 70.4651 51.5362C67.8579 54.6308 64.6623 56.5831 61.3558 57.7499C62.6726 50.4165 59.846 44.4232 58.2681 42.3433C63.8446 40.9362 72.3751 36.4088 75.8123 27.2291Z" fill="#FFE19A"/>
<path d="M96.2698 28.4002C97.8656 36.3098 97.1282 39.6625 90.2524 42.1892C83.3765 44.7158 80.4086 48.6314 73.4482 55.5335C66.4878 62.4355 50.1309 66.5629 44.7269 60.8016L43.8837 57.4519C47.1429 59.4003 54.7794 60.0705 61.3558 57.7499C64.6623 56.5831 67.8579 54.6308 70.4651 51.5362C70.9972 50.9047 71.5082 50.321 72.0001 49.7809C80.5132 40.4329 85.5728 42.7796 91.8045 37.8393C97.0778 33.6587 96.2114 30.2621 96.2698 28.4002Z" fill="#DC8600"/>
<path d="M84.7774 9.9254C81.8953 10.9079 78.6205 12.9966 77.1841 15.4039C77.2925 13.9625 77.5099 12.2129 77.2879 10.6278C78.2721 9.98361 81.1478 8.94131 84.7774 9.9254Z" fill="#FFE19A"/>
<path d="M96.2698 28.4002C97.8656 36.3098 97.1282 39.6625 90.2524 42.1892C83.3765 44.7158 80.4086 48.6314 73.4482 55.5335C66.4878 62.4355 50.1309 66.5629 44.7269 60.8016L43.8837 57.4519M96.2698 28.4002C96.2114 30.2621 97.0778 33.6587 91.8045 37.8393C85.5728 42.7796 80.5132 40.4329 72.0001 49.7809M96.2698 28.4002C96.2698 28.4002 95.4266 25.0505 93.4681 21.9822M43.8837 57.4519C42.8451 48.61 48.4784 44.8136 52.6888 42.1678C56.7743 39.5536 60.015 32.0068 61.4898 25.3015C63.2053 17.5022 61.928 11.337 65.6395 7.23383C68.423 4.15648 74.2531 5.85202 76.0544 7.77234C76.7833 8.54933 77.137 9.55058 77.2879 10.6278M43.8837 57.4519C47.1429 59.4003 54.7794 60.0705 61.3558 57.7499M93.4681 21.9822C93.9049 23.7192 93.255 27.7359 87.1605 29.9071C79.5423 32.621 75.1749 30.9872 72.0001 49.7809M93.4681 21.9822C93.7288 20.7957 93.8335 19.6167 93.7649 18.4497M93.4681 21.9822C91.6135 24.0335 91.0574 24.9655 82.1294 24.0517C92.357 23.8459 93.6192 20.6945 93.7649 18.4497M77.1841 15.4039C74.6817 19.5978 77.94 21.5465 75.8123 27.2291C72.3751 36.4088 63.8446 40.9362 58.2681 42.3433C59.846 44.4232 62.6726 50.4165 61.3558 57.7499M77.1841 15.4039C78.6205 12.9966 81.8953 10.9079 84.7774 9.9254M77.1841 15.4039C77.2925 13.9625 77.5099 12.2129 77.2879 10.6278M61.3558 57.7499C64.6623 56.5831 67.8579 54.6308 70.4651 51.5362C70.9972 50.9047 71.5082 50.321 72.0001 49.7809M84.7774 9.9254C86.9165 9.19617 88.8394 9.07623 89.6339 9.88752C92.307 12.6168 93.5912 15.4949 93.7649 18.4497M84.7774 9.9254C81.1478 8.94131 78.2721 9.98361 77.2879 10.6278" stroke="#D86600" stroke-linejoin="round"/>
<ellipse cx="1.1502" cy="1.15139" rx="1.1502" ry="1.15139" transform="matrix(-0.969608 0.244663 0.244123 0.969744 77.2031 27.2227)" fill="#DC8600"/>
<ellipse cx="1.1502" cy="1.15139" rx="1.1502" ry="1.15139" transform="matrix(-0.969608 0.244663 0.244123 0.969744 74.4219 31.8828)" fill="#DC8600"/>
<ellipse cx="1.1502" cy="1.15139" rx="1.1502" ry="1.15139" transform="matrix(-0.969608 0.244663 0.244123 0.969744 70.7109 35.9854)" fill="#DC8600"/>
<ellipse cx="1.1502" cy="1.15139" rx="1.1502" ry="1.15139" transform="matrix(-0.969608 0.244663 0.244123 0.969744 66.8203 39.3438)" fill="#DC8600"/>
<ellipse cx="1.1502" cy="1.15139" rx="1.1502" ry="1.15139" transform="matrix(-0.969608 0.244663 0.244123 0.969744 61.2422 42.334)" fill="#DC8600"/>
<path d="M59.9367 43.4541C58.5374 41.0364 55.5573 38.6218 53.0525 41.2328M58.3379 33.9619C61.2637 31.4498 64.6674 37.1145 65.6043 40.8364C63.4376 36.6332 57.3476 36.3135 54.9075 39.1816M59.4477 30.515C60.7436 27.8133 69.5882 33.1021 69.9685 37.756C65.5861 31.3411 57.685 32.9391 56.6695 36.7578M60.925 25.3925C63.1524 23.2472 68.2371 24.5993 73.5862 33.2807C63.9957 26.5968 60.8739 29.9014 58.8003 32.6577M76.3668 28.6207C64.449 20.5451 61.3911 25.6707 59.8158 28.839M62.1218 19.153C64.628 16.5415 69.2828 19.3253 76.3657 28.6208M61.2946 23.716C62.0738 19.4174 68.5478 14.0334 76.5371 19.8698" stroke="#5C2D0D" stroke-linecap="round" stroke-linejoin="round"/>
<ellipse cx="1.1502" cy="1.15139" rx="1.1502" ry="1.15139" transform="matrix(-0.969608 0.244663 0.244123 0.969744 78.3047 19.0293)" fill="#DC8600"/>
<path d="M77.4751 20.4268C79.0042 21.7862 82.4493 26.0589 81.8617 30.0071C81.1273 34.9423 72.7694 39.4262 72.7694 39.4262M61.6683 20.4571C57.2073 21.5827 60.6662 32.1889 48.2129 34.5396C40.1709 36.0577 37.6982 30.4638 37.6982 30.4638" stroke="#5C2D0D" stroke-linecap="round" stroke-linejoin="round"/>
<mask id="mask1_10604_783" style="mask-type:alpha" maskUnits="userSpaceOnUse" x="43" y="5" width="55" height="60">
<path d="M77.1841 15.4039C74.6817 19.5978 77.94 21.5465 75.8123 27.2291C72.3751 36.4088 63.8446 40.9362 58.2681 42.3433C59.846 44.4232 62.6726 50.4165 61.3558 57.7499C54.7794 60.0705 47.1429 59.4003 43.8837 57.4519C42.8451 48.61 48.4784 44.8136 52.6888 42.1678C56.7743 39.5536 60.015 32.0068 61.4898 25.3015C63.2053 17.5022 61.928 11.337 65.6395 7.23383C68.423 4.15648 74.2531 5.85202 76.0544 7.77234C76.7833 8.54933 77.137 9.55058 77.2879 10.6278C77.5099 12.2129 77.2925 13.9625 77.1841 15.4039Z" fill="#7829D1"/>
<path d="M93.7649 18.4497C93.8335 19.6167 93.7288 20.7957 93.4681 21.9822C91.6135 24.0335 91.0574 24.9655 82.1294 24.0517C92.357 23.8459 93.6192 20.6945 93.7649 18.4497Z" fill="#7829D1"/>
<path d="M96.2698 28.4002C96.2114 30.2621 97.0778 33.6587 91.8045 37.8393C85.5728 42.7796 80.5132 40.4329 72.0001 49.7809C75.1749 30.9872 79.5423 32.621 87.1605 29.9071C93.255 27.7359 93.9049 23.7192 93.4681 21.9822C95.4266 25.0505 96.2698 28.4002 96.2698 28.4002Z" fill="#7829D1"/>
<path d="M75.8123 27.2291C77.94 21.5465 74.6817 19.5978 77.1841 15.4039C78.6205 12.9966 81.8953 10.9079 84.7774 9.9254C86.9165 9.19617 88.8394 9.07623 89.6339 9.88752C92.307 12.6168 93.5912 15.4949 93.7649 18.4497C93.6192 20.6945 92.357 23.8459 82.1294 24.0517C91.0574 24.9655 91.6135 24.0335 93.4681 21.9822C93.9049 23.7192 93.255 27.7359 87.1605 29.9071C79.5423 32.621 75.1749 30.9872 72.0001 49.7809C71.5082 50.321 70.9972 50.9047 70.4651 51.5362C67.8579 54.6308 64.6623 56.5831 61.3558 57.7499C62.6726 50.4165 59.846 44.4232 58.2681 42.3433C63.8446 40.9362 72.3751 36.4088 75.8123 27.2291Z" fill="#DEC2FD"/>
<path d="M96.2698 28.4002C97.8656 36.3098 97.1282 39.6625 90.2524 42.1892C83.3765 44.7158 80.4086 48.6314 73.4482 55.5335C66.4878 62.4355 50.1309 66.5629 44.7269 60.8016L43.8837 57.4519C47.1429 59.4003 54.7794 60.0705 61.3558 57.7499C64.6623 56.5831 67.8579 54.6308 70.4651 51.5362C70.9972 50.9047 71.5082 50.321 72.0001 49.7809C80.5132 40.4329 85.5728 42.7796 91.8045 37.8393C97.0778 33.6587 96.2114 30.2621 96.2698 28.4002Z" fill="#9754E3"/>
<path d="M84.7774 9.9254C81.8953 10.9079 78.6205 12.9966 77.1841 15.4039C77.2925 13.9625 77.5099 12.2129 77.2879 10.6278C78.2721 9.98361 81.1478 8.94131 84.7774 9.9254Z" fill="#DEC2FD"/>
<path d="M96.2698 28.4002C97.8656 36.3098 97.1282 39.6625 90.2524 42.1892C83.3765 44.7158 80.4086 48.6314 73.4482 55.5335C66.4878 62.4355 50.1309 66.5629 44.7269 60.8016L43.8837 57.4519M96.2698 28.4002C96.2114 30.2621 97.0778 33.6587 91.8045 37.8393C85.5728 42.7796 80.5132 40.4329 72.0001 49.7809M96.2698 28.4002C96.2698 28.4002 95.4266 25.0505 93.4681 21.9822M43.8837 57.4519C42.8451 48.61 48.4784 44.8136 52.6888 42.1678C56.7743 39.5536 60.015 32.0068 61.4898 25.3015C63.2053 17.5022 61.928 11.337 65.6395 7.23383C68.423 4.15648 74.2531 5.85202 76.0544 7.77234C76.7833 8.54933 77.137 9.55058 77.2879 10.6278M43.8837 57.4519C47.1429 59.4003 54.7794 60.0705 61.3558 57.7499M93.4681 21.9822C93.9049 23.7192 93.255 27.7359 87.1605 29.9071C79.5423 32.621 75.1749 30.9872 72.0001 49.7809M93.4681 21.9822C93.7288 20.7957 93.8335 19.6167 93.7649 18.4497M93.4681 21.9822C91.6135 24.0335 91.0574 24.9655 82.1294 24.0517C92.357 23.8459 93.6192 20.6945 93.7649 18.4497M77.1841 15.4039C74.6817 19.5978 77.94 21.5465 75.8123 27.2291C72.3751 36.4088 63.8446 40.9362 58.2681 42.3433C59.846 44.4232 62.6726 50.4165 61.3558 57.7499M77.1841 15.4039C78.6205 12.9966 81.8953 10.9079 84.7774 9.9254M77.1841 15.4039C77.2925 13.9625 77.5099 12.2129 77.2879 10.6278M61.3558 57.7499C64.6623 56.5831 67.8579 54.6308 70.4651 51.5362C70.9972 50.9047 71.5082 50.321 72.0001 49.7809M84.7774 9.9254C86.9165 9.19617 88.8394 9.07623 89.6339 9.88752C92.307 12.6168 93.5912 15.4949 93.7649 18.4497M84.7774 9.9254C81.1478 8.94131 78.2721 9.98361 77.2879 10.6278" stroke="#7829D1" stroke-linejoin="round"/>
</mask>
<g mask="url(#mask1_10604_783)">
<g style="mix-blend-mode:overlay" filter="url(#filter1_f_10604_783)">
<path d="M48.227 34.4887C36.4435 48.5394 31.3321 52.9373 32.8448 58.9464C33.5508 61.7506 56.3826 60.1242 66.2526 40.1655C72.7379 27.05 68.2964 -5.05017 63.2136 -3.76763C58.1309 -2.4851 57.1303 23.8723 48.227 34.4887Z" fill="white"/>
</g>
</g>
<defs>
<filter id="filter0_f_10604_783" x="-25.9844" y="28.3701" width="95.2188" height="97.0112" filterUnits="userSpaceOnUse" color-interpolation-filters="sRGB">
<feFlood flood-opacity="0" result="BackgroundImageFix"/>
<feBlend mode="normal" in="SourceGraphic" in2="BackgroundImageFix" result="shape"/>
<feGaussianBlur stdDeviation="10" result="effect1_foregroundBlur_10604_783"/>
</filter>
<filter id="filter1_f_10604_783" x="22.5859" y="-13.8052" width="56.9023" height="83.8145" filterUnits="userSpaceOnUse" color-interpolation-filters="sRGB">
<feFlood flood-opacity="0" result="BackgroundImageFix"/>
<feBlend mode="normal" in="SourceGraphic" in2="BackgroundImageFix" result="shape"/>
<feGaussianBlur stdDeviation="5" result="effect1_foregroundBlur_10604_783"/>
</filter>
</defs>
</svg>
