<svg width="130" height="101" viewBox="0 0 130 101" fill="none" xmlns="http://www.w3.org/2000/svg">
<path d="M22.2351 46.6412C19.8097 43.8054 17.6875 42.0837 17.6875 42.0837C17.6875 42.0837 19.4943 46.3175 21.2245 48.6667C23.0475 51.1419 26.7827 54.237 26.7827 54.237C26.7827 54.237 24.6605 49.477 22.2351 46.6412Z" fill="#3D146B"/>
<path d="M97.018 47.6819C94.9968 50.1125 92.9757 54.237 92.9757 54.237C92.9757 54.237 96.6338 51.083 98.5338 48.6667C100.398 46.2959 102.576 42.0837 102.576 42.0837C102.576 42.0837 99.0391 45.2512 97.018 47.6819Z" fill="#3D146B"/>
<path d="M37.6601 68.4158C37.5508 69.5818 37.4467 70.7679 37.3511 71.9605C37.6048 68.914 39.1053 67.3822 40.8261 65.6254C42.2517 64.1701 43.8285 62.5604 44.9731 59.8072C43.5471 61.9509 42.0093 63.3104 40.7029 64.4652C39.2319 65.7656 38.0543 66.8066 37.6601 68.4158Z" fill="#3D146B"/>
<path d="M70.2376 19.8027C68.3849 20.9843 64.7805 23.3474 61.1424 23.3474C57.5043 23.3474 53.2262 20.9843 51.5419 19.8027C52.0132 20.1334 52.2603 21.072 52.5711 22.2525C53.3709 25.2906 54.5923 29.9305 61.1424 29.9305C67.5534 29.9305 68.5249 25.4856 69.1888 22.4482C69.4668 21.1765 69.6908 20.1514 70.2376 19.8027Z" fill="#3D146B"/>
<path d="M37.3511 45.5714L37.8991 45.122C37.8991 45.122 37.9196 45.6708 37.9361 46.6412C37.9361 46.6412 39.1299 43.9333 39.415 42.0837C39.686 40.3248 39.415 37.5263 39.415 37.5263C39.415 37.5263 39.22 39.7076 38.9097 41.071C38.4967 42.8847 37.3511 45.5714 37.3511 45.5714Z" fill="#3D146B"/>
<path d="M82.8084 46.1348C82.8456 45.4866 82.8699 45.122 82.8699 45.122L83.368 45.5714C83.368 45.5714 82.3079 43.3212 81.8593 41.5773C81.5006 40.1832 81.354 37.5263 81.354 37.5263C81.354 37.5263 81.1989 39.6954 81.354 41.071C81.5846 43.1158 82.8084 46.1348 82.8084 46.1348Z" fill="#3D146B"/>
<path d="M84.891 21.8283L84.3857 21.7584C84.3857 21.7584 83.2844 23.2712 82.8084 24.3602C82.1577 25.8487 81.8593 28.9177 81.8593 28.9177C81.8593 28.9177 82.6148 26.1685 83.368 24.8666C83.9995 23.7753 85.2615 22.2525 85.2615 22.2525L84.891 21.8283Z" fill="#3D146B"/>
<path d="M36.8885 21.7608L36.3832 21.8283L35.9916 22.2525C35.9916 22.2525 37.3248 24.0649 37.8991 25.373C38.4776 26.6908 38.9097 28.9177 38.9097 28.9177C38.9097 28.9177 38.7687 26.7228 38.4044 25.373C38.0056 23.8957 36.8885 21.7608 36.8885 21.7608Z" fill="#3D146B"/>
<path fill-rule="evenodd" clip-rule="evenodd" d="M37.9361 46.6412C37.9406 46.91 37.9476 47.261 37.956 47.6819C38.0364 51.716 38.2448 62.1784 37.6601 68.4158C38.0543 66.8066 39.2319 65.7656 40.7029 64.4652C42.0093 63.3104 43.5471 61.9509 44.9731 59.8072C43.8285 62.5604 42.2517 64.1701 40.8261 65.6254C39.1053 67.3822 37.6048 68.914 37.3511 71.9605C37.297 72.6344 37.2457 73.3104 37.1975 73.9861C36.389 85.3291 34.3621 97.7862 34.3621 97.7862C34.3621 97.7862 38.9682 97.8193 42.952 98.2926C44.514 98.4782 46.2169 98.7308 47.9957 98.9947C52.2407 99.6244 56.9177 100.318 61.1424 100.318C66.536 100.318 72.8013 99.4573 77.8932 98.7576C79.1247 98.5884 80.2887 98.4285 81.354 98.2926C84.4665 97.8956 87.4175 97.7862 87.4175 97.7862C87.4175 97.7862 84.9505 83.6584 83.5484 73.9861C83.5484 73.9861 82.142 80.5684 80.3434 84.6202C78.2891 89.2479 72.2588 95.2543 72.2588 95.2543C72.2588 95.2543 77.354 89.0219 79.3328 84.6202C81.4917 79.818 83.2618 71.9605 83.2618 71.9605C83.1082 70.8451 82.9753 69.8203 82.8699 68.9222C82.0158 61.6472 82.6053 49.6709 82.8084 46.1348C82.8084 46.1348 81.5846 43.1158 81.354 41.071C81.1989 39.6954 81.354 37.5263 81.354 37.5263C81.354 37.5263 81.5006 40.1832 81.8593 41.5773C82.3079 43.3212 83.368 45.5714 83.368 45.5714L92.9757 54.237C92.9757 54.237 94.9968 50.1125 97.018 47.6819C99.0391 45.2512 102.576 42.0837 102.576 42.0837L85.2615 22.2525C85.2615 22.2525 83.9995 23.7753 83.368 24.8666C82.6148 26.1685 81.8593 28.9177 81.8593 28.9177C81.8593 28.9177 82.1577 25.8487 82.8084 24.3602C83.2844 23.2712 84.3857 21.7584 84.3857 21.7584L70.2376 19.8027C69.6908 20.1514 69.4668 21.1765 69.1888 22.4482C68.5249 25.4856 67.5534 29.9305 61.1424 29.9305C54.5923 29.9305 53.3709 25.2906 52.5711 22.2525C52.2603 21.072 52.0132 20.1334 51.5419 19.8027L36.8885 21.7608C36.8885 21.7608 38.0056 23.8957 38.4044 25.373C38.7687 26.7228 38.9097 28.9177 38.9097 28.9177C38.9097 28.9177 38.4776 26.6908 37.8991 25.373C37.3248 24.0649 35.9916 22.2525 35.9916 22.2525L17.6875 42.0837C17.6875 42.0837 19.8097 43.8054 22.2351 46.6412C24.6605 49.477 26.7827 54.237 26.7827 54.237L37.3511 45.5714C37.3511 45.5714 38.4967 42.8847 38.9097 41.071C39.22 39.7076 39.415 37.5263 39.415 37.5263C39.415 37.5263 39.686 40.3248 39.415 42.0837C39.1299 43.9333 37.9361 46.6412 37.9361 46.6412Z" fill="#7829D1"/>
<path d="M83.2618 71.9605C83.2618 71.9605 81.4917 79.818 79.3328 84.6202C77.354 89.0219 72.2588 95.2543 72.2588 95.2543C72.2588 95.2543 78.2891 89.2479 80.3434 84.6202C82.142 80.5684 83.5484 73.9861 83.5484 73.9861C83.4468 73.2851 83.3508 72.6076 83.2618 71.9605Z" fill="#3D146B"/>
<path d="M46.7266 50.5548C46.7266 47.1471 49.4661 44.4043 52.8698 44.4043C56.2735 44.4043 59.0131 47.2302 59.0131 50.6379V56.7053H52.8698C49.4661 56.7053 46.7266 53.9625 46.7266 50.5548Z" fill="#2BCFA1"/>
<mask id="mask0_10604_872" style="mask-type:alpha" maskUnits="userSpaceOnUse" x="46" y="44" width="14" height="13">
<path d="M46.7266 50.6347C46.7266 47.1827 49.5017 44.4043 52.9496 44.4043C56.3975 44.4043 59.1726 47.2669 59.1726 50.7189V56.865H52.9496C49.5017 56.865 46.7266 54.0866 46.7266 50.6347Z" fill="#E63F43"/>
</mask>
<g mask="url(#mask0_10604_872)">
<path d="M53.9913 52.5192C53.753 52.5192 53.5409 52.4642 53.3552 52.3541C53.1723 52.2441 53.0268 52.0943 52.9187 51.9047C52.8134 51.7121 52.7607 51.4935 52.7607 51.2489C52.7607 51.0013 52.8134 50.7827 52.9187 50.5931C53.0268 50.4005 53.1723 50.2507 53.3552 50.1437C53.5409 50.0336 53.753 49.9786 53.9913 49.9786C54.2269 49.9786 54.4376 50.0336 54.6233 50.1437C54.8089 50.2507 54.9545 50.399 55.0598 50.5885C55.1651 50.7781 55.2178 50.9982 55.2178 51.2489C55.2178 51.4935 55.1651 51.7121 55.0598 51.9047C54.9545 52.0943 54.8089 52.2441 54.6233 52.3541C54.4376 52.4642 54.2269 52.5192 53.9913 52.5192ZM53.9913 51.9322C54.0994 51.9322 54.1964 51.9047 54.2823 51.8497C54.3683 51.7946 54.4362 51.7167 54.4861 51.6158C54.5359 51.5118 54.5609 51.3895 54.5609 51.2489C54.5609 51.1052 54.5359 50.9829 54.4861 50.882C54.4362 50.7812 54.3683 50.7032 54.2823 50.6482C54.1964 50.5931 54.0994 50.5656 53.9913 50.5656C53.8832 50.5656 53.7862 50.5931 53.7003 50.6482C53.6144 50.7032 53.5451 50.7812 53.4924 50.882C53.4426 50.9829 53.4176 51.1052 53.4176 51.2489C53.4176 51.3895 53.4426 51.5118 53.4924 51.6158C53.5451 51.7167 53.6144 51.7946 53.7003 51.8497C53.7862 51.9047 53.8832 51.9322 53.9913 51.9322Z" fill="#084836"/>
<path fill-rule="evenodd" clip-rule="evenodd" d="M49.1854 52.4826C48.5135 52.4826 47.9688 51.8817 47.9688 51.1405C47.9688 50.3993 48.5135 49.7984 49.1854 49.7984C49.3908 49.7984 49.5843 49.8546 49.754 49.9537V48.5576H50.402V52.4826H49.1854ZM49.754 51.7677V51.1472C49.754 50.8046 49.5022 50.5268 49.1915 50.5268C48.8809 50.5268 48.629 50.8046 48.629 51.1472C48.629 51.4899 48.8809 51.7677 49.1915 51.7677H49.754Z" fill="#084836"/>
<path d="M51.0859 52.4825V50.0153H51.7054V50.3393C51.7665 50.2473 51.8441 50.173 51.9382 50.1162C52.0851 50.0245 52.2639 49.9786 52.4745 49.9786V50.639C52.4468 50.6359 52.4218 50.6344 52.3997 50.6344C52.3775 50.6313 52.3539 50.6298 52.329 50.6298C52.1516 50.6298 52.0075 50.6864 51.8966 50.7995C51.7885 50.9096 51.7345 51.0823 51.7345 51.3177V52.4825H51.0859Z" fill="#084836"/>
<path d="M56.5617 52.3816C56.7031 52.4734 56.868 52.5192 57.0565 52.5192C57.2671 52.5192 57.4556 52.4672 57.6219 52.3633C57.7909 52.2593 57.924 52.1126 58.021 51.923C58.1208 51.7335 58.1706 51.5088 58.1706 51.2489C58.1706 50.9921 58.1208 50.7689 58.021 50.5794C57.924 50.3898 57.7909 50.2431 57.6219 50.1391C57.4556 50.0321 57.2671 49.9786 57.0565 49.9786C56.8597 49.9786 56.6906 50.0245 56.5493 50.1162C56.4749 50.1644 56.4389 50.1845 56.383 50.2589L56.3747 50.5133V51.2489C56.3747 51.1052 56.3996 50.9829 56.4495 50.882C56.4994 50.7812 56.5673 50.7032 56.6532 50.6482C56.7391 50.5931 56.8361 50.5656 56.9442 50.5656C57.0523 50.5656 57.1479 50.5931 57.2311 50.6482C57.317 50.7032 57.3849 50.7812 57.4348 50.882C57.4874 50.9829 57.5138 51.1052 57.5138 51.2489C57.5138 51.3895 57.4874 51.5118 57.4348 51.6158C57.3849 51.7167 57.317 51.7946 57.2311 51.8497C57.1479 51.9047 57.0523 51.9322 56.9442 51.9322C56.8361 51.9322 56.7391 51.9047 56.6532 51.8497C56.5673 51.7946 56.4994 51.7167 56.4495 51.6158C56.4028 51.5184 56.3779 51.405 56.375 51.2754L56.383 51.9827V52.2213C56.4358 52.2852 56.4954 52.3386 56.5617 52.3816Z" fill="#084836"/>
<path fill-rule="evenodd" clip-rule="evenodd" d="M55.7344 50.0153V53.3722H56.383V52.2213V51.9827L56.375 51.2754C56.3748 51.2667 56.3747 51.2578 56.3747 51.2489V50.5133L56.383 50.2589V50.0153H55.7344Z" fill="#084836"/>
</g>
<path d="M60.125 52.7914V48.5418H60.8851V52.7914H60.125Z" fill="#2BCFA1"/>
<path d="M61.6879 52.7517V49.5547H62.448V52.7517H61.6879ZM62.0679 49.1823C61.9283 49.1823 61.8146 49.1409 61.7269 49.0582C61.6392 48.9754 61.5953 48.8728 61.5953 48.7503C61.5953 48.6279 61.6392 48.5252 61.7269 48.4425C61.8146 48.3597 61.9283 48.3184 62.0679 48.3184C62.2076 48.3184 62.3213 48.3581 62.409 48.4375C62.4967 48.5137 62.5405 48.613 62.5405 48.7354C62.5405 48.8645 62.4967 48.9721 62.409 49.0582C62.3245 49.1409 62.2109 49.1823 62.0679 49.1823Z" fill="#2BCFA1"/>
<path d="M66.7169 52.7517V48.5418H67.477V51.1538V52.0737V52.7517H66.7169Z" fill="#2BCFA1"/>
<path d="M64.844 50.0407C65.0519 50.0407 65.237 50.0837 65.3994 50.1698C65.5651 50.2525 65.695 50.3816 65.7892 50.557C65.8834 50.7292 65.9305 50.951 65.9305 51.2224V52.7517H65.1705V51.3416C65.1705 51.1264 65.1234 50.9675 65.0292 50.8649C64.9382 50.7623 64.8083 50.711 64.6394 50.711C64.5192 50.711 64.4104 50.7375 64.3129 50.7904C64.2188 50.8401 64.144 50.9179 64.0888 51.0238C64.0369 51.1297 64.0109 51.2654 64.0109 51.4309V52.7517H63.2508V50.0804H63.9768V50.3977C64.052 50.3123 64.1413 50.2413 64.2447 50.1847C64.4201 50.0887 64.6199 50.0407 64.844 50.0407Z" fill="#2BCFA1"/>
<path d="M69.4941 50.0804H68.5878L67.477 51.1538V52.0737L67.8559 51.7206L68.4024 51.2114L69.4941 50.0804Z" fill="#2BCFA1"/>
<path d="M68.6707 52.7517H69.5915L68.4024 51.2114L67.8559 51.7206L68.6707 52.7517Z" fill="#2BCFA1"/>
<path d="M70.4329 52.6127C70.6603 52.7319 70.9234 52.7914 71.2222 52.7914C71.4593 52.7914 71.6688 52.755 71.8507 52.6822C72.0326 52.6061 72.1836 52.4985 72.3038 52.3595L71.8994 51.9126C71.8117 51.9986 71.7143 52.0632 71.6071 52.1062C71.5032 52.1493 71.3814 52.1708 71.2417 52.1708C71.0858 52.1708 70.9494 52.1426 70.8324 52.0864C70.7187 52.0268 70.6294 51.9424 70.5645 51.8331C70.5308 51.7718 70.5064 51.7056 70.4911 51.6345C70.4783 51.5751 70.4719 51.5122 70.4719 51.4458V51.3267C70.4719 51.2762 70.4754 51.2282 70.4823 51.1827C70.4949 51.0999 70.5191 51.0254 70.5547 50.9592C70.6099 50.8533 70.6863 50.7722 70.7837 50.7159C70.8844 50.6564 70.9997 50.6266 71.1296 50.6266C71.2596 50.6266 71.3732 50.6564 71.4707 50.7159C71.5681 50.7722 71.6445 50.8517 71.6997 50.9543C71.7363 51.0224 71.7608 51.0985 71.7731 51.1827H70.4823C70.4754 51.2282 70.4719 51.2762 70.4719 51.3267V51.4458C70.4719 51.5122 70.4783 51.5751 70.4911 51.6345H72.4743C72.4776 51.6014 72.4808 51.5667 72.4841 51.5302C72.4873 51.4905 72.489 51.4558 72.489 51.426C72.489 51.138 72.4289 50.8914 72.3087 50.6861C72.1885 50.4776 72.0245 50.3187 71.8166 50.2095C71.612 50.0969 71.3814 50.0407 71.1248 50.0407C70.8584 50.0407 70.6197 50.1002 70.4085 50.2194C70.1974 50.3353 70.0301 50.4975 69.9067 50.706C69.7865 50.9112 69.7264 51.1479 69.7264 51.416C69.7264 51.6809 69.7882 51.9175 69.9116 52.1261C70.035 52.3313 70.2088 52.4935 70.4329 52.6127Z" fill="#2BCFA1"/>
<path fill-rule="evenodd" clip-rule="evenodd" d="M73.5504 52.6226C73.7485 52.7352 73.971 52.7914 74.2179 52.7914C74.4485 52.7914 74.645 52.7418 74.8074 52.6425C74.8926 52.5914 74.9675 52.5268 75.0321 52.4485L75.0023 50.3589C74.942 50.2917 74.8738 50.2352 74.7977 50.1896C74.632 50.0903 74.4388 50.0407 74.2179 50.0407C73.971 50.0407 73.7485 50.0969 73.5504 50.2095C73.3523 50.322 73.1947 50.4809 73.0778 50.6861C72.9641 50.8914 72.9073 51.1347 72.9073 51.416C72.9073 51.6941 72.9641 51.9357 73.0778 52.141C73.1947 52.3462 73.3523 52.5068 73.5504 52.6226ZM74.6856 52.0665C74.5849 52.1261 74.4729 52.1559 74.3495 52.1559C74.2228 52.1559 74.1091 52.1261 74.0084 52.0665C73.9077 52.0069 73.8265 51.9225 73.7648 51.8133C73.7063 51.7007 73.6771 51.5683 73.6771 51.416C73.6771 51.2605 73.7063 51.1281 73.7648 51.0188C73.8265 50.9096 73.9077 50.8252 74.0084 50.7656C74.1091 50.706 74.2228 50.6762 74.3495 50.6762C74.4729 50.6762 74.5849 50.706 74.6856 50.7656C74.7863 50.8252 74.8659 50.9096 74.9244 51.0188C74.9861 51.1281 75.0169 51.2605 75.0169 51.416C75.0169 51.5683 74.9861 51.7007 74.9244 51.8133C74.8659 51.9225 74.7863 52.0069 74.6856 52.0665Z" fill="#2BCFA1"/>
<path d="M75.7624 48.5418H75.0023V50.3589L75.0321 52.4485L75.0364 52.7517H75.7624V48.5418Z" fill="#2BCFA1"/>
<path d="M2.22451 23.6561C2.96858 24.9608 5.33276 25.9471 10.6027 24.7746C15.629 23.6563 24.0062 16.9467 26.2409 12.4734C25.6825 9.11864 24.4605 4.26926 18.4214 2.40901C11.1612 0.172606 2.2259 5.76379 1.10807 13.0325C0.529349 16.7958 1.48049 21.2332 2.22451 23.6561Z" fill="#3D146B"/>
<path fill-rule="evenodd" clip-rule="evenodd" d="M26.2409 12.4734C26.2409 17.5057 23.0017 28.8002 12.2789 31.484C1.55615 34.1679 1.29371 27.3837 2.22451 23.6561C2.96858 24.9608 4.2575 26.7999 10.6027 25.3337C17.8629 23.6561 24.0062 16.9467 26.2409 12.4734Z" fill="#3D146B"/>
<path d="M10.6027 24.7746C5.33276 25.9471 2.96858 24.9608 2.22451 23.6561C2.96858 24.9608 4.2575 26.7999 10.6027 25.3337C17.8629 23.6561 24.0062 16.9467 26.2409 12.4734C24.0062 16.9467 15.629 23.6563 10.6027 24.7746Z" fill="#200043"/>
<path d="M11.5576 19.9601C10.621 18.7291 10.8568 16.9836 12.0863 16.0459C13.3159 15.1082 15.0822 15.3743 16.0188 16.6053L17.6863 18.797L15.4672 20.4894C14.2376 21.4271 12.4942 21.191 11.5576 19.9601Z" fill="#2BCFA1"/>
<mask id="mask1_10604_872" style="mask-type:alpha" maskUnits="userSpaceOnUse" x="11" y="15" width="7" height="7">
<path d="M11.5796 19.9889C10.6308 18.7419 10.8697 16.9738 12.1152 16.0239C13.3607 15.074 15.1499 15.3436 16.0987 16.5906L17.7879 18.8108L15.5399 20.5251C14.2944 21.475 12.5283 21.2359 11.5796 19.9889Z" fill="#E63F43"/>
</mask>
<g mask="url(#mask1_10604_872)">
<path d="M14.7175 18.6674C14.6314 18.7331 14.5397 18.7716 14.4424 18.783C14.346 18.7937 14.2523 18.7796 14.1612 18.7409C14.0702 18.7004 13.9911 18.6359 13.9238 18.5476C13.8558 18.4581 13.8147 18.3646 13.8007 18.2671C13.7868 18.1678 13.7982 18.0736 13.8348 17.9845C13.8717 17.8936 13.9331 17.8153 14.0192 17.7497C14.1043 17.6848 14.1956 17.6466 14.2929 17.6352C14.3894 17.6227 14.4827 17.6362 14.5728 17.6756C14.663 17.7151 14.7425 17.7801 14.8114 17.8707C14.8786 17.959 14.9197 18.0525 14.9346 18.1511C14.9486 18.2486 14.9372 18.3428 14.9004 18.4337C14.8636 18.5246 14.8026 18.6025 14.7175 18.6674ZM14.5562 18.4554C14.5952 18.4256 14.6227 18.3889 14.6386 18.3454C14.6545 18.3018 14.6576 18.255 14.6479 18.2048C14.6374 18.1535 14.6128 18.1024 14.5741 18.0516C14.5346 17.9997 14.492 17.9624 14.4463 17.9397C14.4005 17.917 14.3545 17.9076 14.3084 17.9114C14.2622 17.9151 14.2196 17.9319 14.1806 17.9617C14.1415 17.9915 14.114 18.0282 14.0981 18.0717C14.0822 18.1152 14.0786 18.1625 14.0873 18.2135C14.097 18.2636 14.1216 18.3147 14.1611 18.3666C14.1998 18.4174 14.2424 18.4547 14.289 18.4785C14.3357 18.5004 14.3822 18.5095 14.4284 18.5057C14.4745 18.5019 14.5171 18.4852 14.5562 18.4554Z" fill="#084836"/>
<path fill-rule="evenodd" clip-rule="evenodd" d="M12.9714 19.9782C12.7286 20.1633 12.3667 20.0963 12.163 19.8285C11.9593 19.5608 11.9909 19.1937 12.2337 19.0086C12.3078 18.952 12.3932 18.919 12.4817 18.908L12.098 18.4037L12.3321 18.2252L13.4109 19.643L12.9714 19.9782ZM12.9803 19.5633L12.8098 19.3392C12.7156 19.2154 12.5483 19.1844 12.436 19.27C12.3238 19.3556 12.3092 19.5253 12.4034 19.6491C12.4976 19.7729 12.6649 19.8038 12.7771 19.7182L12.9803 19.5633Z" fill="#084836"/>
<path d="M13.6579 19.4546L12.9798 18.5633L13.2036 18.3927L13.2926 18.5097C13.2894 18.4597 13.297 18.4114 13.3154 18.365C13.3432 18.2914 13.3952 18.2256 13.4713 18.1675L13.6528 18.4061C13.642 18.4126 13.6325 18.4189 13.6245 18.425C13.6157 18.43 13.6067 18.436 13.5977 18.4429C13.5336 18.4917 13.4971 18.5519 13.4882 18.6233C13.4794 18.6928 13.5073 18.7701 13.572 18.8551L13.8922 19.2759L13.6579 19.4546Z" fill="#084836"/>
<path d="M15.6082 17.9096C15.6845 17.9038 15.7567 17.8749 15.8247 17.823C15.9008 17.765 15.9546 17.6943 15.9861 17.6109C16.0186 17.5268 16.0264 17.4371 16.0093 17.3419C15.9933 17.246 15.9495 17.1511 15.8781 17.0572C15.8075 16.9644 15.7281 16.8975 15.64 16.8566C15.5529 16.8148 15.4645 16.7984 15.3748 16.8075C15.2854 16.8146 15.2026 16.8472 15.1265 16.9053C15.0554 16.9595 15.0069 17.0226 14.9811 17.0947C14.9675 17.1326 14.96 17.1497 14.9602 17.192L15.0271 17.2862L15.2293 17.552C15.1898 17.5001 15.1652 17.449 15.1555 17.3988C15.1458 17.3486 15.1489 17.3018 15.1648 17.2582C15.1807 17.2147 15.2082 17.178 15.2473 17.1482C15.2863 17.1184 15.3284 17.102 15.3736 17.099C15.4197 17.0952 15.4657 17.1047 15.5114 17.1274C15.5582 17.1493 15.6013 17.1862 15.6408 17.2381C15.6795 17.2889 15.7036 17.3404 15.7131 17.3924C15.7228 17.4426 15.7197 17.4895 15.7038 17.533C15.6889 17.5758 15.6619 17.6121 15.6229 17.6419C15.5838 17.6717 15.5412 17.6885 15.495 17.6922C15.4489 17.696 15.4029 17.6866 15.3572 17.6639C15.3135 17.6416 15.2734 17.6074 15.2367 17.5615L15.434 17.8147L15.4996 17.9009C15.5362 17.9094 15.5724 17.9123 15.6082 17.9096Z" fill="#084836"/>
<path fill-rule="evenodd" clip-rule="evenodd" d="M14.659 17.2827L15.5816 18.4953L15.8159 18.3167L15.4996 17.9009L15.434 17.8147L15.2367 17.5615C15.2342 17.5583 15.2318 17.5552 15.2293 17.552L15.0271 17.2862L14.9602 17.192L14.8933 17.104L14.659 17.2827Z" fill="#084836"/>
</g>
<path d="M17.0106 17.0748L15.8427 15.5397L16.1172 15.3303L17.2852 16.8654L17.0106 17.0748Z" fill="#2BCFA1"/>
<path d="M17.5643 16.6299L16.6856 15.475L16.9602 15.2656L17.8389 16.4205L17.5643 16.6299ZM16.7206 15.2358C16.6701 15.2743 16.6177 15.2907 16.5632 15.2849C16.5088 15.2792 16.4648 15.2542 16.4311 15.21C16.3975 15.1657 16.3851 15.1166 16.394 15.0625C16.403 15.0085 16.4327 14.9622 16.4831 14.9237C16.5336 14.8852 16.5855 14.8683 16.6391 14.8728C16.6917 14.8762 16.7348 14.9 16.7685 14.9442C16.8039 14.9908 16.8177 15.0418 16.8096 15.097C16.8019 15.1502 16.7722 15.1964 16.7206 15.2358Z" fill="#2BCFA1"/>
<path d="M19.381 15.2445L18.2239 13.7237L18.4985 13.5143L19.2164 14.4579L19.4692 14.7902L19.6555 15.0351L19.381 15.2445Z" fill="#2BCFA1"/>
<path d="M17.9593 14.7811C18.0344 14.7238 18.1131 14.6884 18.1954 14.6747C18.278 14.659 18.3604 14.6698 18.4427 14.7072C18.524 14.7435 18.602 14.8106 18.6766 14.9087L19.0969 15.4611L18.8223 15.6705L18.4348 15.1611C18.3756 15.0834 18.3149 15.039 18.2527 15.0278C18.1916 15.0158 18.1306 15.0331 18.0696 15.0796C18.0262 15.1127 17.9942 15.1523 17.9735 15.1982C17.9531 15.2421 17.9475 15.2908 17.9567 15.3443C17.967 15.3969 17.9949 15.4531 18.0404 15.5128L18.4034 15.99L18.1289 16.1993L17.3947 15.2344L17.6569 15.0344L17.7441 15.149C17.7478 15.0974 17.7606 15.0472 17.7824 14.9982C17.8194 14.9152 17.8783 14.8428 17.9593 14.7811Z" fill="#2BCFA1"/>
<path d="M19.65 13.5144L19.3226 13.7641L19.2164 14.4579L19.4692 14.7902L19.509 14.5582L19.5665 14.2237L19.65 13.5144Z" fill="#2BCFA1"/>
<path d="M20.0867 14.7062L20.4194 14.4525L19.5665 14.2237L19.509 14.5582L20.0867 14.7062Z" fill="#2BCFA1"/>
<path d="M20.6851 14.1705C20.8 14.1509 20.9114 14.1 21.0193 14.0177C21.105 13.9523 21.1707 13.8815 21.2164 13.805C21.2611 13.7274 21.2861 13.647 21.2913 13.5636L21.0224 13.5136C21.0144 13.5689 20.9969 13.619 20.9701 13.6641C20.9443 13.7083 20.9062 13.7496 20.8558 13.7881C20.7995 13.831 20.7425 13.8585 20.6848 13.8703C20.6273 13.8801 20.5718 13.8743 20.5184 13.8527C20.4894 13.8398 20.4623 13.8226 20.4373 13.8012C20.4163 13.7832 20.3967 13.7622 20.3785 13.7383L20.3457 13.6952C20.3318 13.677 20.3199 13.6587 20.3099 13.6403C20.2917 13.607 20.28 13.5734 20.2747 13.5397C20.2655 13.4862 20.2708 13.4359 20.2905 13.3887C20.3105 13.3395 20.344 13.2969 20.3909 13.2611C20.4378 13.2253 20.4871 13.2048 20.5387 13.1995C20.5893 13.1929 20.6387 13.2006 20.6869 13.2225C20.7188 13.237 20.7486 13.2577 20.7762 13.2847L20.3099 13.6403C20.3199 13.6587 20.3318 13.677 20.3457 13.6952L20.3785 13.7383C20.3967 13.7622 20.4163 13.7832 20.4373 13.8012L21.1537 13.2548C21.1458 13.2419 21.1374 13.2285 21.1286 13.2144C21.1188 13.1992 21.1098 13.1862 21.1017 13.1754C21.0225 13.0714 20.933 12.9989 20.8332 12.9578C20.7325 12.9156 20.6295 12.9034 20.5244 12.9212C20.4196 12.9369 20.3208 12.9801 20.2281 13.0508C20.1319 13.1242 20.062 13.2115 20.0185 13.3127C19.9741 13.4127 19.9582 13.5174 19.971 13.6267C19.984 13.734 20.0273 13.836 20.101 13.9329C20.1738 14.0285 20.2611 14.097 20.363 14.1384C20.464 14.1785 20.5714 14.1892 20.6851 14.1705Z" fill="#2BCFA1"/>
<path fill-rule="evenodd" clip-rule="evenodd" d="M21.814 13.3153C21.9165 13.3013 22.0123 13.2604 22.1015 13.1924C22.1848 13.1288 22.2421 13.0568 22.2735 12.9762C22.2903 12.9342 22.2995 12.8902 22.3014 12.8442L21.7163 12.0976C21.676 12.0899 21.6359 12.0883 21.5958 12.0928C21.5087 12.1025 21.4252 12.1378 21.3455 12.1987C21.2563 12.2667 21.1914 12.3483 21.1507 12.4436C21.1101 12.5388 21.0969 12.6396 21.111 12.746C21.1264 12.8514 21.1727 12.955 21.25 13.0566C21.3265 13.157 21.4134 13.2287 21.5109 13.2715C21.6095 13.3134 21.7106 13.328 21.814 13.3153ZM22.0712 12.8016C22.0512 12.8509 22.0189 12.8925 21.9743 12.9265C21.9286 12.9614 21.8793 12.982 21.8266 12.9882C21.7738 12.9944 21.7213 12.9863 21.669 12.9639C21.6169 12.9393 21.57 12.8995 21.5281 12.8445C21.4854 12.7883 21.4595 12.7324 21.4506 12.6769C21.4429 12.6204 21.449 12.5675 21.469 12.5183C21.489 12.469 21.5219 12.4269 21.5677 12.392C21.6122 12.358 21.6609 12.3379 21.7137 12.3317C21.7664 12.3255 21.8184 12.3341 21.8695 12.3574C21.9218 12.3799 21.9694 12.4192 22.0121 12.4754C22.054 12.5304 22.0792 12.5867 22.0879 12.6444C22.0968 12.7 22.0912 12.7524 22.0712 12.8016Z" fill="#2BCFA1"/>
<path d="M21.4914 11.2318L21.2169 11.4412L21.7163 12.0976L22.3014 12.8442L22.3863 12.9525L22.6485 12.7525L21.4914 11.2318Z" fill="#2BCFA1"/>
<path d="M102.57 1.91394C102.57 2.35149 102.57 15.5423 102.57 21.192C102.57 22.8282 103.16 24.4361 104.598 25.217C106.244 26.1113 108.991 27.0749 113.181 27.0749C117.449 27.0749 120.219 26.0756 121.855 25.1678C123.232 24.4038 123.814 22.8639 123.855 21.2897L123.921 18.6878L123.974 16.4513L124.17 8.06429L124.222 5.82775C124.222 5.82775 124.351 2.47376 124.351 1.91394C124.351 2.47376 119.325 3.59134 113.181 3.59134C107.038 3.59134 102.57 2.47127 102.57 1.91394Z" fill="white"/>
<path d="M113.181 3.59134C119.325 3.59134 124.351 2.47376 124.351 1.91394C124.351 1.3555 118.766 0.739067 113.181 0.795606C107.597 0.852144 102.57 1.35661 102.57 1.91394C102.57 2.47127 107.038 3.59134 113.181 3.59134Z" fill="#7829D1"/>
<path d="M123.974 16.4513L123.921 18.6878C123.921 18.6878 124.319 19.0204 124.909 19.3151C124.463 18.4743 124.415 17.362 124.447 16.911C124.156 16.6594 123.974 16.4513 123.974 16.4513Z" fill="#7829D1"/>
<path fill-rule="evenodd" clip-rule="evenodd" d="M129.936 11.9782C129.936 2.77827 126.428 4.21922 124.909 5.27423C124.463 5.72538 124.415 7.10149 124.447 7.73316C125.386 6.68465 128.389 3.9595 128.389 11.9782C128.389 19.5508 125.587 17.8967 124.447 16.911C124.415 17.362 124.463 18.4743 124.909 19.3151C126.616 20.1666 129.936 20.7015 129.936 11.9782Z" fill="white"/>
<path d="M124.222 5.82775L124.17 8.06429C124.17 8.06429 124.273 7.92753 124.447 7.73316C124.415 7.10149 124.463 5.72538 124.909 5.27423C124.49 5.56572 124.222 5.82775 124.222 5.82775Z" fill="#7829D1"/>
<path d="M104.805 14.1721C104.805 12.3372 106.28 10.8604 108.113 10.8604C109.945 10.8604 111.421 12.382 111.421 14.2169V17.4839H108.113C106.28 17.4839 104.805 16.0071 104.805 14.1721Z" fill="#2BCFA1"/>
<mask id="mask2_10604_872" style="mask-type:alpha" maskUnits="userSpaceOnUse" x="104" y="10" width="8" height="8">
<path d="M104.805 14.2152C104.805 12.3564 106.299 10.8604 108.156 10.8604C110.012 10.8604 111.506 12.4018 111.506 14.2605V17.57H108.156C106.299 17.57 104.805 16.0739 104.805 14.2152Z" fill="#E63F43"/>
</mask>
<g mask="url(#mask2_10604_872)">
<path d="M108.712 15.2289C108.583 15.2289 108.469 15.1992 108.369 15.14C108.271 15.0807 108.192 15 108.134 14.898C108.077 14.7943 108.049 14.6766 108.049 14.5449C108.049 14.4115 108.077 14.2938 108.134 14.1917C108.192 14.088 108.271 14.0074 108.369 13.9498C108.469 13.8905 108.583 13.8609 108.712 13.8609C108.839 13.8609 108.952 13.8905 109.052 13.9498C109.152 14.0074 109.23 14.0872 109.287 14.1893C109.344 14.2913 109.372 14.4099 109.372 14.5449C109.372 14.6766 109.344 14.7943 109.287 14.898C109.23 15 109.152 15.0807 109.052 15.14C108.952 15.1992 108.839 15.2289 108.712 15.2289ZM108.712 14.9128C108.77 14.9128 108.822 14.898 108.868 14.8683C108.915 14.8387 108.951 14.7967 108.978 14.7424C109.005 14.6864 109.018 14.6206 109.018 14.5449C109.018 14.4675 109.005 14.4016 108.978 14.3473C108.951 14.293 108.915 14.251 108.868 14.2214C108.822 14.1917 108.77 14.1769 108.712 14.1769C108.653 14.1769 108.601 14.1917 108.555 14.2214C108.509 14.251 108.471 14.293 108.443 14.3473C108.416 14.4016 108.403 14.4675 108.403 14.5449C108.403 14.6206 108.416 14.6864 108.443 14.7424C108.471 14.7967 108.509 14.8387 108.555 14.8683C108.601 14.898 108.653 14.9128 108.712 14.9128Z" fill="#084836"/>
<path fill-rule="evenodd" clip-rule="evenodd" d="M106.124 15.2091C105.762 15.2091 105.469 14.8856 105.469 14.4865C105.469 14.0874 105.762 13.7638 106.124 13.7638C106.234 13.7638 106.339 13.7941 106.43 13.8474V13.0957H106.779V15.2091H106.124ZM106.43 14.8242V14.4901C106.43 14.3056 106.294 14.156 106.127 14.156C105.96 14.156 105.824 14.3056 105.824 14.4901C105.824 14.6746 105.96 14.8242 106.127 14.8242H106.43Z" fill="#084836"/>
<path d="M107.147 15.2091V13.8806H107.481V14.055C107.514 14.0056 107.555 13.9655 107.606 13.9349C107.685 13.8855 107.781 13.8609 107.895 13.8609V14.2164C107.88 14.2148 107.867 14.214 107.855 14.214C107.843 14.2123 107.83 14.2115 107.817 14.2115C107.721 14.2115 107.643 14.242 107.584 14.3029C107.526 14.3621 107.496 14.4551 107.496 14.5819V15.2091H107.147Z" fill="#084836"/>
<path d="M110.096 15.1548C110.172 15.2042 110.261 15.2289 110.362 15.2289C110.476 15.2289 110.577 15.2009 110.667 15.1449C110.758 15.0889 110.829 15.0099 110.881 14.9079C110.935 14.8058 110.962 14.6848 110.962 14.5449C110.962 14.4066 110.935 14.2864 110.881 14.1843C110.829 14.0823 110.758 14.0033 110.667 13.9473C110.577 13.8897 110.476 13.8609 110.362 13.8609C110.256 13.8609 110.165 13.8855 110.089 13.9349C110.049 13.9609 110.03 13.9717 109.999 14.0118L109.995 14.1488V14.5449C109.995 14.4675 110.008 14.4016 110.035 14.3473C110.062 14.293 110.099 14.251 110.145 14.2214C110.191 14.1917 110.243 14.1769 110.302 14.1769C110.36 14.1769 110.411 14.1917 110.456 14.2214C110.502 14.251 110.539 14.293 110.566 14.3473C110.594 14.4016 110.608 14.4675 110.608 14.5449C110.608 14.6206 110.594 14.6864 110.566 14.7424C110.539 14.7967 110.502 14.8387 110.456 14.8683C110.411 14.898 110.36 14.9128 110.302 14.9128C110.243 14.9128 110.191 14.898 110.145 14.8683C110.099 14.8387 110.062 14.7967 110.035 14.7424C110.01 14.69 109.997 14.6289 109.995 14.5591L109.999 14.94V15.0685C110.028 15.1029 110.06 15.1316 110.096 15.1548Z" fill="#084836"/>
<path fill-rule="evenodd" clip-rule="evenodd" d="M109.65 13.8806V15.6882H109.999V15.0685V14.94L109.995 14.5591C109.995 14.5544 109.995 14.5497 109.995 14.5449V14.1488L109.999 14.0118V13.8806H109.65Z" fill="#084836"/>
</g>
<path d="M112.023 15.3754V13.0871L112.433 13.0871V15.3754H112.023Z" fill="#2BCFA1"/>
<path d="M112.865 15.354V13.6325H113.274V15.354H112.865ZM113.07 13.432C112.994 13.432 112.933 13.4097 112.886 13.3652C112.839 13.3206 112.815 13.2654 112.815 13.1994C112.815 13.1335 112.839 13.0782 112.886 13.0336C112.933 12.9891 112.994 12.9668 113.07 12.9668C113.145 12.9668 113.206 12.9882 113.253 13.031C113.301 13.072 113.324 13.1254 113.324 13.1914C113.324 13.2609 113.301 13.3188 113.253 13.3652C113.208 13.4097 113.147 13.432 113.07 13.432Z" fill="#2BCFA1"/>
<path d="M115.573 15.354V13.0871H115.982V14.4936V14.9889V15.354H115.573Z" fill="#2BCFA1"/>
<path d="M114.564 13.8942C114.676 13.8942 114.776 13.9174 114.864 13.9637C114.953 14.0083 115.023 14.0778 115.073 14.1722C115.124 14.2649 115.149 14.3844 115.149 14.5305V15.354H114.74V14.5947C114.74 14.4788 114.715 14.3933 114.664 14.338C114.615 14.2828 114.545 14.2551 114.454 14.2551C114.39 14.2551 114.331 14.2694 114.278 14.2979C114.228 14.3246 114.188 14.3665 114.158 14.4236C114.13 14.4806 114.116 14.5537 114.116 14.6428V15.354H113.707V13.9156H114.097V14.0864C114.138 14.0404 114.186 14.0022 114.242 13.9717C114.336 13.92 114.444 13.8942 114.564 13.8942Z" fill="#2BCFA1"/>
<path d="M117.068 13.9156H116.58L115.982 14.4936V14.9889L116.186 14.7988L116.48 14.5246L117.068 13.9156Z" fill="#2BCFA1"/>
<path d="M116.625 15.354H117.121L116.48 14.5246L116.186 14.7988L116.625 15.354Z" fill="#2BCFA1"/>
<path d="M117.574 15.2791C117.696 15.3433 117.838 15.3754 117.999 15.3754C118.127 15.3754 118.239 15.3558 118.337 15.3166C118.435 15.2756 118.517 15.2176 118.581 15.1428L118.364 14.9021C118.316 14.9485 118.264 14.9832 118.206 15.0064C118.15 15.0296 118.085 15.0412 118.009 15.0412C117.925 15.0412 117.852 15.026 117.789 14.9957C117.728 14.9636 117.68 14.9182 117.645 14.8594C117.627 14.8264 117.613 14.7907 117.605 14.7524C117.598 14.7204 117.595 14.6865 117.595 14.6508V14.5867C117.595 14.5595 117.597 14.5336 117.6 14.5091C117.607 14.4646 117.62 14.4245 117.639 14.3888C117.669 14.3318 117.71 14.2881 117.763 14.2578C117.817 14.2257 117.879 14.2097 117.949 14.2097C118.019 14.2097 118.08 14.2257 118.133 14.2578C118.185 14.2881 118.226 14.3309 118.256 14.3861C118.276 14.4228 118.289 14.4638 118.296 14.5091H117.6C117.597 14.5336 117.595 14.5595 117.595 14.5867V14.6508C117.595 14.6865 117.598 14.7204 117.605 14.7524H118.673C118.675 14.7346 118.677 14.7159 118.678 14.6963C118.68 14.6749 118.681 14.6562 118.681 14.6401C118.681 14.4851 118.649 14.3523 118.584 14.2418C118.519 14.1295 118.431 14.0439 118.319 13.9851C118.209 13.9245 118.085 13.8942 117.946 13.8942C117.803 13.8942 117.674 13.9263 117.561 13.9904C117.447 14.0528 117.357 14.1402 117.291 14.2525C117.226 14.363 117.193 14.4904 117.193 14.6348C117.193 14.7774 117.227 14.9048 117.293 15.0171C117.36 15.1276 117.453 15.215 117.574 15.2791Z" fill="#2BCFA1"/>
<path fill-rule="evenodd" clip-rule="evenodd" d="M119.253 15.2845C119.359 15.3451 119.479 15.3754 119.612 15.3754C119.736 15.3754 119.842 15.3486 119.929 15.2952C119.975 15.2677 120.016 15.2329 120.05 15.1907L120.034 14.0656C120.002 14.0294 119.965 13.999 119.924 13.9744C119.835 13.9209 119.731 13.8942 119.612 13.8942C119.479 13.8942 119.359 13.9245 119.253 13.9851C119.146 14.0457 119.061 14.1312 118.998 14.2418C118.937 14.3523 118.906 14.4833 118.906 14.6348C118.906 14.7845 118.937 14.9146 118.998 15.0251C119.061 15.1356 119.146 15.2221 119.253 15.2845ZM119.864 14.985C119.81 15.0171 119.749 15.0332 119.683 15.0332C119.615 15.0332 119.553 15.0171 119.499 14.985C119.445 14.9529 119.401 14.9075 119.368 14.8487C119.336 14.7881 119.321 14.7168 119.321 14.6348C119.321 14.551 119.336 14.4797 119.368 14.4209C119.401 14.3621 119.445 14.3166 119.499 14.2845C119.553 14.2525 119.615 14.2364 119.683 14.2364C119.749 14.2364 119.81 14.2525 119.864 14.2845C119.918 14.3166 119.961 14.3621 119.992 14.4209C120.026 14.4797 120.042 14.551 120.042 14.6348C120.042 14.7168 120.026 14.7881 119.992 14.8487C119.961 14.9075 119.918 14.9529 119.864 14.985Z" fill="#2BCFA1"/>
<path d="M120.444 13.0871H120.034V14.0656L120.05 15.1907L120.053 15.354H120.444V13.0871Z" fill="#2BCFA1"/>
<mask id="mask3_10604_872" style="mask-type:alpha" maskUnits="userSpaceOnUse" x="0" y="0" width="130" height="101">
<path d="M22.2351 46.6412C19.8097 43.8054 17.6875 42.0837 17.6875 42.0837C17.6875 42.0837 19.4943 46.3175 21.2245 48.6667C23.0475 51.1419 26.7827 54.237 26.7827 54.237C26.7827 54.237 24.6605 49.477 22.2351 46.6412Z" fill="#3D146B"/>
<path d="M97.018 47.6819C94.9968 50.1125 92.9757 54.237 92.9757 54.237C92.9757 54.237 96.6338 51.083 98.5338 48.6667C100.398 46.2959 102.576 42.0837 102.576 42.0837C102.576 42.0837 99.0391 45.2512 97.018 47.6819Z" fill="#3D146B"/>
<path d="M37.6601 68.4158C37.5508 69.5818 37.4467 70.7679 37.3511 71.9605C37.6048 68.914 39.1053 67.3822 40.8261 65.6254C42.2517 64.1701 43.8285 62.5604 44.9731 59.8072C43.5471 61.9509 42.0093 63.3104 40.7029 64.4652C39.2319 65.7656 38.0543 66.8066 37.6601 68.4158Z" fill="#3D146B"/>
<path d="M70.2376 19.8027C68.3849 20.9843 64.7805 23.3474 61.1424 23.3474C57.5043 23.3474 53.2262 20.9843 51.5419 19.8027C52.0132 20.1334 52.2603 21.072 52.5711 22.2525C53.3709 25.2906 54.5923 29.9305 61.1424 29.9305C67.5534 29.9305 68.5249 25.4856 69.1888 22.4482C69.4668 21.1765 69.6908 20.1514 70.2376 19.8027Z" fill="#3D146B"/>
<path d="M37.3511 45.5714L37.8991 45.122C37.8991 45.122 37.9196 45.6708 37.9361 46.6412C37.9361 46.6412 39.1299 43.9333 39.415 42.0837C39.686 40.3248 39.415 37.5263 39.415 37.5263C39.415 37.5263 39.22 39.7076 38.9097 41.071C38.4967 42.8847 37.3511 45.5714 37.3511 45.5714Z" fill="#3D146B"/>
<path d="M82.8084 46.1348C82.8456 45.4866 82.8699 45.122 82.8699 45.122L83.368 45.5714C83.368 45.5714 82.3079 43.3212 81.8593 41.5773C81.5006 40.1832 81.354 37.5263 81.354 37.5263C81.354 37.5263 81.1989 39.6954 81.354 41.071C81.5846 43.1158 82.8084 46.1348 82.8084 46.1348Z" fill="#3D146B"/>
<path d="M84.891 21.8283L84.3857 21.7584C84.3857 21.7584 83.2844 23.2712 82.8084 24.3602C82.1577 25.8487 81.8593 28.9177 81.8593 28.9177C81.8593 28.9177 82.6148 26.1685 83.368 24.8666C83.9995 23.7753 85.2615 22.2525 85.2615 22.2525L84.891 21.8283Z" fill="#3D146B"/>
<path d="M36.8885 21.7608L36.3832 21.8283L35.9916 22.2525C35.9916 22.2525 37.3248 24.0649 37.8991 25.373C38.4776 26.6908 38.9097 28.9177 38.9097 28.9177C38.9097 28.9177 38.7687 26.7228 38.4044 25.373C38.0056 23.8957 36.8885 21.7608 36.8885 21.7608Z" fill="#3D146B"/>
<path fill-rule="evenodd" clip-rule="evenodd" d="M37.9361 46.6412C37.9406 46.91 37.9476 47.261 37.956 47.6819C38.0364 51.716 38.2448 62.1784 37.6601 68.4158C38.0543 66.8066 39.2319 65.7656 40.7029 64.4652C42.0093 63.3104 43.5471 61.9509 44.9731 59.8072C43.8285 62.5604 42.2517 64.1701 40.8261 65.6254C39.1053 67.3822 37.6048 68.914 37.3511 71.9605C37.297 72.6344 37.2457 73.3104 37.1975 73.9861C36.389 85.3291 34.3621 97.7862 34.3621 97.7862C34.3621 97.7862 38.9682 97.8193 42.952 98.2926C44.514 98.4782 46.2169 98.7308 47.9957 98.9947C52.2407 99.6244 56.9177 100.318 61.1424 100.318C66.536 100.318 72.8013 99.4573 77.8932 98.7576C79.1247 98.5884 80.2887 98.4285 81.354 98.2926C84.4665 97.8956 87.4175 97.7862 87.4175 97.7862C87.4175 97.7862 84.9505 83.6584 83.5484 73.9861C83.5484 73.9861 82.142 80.5684 80.3434 84.6202C78.2891 89.2479 72.2588 95.2543 72.2588 95.2543C72.2588 95.2543 77.354 89.0219 79.3328 84.6202C81.4917 79.818 83.2618 71.9605 83.2618 71.9605C83.1082 70.8451 82.9753 69.8203 82.8699 68.9222C82.0158 61.6472 82.6053 49.6709 82.8084 46.1348C82.8084 46.1348 81.5846 43.1158 81.354 41.071C81.1989 39.6954 81.354 37.5263 81.354 37.5263C81.354 37.5263 81.5006 40.1832 81.8593 41.5773C82.3079 43.3212 83.368 45.5714 83.368 45.5714L92.9757 54.237C92.9757 54.237 94.9968 50.1125 97.018 47.6819C99.0391 45.2512 102.576 42.0837 102.576 42.0837L85.2615 22.2525C85.2615 22.2525 83.9995 23.7753 83.368 24.8666C82.6148 26.1685 81.8593 28.9177 81.8593 28.9177C81.8593 28.9177 82.1577 25.8487 82.8084 24.3602C83.2844 23.2712 84.3857 21.7584 84.3857 21.7584L70.2376 19.8027C69.6908 20.1514 69.4668 21.1765 69.1888 22.4482C68.5249 25.4856 67.5534 29.9305 61.1424 29.9305C54.5923 29.9305 53.3709 25.2906 52.5711 22.2525C52.2603 21.072 52.0132 20.1334 51.5419 19.8027L36.8885 21.7608C36.8885 21.7608 38.0056 23.8957 38.4044 25.373C38.7687 26.7228 38.9097 28.9177 38.9097 28.9177C38.9097 28.9177 38.4776 26.6908 37.8991 25.373C37.3248 24.0649 35.9916 22.2525 35.9916 22.2525L17.6875 42.0837C17.6875 42.0837 19.8097 43.8054 22.2351 46.6412C24.6605 49.477 26.7827 54.237 26.7827 54.237L37.3511 45.5714C37.3511 45.5714 38.4967 42.8847 38.9097 41.071C39.22 39.7076 39.415 37.5263 39.415 37.5263C39.415 37.5263 39.686 40.3248 39.415 42.0837C39.1299 43.9333 37.9361 46.6412 37.9361 46.6412Z" fill="#7829D1"/>
<path d="M83.2618 71.9605C83.2618 71.9605 81.4917 79.818 79.3328 84.6202C77.354 89.0219 72.2588 95.2543 72.2588 95.2543C72.2588 95.2543 78.2891 89.2479 80.3434 84.6202C82.142 80.5684 83.5484 73.9861 83.5484 73.9861C83.4468 73.2851 83.3508 72.6076 83.2618 71.9605Z" fill="#3D146B"/>
<path d="M46.7266 50.5548C46.7266 47.1471 49.4661 44.4043 52.8698 44.4043C56.2735 44.4043 59.0131 47.2302 59.0131 50.6379V56.7053H52.8698C49.4661 56.7053 46.7266 53.9625 46.7266 50.5548Z" fill="#2BCFA1"/>
<mask id="mask4_10604_872" style="mask-type:alpha" maskUnits="userSpaceOnUse" x="46" y="44" width="14" height="13">
<path d="M46.7266 50.6347C46.7266 47.1827 49.5017 44.4043 52.9496 44.4043C56.3975 44.4043 59.1726 47.2669 59.1726 50.7189V56.865H52.9496C49.5017 56.865 46.7266 54.0866 46.7266 50.6347Z" fill="#E63F43"/>
</mask>
<g mask="url(#mask4_10604_872)">
<path d="M53.9913 52.5192C53.753 52.5192 53.5409 52.4642 53.3552 52.3541C53.1723 52.2441 53.0268 52.0943 52.9187 51.9047C52.8134 51.7121 52.7607 51.4935 52.7607 51.2489C52.7607 51.0013 52.8134 50.7827 52.9187 50.5931C53.0268 50.4005 53.1723 50.2507 53.3552 50.1437C53.5409 50.0336 53.753 49.9786 53.9913 49.9786C54.2269 49.9786 54.4376 50.0336 54.6233 50.1437C54.8089 50.2507 54.9545 50.399 55.0598 50.5885C55.1651 50.7781 55.2178 50.9982 55.2178 51.2489C55.2178 51.4935 55.1651 51.7121 55.0598 51.9047C54.9545 52.0943 54.8089 52.2441 54.6233 52.3541C54.4376 52.4642 54.2269 52.5192 53.9913 52.5192ZM53.9913 51.9322C54.0994 51.9322 54.1964 51.9047 54.2823 51.8497C54.3683 51.7946 54.4362 51.7167 54.4861 51.6158C54.5359 51.5118 54.5609 51.3895 54.5609 51.2489C54.5609 51.1052 54.5359 50.9829 54.4861 50.882C54.4362 50.7812 54.3683 50.7032 54.2823 50.6482C54.1964 50.5931 54.0994 50.5656 53.9913 50.5656C53.8832 50.5656 53.7862 50.5931 53.7003 50.6482C53.6144 50.7032 53.5451 50.7812 53.4924 50.882C53.4426 50.9829 53.4176 51.1052 53.4176 51.2489C53.4176 51.3895 53.4426 51.5118 53.4924 51.6158C53.5451 51.7167 53.6144 51.7946 53.7003 51.8497C53.7862 51.9047 53.8832 51.9322 53.9913 51.9322Z" fill="#084836"/>
<path fill-rule="evenodd" clip-rule="evenodd" d="M49.1854 52.4826C48.5135 52.4826 47.9688 51.8817 47.9688 51.1405C47.9688 50.3993 48.5135 49.7984 49.1854 49.7984C49.3908 49.7984 49.5843 49.8546 49.754 49.9537V48.5576H50.402V52.4826H49.1854ZM49.754 51.7677V51.1472C49.754 50.8046 49.5022 50.5268 49.1915 50.5268C48.8809 50.5268 48.629 50.8046 48.629 51.1472C48.629 51.4899 48.8809 51.7677 49.1915 51.7677H49.754Z" fill="#084836"/>
<path d="M51.0859 52.4825V50.0153H51.7054V50.3393C51.7665 50.2473 51.8441 50.173 51.9382 50.1162C52.0851 50.0245 52.2639 49.9786 52.4745 49.9786V50.639C52.4468 50.6359 52.4218 50.6344 52.3997 50.6344C52.3775 50.6313 52.3539 50.6298 52.329 50.6298C52.1516 50.6298 52.0075 50.6864 51.8966 50.7995C51.7885 50.9096 51.7345 51.0823 51.7345 51.3177V52.4825H51.0859Z" fill="#084836"/>
<path d="M56.5617 52.3816C56.7031 52.4734 56.868 52.5192 57.0565 52.5192C57.2671 52.5192 57.4556 52.4672 57.6219 52.3633C57.7909 52.2593 57.924 52.1126 58.021 51.923C58.1208 51.7335 58.1706 51.5088 58.1706 51.2489C58.1706 50.9921 58.1208 50.7689 58.021 50.5794C57.924 50.3898 57.7909 50.2431 57.6219 50.1391C57.4556 50.0321 57.2671 49.9786 57.0565 49.9786C56.8597 49.9786 56.6906 50.0245 56.5493 50.1162C56.4749 50.1644 56.4389 50.1845 56.383 50.2589L56.3747 50.5133V51.2489C56.3747 51.1052 56.3996 50.9829 56.4495 50.882C56.4994 50.7812 56.5673 50.7032 56.6532 50.6482C56.7391 50.5931 56.8361 50.5656 56.9442 50.5656C57.0523 50.5656 57.1479 50.5931 57.2311 50.6482C57.317 50.7032 57.3849 50.7812 57.4348 50.882C57.4874 50.9829 57.5138 51.1052 57.5138 51.2489C57.5138 51.3895 57.4874 51.5118 57.4348 51.6158C57.3849 51.7167 57.317 51.7946 57.2311 51.8497C57.1479 51.9047 57.0523 51.9322 56.9442 51.9322C56.8361 51.9322 56.7391 51.9047 56.6532 51.8497C56.5673 51.7946 56.4994 51.7167 56.4495 51.6158C56.4028 51.5184 56.3779 51.405 56.375 51.2754L56.383 51.9827V52.2213C56.4358 52.2852 56.4954 52.3386 56.5617 52.3816Z" fill="#084836"/>
<path fill-rule="evenodd" clip-rule="evenodd" d="M55.7344 50.0153V53.3722H56.383V52.2213V51.9827L56.375 51.2754C56.3748 51.2667 56.3747 51.2578 56.3747 51.2489V50.5133L56.383 50.2589V50.0153H55.7344Z" fill="#084836"/>
</g>
<path d="M60.125 52.7914V48.5418H60.8851V52.7914H60.125Z" fill="#2BCFA1"/>
<path d="M61.6879 52.7517V49.5547H62.448V52.7517H61.6879ZM62.0679 49.1823C61.9283 49.1823 61.8146 49.1409 61.7269 49.0582C61.6392 48.9754 61.5953 48.8728 61.5953 48.7503C61.5953 48.6279 61.6392 48.5252 61.7269 48.4425C61.8146 48.3597 61.9283 48.3184 62.0679 48.3184C62.2076 48.3184 62.3213 48.3581 62.409 48.4375C62.4967 48.5137 62.5405 48.613 62.5405 48.7354C62.5405 48.8645 62.4967 48.9721 62.409 49.0582C62.3245 49.1409 62.2109 49.1823 62.0679 49.1823Z" fill="#2BCFA1"/>
<path d="M66.7169 52.7517V48.5418H67.477V51.1538V52.0737V52.7517H66.7169Z" fill="#2BCFA1"/>
<path d="M64.844 50.0407C65.0519 50.0407 65.237 50.0837 65.3994 50.1698C65.5651 50.2525 65.695 50.3816 65.7892 50.557C65.8834 50.7292 65.9305 50.951 65.9305 51.2224V52.7517H65.1705V51.3416C65.1705 51.1264 65.1234 50.9675 65.0292 50.8649C64.9382 50.7623 64.8083 50.711 64.6394 50.711C64.5192 50.711 64.4104 50.7375 64.3129 50.7904C64.2188 50.8401 64.144 50.9179 64.0888 51.0238C64.0369 51.1297 64.0109 51.2654 64.0109 51.4309V52.7517H63.2508V50.0804H63.9768V50.3977C64.052 50.3123 64.1413 50.2413 64.2447 50.1847C64.4201 50.0887 64.6199 50.0407 64.844 50.0407Z" fill="#2BCFA1"/>
<path d="M69.4941 50.0804H68.5878L67.477 51.1538V52.0737L67.8559 51.7206L68.4024 51.2114L69.4941 50.0804Z" fill="#2BCFA1"/>
<path d="M68.6707 52.7517H69.5915L68.4024 51.2114L67.8559 51.7206L68.6707 52.7517Z" fill="#2BCFA1"/>
<path d="M70.4329 52.6127C70.6603 52.7319 70.9234 52.7914 71.2222 52.7914C71.4593 52.7914 71.6688 52.755 71.8507 52.6822C72.0326 52.6061 72.1836 52.4985 72.3038 52.3595L71.8994 51.9126C71.8117 51.9986 71.7143 52.0632 71.6071 52.1062C71.5032 52.1493 71.3814 52.1708 71.2417 52.1708C71.0858 52.1708 70.9494 52.1426 70.8324 52.0864C70.7187 52.0268 70.6294 51.9424 70.5645 51.8331C70.5308 51.7718 70.5064 51.7056 70.4911 51.6345C70.4783 51.5751 70.4719 51.5122 70.4719 51.4458V51.3267C70.4719 51.2762 70.4754 51.2282 70.4823 51.1827C70.4949 51.0999 70.5191 51.0254 70.5547 50.9592C70.6099 50.8533 70.6863 50.7722 70.7837 50.7159C70.8844 50.6564 70.9997 50.6266 71.1296 50.6266C71.2596 50.6266 71.3732 50.6564 71.4707 50.7159C71.5681 50.7722 71.6445 50.8517 71.6997 50.9543C71.7363 51.0224 71.7608 51.0985 71.7731 51.1827H70.4823C70.4754 51.2282 70.4719 51.2762 70.4719 51.3267V51.4458C70.4719 51.5122 70.4783 51.5751 70.4911 51.6345H72.4743C72.4776 51.6014 72.4808 51.5667 72.4841 51.5302C72.4873 51.4905 72.489 51.4558 72.489 51.426C72.489 51.138 72.4289 50.8914 72.3087 50.6861C72.1885 50.4776 72.0245 50.3187 71.8166 50.2095C71.612 50.0969 71.3814 50.0407 71.1248 50.0407C70.8584 50.0407 70.6197 50.1002 70.4085 50.2194C70.1974 50.3353 70.0301 50.4975 69.9067 50.706C69.7865 50.9112 69.7264 51.1479 69.7264 51.416C69.7264 51.6809 69.7882 51.9175 69.9116 52.1261C70.035 52.3313 70.2088 52.4935 70.4329 52.6127Z" fill="#2BCFA1"/>
<path fill-rule="evenodd" clip-rule="evenodd" d="M73.5504 52.6226C73.7485 52.7352 73.971 52.7914 74.2179 52.7914C74.4485 52.7914 74.645 52.7418 74.8074 52.6425C74.8926 52.5914 74.9675 52.5268 75.0321 52.4485L75.0023 50.3589C74.942 50.2917 74.8738 50.2352 74.7977 50.1896C74.632 50.0903 74.4388 50.0407 74.2179 50.0407C73.971 50.0407 73.7485 50.0969 73.5504 50.2095C73.3523 50.322 73.1947 50.4809 73.0778 50.6861C72.9641 50.8914 72.9073 51.1347 72.9073 51.416C72.9073 51.6941 72.9641 51.9357 73.0778 52.141C73.1947 52.3462 73.3523 52.5068 73.5504 52.6226ZM74.6856 52.0665C74.5849 52.1261 74.4729 52.1559 74.3495 52.1559C74.2228 52.1559 74.1091 52.1261 74.0084 52.0665C73.9077 52.0069 73.8265 51.9225 73.7648 51.8133C73.7063 51.7007 73.6771 51.5683 73.6771 51.416C73.6771 51.2605 73.7063 51.1281 73.7648 51.0188C73.8265 50.9096 73.9077 50.8252 74.0084 50.7656C74.1091 50.706 74.2228 50.6762 74.3495 50.6762C74.4729 50.6762 74.5849 50.706 74.6856 50.7656C74.7863 50.8252 74.8659 50.9096 74.9244 51.0188C74.9861 51.1281 75.0169 51.2605 75.0169 51.416C75.0169 51.5683 74.9861 51.7007 74.9244 51.8133C74.8659 51.9225 74.7863 52.0069 74.6856 52.0665Z" fill="#2BCFA1"/>
<path d="M75.7624 48.5418H75.0023V50.3589L75.0321 52.4485L75.0364 52.7517H75.7624V48.5418Z" fill="#2BCFA1"/>
<path d="M2.22451 23.6561C2.96858 24.9608 5.33276 25.9471 10.6027 24.7746C15.629 23.6563 24.0062 16.9467 26.2409 12.4734C25.6825 9.11864 24.4605 4.26926 18.4214 2.40901C11.1612 0.172606 2.2259 5.76379 1.10807 13.0325C0.529349 16.7958 1.48049 21.2332 2.22451 23.6561Z" fill="#3D146B"/>
<path fill-rule="evenodd" clip-rule="evenodd" d="M26.2409 12.4734C26.2409 17.5057 23.0017 28.8002 12.2789 31.484C1.55615 34.1679 1.29371 27.3837 2.22451 23.6561C2.96858 24.9608 4.2575 26.7999 10.6027 25.3337C17.8629 23.6561 24.0062 16.9467 26.2409 12.4734Z" fill="#3D146B"/>
<path d="M10.6027 24.7746C5.33276 25.9471 2.96858 24.9608 2.22451 23.6561C2.96858 24.9608 4.2575 26.7999 10.6027 25.3337C17.8629 23.6561 24.0062 16.9467 26.2409 12.4734C24.0062 16.9467 15.629 23.6563 10.6027 24.7746Z" fill="#200043"/>
<path d="M11.5576 19.9601C10.621 18.7291 10.8568 16.9836 12.0863 16.0459C13.3159 15.1082 15.0822 15.3743 16.0188 16.6053L17.6863 18.797L15.4672 20.4894C14.2376 21.4271 12.4942 21.191 11.5576 19.9601Z" fill="#2BCFA1"/>
<mask id="mask5_10604_872" style="mask-type:alpha" maskUnits="userSpaceOnUse" x="11" y="15" width="7" height="7">
<path d="M11.5796 19.9889C10.6308 18.7419 10.8697 16.9738 12.1152 16.0239C13.3607 15.074 15.1499 15.3436 16.0987 16.5906L17.7879 18.8108L15.5399 20.5251C14.2944 21.475 12.5283 21.2359 11.5796 19.9889Z" fill="#E63F43"/>
</mask>
<g mask="url(#mask5_10604_872)">
<path d="M14.7175 18.6674C14.6314 18.7331 14.5397 18.7716 14.4424 18.783C14.346 18.7937 14.2523 18.7796 14.1612 18.7409C14.0702 18.7004 13.9911 18.6359 13.9238 18.5476C13.8558 18.4581 13.8147 18.3646 13.8007 18.2671C13.7868 18.1678 13.7982 18.0736 13.8348 17.9845C13.8717 17.8936 13.9331 17.8153 14.0192 17.7497C14.1043 17.6848 14.1956 17.6466 14.2929 17.6352C14.3894 17.6227 14.4827 17.6362 14.5728 17.6756C14.663 17.7151 14.7425 17.7801 14.8114 17.8707C14.8786 17.959 14.9197 18.0525 14.9346 18.1511C14.9486 18.2486 14.9372 18.3428 14.9004 18.4337C14.8636 18.5246 14.8026 18.6025 14.7175 18.6674ZM14.5562 18.4554C14.5952 18.4256 14.6227 18.3889 14.6386 18.3454C14.6545 18.3018 14.6576 18.255 14.6479 18.2048C14.6374 18.1535 14.6128 18.1024 14.5741 18.0516C14.5346 17.9997 14.492 17.9624 14.4463 17.9397C14.4005 17.917 14.3545 17.9076 14.3084 17.9114C14.2622 17.9151 14.2196 17.9319 14.1806 17.9617C14.1415 17.9915 14.114 18.0282 14.0981 18.0717C14.0822 18.1152 14.0786 18.1625 14.0873 18.2135C14.097 18.2636 14.1216 18.3147 14.1611 18.3666C14.1998 18.4174 14.2424 18.4547 14.289 18.4785C14.3357 18.5004 14.3822 18.5095 14.4284 18.5057C14.4745 18.5019 14.5171 18.4852 14.5562 18.4554Z" fill="#084836"/>
<path fill-rule="evenodd" clip-rule="evenodd" d="M12.9714 19.9782C12.7286 20.1633 12.3667 20.0963 12.163 19.8285C11.9593 19.5608 11.9909 19.1937 12.2337 19.0086C12.3078 18.952 12.3932 18.919 12.4817 18.908L12.098 18.4037L12.3321 18.2252L13.4109 19.643L12.9714 19.9782ZM12.9803 19.5633L12.8098 19.3392C12.7156 19.2154 12.5483 19.1844 12.436 19.27C12.3238 19.3556 12.3092 19.5253 12.4034 19.6491C12.4976 19.7729 12.6649 19.8038 12.7771 19.7182L12.9803 19.5633Z" fill="#084836"/>
<path d="M13.6579 19.4546L12.9798 18.5633L13.2036 18.3927L13.2926 18.5097C13.2894 18.4597 13.297 18.4114 13.3154 18.365C13.3432 18.2914 13.3952 18.2256 13.4713 18.1675L13.6528 18.4061C13.642 18.4126 13.6325 18.4189 13.6245 18.425C13.6157 18.43 13.6067 18.436 13.5977 18.4429C13.5336 18.4917 13.4971 18.5519 13.4882 18.6233C13.4794 18.6928 13.5073 18.7701 13.572 18.8551L13.8922 19.2759L13.6579 19.4546Z" fill="#084836"/>
<path d="M15.6082 17.9096C15.6845 17.9038 15.7567 17.8749 15.8247 17.823C15.9008 17.765 15.9546 17.6943 15.9861 17.6109C16.0186 17.5268 16.0264 17.4371 16.0093 17.3419C15.9933 17.246 15.9495 17.1511 15.8781 17.0572C15.8075 16.9644 15.7281 16.8975 15.64 16.8566C15.5529 16.8148 15.4645 16.7984 15.3748 16.8075C15.2854 16.8146 15.2026 16.8472 15.1265 16.9053C15.0554 16.9595 15.0069 17.0226 14.9811 17.0947C14.9675 17.1326 14.96 17.1497 14.9602 17.192L15.0271 17.2862L15.2293 17.552C15.1898 17.5001 15.1652 17.449 15.1555 17.3988C15.1458 17.3486 15.1489 17.3018 15.1648 17.2582C15.1807 17.2147 15.2082 17.178 15.2473 17.1482C15.2863 17.1184 15.3284 17.102 15.3736 17.099C15.4197 17.0952 15.4657 17.1047 15.5114 17.1274C15.5582 17.1493 15.6013 17.1862 15.6408 17.2381C15.6795 17.2889 15.7036 17.3404 15.7131 17.3924C15.7228 17.4426 15.7197 17.4895 15.7038 17.533C15.6889 17.5758 15.6619 17.6121 15.6229 17.6419C15.5838 17.6717 15.5412 17.6885 15.495 17.6922C15.4489 17.696 15.4029 17.6866 15.3572 17.6639C15.3135 17.6416 15.2734 17.6074 15.2367 17.5615L15.434 17.8147L15.4996 17.9009C15.5362 17.9094 15.5724 17.9123 15.6082 17.9096Z" fill="#084836"/>
<path fill-rule="evenodd" clip-rule="evenodd" d="M14.659 17.2827L15.5816 18.4953L15.8159 18.3167L15.4996 17.9009L15.434 17.8147L15.2367 17.5615C15.2342 17.5583 15.2318 17.5552 15.2293 17.552L15.0271 17.2862L14.9602 17.192L14.8933 17.104L14.659 17.2827Z" fill="#084836"/>
</g>
<path d="M17.0106 17.0748L15.8427 15.5397L16.1172 15.3303L17.2852 16.8654L17.0106 17.0748Z" fill="#2BCFA1"/>
<path d="M17.5643 16.6299L16.6856 15.475L16.9602 15.2656L17.8389 16.4205L17.5643 16.6299ZM16.7206 15.2358C16.6701 15.2743 16.6177 15.2907 16.5632 15.2849C16.5088 15.2792 16.4648 15.2542 16.4311 15.21C16.3975 15.1657 16.3851 15.1166 16.394 15.0625C16.403 15.0085 16.4327 14.9622 16.4831 14.9237C16.5336 14.8852 16.5855 14.8683 16.6391 14.8728C16.6917 14.8762 16.7348 14.9 16.7685 14.9442C16.8039 14.9908 16.8177 15.0418 16.8096 15.097C16.8019 15.1502 16.7722 15.1964 16.7206 15.2358Z" fill="#2BCFA1"/>
<path d="M19.381 15.2445L18.2239 13.7237L18.4985 13.5143L19.2164 14.4579L19.4692 14.7902L19.6555 15.0351L19.381 15.2445Z" fill="#2BCFA1"/>
<path d="M17.9593 14.7811C18.0344 14.7238 18.1131 14.6884 18.1954 14.6747C18.278 14.659 18.3604 14.6698 18.4427 14.7072C18.524 14.7435 18.602 14.8106 18.6766 14.9087L19.0969 15.4611L18.8223 15.6705L18.4348 15.1611C18.3756 15.0834 18.3149 15.039 18.2527 15.0278C18.1916 15.0158 18.1306 15.0331 18.0696 15.0796C18.0262 15.1127 17.9942 15.1523 17.9735 15.1982C17.9531 15.2421 17.9475 15.2908 17.9567 15.3443C17.967 15.3969 17.9949 15.4531 18.0404 15.5128L18.4034 15.99L18.1289 16.1993L17.3947 15.2344L17.6569 15.0344L17.7441 15.149C17.7478 15.0974 17.7606 15.0472 17.7824 14.9982C17.8194 14.9152 17.8783 14.8428 17.9593 14.7811Z" fill="#2BCFA1"/>
<path d="M19.65 13.5144L19.3226 13.7641L19.2164 14.4579L19.4692 14.7902L19.509 14.5582L19.5665 14.2237L19.65 13.5144Z" fill="#2BCFA1"/>
<path d="M20.0867 14.7062L20.4194 14.4525L19.5665 14.2237L19.509 14.5582L20.0867 14.7062Z" fill="#2BCFA1"/>
<path d="M20.6851 14.1705C20.8 14.1509 20.9114 14.1 21.0193 14.0177C21.105 13.9523 21.1707 13.8815 21.2164 13.805C21.2611 13.7274 21.2861 13.647 21.2913 13.5636L21.0224 13.5136C21.0144 13.5689 20.9969 13.619 20.9701 13.6641C20.9443 13.7083 20.9062 13.7496 20.8558 13.7881C20.7995 13.831 20.7425 13.8585 20.6848 13.8703C20.6273 13.8801 20.5718 13.8743 20.5184 13.8527C20.4894 13.8398 20.4623 13.8226 20.4373 13.8012C20.4163 13.7832 20.3967 13.7622 20.3785 13.7383L20.3457 13.6952C20.3318 13.677 20.3199 13.6587 20.3099 13.6403C20.2917 13.607 20.28 13.5734 20.2747 13.5397C20.2655 13.4862 20.2708 13.4359 20.2905 13.3887C20.3105 13.3395 20.344 13.2969 20.3909 13.2611C20.4378 13.2253 20.4871 13.2048 20.5387 13.1995C20.5893 13.1929 20.6387 13.2006 20.6869 13.2225C20.7188 13.237 20.7486 13.2577 20.7762 13.2847L20.3099 13.6403C20.3199 13.6587 20.3318 13.677 20.3457 13.6952L20.3785 13.7383C20.3967 13.7622 20.4163 13.7832 20.4373 13.8012L21.1537 13.2548C21.1458 13.2419 21.1374 13.2285 21.1286 13.2144C21.1188 13.1992 21.1098 13.1862 21.1017 13.1754C21.0225 13.0714 20.933 12.9989 20.8332 12.9578C20.7325 12.9156 20.6295 12.9034 20.5244 12.9212C20.4196 12.9369 20.3208 12.9801 20.2281 13.0508C20.1319 13.1242 20.062 13.2115 20.0185 13.3127C19.9741 13.4127 19.9582 13.5174 19.971 13.6267C19.984 13.734 20.0273 13.836 20.101 13.9329C20.1738 14.0285 20.2611 14.097 20.363 14.1384C20.464 14.1785 20.5714 14.1892 20.6851 14.1705Z" fill="#2BCFA1"/>
<path fill-rule="evenodd" clip-rule="evenodd" d="M21.814 13.3153C21.9165 13.3013 22.0123 13.2604 22.1015 13.1924C22.1848 13.1288 22.2421 13.0568 22.2735 12.9762C22.2903 12.9342 22.2995 12.8902 22.3014 12.8442L21.7163 12.0976C21.676 12.0899 21.6359 12.0883 21.5958 12.0928C21.5087 12.1025 21.4252 12.1378 21.3455 12.1987C21.2563 12.2667 21.1914 12.3483 21.1507 12.4436C21.1101 12.5388 21.0969 12.6396 21.111 12.746C21.1264 12.8514 21.1727 12.955 21.25 13.0566C21.3265 13.157 21.4134 13.2287 21.5109 13.2715C21.6095 13.3134 21.7106 13.328 21.814 13.3153ZM22.0712 12.8016C22.0512 12.8509 22.0189 12.8925 21.9743 12.9265C21.9286 12.9614 21.8793 12.982 21.8266 12.9882C21.7738 12.9944 21.7213 12.9863 21.669 12.9639C21.6169 12.9393 21.57 12.8995 21.5281 12.8445C21.4854 12.7883 21.4595 12.7324 21.4506 12.6769C21.4429 12.6204 21.449 12.5675 21.469 12.5183C21.489 12.469 21.5219 12.4269 21.5677 12.392C21.6122 12.358 21.6609 12.3379 21.7137 12.3317C21.7664 12.3255 21.8184 12.3341 21.8695 12.3574C21.9218 12.3799 21.9694 12.4192 22.0121 12.4754C22.054 12.5304 22.0792 12.5867 22.0879 12.6444C22.0968 12.7 22.0912 12.7524 22.0712 12.8016Z" fill="#2BCFA1"/>
<path d="M21.4914 11.2318L21.2169 11.4412L21.7163 12.0976L22.3014 12.8442L22.3863 12.9525L22.6485 12.7525L21.4914 11.2318Z" fill="#2BCFA1"/>
<path d="M102.57 1.91394C102.57 2.35149 102.57 15.5423 102.57 21.192C102.57 22.8282 103.16 24.4361 104.598 25.217C106.244 26.1113 108.991 27.0749 113.181 27.0749C117.449 27.0749 120.219 26.0756 121.855 25.1678C123.232 24.4038 123.814 22.8639 123.855 21.2897L123.921 18.6878L123.974 16.4513L124.17 8.06429L124.222 5.82775C124.222 5.82775 124.351 2.47376 124.351 1.91394C124.351 2.47376 119.325 3.59134 113.181 3.59134C107.038 3.59134 102.57 2.47127 102.57 1.91394Z" fill="white"/>
<path d="M113.181 3.59134C119.325 3.59134 124.351 2.47376 124.351 1.91394C124.351 1.3555 118.766 0.739067 113.181 0.795606C107.597 0.852144 102.57 1.35661 102.57 1.91394C102.57 2.47127 107.038 3.59134 113.181 3.59134Z" fill="#7829D1"/>
<path d="M123.974 16.4513L123.921 18.6878C123.921 18.6878 124.319 19.0204 124.909 19.3151C124.463 18.4743 124.415 17.362 124.447 16.911C124.156 16.6594 123.974 16.4513 123.974 16.4513Z" fill="#7829D1"/>
<path fill-rule="evenodd" clip-rule="evenodd" d="M129.936 11.9782C129.936 2.77827 126.428 4.21922 124.909 5.27423C124.463 5.72538 124.415 7.10149 124.447 7.73316C125.386 6.68465 128.389 3.9595 128.389 11.9782C128.389 19.5508 125.587 17.8967 124.447 16.911C124.415 17.362 124.463 18.4743 124.909 19.3151C126.616 20.1666 129.936 20.7015 129.936 11.9782Z" fill="white"/>
<path d="M124.222 5.82775L124.17 8.06429C124.17 8.06429 124.273 7.92753 124.447 7.73316C124.415 7.10149 124.463 5.72538 124.909 5.27423C124.49 5.56572 124.222 5.82775 124.222 5.82775Z" fill="#7829D1"/>
<path d="M104.805 14.1721C104.805 12.3372 106.28 10.8604 108.113 10.8604C109.945 10.8604 111.421 12.382 111.421 14.2169V17.4839H108.113C106.28 17.4839 104.805 16.0071 104.805 14.1721Z" fill="#2BCFA1"/>
<mask id="mask6_10604_872" style="mask-type:alpha" maskUnits="userSpaceOnUse" x="104" y="10" width="8" height="8">
<path d="M104.805 14.2152C104.805 12.3564 106.299 10.8604 108.156 10.8604C110.012 10.8604 111.506 12.4018 111.506 14.2605V17.57H108.156C106.299 17.57 104.805 16.0739 104.805 14.2152Z" fill="#E63F43"/>
</mask>
<g mask="url(#mask6_10604_872)">
<path d="M108.712 15.2289C108.583 15.2289 108.469 15.1992 108.369 15.14C108.271 15.0807 108.192 15 108.134 14.898C108.077 14.7943 108.049 14.6766 108.049 14.5449C108.049 14.4115 108.077 14.2938 108.134 14.1917C108.192 14.088 108.271 14.0074 108.369 13.9498C108.469 13.8905 108.583 13.8609 108.712 13.8609C108.839 13.8609 108.952 13.8905 109.052 13.9498C109.152 14.0074 109.23 14.0872 109.287 14.1893C109.344 14.2913 109.372 14.4099 109.372 14.5449C109.372 14.6766 109.344 14.7943 109.287 14.898C109.23 15 109.152 15.0807 109.052 15.14C108.952 15.1992 108.839 15.2289 108.712 15.2289ZM108.712 14.9128C108.77 14.9128 108.822 14.898 108.868 14.8683C108.915 14.8387 108.951 14.7967 108.978 14.7424C109.005 14.6864 109.018 14.6206 109.018 14.5449C109.018 14.4675 109.005 14.4016 108.978 14.3473C108.951 14.293 108.915 14.251 108.868 14.2214C108.822 14.1917 108.77 14.1769 108.712 14.1769C108.653 14.1769 108.601 14.1917 108.555 14.2214C108.509 14.251 108.471 14.293 108.443 14.3473C108.416 14.4016 108.403 14.4675 108.403 14.5449C108.403 14.6206 108.416 14.6864 108.443 14.7424C108.471 14.7967 108.509 14.8387 108.555 14.8683C108.601 14.898 108.653 14.9128 108.712 14.9128Z" fill="#084836"/>
<path fill-rule="evenodd" clip-rule="evenodd" d="M106.124 15.2091C105.762 15.2091 105.469 14.8856 105.469 14.4865C105.469 14.0874 105.762 13.7638 106.124 13.7638C106.234 13.7638 106.339 13.7941 106.43 13.8474V13.0957H106.779V15.2091H106.124ZM106.43 14.8242V14.4901C106.43 14.3056 106.294 14.156 106.127 14.156C105.96 14.156 105.824 14.3056 105.824 14.4901C105.824 14.6746 105.96 14.8242 106.127 14.8242H106.43Z" fill="#084836"/>
<path d="M107.147 15.2091V13.8806H107.481V14.055C107.514 14.0056 107.555 13.9655 107.606 13.9349C107.685 13.8855 107.781 13.8609 107.895 13.8609V14.2164C107.88 14.2148 107.867 14.214 107.855 14.214C107.843 14.2123 107.83 14.2115 107.817 14.2115C107.721 14.2115 107.643 14.242 107.584 14.3029C107.526 14.3621 107.496 14.4551 107.496 14.5819V15.2091H107.147Z" fill="#084836"/>
<path d="M110.096 15.1548C110.172 15.2042 110.261 15.2289 110.362 15.2289C110.476 15.2289 110.577 15.2009 110.667 15.1449C110.758 15.0889 110.829 15.0099 110.881 14.9079C110.935 14.8058 110.962 14.6848 110.962 14.5449C110.962 14.4066 110.935 14.2864 110.881 14.1843C110.829 14.0823 110.758 14.0033 110.667 13.9473C110.577 13.8897 110.476 13.8609 110.362 13.8609C110.256 13.8609 110.165 13.8855 110.089 13.9349C110.049 13.9609 110.03 13.9717 109.999 14.0118L109.995 14.1488V14.5449C109.995 14.4675 110.008 14.4016 110.035 14.3473C110.062 14.293 110.099 14.251 110.145 14.2214C110.191 14.1917 110.243 14.1769 110.302 14.1769C110.36 14.1769 110.411 14.1917 110.456 14.2214C110.502 14.251 110.539 14.293 110.566 14.3473C110.594 14.4016 110.608 14.4675 110.608 14.5449C110.608 14.6206 110.594 14.6864 110.566 14.7424C110.539 14.7967 110.502 14.8387 110.456 14.8683C110.411 14.898 110.36 14.9128 110.302 14.9128C110.243 14.9128 110.191 14.898 110.145 14.8683C110.099 14.8387 110.062 14.7967 110.035 14.7424C110.01 14.69 109.997 14.6289 109.995 14.5591L109.999 14.94V15.0685C110.028 15.1029 110.06 15.1316 110.096 15.1548Z" fill="#084836"/>
<path fill-rule="evenodd" clip-rule="evenodd" d="M109.65 13.8806V15.6882H109.999V15.0685V14.94L109.995 14.5591C109.995 14.5544 109.995 14.5497 109.995 14.5449V14.1488L109.999 14.0118V13.8806H109.65Z" fill="#084836"/>
</g>
<path d="M112.023 15.3754V13.0871L112.433 13.0871V15.3754H112.023Z" fill="#2BCFA1"/>
<path d="M112.865 15.354V13.6325H113.274V15.354H112.865ZM113.07 13.432C112.994 13.432 112.933 13.4097 112.886 13.3652C112.839 13.3206 112.815 13.2654 112.815 13.1994C112.815 13.1335 112.839 13.0782 112.886 13.0336C112.933 12.9891 112.994 12.9668 113.07 12.9668C113.145 12.9668 113.206 12.9882 113.253 13.031C113.301 13.072 113.324 13.1254 113.324 13.1914C113.324 13.2609 113.301 13.3188 113.253 13.3652C113.208 13.4097 113.147 13.432 113.07 13.432Z" fill="#2BCFA1"/>
<path d="M115.573 15.354V13.0871H115.982V14.4936V14.9889V15.354H115.573Z" fill="#2BCFA1"/>
<path d="M114.564 13.8942C114.676 13.8942 114.776 13.9174 114.864 13.9637C114.953 14.0083 115.023 14.0778 115.073 14.1722C115.124 14.2649 115.149 14.3844 115.149 14.5305V15.354H114.74V14.5947C114.74 14.4788 114.715 14.3933 114.664 14.338C114.615 14.2828 114.545 14.2551 114.454 14.2551C114.39 14.2551 114.331 14.2694 114.278 14.2979C114.228 14.3246 114.188 14.3665 114.158 14.4236C114.13 14.4806 114.116 14.5537 114.116 14.6428V15.354H113.707V13.9156H114.097V14.0864C114.138 14.0404 114.186 14.0022 114.242 13.9717C114.336 13.92 114.444 13.8942 114.564 13.8942Z" fill="#2BCFA1"/>
<path d="M117.068 13.9156H116.58L115.982 14.4936V14.9889L116.186 14.7988L116.48 14.5246L117.068 13.9156Z" fill="#2BCFA1"/>
<path d="M116.625 15.354H117.121L116.48 14.5246L116.186 14.7988L116.625 15.354Z" fill="#2BCFA1"/>
<path d="M117.574 15.2791C117.696 15.3433 117.838 15.3754 117.999 15.3754C118.127 15.3754 118.239 15.3558 118.337 15.3166C118.435 15.2756 118.517 15.2176 118.581 15.1428L118.364 14.9021C118.316 14.9485 118.264 14.9832 118.206 15.0064C118.15 15.0296 118.085 15.0412 118.009 15.0412C117.925 15.0412 117.852 15.026 117.789 14.9957C117.728 14.9636 117.68 14.9182 117.645 14.8594C117.627 14.8264 117.613 14.7907 117.605 14.7524C117.598 14.7204 117.595 14.6865 117.595 14.6508V14.5867C117.595 14.5595 117.597 14.5336 117.6 14.5091C117.607 14.4646 117.62 14.4245 117.639 14.3888C117.669 14.3318 117.71 14.2881 117.763 14.2578C117.817 14.2257 117.879 14.2097 117.949 14.2097C118.019 14.2097 118.08 14.2257 118.133 14.2578C118.185 14.2881 118.226 14.3309 118.256 14.3861C118.276 14.4228 118.289 14.4638 118.296 14.5091H117.6C117.597 14.5336 117.595 14.5595 117.595 14.5867V14.6508C117.595 14.6865 117.598 14.7204 117.605 14.7524H118.673C118.675 14.7346 118.677 14.7159 118.678 14.6963C118.68 14.6749 118.681 14.6562 118.681 14.6401C118.681 14.4851 118.649 14.3523 118.584 14.2418C118.519 14.1295 118.431 14.0439 118.319 13.9851C118.209 13.9245 118.085 13.8942 117.946 13.8942C117.803 13.8942 117.674 13.9263 117.561 13.9904C117.447 14.0528 117.357 14.1402 117.291 14.2525C117.226 14.363 117.193 14.4904 117.193 14.6348C117.193 14.7774 117.227 14.9048 117.293 15.0171C117.36 15.1276 117.453 15.215 117.574 15.2791Z" fill="#2BCFA1"/>
<path fill-rule="evenodd" clip-rule="evenodd" d="M119.253 15.2845C119.359 15.3451 119.479 15.3754 119.612 15.3754C119.736 15.3754 119.842 15.3486 119.929 15.2952C119.975 15.2677 120.016 15.2329 120.05 15.1907L120.034 14.0656C120.002 14.0294 119.965 13.999 119.924 13.9744C119.835 13.9209 119.731 13.8942 119.612 13.8942C119.479 13.8942 119.359 13.9245 119.253 13.9851C119.146 14.0457 119.061 14.1312 118.998 14.2418C118.937 14.3523 118.906 14.4833 118.906 14.6348C118.906 14.7845 118.937 14.9146 118.998 15.0251C119.061 15.1356 119.146 15.2221 119.253 15.2845ZM119.864 14.985C119.81 15.0171 119.749 15.0332 119.683 15.0332C119.615 15.0332 119.553 15.0171 119.499 14.985C119.445 14.9529 119.401 14.9075 119.368 14.8487C119.336 14.7881 119.321 14.7168 119.321 14.6348C119.321 14.551 119.336 14.4797 119.368 14.4209C119.401 14.3621 119.445 14.3166 119.499 14.2845C119.553 14.2525 119.615 14.2364 119.683 14.2364C119.749 14.2364 119.81 14.2525 119.864 14.2845C119.918 14.3166 119.961 14.3621 119.992 14.4209C120.026 14.4797 120.042 14.551 120.042 14.6348C120.042 14.7168 120.026 14.7881 119.992 14.8487C119.961 14.9075 119.918 14.9529 119.864 14.985Z" fill="#2BCFA1"/>
<path d="M120.444 13.0871H120.034V14.0656L120.05 15.1907L120.053 15.354H120.444V13.0871Z" fill="#2BCFA1"/>
</mask>
<g mask="url(#mask3_10604_872)">
<g style="mix-blend-mode:overlay" filter="url(#filter0_f_10604_872)">
<path d="M17.3718 82.9728C5.9269 55.1159 -20.2874 -12.0684 -4.0915 -1.44481C16.5952 12.1245 29.0913 12.2771 41.7037 43.8451C49.5224 63.4148 20.8284 89.6941 78.0028 105.35C84.7395 107.195 32.7678 120.447 17.3718 82.9728Z" fill="white"/>
</g>
<g filter="url(#filter1_f_10604_872)">
<path d="M86.9328 8.62011C83.0244 -5.91707 88.613 -12.6269 91.4063 -12.6269C94.1996 -12.6269 87.8321 -2.00265 91.4063 6.94342C94.9805 15.8895 101.461 19.9268 99.7842 20.3621C98.107 20.7973 90.8412 23.1573 86.9328 8.62011Z" fill="#CB45F1"/>
</g>
</g>
<defs>
<filter id="filter0_f_10604_872" x="-29.2344" y="-22.5732" width="127.836" height="151.692" filterUnits="userSpaceOnUse" color-interpolation-filters="sRGB">
<feFlood flood-opacity="0" result="BackgroundImageFix"/>
<feBlend mode="normal" in="SourceGraphic" in2="BackgroundImageFix" result="shape"/>
<feGaussianBlur stdDeviation="10" result="effect1_foregroundBlur_10604_872"/>
</filter>
<filter id="filter1_f_10604_872" x="75.5898" y="-22.627" width="34.4648" height="53.3945" filterUnits="userSpaceOnUse" color-interpolation-filters="sRGB">
<feFlood flood-opacity="0" result="BackgroundImageFix"/>
<feBlend mode="normal" in="SourceGraphic" in2="BackgroundImageFix" result="shape"/>
<feGaussianBlur stdDeviation="5" result="effect1_foregroundBlur_10604_872"/>
</filter>
</defs>
</svg>
