<svg width="1170" height="242" viewBox="0 0 1170 242" fill="none" xmlns="http://www.w3.org/2000/svg">
<path d="M249.529 41.3023C250.582 40.2473 252.387 40.9902 252.387 42.4781V172.72C252.387 173.642 251.639 174.388 250.716 174.388H213.636C212.714 174.388 211.966 173.642 211.966 172.72V161.737C211.966 160.108 209.758 159.37 208.655 160.572C205.013 164.543 200.521 167.891 195.182 170.613C188.247 174.073 181.627 175.194 173.117 175.194C163.031 175.194 153.024 173.602 145.302 169.198C137.581 164.639 131.591 158.114 127.337 149.622C123.081 141.132 120.955 131.147 120.955 119.669V44.4481C120.955 43.5271 121.702 42.7804 122.626 42.7804H159.47C160.392 42.7804 161.141 43.5271 161.141 44.4481V114.245C161.141 123.05 163.427 129.89 167.996 134.764C172.567 139.639 178.713 142.076 186.435 142.076C194.315 142.076 200.541 139.639 205.109 134.764C209.681 129.89 211.966 123.05 211.966 114.245V79.6625C211.966 79.2217 212.141 78.799 212.451 78.4866L249.529 41.3023ZM306.549 55.7201C306.549 57.3857 308.862 58.111 309.946 56.8444C313.434 52.7711 317.739 49.341 322.86 46.5542C329.793 42.7805 337.909 40.8937 347.207 40.8937C358.081 40.8937 367.931 43.6453 376.755 49.1485C385.582 54.6518 392.515 62.5136 397.56 72.7341C402.759 82.9546 405.36 94.8259 405.36 108.349C405.36 121.87 402.759 133.821 397.56 144.198C392.515 154.419 385.582 162.359 376.755 168.02C367.931 173.523 358.081 176.275 347.207 176.275C338.068 176.275 329.951 174.388 322.86 170.613C317.725 167.821 313.414 164.424 309.923 160.425C308.832 159.176 306.549 159.906 306.549 161.561V202.756C306.549 203.195 306.376 203.616 306.068 203.926L268.989 241.499C267.941 242.562 266.127 241.821 266.127 240.329V44.4481C266.127 43.5271 266.876 42.7804 267.798 42.7804H304.876C305.8 42.7804 306.549 43.5271 306.549 44.4481V55.7201ZM364.228 108.349C364.228 98.2852 361.391 90.4234 355.718 84.7628C350.202 78.945 343.346 76.0362 335.151 76.0362C327.114 76.0362 320.259 78.945 314.587 84.7628C309.068 90.5801 306.311 98.5202 306.311 108.584C306.311 118.647 309.068 126.588 314.587 132.406C320.259 138.223 327.114 141.132 335.151 141.132C343.189 141.132 350.044 138.223 355.718 132.406C361.391 126.431 364.228 118.411 364.228 108.349ZM603.2 59.1039C603.2 60.7628 605.453 61.4634 606.494 60.1685C610.587 55.0669 615.397 50.9218 620.931 47.7334C627.563 43.7627 634.885 42.8867 642.898 42.79C643.821 42.779 644.569 43.5271 644.569 44.4481V84.2974C644.569 85.354 643.597 86.1444 642.559 85.931L633.627 84.09C633.516 84.0665 633.401 84.0549 633.288 84.0557C623.287 84.0798 615.779 86.2812 610.763 90.6595C605.722 94.9043 603.2 102.452 603.2 113.301V137.237C603.2 137.685 603.018 138.115 602.697 138.429L565.618 174.517C564.558 175.546 562.777 174.798 562.777 173.322V44.4481C562.777 43.5271 563.527 42.7804 564.448 42.7804H601.529C602.452 42.7804 603.2 43.5271 603.2 44.4481V59.1039ZM737.866 41.3653C753.309 41.3653 765.601 46.3971 774.743 56.4601C784.04 66.366 788.689 80.0455 788.689 97.4992V137.238C788.689 137.687 788.509 138.114 788.189 138.429L751.345 174.495C750.288 175.531 748.502 174.784 748.502 173.307V102.924C748.502 94.118 746.217 87.2783 741.648 82.4041C737.077 77.5298 730.93 75.0927 723.208 75.0927C715.487 75.0927 709.34 77.5298 704.77 82.4041C700.199 87.2783 697.914 94.118 697.914 102.924V172.72C697.914 173.642 697.165 174.388 696.243 174.388H659.162C658.241 174.388 657.492 173.642 657.492 172.72V44.4481C657.492 43.5271 658.241 42.7804 659.162 42.7804H696.243C697.165 42.7804 697.914 43.5271 697.914 44.4481V54.9589C697.914 56.588 700.124 57.3277 701.233 56.1304C704.84 52.2278 709.252 49.0358 714.463 46.5542C721.396 43.0951 729.198 41.3653 737.866 41.3653Z" fill="#FBFEF9"/>
<path d="M548.779 94.0005C548.784 94.4408 548.603 94.8553 548.287 95.1621L526.235 116.574C525.923 116.877 525.504 117.047 525.068 117.047H459.386C458.408 117.047 457.637 117.878 457.755 118.843C458.63 126.134 461.232 131.814 465.559 135.879C470.399 140.117 477.253 144.542 484.186 144.542C495.455 144.542 507.805 138.475 512.307 130.46C512.621 129.898 513.202 129.524 513.848 129.524H546.617C547.712 129.524 548.511 130.556 548.196 131.602C545.845 139.406 541.928 146.483 536.444 152.829C530.637 159.735 523.297 165.149 514.429 169.072C504.433 172.057 495.155 174.475 484.186 174.475C470.961 174.475 459.673 172.211 449.349 166.719C439.027 161.226 430.964 153.378 425.156 143.177C419.35 132.976 416.448 121.048 416.448 107.395C416.448 93.7412 419.27 81.8136 424.916 71.6129C430.721 61.4115 438.787 53.5645 449.108 48.0716C459.431 42.5788 471.285 39.8322 484.672 39.8322C497.735 39.8322 509.348 42.5002 519.509 47.8364C529.67 53.1724 537.573 60.784 543.219 70.6711C548.266 79.2668 548.742 91.0648 548.779 94.0005ZM507.917 94.6827C508.842 94.6827 509.595 93.9348 509.542 93.015C509.177 86.8875 506.776 81.9506 502.33 78.2042C497.493 74.1237 491.445 72.0836 484.186 72.0836C477.253 72.0836 471.365 74.0452 466.528 77.9689C462.271 81.5379 459.483 86.4704 458.166 92.7658C457.957 93.7681 458.745 94.6827 459.77 94.6827H507.917Z" fill="#FBFEF9"/>
<path d="M1111.35 82.601C1110.86 81.0213 1108.61 81.0277 1108.14 82.6101L1081.48 171.701C1081.27 172.407 1080.62 172.892 1079.88 172.892H1040.56C1039.41 172.892 1038.61 171.757 1038.98 170.673L1084.51 40.6941C1084.74 40.0247 1085.39 39.5767 1086.1 39.5767H1133.6C1134.31 39.5767 1134.94 40.0253 1135.18 40.6951L1169.91 140.026C1170.11 140.605 1169.97 141.247 1169.56 141.7L1141.42 172.401C1140.56 173.353 1138.97 172.996 1138.59 171.762L1111.35 82.601Z" fill="#FBFEF9"/>
<path d="M996.226 127.637C996.702 129.213 998.951 129.211 999.428 127.635L1026.07 40.1893C1026.28 39.4868 1026.94 39.0067 1027.68 39.0067H1067.09C1068.25 39.0067 1069.05 40.1435 1068.67 41.2283L1022.71 171.359C1022.48 172.028 1021.84 172.474 1021.13 172.474H974.178C973.478 172.474 972.844 172.029 972.602 171.363L923.846 33.8361C923.638 33.2408 923.781 32.5775 924.223 32.1228L954.769 0.511081C955.654 -0.404719 957.201 -0.0346636 957.576 1.18207L996.226 127.637Z" fill="#FBFEF9"/>
<path fill-rule="evenodd" clip-rule="evenodd" d="M818.196 60.749C845.225 34.2406 888.664 33.7741 915.225 60.7491C941.784 87.7239 942.254 131.08 915.225 157.589C888.198 184.097 844.756 184.563 818.196 157.589C791.638 130.614 791.169 87.2571 818.196 60.749ZM866.294 67.8185C866.496 67.2199 867.407 67.22 867.61 67.8188C873.536 85.3815 892.022 104.183 908.69 110.306C909.266 110.518 909.263 111.381 908.686 111.587C892.015 117.517 873.543 133.693 867.614 151.047C867.41 151.646 866.494 151.646 866.289 151.047C860.344 133.695 841.677 117.526 825 111.587C824.423 111.381 824.422 110.519 824.998 110.308C841.688 104.186 860.353 85.3825 866.294 67.8185Z" fill="#FBFEF9"/>
<path d="M57.4528 171.639C46.0769 171.639 35.9477 169.698 27.0652 165.814C18.1827 161.929 11.1702 156.648 6.02759 149.967C1.06749 143.373 0.589231 134.693 0.00220454 126.558C-0.032682 126.074 0.350938 125.663 0.836962 125.663H36.8009C37.2292 125.663 37.5869 125.986 37.6405 126.409C38.1864 130.722 39.6592 135.439 43.1939 138.081C46.9339 140.879 51.5311 142.277 56.9853 142.277C61.9721 142.277 65.79 141.345 68.4391 139.48C71.2442 137.46 72.6465 134.897 72.6465 131.789C72.6465 128.062 70.6987 125.342 66.8029 123.633C62.907 121.769 56.5958 119.75 47.8691 117.574C38.5189 115.4 30.7274 113.147 24.4939 110.816C18.2606 108.33 12.8843 104.524 8.36516 99.3972C3.8459 94.1148 1.58631 87.0458 1.58631 78.1898C1.58631 70.7325 3.61216 63.9741 7.66384 57.9151C11.8714 51.7006 17.949 46.8067 25.8963 43.2333C33.9999 39.6599 44.7206 38.2313 55.7848 38.2313C72.1473 38.2313 83.8665 41.9128 93.2165 49.9918L97.8403 54.6697C98.1643 54.998 98.1605 55.5267 97.8314 55.8497L74.7374 78.4951C74.3846 78.841 73.8098 78.8108 73.4919 78.4323C72.2416 76.945 69.2116 73.4671 66.5691 71.4314C63.2966 68.7904 58.9333 67.4697 53.4791 67.4697C48.804 67.4697 45.2199 68.4019 42.7265 70.2663C40.2331 71.9753 38.9864 74.3832 38.9864 77.4906C38.9864 81.2192 40.9345 84.0158 44.8303 85.88C48.8819 87.7444 55.1153 89.6088 63.5303 91.4731C73.1921 93.9589 81.0617 96.4453 87.1393 98.9302C93.2166 101.261 98.5147 105.145 103.034 110.583C107.709 115.866 110.125 123.011 110.281 132.024C110.281 139.636 108.099 146.472 103.735 152.531C99.5281 158.434 93.3729 163.096 85.2694 166.513C77.3216 169.931 68.0495 171.639 57.4528 171.639Z" fill="#FBFEF9"/>
</svg>
