<svg width="20" height="20" viewBox="0 0 20 20" fill="none" xmlns="http://www.w3.org/2000/svg">
<path d="M10.0092 1.66666L17.352 5.90611V13.2969C17.352 13.6276 17.2649 13.9525 17.0995 14.239C16.9342 14.5254 16.6963 14.7632 16.4099 14.9286L10.9513 18.0809C10.6649 18.2463 10.34 18.3333 10.0092 18.3333C9.6785 18.3333 9.35358 18.2463 9.06714 18.0809L3.60861 14.9286C3.32218 14.7632 3.08432 14.5254 2.91895 14.239C2.75358 13.9525 2.66651 13.6276 2.6665 13.2969V5.90611L10.0092 1.66666Z" stroke="black" stroke-width="1.5" stroke-linecap="round" stroke-linejoin="round"/>
<path d="M10.0095 5.43506V10.1456M10.0095 10.1456L5.93018 12.5008M10.0095 10.1456L14.0888 12.5008" stroke="black" stroke-width="1.5" stroke-linecap="round" stroke-linejoin="round"/>
</svg>
