<svg width="96" height="20" viewBox="0 0 96 20" fill="none" xmlns="http://www.w3.org/2000/svg">
<path fill-rule="evenodd" clip-rule="evenodd" d="M14.8578 8.7935H3.5682V0.698015H0.693359V19.7059H3.5682V11.4634H14.8578V19.7059H17.7326V0.698015H14.8578V8.7935Z" fill="black"/>
<path fill-rule="evenodd" clip-rule="evenodd" d="M27.6258 6.08691C23.7516 6.08691 20.8027 9.08751 20.8027 13.0434C20.8027 17.036 23.8256 19.9999 27.8479 19.9999C32.4625 19.9999 34.0788 16.9258 34.3009 15.8603L34.3379 15.6766H31.6851L31.6481 15.75C31.6111 15.8235 30.7228 17.5137 27.8849 17.5137C25.5283 17.5137 23.7886 15.8603 23.5665 13.4843H34.4859V13.3373C34.4859 9.08751 31.6481 6.08691 27.6258 6.08691ZM27.6258 8.42616C29.5136 8.42616 30.7968 9.38144 31.426 11.2063H23.7516C24.2945 9.41818 25.7011 8.42616 27.6258 8.42616Z" fill="black"/>
<path fill-rule="evenodd" clip-rule="evenodd" d="M47.8346 8.2057C47.1684 7.28715 45.6631 6.08692 43.1831 6.08692C39.2718 6.08692 36.5451 8.94054 36.5451 13.0434C36.5451 17.1462 39.2718 19.9999 43.1831 19.9999C45.8358 19.9999 47.2794 18.5302 47.8346 17.7709V19.6814H50.5244V0H47.8346V8.2057ZM43.6643 17.5137C41.1226 17.5137 39.3829 15.6766 39.3829 13.0434C39.3829 10.4102 41.1596 8.57312 43.6643 8.57312C46.169 8.57312 47.9087 10.4102 47.9087 13.0434C47.9087 15.6766 46.1443 17.5137 43.6643 17.5137Z" fill="black"/>
<path fill-rule="evenodd" clip-rule="evenodd" d="M60.5711 6.08691C56.6969 6.08691 53.748 9.08751 53.748 13.0434C53.748 17.036 56.7709 19.9999 60.7932 19.9999C65.4078 19.9999 67.0241 16.9258 67.2462 15.8603L67.2832 15.6766H64.6305L64.5934 15.75C64.5564 15.8235 63.6681 17.5137 60.8302 17.5137C58.4736 17.5137 56.7339 15.8603 56.5118 13.4843H67.4313V13.3373C67.3942 9.08751 64.5934 6.08691 60.5711 6.08691ZM60.5711 8.42616C62.4589 8.42616 63.7421 9.38144 64.3713 11.2063H56.6969C57.2151 9.41818 58.6217 8.42616 60.5711 8.42616Z" fill="black"/>
<path fill-rule="evenodd" clip-rule="evenodd" d="M73.1533 8.31569V6.38062H70.4512V19.7057H73.1409V12.1981C73.1409 9.85886 74.3624 8.97705 77.5334 8.97705H81.0375V6.30713H77.6074C74.9176 6.30713 73.7085 7.47063 73.1533 8.31569Z" fill="black"/>
<path fill-rule="evenodd" clip-rule="evenodd" d="M93.0051 8.2057C92.4869 7.47086 91.1173 6.08691 88.5016 6.08691C85.2566 6.08691 81.9746 8.4629 81.9746 13.0434C81.9746 17.1462 84.6644 19.9999 88.5016 19.9999C91.0063 19.9999 92.3758 18.6772 93.0051 17.8076V19.7182H95.6948V6.38085H93.0051V8.2057ZM93.0791 13.0434C93.0791 15.6398 91.3394 17.5137 88.9828 17.5137C86.5151 17.5137 84.7754 15.6766 84.7754 13.0434C84.7754 10.4102 86.5151 8.57312 88.9828 8.57312C91.3394 8.57312 93.0791 10.4715 93.0791 13.0434Z" fill="black"/>
</svg>
