<svg width="94" height="20" viewBox="0 0 94 20" fill="none" xmlns="http://www.w3.org/2000/svg">
<path d="M0.613281 19.998H4.10943V16.8024C4.10943 15.1221 3.99345 14.3407 3.31708 12.8026L3.68955 12.613C4.8095 15.1932 6.46446 16.2107 8.18968 16.2107C10.9637 16.2107 13.1783 13.749 13.1783 9.93794C13.1783 6.29365 11.15 3.61948 8.23624 3.61948C6.51102 3.61948 4.8095 4.6133 3.6904 7.19351L3.31793 7.00389C3.78352 5.98636 4.10943 4.96884 4.10943 3.99872H0.613281V19.998ZM4.10943 9.91509C4.10943 8.35325 5.27594 6.62549 7.00031 6.62549C8.39962 6.62549 9.54158 7.78523 9.54158 9.89139C9.54158 11.9738 8.44618 13.2047 6.97661 13.2047C5.34536 13.2047 4.10943 11.5243 4.10943 9.91509ZM14.272 15.8323H17.7698V11.6657C17.7698 8.7308 18.7949 6.64835 20.7072 6.64835C21.9186 6.64835 22.2919 7.47625 22.2919 9.535V15.8315H25.7889V8.96783C25.7889 5.22788 24.4599 3.61779 21.9186 3.61779C19.3316 3.61779 18.4919 5.3938 17.4896 7.42884L17.1171 7.21637C17.6293 5.93811 17.769 5.13391 17.769 3.99703V-0.00195312H14.2728L14.272 15.8323ZM30.7851 16.2107C33.0005 16.2107 34.3287 14.6954 35.2616 12.8974L35.6577 13.1099C35.2853 13.9623 34.9348 14.9807 34.9348 15.8323H38.3624V9.39447C38.3624 5.55972 36.7768 3.61948 33.0699 3.61948C29.4332 3.61948 27.6386 5.46491 27.2881 7.40599L30.6455 7.99856C30.7623 6.98019 31.5783 6.29365 32.8837 6.29365C34.189 6.29365 34.9348 6.95648 34.9348 7.76153C34.9348 8.56573 34.1661 8.94497 32.1142 8.96867C29.0836 9.01608 26.8454 10.1284 26.8454 12.4953C26.8454 14.4355 28.3607 16.2107 30.7851 16.2107ZM30.3195 12.282C30.3195 10.3646 33.2333 11.714 34.8654 10.2461V10.6964C34.8654 12.3768 33.373 13.5831 31.9745 13.5831C31.1821 13.5831 30.3195 13.2529 30.3195 12.282ZM39.9301 15.8323H43.4263V11.6657C43.4263 8.7308 44.4523 6.64835 46.3637 6.64835C47.576 6.64835 47.9493 7.47625 47.9493 9.535V15.8315H51.4463V8.96783C51.4463 5.22788 50.1172 3.61779 47.576 3.61779C44.989 3.61779 44.1492 5.3938 43.1469 7.42884L42.7745 7.21637C43.2866 5.93811 43.4263 5.13391 43.4263 3.99703H39.9301V15.8323ZM60.8969 15.8797V12.944C60.1502 13.2038 58.0754 13.6533 58.0754 11.9264V6.88453H61.1762V3.99788H58.0754V0.825948L54.5555 1.89088V3.99703H52.4579V6.88453H54.5555L54.5793 12.21C54.5793 16.1633 58.0525 16.7313 60.8969 15.8797ZM68.2278 16.2107C71.7705 16.2107 74.4751 13.4654 74.4751 9.89139C74.4751 6.34106 71.7705 3.61863 68.2278 3.61863C64.6842 3.61863 61.9567 6.34106 61.9567 9.89139C61.9567 13.4654 64.6842 16.2107 68.2278 16.2107ZM65.5697 9.91509C65.5697 7.95115 66.6651 6.57809 68.2278 6.57809C69.7896 6.57809 70.8613 7.9503 70.8613 9.91509C70.8613 11.879 69.7896 13.2521 68.2278 13.2521C66.6651 13.2521 65.5697 11.879 65.5697 9.91509ZM75.6273 15.8323H79.1234V11.6657C79.1234 8.61229 79.986 6.64835 81.525 6.64835C82.5273 6.64835 82.9472 7.45255 82.9472 9.535V15.8315H86.4442V11.6657C86.4442 8.80191 87.3762 6.64835 88.8449 6.64835C89.8243 6.64835 90.2671 7.57106 90.2671 9.535V15.8315H93.7641V8.96783C93.7641 5.20418 92.5518 3.61779 90.1739 3.61779C87.7029 3.61779 86.7235 5.32269 86.0708 7.38144L85.6747 7.16896C86.0243 5.93811 85.8143 5.27528 85.3945 4.75467C84.7883 3.99703 83.9257 3.61863 82.8303 3.61863C80.6387 3.61863 79.683 5.18047 78.844 7.35774L78.4707 7.12071C78.8669 6.05663 79.1234 5.20418 79.1234 3.99703H75.6273V15.8323Z" fill="black"/>
</svg>
