<svg width="24" height="24" viewBox="0 0 24 24" fill="none" xmlns="http://www.w3.org/2000/svg">
<g clip-path="url(#clip0_11142_416)">
<path d="M9.74825 15.8981C9.06413 16.2927 8.28823 16.5003 7.49848 16.5C6.70874 16.4997 5.93297 16.2916 5.24912 15.8966C4.56528 15.5016 3.99743 14.9335 3.60263 14.2496C3.20784 13.5656 3 12.7897 3 12C3 11.2103 3.20784 10.4344 3.60263 9.75044C3.99743 9.06646 4.56528 8.49842 5.24912 8.10339C5.93297 7.70837 6.70874 7.50027 7.49848 7.5C8.28823 7.49973 9.06413 7.70731 9.74825 8.10188" stroke="black" stroke-width="2" stroke-linecap="round" stroke-linejoin="round"/>
<path d="M20.9982 15.8981C20.3141 16.2927 19.5382 16.5003 18.7485 16.5C17.9587 16.4997 17.183 16.2916 16.4991 15.8966C15.8153 15.5016 15.2474 14.9335 14.8526 14.2496C14.4578 13.5656 14.25 12.7897 14.25 12C14.25 11.2103 14.4578 10.4344 14.8526 9.75044C15.2474 9.06646 15.8153 8.49842 16.4991 8.10339C17.183 7.70837 17.9587 7.50027 18.7485 7.5C19.5382 7.49973 20.3141 7.70731 20.9982 8.10188" stroke="black" stroke-width="2" stroke-linecap="round" stroke-linejoin="round"/>
</g>
<defs>
<clipPath id="clip0_11142_416">
<rect width="24" height="24" fill="white"/>
</clipPath>
</defs>
</svg>
