<svg width="16" height="16" viewBox="0 0 16 16" fill="none" xmlns="http://www.w3.org/2000/svg">
<g clip-path="url(#clip0_11142_408)">
<path d="M6.49883 10.5988C6.04276 10.8618 5.52549 11.0002 4.99899 11C4.47249 10.9998 3.95532 10.8611 3.49942 10.5977C3.04352 10.3344 2.66495 9.9557 2.40176 9.49971C2.13856 9.04372 2 8.5265 2 8C2 7.4735 2.13856 6.95628 2.40176 6.50029C2.66495 6.0443 3.04352 5.66561 3.49942 5.40226C3.95532 5.13891 4.47249 5.00018 4.99899 5C5.52549 4.99982 6.04276 5.13821 6.49883 5.40125" stroke="black" stroke-linecap="round" stroke-linejoin="round"/>
<path d="M13.9988 10.5988C13.5428 10.8618 13.0255 11.0002 12.499 11C11.9725 10.9998 11.4553 10.8611 10.9994 10.5977C10.5435 10.3344 10.165 9.9557 9.90176 9.49971C9.63856 9.04372 9.5 8.5265 9.5 8C9.5 7.4735 9.63856 6.95628 9.90176 6.50029C10.165 6.0443 10.5435 5.66561 10.9994 5.40226C11.4553 5.13891 11.9725 5.00018 12.499 5C13.0255 4.99982 13.5428 5.13821 13.9988 5.40125" stroke="black" stroke-linecap="round" stroke-linejoin="round"/>
</g>
<defs>
<clipPath id="clip0_11142_408">
<rect width="16" height="16" fill="white"/>
</clipPath>
</defs>
</svg>
