<svg width="16" height="16" viewBox="0 0 16 16" fill="none" xmlns="http://www.w3.org/2000/svg">
<path d="M4.5 6.5C4.5 5.96957 4.71071 5.46086 5.08579 5.08579C5.46086 4.71071 5.96957 4.5 6.5 4.5L7.5 6.5L6.73 7.65438C7.03544 8.38421 7.61579 8.96456 8.34562 9.27L9.5 8.5L11.5 9.5C11.5 10.0304 11.2893 10.5391 10.9142 10.9142C10.5391 11.2893 10.0304 11.5 9.5 11.5C8.17392 11.5 6.90215 10.9732 5.96447 10.0355C5.02678 9.09785 4.5 7.82608 4.5 6.5Z" stroke="black" stroke-linecap="round" stroke-linejoin="round"/>
<path d="M4.74454 13.6257C4.62056 13.554 4.47176 13.5388 4.33588 13.5842L1.60966 14.4934C1.59498 14.4983 1.57923 14.499 1.56418 14.4955C1.54912 14.4919 1.53535 14.4842 1.52441 14.4733L1.17137 14.8263L1.52441 14.4733C1.51346 14.4624 1.50578 14.4486 1.50223 14.4335L1.01901 14.5475L1.50223 14.4335C1.49868 14.4185 1.49938 14.4027 1.50425 14.3881C1.50426 14.3881 1.50427 14.388 1.50428 14.388L2.41622 11.6652C2.46178 11.5291 2.44672 11.3801 2.37486 11.2559C1.58468 9.89058 1.31799 8.28443 1.62452 6.73695C1.93104 5.18948 2.78986 3.8063 4.04084 2.84529C5.29182 1.88429 6.84959 1.41105 8.4237 1.51381C9.99781 1.61657 11.4808 2.28832 12.5963 3.4038C13.7117 4.51929 14.3834 6.00239 14.4862 7.57659C14.5889 9.15078 14.1157 10.7086 13.1548 11.9597C12.1938 13.2107 10.8107 14.0696 9.26328 14.3761C7.71589 14.6826 6.10983 14.4159 4.74454 13.6257Z" stroke="black" stroke-linecap="round" stroke-linejoin="round"/>
</svg>
