<svg width="20" height="20" viewBox="0 0 20 20" fill="none" xmlns="http://www.w3.org/2000/svg">
<path fill-rule="evenodd" clip-rule="evenodd" d="M18.125 9.375H1.875V7.5H18.125V9.375Z" fill="#C2C2C2"/>
<path fill-rule="evenodd" clip-rule="evenodd" d="M16.875 5H3.125C2.43464 5 1.875 5.55964 1.875 6.25V13.75C1.875 14.4404 2.43464 15 3.125 15H16.875C17.5654 15 18.125 14.4404 18.125 13.75V6.25C18.125 5.55964 17.5654 5 16.875 5ZM3.125 3.125C1.39911 3.125 0 4.52411 0 6.25V13.75C0 15.4759 1.39911 16.875 3.125 16.875H16.875C18.6009 16.875 20 15.4759 20 13.75V6.25C20 4.52411 18.6009 3.125 16.875 3.125H3.125Z" fill="#C2C2C2"/>
<path d="M13.125 11.875C13.125 11.5298 13.4048 11.25 13.75 11.25H16.25C16.5952 11.25 16.875 11.5298 16.875 11.875V13.125C16.875 13.4702 16.5952 13.75 16.25 13.75H13.75C13.4048 13.75 13.125 13.4702 13.125 13.125V11.875Z" fill="#D9D9D9"/>
</svg>
