<svg width="24" height="24" viewBox="0 0 24 24" fill="none" xmlns="http://www.w3.org/2000/svg">
<path d="M8.1 11H15.9C16.5896 11 17.2509 11.281 17.7385 11.781C18.2261 12.2811 18.5 12.9594 18.5 13.6667V20.3333C18.5 20.5101 18.4315 20.6797 18.3096 20.8047C18.1877 20.9298 18.0224 21 17.85 21H6.15C5.97761 21 5.81228 20.9298 5.69038 20.8047C5.56848 20.6797 5.5 20.5101 5.5 20.3333V13.6667C5.5 12.9594 5.77393 12.2811 6.26152 11.781C6.74912 11.281 7.41044 11 8.1 11Z" stroke="black" stroke-width="2" stroke-linecap="round" stroke-linejoin="round"/>
<path d="M7.5 10.75V9.25C7.5 8.65326 7.73705 8.08097 8.15901 7.65901C8.58097 7.23705 9.15326 7 9.75 7H14.25C14.8467 7 15.419 7.23705 15.841 7.65901C16.2629 8.08097 16.5 8.65326 16.5 9.25V10.75" stroke="black" stroke-width="2" stroke-linecap="round" stroke-linejoin="round"/>
<path d="M17.25 4.5C17.25 4.10218 17.092 3.72064 16.8107 3.43934C16.5294 3.15804 16.1478 3 15.75 3H9.75" stroke="black" stroke-width="2" stroke-linecap="round" stroke-linejoin="round"/>
<path d="M12 3.25V7" stroke="black" stroke-width="2" stroke-linecap="round" stroke-linejoin="round"/>
</svg>
