<svg width="20" height="20" viewBox="0 0 20 20" fill="none" xmlns="http://www.w3.org/2000/svg">
<path d="M6.74967 9.16675H13.2497C13.8243 9.16675 14.3754 9.40087 14.7817 9.81762C15.1881 10.2344 15.4163 10.7996 15.4163 11.389V16.9445C15.4163 17.0919 15.3593 17.2332 15.2577 17.3374C15.1561 17.4415 15.0183 17.5001 14.8747 17.5001H5.12467C4.98102 17.5001 4.84324 17.4415 4.74166 17.3374C4.64008 17.2332 4.58301 17.0919 4.58301 16.9445V11.389C4.58301 10.7996 4.81128 10.2344 5.21761 9.81762C5.62394 9.40087 6.17504 9.16675 6.74967 9.16675Z" stroke="black" stroke-width="1.5" stroke-linecap="round" stroke-linejoin="round"/>
<path d="M6.25 8.95825V7.70825C6.25 7.21097 6.44754 6.73406 6.79917 6.38243C7.15081 6.0308 7.62772 5.83325 8.125 5.83325H11.875C12.3723 5.83325 12.8492 6.0308 13.2008 6.38243C13.5525 6.73406 13.75 7.21097 13.75 7.70825V8.95825" stroke="black" stroke-width="1.5" stroke-linecap="round" stroke-linejoin="round"/>
<path d="M14.375 3.75C14.375 3.41848 14.2433 3.10054 14.0089 2.86612C13.7745 2.6317 13.4565 2.5 13.125 2.5H8.125" stroke="black" stroke-width="1.5" stroke-linecap="round" stroke-linejoin="round"/>
<path d="M10 2.70825V5.83325" stroke="black" stroke-width="1.5" stroke-linecap="round" stroke-linejoin="round"/>
</svg>
