<svg width="16" height="16" viewBox="0 0 16 16" fill="none" xmlns="http://www.w3.org/2000/svg">
<path d="M3 7C3 5.67392 3.52678 4.40215 4.46447 3.46447C5.40215 2.52678 6.67392 2 8 2C9.32608 2 10.5979 2.52678 11.5355 3.46447C12.4732 4.40215 13 5.67392 13 7" stroke="black" stroke-linecap="round" stroke-linejoin="round"/>
<path d="M5.59961 7C5.83014 5.87064 6.44379 4.8556 7.33671 4.12669C8.22962 3.39778 9.34696 2.99976 10.4996 3C10.6794 3.00009 10.859 3.00969 11.0377 3.02875" stroke="black" stroke-linecap="round" stroke-linejoin="round"/>
<path d="M8.41602 6.9999C8.74171 6.25492 9.24389 5.60044 9.87917 5.093C10.5145 4.58556 11.2637 4.24042 12.0623 4.0874" stroke="black" stroke-linecap="round" stroke-linejoin="round"/>
<path d="M5.5 12.4563C4.45536 11.9774 3.57019 11.2087 2.94974 10.2415C2.32928 9.27422 1.99964 8.14914 2 7H14C14.0004 8.14914 13.6707 9.27422 13.0503 10.2415C12.4298 11.2087 11.5446 11.9774 10.5 12.4563V13C10.5 13.1326 10.4473 13.2598 10.3536 13.3536C10.2598 13.4473 10.1326 13.5 10 13.5H6C5.86739 13.5 5.74022 13.4473 5.64645 13.3536C5.55268 13.2598 5.5 13.1326 5.5 13V12.4563Z" stroke="black" stroke-linecap="round" stroke-linejoin="round"/>
</svg>
