<svg width="20" height="20" viewBox="0 0 20 20" fill="none" xmlns="http://www.w3.org/2000/svg">
<path d="M3.75 8.75C3.75 7.0924 4.40848 5.50269 5.58058 4.33058C6.75269 3.15848 8.3424 2.5 10 2.5C11.6576 2.5 13.2473 3.15848 14.4194 4.33058C15.5915 5.50269 16.25 7.0924 16.25 8.75" stroke="black" stroke-width="1.5" stroke-linecap="round" stroke-linejoin="round"/>
<path d="M7 8.75C7.28816 7.33829 8.05523 6.06951 9.17137 5.15837C10.2875 4.24723 11.6842 3.74971 13.125 3.75C13.3497 3.75012 13.5742 3.76211 13.7977 3.78594" stroke="black" stroke-width="1.5" stroke-linecap="round" stroke-linejoin="round"/>
<path d="M10.5205 8.75C10.9276 7.81877 11.5554 7.00067 12.3495 6.36637C13.1436 5.73207 14.0801 5.30065 15.0783 5.10938" stroke="black" stroke-width="1.5" stroke-linecap="round" stroke-linejoin="round"/>
<path d="M6.875 15.5703C5.5692 14.9718 4.46274 14.0109 3.68717 12.8018C2.9116 11.5928 2.49955 10.1864 2.5 8.75H17.5C17.5005 10.1864 17.0884 11.5928 16.3128 12.8018C15.5373 14.0109 14.4308 14.9718 13.125 15.5703V16.25C13.125 16.4158 13.0592 16.5747 12.9419 16.6919C12.8247 16.8092 12.6658 16.875 12.5 16.875H7.5C7.33424 16.875 7.17527 16.8092 7.05806 16.6919C6.94085 16.5747 6.875 16.4158 6.875 16.25V15.5703Z" stroke="black" stroke-width="1.5" stroke-linecap="round" stroke-linejoin="round"/>
</svg>
