<svg width="16" height="16" viewBox="0 0 16 16" fill="none" xmlns="http://www.w3.org/2000/svg">
<path d="M10.4856 13.9649C9.73063 14.158 8.81563 13.4924 8 13.4924C7.18437 13.4924 6.26938 14.158 5.51438 13.9649C4.73313 13.7649 4.35625 12.5468 3.66625 12.1674C2.96562 11.7818 1.57875 12.0368 1 11.4937C1 11.4937 4.5 10.2437 4.5 4.99805C4.5 4.06979 4.86875 3.17955 5.52513 2.52317C6.1815 1.8668 7.07174 1.49805 8 1.49805C8.92826 1.49805 9.8185 1.8668 10.4749 2.52317C11.1313 3.17955 11.5 4.06979 11.5 4.99805C11.5 10.2412 15 11.4937 15 11.4937C14.4212 12.0368 13.0344 11.7818 12.3337 12.1674C11.6437 12.5468 11.2669 13.7649 10.4856 13.9649Z" stroke="black" stroke-linecap="round" stroke-linejoin="round"/>
<path d="M4.14437 7.65812L2.5 7" stroke="black" stroke-linecap="round" stroke-linejoin="round"/>
<path d="M11.8555 7.65812L13.4998 7" stroke="black" stroke-linecap="round" stroke-linejoin="round"/>
</svg>
