<svg width="20" height="20" viewBox="0 0 20 20" fill="none" xmlns="http://www.w3.org/2000/svg">
<path d="M8.125 3.125H4.375C4.02982 3.125 3.75 3.40482 3.75 3.75V16.25C3.75 16.5952 4.02982 16.875 4.375 16.875H8.125C8.47018 16.875 8.75 16.5952 8.75 16.25V3.75C8.75 3.40482 8.47018 3.125 8.125 3.125Z" stroke="black" stroke-width="1.5" stroke-linecap="round" stroke-linejoin="round"/>
<path d="M17.0054 16.0759L13.3484 16.8571C13.2678 16.8743 13.1845 16.8753 13.1035 16.8602C13.0225 16.8451 12.9453 16.8141 12.8763 16.769C12.8074 16.7239 12.748 16.6656 12.7016 16.5975C12.6552 16.5293 12.6228 16.4527 12.6062 16.372L10.014 4.04698C9.97911 3.88417 10.0101 3.71417 10.1001 3.5741C10.1901 3.43403 10.3319 3.33525 10.4945 3.29933L14.1515 2.51808C14.2321 2.50093 14.3153 2.49989 14.3963 2.51502C14.4773 2.53015 14.5545 2.56116 14.6235 2.60625C14.6925 2.65134 14.7519 2.70963 14.7982 2.77776C14.8446 2.84589 14.877 2.92252 14.8937 3.00323L17.4859 15.3282C17.5207 15.491 17.4898 15.661 17.3998 15.8011C17.3097 15.9412 17.168 16.04 17.0054 16.0759Z" stroke="black" stroke-width="1.5" stroke-linecap="round" stroke-linejoin="round"/>
<path d="M3.75 5.625H8.75" stroke="black" stroke-width="1.5" stroke-linecap="round" stroke-linejoin="round"/>
<path d="M3.75 14.375H8.75" stroke="black" stroke-width="1.5" stroke-linecap="round" stroke-linejoin="round"/>
<path d="M10.4033 5.89683L15.2822 4.84839" stroke="black" stroke-width="1.5" stroke-linecap="round" stroke-linejoin="round"/>
<path d="M10.9209 8.3624L15.8006 7.31396" stroke="black" stroke-width="1.5" stroke-linecap="round" stroke-linejoin="round"/>
<path d="M12.2178 14.5265L17.0967 13.478" stroke="black" stroke-width="1.5" stroke-linecap="round" stroke-linejoin="round"/>
</svg>
