<svg width="16" height="17" viewBox="0 0 16 17" fill="none" xmlns="http://www.w3.org/2000/svg">
<path fill-rule="evenodd" clip-rule="evenodd" d="M13.5 2.3667H2.5C1.94772 2.3667 1.5 2.81441 1.5 3.3667V14.3667C1.5 14.919 1.94772 15.3667 2.5 15.3667H13.5C14.0523 15.3667 14.5 14.919 14.5 14.3667V3.3667C14.5 2.81441 14.0523 2.3667 13.5 2.3667ZM2.5 0.866699C1.11929 0.866699 0 1.98599 0 3.3667V14.3667C0 15.7474 1.11929 16.8667 2.5 16.8667H13.5C14.8807 16.8667 16 15.7474 16 14.3667V3.3667C16 1.98599 14.8807 0.866699 13.5 0.866699H2.5Z" fill="#2EC99E"/>
<path fill-rule="evenodd" clip-rule="evenodd" d="M2.5 2.3667H13.5C14.0523 2.3667 14.5 2.81441 14.5 3.3667V14.3667C14.5 14.919 14.0523 15.3667 13.5 15.3667H2.5C1.94772 15.3667 1.5 14.919 1.5 14.3667V3.3667C1.5 2.81441 1.94772 2.3667 2.5 2.3667ZM12.0649 4.98428C12.4142 5.20687 12.5169 5.6705 12.2943 6.01982L8.0595 12.666C7.61009 13.3713 6.60827 13.4449 6.06061 12.8128L3.68319 10.069C3.41194 9.75594 3.44583 9.28228 3.75888 9.01103C4.07193 8.73979 4.54559 8.77367 4.81683 9.08672L6.97467 11.5771L11.0293 5.21377C11.2519 4.86444 11.7155 4.7617 12.0649 4.98428Z" fill="#2EC99E"/>
<path d="M12.2943 6.01982C12.5169 5.6705 12.4142 5.20687 12.0649 4.98428C11.7155 4.7617 11.2519 4.86444 11.0293 5.21377L6.97467 11.5771L4.81683 9.08672C4.54559 8.77367 4.07193 8.73979 3.75888 9.01103C3.44583 9.28228 3.41194 9.75594 3.68319 10.069L6.06061 12.8128C6.60827 13.4449 7.61009 13.3713 8.0595 12.666L12.2943 6.01982Z" fill="#084836"/>
</svg>
