<svg width="32" height="32" viewBox="0 0 32 32" fill="none" xmlns="http://www.w3.org/2000/svg">
<path fill-rule="evenodd" clip-rule="evenodd" d="M4.4971 2L4.5 2H21.5L21.5029 2C22.1646 2.00193 22.7986 2.26563 23.2665 2.73351C23.7344 3.20139 23.9981 3.83542 24 4.4971L24 4.5V25.9912H22V4.50192C21.9994 4.36902 21.9463 4.24172 21.8523 4.14772C21.7583 4.05374 21.631 4.00067 21.4982 4H4.50184C4.36896 4.00067 4.2417 4.05374 4.14772 4.14772C4.05374 4.2417 4.00067 4.36896 4 4.50184V26.4983C4.00153 26.8961 4.16023 27.2772 4.44153 27.5585C4.72287 27.8398 5.10401 27.9985 5.50185 28H26V30H5.5L5.49701 30C4.5704 29.9972 3.68253 29.6279 3.02731 28.9727C2.37209 28.3175 2.00277 27.4296 2 26.503L2 26.5V4.5L2 4.4971C2.00193 3.83542 2.26563 3.20139 2.73351 2.73351C3.20139 2.26563 3.83542 2.00193 4.4971 2Z" fill="#C2C2C2"/>
<path fill-rule="evenodd" clip-rule="evenodd" d="M22 8C22 7.44772 22.4477 7 23 7H27.5C28.163 7 28.7989 7.26339 29.2678 7.73223C29.7366 8.20107 30 8.83696 30 9.5V26C30 27.0609 29.5786 28.0783 28.8284 28.8284C28.0783 29.5786 27.0609 30 26 30C24.9391 30 23.9217 29.5786 23.1716 28.8284C22.4214 28.0783 22 27.0609 22 26V8ZM24 9V26C24 26.5304 24.2107 27.0391 24.5858 27.4142C24.9609 27.7893 25.4696 28 26 28C26.5304 28 27.0391 27.7893 27.4142 27.4142C27.7893 27.0391 28 26.5304 28 26V9.5C28 9.36739 27.9473 9.24022 27.8536 9.14645C27.7598 9.05268 27.6326 9 27.5 9H24Z" fill="#C2C2C2"/>
<path fill-rule="evenodd" clip-rule="evenodd" d="M14 8C14 7.44772 14.4477 7 15 7H19C19.5523 7 20 7.44772 20 8C20 8.55228 19.5523 9 19 9H15C14.4477 9 14 8.55228 14 8Z" fill="#C2C2C2"/>
<path fill-rule="evenodd" clip-rule="evenodd" d="M14 12C14 11.4477 14.4477 11 15 11H19C19.5523 11 20 11.4477 20 12C20 12.5523 19.5523 13 19 13H15C14.4477 13 14 12.5523 14 12Z" fill="#C2C2C2"/>
<path fill-rule="evenodd" clip-rule="evenodd" d="M6 16C6 15.4477 6.44772 15 7 15H19C19.5523 15 20 15.4477 20 16C20 16.5523 19.5523 17 19 17H7C6.44772 17 6 16.5523 6 16Z" fill="#C2C2C2"/>
<path fill-rule="evenodd" clip-rule="evenodd" d="M6 20C6 19.4477 6.44772 19 7 19H19C19.5523 19 20 19.4477 20 20C20 20.5523 19.5523 21 19 21H7C6.44772 21 6 20.5523 6 20Z" fill="#C2C2C2"/>
<path fill-rule="evenodd" clip-rule="evenodd" d="M6 24C6 23.4477 6.44772 23 7 23H19C19.5523 23 20 23.4477 20 24C20 24.5523 19.5523 25 19 25H7C6.44772 25 6 24.5523 6 24Z" fill="#C2C2C2"/>
<path d="M11 13H7C6.73478 13 6.48043 12.8946 6.29289 12.7071C6.10536 12.5196 6 12.2652 6 12V8C6 7.73478 6.10536 7.48043 6.29289 7.29289C6.48043 7.10536 6.73478 7 7 7H11C11.2652 7 11.5196 7.10536 11.7071 7.29289C11.8946 7.48043 12 7.73478 12 8V12C12 12.2652 11.8946 12.5196 11.7071 12.7071C11.5196 12.8946 11.2652 13 11 13Z" fill="#C2C2C2"/>
</svg>
