<svg width="24" height="24" viewBox="0 0 24 24" fill="none" xmlns="http://www.w3.org/2000/svg">
<path d="M6.01276 4.06464C8.39959 5.83962 10.9669 9.43853 11.9095 11.3699C12.8521 9.43867 15.4193 5.83958 17.8062 4.06464C19.5284 2.78389 22.3188 1.79291 22.3188 4.94624C22.3188 5.57601 21.9543 10.2366 21.7406 10.9932C20.9974 13.6238 18.2895 14.2947 15.8808 13.8886C20.0912 14.5985 21.1623 16.9497 18.8492 19.3009C14.456 23.7664 12.535 18.1805 12.0425 16.7492C11.9523 16.4868 11.91 16.3641 11.9094 16.4685C11.9088 16.3641 11.8666 16.4868 11.7763 16.7492C11.2841 18.1805 9.36305 23.7665 4.96969 19.3009C2.65652 16.9497 3.72757 14.5983 7.93805 13.8886C5.52925 14.2947 2.82131 13.6238 2.07829 10.9932C1.8645 10.2365 1.5 5.57593 1.5 4.94624C1.5 1.79291 4.2905 2.78389 6.01264 4.06464H6.01276Z" stroke="white" stroke-width="2" stroke-linejoin="round"/>
</svg>
