<svg width="24" height="24" viewBox="0 0 24 24" fill="none" xmlns="http://www.w3.org/2000/svg">
<g clip-path="url(#clip0_11805_25)">
<path d="M15 15C15 16.6569 16.1939 18 17.6667 18H20.3333C21.8061 18 23 16.6569 23 15C23 13.3431 21.8061 12 20.3333 12H17.6667C16.1939 12 15 10.6569 15 9C15 7.34315 16.1939 6 17.6667 6H20.3333C21.8061 6 23 7.34315 23 9M19 4.5V19.5" stroke="black" stroke-width="2" stroke-linecap="round" stroke-linejoin="round"/>
<path d="M11.3599 15.3153L11.2119 15.3148C11.1049 15.5892 10.9712 15.8504 10.8094 16.0965C10.513 16.5499 10.1463 16.9387 9.71174 17.257C9.28133 17.5722 8.80347 17.8082 8.28493 17.9673L8.27796 17.9695L8.27795 17.9694C7.76698 18.1221 7.23443 18.196 6.68479 18.196C5.67939 18.196 4.74715 17.9404 3.9154 17.4176C3.06757 16.8847 2.42574 16.1112 1.97327 15.1504L1.97124 15.1461L1.97125 15.1461C1.51476 14.1646 1.30979 13.0124 1.30979 11.7272C1.30979 10.4502 1.51519 9.30306 1.97125 8.32252L1.97326 8.3182L1.97327 8.3182C2.42457 7.35989 3.06161 6.58601 3.90125 6.0484L3.90399 6.04664L3.90399 6.04665C4.7381 5.5164 5.6771 5.25846 6.6919 5.25846C7.24823 5.25846 7.78619 5.3352 8.30063 5.49466C8.82214 5.65485 9.30196 5.89508 9.73327 6.21705L9.13508 7.0184L9.73327 6.21705C10.167 6.54083 10.5325 6.93473 10.8278 7.39272C10.9882 7.64153 11.1196 7.90623 11.2237 8.18459H11.383C11.3014 7.97852 11.2079 7.78528 11.1031 7.60413L11.1015 7.60122C10.8126 7.09761 10.4531 6.68043 10.022 6.34093L10.0177 6.33756L10.0178 6.33755C9.57977 5.98872 9.08347 5.7228 8.5215 5.54075L8.51344 5.53814L8.51345 5.53811C7.95717 5.35268 7.34523 5.25562 6.67059 5.25562C5.58309 5.25562 4.64663 5.5139 3.83233 6.01109L3.82934 6.01292L3.82933 6.01291C3.01801 6.50438 2.3645 7.21536 1.87305 8.18187L1.87227 8.1834C1.39137 9.12518 1.12939 10.2946 1.12939 11.7272C1.12939 13.1547 1.3889 14.3257 1.86671 15.274C2.35804 16.2397 3.01163 16.9532 3.8236 17.4494C4.63741 17.9421 5.57671 18.1988 6.67059 18.1988C7.37128 18.1988 7.99696 18.0953 8.55644 17.8997C9.12918 17.6995 9.62637 17.4215 10.0565 17.0689L11.3599 15.3153ZM11.3599 15.3153C11.2889 15.4825 11.209 15.6442 11.1203 15.8008L11.119 15.8031C10.8438 16.2914 10.4911 16.7118 10.0565 17.0689L11.3599 15.3153ZM0.981667 7.72863C1.54985 6.6112 2.32636 5.75419 3.31121 5.1576L0.981667 7.72863Z" stroke="black" stroke-width="2"/>
</g>
<defs>
<clipPath id="clip0_11805_25">
<rect width="24" height="24" fill="white"/>
</clipPath>
</defs>
</svg>
