<svg width="229" height="260" viewBox="0 0 229 260" fill="none" xmlns="http://www.w3.org/2000/svg">
<g filter="url(#filter0_dd_582_5364)">
<path d="M114.196 16.2305C99.2124 16.2305 84.9269 19.2211 71.9042 24.6381C71.401 24.8474 71.1636 25.4235 71.3678 25.9287L73.6174 31.4928C73.8275 32.0123 74.4229 32.2574 74.9401 32.042C87.0266 27.0093 100.287 24.2305 114.196 24.2305C128.106 24.2305 141.366 27.0093 153.453 32.042C153.97 32.2574 154.565 32.0123 154.775 31.4928L157.025 25.9287C157.229 25.4235 156.992 24.8474 156.489 24.6381C143.466 19.2211 129.181 16.2305 114.196 16.2305Z" fill="white"/>
<path d="M7.90961 97.2296C5.36095 106.529 4 116.319 4 126.427C4 140.586 6.67044 154.122 11.5352 166.557C11.7695 167.156 12.503 167.373 13.0296 167.004L18.0999 163.448C18.4754 163.185 18.6232 162.7 18.4623 162.27C14.2845 151.117 12 139.039 12 126.427C12 116.488 13.4189 106.88 16.0651 97.7949C16.2531 97.1496 15.7723 96.5 15.1002 96.5H8.86965C8.42173 96.5 8.02801 96.7977 7.90961 97.2296Z" fill="white"/>
<path d="M83.185 223.833C92.9658 226.945 103.385 228.623 114.196 228.623C125.008 228.623 135.427 226.945 145.208 223.833C145.95 223.597 146.677 224.252 146.509 225.012L145.021 231.712C144.942 232.069 144.675 232.355 144.323 232.455C134.748 235.17 124.642 236.623 114.196 236.623C103.751 236.623 93.6453 235.17 84.07 232.455C83.7182 232.355 83.4507 232.069 83.3715 231.712L81.8843 225.012C81.7155 224.252 82.4428 223.597 83.185 223.833Z" fill="white"/>
<path d="M216.858 166.557C221.722 154.122 224.393 140.586 224.393 126.427C224.393 116.319 223.032 106.529 220.483 97.2296C220.365 96.7977 219.971 96.5 219.523 96.5H213.293C212.621 96.5 212.14 97.1496 212.328 97.7949C214.974 106.88 216.393 116.488 216.393 126.427C216.393 139.039 214.108 151.117 209.931 162.27C209.77 162.7 209.918 163.185 210.293 163.448L215.363 167.004C215.89 167.373 216.623 167.156 216.858 166.557Z" fill="white"/>
<path fill-rule="evenodd" clip-rule="evenodd" d="M40.7314 37.5864C49.2235 37.5864 56.1077 30.7022 56.1077 22.2101C56.1077 13.7181 49.2235 6.83389 40.7314 6.83389C32.2394 6.83389 25.3552 13.7181 25.3552 22.2101C25.3552 30.7022 32.2394 37.5864 40.7314 37.5864ZM40.7314 44.4203C52.9978 44.4203 62.9416 34.4765 62.9416 22.2101C62.9416 9.94382 52.9978 0 40.7314 0C28.4651 0 18.5213 9.94382 18.5213 22.2101C18.5213 34.4765 28.4651 44.4203 40.7314 44.4203Z" fill="white"/>
<path fill-rule="evenodd" clip-rule="evenodd" d="M68.9212 78.8745V73.0372C68.9212 57.2325 56.109 44.4203 40.3043 44.4203C24.4996 44.4203 11.6874 57.2325 11.6874 73.0372V78.8745C11.6874 79.6608 12.3248 80.2982 13.1111 80.2982H67.4975C68.2838 80.2982 68.9212 79.6608 68.9212 78.8745ZM40.3043 37.5864C20.7254 37.5864 4.85352 53.4583 4.85352 73.0372V78.8745C4.85352 83.435 8.55057 87.1321 13.1111 87.1321H67.4975C72.0581 87.1321 75.7551 83.435 75.7551 78.8745V73.0372C75.7551 53.4583 59.8832 37.5864 40.3043 37.5864Z" fill="white"/>
<path fill-rule="evenodd" clip-rule="evenodd" d="M40.3043 37.5864C20.7254 37.5864 4.85352 53.4583 4.85352 73.0372V78.8745C4.85352 83.435 8.55057 87.1321 13.1111 87.1321H67.4975C72.0581 87.1321 75.7551 83.435 75.7551 78.8745V73.0372C75.7551 53.4583 59.8832 37.5864 40.3043 37.5864ZM68.9212 78.8745V73.0372C68.9212 57.2325 56.109 44.4203 40.3043 44.4203C24.4996 44.4203 11.6874 57.2325 11.6874 73.0372V78.8745C11.6874 79.6608 12.3248 80.2982 13.1111 80.2982H67.4975C68.2838 80.2982 68.9212 79.6608 68.9212 78.8745Z" fill="white"/>
<path fill-rule="evenodd" clip-rule="evenodd" d="M40.7314 44.4203C52.9978 44.4203 62.9416 34.4765 62.9416 22.2101C62.9416 9.94382 52.9978 0 40.7314 0C28.4651 0 18.5213 9.94382 18.5213 22.2101C18.5213 34.4765 28.4651 44.4203 40.7314 44.4203ZM40.7314 37.5864C49.2235 37.5864 56.1077 30.7022 56.1077 22.2101C56.1077 13.7181 49.2235 6.83389 40.7314 6.83389C32.2394 6.83389 25.3552 13.7181 25.3552 22.2101C25.3552 30.7022 32.2394 37.5864 40.7314 37.5864Z" fill="white"/>
<path fill-rule="evenodd" clip-rule="evenodd" d="M188.515 37.5864C197.007 37.5864 203.891 30.7022 203.891 22.2101C203.891 13.7181 197.007 6.83389 188.515 6.83389C180.023 6.83389 173.138 13.7181 173.138 22.2101C173.138 30.7022 180.023 37.5864 188.515 37.5864ZM188.515 44.4203C200.781 44.4203 210.725 34.4765 210.725 22.2101C210.725 9.94382 200.781 0 188.515 0C176.248 0 166.304 9.94382 166.304 22.2101C166.304 34.4765 176.248 44.4203 188.515 44.4203Z" fill="white"/>
<path fill-rule="evenodd" clip-rule="evenodd" d="M216.704 78.8745V73.0372C216.704 57.2325 203.892 44.4203 188.088 44.4203C172.283 44.4203 159.471 57.2325 159.471 73.0372V78.8745C159.471 79.6608 160.108 80.2982 160.894 80.2982H215.281C216.067 80.2982 216.704 79.6608 216.704 78.8745ZM188.088 37.5864C168.509 37.5864 152.637 53.4583 152.637 73.0372V78.8745C152.637 83.435 156.334 87.1321 160.894 87.1321H215.281C219.841 87.1321 223.538 83.435 223.538 78.8745V73.0372C223.538 53.4583 207.666 37.5864 188.088 37.5864Z" fill="white"/>
<path fill-rule="evenodd" clip-rule="evenodd" d="M188.515 44.4203C200.781 44.4203 210.725 34.4765 210.725 22.2101C210.725 9.94382 200.781 0 188.515 0C176.248 0 166.304 9.94382 166.304 22.2101C166.304 34.4765 176.248 44.4203 188.515 44.4203ZM188.515 37.5864C197.007 37.5864 203.891 30.7022 203.891 22.2101C203.891 13.7181 197.007 6.83389 188.515 6.83389C180.023 6.83389 173.138 13.7181 173.138 22.2101C173.138 30.7022 180.023 37.5864 188.515 37.5864Z" fill="white"/>
<path fill-rule="evenodd" clip-rule="evenodd" d="M188.088 37.5864C168.509 37.5864 152.637 53.4583 152.637 73.0372V78.8745C152.637 83.435 156.334 87.1321 160.894 87.1321H215.281C219.841 87.1321 223.538 83.435 223.538 78.8745V73.0372C223.538 53.4583 207.666 37.5864 188.088 37.5864ZM216.704 78.8745V73.0372C216.704 57.2325 203.892 44.4203 188.088 44.4203C172.283 44.4203 159.471 57.2325 159.471 73.0372V78.8745C159.471 79.6608 160.108 80.2982 160.894 80.2982H215.281C216.067 80.2982 216.704 79.6608 216.704 78.8745Z" fill="white"/>
<path fill-rule="evenodd" clip-rule="evenodd" d="M188.515 202.454C197.007 202.454 203.891 195.569 203.891 187.077C203.891 178.585 197.007 171.701 188.515 171.701C180.023 171.701 173.138 178.585 173.138 187.077C173.138 195.569 180.023 202.454 188.515 202.454ZM188.515 209.287C200.781 209.287 210.725 199.344 210.725 187.077C210.725 174.811 200.781 164.867 188.515 164.867C176.248 164.867 166.304 174.811 166.304 187.077C166.304 199.344 176.248 209.287 188.515 209.287Z" fill="white"/>
<path fill-rule="evenodd" clip-rule="evenodd" d="M216.704 243.742V237.904C216.704 222.1 203.892 209.287 188.088 209.287C172.283 209.287 159.471 222.1 159.471 237.904V243.742C159.471 244.528 160.108 245.165 160.894 245.165H215.281C216.067 245.165 216.704 244.528 216.704 243.742ZM188.088 202.454C168.509 202.454 152.637 218.325 152.637 237.904V243.742C152.637 248.302 156.334 251.999 160.894 251.999H215.281C219.841 251.999 223.538 248.302 223.538 243.742V237.904C223.538 218.325 207.666 202.454 188.088 202.454Z" fill="white"/>
<path fill-rule="evenodd" clip-rule="evenodd" d="M188.515 209.287C200.781 209.287 210.725 199.344 210.725 187.077C210.725 174.811 200.781 164.867 188.515 164.867C176.248 164.867 166.304 174.811 166.304 187.077C166.304 199.344 176.248 209.287 188.515 209.287ZM188.515 202.454C197.007 202.454 203.891 195.569 203.891 187.077C203.891 178.585 197.007 171.701 188.515 171.701C180.023 171.701 173.138 178.585 173.138 187.077C173.138 195.569 180.023 202.454 188.515 202.454Z" fill="white"/>
<path fill-rule="evenodd" clip-rule="evenodd" d="M188.088 202.454C168.509 202.454 152.637 218.325 152.637 237.904V243.742C152.637 248.302 156.334 251.999 160.894 251.999H215.281C219.841 251.999 223.538 248.302 223.538 243.742V237.904C223.538 218.325 207.666 202.454 188.088 202.454ZM216.704 243.742V237.904C216.704 222.1 203.892 209.287 188.088 209.287C172.283 209.287 159.471 222.1 159.471 237.904V243.742C159.471 244.528 160.108 245.165 160.894 245.165H215.281C216.067 245.165 216.704 244.528 216.704 243.742Z" fill="white"/>
<path fill-rule="evenodd" clip-rule="evenodd" d="M40.7314 201.598C49.2235 201.598 56.1077 194.714 56.1077 186.222C56.1077 177.73 49.2235 170.846 40.7314 170.846C32.2394 170.846 25.3552 177.73 25.3552 186.222C25.3552 194.714 32.2394 201.598 40.7314 201.598ZM40.7314 208.432C52.9978 208.432 62.9416 198.488 62.9416 186.222C62.9416 173.956 52.9978 164.012 40.7314 164.012C28.4651 164.012 18.5213 173.956 18.5213 186.222C18.5213 198.488 28.4651 208.432 40.7314 208.432Z" fill="white"/>
<path fill-rule="evenodd" clip-rule="evenodd" d="M68.9212 242.886V237.049C68.9212 221.244 56.109 208.432 40.3043 208.432C24.4996 208.432 11.6874 221.244 11.6874 237.049V242.886C11.6874 243.672 12.3248 244.31 13.1111 244.31H67.4975C68.2838 244.31 68.9212 243.672 68.9212 242.886ZM40.3043 201.598C20.7254 201.598 4.85352 217.47 4.85352 237.049V242.886C4.85352 247.447 8.55057 251.144 13.1111 251.144H67.4975C72.0581 251.144 75.7551 247.447 75.7551 242.886V237.049C75.7551 217.47 59.8832 201.598 40.3043 201.598Z" fill="white"/>
<path fill-rule="evenodd" clip-rule="evenodd" d="M40.7314 208.432C52.9978 208.432 62.9416 198.488 62.9416 186.222C62.9416 173.956 52.9978 164.012 40.7314 164.012C28.4651 164.012 18.5213 173.956 18.5213 186.222C18.5213 198.488 28.4651 208.432 40.7314 208.432ZM40.7314 201.598C49.2235 201.598 56.1077 194.714 56.1077 186.222C56.1077 177.73 49.2235 170.846 40.7314 170.846C32.2394 170.846 25.3552 177.73 25.3552 186.222C25.3552 194.714 32.2394 201.598 40.7314 201.598Z" fill="white"/>
<path fill-rule="evenodd" clip-rule="evenodd" d="M40.3043 201.598C20.7254 201.598 4.85352 217.47 4.85352 237.049V242.886C4.85352 247.447 8.55057 251.144 13.1111 251.144H67.4975C72.0581 251.144 75.7551 247.447 75.7551 242.886V237.049C75.7551 217.47 59.8832 201.598 40.3043 201.598ZM68.9212 242.886V237.049C68.9212 221.244 56.109 208.432 40.3043 208.432C24.4996 208.432 11.6874 221.244 11.6874 237.049V242.886C11.6874 243.672 12.3248 244.31 13.1111 244.31H67.4975C68.2838 244.31 68.9212 243.672 68.9212 242.886Z" fill="white"/>
<path d="M123.046 112.114L123.046 112.114L105.415 101.947L105.416 140.432L123.05 130.265C123.961 129.739 124.995 129.463 126.047 129.463H131.125H135.125H142.387C146.074 129.463 149.064 126.473 149.063 122.785L149.063 119.916C149.063 116.05 145.929 112.916 142.063 112.916H126.044C124.991 112.916 123.958 112.64 123.046 112.114Z" stroke="white" stroke-width="8"/>
<path fill-rule="evenodd" clip-rule="evenodd" d="M88.5156 127.764C88.5156 126.576 87.5529 125.613 86.3654 125.613H72.7471C71.5595 125.613 70.5968 126.576 70.5968 127.764C70.5968 128.951 71.5595 129.914 72.7471 129.914H86.3654C87.5529 129.914 88.5156 128.951 88.5156 127.764Z" fill="white"/>
<path fill-rule="evenodd" clip-rule="evenodd" d="M93.496 111.592C94.2107 110.644 94.0212 109.296 93.0728 108.581L82.1967 100.385C81.2483 99.6706 79.9001 99.86 79.1854 100.808C78.4707 101.757 78.6602 103.105 79.6086 103.82L90.4847 112.015C91.4331 112.73 92.7813 112.541 93.496 111.592Z" fill="white"/>
<path fill-rule="evenodd" clip-rule="evenodd" d="M93.673 144.477C92.9583 143.529 91.6101 143.339 90.6616 144.054L79.7856 152.25C78.8371 152.964 78.6477 154.312 79.3624 155.261C80.077 156.209 81.4253 156.399 82.3737 155.684L93.2497 147.488C94.1982 146.774 94.3877 145.425 93.673 144.477Z" fill="white"/>
</g>
<defs>
<filter id="filter0_dd_582_5364" x="0" y="0" width="228.393" height="259.999" filterUnits="userSpaceOnUse" color-interpolation-filters="sRGB">
<feFlood flood-opacity="0" result="BackgroundImageFix"/>
<feColorMatrix in="SourceAlpha" type="matrix" values="0 0 0 0 0 0 0 0 0 0 0 0 0 0 0 0 0 0 127 0" result="hardAlpha"/>
<feOffset dy="4"/>
<feGaussianBlur stdDeviation="2"/>
<feComposite in2="hardAlpha" operator="out"/>
<feColorMatrix type="matrix" values="0 0 0 0 0 0 0 0 0 0 0 0 0 0 0 0 0 0 0.25 0"/>
<feBlend mode="normal" in2="BackgroundImageFix" result="effect1_dropShadow_582_5364"/>
<feColorMatrix in="SourceAlpha" type="matrix" values="0 0 0 0 0 0 0 0 0 0 0 0 0 0 0 0 0 0 127 0" result="hardAlpha"/>
<feOffset dy="4"/>
<feGaussianBlur stdDeviation="2"/>
<feComposite in2="hardAlpha" operator="out"/>
<feColorMatrix type="matrix" values="0 0 0 0 0 0 0 0 0 0 0 0 0 0 0 0 0 0 0.25 0"/>
<feBlend mode="normal" in2="effect1_dropShadow_582_5364" result="effect2_dropShadow_582_5364"/>
<feBlend mode="normal" in="SourceGraphic" in2="effect2_dropShadow_582_5364" result="shape"/>
</filter>
</defs>
</svg>
