<svg xmlns="http://www.w3.org/2000/svg" width="16" height="16" viewBox="0 0 16 16" fill="none">
  <path d="M2 7.33398L2.10192 9.48525C2.21143 11.7797 2.26618 12.9269 3.03923 13.6305C3.81229 14.334 5.01811 14.334 7.42973 14.334H8.57027C10.9819 14.334 12.1877 14.334 12.9608 13.6305C13.7338 12.9269 13.7886 11.7797 13.8981 9.48525L14 7.33398" stroke="CurrentColor" stroke-linecap="round" stroke-linejoin="round"/>
  <path d="M1.89747 6.96207C3.03034 9.11627 5.58548 10 7.99935 10C10.4132 10 12.9683 9.11627 14.1012 6.96207C14.642 5.93371 14.2325 4 12.9007 4H3.09802C1.76617 4 1.3567 5.93371 1.89747 6.96207Z" stroke="CurrentColor"/>
  <path d="M8 7.33398H8.00675" stroke="CurrentColor" stroke-linecap="round" stroke-linejoin="round"/>
  <path d="M10.6673 3.99935L10.6085 3.79331C10.3151 2.76661 10.1685 2.25326 9.81925 1.95964C9.47005 1.66602 9.00625 1.66602 8.07865 1.66602H7.92265C6.99505 1.66602 6.53123 1.66602 6.18205 1.95964C5.83286 2.25326 5.6862 2.76661 5.39285 3.79331L5.33398 3.99935" stroke="CurrentColor"/>
</svg>