<svg xmlns="http://www.w3.org/2000/svg" width="24" height="24" viewBox="0 0 24 24" fill="none">
  <path d="M22.427 6.04992L21.9093 5.14098C21.8687 5.06974 21.8122 5.00884 21.7442 4.96305C21.6761 4.91725 21.5984 4.88779 21.5171 4.87697C21.4358 4.86615 21.3532 4.87425 21.2755 4.90065C21.1979 4.92706 21.1274 4.97104 21.0695 5.02917L19.8788 6.21866C19.7917 6.30614 19.7375 6.42101 19.7255 6.54382C19.7134 6.66664 19.7441 6.78985 19.8125 6.8926C20.2467 7.55597 20.5946 8.2719 20.848 9.02313C21.3212 10.4275 21.4534 11.9242 21.2335 13.3898C21.0136 14.8553 20.4481 16.2474 19.5835 17.4511C18.719 18.6548 17.5803 19.6356 16.2617 20.3122C14.943 20.9889 13.4822 21.342 11.9999 21.3425C10.4741 21.3467 8.97086 20.9736 7.62409 20.2565L9.63806 18.2419C10.886 18.7139 12.2469 18.8007 13.5447 18.4912C14.8426 18.1818 16.0178 17.4902 16.9184 16.506C17.819 15.5217 18.4036 14.29 18.5967 12.9701C18.7898 11.6502 18.5824 10.3027 18.0015 9.10181C17.9646 9.02491 17.9098 8.95798 17.8417 8.90664C17.7736 8.8553 17.6941 8.82104 17.6101 8.80674C17.526 8.79244 17.4397 8.79852 17.3584 8.82446C17.2772 8.8504 17.2033 8.89546 17.1431 8.95584L15.9378 10.1526C15.8735 10.2167 15.8268 10.2963 15.8019 10.3836C15.7771 10.471 15.775 10.5632 15.7959 10.6516L15.8995 11.0843C16.0777 11.8423 16.0306 12.6359 15.7641 13.3675C15.4977 14.0992 15.0233 14.7372 14.3993 15.2032C13.7754 15.6692 13.0289 15.9429 12.2515 15.9908C11.4742 16.0386 10.6997 15.8586 10.0232 15.4727L9.49206 15.1683C9.39055 15.1099 9.27256 15.0866 9.15645 15.1021C9.04034 15.1177 8.93263 15.1712 8.85007 15.2542L3.9306 20.1716C3.8769 20.2253 3.83529 20.2899 3.80855 20.3609C3.78182 20.432 3.77057 20.508 3.77557 20.5837C3.78057 20.6595 3.8017 20.7333 3.83754 20.8003C3.87339 20.8672 3.92312 20.9257 3.98341 20.9719L4.70823 21.5278C6.79851 23.1383 9.36516 24.008 12.0041 24C14.105 23.9973 16.1685 23.4437 17.9886 22.3944C19.8087 21.3452 21.3216 19.837 22.3764 18.0204C23.4313 16.2038 23.9911 14.1424 23.9999 12.0419C24.0088 9.94142 23.4665 7.87534 22.427 6.04992Z" fill="white"/>
  <path d="M19.2979 2.47324C17.2078 0.862185 14.6411 -0.0079016 12.002 5.40758e-05C9.90003 0.00168762 7.83529 0.554782 6.01408 1.60407C4.19287 2.65337 2.67896 4.16211 1.62362 5.97957C0.56828 7.79702 0.00845999 9.85954 9.51361e-05 11.9611C-0.00826972 14.0626 0.535114 16.1295 1.57595 17.9553L2.09368 18.8632C2.13446 18.9343 2.19108 18.9952 2.25915 19.0409C2.32722 19.0867 2.40492 19.1162 2.48622 19.1271C2.56752 19.138 2.65025 19.1301 2.72798 19.1039C2.80572 19.0777 2.87637 19.0339 2.93448 18.976L4.12319 17.7876C4.20965 17.6999 4.26341 17.5853 4.27547 17.4628C4.28753 17.3403 4.25717 17.2174 4.18946 17.1147C3.75486 16.4515 3.40688 15.7355 3.154 14.9841C2.68074 13.5798 2.54858 12.083 2.76844 10.6175C2.98831 9.15199 3.55388 7.75985 4.41841 6.55613C5.28295 5.35241 6.42161 4.3717 7.74029 3.69504C9.05897 3.01839 10.5198 2.66523 12.002 2.66476C13.5278 2.66131 15.0308 3.03546 16.3768 3.75384L14.3618 5.76738C13.3524 5.3849 12.2652 5.25317 11.1937 5.38351C10.1221 5.51385 9.09823 5.90236 8.21001 6.51567C7.32178 7.12897 6.59579 7.94872 6.0944 8.90447C5.59302 9.86023 5.33124 10.9234 5.33157 12.0026C5.33157 12.1134 5.3616 12.6186 5.37092 12.7056C5.45257 13.4702 5.66518 14.215 5.99944 14.9075C6.03645 14.9844 6.09136 15.0514 6.15956 15.1027C6.22776 15.154 6.30727 15.1883 6.39143 15.2026C6.47559 15.2169 6.56195 15.2108 6.64328 15.1848C6.7246 15.1589 6.79853 15.1139 6.85887 15.0535L8.06415 13.8474C8.12834 13.7834 8.17515 13.7041 8.20015 13.617C8.22516 13.5298 8.22753 13.4378 8.20704 13.3495L8.1035 12.9157C7.92508 12.1577 7.97198 11.364 8.23842 10.6323C8.50487 9.90051 8.97927 9.26248 9.60336 8.79651C10.2274 8.33055 10.9741 8.05695 11.7515 8.00932C12.529 7.96168 13.3034 8.14208 13.9797 8.52837L14.5109 8.83273C14.6126 8.89066 14.7304 8.91363 14.8464 8.89811C14.9624 8.88259 15.0701 8.82943 15.1529 8.7468L20.0714 3.82941C20.1251 3.7757 20.1668 3.71113 20.1937 3.64002C20.2205 3.56891 20.2318 3.49289 20.2269 3.41705C20.222 3.34121 20.201 3.26728 20.1652 3.20022C20.1295 3.13315 20.0798 3.07448 20.0196 3.02813L19.2979 2.47324Z" fill="white"/>
</svg>