<svg width="19" height="18" viewBox="0 0 19 18" fill="none" xmlns="http://www.w3.org/2000/svg">
<path fill-rule="evenodd" clip-rule="evenodd" d="M15.6875 1.6875H3.3125C2.69118 1.6875 2.1875 2.19118 2.1875 2.8125V7.875C2.1875 8.49632 2.69118 9 3.3125 9H15.6875C16.3088 9 16.8125 8.49632 16.8125 7.875V2.8125C16.8125 2.19118 16.3088 1.6875 15.6875 1.6875ZM3.3125 0C1.7592 0 0.5 1.2592 0.5 2.8125V7.875C0.5 9.4283 1.7592 10.6875 3.3125 10.6875H15.6875C17.2408 10.6875 18.5 9.4283 18.5 7.875V2.8125C18.5 1.2592 17.2408 0 15.6875 0H3.3125Z" fill="#2EC99E"/>
<path fill-rule="evenodd" clip-rule="evenodd" d="M3.3125 12.375C3.00184 12.375 2.75 12.6268 2.75 12.9375V14.0625C2.75 14.3732 3.00184 14.625 3.3125 14.625H15.6875C15.9982 14.625 16.25 14.3732 16.25 14.0625V12.9375C16.25 12.6268 15.9982 12.375 15.6875 12.375H3.3125Z" fill="#2EC99E"/>
<path fill-rule="evenodd" clip-rule="evenodd" d="M4.4375 17.1562C4.4375 16.6903 4.81526 16.3125 5.28125 16.3125H13.7188C14.1847 16.3125 14.5625 16.6903 14.5625 17.1562C14.5625 17.6222 14.1847 18 13.7188 18H5.28125C4.81526 18 4.4375 17.6222 4.4375 17.1562Z" fill="#2EC99E"/>
</svg>
