<svg width="56" height="56" viewBox="0 0 56 56" fill="none" xmlns="http://www.w3.org/2000/svg">
<g filter="url(#filter0_b_20445_7459)">
<rect width="56" height="56" rx="12" fill="#141414"/>
<rect x="0.5" y="0.5" width="55" height="55" rx="11.5" stroke="#292929"/>
<path d="M18.6954 23.1854L27.6954 27.1855L28.3046 25.8147L19.3046 21.8147L18.6954 23.1854ZM28.75 37.5001V26.5001H27.25V37.5001H28.75ZM28.3046 27.1855L37.3046 23.1854L36.6954 21.8147L27.6954 25.8147L28.3046 27.1855Z" fill="#2BCFA1"/>
<path d="M19 33.1102V22.89C19 22.6529 19.1396 22.438 19.3563 22.3417L27.7563 18.6084C27.9115 18.5394 28.0885 18.5394 28.2437 18.6084L36.6437 22.3417C36.8604 22.438 37 22.6529 37 22.89V33.1102C37 33.3473 36.8604 33.5622 36.6437 33.6585L28.2437 37.3918C28.0885 37.4607 27.9115 37.4607 27.7563 37.3918L19.3563 33.6585C19.1396 33.5622 19 33.3473 19 33.1102Z" stroke="#2BCFA1" stroke-width="2" stroke-linecap="round" stroke-linejoin="round"/>
<path d="M23.5 20.5L32.1437 24.3416C32.3604 24.4379 32.5 24.6528 32.5 24.8899V28.5" stroke="#2BCFA1" stroke-width="1.5" stroke-linecap="round" stroke-linejoin="round"/>
</g>
<defs>
<filter id="filter0_b_20445_7459" x="-12" y="-12" width="80" height="80" filterUnits="userSpaceOnUse" color-interpolation-filters="sRGB">
<feFlood flood-opacity="0" result="BackgroundImageFix"/>
<feGaussianBlur in="BackgroundImageFix" stdDeviation="6"/>
<feComposite in2="SourceAlpha" operator="in" result="effect1_backgroundBlur_20445_7459"/>
<feBlend mode="normal" in="SourceGraphic" in2="effect1_backgroundBlur_20445_7459" result="shape"/>
</filter>
</defs>
</svg>
