<svg width="56" height="56" viewBox="0 0 56 56" fill="none" xmlns="http://www.w3.org/2000/svg">
<g filter="url(#filter0_b_20657_7856)">
<rect width="56" height="56" rx="12" fill="#141414"/>
<rect x="0.5" y="0.5" width="55" height="55" rx="11.5" stroke="#333333"/>
<path d="M38.48 28.0573C38.48 29.8552 38.4731 31.6531 38.4848 33.4503C38.4876 33.9018 38.3249 34.1937 37.9245 34.4232C34.8396 36.1962 31.7589 37.9768 28.6919 39.7816C28.2054 40.0679 27.8291 40.0755 27.3397 39.7879C24.2631 37.9775 21.1727 36.1914 18.0796 34.4101C17.6854 34.1833 17.5138 33.8922 17.5151 33.4379C17.5241 29.831 17.5234 26.2235 17.5151 22.6167C17.5145 22.1651 17.6771 21.8726 18.0762 21.6423C21.2492 19.8147 24.4127 17.9712 27.5768 16.1291C27.8766 15.9548 28.1516 15.9583 28.45 16.1318C31.6541 17.9968 34.8603 19.8583 38.0685 21.7156C38.3228 21.8629 38.4572 22.0635 38.4669 22.3532C38.4724 22.5143 38.4793 22.6754 38.4793 22.8366C38.48 24.577 38.4793 26.3168 38.4793 28.0573H38.48ZM36.3131 28.0262C36.3131 26.5395 36.3097 25.0521 36.3166 23.5654C36.3179 23.3372 36.2656 23.1788 36.0533 23.0558C33.4481 21.5525 30.8491 20.0388 28.2412 18.5417C28.1233 18.4739 27.8987 18.476 27.7801 18.5438C25.1811 20.0353 22.5918 21.5428 19.997 23.0419C19.8005 23.1553 19.6937 23.2812 19.6944 23.5281C19.702 26.525 19.7006 29.5219 19.6958 32.5189C19.6958 32.7408 19.7709 32.8722 19.9673 32.9849C22.5422 34.473 25.1136 35.9667 27.6802 37.4679C27.9159 37.6055 28.0965 37.611 28.3356 37.4713C30.8815 35.9812 33.4323 34.4972 35.9892 33.025C36.2339 32.884 36.3207 32.727 36.3193 32.4525C36.309 30.9768 36.3145 29.5019 36.3145 28.0262H36.3131Z" fill="#FF9211"/>
<path d="M28.9296 35.2232C28.9296 34.9121 28.9296 34.6714 28.9296 34.4315C28.9296 32.451 28.9344 30.4706 28.9241 28.4902C28.9227 28.2232 29.0102 28.0808 29.2466 27.9563C30.8084 27.1334 32.3618 26.2933 33.9187 25.4607C33.9877 25.4241 33.9033 25.4723 34.2096 25.3248C34.2096 25.5156 34.2096 25.5997 34.2096 25.7076C34.211 27.7572 34.2068 29.8068 34.2158 31.8563C34.2165 32.0949 34.1386 32.2228 33.9304 32.3425C32.3797 33.2359 30.8387 34.1445 29.2935 35.0462C29.197 35.1022 29.0923 35.1444 28.9296 35.2232Z" fill="#FF9211"/>
<path d="M34.2352 24.3765C33.8933 24.5722 33.597 24.7416 33.2827 24.9221C32.1304 24.2548 30.9697 23.5826 29.8098 22.9098C29.2736 22.5986 28.7422 22.2785 28.1985 21.9818C28.1013 21.9286 27.9235 21.9279 27.8284 21.9818C26.1943 22.9167 24.5643 23.8599 22.9433 24.8176C22.8261 24.8868 22.7179 25.0832 22.7165 25.2208C22.7014 27.0878 22.7097 28.9555 22.7021 30.8226C22.7014 31.0383 22.7841 31.151 22.964 31.2548C24.5264 32.1537 26.0799 33.0672 27.6464 33.9599C27.8911 34.0996 27.9945 34.2524 27.9662 34.529C27.9621 34.7577 27.9621 34.9591 27.9621 35.2461C27.43 34.9425 26.9538 34.6742 26.481 34.4004C25.0405 33.5657 23.6056 32.7228 22.159 31.8985C21.8709 31.7347 21.762 31.53 21.7634 31.2057C21.7723 29.0849 21.7723 26.964 21.7634 24.8432C21.762 24.5182 21.8716 24.308 22.1562 24.1455C23.9991 23.0896 25.8359 22.0233 27.6719 20.9563C27.8897 20.8298 28.0889 20.8042 28.3163 20.937C30.233 22.0489 32.1524 23.1553 34.0711 24.2638C34.1097 24.2859 34.1456 24.3149 34.2359 24.3772L34.2352 24.3765Z" fill="#FF9211"/>
</g>
<defs>
<filter id="filter0_b_20657_7856" x="-12" y="-12" width="80" height="80" filterUnits="userSpaceOnUse" color-interpolation-filters="sRGB">
<feFlood flood-opacity="0" result="BackgroundImageFix"/>
<feGaussianBlur in="BackgroundImageFix" stdDeviation="6"/>
<feComposite in2="SourceAlpha" operator="in" result="effect1_backgroundBlur_20657_7856"/>
<feBlend mode="normal" in="SourceGraphic" in2="effect1_backgroundBlur_20657_7856" result="shape"/>
</filter>
</defs>
</svg>
