<svg width="56" height="56" viewBox="0 0 56 56" fill="none" xmlns="http://www.w3.org/2000/svg">
<g filter="url(#filter0_b_20657_8275)">
<rect width="56" height="56" rx="12" fill="#141414"/>
<rect x="0.5" y="0.5" width="55" height="55" rx="11.5" stroke="#333333"/>
<g clip-path="url(#clip0_20657_8275)">
<path d="M33.5612 18.1283C32.9369 18.7453 32.3649 19.414 31.8565 20.127L31.6958 20.0753C30.7687 19.776 29.808 19.5913 28.8398 19.5285C28.5482 19.5063 27.4604 19.5063 27.1053 19.5285C26.0324 19.5987 25.21 19.7576 24.2755 20.079C24.2381 20.0938 24.2044 20.1048 24.1708 20.1159C23.6437 19.4066 23.0568 18.7416 22.4101 18.132C25.5128 16.5618 29.1426 16.3734 32.3911 17.611C32.7388 17.7403 33.0789 17.8918 33.4116 18.0544L33.5612 18.1283ZM39.3479 32.1415C38.8769 33.4679 38.1704 34.6981 37.2545 35.7695C36.7573 36.3459 36.2078 36.8742 35.6172 37.3545C34.234 38.4555 32.6191 39.2424 30.8958 39.6562C28.9893 40.1106 27.0006 40.1106 25.0941 39.6562C23.3671 39.2424 21.7559 38.4555 20.3728 37.3545C19.7822 36.8742 19.2326 36.3459 18.7355 35.7695C16.1 32.692 15.3001 28.4655 16.6421 24.6565C16.8963 23.9508 17.214 23.271 17.5953 22.6245C17.771 22.3289 17.9878 21.9964 18.0925 21.8597C18.4514 23.3856 18.8925 24.7267 19.0569 25.2106C19.0457 25.2365 19.0308 25.2661 19.0158 25.2919C18.1448 27.0357 17.6738 28.7167 17.5617 30.5049C17.5617 30.527 17.5579 30.5529 17.5579 30.5751C17.528 31.1108 17.543 31.3657 17.6327 31.7019C17.9131 32.7548 18.7766 33.9149 20.1298 35.0528C22.3466 36.9148 25.3521 38.2596 27.6286 38.4148C30.0024 38.5737 33.5051 37.203 35.8377 35.2006C36.2041 34.8792 36.548 34.5393 36.8695 34.1772C37.1012 33.9112 37.4452 33.4531 37.419 33.4531C37.4115 33.4531 37.419 33.4457 37.4339 33.4383C37.4452 33.4309 37.4564 33.4198 37.4489 33.4125C37.4451 33.4088 37.4526 33.3977 37.4638 33.394C37.4751 33.3903 37.4825 33.3829 37.4788 33.3755C37.4751 33.3681 37.4788 33.3607 37.4937 33.357C37.505 33.3533 37.5087 33.3423 37.505 33.3349C37.5012 33.3275 37.505 33.3201 37.5124 33.3201C37.5199 33.3201 37.5274 33.309 37.5274 33.3016C37.5274 33.2942 37.5349 33.2831 37.5423 33.2831C37.5498 33.2831 37.5573 33.2758 37.5573 33.2684C37.5685 33.2388 37.5872 33.2093 37.6059 33.1834C37.662 33.0984 37.8863 32.7031 37.9162 32.6366C38.1292 32.16 38.2638 31.7351 38.3274 31.3103C38.3573 31.1071 38.376 30.7339 38.361 30.6453C38.3573 30.6305 38.3573 30.6046 38.3535 30.564C38.3461 30.4901 38.3423 30.3793 38.3348 30.2684C38.3274 30.1022 38.3124 29.8694 38.3012 29.7549C38.1405 28.0776 37.7068 26.7069 36.8844 25.255C36.8508 25.1996 36.8209 25.1441 36.8022 25.0998C36.7947 25.0887 36.791 25.0776 36.7872 25.0703C36.9031 24.7267 37.3779 23.2895 37.7554 21.6454L37.7629 21.6528L37.819 21.7267C37.9162 21.856 38.1741 22.2403 38.29 22.425C38.8171 23.2747 39.2283 24.1873 39.5199 25.1404C40.1965 27.4347 40.1404 29.8805 39.3479 32.1415Z" fill="#F00500"/>
<path d="M34.4957 27.7266C34.4845 27.7857 34.3088 27.9631 34.1331 28.0924C33.6173 28.4655 32.6939 28.8128 31.7556 28.9791C31.2211 29.0751 30.6865 29.0899 30.5258 29.0123C30.4211 28.9606 30.4061 28.9199 30.4435 28.7869C30.522 28.5099 30.7762 28.2069 31.1725 27.9224C31.3743 27.7783 32.193 27.287 32.5743 27.0801C33.2023 26.7402 33.7107 26.537 34.0546 26.489C34.163 26.4742 34.2939 26.4705 34.335 26.489C34.4023 26.5148 34.477 26.7106 34.507 26.9471C34.5219 27.0727 34.5144 27.6269 34.4957 27.7266ZM25.6885 28.9495C25.6661 28.9938 25.554 29.0419 25.4269 29.0603C25.2998 29.0788 24.911 29.0677 24.6904 29.0419C23.8979 28.9384 23.0568 28.6983 22.4438 28.4027C22.0999 28.2365 21.8531 28.0702 21.67 27.8892L21.5653 27.782L21.5541 27.6416C21.5354 27.3978 21.5391 27.0136 21.569 26.8769C21.5877 26.7623 21.6289 26.6515 21.6849 26.5518C21.7148 26.5148 21.7148 26.5148 21.8494 26.5148C22.0139 26.5148 22.1522 26.5407 22.3765 26.6109C22.8363 26.7513 23.5204 27.0912 24.354 27.5862C25.0418 27.9926 25.2998 28.1921 25.4979 28.4655C25.6325 28.6355 25.7222 28.8756 25.6885 28.9495ZM30.9818 34.0923C30.9818 34.1033 30.937 34.2807 30.8809 34.4913C30.8248 34.7018 30.78 34.8718 30.78 34.8792C30.7388 34.8829 30.7015 34.8866 30.6603 34.8829H30.5407L30.3762 35.2671C30.2865 35.4777 30.2043 35.6735 30.1931 35.7031L30.1706 35.7548L30.0921 35.6292L30.0136 35.5036V34.4802L29.9837 34.4876C29.9202 34.5023 29.4679 34.5615 29.2697 34.5799C28.4511 34.6612 27.6287 34.6427 26.8137 34.5282C26.6829 34.5097 26.5708 34.495 26.567 34.4986C26.5633 34.5023 26.567 34.7388 26.5745 35.0307L26.5857 35.5553L26.5222 35.6513C26.4885 35.7031 26.4549 35.7474 26.4549 35.7511C26.4437 35.7622 26.4063 35.7031 26.3203 35.5331C26.2268 35.3558 26.1596 35.1674 26.111 34.9715L26.0848 34.8644L25.9689 34.8718L25.853 34.8829L25.8231 34.7462C25.8082 34.6723 25.7895 34.5578 25.782 34.495L25.7708 34.3767L25.6736 34.2918C25.6175 34.2437 25.5614 34.1957 25.5502 34.1883C25.5315 34.1735 25.5241 34.1477 25.5241 34.1255V34.0812L25.9913 34.0849L26.4586 34.0886L26.4736 34.1366L26.4885 34.1846L26.6493 34.192C26.739 34.1957 27.0231 34.2031 27.2773 34.2105L27.7445 34.2216L27.8642 34.0368L27.9875 33.8521H28.1445L28.1408 33.4679L28.1371 33.0837L27.9315 32.995C27.2698 32.7068 26.881 32.378 26.7352 31.979C26.7053 31.8977 26.7053 31.8682 26.6979 31.4987C26.6941 31.133 26.6941 31.0997 26.7203 31.0184C26.7726 30.8337 26.9184 30.6896 27.1053 30.6416C27.1689 30.6231 27.3371 30.6231 28.2193 30.6231L29.2585 30.6268L29.3744 30.6822C29.5127 30.7487 29.5763 30.7968 29.6548 30.9002C29.7445 31.0184 29.7707 31.1108 29.7707 31.3361C29.7707 31.6576 29.7482 31.9347 29.7146 32.0455C29.666 32.197 29.5912 32.3411 29.4978 32.4704C29.3109 32.7068 28.9707 32.9433 28.6604 33.0504L28.5707 33.0837L28.5744 33.4716L28.5782 33.8595L28.6604 33.8669L28.7426 33.8743L28.8548 34.0405L28.9632 34.2068H29.4641C29.7407 34.2068 29.9837 34.2105 30.0062 34.2142C30.0435 34.2216 30.051 34.2179 30.0884 34.1551L30.1333 34.0886H30.5632C30.8846 34.0738 30.9818 34.0812 30.9818 34.0923Z" fill="black"/>
<path d="M29.0079 35.1526C28.9369 35.1932 28.8883 35.2117 28.8771 35.2043C28.8659 35.2006 28.8136 35.1563 28.7575 35.1156L28.6566 35.0344L28.5519 35.1452C28.3239 35.389 28.3164 35.4001 28.2491 35.4038C28.1444 35.4149 28.122 35.3964 27.9949 35.208C27.9276 35.112 27.8753 35.0307 27.8753 35.0307C27.8753 35.0307 27.8267 35.0233 27.7706 35.0196L27.6659 35.0085L27.6173 35.1083L27.5687 35.208L27.4828 35.1822C27.4155 35.16 27.3482 35.1341 27.2846 35.1046L27.1725 35.0491V34.8386L28.1668 34.8423L29.1612 34.846L29.1649 34.9457C29.1687 35.0639 29.1724 35.0602 29.0079 35.1526Z" fill="black"/>
<path d="M38.3537 30.6453C38.3499 30.6305 38.3499 30.6046 38.3462 30.564C37.449 30.4679 34.8884 30.4088 32.5109 32.3484C32.5109 32.3484 31.7445 28.8756 28.1559 28.8756C24.5672 28.8756 23.2364 32.3484 23.2364 32.3484C21.2252 30.2093 18.5337 30.3645 17.5618 30.5049C17.5618 30.527 17.5581 30.5529 17.5581 30.5751C17.5282 31.1108 17.5431 31.3657 17.6328 31.7019C17.9132 32.7548 18.7767 33.9149 20.1299 35.0528C22.3467 36.9148 25.3522 38.2596 27.6288 38.4148C30.0025 38.5737 33.5052 37.203 35.8379 35.2006C36.2042 34.8792 36.5481 34.5393 36.8696 34.1772C37.1014 33.9112 37.4453 33.4531 37.4191 33.4531C37.4116 33.4531 37.4191 33.4457 37.4341 33.4383C37.4453 33.4309 37.4565 33.4198 37.449 33.4125C37.4453 33.4088 37.4528 33.3977 37.464 33.394C37.4752 33.3903 37.4827 33.3829 37.4789 33.3755C37.4752 33.3681 37.4789 33.3607 37.4939 33.357C37.5051 33.3533 37.5088 33.3423 37.5051 33.3349C37.5014 33.3275 37.5051 33.3201 37.5126 33.3201C37.5201 33.3201 37.5275 33.309 37.5275 33.3016C37.5275 33.2942 37.535 33.2831 37.5425 33.2831C37.55 33.2831 37.5574 33.2758 37.5574 33.2684C37.5686 33.2388 37.5873 33.2093 37.606 33.1834C37.6621 33.0984 37.8864 32.7031 37.9163 32.6366C38.1294 32.16 38.264 31.7351 38.3275 31.3103C38.3499 31.1071 38.3686 30.7339 38.3537 30.6453ZM29.0082 35.1526C28.9371 35.1932 28.8885 35.2117 28.8773 35.2043C28.8661 35.2006 28.8138 35.1563 28.7577 35.1156L28.6568 35.0343L28.5521 35.1452C28.3241 35.389 28.3166 35.4001 28.2493 35.4038C28.1446 35.4149 28.1222 35.3964 27.9951 35.208C27.9278 35.1119 27.8755 35.0306 27.8755 35.0306C27.8755 35.0306 27.8269 35.0233 27.7708 35.0196L27.6662 35.0085L27.6176 35.1082L27.569 35.208L27.483 35.1821C27.4157 35.16 27.3484 35.1341 27.2849 35.1045L27.1727 35.0491V34.8385L28.1671 34.8422L29.1614 34.8459L29.1652 34.9457C29.1689 35.0639 29.1727 35.0602 29.0082 35.1526ZM30.8773 34.4876C30.8212 34.6981 30.7763 34.8681 30.7763 34.8755C30.7352 34.8792 30.6978 34.8829 30.6567 34.8792H30.5371L30.3764 35.2671C30.2866 35.4777 30.2044 35.6735 30.1932 35.703L30.1708 35.7548L30.0922 35.6292L30.0137 35.5035V34.4802L29.9838 34.4876C29.9203 34.5023 29.468 34.5614 29.2698 34.5799C28.4512 34.6612 27.6288 34.6427 26.8138 34.5282C26.683 34.5097 26.5709 34.4949 26.5671 34.4986C26.5634 34.5023 26.5671 34.7388 26.5746 35.0306L26.5858 35.5553L26.5223 35.6513C26.4886 35.703 26.455 35.7474 26.455 35.7511C26.4438 35.7622 26.4064 35.703 26.3204 35.5331C26.227 35.3558 26.1597 35.1673 26.1111 34.9715L26.0849 34.8644L25.969 34.8718L25.8531 34.8829L25.8232 34.7462C25.8083 34.6723 25.7896 34.5577 25.7821 34.4949L25.7709 34.3767L25.6737 34.2917C25.6176 34.2437 25.5616 34.1957 25.5503 34.1883C25.5316 34.1735 25.5242 34.1477 25.5242 34.1255V34.0812L25.9914 34.0849L26.4587 34.0885L26.4737 34.1366L26.4886 34.1846L26.6494 34.192C26.7391 34.1957 27.0232 34.2031 27.2774 34.2105L27.7447 34.2215L27.8643 34.0368L27.9876 33.8521H28.1446L28.1409 33.4679L28.1372 33.0836L27.9316 32.995C27.2699 32.7068 26.8811 32.378 26.7353 31.979C26.7054 31.8977 26.7054 31.8681 26.698 31.4987C26.6942 31.1329 26.6942 31.0997 26.7204 31.0184C26.7727 30.8337 26.9185 30.6896 27.1054 30.6416C27.169 30.6231 27.3372 30.6231 28.2194 30.6231L29.2586 30.6268L29.3745 30.6822C29.5128 30.7487 29.5764 30.7967 29.6549 30.9002C29.7446 31.0184 29.7708 31.1108 29.7708 31.3361C29.7708 31.6576 29.7483 31.9346 29.7147 32.0455C29.6661 32.197 29.5913 32.341 29.4979 32.4704C29.311 32.7068 28.9708 32.9432 28.6605 33.0504L28.5708 33.0836L28.5745 33.4716L28.5783 33.8595L28.6605 33.8669L28.7428 33.8743L28.8549 34.0405L28.9633 34.2068H29.4642C29.7409 34.2068 29.9838 34.2105 30.0063 34.2142C30.0437 34.2215 30.0511 34.2179 30.0885 34.155L30.1334 34.0885H30.5633C30.896 34.0885 30.9932 34.0922 30.9932 34.1033C30.9819 34.0996 30.9333 34.2807 30.8773 34.4876Z" fill="white"/>
<path d="M38.3238 30.2684C38.3163 30.1022 38.3013 29.8694 38.2901 29.7549C38.1294 28.0776 37.6957 26.7069 36.8733 25.255C36.8397 25.1995 36.8098 25.1441 36.7911 25.0998C36.7836 25.0887 36.7799 25.0776 36.7761 25.0702C36.892 24.7266 37.3668 23.2895 37.7443 21.6454C38.2565 19.4139 38.5817 16.8056 37.5873 16.0224C37.5873 16.0224 35.8678 15.8968 33.565 18.1283C32.9407 18.7452 32.3688 19.4139 31.8604 20.127L31.6997 20.0753C30.7726 19.776 29.8119 19.5913 28.8437 19.5285C28.5521 19.5063 27.4643 19.5063 27.1092 19.5285C26.0363 19.5987 25.2139 19.7575 24.2793 20.079C24.242 20.0937 24.2083 20.1048 24.1747 20.1159C23.6476 19.4066 23.0607 18.7415 22.414 18.1319C20.0178 15.8894 18.2347 16.0187 18.2347 16.0187C17.1805 16.8278 17.5394 19.5543 18.0851 21.8597C18.444 23.3855 18.8851 24.7266 19.0496 25.2106C19.0384 25.2365 19.0234 25.266 19.0085 25.2919C18.1375 27.0357 17.6665 28.7167 17.5543 30.5049C18.53 30.3645 21.2178 30.2056 23.2326 32.3484C23.2326 32.3484 24.5634 28.8756 28.1521 28.8756C31.7408 28.8756 32.5071 32.3484 32.5071 32.3484C34.8846 30.4088 37.4453 30.4716 38.3424 30.564C38.3387 30.4901 38.3312 30.3792 38.3238 30.2684ZM19.7561 23.8178C19.7561 23.8178 18.358 20.3634 18.7169 18.3906C18.7767 18.0581 18.8889 17.7662 19.0646 17.5445C19.0646 17.5445 20.6496 17.6997 23.2065 20.5075C23.2065 20.5075 22.7205 20.7403 22.0701 21.2353C22.0701 21.2353 22.0663 21.239 22.0626 21.239C21.3561 21.7747 20.4514 22.6245 19.7561 23.8178ZM25.6886 28.9495C25.6662 28.9938 25.5541 29.0418 25.427 29.0603C25.2999 29.0788 24.9111 29.0677 24.6905 29.0418C23.898 28.9384 23.057 28.6982 22.4439 28.4027C22.1 28.2364 21.8533 28.0702 21.6701 27.8891L21.5654 27.782L21.5542 27.6416C21.5355 27.3978 21.5392 27.0135 21.5691 26.8768C21.5878 26.7623 21.629 26.6515 21.685 26.5517C21.7149 26.5148 21.7149 26.5148 21.8495 26.5148C22.014 26.5148 22.1523 26.5406 22.3766 26.6108C22.8364 26.7512 23.5205 27.0911 24.3541 27.5862C25.0419 27.9926 25.2999 28.1921 25.498 28.4655C25.6326 28.6354 25.7223 28.8756 25.6886 28.9495ZM34.4958 27.7266C34.4846 27.7857 34.3089 27.963 34.1332 28.0923C33.6174 28.4655 32.694 28.8128 31.7557 28.979C31.2212 29.0751 30.6866 29.0899 30.5259 29.0123C30.4212 28.9605 30.4062 28.9199 30.4436 28.7869C30.5221 28.5098 30.7763 28.2069 31.1726 27.9224C31.3744 27.7783 32.1931 27.2869 32.5744 27.08C33.2024 26.7402 33.7108 26.537 34.0547 26.4889C34.1631 26.4741 34.294 26.4705 34.3351 26.4889C34.4024 26.5148 34.4771 26.7106 34.5071 26.947C34.522 27.0727 34.5145 27.6268 34.4958 27.7266ZM33.8753 21.2353L33.8678 21.2316C33.2398 20.7366 32.7688 20.5038 32.7688 20.5038C35.2397 17.696 36.7687 17.5408 36.7687 17.5408C36.9369 17.7662 37.0453 18.0544 37.1051 18.3869C37.4528 20.3597 36.1033 23.8178 36.1033 23.8178C35.5388 22.824 34.7799 21.9447 33.8753 21.2353Z" fill="#FFA409"/>
<path d="M37.1086 18.3869C36.817 18.35 35.4376 18.3426 33.8751 21.2354L33.8676 21.2317C33.2396 20.7366 32.7686 20.5039 32.7686 20.5039C35.2395 17.696 36.7684 17.5409 36.7684 17.5409C36.9404 17.7662 37.0488 18.0544 37.1086 18.3869Z" fill="#FF9300"/>
<path d="M36.1068 23.8178C35.5386 22.8203 34.7835 21.9447 33.8751 21.2354C35.4377 18.3426 36.8133 18.3499 37.1087 18.3869C37.4563 20.3634 36.1068 23.8178 36.1068 23.8178Z" fill="#FF8300"/>
<path d="M23.2063 20.5039C23.2063 20.5039 22.7204 20.7366 22.0699 21.2317C22.0699 21.2317 22.0662 21.2354 22.0624 21.2354C20.4438 18.3389 19.0195 18.35 18.713 18.3869C18.7728 18.0544 18.885 17.7625 19.0607 17.5409C19.0644 17.5409 20.6494 17.696 23.2063 20.5039Z" fill="#FF9300"/>
<path d="M22.0663 21.2354C21.356 21.7748 20.4514 22.6208 19.7561 23.8178C19.7561 23.8178 18.358 20.3634 18.7169 18.3869C19.0196 18.3499 20.4476 18.3426 22.0663 21.2354ZM18.7169 18.3869C18.6982 18.3906 18.6757 18.3943 18.657 18.398L18.7169 18.3869Z" fill="#FF8300"/>
<path d="M32.3238 25.7353C32.3238 25.7353 31.1276 25.8092 31.2771 24.8856C31.4266 23.9619 32.3612 23.8511 32.6229 23.888C32.8845 23.925 33.9312 24.2944 33.7443 25.0703C33.5574 25.8461 33.2957 25.6983 33.1462 25.7353C32.9967 25.7722 32.3238 25.7353 32.3238 25.7353ZM23.5016 25.7353C23.5016 25.7353 22.3054 25.8092 22.455 24.8856C22.6045 23.9619 23.539 23.8511 23.8007 23.888C24.0624 23.925 25.1091 24.2944 24.9222 25.0703C24.7353 25.8461 24.4736 25.6983 24.3241 25.7353C24.1745 25.7722 23.5016 25.7353 23.5016 25.7353Z" fill="white"/>
</g>
</g>
<defs>
<filter id="filter0_b_20657_8275" x="-12" y="-12" width="80" height="80" filterUnits="userSpaceOnUse" color-interpolation-filters="sRGB">
<feFlood flood-opacity="0" result="BackgroundImageFix"/>
<feGaussianBlur in="BackgroundImageFix" stdDeviation="6"/>
<feComposite in2="SourceAlpha" operator="in" result="effect1_backgroundBlur_20657_8275"/>
<feBlend mode="normal" in="SourceGraphic" in2="effect1_backgroundBlur_20657_8275" result="shape"/>
</filter>
<clipPath id="clip0_20657_8275">
<rect width="24" height="24" fill="white" transform="translate(16 16)"/>
</clipPath>
</defs>
</svg>
