<svg width="16" height="16" viewBox="0 0 16 16" fill="none" xmlns="http://www.w3.org/2000/svg">
<g clip-path="url(#clip0_14019_2940)">
<path fill-rule="evenodd" clip-rule="evenodd" d="M4.75 0C5.16421 0 5.5 0.335786 5.5 0.75V4.25C5.5 4.66421 5.16421 5 4.75 5C4.33579 5 4 4.66421 4 4.25V0.75C4 0.335786 4.33579 0 4.75 0Z" fill="white"/>
<path fill-rule="evenodd" clip-rule="evenodd" d="M11.25 0C11.6642 0 12 0.335786 12 0.75V4.25C12 4.66421 11.6642 5 11.25 5C10.8358 5 10.5 4.66421 10.5 4.25V0.75C10.5 0.335786 10.8358 0 11.25 0Z" fill="white"/>
<path fill-rule="evenodd" clip-rule="evenodd" d="M0 7C0 6.58579 0.335786 6.25 0.75 6.25H15.25C15.6642 6.25 16 6.58579 16 7C16 7.41421 15.6642 7.75 15.25 7.75H0.75C0.335786 7.75 0 7.41421 0 7Z" fill="white"/>
<path d="M16 11.5V10H14.5V11.5H16Z" fill="white"/>
<path d="M2.5 3.5H13.5C14.0523 3.5 14.5 3.94772 14.5 4.5V10H16V4.5C16 3.11929 14.8807 2 13.5 2H2.5C1.11929 2 0 3.11929 0 4.5V13.5C0 14.8807 1.11929 16 2.5 16H10V14.5H2.5C1.94772 14.5 1.5 14.0523 1.5 13.5V4.5C1.5 3.94772 1.94771 3.5 2.5 3.5Z" fill="white"/>
<path d="M10 16H11.5V14.5H10V16Z" fill="white"/>
<path d="M11.5 16C13.9853 16 16 13.9853 16 11.5H14.5C14.5 13.1569 13.1569 14.5 11.5 14.5V16Z" fill="white"/>
<path d="M10 14.5H11.5V12.5C11.5 11.9477 11.9477 11.5 12.5 11.5H14.5V10H12C10.8954 10 10 10.8954 10 12V14.5Z" fill="white"/>
</g>
<defs>
<clipPath id="clip0_14019_2940">
<rect width="16" height="16" fill="white"/>
</clipPath>
</defs>
</svg>
