<svg width="20" height="20" viewBox="0 0 20 20" fill="none" xmlns="http://www.w3.org/2000/svg">
<path d="M1.66797 13.334V15.834" stroke="white" stroke-width="1.5" stroke-linecap="round" stroke-linejoin="round"/>
<path d="M10 10.8327V5.83268C10 4.91221 10.7462 4.16602 11.6667 4.16602H15C15.9205 4.16602 16.6667 4.91221 16.6667 5.83268V7.49935" stroke="white" stroke-width="1.5" stroke-linecap="round" stroke-linejoin="round"/>
<path d="M9.9987 10.8327V5.83268C9.9987 4.91221 9.25253 4.16602 8.33203 4.16602H4.9987C4.07822 4.16602 3.33203 4.91221 3.33203 5.83268V7.49935" stroke="white" stroke-width="1.5" stroke-linecap="round" stroke-linejoin="round"/>
<path d="M16.668 7.5C15.7475 7.5 15.0013 8.24619 15.0013 9.16667V10.8333H5.0013V9.16667C5.0013 8.24619 4.25511 7.5 3.33464 7.5C2.41416 7.5 1.66797 8.24619 1.66797 9.16667V14.1667H18.3346V9.16667C18.3346 8.24619 17.5885 7.5 16.668 7.5Z" stroke="white" stroke-width="1.5" stroke-linecap="round" stroke-linejoin="round"/>
<path d="M18.332 13.334V15.834" stroke="white" stroke-width="1.5" stroke-linecap="round" stroke-linejoin="round"/>
</svg>
