<svg width="32" height="32" viewBox="0 0 32 32" fill="none" xmlns="http://www.w3.org/2000/svg">
<g clip-path="url(#clip0_20731_25890)">
<path d="M21.0313 16.0746C20.9066 16.1047 20.8258 16.0112 20.7323 15.9622C19.2319 15.1762 17.7313 14.3907 16.2363 13.5943C16.0527 13.4965 15.9164 13.5088 15.74 13.6027C14.2359 14.4032 12.727 15.1946 11.2194 15.9883C11.1308 16.0349 11.0402 16.0777 10.9088 16.1429C11.0389 15.3771 11.162 14.6469 11.2875 13.9171C11.4741 12.8327 11.6581 11.7477 11.8542 10.6651C11.8856 10.4915 11.8 10.4069 11.6967 10.3065C10.4928 9.13693 9.29063 7.96537 8.08829 6.79412C7.99501 6.70318 7.9036 6.61021 7.77188 6.47881C8.30891 6.39818 8.80188 6.32209 9.29532 6.25053C10.6047 6.061 11.9142 5.87271 13.2242 5.68646C13.3736 5.66521 13.4744 5.60975 13.5467 5.46178C14.3253 3.86771 15.1122 2.27787 15.8944 0.685684C15.9244 0.624746 16.0061 0.565215 15.9317 0.481934C15.9722 0.481934 16.0127 0.481934 16.0531 0.481934C15.9753 0.579277 16.0709 0.643652 16.1047 0.712402C16.8769 2.28615 17.6563 3.85631 18.4227 5.43287C18.5122 5.61693 18.6386 5.66959 18.818 5.69506C20.547 5.94021 22.2755 6.18959 24.0039 6.43912C24.0608 6.4474 24.1153 6.47115 24.0905 6.42646C23.4848 7.07615 22.8916 7.73803 22.2702 8.37225C21.6267 9.02912 20.9602 9.6635 20.2945 10.298C20.1552 10.4308 20.1133 10.5476 20.1481 10.7435C20.4488 12.4324 20.7356 14.1237 21.0225 15.8149C21.0369 15.8997 21.0795 15.9907 21.0272 16.0793L21.0313 16.0746Z" fill="#C2C2C2"/>
<path d="M31.5286 9.58325C30.3205 9.58325 29.1125 9.58325 27.8912 9.58325C27.8912 8.98497 27.8912 8.39419 27.8912 7.76294C29.1114 7.76294 30.32 7.76294 31.5286 7.76294C31.5286 8.36966 31.5286 8.97653 31.5286 9.58325Z" fill="#C2C2C2"/>
<path d="M28.7837 28.6016C28.7837 29.5792 28.7837 30.5377 28.7837 31.5183C20.2627 31.5183 11.7469 31.5183 3.21249 31.5183C3.21249 30.5544 3.21249 29.5887 3.21249 28.6016C11.7228 28.6016 20.2387 28.6016 28.7837 28.6016Z" fill="#C2C2C2"/>
<path d="M5.94907 26.6039C5.94907 25.6218 5.94907 24.6565 5.94907 23.6765C12.6488 23.6765 19.3359 23.6765 26.0364 23.6765C26.0364 24.656 26.0364 25.6214 26.0364 26.6039C19.343 26.6039 12.6638 26.6039 5.94907 26.6039Z" fill="#C2C2C2"/>
<path d="M8.69391 21.688C8.69391 20.7005 8.69391 19.7431 8.69391 18.765C13.5539 18.765 18.4091 18.765 23.2833 18.765C23.2833 19.7303 23.2833 20.7031 23.2833 21.688C18.4189 21.688 13.5709 21.688 8.69391 21.688Z" fill="#C2C2C2"/>
<path d="M3.84186 16.5858C3.43218 16.1822 3.0103 15.7664 2.60468 15.3667C3.44671 14.525 4.29436 13.6777 5.11639 12.856C5.51421 13.2538 5.93733 13.6769 6.34452 14.0841C5.53405 14.8944 4.68624 15.7417 3.84186 16.5858Z" fill="#C2C2C2"/>
<path d="M29.377 15.3783C28.9747 15.7751 28.5533 16.1909 28.1508 16.588C27.3092 15.7465 26.4559 14.8936 25.6092 14.047C26.0093 13.6486 26.429 13.2308 26.8301 12.8315C27.6733 13.6748 28.5268 14.5283 29.377 15.3783Z" fill="#C2C2C2"/>
<path d="M4.09281 7.79126C4.09281 8.39735 4.09281 8.98829 4.09281 9.59032C2.88093 9.59032 1.68359 9.59032 0.471558 9.59032C0.471558 8.99298 0.471558 8.40126 0.471558 7.79126C1.66921 7.79126 2.86562 7.79126 4.09281 7.79126Z" fill="#C2C2C2"/>
<path d="M2.625 2.017C3.0125 1.62872 3.43141 1.20872 3.82938 0.809814C4.66094 1.64185 5.51422 2.49544 6.35297 3.33466C5.96688 3.72169 5.54813 4.14153 5.14547 4.54528C4.31656 3.71388 3.46328 2.85794 2.625 2.017Z" fill="#C2C2C2"/>
<path d="M26.8152 4.55885C26.4177 4.16541 26.0022 3.75416 25.611 3.36697C26.4639 2.51432 27.3156 1.66291 28.1483 0.830566C28.5305 1.21432 28.9478 1.63338 29.3433 2.03057C28.5258 2.84822 27.6728 3.70119 26.8152 4.55885Z" fill="#C2C2C2"/>
<path d="M21.0274 16.0789C21.0485 16.0575 21.063 16.0613 21.0664 16.0909C21.0672 16.0977 21.0556 16.1123 21.0495 16.1123C21.0203 16.1127 21.0141 16.0983 21.0313 16.0744C21.0313 16.0745 21.0274 16.0789 21.0274 16.0789Z" fill="#C2C2C2"/>
</g>
<defs>
<clipPath id="clip0_20731_25890">
<rect width="32" height="32" fill="white"/>
</clipPath>
</defs>
</svg>
