<svg width="20" height="20" viewBox="0 0 20 20" fill="none" xmlns="http://www.w3.org/2000/svg">
<path d="M9.39271 3.67531C9.58562 3.24249 9.68213 3.02608 9.81646 2.95944C9.93313 2.90154 10.0701 2.90154 10.1868 2.95944C10.3211 3.02608 10.4176 3.24249 10.6105 3.67531L12.1472 7.12275C12.2043 7.2507 12.2328 7.31467 12.277 7.36367C12.316 7.40702 12.3637 7.44169 12.417 7.46542C12.4772 7.49226 12.5469 7.49961 12.6862 7.51431L16.4398 7.91048C16.911 7.96022 17.1466 7.98508 17.2515 8.09224C17.3426 8.18532 17.385 8.31565 17.366 8.44452C17.3441 8.59285 17.1681 8.75143 16.8161 9.06868L14.0122 11.5955C13.9082 11.6893 13.8561 11.7362 13.8232 11.7933C13.794 11.8438 13.7758 11.8999 13.7697 11.9579C13.7628 12.0235 13.7773 12.092 13.8064 12.2291L14.5895 15.9213C14.6879 16.3849 14.737 16.6167 14.6675 16.7495C14.6071 16.865 14.4963 16.9455 14.3679 16.9673C14.22 16.9923 14.0148 16.8739 13.6043 16.6372L10.3347 14.7513C10.2134 14.6813 10.1527 14.6464 10.0882 14.6327C10.0311 14.6206 9.97212 14.6206 9.91504 14.6327C9.85054 14.6464 9.78987 14.6813 9.66854 14.7513L6.39897 16.6372C5.98849 16.8739 5.78325 16.9923 5.63541 16.9673C5.50698 16.9455 5.39612 16.865 5.33575 16.7495C5.26626 16.6167 5.31542 16.3849 5.41374 15.9213L6.19687 12.2291C6.22594 12.092 6.24047 12.0235 6.23357 11.9579C6.22747 11.8999 6.20924 11.8438 6.18007 11.7933C6.14712 11.7362 6.09508 11.6893 5.99102 11.5955L3.18717 9.06868C2.83517 8.75143 2.65916 8.59285 2.63727 8.44452C2.61827 8.31565 2.66062 8.18532 2.75173 8.09224C2.85663 7.98508 3.09226 7.96022 3.56351 7.91048L7.31708 7.51431C7.4564 7.49961 7.52605 7.49226 7.58628 7.46542C7.63957 7.44169 7.68729 7.40702 7.72634 7.36367C7.77047 7.31467 7.79898 7.2507 7.85602 7.12275L9.39271 3.67531Z" stroke="#4F4F4F" stroke-width="1.5" stroke-linecap="round" stroke-linejoin="round"/>
</svg>
