<svg width="10" height="11" viewBox="0 0 10 11" fill="none" xmlns="http://www.w3.org/2000/svg">
<path fill-rule="evenodd" clip-rule="evenodd" d="M0 5.5C0 2.72973 2.22973 0.5 5 0.5C7.77027 0.5 10 2.7973 10 5.56757V10.5H5C2.22973 10.5 0 8.27027 0 5.5ZM3.49702 4.69271C3.00391 4.69271 2.60417 5.10078 2.60417 5.60417V7.60938C2.60417 8.11276 3.00391 8.52083 3.49702 8.52083H6.71131C7.20442 8.52083 7.60417 8.11276 7.60417 7.60938V5.60417C7.60417 5.10078 7.20442 4.69271 6.71131 4.69271H6.53274V4.14583C6.53274 3.34042 5.89315 2.6875 5.10417 2.6875C4.31519 2.6875 3.6756 3.34042 3.6756 4.14583V4.69271H3.49702ZM3.49702 5.23958H6.71131C6.90856 5.23958 7.06845 5.40281 7.06845 5.60417V7.60938C7.06845 7.81073 6.90856 7.97396 6.71131 7.97396H3.49702C3.29978 7.97396 3.13988 7.81073 3.13988 7.60938V5.60417C3.13988 5.40281 3.29978 5.23958 3.49702 5.23958ZM5.10417 3.23438C5.59728 3.23438 5.99702 3.64245 5.99702 4.14583V4.69271H4.21131V4.14583C4.21131 3.64245 4.61106 3.23438 5.10417 3.23438Z" fill="#808080"/>
</svg>
