<svg xmlns="http://www.w3.org/2000/svg" width="16" height="16" viewBox="0 0 16 16" fill="none">
  <path d="M12.4 2H3.6C2.71635 2 2 2.71635 2 3.6V12.4C2 13.2837 2.71635 14 3.6 14H12.4C13.2837 14 14 13.2837 14 12.4V3.6C14 2.71635 13.2837 2 12.4 2Z" stroke="#2BCFA1" stroke-miterlimit="10" stroke-linecap="round" stroke-linejoin="round"/>
  <path d="M9.33325 8.99996L11.3333 6.66663M9.61897 10.1666C9.61897 10.811 9.10731 11.3333 8.47611 11.3333C7.84491 11.3333 7.33325 10.811 7.33325 10.1666C7.33325 9.52228 7.84491 8.99996 8.47611 8.99996C9.10731 8.99996 9.61897 9.52228 9.61897 10.1666Z" stroke="#2BCFA1" stroke-linecap="round"/>
  <path d="M4.66675 7.99996C4.66675 6.15901 6.25862 4.66663 8.2223 4.66663C8.86995 4.66663 9.47712 4.82895 10.0001 5.11256" stroke="#2BCFA1" stroke-linecap="round"/>
</svg>