<svg width="20" height="20" viewBox="0 0 20 20" fill="none" xmlns="http://www.w3.org/2000/svg">
<path d="M0.898667 13.2647C0.955816 13.4805 1.15092 13.6301 1.37416 13.6301H3.11438C3.42351 13.9668 4.16751 14.7287 5.15278 15.4168C6.16955 16.127 7.45537 16.7673 8.7922 16.7673C10.7563 16.7673 12.3828 15.6662 13.9267 14.6211L13.9423 14.6106L13.9424 14.6105L13.9813 14.5842C14.2815 14.3813 14.5761 14.1821 14.8684 13.9948C15.1543 14.2793 15.6479 14.7494 16.1789 15.1599C16.4629 15.3794 16.7597 15.5837 17.0428 15.7335C17.3236 15.8821 17.6015 15.983 17.8447 15.983C18.4518 15.983 18.8713 15.6053 19.1338 15.1705C19.3953 14.7373 19.5134 14.2293 19.5134 13.9222C19.5134 13.0654 19.1851 12.3854 18.6232 12.0624L15.1268 9.69058L13.9042 5.71635C13.6515 4.8948 13.0507 4.23774 12.2556 3.9158C11.4877 3.60438 10.27 3.23398 8.82514 3.23398C7.88664 3.23398 6.97033 3.33611 6.11441 3.5137C6.11018 3.51387 6.10438 3.5143 6.09811 3.51535L6.07694 3.51887L6.0722 3.52203C4.44854 3.86508 3.04353 4.49731 2.20227 5.33857L2.20225 5.33859C1.0156 6.52604 0.489844 7.96939 0.489844 10.0007C0.489844 11.7116 0.881097 13.1986 0.898667 13.2647ZM0.898667 13.2647L0.995334 13.2391M0.898667 13.2647C0.898675 13.2647 0.898682 13.2647 0.89869 13.2648L0.995334 13.2391M0.995334 13.2391C1.04082 13.4108 1.19612 13.5301 1.37416 13.5301H3.15847M0.995334 13.2391C0.978863 13.1771 0.589844 11.6995 0.589844 10.0007C0.589844 7.98967 1.10906 6.57398 2.27298 5.40928L3.15847 13.5301M3.15847 13.5301C3.73102 14.1599 6.17886 16.6673 8.7922 16.6673C10.7256 16.6673 12.33 15.5812 13.8826 14.5302L13.8863 14.5277L13.9257 14.5011C14.2486 14.2828 14.5666 14.0678 14.8824 13.8673L3.15847 13.5301ZM2.89896 6.03531L2.89899 6.03528C3.05472 5.87955 3.24188 5.73177 3.45283 5.59132C3.43641 5.6214 3.42025 5.65192 3.40438 5.68289C2.58555 7.2808 2.66471 9.53749 3.58773 12.3636C3.42464 12.4581 3.28464 12.5523 3.16646 12.6457H1.76555C1.65464 12.1207 1.47416 11.0989 1.47416 10.0007C1.47416 8.23412 1.91677 7.01673 2.89896 6.03531ZM12.9633 6.00569L12.9633 6.00574L14.0504 9.53943C12.8576 9.63652 11.1001 9.95954 9.32986 10.3915C7.54498 10.8271 5.73917 11.3754 4.47862 11.9189C3.67042 9.38412 3.60885 7.441 4.28038 6.13102C4.79431 5.12969 5.66318 4.67957 6.32372 4.47645C7.11535 4.31284 7.9642 4.2183 8.82514 4.2183C10.1103 4.2183 11.1984 4.54978 11.8856 4.82744C12.4043 5.03808 12.798 5.46735 12.9633 6.00569ZM13.391 13.7955L13.391 13.7955C11.9297 14.7857 10.4508 15.783 8.79298 15.783C7.78912 15.783 6.77499 15.313 5.9131 14.7393C5.11809 14.2101 4.46257 13.5994 4.07825 13.2108C4.5012 12.9699 5.16333 12.6945 5.96753 12.4129C6.84174 12.1067 7.87718 11.7955 8.94158 11.5153C11.056 10.9586 13.2732 10.5275 14.5647 10.4981L16.7763 11.9997C15.6044 12.2962 14.5162 13.0333 13.399 13.7901L13.391 13.7955ZM18.1598 12.9369L18.1598 12.9369L18.162 12.9384C18.1627 12.9388 18.175 12.9471 18.1861 12.9538C18.3019 13.0418 18.3879 13.1802 18.4452 13.3515C18.503 13.5245 18.5291 13.7243 18.5291 13.9222C18.5291 14.0488 18.4654 14.3272 18.338 14.5743C18.275 14.6967 18.1994 14.805 18.1142 14.8816C18.0297 14.9576 17.9401 14.9987 17.8447 14.9987C17.7792 14.9987 17.6634 14.9594 17.4999 14.8698C17.3414 14.7829 17.153 14.6574 16.9477 14.5046C16.5688 14.2227 16.1387 13.8526 15.7439 13.4743C16.4524 13.095 17.1447 12.8457 17.8447 12.8457C17.9562 12.8457 18.0495 12.8716 18.1271 12.9149L18.1598 12.9369Z" fill="white" stroke="white" stroke-width="0.2"/>
</svg>
