<svg width="24" height="24" viewBox="0 0 24 24" fill="none" xmlns="http://www.w3.org/2000/svg">
<path d="M17.819 16.2892L23.5117 13.042C23.8135 12.8695 24 12.5496 24 12.2063V5.71172C24 5.3684 23.8135 5.04853 23.5117 4.87603L17.819 1.62874C17.5172 1.45625 17.1426 1.45792 16.8425 1.62874L11.1498 4.87603C10.8481 5.04853 10.6616 5.3684 10.6616 5.71172V17.3175L6.6692 19.5935L2.67684 17.3175V12.764L6.6692 10.4881L9.302 11.9902V8.93555L7.15741 7.71134C7.00991 7.62761 6.84047 7.58239 6.6692 7.58239C6.49794 7.58239 6.32849 7.62761 6.181 7.71134L0.488243 10.9586C0.186484 11.1311 0 11.451 0 11.7943V18.2889C0 18.6322 0.186484 18.9521 0.488243 19.1246L6.181 22.3719C6.4827 22.5427 6.85571 22.5427 7.15741 22.3719L12.8502 19.1246C13.152 18.9521 13.3384 18.6322 13.3384 18.2889V6.68139L13.4096 6.64119L17.3291 4.40544L21.3215 6.68139V11.235L17.3291 13.5109L14.6997 12.012V15.0668L16.8408 16.2876C17.1426 16.4584 17.5172 16.4584 17.8173 16.2876L17.819 16.2892Z" fill="white"/>
</svg>
