<svg width="59" height="59" viewBox="0 0 59 59" fill="none" xmlns="http://www.w3.org/2000/svg">
<rect x="12.4238" width="48" height="48" rx="8" transform="rotate(15 12.4238 0)" fill="white"/>
<g filter="url(#filter0_b_28817_6302)">
<rect x="1" y="10" width="48" height="48" rx="8" fill="black" fill-opacity="0.75"/>
<rect x="1.5" y="10.5" width="47" height="47" rx="7.5" stroke="white"/>
<path d="M34 37V38.2C34 39.8802 34 40.7202 33.673 41.362C33.3854 41.9265 32.9265 42.3854 32.362 42.673C31.7202 43 30.8802 43 29.2 43H20.8C19.1198 43 18.2798 43 17.638 42.673C17.0735 42.3854 16.6146 41.9265 16.327 41.362C16 40.7202 16 39.8802 16 38.2V37M30 32L25 37M25 37L20 32M25 37V25" stroke="white" stroke-width="2" stroke-linecap="round" stroke-linejoin="round"/>
</g>
<defs>
<filter id="filter0_b_28817_6302" x="-15" y="-6" width="80" height="80" filterUnits="userSpaceOnUse" color-interpolation-filters="sRGB">
<feFlood flood-opacity="0" result="BackgroundImageFix"/>
<feGaussianBlur in="BackgroundImageFix" stdDeviation="8"/>
<feComposite in2="SourceAlpha" operator="in" result="effect1_backgroundBlur_28817_6302"/>
<feBlend mode="normal" in="SourceGraphic" in2="effect1_backgroundBlur_28817_6302" result="shape"/>
</filter>
</defs>
</svg>
