<svg width="12" height="12" viewBox="0 0 12 12" fill="none" xmlns="http://www.w3.org/2000/svg">
<g clip-path="url(#clip0_3380_15699)">
<path fill-rule="evenodd" clip-rule="evenodd" d="M5.4 9.1875V5.1C5.4 4.76863 5.66863 4.5 6 4.5C6.33137 4.5 6.6 4.76863 6.6 5.1V9.1875C6.6 9.51887 6.33137 9.7875 6 9.7875C5.66863 9.7875 5.4 9.51887 5.4 9.1875Z" fill="#C2C2C2"/>
<path fill-rule="evenodd" clip-rule="evenodd" d="M6 10.875C8.69239 10.875 10.875 8.69239 10.875 6C10.875 3.30761 8.69239 1.125 6 1.125C3.30761 1.125 1.125 3.30761 1.125 6C1.125 8.69239 3.30761 10.875 6 10.875ZM6 12C9.31371 12 12 9.31371 12 6C12 2.68629 9.31371 0 6 0C2.68629 0 0 2.68629 0 6C0 9.31371 2.68629 12 6 12Z" fill="#C2C2C2"/>
<path d="M6.75 3C6.75 3.41421 6.41421 3.75 6 3.75C5.58579 3.75 5.25 3.41421 5.25 3C5.25 2.58579 5.58579 2.25 6 2.25C6.41421 2.25 6.75 2.58579 6.75 3Z" fill="#C2C2C2"/>
</g>
<defs>
<clipPath id="clip0_3380_15699">
<rect width="12" height="12" fill="white"/>
</clipPath>
</defs>
</svg>
