<svg width="12" height="12" viewBox="0 0 12 12" fill="none" xmlns="http://www.w3.org/2000/svg">
<path d="M6.00009 2.8237C5.15764 2.8237 4.34969 3.15837 3.75399 3.75407C3.15828 4.34977 2.82362 5.15772 2.82362 6.00017C2.82362 6.84263 3.15828 7.65057 3.75399 8.24628C4.34969 8.84198 5.15764 9.17664 6.00009 9.17664C6.84254 9.17664 7.65049 8.84198 8.24619 8.24628C8.8419 7.65057 9.17656 6.84263 9.17656 6.00017C9.17656 5.15772 8.8419 4.34977 8.24619 3.75407C7.65049 3.15837 6.84254 2.8237 6.00009 2.8237ZM6.00009 8.06309C5.45279 8.06309 4.9279 7.84568 4.5409 7.45868C4.1539 7.07167 3.93648 6.54679 3.93648 5.99949C3.93648 5.45218 4.1539 4.9273 4.5409 4.5403C4.9279 4.15329 5.45279 3.93588 6.00009 3.93588C6.54739 3.93588 7.07228 4.15329 7.45928 4.5403C7.84628 4.9273 8.0637 5.45218 8.0637 5.99949C8.0637 6.54679 7.84628 7.07167 7.45928 7.45868C7.07228 7.84568 6.54739 8.06309 6.00009 8.06309Z" fill="#808080"/>
<path d="M9.17645 3.52976C9.5663 3.52976 9.88233 3.21372 9.88233 2.82387C9.88233 2.43403 9.5663 2.11799 9.17645 2.11799C8.7866 2.11799 8.47057 2.43403 8.47057 2.82387C8.47057 3.21372 8.7866 3.52976 9.17645 3.52976Z" fill="#808080"/>
<path d="M11.6821 2.06653C11.5279 1.66878 11.2921 1.30757 10.99 1.00603C10.6879 0.704481 10.326 0.469242 9.92759 0.315369C9.46135 0.140623 8.9688 0.0461351 8.4709 0.0359281C7.82919 0.00798397 7.62594 0 5.99867 0C4.37139 0 4.16282 -6.69357e-08 3.52643 0.0359281C3.02891 0.0456133 2.53671 0.140121 2.07108 0.315369C1.67255 0.469063 1.31059 0.704238 1.00844 1.00581C0.706289 1.30738 0.47061 1.66868 0.316526 2.06653C0.141474 2.53201 0.0470554 3.02384 0.0373167 3.52096C0.00866281 4.16101 0 4.36394 0 5.98936C0 7.61411 -3.43073e-09 7.82102 0.0373167 8.45775C0.0473123 8.95542 0.14127 9.44644 0.316526 9.91284C0.471042 10.3106 0.70695 10.6717 1.00918 10.9732C1.3114 11.2748 1.6733 11.51 2.07175 11.664C2.53649 11.8458 3.0289 11.947 3.52777 11.9634C4.16948 11.9914 4.37272 12 6 12C7.62728 12 7.83585 12 8.47223 11.9634C8.97008 11.9533 9.46262 11.859 9.92892 11.6846C10.3272 11.5304 10.689 11.295 10.9911 10.9933C11.2932 10.6917 11.529 10.3305 11.6835 9.9328C11.8587 9.46707 11.9527 8.97605 11.9627 8.47838C11.9913 7.83832 12 7.6354 12 6.00998C12 4.38456 12 4.17831 11.9627 3.54158C11.9549 3.03744 11.86 2.53842 11.6821 2.06653ZM10.8705 8.40852C10.8662 8.79195 10.7961 9.17181 10.6633 9.5316C10.5632 9.79033 10.41 10.0253 10.2135 10.2213C10.017 10.4174 9.78162 10.5702 9.52243 10.67C9.16608 10.802 8.78967 10.872 8.4096 10.8769C7.77654 10.9062 7.59796 10.9135 5.97468 10.9135C4.35007 10.9135 4.18414 10.9135 3.53909 10.8769C3.15921 10.8723 2.78298 10.8023 2.42692 10.67C2.16683 10.5708 1.93048 10.4183 1.73316 10.2222C1.53584 10.0261 1.38194 9.79083 1.28143 9.5316C1.15045 9.17568 1.08039 8.80029 1.07419 8.42116C1.04554 7.78909 1.03887 7.61078 1.03887 5.99002C1.03887 4.3686 1.03887 4.20293 1.07419 3.55822C1.0785 3.175 1.14859 2.79536 1.28143 2.4358C1.48467 1.91085 1.90116 1.49767 2.42692 1.29674C2.78316 1.1651 3.15928 1.09512 3.53909 1.08982C4.17281 1.06121 4.35073 1.05323 5.97468 1.05323C7.59862 1.05323 7.76521 1.05323 8.4096 1.08982C8.7897 1.09439 9.16617 1.16439 9.52243 1.29674C9.7816 1.39672 10.017 1.5497 10.2134 1.74586C10.4099 1.94202 10.5631 2.17703 10.6633 2.4358C10.7942 2.79172 10.8643 3.16711 10.8705 3.54624C10.8992 4.17898 10.9065 4.35662 10.9065 5.97804C10.9065 7.5988 10.9065 7.77312 10.8778 8.40918H10.8705V8.40852Z" fill="#808080"/>
</svg>
