<svg width="20" height="20" viewBox="0 0 20 20" fill="none" xmlns="http://www.w3.org/2000/svg">
<mask id="path-1-outside-1_28519_38174" maskUnits="userSpaceOnUse" x="0.929688" y="1.24414" width="18" height="17" fill="black">
<rect fill="white" x="0.929688" y="1.24414" width="18" height="17"/>
<path d="M6.43919 16.5857C5.63235 15.6759 5.4146 14.7246 5.61552 13.5404C5.66048 13.2755 5.71077 13.0115 5.79344 12.7555C5.15669 12.7573 4.89206 12.5503 5.20627 11.9051C5.59027 11.1167 5.87814 10.2438 5.9396 9.36381L5.94281 7.96723C5.91139 7.4566 5.82827 6.94519 5.69931 6.45031C5.64406 6.50119 5.5956 6.56035 5.54335 6.61452L3.94316 8.20273C3.57408 8.55702 3.44711 8.42823 3.0365 8.17298L2.54361 7.86977C2.35008 7.75381 1.85227 7.57227 1.93994 7.27239L1.94769 7.24694C1.96834 7.17981 2.01011 7.12256 2.04359 7.06135L4.08211 3.73691C4.50714 3.03593 4.8631 2.52353 5.74506 2.32013C6.14589 2.22769 7.07089 2.20714 7.46419 2.32898C7.80964 2.43599 8.09727 2.65163 8.26635 2.97601C8.93381 4.25656 10.7497 4.46981 11.5672 3.25288C11.6909 3.06882 11.7757 2.86372 11.9295 2.70099C12.2479 2.36413 12.6358 2.26808 13.0754 2.25167C13.3454 2.25255 13.6261 2.23712 13.8947 2.25872C14.5462 2.31111 15.2109 2.6805 15.5949 3.21349C15.7408 3.41597 15.8608 3.63568 15.9891 3.84943L17.9794 7.09039C18.0085 7.14064 18.0409 7.19298 18.0492 7.25131L18.058 7.32023C18.0713 7.5181 17.9207 7.5871 17.7815 7.67835L17.0371 8.12623C16.6321 8.36577 16.5169 8.59415 16.1196 8.22256L14.2691 6.43131C13.9129 7.5651 13.9555 9.33119 14.2588 10.494L14.3678 10.8651C14.392 10.9561 14.4321 11.0429 14.4591 11.133L14.7814 11.9236C14.8817 12.1491 14.9978 12.3485 14.8114 12.5694C14.666 12.7419 14.4339 12.7565 14.2251 12.7691L14.3798 13.3782C14.4655 13.6715 14.4882 14.1438 14.4759 14.4521C14.4106 16.0769 13.0111 17.5506 11.3982 17.7297C10.6914 17.8081 10.1205 17.5317 9.33448 17.66C9.21214 17.68 9.09039 17.7151 8.96814 17.7308C8.0856 17.8446 7.00952 17.2056 6.43919 16.5857ZM6.26789 2.9221C5.39714 2.96591 5.08035 3.36072 4.67548 4.02125L2.73043 7.19989L3.51187 7.68252L5.49889 5.69902C5.56294 5.63256 5.62056 5.55502 5.69435 5.4996L5.70556 5.49106C5.84273 5.3884 6.07223 5.44119 6.16289 5.58335C6.2496 5.71939 6.26169 5.92148 6.30552 6.07585L6.42189 6.61723C6.45685 6.75156 6.46777 6.89848 6.48748 7.03614L6.54364 7.4666L6.59135 8.84923C6.59131 9.05627 6.6001 9.26819 6.58206 9.47452L6.41077 10.5441C6.38573 10.6764 6.33939 10.8116 6.29894 10.9402L5.89335 11.9863C5.87223 12.0327 5.83939 12.0852 5.83135 12.1351L13.9316 12.1314C14.0032 12.1314 14.0876 12.1395 14.1576 12.1268L14.1477 12.1104C14.1009 12.0315 14.067 11.9319 14.0312 11.8468L13.7512 11.1206C13.5916 10.6699 13.4756 10.1717 13.4122 9.69806L13.3635 9.17165C13.3347 8.81885 13.3201 8.45173 13.3406 8.09764L13.394 7.54464C13.4589 6.90944 13.5785 6.25956 13.8006 5.6586C13.8975 5.39648 14.1918 5.3791 14.3734 5.55331C14.5149 5.6891 14.6388 5.84794 14.7749 5.98973L15.9445 7.14364C16.1243 7.31544 16.3016 7.50615 16.4941 7.6624L17.2624 7.21539L15.3814 4.12189C15.2569 3.9149 15.1466 3.68468 14.982 3.50587C14.474 2.95384 13.9976 2.92007 13.3238 2.9205C12.6448 2.92091 12.5537 2.92945 12.1729 3.53433C11.1756 5.11844 8.69148 5.10635 7.77719 3.46398C7.50869 2.98165 7.33606 2.92075 6.75469 2.92087L6.26789 2.9221ZM6.47756 12.8074C6.43244 12.8908 6.38735 13.0823 6.37481 13.1844C6.47894 13.2549 6.60552 13.3006 6.71923 13.3544C7.70448 13.8207 8.53881 14.7803 8.83577 15.826C8.92589 16.1433 9.0006 16.4574 9.01269 16.7896L9.02181 17.0492C9.40348 16.9854 9.78089 16.9166 10.1704 16.9618C10.4566 16.9951 10.7333 17.0756 11.0244 17.0698C11.0269 16.3435 11.1421 15.7173 11.4927 15.0634C11.894 14.3831 12.4254 13.8486 13.1185 13.4599L13.3962 13.3165C13.4805 13.2774 13.5711 13.2444 13.6524 13.1999L13.5412 12.808L6.47756 12.8074ZM6.23723 13.8631C6.16648 14.2137 6.17627 14.7626 6.30589 15.0882L6.42185 15.3852C6.74194 16.0815 7.34952 16.6329 8.06435 16.9066L8.33831 17.0076L8.3621 17.0058C8.31206 15.746 7.70448 14.646 6.57323 14.0244C6.46414 13.9644 6.34877 13.9179 6.23723 13.8631ZM13.7763 13.8826C12.9891 14.1808 12.2926 14.8527 11.9576 15.6093C11.7889 15.9902 11.6374 16.5735 11.6644 17.0006C11.6815 17.0037 11.6889 17.0028 11.7051 16.9962C13.1639 16.4793 13.9055 15.4113 13.7992 13.8821L13.7763 13.8826Z"/>
</mask>
<path d="M6.43919 16.5857C5.63235 15.6759 5.4146 14.7246 5.61552 13.5404C5.66048 13.2755 5.71077 13.0115 5.79344 12.7555C5.15669 12.7573 4.89206 12.5503 5.20627 11.9051C5.59027 11.1167 5.87814 10.2438 5.9396 9.36381L5.94281 7.96723C5.91139 7.4566 5.82827 6.94519 5.69931 6.45031C5.64406 6.50119 5.5956 6.56035 5.54335 6.61452L3.94316 8.20273C3.57408 8.55702 3.44711 8.42823 3.0365 8.17298L2.54361 7.86977C2.35008 7.75381 1.85227 7.57227 1.93994 7.27239L1.94769 7.24694C1.96834 7.17981 2.01011 7.12256 2.04359 7.06135L4.08211 3.73691C4.50714 3.03593 4.8631 2.52353 5.74506 2.32013C6.14589 2.22769 7.07089 2.20714 7.46419 2.32898C7.80964 2.43599 8.09727 2.65163 8.26635 2.97601C8.93381 4.25656 10.7497 4.46981 11.5672 3.25288C11.6909 3.06882 11.7757 2.86372 11.9295 2.70099C12.2479 2.36413 12.6358 2.26808 13.0754 2.25167C13.3454 2.25255 13.6261 2.23712 13.8947 2.25872C14.5462 2.31111 15.2109 2.6805 15.5949 3.21349C15.7408 3.41597 15.8608 3.63568 15.9891 3.84943L17.9794 7.09039C18.0085 7.14064 18.0409 7.19298 18.0492 7.25131L18.058 7.32023C18.0713 7.5181 17.9207 7.5871 17.7815 7.67835L17.0371 8.12623C16.6321 8.36577 16.5169 8.59415 16.1196 8.22256L14.2691 6.43131C13.9129 7.5651 13.9555 9.33119 14.2588 10.494L14.3678 10.8651C14.392 10.9561 14.4321 11.0429 14.4591 11.133L14.7814 11.9236C14.8817 12.1491 14.9978 12.3485 14.8114 12.5694C14.666 12.7419 14.4339 12.7565 14.2251 12.7691L14.3798 13.3782C14.4655 13.6715 14.4882 14.1438 14.4759 14.4521C14.4106 16.0769 13.0111 17.5506 11.3982 17.7297C10.6914 17.8081 10.1205 17.5317 9.33448 17.66C9.21214 17.68 9.09039 17.7151 8.96814 17.7308C8.0856 17.8446 7.00952 17.2056 6.43919 16.5857ZM6.26789 2.9221C5.39714 2.96591 5.08035 3.36072 4.67548 4.02125L2.73043 7.19989L3.51187 7.68252L5.49889 5.69902C5.56294 5.63256 5.62056 5.55502 5.69435 5.4996L5.70556 5.49106C5.84273 5.3884 6.07223 5.44119 6.16289 5.58335C6.2496 5.71939 6.26169 5.92148 6.30552 6.07585L6.42189 6.61723C6.45685 6.75156 6.46777 6.89848 6.48748 7.03614L6.54364 7.4666L6.59135 8.84923C6.59131 9.05627 6.6001 9.26819 6.58206 9.47452L6.41077 10.5441C6.38573 10.6764 6.33939 10.8116 6.29894 10.9402L5.89335 11.9863C5.87223 12.0327 5.83939 12.0852 5.83135 12.1351L13.9316 12.1314C14.0032 12.1314 14.0876 12.1395 14.1576 12.1268L14.1477 12.1104C14.1009 12.0315 14.067 11.9319 14.0312 11.8468L13.7512 11.1206C13.5916 10.6699 13.4756 10.1717 13.4122 9.69806L13.3635 9.17165C13.3347 8.81885 13.3201 8.45173 13.3406 8.09764L13.394 7.54464C13.4589 6.90944 13.5785 6.25956 13.8006 5.6586C13.8975 5.39648 14.1918 5.3791 14.3734 5.55331C14.5149 5.6891 14.6388 5.84794 14.7749 5.98973L15.9445 7.14364C16.1243 7.31544 16.3016 7.50615 16.4941 7.6624L17.2624 7.21539L15.3814 4.12189C15.2569 3.9149 15.1466 3.68468 14.982 3.50587C14.474 2.95384 13.9976 2.92007 13.3238 2.9205C12.6448 2.92091 12.5537 2.92945 12.1729 3.53433C11.1756 5.11844 8.69148 5.10635 7.77719 3.46398C7.50869 2.98165 7.33606 2.92075 6.75469 2.92087L6.26789 2.9221ZM6.47756 12.8074C6.43244 12.8908 6.38735 13.0823 6.37481 13.1844C6.47894 13.2549 6.60552 13.3006 6.71923 13.3544C7.70448 13.8207 8.53881 14.7803 8.83577 15.826C8.92589 16.1433 9.0006 16.4574 9.01269 16.7896L9.02181 17.0492C9.40348 16.9854 9.78089 16.9166 10.1704 16.9618C10.4566 16.9951 10.7333 17.0756 11.0244 17.0698C11.0269 16.3435 11.1421 15.7173 11.4927 15.0634C11.894 14.3831 12.4254 13.8486 13.1185 13.4599L13.3962 13.3165C13.4805 13.2774 13.5711 13.2444 13.6524 13.1999L13.5412 12.808L6.47756 12.8074ZM6.23723 13.8631C6.16648 14.2137 6.17627 14.7626 6.30589 15.0882L6.42185 15.3852C6.74194 16.0815 7.34952 16.6329 8.06435 16.9066L8.33831 17.0076L8.3621 17.0058C8.31206 15.746 7.70448 14.646 6.57323 14.0244C6.46414 13.9644 6.34877 13.9179 6.23723 13.8631ZM13.7763 13.8826C12.9891 14.1808 12.2926 14.8527 11.9576 15.6093C11.7889 15.9902 11.6374 16.5735 11.6644 17.0006C11.6815 17.0037 11.6889 17.0028 11.7051 16.9962C13.1639 16.4793 13.9055 15.4113 13.7992 13.8821L13.7763 13.8826Z" fill="white"/>
<path d="M6.43919 16.5857C5.63235 15.6759 5.4146 14.7246 5.61552 13.5404C5.66048 13.2755 5.71077 13.0115 5.79344 12.7555C5.15669 12.7573 4.89206 12.5503 5.20627 11.9051C5.59027 11.1167 5.87814 10.2438 5.9396 9.36381L5.94281 7.96723C5.91139 7.4566 5.82827 6.94519 5.69931 6.45031C5.64406 6.50119 5.5956 6.56035 5.54335 6.61452L3.94316 8.20273C3.57408 8.55702 3.44711 8.42823 3.0365 8.17298L2.54361 7.86977C2.35008 7.75381 1.85227 7.57227 1.93994 7.27239L1.94769 7.24694C1.96834 7.17981 2.01011 7.12256 2.04359 7.06135L4.08211 3.73691C4.50714 3.03593 4.8631 2.52353 5.74506 2.32013C6.14589 2.22769 7.07089 2.20714 7.46419 2.32898C7.80964 2.43599 8.09727 2.65163 8.26635 2.97601C8.93381 4.25656 10.7497 4.46981 11.5672 3.25288C11.6909 3.06882 11.7757 2.86372 11.9295 2.70099C12.2479 2.36413 12.6358 2.26808 13.0754 2.25167C13.3454 2.25255 13.6261 2.23712 13.8947 2.25872C14.5462 2.31111 15.2109 2.6805 15.5949 3.21349C15.7408 3.41597 15.8608 3.63568 15.9891 3.84943L17.9794 7.09039C18.0085 7.14064 18.0409 7.19298 18.0492 7.25131L18.058 7.32023C18.0713 7.5181 17.9207 7.5871 17.7815 7.67835L17.0371 8.12623C16.6321 8.36577 16.5169 8.59415 16.1196 8.22256L14.2691 6.43131C13.9129 7.5651 13.9555 9.33119 14.2588 10.494L14.3678 10.8651C14.392 10.9561 14.4321 11.0429 14.4591 11.133L14.7814 11.9236C14.8817 12.1491 14.9978 12.3485 14.8114 12.5694C14.666 12.7419 14.4339 12.7565 14.2251 12.7691L14.3798 13.3782C14.4655 13.6715 14.4882 14.1438 14.4759 14.4521C14.4106 16.0769 13.0111 17.5506 11.3982 17.7297C10.6914 17.8081 10.1205 17.5317 9.33448 17.66C9.21214 17.68 9.09039 17.7151 8.96814 17.7308C8.0856 17.8446 7.00952 17.2056 6.43919 16.5857ZM6.26789 2.9221C5.39714 2.96591 5.08035 3.36072 4.67548 4.02125L2.73043 7.19989L3.51187 7.68252L5.49889 5.69902C5.56294 5.63256 5.62056 5.55502 5.69435 5.4996L5.70556 5.49106C5.84273 5.3884 6.07223 5.44119 6.16289 5.58335C6.2496 5.71939 6.26169 5.92148 6.30552 6.07585L6.42189 6.61723C6.45685 6.75156 6.46777 6.89848 6.48748 7.03614L6.54364 7.4666L6.59135 8.84923C6.59131 9.05627 6.6001 9.26819 6.58206 9.47452L6.41077 10.5441C6.38573 10.6764 6.33939 10.8116 6.29894 10.9402L5.89335 11.9863C5.87223 12.0327 5.83939 12.0852 5.83135 12.1351L13.9316 12.1314C14.0032 12.1314 14.0876 12.1395 14.1576 12.1268L14.1477 12.1104C14.1009 12.0315 14.067 11.9319 14.0312 11.8468L13.7512 11.1206C13.5916 10.6699 13.4756 10.1717 13.4122 9.69806L13.3635 9.17165C13.3347 8.81885 13.3201 8.45173 13.3406 8.09764L13.394 7.54464C13.4589 6.90944 13.5785 6.25956 13.8006 5.6586C13.8975 5.39648 14.1918 5.3791 14.3734 5.55331C14.5149 5.6891 14.6388 5.84794 14.7749 5.98973L15.9445 7.14364C16.1243 7.31544 16.3016 7.50615 16.4941 7.6624L17.2624 7.21539L15.3814 4.12189C15.2569 3.9149 15.1466 3.68468 14.982 3.50587C14.474 2.95384 13.9976 2.92007 13.3238 2.9205C12.6448 2.92091 12.5537 2.92945 12.1729 3.53433C11.1756 5.11844 8.69148 5.10635 7.77719 3.46398C7.50869 2.98165 7.33606 2.92075 6.75469 2.92087L6.26789 2.9221ZM6.47756 12.8074C6.43244 12.8908 6.38735 13.0823 6.37481 13.1844C6.47894 13.2549 6.60552 13.3006 6.71923 13.3544C7.70448 13.8207 8.53881 14.7803 8.83577 15.826C8.92589 16.1433 9.0006 16.4574 9.01269 16.7896L9.02181 17.0492C9.40348 16.9854 9.78089 16.9166 10.1704 16.9618C10.4566 16.9951 10.7333 17.0756 11.0244 17.0698C11.0269 16.3435 11.1421 15.7173 11.4927 15.0634C11.894 14.3831 12.4254 13.8486 13.1185 13.4599L13.3962 13.3165C13.4805 13.2774 13.5711 13.2444 13.6524 13.1999L13.5412 12.808L6.47756 12.8074ZM6.23723 13.8631C6.16648 14.2137 6.17627 14.7626 6.30589 15.0882L6.42185 15.3852C6.74194 16.0815 7.34952 16.6329 8.06435 16.9066L8.33831 17.0076L8.3621 17.0058C8.31206 15.746 7.70448 14.646 6.57323 14.0244C6.46414 13.9644 6.34877 13.9179 6.23723 13.8631ZM13.7763 13.8826C12.9891 14.1808 12.2926 14.8527 11.9576 15.6093C11.7889 15.9902 11.6374 16.5735 11.6644 17.0006C11.6815 17.0037 11.6889 17.0028 11.7051 16.9962C13.1639 16.4793 13.9055 15.4113 13.7992 13.8821L13.7763 13.8826Z" stroke="white" stroke-width="0.4" mask="url(#path-1-outside-1_28519_38174)"/>
<path d="M11.0987 8.09251C10.9108 8.00426 10.7297 8.24922 10.4543 8.21901C9.9448 8.16305 10.1776 7.6618 10.1415 7.4303C10.1346 7.38614 9.8628 7.13322 9.8083 7.01689L9.78264 6.95705C9.62664 6.49401 10.0606 6.34664 10.4336 6.30522C10.7007 6.27551 10.6853 5.83314 11.0923 5.70568C11.425 5.69451 11.52 5.83959 11.6632 6.12868L11.7537 6.30214C11.8242 6.45376 12.2903 6.43434 12.431 6.75118L12.4362 6.76339C12.4673 6.83384 12.4552 6.94264 12.4286 7.01293L12.4231 7.02705C12.3141 7.3158 11.9643 7.32726 11.9649 7.58276C11.9666 8.30326 11.6932 8.4228 11.0987 8.09251ZM11.1367 6.58089C11.0135 6.78543 10.8816 6.89234 10.6606 6.96351L10.6707 6.97668C10.7645 7.10247 10.8204 7.37293 10.8395 7.39609C10.9131 7.38084 10.9914 7.36272 11.0666 7.36309C11.1592 7.36522 11.2284 7.38155 11.3135 7.42105C11.349 7.25851 11.4317 7.12759 11.5248 6.99176L11.5108 6.9843C11.3468 6.89522 11.2194 6.74755 11.1367 6.58089Z" fill="white"/>
<path d="M8.70275 9.29103C8.439 9.33237 8.33333 9.07537 8.23121 8.88203C8.19737 8.81799 7.92975 9.04049 7.70862 8.96453C7.53237 8.90399 7.4525 8.64874 7.52904 8.4887C7.59196 8.35728 7.75746 8.29795 7.8845 8.24941C7.77279 7.99174 7.58554 7.64091 8.01591 7.5037C8.25329 7.47337 8.39162 7.63345 8.47654 7.84195L8.49671 7.8877C8.53091 7.95078 8.52854 7.98024 8.5885 7.95057C8.70042 7.89524 8.86575 7.81666 8.99079 7.85432C9.17562 7.90995 9.31612 8.11499 9.24825 8.30791C9.19346 8.46357 9.03921 8.53791 8.90191 8.60645L8.98571 8.86916C9.03825 9.08603 8.90921 9.24237 8.70275 9.29103Z" fill="white"/>
<path d="M11.7902 11.4051C11.521 11.4122 11.4129 11.2054 11.2949 10.9944C11.1361 11.0839 10.9703 11.2454 10.7745 11.1661C10.5854 11.0895 10.5268 10.8554 10.6022 10.6775C10.6614 10.5376 10.8081 10.4572 10.9414 10.4032L10.8959 10.3068C10.7708 10.0621 10.8603 9.83636 11.1052 9.72757C11.3233 9.70878 11.4723 9.77732 11.5603 9.99274L11.6189 10.128L11.9391 9.98595C12.1021 9.92828 12.2807 10.0264 12.3451 10.1829L12.3543 10.2049C12.4643 10.461 12.1855 10.6433 11.9853 10.7272L12.049 10.9087C12.1177 11.1498 12.0403 11.3372 11.7902 11.4051Z" fill="white"/>
</svg>
