<svg width="48" height="48" viewBox="0 0 48 48" fill="none" xmlns="http://www.w3.org/2000/svg">
<g clip-path="url(#clip0_19594_5595)">
<path d="M8 10C8 9.46957 8.21071 8.96086 8.58579 8.58579C8.96086 8.21071 9.46957 8 10 8H38C38.5304 8 39.0391 8.21071 39.4142 8.58579C39.7893 8.96086 40 9.46957 40 10V14C40 14.5304 39.7893 15.0391 39.4142 15.4142C39.0391 15.7893 38.5304 16 38 16H10C9.46957 16 8.96086 15.7893 8.58579 15.4142C8.21071 15.0391 8 14.5304 8 14V10Z" stroke="white" stroke-width="2.5" stroke-linecap="round" stroke-linejoin="round"/>
<path d="M8 26C8 25.4696 8.21071 24.9609 8.58579 24.5858C8.96086 24.2107 9.46957 24 10 24H18C18.5304 24 19.0391 24.2107 19.4142 24.5858C19.7893 24.9609 20 25.4696 20 26V38C20 38.5304 19.7893 39.0391 19.4142 39.4142C19.0391 39.7893 18.5304 40 18 40H10C9.46957 40 8.96086 39.7893 8.58579 39.4142C8.21071 39.0391 8 38.5304 8 38V26Z" stroke="white" stroke-width="2.5" stroke-linecap="round" stroke-linejoin="round"/>
<path d="M28 24H40" stroke="white" stroke-width="2.5" stroke-linecap="round" stroke-linejoin="round"/>
<path d="M28 32H40" stroke="white" stroke-width="2.5" stroke-linecap="round" stroke-linejoin="round"/>
<path d="M28 40H40" stroke="white" stroke-width="2.5" stroke-linecap="round" stroke-linejoin="round"/>
</g>
<defs>
<clipPath id="clip0_19594_5595">
<rect width="48" height="48" fill="white"/>
</clipPath>
</defs>
</svg>
