<svg width="48" height="48" viewBox="0 0 48 48" fill="none" xmlns="http://www.w3.org/2000/svg">
<g id="credit-card-02">
<path id="Icon" d="M44 20H4M22 28H12M4 16.4L4 31.6C4 33.8402 4 34.9603 4.43597 35.816C4.81947 36.5686 5.43139 37.1805 6.18404 37.564C7.03968 38 8.15979 38 10.4 38L37.6 38C39.8402 38 40.9603 38 41.816 37.564C42.5686 37.1805 43.1805 36.5686 43.564 35.816C44 34.9603 44 33.8402 44 31.6V16.4C44 14.1598 44 13.0397 43.564 12.184C43.1805 11.4314 42.5686 10.8195 41.816 10.436C40.9603 10 39.8402 10 37.6 10L10.4 10C8.15979 10 7.03969 10 6.18404 10.436C5.43139 10.8195 4.81947 11.4314 4.43597 12.184C4 13.0397 4 14.1598 4 16.4Z" stroke="white" stroke-width="2.5" stroke-linecap="round" stroke-linejoin="round"/>
</g>
</svg>
