<svg xmlns="http://www.w3.org/2000/svg" width="16" height="16" viewBox="0 0 16 16" fill="none">
  <path d="M9.66824 11.1697C9.76249 9.97574 10.9407 8.79706 11.467 8.04301C11.9932 7.28895 12.1896 6.56631 12.1896 5.69444C12.1818 3.37729 10.3123 1.5 7.99518 1.5C5.68588 1.5 3.80859 3.37729 3.80859 5.68658C3.80859 6.55846 4.00496 7.2811 4.53123 8.03515C5.0575 8.78921 6.22786 9.96789 6.32997 11.1618" stroke="CurrentColor" stroke-linecap="round" stroke-linejoin="round"/>
  <path d="M5.69204 5.77148C5.69204 5.45301 5.75477 5.13765 5.87664 4.84342C5.99852 4.54919 6.17715 4.28184 6.40235 4.05665C6.62754 3.83145 6.89489 3.65281 7.18912 3.53094C7.48336 3.40906 7.79871 3.34634 8.11719 3.34634" stroke="CurrentColor" stroke-linecap="round" stroke-linejoin="round"/>
  <path d="M9.7142 12.7837V12.5879H6.2832V12.7837C6.2832 13.7311 7.05126 14.4992 7.9987 14.4992C8.94615 14.4992 9.7142 13.7311 9.7142 12.7837Z" stroke="CurrentColor" stroke-linecap="round" stroke-linejoin="round"/>
</svg>