<svg width="17" height="18" viewBox="0 0 17 18" fill="none" xmlns="http://www.w3.org/2000/svg">
<path d="M10.1834 5.73047L12.5404 8.08749M14.7806 3.0189L15.252 3.4903C15.582 3.82032 15.747 3.98533 15.8088 4.1756C15.8633 4.34297 15.8633 4.52326 15.8088 4.69063C15.747 4.8809 15.582 5.04591 15.252 5.37592L3.95465 16.6733C3.62464 17.0033 3.45963 17.1683 3.26935 17.2301C3.10199 17.2846 2.9217 17.2846 2.75433 17.2301C2.56405 17.1683 2.39905 17.0033 2.06904 16.6733L1.59763 16.2019C1.26761 15.8719 1.1026 15.7069 1.04079 15.5166C0.986404 15.3492 0.986404 15.169 1.04079 15.0016C1.1026 14.8113 1.26761 14.6463 1.59763 14.3163L12.895 3.0189C13.225 2.68889 13.39 2.52388 13.5803 2.46205C13.7477 2.40768 13.9279 2.40768 14.0953 2.46205C14.2856 2.52388 14.4506 2.68889 14.7806 3.0189ZM4.76709 1.5638L4.32959 2.67309C4.27366 2.81489 4.2457 2.8858 4.20288 2.94558C4.16493 2.99858 4.11853 3.04498 4.06553 3.08294C4.00575 3.12574 3.93485 3.15371 3.79304 3.20964L2.68375 3.64714L3.79304 4.08464C3.93485 4.14056 4.00575 4.16853 4.06553 4.21133C4.11853 4.24931 4.16493 4.29571 4.20288 4.34868C4.2457 4.40847 4.27366 4.47937 4.32959 4.62118L4.76709 5.73047L5.20459 4.62118C5.26051 4.47937 5.28849 4.40847 5.33128 4.34868C5.36926 4.29571 5.41566 4.24931 5.46863 4.21133C5.52843 4.16853 5.59932 4.14056 5.74114 4.08464L6.85042 3.64714L5.74114 3.20964C5.59932 3.15371 5.52843 3.12574 5.46863 3.08294C5.41566 3.04498 5.36926 2.99858 5.33128 2.94558C5.28849 2.8858 5.26051 2.81489 5.20459 2.67309L4.76709 1.5638ZM10.1838 0.730469L10.0088 1.17418C9.98638 1.23091 9.9752 1.25927 9.95807 1.28318C9.94289 1.30438 9.92433 1.32294 9.90313 1.33812C9.87922 1.35524 9.85086 1.36643 9.79414 1.3888L9.35042 1.5638L9.79414 1.7388C9.85086 1.76117 9.87922 1.77236 9.90313 1.78948C9.92433 1.80467 9.94289 1.82323 9.95807 1.84442C9.9752 1.86834 9.98638 1.8967 10.0088 1.95342L10.1838 2.39714L10.3588 1.95342C10.3811 1.8967 10.3923 1.86834 10.4094 1.84442C10.4246 1.82323 10.4432 1.80467 10.4644 1.78948C10.4883 1.77236 10.5166 1.76117 10.5734 1.7388L11.0171 1.5638L10.5734 1.3888C10.5166 1.36643 10.4883 1.35524 10.4644 1.33812C10.4432 1.32294 10.4246 1.30438 10.4094 1.28318C10.3923 1.25927 10.3811 1.23091 10.3588 1.17418L10.1838 0.730469ZM11.4338 13.2305L11.1713 13.896C11.1377 13.9811 11.1209 14.0237 11.0952 14.0595C11.0725 14.0913 11.0446 14.1192 11.0128 14.142C10.977 14.1676 10.9344 14.1844 10.8493 14.218L10.1838 14.4805L10.8493 14.743C10.9344 14.7765 10.977 14.7933 11.0128 14.819C11.0446 14.8418 11.0725 14.8696 11.0952 14.9014C11.1209 14.9373 11.1377 14.9798 11.1713 15.0649L11.4338 15.7305L11.6963 15.0649C11.7298 14.9798 11.7466 14.9373 11.7723 14.9014C11.7951 14.8696 11.8229 14.8418 11.8547 14.819C11.8906 14.7933 11.9331 14.7765 12.0182 14.743L12.6838 14.4805L12.0182 14.218C11.9331 14.1844 11.8906 14.1676 11.8547 14.142C11.8229 14.1192 11.7951 14.0913 11.7723 14.0595C11.7466 14.0237 11.7298 13.9811 11.6963 13.896L11.4338 13.2305Z" stroke="#2BCFA1" stroke-linecap="round" stroke-linejoin="round"/>
</svg>
