<svg width="18" height="20" viewBox="0 0 18 20" fill="none" xmlns="http://www.w3.org/2000/svg">
<path d="M17.753 4.82258L9.35797 0.0650704C9.20537 -0.0216901 9.01675 -0.0216901 8.86414 0.0650704L0.469082 4.82258C0.316476 4.90934 0.222168 5.06939 0.222168 5.24291V14.7579C0.222168 14.9315 0.316476 15.0915 0.469082 15.1783L8.86414 19.9349C9.01675 20.0217 9.20537 20.0217 9.35797 19.9349L17.753 15.1783C17.9056 15.0915 17.9999 14.9315 17.9999 14.7579V5.24459C17.9999 5.07107 17.9065 4.91019 17.753 4.82258ZM9.11106 1.04639L16.8725 5.44507C15.6577 6.12483 14.5663 6.99749 13.6421 8.02767C11.8863 5.99427 9.44799 3.98699 6.13609 2.73275L9.11106 1.04639ZM15.3954 11.3574C15.1742 11.3574 14.9735 11.2285 14.8844 11.0289C14.7695 10.7518 14.9041 10.4351 15.187 10.3214C15.4691 10.2085 15.7914 10.3407 15.9072 10.6187C15.9346 10.6836 15.9483 10.7535 15.9483 10.8234C15.9483 10.8933 15.9346 10.9632 15.9072 11.0281C15.8189 11.2277 15.6183 11.3566 15.3962 11.3574H15.3954ZM15.3954 9.72835C15.2625 9.72835 15.1313 9.75362 15.007 9.80079C14.6906 9.34171 14.3477 8.87422 13.961 8.40335C14.7884 7.47341 15.7554 6.6732 16.8297 6.03218C16.2707 7.22998 15.8043 8.46653 15.4339 9.73256C15.4202 9.73256 15.4082 9.72835 15.3945 9.72835H15.3954ZM13.3163 8.3983C12.4247 9.4529 11.7097 10.6061 11.1361 11.7601C10.8592 7.81119 7.76932 4.71729 6.11037 3.24152C9.28938 4.47807 11.6299 6.42976 13.3163 8.3983ZM10.7906 13.4776C10.5694 13.4776 10.3688 13.3487 10.2796 13.1499C10.2522 13.0851 10.2385 13.0151 10.2385 12.9444C10.2325 12.6437 10.4751 12.3943 10.7812 12.3884C11.0872 12.3825 11.341 12.6209 11.347 12.9216C11.353 13.2224 11.1104 13.4717 10.8043 13.4776H10.7906ZM10.6388 11.8637C10.5437 11.8755 10.4502 11.8982 10.3611 11.9327C9.1985 10.3702 7.8019 8.98962 6.21925 7.8373C6.3187 7.67221 6.371 7.48436 6.37272 7.29231C6.37272 6.78017 6.01006 6.33626 5.50166 6.22507V3.35692C7.02687 4.6836 10.3902 7.8373 10.6388 11.8637ZM5.76658 7.497C5.64312 7.77413 5.31476 7.90048 5.0327 7.77918C4.90409 7.72359 4.80121 7.62335 4.74549 7.497C4.71805 7.43214 4.70434 7.36307 4.70434 7.29316C4.71377 6.99328 4.9684 6.75743 5.27275 6.7667C5.5651 6.77512 5.80001 7.00592 5.80859 7.29316C5.80859 7.36307 5.79401 7.43298 5.76658 7.497ZM5.00698 3.37292V6.22591C4.74549 6.28488 4.51486 6.43481 4.35711 6.64793C3.4449 6.13831 2.48897 5.70704 1.50046 5.36084L5.00698 3.37377V3.37292ZM1.21154 6.22086C1.9497 7.29484 3.39946 9.58683 4.27738 12.1492C4.26795 12.1551 4.2568 12.1602 4.24737 12.1669C3.30944 11.3684 2.29264 10.665 1.21068 10.0678V6.22086H1.21154ZM5.42964 13.0716C5.42964 13.1415 5.41507 13.2114 5.38849 13.2754C5.26503 13.5526 4.93582 13.6789 4.65375 13.5576C4.52515 13.502 4.42313 13.4018 4.36654 13.2754C4.25166 12.9975 4.38798 12.6816 4.6709 12.5687C4.95382 12.4558 5.27532 12.5898 5.39021 12.8677C5.41678 12.9326 5.4305 13.0017 5.4305 13.0716H5.42964ZM4.9804 16.6136L1.21154 14.4791V10.6296C2.16918 11.1814 3.07282 11.8207 3.90873 12.5384C3.60351 13.0564 3.78441 13.7193 4.31167 14.0192C4.46342 14.1051 4.63403 14.1548 4.80893 14.1632C4.96411 14.9854 5.04127 15.8125 4.98125 16.6136H4.9804ZM5.45365 16.8823C5.55224 15.965 5.48194 15.0199 5.30876 14.0824C5.36106 14.0596 5.41164 14.0327 5.45965 14.0024C6.79453 15.4343 7.91936 17.0423 8.8007 18.7809L5.45279 16.8823H5.45365ZM9.06819 18.225C8.19113 16.5723 7.09631 15.0401 5.81116 13.6688C6.14809 13.1642 6.00492 12.4862 5.49137 12.1551C5.30876 12.0372 5.09528 11.9749 4.87666 11.9757C4.83465 11.9774 4.7935 11.9816 4.75235 11.9875C3.84785 9.33329 2.35437 6.99497 1.60163 5.91341C2.48468 6.23855 3.34031 6.63276 4.15907 7.09268C4.14621 7.15838 4.13935 7.22493 4.13849 7.29147C4.13849 7.89711 4.63918 8.38735 5.2556 8.38735C5.48023 8.38735 5.70056 8.31996 5.88575 8.1953C7.44439 9.32403 8.8187 10.6802 9.96068 12.2158C9.55087 12.658 9.58345 13.3437 10.0336 13.7463C10.0936 13.8002 10.1596 13.8474 10.2307 13.887C9.71462 15.297 9.32625 16.7484 9.06905 18.225H9.06819ZM9.48314 18.7439C9.73091 17.1375 10.1373 15.559 10.6971 14.0302C10.728 14.0302 10.758 14.0394 10.7906 14.0394C10.9115 14.0377 11.0315 14.0175 11.1455 13.9779C11.7199 14.9323 12.2172 15.9296 12.6313 16.9606L9.484 18.7439H9.48314ZM13.0625 16.7155C12.6433 15.6837 12.1426 14.6855 11.5665 13.7294C12.0063 13.3142 12.0209 12.6268 11.5982 12.1939C11.5708 12.1661 11.5416 12.1391 11.5116 12.1147C12.0689 10.9708 12.7607 9.82522 13.6352 8.77904C13.9876 9.21115 14.3031 9.64074 14.5955 10.0619C14.1676 10.4932 14.1762 11.1831 14.6152 11.6025C14.7035 11.6868 14.8055 11.7567 14.917 11.8081C14.6366 13.1592 14.4891 14.5339 14.4763 15.9128L13.0634 16.7147L13.0625 16.7155ZM14.9735 15.6331C15.0044 14.3856 15.1476 13.1423 15.4014 11.9201C15.5085 11.9184 15.6157 11.9007 15.7177 11.8687C16.1935 12.7195 16.6059 13.6031 16.9523 14.512L14.9735 15.6331ZM17.0106 13.3529C16.7911 12.8576 16.5013 12.268 16.1455 11.6287C16.5991 11.2277 16.6359 10.5412 16.227 10.0956C16.1369 9.99705 16.0289 9.91535 15.908 9.8547C16.2124 8.82284 16.5811 7.81035 17.0123 6.82313L17.0106 13.3521V13.3529Z" fill="#FF5050"/>
</svg>
