<svg width="14" height="16" viewBox="0 0 14 16" fill="none" xmlns="http://www.w3.org/2000/svg">
<path fill-rule="evenodd" clip-rule="evenodd" d="M11.25 3H2.75C2.19772 3 1.75 3.44772 1.75 4V13.5C1.75 14.0523 2.19772 14.5 2.75 14.5H11.25C11.8023 14.5 12.25 14.0523 12.25 13.5V4C12.25 3.44772 11.8023 3 11.25 3ZM2.75 1.5C1.36929 1.5 0.25 2.61929 0.25 4V13.5C0.25 14.8807 1.36929 16 2.75 16H11.25C12.6307 16 13.75 14.8807 13.75 13.5V4C13.75 2.61929 12.6307 1.5 11.25 1.5H9.25H4.75H2.75Z" fill="#C2C2C2"/>
<path fill-rule="evenodd" clip-rule="evenodd" d="M3.75 5.75C3.75 5.33579 4.02982 5 4.375 5H9.625C9.97018 5 10.25 5.33579 10.25 5.75C10.25 6.16421 9.97018 6.5 9.625 6.5H4.375C4.02982 6.5 3.75 6.16421 3.75 5.75Z" fill="#C2C2C2"/>
<path fill-rule="evenodd" clip-rule="evenodd" d="M3.75 8.75C3.75 8.33579 4.02982 8 4.375 8H9.625C9.97018 8 10.25 8.33579 10.25 8.75C10.25 9.16421 9.97018 9.5 9.625 9.5H4.375C4.02982 9.5 3.75 9.16421 3.75 8.75Z" fill="#C2C2C2"/>
<path fill-rule="evenodd" clip-rule="evenodd" d="M3.75 11.75C3.75 11.3358 4.02982 11 4.375 11H9.625C9.97018 11 10.25 11.3358 10.25 11.75C10.25 12.1642 9.97018 12.5 9.625 12.5H4.375C4.02982 12.5 3.75 12.1642 3.75 11.75Z" fill="#C2C2C2"/>
<path d="M8.97792 0.683772C8.84181 0.27543 8.45967 0 8.02924 0H5.97076C5.54033 0 5.15819 0.27543 5.02208 0.683772L4.75 1.5H9.25L8.97792 0.683772Z" fill="#C2C2C2"/>
</svg>
