<svg xmlns="http://www.w3.org/2000/svg" width="22" height="24" viewBox="0 0 22 24" fill="none">
  <path d="M3.79872 12.0875C3.88575 12.1217 3.9694 12.1561 4.05123 12.2012C4.07099 12.212 4.09074 12.2229 4.1111 12.2341C4.13242 12.246 4.15374 12.2579 4.1757 12.2701C4.19869 12.2828 4.22168 12.2956 4.24537 12.3087C4.4645 12.4308 4.6814 12.5566 4.89813 12.6828C5.06675 12.7809 5.23586 12.8781 5.40573 12.974C5.42447 12.9846 5.44322 12.9952 5.46254 13.0061C5.55431 13.0579 5.64614 13.1097 5.73804 13.1613C5.77122 13.18 5.80439 13.1987 5.83857 13.218C5.86797 13.2345 5.89737 13.251 5.92767 13.268C5.95334 13.2833 5.979 13.2986 6.00545 13.3144C6.02618 13.3259 6.04691 13.3374 6.06827 13.3493C6.12314 13.402 6.12314 13.402 6.13762 13.4862C6.13746 13.5381 6.13746 13.5381 6.1373 13.5911C6.1374 13.6104 6.1375 13.6296 6.1376 13.6495C6.13779 13.7142 6.13715 13.7789 6.1365 13.8437C6.13647 13.89 6.13649 13.9364 6.13656 13.9827C6.13659 14.1087 6.1359 14.2346 6.13508 14.3605C6.13434 14.4921 6.13427 14.6237 6.13413 14.7553C6.13377 15.0045 6.1328 15.2537 6.13162 15.5029C6.1303 15.7866 6.12966 16.0703 6.12907 16.354C6.12783 16.9377 6.12576 17.5213 6.12314 18.1049C6.14576 18.1137 6.16838 18.1225 6.19169 18.1315C6.27851 18.1667 6.35664 18.2095 6.43795 18.2559C6.4707 18.2745 6.50346 18.2932 6.53721 18.3124C6.57266 18.3327 6.60811 18.353 6.64356 18.3733C6.68054 18.3944 6.71753 18.4155 6.75452 18.4366C6.84949 18.4907 6.9444 18.545 7.03928 18.5993C7.12339 18.6475 7.20754 18.6956 7.29168 18.7437C7.44932 18.8339 7.60689 18.9242 7.76443 19.0146C7.92344 19.1058 8.08253 19.1969 8.2416 19.288C8.30535 19.3245 8.3691 19.361 8.43285 19.3975C8.46441 19.4156 8.49597 19.4337 8.52848 19.4523C9.58035 20.0547 9.58035 20.0547 9.67614 20.1096C9.73934 20.1458 9.80256 20.182 9.86581 20.2181C10.0156 20.3037 10.1652 20.3897 10.3141 20.4768C10.3847 20.518 10.4554 20.5591 10.526 20.6001C10.576 20.6292 10.6258 20.6586 10.6757 20.688C10.7059 20.7055 10.7361 20.723 10.7672 20.7411C10.7937 20.7567 10.8203 20.7722 10.8477 20.7883C10.9237 20.8298 10.9237 20.8298 11.0368 20.8215C11.1033 20.7935 11.1033 20.7935 11.1715 20.7528C11.198 20.7378 11.2245 20.7228 11.2518 20.7073C11.2804 20.6908 11.3089 20.6743 11.3384 20.6572C11.3834 20.6315 11.3834 20.6315 11.4294 20.6053C11.5243 20.5511 11.6189 20.4965 11.7135 20.4418C11.7424 20.4251 11.7713 20.4084 11.8011 20.3912C11.9158 20.3249 12.0304 20.2585 12.145 20.1919C12.373 20.0594 12.6021 19.929 12.8316 19.7992C13.1176 19.6373 13.4027 19.4739 13.6868 19.3089C13.9965 19.1291 14.3073 18.9514 14.6181 18.7736C14.7778 18.6822 14.9375 18.5907 15.0972 18.4993C15.1609 18.4628 15.2247 18.4262 15.2884 18.3897C15.32 18.3717 15.3515 18.3536 15.3841 18.335C19.4959 15.9799 19.4959 15.9799 19.5916 15.9251C19.6552 15.8886 19.7188 15.8522 19.7824 15.8158C19.9443 15.723 20.1062 15.6303 20.2682 15.5376C20.3008 15.5189 20.3335 15.5002 20.3672 15.4809C20.4317 15.4439 20.4962 15.407 20.5607 15.3701C20.7091 15.2853 20.8572 15.2001 21.0049 15.1141C21.031 15.099 21.057 15.0839 21.0839 15.0683C21.1322 15.0402 21.1805 15.012 21.2287 14.9837C21.3872 14.8918 21.3872 14.8918 21.4526 14.8918C21.4526 15.9232 21.4526 16.9546 21.4526 18.0173C21.1807 18.1715 20.9088 18.3258 20.6287 18.4847C20.4053 18.6125 20.1819 18.7403 19.9587 18.8684C19.8627 18.9234 19.7667 18.9784 19.6706 19.0333C19.363 19.2092 19.0557 19.3857 18.7493 19.5636C18.4766 19.722 18.2026 19.878 17.9282 20.0333C17.6562 20.1872 17.3854 20.343 17.1152 20.5C16.9035 20.6229 16.6908 20.744 16.4776 20.8645C16.2858 20.9731 16.095 21.0832 15.9045 21.194C15.6473 21.3434 15.3891 21.4911 15.1303 21.6376C14.5884 21.9445 14.048 22.2539 13.5093 22.5664C13.1344 22.7837 12.758 22.9986 12.3817 23.2138C12.3172 23.2506 12.2528 23.2875 12.1884 23.3244C12.1248 23.3607 12.0613 23.397 11.9976 23.4332C11.8351 23.5259 11.6737 23.6201 11.5137 23.717C11.4814 23.7363 11.4492 23.7556 11.416 23.7755C11.3546 23.8124 11.2934 23.8497 11.2325 23.8875C11.205 23.9039 11.1776 23.9203 11.1493 23.9371C11.1254 23.9518 11.1014 23.9664 11.0768 23.9815C11.0074 24.0055 11.0074 24.0055 10.9335 23.9852C10.9094 23.9726 10.8852 23.96 10.8603 23.9471C10.8379 23.9355 10.8156 23.924 10.7926 23.9121C10.7696 23.8991 10.7465 23.8861 10.7227 23.8727C10.6963 23.8579 10.6699 23.843 10.6427 23.8277C10.6143 23.8117 10.586 23.7956 10.5568 23.7791C10.512 23.7538 10.512 23.7538 10.4662 23.728C10.2272 23.5929 9.98946 23.4555 9.75209 23.3174C9.52408 23.185 9.29498 23.0545 9.06545 22.9247C8.78078 22.7637 8.49721 22.6009 8.21448 22.4366C7.98898 22.3057 7.76239 22.1768 7.53545 22.0484C7.24942 21.8866 6.96438 21.7232 6.68021 21.5581C6.37057 21.3784 6.05977 21.2006 5.74895 21.0228C5.55768 20.9134 5.36649 20.8039 5.1753 20.6943C5.02753 20.6097 4.87975 20.525 4.73189 20.4405C4.67993 20.4108 4.62797 20.3811 4.57602 20.3514C4.51113 20.3143 4.44623 20.2772 4.38132 20.2402C3.84654 19.9343 3.84654 19.9343 3.79872 19.8868C3.79588 19.8451 3.79508 19.8032 3.7951 19.7614C3.79504 19.7342 3.79498 19.7069 3.79492 19.6789C3.79501 19.6486 3.79509 19.6184 3.79518 19.5872C3.79516 19.5553 3.79513 19.5234 3.79511 19.4906C3.79506 19.3829 3.79522 19.2752 3.79538 19.1675C3.79539 19.0907 3.79538 19.0138 3.79537 18.937C3.79535 18.7711 3.79544 18.6052 3.79561 18.4393C3.79585 18.1994 3.79592 17.9596 3.79596 17.7197C3.79603 17.3306 3.79622 16.9415 3.7965 16.5524C3.79677 16.1743 3.79698 15.7962 3.7971 15.4181C3.79711 15.3948 3.79712 15.3715 3.79713 15.3476C3.79717 15.2307 3.7972 15.1139 3.79724 14.9971C3.79754 14.0272 3.79806 13.0574 3.79872 12.0875Z" fill="white"/>
  <path d="M0.503414 6.56665C0.607296 6.60709 0.703595 6.65165 0.800977 6.70586C0.844575 6.73008 0.844575 6.73008 0.889053 6.75479C0.92018 6.77223 0.951307 6.78967 0.983378 6.80764C1.01604 6.82587 1.0487 6.8441 1.08236 6.86288C1.32979 7.00141 1.5755 7.14276 1.82053 7.28542C2.04749 7.41746 2.27561 7.54739 2.50418 7.67666C2.79022 7.83847 3.07525 8.00188 3.35942 8.16691C3.66915 8.34673 3.98003 8.52455 4.29094 8.70234C4.38622 8.75686 4.48145 8.81146 4.57667 8.86608C4.88918 9.04533 5.20201 9.224 5.51553 9.4015C5.81776 9.57261 6.11911 9.74515 6.41943 9.91956C6.72907 10.0993 7.03987 10.2771 7.35069 10.4549C7.51042 10.5462 7.67009 10.6377 7.82976 10.7292C7.89351 10.7657 7.95726 10.8022 8.02101 10.8387C8.59476 11.1673 8.59476 11.1673 9.16851 11.496C9.20009 11.514 9.23167 11.5321 9.26421 11.5508C9.3277 11.5871 9.39119 11.6235 9.45467 11.6599C9.61801 11.7535 9.7814 11.847 9.94489 11.9403C9.9948 11.9688 9.9948 11.9688 10.0457 11.9979C10.111 12.0352 10.1764 12.0725 10.2418 12.1097C10.3788 12.1878 10.5149 12.2665 10.6482 12.3507C10.6686 12.3635 10.689 12.3763 10.71 12.3895C10.7619 12.4223 10.8132 12.4557 10.8646 12.4892C10.945 12.5349 10.945 12.5349 11.0169 12.5045C11.1014 12.4645 11.1823 12.421 11.2634 12.3747C11.2962 12.356 11.3289 12.3374 11.3627 12.3182C11.3981 12.2979 11.4336 12.2776 11.469 12.2573C11.506 12.2362 11.543 12.2151 11.58 12.194C11.675 12.1398 11.7699 12.0856 11.8647 12.0312C11.9488 11.9831 12.033 11.935 12.1171 11.8869C12.2748 11.7967 12.4323 11.7064 12.5899 11.616C12.7489 11.5248 12.908 11.4337 13.0671 11.3426C13.1308 11.3061 13.1946 11.2696 13.2583 11.2331C14.4058 10.5758 14.4058 10.5758 14.5015 10.521C14.5652 10.4846 14.6289 10.4481 14.6926 10.4116C14.8526 10.3199 15.0127 10.2282 15.1729 10.1366C15.4804 9.96072 15.7876 9.78431 16.094 9.60639C16.3667 9.44802 16.6407 9.29195 16.9153 9.13663C17.1837 8.9847 17.4511 8.83106 17.7179 8.67615C18.0275 8.49638 18.3383 8.3186 18.6491 8.14085C18.8089 8.04948 18.9685 7.958 19.1282 7.86653C19.192 7.83001 19.2557 7.7935 19.3195 7.75699C19.351 7.73891 19.3826 7.72084 19.4151 7.70222C19.702 7.53791 19.702 7.53791 19.7977 7.48308C19.8611 7.44676 19.9245 7.41043 19.9879 7.37411C20.1352 7.28977 20.2824 7.20544 20.4297 7.12116C20.4812 7.09168 20.5327 7.06219 20.5842 7.03271C20.6483 6.996 20.7125 6.95929 20.7766 6.9226C20.806 6.90575 20.8355 6.8889 20.8658 6.87154C20.8944 6.8552 20.923 6.83885 20.9524 6.82202C21.0149 6.78599 21.0772 6.74959 21.1394 6.71293C21.1871 6.6848 21.1871 6.6848 21.2359 6.65611C21.2647 6.63898 21.2936 6.62184 21.3234 6.60419C21.3938 6.56665 21.3938 6.56665 21.4526 6.56665C21.4615 6.89013 21.4683 7.21359 21.4725 7.53716C21.4745 7.68743 21.4772 7.83762 21.4815 7.98785C21.4857 8.13294 21.4879 8.27795 21.4889 8.42309C21.4896 8.47835 21.491 8.5336 21.4931 8.58883C21.5057 8.93959 21.5057 8.93959 21.4526 9.07877C21.3377 9.19721 21.2233 9.24921 21.0701 9.31246C21.0061 9.34822 20.9425 9.38468 20.8795 9.42211C20.8137 9.45925 20.7479 9.49634 20.6821 9.53336C20.6095 9.57437 20.5369 9.61543 20.4643 9.65648C20.437 9.67194 20.437 9.67194 20.4091 9.6877C20.2245 9.79204 20.0404 9.89717 19.8564 10.0026C19.8249 10.0206 19.7935 10.0386 19.761 10.0572C19.5509 10.1777 19.3413 10.299 19.1319 10.4206C18.8591 10.579 18.5851 10.7351 18.3105 10.8904C18.0723 11.0252 17.8348 11.1612 17.5982 11.2988C17.3442 11.4465 17.089 11.5922 16.8332 11.7369C16.5472 11.8988 16.2621 12.0622 15.978 12.2272C15.6683 12.407 15.3575 12.5847 15.0467 12.7625C14.887 12.8539 14.7273 12.9454 14.5676 13.0368C14.5039 13.0733 14.4401 13.1099 14.3764 13.1464C14.3448 13.1644 14.3133 13.1825 14.2808 13.2011C12.4639 14.2418 12.4639 14.2418 12.3681 14.2966C12.3049 14.3328 12.2417 14.369 12.1785 14.4052C12.0288 14.491 11.8791 14.5767 11.7293 14.6623C11.6584 14.7028 11.5875 14.7434 11.5166 14.7839C11.4664 14.8126 11.4162 14.8413 11.366 14.8699C11.3206 14.8959 11.3206 14.8959 11.2742 14.9224C11.2475 14.9377 11.2208 14.9529 11.1932 14.9686C11.1401 14.9998 11.0882 15.033 11.0369 15.067C10.8949 15.0597 10.7804 14.9839 10.6599 14.9154C10.6369 14.9026 10.614 14.8897 10.5904 14.8765C10.339 14.7351 10.0897 14.5898 9.84041 14.4449C9.65244 14.3356 9.46388 14.2274 9.27517 14.1194C9.2434 14.1013 9.21164 14.0831 9.17891 14.0644C9.11446 14.0275 9.05001 13.9906 8.98556 13.9538C8.82583 13.8624 8.66616 13.7709 8.50649 13.6795C8.44274 13.6429 8.37899 13.6064 8.31524 13.5699C6.65774 12.6206 5.00024 11.6712 3.34274 10.7219C3.31118 10.7038 3.27962 10.6857 3.2471 10.6671C3.1834 10.6306 3.1197 10.5941 3.05599 10.5576C2.89592 10.4659 2.73582 10.3743 2.57567 10.2827C2.23831 10.0897 1.90138 9.89602 1.56527 9.7009C1.40535 9.60814 1.24517 9.51586 1.08463 9.42417C1.06691 9.41404 1.04918 9.40391 1.03092 9.39347C0.944484 9.34409 0.858013 9.29478 0.771497 9.24554C0.740718 9.22797 0.70994 9.2104 0.678228 9.19231C0.637127 9.1689 0.637127 9.1689 0.595196 9.14503C0.532837 9.10798 0.532837 9.10798 0.503414 9.07877C0.500615 9.00055 0.49972 8.92308 0.500073 8.84485C0.500069 8.82034 0.500065 8.79584 0.50006 8.77059C0.500081 8.68919 0.50031 8.60779 0.50054 8.52639C0.500595 8.47011 0.500637 8.41383 0.500667 8.35755C0.500779 8.20911 0.501068 8.06068 0.501393 7.91224C0.501694 7.7609 0.501829 7.60955 0.501977 7.4582C0.502293 7.16102 0.502795 6.86384 0.503414 6.56665Z" fill="white"/>
  <path d="M21.4523 10.1888C21.4523 11.3745 21.4523 12.5602 21.4523 13.7818C21.1805 13.936 20.9086 14.0902 20.6285 14.2491C20.3586 14.4053 20.3586 14.4053 20.0889 14.5618C19.9058 14.6679 19.7216 14.7722 19.5374 14.8763C19.3456 14.9849 19.1548 15.0951 18.9642 15.2058C18.7059 15.3559 18.4465 15.5041 18.1864 15.6512C17.9003 15.8131 17.6153 15.9765 17.3311 16.1415C17.0214 16.3213 16.7105 16.4991 16.3996 16.6769C16.3043 16.7314 16.2091 16.786 16.1139 16.8407C15.8014 17.0199 15.4886 17.1986 15.175 17.3761C14.8728 17.5472 14.5714 17.7197 14.2711 17.8942C13.9615 18.0739 13.6507 18.2517 13.3399 18.4294C13.1801 18.5208 13.0205 18.6123 12.8608 18.7038C12.6689 18.8137 12.477 18.9236 12.285 19.0334C12.2531 19.0517 12.2212 19.0699 12.1883 19.0888C12.1247 19.1251 12.0611 19.1614 11.9974 19.1977C11.8348 19.2904 11.6735 19.3846 11.5134 19.4815C11.4812 19.5008 11.449 19.5201 11.4158 19.54C11.3543 19.5769 11.2931 19.6142 11.2322 19.652C11.2048 19.6684 11.1774 19.6847 11.1491 19.7016C11.1251 19.7163 11.1012 19.7309 11.0765 19.746C11.0071 19.77 11.0071 19.77 10.9346 19.7503C10.91 19.7375 10.8854 19.7247 10.86 19.7115C10.8349 19.6985 10.8097 19.6854 10.7837 19.672C10.7434 19.6495 10.7434 19.6495 10.7023 19.6266C10.6571 19.6015 10.6571 19.6015 10.611 19.5759C10.5791 19.558 10.5472 19.5401 10.5143 19.5217C10.4812 19.5032 10.448 19.4846 10.4138 19.4656C10.214 19.3537 10.0153 19.2403 9.818 19.1241C9.63229 19.0148 9.44539 18.9075 9.25831 18.8005C9.20944 18.7726 9.20944 18.7726 9.15959 18.7441C9.09278 18.7058 9.02597 18.6676 8.95915 18.6294C8.7983 18.5375 8.63754 18.4453 8.47676 18.3532C8.43 18.3265 8.43 18.3265 8.3823 18.2991C8.23418 18.2143 8.08607 18.1295 7.93802 18.0445C7.88584 18.0146 7.83365 17.9847 7.78147 17.9547C7.71618 17.9173 7.65089 17.8798 7.58562 17.8423C7.5559 17.8253 7.52619 17.8083 7.49557 17.7907C7.46978 17.7759 7.44398 17.7611 7.41741 17.7458C7.30029 17.6796 7.18228 17.6149 7.06445 17.5499C7.06445 16.3643 7.06445 15.1786 7.06445 13.957C7.15527 13.9931 7.23332 14.0246 7.31696 14.0707C7.33672 14.0815 7.35648 14.0924 7.37684 14.1036C7.39816 14.1155 7.41947 14.1274 7.44144 14.1396C7.47586 14.1587 7.47586 14.1587 7.51097 14.1781C7.76277 14.3184 8.01176 14.4635 8.26091 14.6083C8.44889 14.7176 8.63744 14.8258 8.82616 14.9338C8.85792 14.9519 8.88969 14.9701 8.92242 14.9888C8.98686 15.0257 9.05131 15.0626 9.11576 15.0994C9.2755 15.1908 9.43516 15.2823 9.59484 15.3737C9.65786 15.4098 9.72088 15.4459 9.7839 15.482C9.90097 15.5491 10.018 15.6161 10.1351 15.6832C10.1877 15.7134 10.2404 15.7435 10.293 15.7737C10.3591 15.8115 10.4251 15.8494 10.4911 15.8872C10.5496 15.9207 10.608 15.954 10.6666 15.9871C10.713 16.014 10.7588 16.0418 10.8034 16.0713C10.8852 16.1245 10.9314 16.15 11.0299 16.1371C11.1693 16.0671 11.3034 15.99 11.4375 15.9105C11.501 15.8733 11.5645 15.8361 11.628 15.7989C11.6612 15.7795 11.6944 15.76 11.7286 15.74C11.8819 15.6506 12.0364 15.5634 12.1909 15.4762C12.4944 15.3047 12.7968 15.1315 13.0982 14.9565C13.4078 14.7767 13.7186 14.599 14.0294 14.4212C14.1892 14.3298 14.3488 14.2384 14.5085 14.1469C14.5722 14.1104 14.636 14.0739 14.6997 14.0374C14.7313 14.0193 14.7629 14.0012 14.7954 13.9826C16.421 13.0515 18.0466 12.1204 19.6722 11.1893C19.7038 11.1712 19.7354 11.1531 19.768 11.1345C19.8314 11.0981 19.8949 11.0618 19.9583 11.0254C20.1221 10.9316 20.2859 10.8378 20.4497 10.744C20.6094 10.6524 20.7691 10.561 20.9289 10.4695C20.9805 10.44 21.0322 10.4104 21.0838 10.3808C21.1435 10.3466 21.2032 10.3124 21.2629 10.2783C21.3094 10.2517 21.3094 10.2517 21.3568 10.2246C21.4229 10.1888 21.4229 10.1888 21.4523 10.1888Z" fill="white"/>
  <path d="M5.97628 3.41199C6.07823 3.45158 6.17101 3.49486 6.26534 3.55017C6.29277 3.56617 6.32021 3.58217 6.34848 3.59865C6.39272 3.62464 6.39272 3.62464 6.43785 3.65115C6.50179 3.68844 6.56573 3.72571 6.62968 3.76297C6.6627 3.78223 6.69572 3.80149 6.72974 3.82134C6.88886 3.91384 7.04859 4.00525 7.20837 4.09661C7.25604 4.12388 7.25604 4.12388 7.30466 4.1517C7.36918 4.1886 7.43371 4.22551 7.49823 4.26241C7.59351 4.31693 7.68874 4.37152 7.78396 4.42615C8.11695 4.61714 8.45034 4.80742 8.78434 4.99667C9.16779 5.21396 9.5502 5.43293 9.9315 5.65391C9.96388 5.67268 9.99626 5.69144 10.0296 5.71078C10.0934 5.74773 10.1571 5.78471 10.2208 5.82171C10.2496 5.83841 10.2784 5.8551 10.308 5.87231C10.3337 5.88724 10.3595 5.90217 10.386 5.91756C10.4258 5.94033 10.4663 5.96211 10.5074 5.98253C10.5074 7.68873 10.5074 9.39493 10.5074 11.1528C10.3778 11.1099 10.2874 11.0746 10.1732 11.0083C10.1432 10.9909 10.1132 10.9736 10.0823 10.9558C10.0502 10.937 10.0182 10.9183 9.98517 10.8991C9.95117 10.8794 9.91715 10.8597 9.88313 10.84C9.81247 10.7992 9.74185 10.7582 9.67126 10.7173C9.50786 10.6225 9.34373 10.529 9.17972 10.4353C8.9365 10.2962 8.6938 10.1562 8.4515 10.0154C8.17881 9.8571 7.90486 9.70107 7.6304 9.54579C7.32915 9.37531 7.02929 9.20255 6.73002 9.02866C6.61942 8.96442 6.50863 8.90052 6.39763 8.83696C6.37148 8.82199 6.34533 8.80702 6.31839 8.79159C6.26931 8.76351 6.22021 8.73547 6.17109 8.70748C6.00891 8.61468 6.00891 8.61468 5.97628 8.58228C5.97342 8.51573 5.97269 8.4491 5.97274 8.38249C5.97272 8.36135 5.97269 8.34021 5.97267 8.31843C5.97262 8.24707 5.97278 8.17571 5.97294 8.10435C5.97295 8.05341 5.97294 8.00247 5.97293 7.95152C5.97292 7.81278 5.97309 7.67403 5.9733 7.53529C5.97348 7.39046 5.9735 7.24563 5.97353 7.1008C5.97362 6.82634 5.97387 6.55188 5.97416 6.27742C5.97449 5.96504 5.97465 5.65267 5.9748 5.34029C5.97511 4.69752 5.97562 4.05476 5.97628 3.41199Z" fill="white"/>
  <path d="M15.9804 3.41199C15.9893 4.08206 15.9961 4.75213 16.0002 5.42225C16.0022 5.73341 16.0048 6.04453 16.0092 6.35567C16.013 6.62688 16.0155 6.89807 16.0164 7.16932C16.0169 7.31293 16.018 7.45647 16.0208 7.60006C16.0234 7.73531 16.0242 7.87045 16.0236 8.00573C16.0237 8.05528 16.0245 8.10484 16.026 8.15437C16.0302 8.30531 16.0285 8.43804 15.9804 8.58228C15.8644 8.69444 15.7462 8.75101 15.5979 8.81597C15.5382 8.84972 15.4789 8.88404 15.4201 8.91923C15.3598 8.95364 15.2996 8.98798 15.2393 9.02227C15.1891 9.0509 15.1389 9.07953 15.0888 9.10816C15.0373 9.13752 14.9859 9.16686 14.9344 9.19619C14.8055 9.26973 14.6768 9.34357 14.5481 9.41741C14.2326 9.59841 13.9165 9.77824 13.5999 9.95745C13.3343 10.1078 13.0699 10.2601 12.8061 10.4135C12.4711 10.6079 12.134 10.7988 11.7966 10.9891C11.7465 11.0176 11.6965 11.0462 11.6467 11.0753C11.5139 11.1528 11.5139 11.1528 11.4492 11.1528C11.4492 9.44663 11.4492 7.74043 11.4492 5.98253C11.692 5.84758 11.9347 5.71262 12.1848 5.57358C12.4485 5.42153 12.4485 5.42153 12.7118 5.26869C12.8973 5.16077 13.0835 5.05396 13.2698 4.94738C13.3016 4.92919 13.3333 4.91101 13.3661 4.89227C13.4305 4.85541 13.4949 4.81856 13.5594 4.78171C13.7191 4.69034 13.8788 4.59886 14.0384 4.50739C14.1022 4.47088 14.1659 4.43436 14.2297 4.39785C14.2613 4.37977 14.2928 4.3617 14.3253 4.34308C14.4209 4.28831 14.5166 4.23354 14.6122 4.17877C14.6438 4.16066 14.6754 4.14255 14.708 4.12389C14.7712 4.08773 14.8343 4.05157 14.8975 4.01542C15.0478 3.92935 15.1981 3.84319 15.3483 3.75675C15.4197 3.71561 15.4912 3.67451 15.5627 3.63342C15.6136 3.60416 15.6644 3.57482 15.7153 3.54549C15.7458 3.52798 15.7762 3.51047 15.8076 3.49243C15.8347 3.47686 15.8617 3.4613 15.8895 3.44526C15.9509 3.41199 15.9509 3.41199 15.9804 3.41199Z" fill="white"/>
  <path d="M11.0247 0.0158196C11.0482 0.0280079 11.0718 0.0401961 11.096 0.0527537C11.1138 0.0616496 11.1317 0.0705455 11.1501 0.0797109C11.1755 0.0937042 11.1755 0.0937042 11.2014 0.10798C11.2211 0.118851 11.2409 0.129721 11.2613 0.140921C11.2932 0.15873 11.2932 0.15873 11.3259 0.176899C11.3603 0.195979 11.3603 0.195979 11.3954 0.215445C11.6472 0.355741 11.8962 0.500786 12.1453 0.64564C12.3333 0.754873 12.5219 0.863095 12.7106 0.971066C12.7423 0.989241 12.7741 1.00742 12.8068 1.02614C12.8713 1.06301 12.9357 1.09987 13.0002 1.13673C13.1599 1.2281 13.3196 1.31958 13.4793 1.41105C13.543 1.44757 13.6068 1.48408 13.6705 1.52059C13.798 1.59362 13.9255 1.66665 14.053 1.73967C14.0846 1.75777 14.1162 1.77588 14.1488 1.79453C14.212 1.83074 14.2752 1.86697 14.3384 1.90321C14.4879 1.98896 14.6375 2.07451 14.7875 2.15943C14.8585 2.19962 14.9294 2.23991 15.0003 2.28021C15.0504 2.30865 15.1007 2.33695 15.1509 2.36525C15.1812 2.38248 15.2115 2.3997 15.2427 2.41745C15.2694 2.43256 15.2961 2.44767 15.3236 2.46324C15.3851 2.50222 15.4313 2.54061 15.48 2.59409C15.2041 2.7618 14.9244 2.92261 14.6433 3.08154C14.3808 3.22996 14.1188 3.3792 13.8581 3.53065C13.5196 3.72723 13.18 3.9219 12.8403 4.11622C12.6805 4.20759 12.5209 4.29907 12.3612 4.39054C12.2982 4.42664 12.2351 4.46273 12.1721 4.49883C12.055 4.56588 11.938 4.63294 11.8209 4.70001C11.7683 4.73017 11.7156 4.76033 11.663 4.79048C11.597 4.82832 11.5309 4.86617 11.4649 4.90401C11.4065 4.93747 11.348 4.97078 11.2894 5.0039C11.243 5.03076 11.1973 5.05863 11.1526 5.08814C11.071 5.14115 11.0247 5.16684 10.9263 5.15402C10.7857 5.08336 10.6502 5.00563 10.5149 4.92547C10.4512 4.88817 10.3875 4.8509 10.3239 4.81364C10.291 4.79438 10.2582 4.77512 10.2244 4.75528C10.0656 4.66252 9.90589 4.57125 9.7462 4.48C9.68191 4.44322 9.61763 4.40644 9.55334 4.36966C9.50545 4.34228 9.50545 4.34228 9.4566 4.31434C9.26502 4.20476 9.07354 4.09502 8.88204 3.98532C8.72196 3.89362 8.56185 3.80195 8.4017 3.71037C7.75775 3.34202 7.1159 2.97027 6.47656 2.59409C6.54312 2.52179 6.61051 2.47651 6.69666 2.4292C6.72326 2.41447 6.74985 2.39974 6.77725 2.38455C6.80607 2.36875 6.83489 2.35295 6.86458 2.33667C6.92651 2.30233 6.98842 2.26794 7.05031 2.23352C7.08213 2.21582 7.11396 2.19812 7.14674 2.17989C7.29389 2.09737 7.43969 2.01262 7.58544 1.92772C7.84255 1.77815 8.10072 1.63053 8.35964 1.48408C8.64563 1.32228 8.93064 1.15892 9.21475 0.993886C9.46107 0.850855 9.70801 0.708896 9.95565 0.568106C10.1193 0.474888 10.2817 0.380209 10.4428 0.282674C10.475 0.263395 10.5072 0.244116 10.5403 0.224253C10.6018 0.187379 10.6629 0.150084 10.7238 0.112316C10.7512 0.0959365 10.7787 0.0795569 10.8069 0.0626808C10.8309 0.0480309 10.8548 0.033381 10.8795 0.0182871C10.9489 -0.00566769 10.9489 -0.00566769 11.0247 0.0158196Z" fill="white"/>
  <path d="M0.503906 10.1888C0.613729 10.2325 0.704855 10.2751 0.805838 10.3334C0.835943 10.3507 0.866049 10.3681 0.897066 10.3859C0.929353 10.4046 0.961639 10.4233 0.994904 10.4426C1.029 10.4623 1.06311 10.4819 1.09722 10.5016C1.16815 10.5424 1.23904 10.5834 1.30992 10.6243C1.41106 10.6826 1.51241 10.7406 1.61382 10.7985C1.64605 10.8169 1.67829 10.8353 1.71149 10.8543C1.77128 10.8884 1.83108 10.9225 1.89089 10.9566C1.94899 10.9898 2.00665 11.0238 2.06386 11.0586C2.15319 11.1107 2.24457 11.1512 2.33993 11.1914C2.77161 11.3868 2.77161 11.3868 2.86547 11.5796C2.92417 11.8043 2.90945 12.0351 2.90181 12.2651C2.90163 12.3423 2.90171 12.4194 2.9021 12.4966C2.90244 12.6622 2.90043 12.8277 2.89677 12.9933C2.89149 13.2326 2.88982 13.4719 2.88901 13.7113C2.8876 14.0998 2.8833 14.4882 2.87716 14.8767C2.87121 15.2538 2.86663 15.6308 2.86389 16.008C2.86372 16.0313 2.86355 16.0545 2.86337 16.0785C2.86253 16.1953 2.86171 16.3122 2.8609 16.429C2.8542 17.3967 2.84281 18.3642 2.82833 19.3318C2.77639 19.3037 2.72446 19.2756 2.67252 19.2475C2.6436 19.2318 2.61468 19.2162 2.58488 19.2C2.1416 18.9596 1.70367 18.7107 1.26891 18.4555C1.01646 18.3109 0.764006 18.1663 0.503906 18.0173C0.503906 15.4339 0.503906 12.8505 0.503906 10.1888Z" fill="white"/>
  <path d="M5.03487 3.41199C5.03487 4.93503 5.03487 6.45808 5.03487 8.02728C4.92119 7.98214 4.82525 7.93637 4.72006 7.87632C4.68731 7.85768 4.65455 7.83904 4.6208 7.81983C4.58535 7.79953 4.5499 7.77922 4.51445 7.75891C4.47747 7.73781 4.44048 7.71672 4.40349 7.69564C4.30852 7.64148 4.21361 7.5872 4.11873 7.53288C4.03462 7.48472 3.95047 7.43663 3.86633 7.38852C3.70869 7.29833 3.55112 7.208 3.39358 7.11763C3.26647 7.04472 3.13931 6.9719 3.01215 6.89907C2.91655 6.84433 2.82097 6.78958 2.72539 6.73482C2.59715 6.66137 2.46888 6.58796 2.34059 6.5146C1.98646 6.31202 1.63281 6.1087 1.28008 5.90373C1.25236 5.88764 1.22464 5.87154 1.19608 5.85496C1.17167 5.84077 1.14726 5.82658 1.12212 5.81196C1.08333 5.78981 1.04392 5.76871 1.00391 5.74884C1.00391 5.72957 1.00391 5.71029 1.00391 5.69042C1.03395 5.67408 1.06398 5.65774 1.09493 5.6409C1.38496 5.48239 1.67183 5.31906 1.95746 5.15286C2.18795 5.0189 2.41953 4.88692 2.6516 4.75568C2.9374 4.594 3.22223 4.43077 3.50612 4.26581C3.75873 4.11909 4.0123 3.97409 4.26603 3.82931C4.46326 3.71653 4.65947 3.60232 4.85288 3.48315C4.9698 3.41199 4.9698 3.41199 5.03487 3.41199Z" fill="white"/>
  <path d="M16.9512 3.44116C17.0772 3.48288 17.1628 3.51457 17.2725 3.57934C17.2999 3.59534 17.3272 3.61134 17.3554 3.62783C17.3993 3.65381 17.3993 3.65381 17.444 3.68032C17.5077 3.71762 17.5713 3.75489 17.635 3.79215C17.6679 3.81141 17.7007 3.83067 17.7345 3.85051C17.8933 3.94327 18.053 4.03454 18.2127 4.12579C18.277 4.16257 18.3413 4.19935 18.4055 4.23613C18.4375 4.25438 18.4694 4.27264 18.5023 4.29145C18.662 4.38282 18.8217 4.47431 18.9814 4.56577C19.013 4.58387 19.0446 4.60196 19.0771 4.6206C19.2358 4.71147 19.3944 4.80238 19.553 4.89337C20.0188 5.16047 20.4855 5.42583 20.9527 5.69039C20.9527 5.70967 20.9527 5.72895 20.9527 5.74881C20.9359 5.75817 20.9191 5.76753 20.9018 5.77718C20.5463 5.97547 20.1923 6.17607 19.8403 6.38057C19.5281 6.56192 19.2148 6.74119 18.9014 6.92042C18.7102 7.0298 18.519 7.13933 18.3279 7.24886C18.1796 7.33382 18.0313 7.41874 17.8828 7.50345C17.8304 7.53337 17.778 7.56331 17.7256 7.59325C17.66 7.63075 17.5943 7.66821 17.5286 7.70564C17.3788 7.79123 17.2309 7.87769 17.0873 7.97314C17.0394 7.99803 17.0394 7.99803 16.9512 7.99803C16.9512 6.49427 16.9512 4.9905 16.9512 3.44116Z" fill="white"/>
</svg>