<svg width="214" height="259" viewBox="0 0 214 259" fill="none" xmlns="http://www.w3.org/2000/svg">
<path d="M159.957 6.93227H20.7968C13.1396 6.93227 6.93227 13.1396 6.93227 20.7968V218.468C6.93227 226.125 13.1396 232.332 20.7968 232.332H120.31C120.863 232.332 121.31 232.78 121.31 233.332V238.264C121.31 238.817 120.863 239.264 120.31 239.264H20.7968C9.31104 239.264 0 229.953 0 218.468V20.7968C0 9.31101 9.31104 0 20.7968 0H159.957C171.443 0 180.754 9.31104 180.754 20.7968V163.208C180.754 163.76 180.307 164.208 179.754 164.208H174.822C174.27 164.208 173.822 163.76 173.822 163.208V20.7968C173.822 13.1396 167.615 6.93227 159.957 6.93227Z" fill="white"/>
<path fill-rule="evenodd" clip-rule="evenodd" d="M36.1309 41.989C36.1309 39.2924 38.1036 37.1064 40.5371 37.1064H140.118C142.551 37.1064 144.524 39.2924 144.524 41.989C144.524 44.6856 142.551 46.8716 140.118 46.8716H40.5371C38.1036 46.8716 36.1309 44.6856 36.1309 41.989Z" fill="white"/>
<path fill-rule="evenodd" clip-rule="evenodd" d="M36.1309 81.0515C36.1309 78.3549 38.1036 76.1689 40.5371 76.1689H140.118C142.551 76.1689 144.524 78.3549 144.524 81.0515C144.524 83.7481 142.551 85.9341 140.118 85.9341H40.5371C38.1036 85.9341 36.1309 83.7481 36.1309 81.0515Z" fill="white"/>
<path fill-rule="evenodd" clip-rule="evenodd" d="M36.1309 120.599C36.1309 118.172 38.1036 116.205 40.5371 116.205H140.118C142.551 116.205 144.524 118.172 144.524 120.599C144.524 123.026 142.551 124.994 140.118 124.994H40.5371C38.1036 124.994 36.1309 123.026 36.1309 120.599Z" fill="white"/>
<path fill-rule="evenodd" clip-rule="evenodd" d="M36.1309 159.172C36.1309 156.475 38.1036 154.289 40.5371 154.289H140.118C142.551 154.289 144.524 156.475 144.524 159.172C144.524 161.868 142.551 164.054 140.118 164.054H40.5371C38.1036 164.054 36.1309 161.868 36.1309 159.172Z" fill="white"/>
<path d="M40.5371 193.351C38.1036 193.351 36.1309 195.537 36.1309 198.233C36.1309 200.93 38.1036 203.116 40.5371 203.116H120.31C120.862 203.116 121.31 202.668 121.31 202.116V194.351C121.31 193.798 120.862 193.351 120.31 193.351H40.5371Z" fill="white"/>
<circle cx="169.323" cy="214.386" r="41.1136" stroke="white" stroke-width="7"/>
<path d="M159.475 207.078C160.136 206.784 160.881 207.268 160.881 207.992V210.101C160.881 210.506 160.637 210.871 160.263 211.026L148.754 215.779C147.931 216.119 147.929 217.284 148.751 217.627L160.265 222.424C160.638 222.58 160.881 222.944 160.881 223.348V225.459C160.881 226.183 160.136 226.667 159.475 226.373L142.751 218.94C142.39 218.779 142.157 218.421 142.157 218.026V215.425C142.157 215.03 142.39 214.672 142.751 214.511L159.475 207.078Z" fill="white"/>
<path d="M175.017 196.623C175.687 196.623 176.168 197.269 175.975 197.911L165.913 231.434C165.786 231.857 165.397 232.147 164.956 232.147H162.623C161.953 232.147 161.472 231.501 161.665 230.86L171.727 197.336C171.854 196.913 172.243 196.623 172.685 196.623H175.017Z" fill="white"/>
<path d="M176.72 207.992C176.72 207.268 177.464 206.784 178.126 207.078L194.849 214.511C195.21 214.672 195.443 215.03 195.443 215.425V218.026C195.443 218.421 195.21 218.779 194.849 218.94L178.126 226.373C177.464 226.667 176.72 226.183 176.72 225.459V223.348C176.72 222.944 176.962 222.58 177.335 222.424L188.849 217.627C189.671 217.284 189.669 216.119 188.846 215.779L177.338 211.026C176.964 210.871 176.72 210.506 176.72 210.101V207.992Z" fill="white"/>
</svg>
