<svg width="14" height="14" viewBox="0 0 14 14" fill="none" xmlns="http://www.w3.org/2000/svg">
<g clip-path="url(#clip0_2913_15518)">
<path fill-rule="evenodd" clip-rule="evenodd" d="M5.67361 10.0379C8.08395 10.0379 10.0379 8.08395 10.0379 5.67361C10.0379 3.26326 8.08395 1.30929 5.67361 1.30929C3.26326 1.30929 1.30929 3.26326 1.30929 5.67361C1.30929 8.08395 3.26326 10.0379 5.67361 10.0379ZM5.67361 11.3472C8.80706 11.3472 11.3472 8.80706 11.3472 5.67361C11.3472 2.54016 8.80706 0 5.67361 0C2.54016 0 0 2.54016 0 5.67361C0 8.80706 2.54016 11.3472 5.67361 11.3472Z" fill="#808080"/>
<path fill-rule="evenodd" clip-rule="evenodd" d="M8.94684 8.94684C9.2025 8.69119 9.617 8.69119 9.87265 8.94684L13.7476 12.8218C14.0032 13.0774 14.0032 13.4919 13.7476 13.7476C13.4919 14.0032 13.0774 14.0032 12.8218 13.7476L8.94684 9.87266C8.69119 9.617 8.69119 9.2025 8.94684 8.94684Z" fill="#808080"/>
</g>
<defs>
<clipPath id="clip0_2913_15518">
<rect width="14" height="14" fill="white"/>
</clipPath>
</defs>
</svg>
