<svg xmlns="http://www.w3.org/2000/svg" width="16" height="16" viewBox="0 0 16 16" fill="none">
  <path d="M8.07553 14.6539C8.02506 14.6711 7.97566 14.6709 7.92533 14.6532C7.27873 14.426 2.66699 12.6262 2.66699 7.50158V2.86921C2.66699 2.74665 2.75027 2.63981 2.86899 2.61008L7.93566 1.34129C7.97813 1.33065 8.02253 1.33065 8.06499 1.34129L13.1317 2.61008C13.2504 2.63981 13.3337 2.74665 13.3337 2.86921V7.50158C13.3337 12.6779 8.72299 14.433 8.07553 14.6539Z" stroke="#2BCFA1" stroke-miterlimit="10" stroke-linejoin="round"/>
  <mask id="path-2-inside-1_30268_17133" fill="white">
    <path d="M9.33366 6.60556C9.3338 6.8689 9.24839 7.1258 9.08919 7.34086C8.92999 7.55592 8.70484 7.71855 8.44477 7.80633L8.78699 9.49506C8.79944 9.55648 8.79751 9.61977 8.78134 9.6804C8.76517 9.74102 8.73515 9.79748 8.69344 9.84574C8.65173 9.89399 8.59936 9.93284 8.54008 9.95951C8.4808 9.98617 8.41608 9.99999 8.35055 9.99998H7.6501C7.58465 9.99987 7.52003 9.98596 7.46086 9.95923C7.40168 9.93251 7.34943 9.89365 7.30782 9.84541C7.26621 9.79717 7.23627 9.74076 7.22015 9.68019C7.20402 9.61963 7.20211 9.55641 7.21455 9.49506L7.55588 7.80633C7.32545 7.72855 7.12184 7.5918 6.96731 7.41102C6.81278 7.23024 6.71327 7.01239 6.67966 6.78127C6.64605 6.55015 6.67963 6.31465 6.77673 6.10052C6.87383 5.88639 7.03071 5.70186 7.23024 5.56709C7.42977 5.43232 7.66425 5.35251 7.90808 5.33636C8.15191 5.32022 8.39569 5.36837 8.61279 5.47556C8.8299 5.58274 9.01196 5.74483 9.13909 5.94412C9.26622 6.1434 9.33353 6.37222 9.33366 6.60556Z"/>
  </mask>
  <path d="M9.33366 6.60556C9.3338 6.8689 9.24839 7.1258 9.08919 7.34086C8.92999 7.55592 8.70484 7.71855 8.44477 7.80633L8.78699 9.49506C8.79944 9.55648 8.79751 9.61977 8.78134 9.6804C8.76517 9.74102 8.73515 9.79748 8.69344 9.84574C8.65173 9.89399 8.59936 9.93284 8.54008 9.95951C8.4808 9.98617 8.41608 9.99999 8.35055 9.99998H7.6501C7.58465 9.99987 7.52003 9.98596 7.46086 9.95923C7.40168 9.93251 7.34943 9.89365 7.30782 9.84541C7.26621 9.79717 7.23627 9.74076 7.22015 9.68019C7.20402 9.61963 7.20211 9.55641 7.21455 9.49506L7.55588 7.80633C7.32545 7.72855 7.12184 7.5918 6.96731 7.41102C6.81278 7.23024 6.71327 7.01239 6.67966 6.78127C6.64605 6.55015 6.67963 6.31465 6.77673 6.10052C6.87383 5.88639 7.03071 5.70186 7.23024 5.56709C7.42977 5.43232 7.66425 5.35251 7.90808 5.33636C8.15191 5.32022 8.39569 5.36837 8.61279 5.47556C8.8299 5.58274 9.01196 5.74483 9.13909 5.94412C9.26622 6.1434 9.33353 6.37222 9.33366 6.60556Z" fill="#2BCFA1"/>
  <path d="M9.33366 6.60556L10.3337 6.60501V6.60501L9.33366 6.60556ZM8.44477 7.80633L8.12497 6.85885L7.28958 7.14082L7.46469 8.00495L8.44477 7.80633ZM8.78699 9.49506L7.80691 9.69367L7.80693 9.69373L8.78699 9.49506ZM8.35055 9.99998L8.35075 8.99998H8.35055V9.99998ZM7.6501 9.99998L7.6484 11H7.6501V9.99998ZM7.21455 9.49506L8.19461 9.69373L8.19473 9.69318L7.21455 9.49506ZM7.55588 7.80633L8.53606 8.00445L8.71065 7.14068L7.87569 6.85885L7.55588 7.80633ZM8.33366 6.6061C8.33368 6.65135 8.31928 6.70018 8.28545 6.74589L9.89293 7.93584C10.1775 7.55143 10.3339 7.08644 10.3337 6.60501L8.33366 6.6061ZM8.28545 6.74589C8.25108 6.79231 8.19684 6.83459 8.12497 6.85885L8.76458 8.75382C9.21284 8.60251 9.6089 8.31953 9.89293 7.93584L8.28545 6.74589ZM7.46469 8.00495L7.80691 9.69367L9.76707 9.29644L9.42485 7.60772L7.46469 8.00495ZM7.80693 9.69373C7.78869 9.60378 7.79159 9.51086 7.81513 9.42264L9.74755 9.93816C9.80343 9.72868 9.81019 9.50918 9.76706 9.29639L7.80693 9.69373ZM7.81513 9.42264C7.83863 9.33457 7.88133 9.25608 7.9369 9.19179L9.44998 10.4997C9.58897 10.3389 9.69171 10.1475 9.74755 9.93816L7.81513 9.42264ZM7.9369 9.19179C7.99232 9.12768 8.0589 9.07944 8.12985 9.04753L8.95032 10.8715C9.13983 10.7862 9.31115 10.6603 9.44998 10.4997L7.9369 9.19179ZM8.12985 9.04753C8.20069 9.01566 8.27597 8.99996 8.35075 8.99998L8.35034 11C8.55618 11 8.76091 10.9567 8.95032 10.8715L8.12985 9.04753ZM8.35055 8.99998H7.6501V11H8.35055V8.99998ZM7.65181 8.99998C7.7265 9.00011 7.80168 9.01591 7.87242 9.04785L7.04929 10.8706C7.23837 10.956 7.44279 10.9996 7.6484 11L7.65181 8.99998ZM7.87242 9.04785C7.94325 9.07984 8.00972 9.12812 8.06502 9.19223L6.55061 10.4986C6.68914 10.6592 6.86012 10.7852 7.04929 10.8706L7.87242 9.04785ZM8.06502 9.19223C8.12047 9.25651 8.16306 9.33495 8.18649 9.42294L6.2538 9.93745C6.30947 10.1466 6.41194 10.3378 6.55061 10.4986L8.06502 9.19223ZM8.18649 9.42294C8.20995 9.51108 8.21282 9.6039 8.19461 9.69373L6.23448 9.29639C6.1914 9.50892 6.19809 9.72817 6.2538 9.93745L8.18649 9.42294ZM8.19473 9.69318L8.53606 8.00445L6.5757 7.60821L6.23437 9.29694L8.19473 9.69318ZM7.87569 6.85885C7.81214 6.8374 7.76199 6.80167 7.72745 6.76126L6.20717 8.06078C6.48169 8.38193 6.83876 8.61971 7.23608 8.75382L7.87569 6.85885ZM7.72745 6.76126C7.69326 6.72127 7.67516 6.67799 7.66925 6.63736L5.69007 6.92518C5.75138 7.34678 5.9323 7.73922 6.20717 8.06078L7.72745 6.76126ZM7.66925 6.63736C7.66337 6.59693 7.66883 6.55462 7.68747 6.5135L5.86599 5.68754C5.69043 6.07469 5.62873 6.50336 5.69007 6.92518L7.66925 6.63736ZM7.68747 6.5135C7.70632 6.47193 7.73973 6.4297 7.78996 6.39577L6.67052 4.73841C6.3217 4.97402 6.04134 5.30085 5.86599 5.68754L7.68747 6.5135ZM7.78996 6.39577C7.84052 6.36162 7.90417 6.33881 7.97414 6.33418L7.84202 4.33855C7.42433 4.3662 7.01901 4.50303 6.67052 4.73841L7.78996 6.39577ZM7.97414 6.33418C8.04415 6.32954 8.11227 6.34368 8.1701 6.37223L9.05549 4.57888C8.67912 4.39307 8.25967 4.3109 7.84202 4.33855L7.97414 6.33418ZM8.1701 6.37223C8.22767 6.40065 8.26957 6.44045 8.29603 6.48193L9.98215 5.4063C9.75435 5.04921 9.43213 4.76483 9.05549 4.57888L8.1701 6.37223ZM8.29603 6.48193C8.32219 6.52294 8.33364 6.56576 8.33366 6.6061L10.3337 6.60501C10.3334 6.17867 10.2103 5.76387 9.98215 5.4063L8.29603 6.48193Z" fill="#2BCFA1" mask="url(#path-2-inside-1_30268_17133)"/>
</svg>