<svg width="249" height="252" viewBox="0 0 249 252" fill="none" xmlns="http://www.w3.org/2000/svg">
<rect x="8" y="214.806" width="42.6531" height="32.9694" rx="12" stroke="white" stroke-width="8"/>
<rect x="70.5713" y="173.837" width="42.6531" height="73.9388" rx="12" stroke="white" stroke-width="8"/>
<rect x="133.143" y="133.093" width="42.6531" height="114.908" rx="12" stroke="white" stroke-width="8"/>
<rect x="195.714" y="92.1221" width="42.6531" height="155.878" rx="12" stroke="white" stroke-width="8"/>
<path d="M4 169.838C4 169.838 78.521 135.772 122.066 106.894C173.175 72.9996 242.368 5.95996 242.368 5.95996" stroke="white" stroke-width="8" stroke-linecap="round"/>
<path fill-rule="evenodd" clip-rule="evenodd" d="M248.029 3.74852C248.029 5.81877 246.35 7.49704 244.28 7.49704H213.042C210.972 7.49704 209.294 5.81877 209.294 3.74852C209.294 1.67827 210.972 0 213.042 0L244.28 0C246.35 0 248.029 1.67827 248.029 3.74852Z" fill="white"/>
<path fill-rule="evenodd" clip-rule="evenodd" d="M244.28 0C246.35 0 248.029 1.67827 248.029 3.74852V35.4704C248.029 37.5406 246.35 39.2189 244.28 39.2189C242.21 39.2189 240.531 37.5406 240.531 35.4704V3.74852C240.531 1.67827 242.21 0 244.28 0Z" fill="white"/>
</svg>
