<svg width="59" height="59" viewBox="0 0 59 59" fill="none" xmlns="http://www.w3.org/2000/svg">
<rect x="12.4233" width="48" height="48" rx="8" transform="rotate(15 12.4233 0)" fill="white"/>
<g filter="url(#filter0_b_24115_979)">
<rect x="1" y="10" width="48" height="48" rx="8" fill="black" fill-opacity="0.75"/>
<rect x="1.5" y="10.5" width="47" height="47" rx="7.5" stroke="white"/>
<path d="M34 31L34 25M34 25H28M34 25L25 34M23 25H20.8C19.1198 25 18.2798 25 17.638 25.327C17.0735 25.6146 16.6146 26.0735 16.327 26.638C16 27.2798 16 28.1198 16 29.8V38.2C16 39.8802 16 40.7202 16.327 41.362C16.6146 41.9265 17.0735 42.3854 17.638 42.673C18.2798 43 19.1198 43 20.8 43H29.2C30.8802 43 31.7202 43 32.362 42.673C32.9265 42.3854 33.3854 41.9265 33.673 41.362C34 40.7202 34 39.8802 34 38.2V36" stroke="white" stroke-width="2" stroke-linecap="round" stroke-linejoin="round"/>
</g>
<defs>
<filter id="filter0_b_24115_979" x="-15" y="-6" width="80" height="80" filterUnits="userSpaceOnUse" color-interpolation-filters="sRGB">
<feFlood flood-opacity="0" result="BackgroundImageFix"/>
<feGaussianBlur in="BackgroundImageFix" stdDeviation="8"/>
<feComposite in2="SourceAlpha" operator="in" result="effect1_backgroundBlur_24115_979"/>
<feBlend mode="normal" in="SourceGraphic" in2="effect1_backgroundBlur_24115_979" result="shape"/>
</filter>
</defs>
</svg>
