<svg width="32" height="28" viewBox="0 0 32 28" fill="none" xmlns="http://www.w3.org/2000/svg">
<path d="M0 0.25V27.8056H26.0134V24.7169H3.1153V3.33861H26.0134V0.25H0Z" fill="white"/>
<path d="M28.5976 10.8395C28.5976 10.1848 28.3392 9.61543 27.8223 9.13159C27.3056 8.64758 26.5878 8.40558 25.6545 8.40558C24.865 8.40558 24.2476 8.56218 23.7883 8.88959C23.3289 9.21691 23.0992 9.64395 23.0992 10.1848C23.0992 10.4694 23.1566 10.7256 23.2714 10.9533C23.3862 11.1811 23.5729 11.3804 23.8457 11.5654C24.1185 11.7505 24.4773 11.9071 24.9368 12.0493C25.3818 12.1916 25.9561 12.3198 26.6451 12.4479C28.3822 12.761 29.703 13.2876 30.6219 14.0135C31.5406 14.7536 32 15.8354 32 17.2729V17.5576C32 18.3262 31.8565 19.0094 31.5837 19.6357C31.3109 20.2477 30.909 20.7743 30.3922 21.2155C29.8752 21.6568 29.2436 21.9841 28.4971 22.2261C27.7505 22.4538 26.9179 22.5819 25.9848 22.5819C24.8937 22.5819 23.9462 22.4254 23.1135 22.1265C22.2809 21.8276 21.5918 21.4006 21.0462 20.8597C20.5007 20.3189 20.07 19.6926 19.7972 18.9666C19.5101 18.2408 19.3666 17.4438 19.3666 16.5898V16.4474H22.4819C22.4819 17.4295 22.769 18.2123 23.3432 18.8101C23.9175 19.3937 24.8076 19.6926 26.0279 19.6926C26.9753 19.6926 27.6788 19.4933 28.1382 19.0806C28.5976 18.6677 28.8273 18.1839 28.8273 17.6288C28.8273 17.3584 28.7842 17.1164 28.6837 16.8602C28.5832 16.6182 28.4253 16.4047 28.1813 16.2055C27.9516 16.0062 27.6214 15.8354 27.205 15.6788C26.7887 15.5222 26.2719 15.3941 25.6403 15.2803C24.8076 15.138 24.0467 14.953 23.3432 14.7252C22.6541 14.4974 22.0512 14.1985 21.5344 13.8284C21.0175 13.4584 20.6299 12.9887 20.3428 12.4194C20.0556 11.85 19.9121 11.1669 19.9121 10.3556V10.2133C19.9121 9.54424 20.0556 8.91803 20.3284 8.3487C20.6012 7.77933 20.9889 7.2812 21.4913 6.8542C21.9937 6.42721 22.5824 6.09984 23.2857 5.87211C23.9893 5.64438 24.7645 5.51628 25.6403 5.51628C26.6164 5.51628 27.4778 5.65862 28.2387 5.92905C28.9996 6.19948 29.6313 6.56954 30.148 7.03924C30.6649 7.50895 31.0094 8.06405 31.3109 8.66181C31.6842 9.38773 31.6985 10.8679 31.6985 10.8679L28.5976 10.8395Z" fill="white"/>
</svg>
