<svg width="32" height="32" viewBox="0 0 32 32" fill="none" xmlns="http://www.w3.org/2000/svg">
<g clip-path="url(#clip0_7980_13503)">
<path fill-rule="evenodd" clip-rule="evenodd" d="M0 8C0 3.58172 3.58172 0 8 0H24C28.4183 0 32 3.58172 32 8V24C32 28.4183 28.4183 32 24 32H8C3.58172 32 0 28.4183 0 24V8ZM16.683 6H20.2344C20.2344 8.55072 22.3289 10.6377 25 10.7246V14.1449C23.2698 14.1159 21.6307 13.5652 20.2951 12.6377V19.6232C20.2951 23.1304 17.3204 26 13.6476 26C9.97472 26 7.00002 23.1594 7.00002 19.6232C7.00002 16.1159 9.91402 13.3043 13.5262 13.2464V16.6667C11.887 16.7246 10.5515 18.029 10.5515 19.6232C10.5515 21.2464 11.9174 22.5797 13.6172 22.5797C15.3171 22.5797 16.683 21.2464 16.683 19.6232V6Z" fill="#C2C2C2"/>
</g>
<defs>
<clipPath id="clip0_7980_13503">
<rect width="32" height="32" fill="white"/>
</clipPath>
</defs>
</svg>
