<svg width="32" height="32" viewBox="0 0 32 32" fill="none" xmlns="http://www.w3.org/2000/svg">
<path d="M28.7116 9.30659C28.7246 9.59993 28.7246 9.87993 28.7246 10.1733C28.7376 19.0666 22.1348 29.3333 10.0601 29.3333C6.49878 29.3333 3.00244 28.28 0 26.3066C0.519903 26.3733 1.03981 26.4 1.55971 26.4C4.51015 26.4 7.38262 25.3866 9.70918 23.5066C6.90171 23.4533 4.43217 21.5733 3.57433 18.8266C4.56214 19.0266 5.57595 18.9866 6.53777 18.7066C3.48335 18.0933 1.28676 15.3333 1.27376 12.1199C1.27376 12.0933 1.27376 12.0666 1.27376 12.0399C2.18359 12.5599 3.2104 12.8533 4.2502 12.8799C1.37774 10.9066 0.48091 6.97325 2.22258 3.89324C5.56296 8.10659 10.476 10.6533 15.753 10.9333C15.2201 8.59992 15.948 6.14658 17.6507 4.49324C20.2892 1.94657 24.4484 2.0799 26.9439 4.78658C28.4127 4.49324 29.8294 3.93324 31.1162 3.14657C30.6223 4.70658 29.5955 6.02658 28.2307 6.86658C29.5305 6.70658 30.8042 6.34658 32 5.81325C31.1162 7.17325 29.9984 8.34659 28.7116 9.30659Z" fill="#C2C2C2"/>
</svg>
