<svg xmlns="http://www.w3.org/2000/svg" width="24" height="24" viewBox="0 0 24 24" fill="none">
  <path fill-rule="evenodd" clip-rule="evenodd" d="M12 0C18.6274 0 24 5.37257 24 12C24 18.6274 18.6274 24 12 24C5.37257 24 0 18.6274 0 12C0 5.37257 5.37257 0 12 0Z" fill="#2775CA"/>
  <path fill-rule="evenodd" clip-rule="evenodd" d="M14.7581 3.54361C14.4872 3.45733 14.2657 3.61764 14.2657 3.90119V4.59855C14.2657 4.78869 14.4094 5.00508 14.5884 5.07051C17.4639 6.12052 19.5216 8.87604 19.5216 12.1021C19.5216 15.3282 17.4639 18.0836 14.5884 19.1337C14.3921 19.2054 14.2657 19.3972 14.2657 19.6057V20.303C14.2657 20.5865 14.4872 20.7468 14.7581 20.6606C18.3919 19.503 21.0232 16.109 21.0232 12.1021C21.0232 8.09527 18.3919 4.70113 14.7581 3.54361ZM9.76056 3.90119C9.76056 3.61764 9.53905 3.45733 9.26815 3.54361C5.63427 4.70113 3.00293 8.09521 3.00293 12.1021C3.00293 16.1091 5.63427 19.503 9.26815 20.6606C9.53904 20.7468 9.76056 20.5865 9.76056 20.303V19.6057C9.76056 19.4155 9.61683 19.1991 9.43775 19.1337C6.56232 18.0836 4.50462 15.3281 4.50462 12.1021C4.50462 8.87609 6.56232 6.12052 9.43775 5.07051C9.61683 5.00508 9.76056 4.78869 9.76056 4.59855V3.90119ZM12.3886 6.11347H11.6377C11.4304 6.11347 11.2623 6.28101 11.2623 6.48773V7.64731C9.77376 7.8583 8.8115 8.84589 8.8115 10.1129C8.8115 11.7528 9.80588 12.3892 11.9047 12.6707C13.3287 12.9032 13.7339 13.209 13.7339 14.0169C13.7339 14.8245 13.0463 15.3631 12.0768 15.3631C10.766 15.3631 10.3346 14.7912 10.1755 14.0511C10.1378 13.8757 9.98722 13.7475 9.80734 13.7475H8.95095C8.73522 13.7475 8.56656 13.9412 8.60364 14.1531C8.82172 15.399 9.62427 16.3131 11.2623 16.5346V17.7164C11.2623 17.9232 11.4304 18.0908 11.6377 18.0908H12.3886C12.5959 18.0908 12.7639 17.9232 12.7639 17.7164V16.534C14.3146 16.2885 15.3052 15.2123 15.3052 13.8822C15.3052 12.1322 14.2372 11.5447 12.1748 11.2633C10.6527 11.043 10.3583 10.688 10.3583 9.97814C10.3583 9.30521 10.8737 8.82771 11.8681 8.82771C12.7675 8.82771 13.2847 9.14067 13.4984 9.86231C13.5461 10.0234 13.6906 10.1372 13.8591 10.1372H14.6489C14.8691 10.1372 15.0405 9.93545 14.9936 9.72089C14.7435 8.58046 13.9725 7.89611 12.7639 7.68024V6.48773C12.7639 6.28101 12.5959 6.11347 12.3886 6.11347Z" fill="white"/>
</svg>