<svg width="32" height="32" viewBox="0 0 32 32" fill="none" xmlns="http://www.w3.org/2000/svg">
<g id="Frame 21380">
<path id="path981" opacity="0.9" d="M9.31997 4.78898H10.0571V3.20001H9.31997C8.53841 3.19943 7.76438 3.32805 7.04216 3.57849C6.31997 3.82893 5.66375 4.19629 5.11111 4.65955C4.55847 5.12281 4.12022 5.67286 3.82145 6.27826C3.52266 6.88363 3.36925 7.53246 3.36993 8.1876V11.8069C3.37151 12.5733 3.02333 13.3111 2.39674 13.8691C1.77016 14.4272 0.912649 14.7632 0 14.8083L0.0526552 15.6028L0 16.3973C0.912649 16.4423 1.77016 16.7783 2.39674 17.3364C3.02333 17.8945 3.37151 18.6323 3.36993 19.3986V23.5697C3.36714 24.9537 4.02001 26.2822 5.18509 27.2629C6.35016 28.2437 7.93208 28.7965 9.58325 28.8V27.211C8.43834 27.2104 7.3405 26.829 6.53093 26.1504C5.72136 25.4718 5.2662 24.5514 5.26552 23.5917V19.3986C5.26631 18.65 5.04837 17.9127 4.63073 17.251C4.2131 16.5893 3.60846 16.0234 2.86971 15.6028C3.60635 15.1804 4.20939 14.6141 4.62676 13.9528C5.04416 13.2915 5.26336 12.555 5.26552 11.8069V8.1876C5.27036 7.28747 5.69908 6.42539 6.4584 5.7889C7.21771 5.15242 8.24615 4.79304 9.31997 4.78898Z" fill="white"/>
<path id="path983" opacity="0.9" d="M22.682 4.78898H21.9429V3.20001H22.682C24.2605 3.20352 25.7728 3.73083 26.8864 4.66605C28.0001 5.60129 28.6241 6.86792 28.6212 8.1876V11.8069C28.6197 12.5733 28.9686 13.3111 29.5969 13.8691C30.2251 14.4272 31.0848 14.7632 32 14.8083L31.9472 15.6028L32 16.3973C31.0848 16.4423 30.2251 16.7783 29.5969 17.3364C28.9686 17.8945 28.6197 18.6323 28.6212 19.3986V23.5697C28.6241 24.9537 27.9695 26.2822 26.8014 27.2629C25.6331 28.2437 24.0472 28.7965 22.3916 28.8V27.211C23.5396 27.2104 24.6403 26.829 25.452 26.1504C26.2637 25.4718 26.7199 24.5514 26.7207 23.5917V19.3986C26.7199 18.65 26.9384 17.9127 27.3571 17.251C27.7758 16.5893 28.3821 16.0234 29.1228 15.6028C28.3842 15.1804 27.7794 14.6141 27.3611 13.9528C26.9427 13.2915 26.7228 12.555 26.7207 11.8069V8.1876C26.7236 7.74249 26.6212 7.30131 26.4195 6.88935C26.2178 6.47741 25.9209 6.10281 25.5455 5.78705C25.1704 5.47126 24.7243 5.22056 24.2328 5.04929C23.7413 4.87802 23.2144 4.78955 22.682 4.78898Z" fill="white"/>
<path id="path985" opacity="0.9" d="M21.8425 9.59998H24.2286L19.2557 13.9224C18.3635 14.6711 17.2032 15.0857 16 15.0857C14.7968 15.0857 13.6364 14.6711 12.7442 13.9224L7.77142 9.59998H10.1575L13.9261 12.8676C14.4889 13.3466 15.225 13.6124 15.9888 13.6124C16.7527 13.6124 17.4888 13.3466 18.0516 12.8676L21.8425 9.59998Z" fill="white"/>
<path id="path987" opacity="0.9" d="M10.151 22.4H7.77142L12.753 18.0853C13.6379 17.3323 14.797 16.9143 16 16.9143C17.203 16.9143 18.3621 17.3323 19.2469 18.0853L24.2286 22.4H21.849L18.0683 19.1126C17.507 18.6367 16.7729 18.3727 16.0111 18.3727C15.2493 18.3727 14.5152 18.6367 13.954 19.1126L10.151 22.4Z" fill="white"/>
</g>
</svg>
