<svg width="20" height="20" viewBox="0 0 20 20" fill="none" xmlns="http://www.w3.org/2000/svg">
<path d="M7.50033 2.5V4.16667M10.0003 2.5V4.16667M12.5003 2.5V4.16667M10.8337 7.5H7.50033M12.5003 10.8333H7.50033M6.83366 17.5H13.167C14.1004 17.5 14.5672 17.5 14.9237 17.3183C15.2372 17.1586 15.4922 16.9036 15.652 16.59C15.8337 16.2335 15.8337 15.7667 15.8337 14.8333V6C15.8337 5.06658 15.8337 4.59987 15.652 4.24335C15.4922 3.92974 15.2372 3.67477 14.9237 3.51499C14.5672 3.33333 14.1004 3.33333 13.167 3.33333H6.83366C5.90024 3.33333 5.43353 3.33333 5.07701 3.51499C4.7634 3.67477 4.50843 3.92974 4.34865 4.24335C4.16699 4.59987 4.16699 5.06657 4.16699 6V14.8333C4.16699 15.7667 4.16699 16.2335 4.34865 16.59C4.50843 16.9036 4.7634 17.1586 5.07701 17.3183C5.43353 17.5 5.90023 17.5 6.83366 17.5Z" stroke="black" stroke-width="1.5" stroke-linecap="round" stroke-linejoin="round"/>
</svg>
