<svg width="22" height="28" viewBox="0 0 22 28" fill="none" xmlns="http://www.w3.org/2000/svg">
<path d="M15.363 2.51119L21.0651 8.20219C21.5505 8.68559 21.7894 9.17471 21.7819 9.6676C21.7744 10.1605 21.5655 10.6098 21.1573 11.0173C20.7303 11.4439 20.2694 11.66 19.7765 11.6695C19.2836 11.6771 18.7944 11.4382 18.309 10.9548L12.4771 5.13488C11.8148 4.47329 11.1752 4.00503 10.56 3.73015C9.94482 3.45526 9.29767 3.41166 8.62041 3.60124C7.94127 3.78891 7.21323 4.27233 6.43249 5.04957C5.35641 6.12446 4.84279 7.13299 4.89549 8.07519C4.94815 9.01734 5.48243 9.99555 6.49647 11.006L12.3755 16.8752C12.8665 17.3643 13.1073 17.8534 13.0998 18.3387C13.0922 18.8259 12.8815 19.2752 12.4658 19.6903C12.0519 20.1036 11.5947 20.3197 11.0981 20.3368C10.6014 20.3538 10.1066 20.1169 9.61749 19.6278L3.91532 13.9368C2.98785 13.0117 2.31811 12.1358 1.90611 11.3093C1.49411 10.4827 1.33984 9.54816 1.44707 8.50551C1.54302 7.61262 1.82709 6.74816 2.30118 5.91026C2.77338 5.07232 3.45064 4.21546 4.32922 3.33773C5.3752 2.29318 6.37416 1.49318 7.3261 0.935833C8.27616 0.378488 9.19607 0.069483 10.084 0.00502814C10.9739 -0.0594268 11.8506 0.118772 12.7178 0.539624C13.5851 0.960477 14.4656 1.6164 15.3611 2.51119H15.363Z" fill="url(#paint0_linear_8187_3089)"/>
<path d="M6.41722 25.4746L0.716942 19.7836C0.231571 19.2983 -0.0073528 18.8111 0.000172331 18.3182C0.0076975 17.8253 0.21652 17.3761 0.624759 16.9685C1.05181 16.5419 1.51273 16.3258 2.00562 16.3163C2.49852 16.3087 2.98765 16.5457 3.47303 17.031L9.30311 22.8509C9.96722 23.5125 10.605 23.9808 11.2201 24.2557C11.8354 24.5306 12.4825 24.5722 13.1617 24.3846C13.8408 24.1969 14.5688 23.7135 15.3496 22.9343C16.4257 21.8594 16.9393 20.8509 16.8866 19.9088C16.8339 18.9666 16.2996 17.9884 15.2856 16.9761L12.1533 13.8765C11.6623 13.3874 11.4215 12.8983 11.429 12.413C11.4365 11.9258 11.6472 11.4765 12.063 11.0614C12.4769 10.6481 12.934 10.432 13.4307 10.4149C13.9273 10.3979 14.4221 10.6348 14.9112 11.1239L17.8649 14.0453C18.7923 14.9703 19.4621 15.8462 19.8741 16.6727C20.2861 17.4993 20.4403 18.4339 20.3331 19.4765C20.2372 20.3694 19.9531 21.2339 19.479 22.0718C19.0068 22.9097 18.3295 23.7666 17.451 24.6443C16.405 25.6888 15.406 26.4888 14.4541 27.0462C13.5021 27.6036 12.5822 27.9144 11.6924 27.9789C10.8025 28.0434 9.92584 27.8651 9.05858 27.4443C8.19128 27.0234 7.31083 26.3675 6.41534 25.4728L6.41722 25.4746Z" fill="url(#paint1_linear_8187_3089)"/>
<path d="M9.97278 10.7902C11.1292 10.7902 12.0667 9.84557 12.0667 8.68024C12.0667 7.51496 11.1292 6.57031 9.97278 6.57031C8.81637 6.57031 7.87891 7.51496 7.87891 8.68024C7.87891 9.84557 8.81637 10.7902 9.97278 10.7902Z" fill="url(#paint2_radial_8187_3089)"/>
<defs>
<linearGradient id="paint0_linear_8187_3089" x1="20.1273" y1="5.82679" x2="2.41164" y2="13.6397" gradientUnits="userSpaceOnUse">
<stop stop-color="#201C1B"/>
<stop offset="0.36" stop-color="#77390D"/>
<stop offset="0.67" stop-color="#EA8101"/>
<stop offset="1" stop-color="#F4B852"/>
</linearGradient>
<linearGradient id="paint1_linear_8187_3089" x1="2.14131" y1="22.3935" x2="22.6445" y2="16.3378" gradientUnits="userSpaceOnUse">
<stop stop-color="#1F1D1C"/>
<stop offset="0.37" stop-color="#77390D"/>
<stop offset="0.67" stop-color="#EA8101"/>
<stop offset="1" stop-color="#F4FB52"/>
</linearGradient>
<radialGradient id="paint2_radial_8187_3089" cx="0" cy="0" r="1" gradientUnits="userSpaceOnUse" gradientTransform="translate(9.97278 8.68217) scale(2.09387 2.10995)">
<stop stop-color="#F4B852"/>
<stop offset="0.33" stop-color="#EA8101"/>
<stop offset="0.64" stop-color="#77390D"/>
<stop offset="1" stop-color="#211C1D"/>
</radialGradient>
</defs>
</svg>
