<svg width="89" height="20" viewBox="0 0 89 20" fill="none" xmlns="http://www.w3.org/2000/svg">
<path d="M0.78125 3.66918H3.21644V13.3462C3.21644 15.0357 3.48016 16.2613 4.00757 17.0232C4.54323 17.7768 5.40441 18.1537 6.5911 18.1537C7.84368 18.1537 8.74607 17.7768 9.2982 17.0232C9.85032 16.2613 10.1264 15.0149 10.1264 13.2841V3.66918H12.2525V12.9239C12.2525 14.9197 12.0177 16.3524 11.5479 17.222C10.5508 19.0688 8.90675 19.9922 6.61578 19.9922C4.62974 19.9922 3.15877 19.4456 2.20282 18.3524C1.25513 17.2593 0.78125 15.5781 0.78125 13.3089V3.66918ZM16.3936 19.6071V6.11641H18.8286V8.65056C19.9497 6.76237 21.4742 5.81827 23.4025 5.81827C25.9487 5.81827 27.2221 7.33793 27.2221 10.3773V19.6071H24.787V11.0481C24.787 9.99631 24.622 9.25097 24.2925 8.81207C23.9709 8.36487 23.427 8.14123 22.6608 8.14123C21.4409 8.14123 20.1637 9.02323 18.8286 10.7872V19.6071H16.3936ZM36.4188 19.6071V7.95491H31.536V6.11641H38.8539V19.6071H36.4188ZM36.1099 3.06051V-0.0078125H39.1629V3.06051H36.1099ZM57.1364 4.04189V6.16609C55.348 5.47044 53.7575 5.12262 52.3651 5.12262C50.1646 5.12262 49.0645 5.86796 49.0645 7.35864C49.0645 7.96318 49.2706 8.45181 49.6824 8.82448C50.0946 9.18888 50.8568 9.56568 51.9695 9.95493L53.5269 10.5015L55.0102 11.0108C57.3096 11.8224 58.4591 13.1971 58.4591 15.135C58.4591 16.6091 57.8697 17.7893 56.6914 18.6754C55.5213 19.5533 53.9513 19.9922 51.9818 19.9922C50.6136 19.9922 48.8462 19.6982 46.6785 19.1102V16.6878C48.8379 17.6651 50.6302 18.1537 52.0558 18.1537C53.2591 18.1537 54.2191 17.9176 54.9362 17.4456C55.653 16.9653 56.0114 16.3234 56.0114 15.5201C56.0114 14.9073 55.7974 14.4228 55.3686 14.0667C54.9485 13.7106 54.0747 13.2883 52.748 12.7996L51.1163 12.2034C49.4929 11.5988 48.364 10.9777 47.7295 10.34C47.103 9.70231 46.7901 8.85346 46.7901 7.7934C46.7901 6.36072 47.2719 5.25098 48.2362 4.46421C49.2085 3.67749 50.5724 3.28411 52.3279 3.28411C53.7535 3.28411 55.3563 3.53669 57.1364 4.04189ZM70.2271 17.9797C68.752 19.222 67.2809 19.8431 65.8142 19.8431C64.586 19.8431 63.5725 19.4911 62.7731 18.7872C61.982 18.0833 61.5864 17.193 61.5864 16.1164C61.5864 14.7168 62.2043 13.5905 63.4408 12.7375C64.6765 11.8845 66.3086 11.458 68.3355 11.458H69.8438V10.3028C69.8438 9.35035 69.6337 8.67128 69.2132 8.26549C68.7932 7.85967 68.0966 7.65678 67.1243 7.65678C65.7153 7.65678 64.2565 8.05429 62.7486 8.84932V6.74993C64.4788 6.12885 66.1025 5.81827 67.6187 5.81827C69.3244 5.81827 70.5277 6.15783 71.2282 6.8369C71.9371 7.51598 72.2911 8.68781 72.2911 10.3524V16.0046C72.2911 16.8162 72.3777 17.3711 72.551 17.6692C72.7238 17.9591 73.0494 18.104 73.5276 18.104C73.6839 18.104 73.9394 18.0626 74.2938 17.9797L74.5165 19.4456C73.7005 19.7106 73.0822 19.8431 72.6621 19.8431C71.4588 19.8431 70.6471 19.222 70.2271 17.9797ZM69.8438 16.3897V12.986H69.1143C65.777 12.986 64.1081 13.8928 64.1081 15.7065C64.1081 16.3607 64.3225 16.8866 64.7509 17.2841C65.1793 17.6816 65.7481 17.8804 66.4566 17.8804C67.5198 17.8804 68.6488 17.3835 69.8438 16.3897ZM88.7812 19.5947C87.5617 19.81 86.3834 19.9176 85.2457 19.9176C83.26 19.9176 81.9084 19.5615 81.1912 18.8493C80.4745 18.1288 80.1161 16.7706 80.1161 14.7748V8.26549H76.7661V6.42698H80.1161V3.52011H82.5634V6.42698H88.5091V8.26549H82.5634V15.1723C82.5634 15.9425 82.6089 16.4725 82.6995 16.7624C82.7984 17.0522 83.0045 17.3048 83.3178 17.5201C83.8779 17.8928 84.6939 18.0791 85.7651 18.0791C86.7789 18.0791 87.784 17.9632 88.7812 17.7313V19.5947Z" fill="black"/>
</svg>
