<svg width="20" height="20" viewBox="0 0 20 20" fill="none" xmlns="http://www.w3.org/2000/svg">
<mask id="path-1-outside-1_11233_220" maskUnits="userSpaceOnUse" x="2.8252" y="0.577148" width="14" height="18" fill="black">
<rect fill="white" x="2.8252" y="0.577148" width="14" height="18"/>
<path d="M8.792 18.3447C8.34996 18.5545 7.96609 18.2849 7.58413 18.0814L6.84017 17.7045C6.23242 17.4274 5.6295 17.3457 5.03754 16.96C4.36879 16.5242 3.92574 15.7499 3.83945 14.963C3.76275 14.2636 4.01509 13.7335 4.13238 13.0577C4.16679 12.8592 4.17817 12.6515 4.19359 12.4506L4.22492 12.1358L4.22667 10.7628L4.19475 10.3713C4.18771 10.2796 4.18704 10.1883 4.17621 10.0967L4.12417 9.68062C4.05791 9.21371 4.05664 9.17033 4.44934 9.01971C4.86788 8.85913 5.01975 8.35333 5.08438 7.95383C5.19567 7.26608 5.15659 6.58962 4.93271 5.92379C4.84863 5.67383 4.69417 5.46733 4.58584 5.23046C4.387 4.79546 4.25629 4.30221 4.174 3.83165C4.09642 3.38785 4.07595 3.20183 4.54204 3.16191L4.90009 3.12501C5.64209 3.02972 6.35638 2.75511 6.98921 2.36035C7.15567 2.2565 7.12909 2.31074 7.21984 2.13085C7.38413 1.80515 7.83 1.54207 8.1925 1.59821C8.46221 1.63997 8.72659 1.73867 8.99584 1.79202C9.62221 1.91612 10.3322 1.92823 10.9578 1.79328C11.157 1.75032 11.3478 1.67928 11.5449 1.63408L11.7728 1.58511C12.2227 1.52422 12.598 1.82089 12.8065 2.19157C12.848 2.26527 12.859 2.26949 12.9318 2.31136L13.0988 2.41064C13.728 2.79689 14.3503 3.00126 15.0822 3.12068L15.367 3.15941C15.546 3.17536 15.7269 3.13411 15.8254 3.32718L15.8314 3.33931C15.9623 3.5897 15.5537 4.94596 15.4333 5.193C15.1468 5.78125 14.96 6.02683 14.8812 6.70858L14.862 6.98833C14.8171 7.62987 14.8955 8.75271 15.561 9.02521C15.9724 9.19371 15.9233 9.27879 15.8592 9.70725L15.8245 10.0115C15.8017 10.2126 15.7862 10.4226 15.7775 10.625L15.7718 12.1237C15.7811 12.3603 15.8104 12.5974 15.8403 12.832L15.8982 13.2857C15.9232 13.4351 15.9793 13.574 16.0088 13.7196L16.0581 13.9064C16.4431 15.075 15.8437 16.4705 14.7766 17.0629C14.1844 17.3917 13.5322 17.5915 12.9132 17.8593L12.4958 18.0522C11.8486 18.3867 11.5038 18.6493 10.8779 18.1477L10.1206 17.4863L8.792 18.3447ZM11.8126 2.2212C11.7596 2.23368 11.7498 2.24646 11.7202 2.29421L10.6882 4.11673C10.7763 4.28967 10.8673 4.50754 11.0046 4.64558C11.068 4.66492 11.1378 4.66542 11.2037 4.66896C11.2418 4.66812 11.2891 4.67387 11.3206 4.64996L11.9727 3.35198C12.078 3.14905 12.1911 2.94712 12.28 2.73634C12.4018 2.44748 12.0807 2.20931 11.8126 2.2212ZM8.02496 2.22855C7.835 2.2948 7.72104 2.43716 7.67563 2.62773C7.7495 2.83271 7.85842 3.0288 7.95679 3.22314L8.60392 4.50383C8.69559 4.70283 8.69196 4.70833 8.94763 4.65513C9.07975 4.60892 9.20117 4.32583 9.26196 4.20042L9.29734 4.12417L8.34946 2.37154C8.281 2.23907 8.16896 2.22019 8.02496 2.22855ZM9.12688 2.45085L9.33779 2.85865C9.50479 3.21337 9.81179 3.65222 9.93613 3.99447C9.98092 3.99382 10.0323 3.99806 10.0755 3.98595C10.1318 3.77917 10.266 3.58853 10.3761 3.40603L10.8944 2.4533L10.5757 2.49574C10.2123 2.52759 9.48946 2.55105 9.12688 2.45085ZM7.13113 3.02249L6.40488 3.37152C5.93063 3.57175 5.3115 3.7282 4.80617 3.77099C4.91317 4.19767 4.93025 4.50075 5.13388 4.93204C5.22059 5.11571 5.3535 5.28237 5.4255 5.47112C5.64804 6.05442 5.76588 6.6275 5.77021 7.25546C5.77554 8.03254 5.54667 9.18113 4.80334 9.55142C4.79592 9.55513 4.74629 9.57613 4.74367 9.58079C4.73509 9.596 4.85529 10.3226 4.86021 10.9649L4.86067 11.785C4.86009 11.98 4.8665 12.1798 4.84342 12.3737L4.72946 13.2227C4.72096 13.2767 4.71896 13.3318 4.70838 13.3855L4.60821 13.8282C4.45271 14.388 4.38367 14.688 4.53596 15.278L4.62584 15.5184C4.88859 16.0979 5.32713 16.4554 5.91075 16.6889L7.01342 17.0803L8.14613 17.656C8.46204 17.8253 8.54888 17.782 8.85242 17.5791L9.59167 17.0865C9.619 17.0696 9.66988 17.0453 9.68809 17.0196C9.43271 16.7084 9.43513 16.6077 9.43854 16.2316L9.43884 10.0375C9.43859 9.42717 9.45892 9.16458 9.66521 8.57408L9.74667 8.33942C9.79213 8.21488 9.75584 8.22433 9.6945 8.10308L7.35167 3.41099C7.29321 3.28794 7.23575 3.12779 7.15242 3.02089L7.13113 3.02249ZM12.8461 3.01015L10.8746 6.991C10.6807 7.40458 10.5753 7.66392 10.4767 8.12017C10.4078 8.43887 10.4048 8.42254 10.2681 8.72279C10.0427 9.218 10.0665 9.76417 10.0667 10.2948L10.0668 16.5356C10.118 16.631 10.2198 16.7164 10.2995 16.7882L10.9725 17.3899C11.1069 17.5117 11.2875 17.7388 11.4747 17.7746L11.4859 17.7768C11.6433 17.8052 11.8291 17.681 11.9624 17.612L13.1461 17.0902C13.3967 16.9963 13.6329 16.8754 13.877 16.7673C14.0719 16.681 14.2761 16.6114 14.465 16.5126C15.2806 16.086 15.6721 15.1285 15.4998 14.244L15.3305 13.5506C15.175 12.8252 15.1452 12.2362 15.1454 11.5019L15.1929 10.2014C15.2097 9.99463 15.2238 9.78996 15.257 9.58467C14.5542 9.19667 14.34 8.51608 14.2594 7.75042C14.1742 6.94129 14.2655 6.01087 14.6649 5.28958C14.9729 4.73329 15.0891 4.44333 15.1696 3.7756C14.5636 3.69905 13.9756 3.55466 13.4185 3.30035L12.8461 3.01015ZM10.3329 4.73646C10.3138 4.80788 10.3072 4.87925 10.3041 4.9525L10.3021 6.46579C10.3023 6.53921 10.2928 6.62904 10.3144 6.69967C10.4048 6.57729 10.4552 6.39529 10.5176 6.25525L10.994 5.30767L10.9699 5.29896C10.6405 5.34658 10.4743 4.95138 10.3329 4.73646ZM9.66775 4.74858C9.53879 4.96721 9.42596 5.20954 9.16154 5.27904C9.10646 5.2935 9.04788 5.29583 8.99409 5.31183L9.44342 6.17742L9.57088 6.42583C9.58838 6.46546 9.60209 6.49463 9.62829 6.52833L9.65163 6.57142C9.66363 6.59075 9.67134 6.60929 9.67934 6.63054L9.68488 5.61429C9.68513 5.32542 9.69434 5.03612 9.66775 4.74858Z"/>
</mask>
<path d="M8.792 18.3447C8.34996 18.5545 7.96609 18.2849 7.58413 18.0814L6.84017 17.7045C6.23242 17.4274 5.6295 17.3457 5.03754 16.96C4.36879 16.5242 3.92574 15.7499 3.83945 14.963C3.76275 14.2636 4.01509 13.7335 4.13238 13.0577C4.16679 12.8592 4.17817 12.6515 4.19359 12.4506L4.22492 12.1358L4.22667 10.7628L4.19475 10.3713C4.18771 10.2796 4.18704 10.1883 4.17621 10.0967L4.12417 9.68062C4.05791 9.21371 4.05664 9.17033 4.44934 9.01971C4.86788 8.85913 5.01975 8.35333 5.08438 7.95383C5.19567 7.26608 5.15659 6.58962 4.93271 5.92379C4.84863 5.67383 4.69417 5.46733 4.58584 5.23046C4.387 4.79546 4.25629 4.30221 4.174 3.83165C4.09642 3.38785 4.07595 3.20183 4.54204 3.16191L4.90009 3.12501C5.64209 3.02972 6.35638 2.75511 6.98921 2.36035C7.15567 2.2565 7.12909 2.31074 7.21984 2.13085C7.38413 1.80515 7.83 1.54207 8.1925 1.59821C8.46221 1.63997 8.72659 1.73867 8.99584 1.79202C9.62221 1.91612 10.3322 1.92823 10.9578 1.79328C11.157 1.75032 11.3478 1.67928 11.5449 1.63408L11.7728 1.58511C12.2227 1.52422 12.598 1.82089 12.8065 2.19157C12.848 2.26527 12.859 2.26949 12.9318 2.31136L13.0988 2.41064C13.728 2.79689 14.3503 3.00126 15.0822 3.12068L15.367 3.15941C15.546 3.17536 15.7269 3.13411 15.8254 3.32718L15.8314 3.33931C15.9623 3.5897 15.5537 4.94596 15.4333 5.193C15.1468 5.78125 14.96 6.02683 14.8812 6.70858L14.862 6.98833C14.8171 7.62987 14.8955 8.75271 15.561 9.02521C15.9724 9.19371 15.9233 9.27879 15.8592 9.70725L15.8245 10.0115C15.8017 10.2126 15.7862 10.4226 15.7775 10.625L15.7718 12.1237C15.7811 12.3603 15.8104 12.5974 15.8403 12.832L15.8982 13.2857C15.9232 13.4351 15.9793 13.574 16.0088 13.7196L16.0581 13.9064C16.4431 15.075 15.8437 16.4705 14.7766 17.0629C14.1844 17.3917 13.5322 17.5915 12.9132 17.8593L12.4958 18.0522C11.8486 18.3867 11.5038 18.6493 10.8779 18.1477L10.1206 17.4863L8.792 18.3447ZM11.8126 2.2212C11.7596 2.23368 11.7498 2.24646 11.7202 2.29421L10.6882 4.11673C10.7763 4.28967 10.8673 4.50754 11.0046 4.64558C11.068 4.66492 11.1378 4.66542 11.2037 4.66896C11.2418 4.66812 11.2891 4.67387 11.3206 4.64996L11.9727 3.35198C12.078 3.14905 12.1911 2.94712 12.28 2.73634C12.4018 2.44748 12.0807 2.20931 11.8126 2.2212ZM8.02496 2.22855C7.835 2.2948 7.72104 2.43716 7.67563 2.62773C7.7495 2.83271 7.85842 3.0288 7.95679 3.22314L8.60392 4.50383C8.69559 4.70283 8.69196 4.70833 8.94763 4.65513C9.07975 4.60892 9.20117 4.32583 9.26196 4.20042L9.29734 4.12417L8.34946 2.37154C8.281 2.23907 8.16896 2.22019 8.02496 2.22855ZM9.12688 2.45085L9.33779 2.85865C9.50479 3.21337 9.81179 3.65222 9.93613 3.99447C9.98092 3.99382 10.0323 3.99806 10.0755 3.98595C10.1318 3.77917 10.266 3.58853 10.3761 3.40603L10.8944 2.4533L10.5757 2.49574C10.2123 2.52759 9.48946 2.55105 9.12688 2.45085ZM7.13113 3.02249L6.40488 3.37152C5.93063 3.57175 5.3115 3.7282 4.80617 3.77099C4.91317 4.19767 4.93025 4.50075 5.13388 4.93204C5.22059 5.11571 5.3535 5.28237 5.4255 5.47112C5.64804 6.05442 5.76588 6.6275 5.77021 7.25546C5.77554 8.03254 5.54667 9.18113 4.80334 9.55142C4.79592 9.55513 4.74629 9.57613 4.74367 9.58079C4.73509 9.596 4.85529 10.3226 4.86021 10.9649L4.86067 11.785C4.86009 11.98 4.8665 12.1798 4.84342 12.3737L4.72946 13.2227C4.72096 13.2767 4.71896 13.3318 4.70838 13.3855L4.60821 13.8282C4.45271 14.388 4.38367 14.688 4.53596 15.278L4.62584 15.5184C4.88859 16.0979 5.32713 16.4554 5.91075 16.6889L7.01342 17.0803L8.14613 17.656C8.46204 17.8253 8.54888 17.782 8.85242 17.5791L9.59167 17.0865C9.619 17.0696 9.66988 17.0453 9.68809 17.0196C9.43271 16.7084 9.43513 16.6077 9.43854 16.2316L9.43884 10.0375C9.43859 9.42717 9.45892 9.16458 9.66521 8.57408L9.74667 8.33942C9.79213 8.21488 9.75584 8.22433 9.6945 8.10308L7.35167 3.41099C7.29321 3.28794 7.23575 3.12779 7.15242 3.02089L7.13113 3.02249ZM12.8461 3.01015L10.8746 6.991C10.6807 7.40458 10.5753 7.66392 10.4767 8.12017C10.4078 8.43887 10.4048 8.42254 10.2681 8.72279C10.0427 9.218 10.0665 9.76417 10.0667 10.2948L10.0668 16.5356C10.118 16.631 10.2198 16.7164 10.2995 16.7882L10.9725 17.3899C11.1069 17.5117 11.2875 17.7388 11.4747 17.7746L11.4859 17.7768C11.6433 17.8052 11.8291 17.681 11.9624 17.612L13.1461 17.0902C13.3967 16.9963 13.6329 16.8754 13.877 16.7673C14.0719 16.681 14.2761 16.6114 14.465 16.5126C15.2806 16.086 15.6721 15.1285 15.4998 14.244L15.3305 13.5506C15.175 12.8252 15.1452 12.2362 15.1454 11.5019L15.1929 10.2014C15.2097 9.99463 15.2238 9.78996 15.257 9.58467C14.5542 9.19667 14.34 8.51608 14.2594 7.75042C14.1742 6.94129 14.2655 6.01087 14.6649 5.28958C14.9729 4.73329 15.0891 4.44333 15.1696 3.7756C14.5636 3.69905 13.9756 3.55466 13.4185 3.30035L12.8461 3.01015ZM10.3329 4.73646C10.3138 4.80788 10.3072 4.87925 10.3041 4.9525L10.3021 6.46579C10.3023 6.53921 10.2928 6.62904 10.3144 6.69967C10.4048 6.57729 10.4552 6.39529 10.5176 6.25525L10.994 5.30767L10.9699 5.29896C10.6405 5.34658 10.4743 4.95138 10.3329 4.73646ZM9.66775 4.74858C9.53879 4.96721 9.42596 5.20954 9.16154 5.27904C9.10646 5.2935 9.04788 5.29583 8.99409 5.31183L9.44342 6.17742L9.57088 6.42583C9.58838 6.46546 9.60209 6.49463 9.62829 6.52833L9.65163 6.57142C9.66363 6.59075 9.67134 6.60929 9.67934 6.63054L9.68488 5.61429C9.68513 5.32542 9.69434 5.03612 9.66775 4.74858Z" fill="black"/>
<path d="M8.792 18.3447C8.34996 18.5545 7.96609 18.2849 7.58413 18.0814L6.84017 17.7045C6.23242 17.4274 5.6295 17.3457 5.03754 16.96C4.36879 16.5242 3.92574 15.7499 3.83945 14.963C3.76275 14.2636 4.01509 13.7335 4.13238 13.0577C4.16679 12.8592 4.17817 12.6515 4.19359 12.4506L4.22492 12.1358L4.22667 10.7628L4.19475 10.3713C4.18771 10.2796 4.18704 10.1883 4.17621 10.0967L4.12417 9.68062C4.05791 9.21371 4.05664 9.17033 4.44934 9.01971C4.86788 8.85913 5.01975 8.35333 5.08438 7.95383C5.19567 7.26608 5.15659 6.58962 4.93271 5.92379C4.84863 5.67383 4.69417 5.46733 4.58584 5.23046C4.387 4.79546 4.25629 4.30221 4.174 3.83165C4.09642 3.38785 4.07595 3.20183 4.54204 3.16191L4.90009 3.12501C5.64209 3.02972 6.35638 2.75511 6.98921 2.36035C7.15567 2.2565 7.12909 2.31074 7.21984 2.13085C7.38413 1.80515 7.83 1.54207 8.1925 1.59821C8.46221 1.63997 8.72659 1.73867 8.99584 1.79202C9.62221 1.91612 10.3322 1.92823 10.9578 1.79328C11.157 1.75032 11.3478 1.67928 11.5449 1.63408L11.7728 1.58511C12.2227 1.52422 12.598 1.82089 12.8065 2.19157C12.848 2.26527 12.859 2.26949 12.9318 2.31136L13.0988 2.41064C13.728 2.79689 14.3503 3.00126 15.0822 3.12068L15.367 3.15941C15.546 3.17536 15.7269 3.13411 15.8254 3.32718L15.8314 3.33931C15.9623 3.5897 15.5537 4.94596 15.4333 5.193C15.1468 5.78125 14.96 6.02683 14.8812 6.70858L14.862 6.98833C14.8171 7.62987 14.8955 8.75271 15.561 9.02521C15.9724 9.19371 15.9233 9.27879 15.8592 9.70725L15.8245 10.0115C15.8017 10.2126 15.7862 10.4226 15.7775 10.625L15.7718 12.1237C15.7811 12.3603 15.8104 12.5974 15.8403 12.832L15.8982 13.2857C15.9232 13.4351 15.9793 13.574 16.0088 13.7196L16.0581 13.9064C16.4431 15.075 15.8437 16.4705 14.7766 17.0629C14.1844 17.3917 13.5322 17.5915 12.9132 17.8593L12.4958 18.0522C11.8486 18.3867 11.5038 18.6493 10.8779 18.1477L10.1206 17.4863L8.792 18.3447ZM11.8126 2.2212C11.7596 2.23368 11.7498 2.24646 11.7202 2.29421L10.6882 4.11673C10.7763 4.28967 10.8673 4.50754 11.0046 4.64558C11.068 4.66492 11.1378 4.66542 11.2037 4.66896C11.2418 4.66812 11.2891 4.67387 11.3206 4.64996L11.9727 3.35198C12.078 3.14905 12.1911 2.94712 12.28 2.73634C12.4018 2.44748 12.0807 2.20931 11.8126 2.2212ZM8.02496 2.22855C7.835 2.2948 7.72104 2.43716 7.67563 2.62773C7.7495 2.83271 7.85842 3.0288 7.95679 3.22314L8.60392 4.50383C8.69559 4.70283 8.69196 4.70833 8.94763 4.65513C9.07975 4.60892 9.20117 4.32583 9.26196 4.20042L9.29734 4.12417L8.34946 2.37154C8.281 2.23907 8.16896 2.22019 8.02496 2.22855ZM9.12688 2.45085L9.33779 2.85865C9.50479 3.21337 9.81179 3.65222 9.93613 3.99447C9.98092 3.99382 10.0323 3.99806 10.0755 3.98595C10.1318 3.77917 10.266 3.58853 10.3761 3.40603L10.8944 2.4533L10.5757 2.49574C10.2123 2.52759 9.48946 2.55105 9.12688 2.45085ZM7.13113 3.02249L6.40488 3.37152C5.93063 3.57175 5.3115 3.7282 4.80617 3.77099C4.91317 4.19767 4.93025 4.50075 5.13388 4.93204C5.22059 5.11571 5.3535 5.28237 5.4255 5.47112C5.64804 6.05442 5.76588 6.6275 5.77021 7.25546C5.77554 8.03254 5.54667 9.18113 4.80334 9.55142C4.79592 9.55513 4.74629 9.57613 4.74367 9.58079C4.73509 9.596 4.85529 10.3226 4.86021 10.9649L4.86067 11.785C4.86009 11.98 4.8665 12.1798 4.84342 12.3737L4.72946 13.2227C4.72096 13.2767 4.71896 13.3318 4.70838 13.3855L4.60821 13.8282C4.45271 14.388 4.38367 14.688 4.53596 15.278L4.62584 15.5184C4.88859 16.0979 5.32713 16.4554 5.91075 16.6889L7.01342 17.0803L8.14613 17.656C8.46204 17.8253 8.54888 17.782 8.85242 17.5791L9.59167 17.0865C9.619 17.0696 9.66988 17.0453 9.68809 17.0196C9.43271 16.7084 9.43513 16.6077 9.43854 16.2316L9.43884 10.0375C9.43859 9.42717 9.45892 9.16458 9.66521 8.57408L9.74667 8.33942C9.79213 8.21488 9.75584 8.22433 9.6945 8.10308L7.35167 3.41099C7.29321 3.28794 7.23575 3.12779 7.15242 3.02089L7.13113 3.02249ZM12.8461 3.01015L10.8746 6.991C10.6807 7.40458 10.5753 7.66392 10.4767 8.12017C10.4078 8.43887 10.4048 8.42254 10.2681 8.72279C10.0427 9.218 10.0665 9.76417 10.0667 10.2948L10.0668 16.5356C10.118 16.631 10.2198 16.7164 10.2995 16.7882L10.9725 17.3899C11.1069 17.5117 11.2875 17.7388 11.4747 17.7746L11.4859 17.7768C11.6433 17.8052 11.8291 17.681 11.9624 17.612L13.1461 17.0902C13.3967 16.9963 13.6329 16.8754 13.877 16.7673C14.0719 16.681 14.2761 16.6114 14.465 16.5126C15.2806 16.086 15.6721 15.1285 15.4998 14.244L15.3305 13.5506C15.175 12.8252 15.1452 12.2362 15.1454 11.5019L15.1929 10.2014C15.2097 9.99463 15.2238 9.78996 15.257 9.58467C14.5542 9.19667 14.34 8.51608 14.2594 7.75042C14.1742 6.94129 14.2655 6.01087 14.6649 5.28958C14.9729 4.73329 15.0891 4.44333 15.1696 3.7756C14.5636 3.69905 13.9756 3.55466 13.4185 3.30035L12.8461 3.01015ZM10.3329 4.73646C10.3138 4.80788 10.3072 4.87925 10.3041 4.9525L10.3021 6.46579C10.3023 6.53921 10.2928 6.62904 10.3144 6.69967C10.4048 6.57729 10.4552 6.39529 10.5176 6.25525L10.994 5.30767L10.9699 5.29896C10.6405 5.34658 10.4743 4.95138 10.3329 4.73646ZM9.66775 4.74858C9.53879 4.96721 9.42596 5.20954 9.16154 5.27904C9.10646 5.2935 9.04788 5.29583 8.99409 5.31183L9.44342 6.17742L9.57088 6.42583C9.58838 6.46546 9.60209 6.49463 9.62829 6.52833L9.65163 6.57142C9.66363 6.59075 9.67134 6.60929 9.67934 6.63054L9.68488 5.61429C9.68513 5.32542 9.69434 5.03612 9.66775 4.74858Z" stroke="black" stroke-width="0.3" mask="url(#path-1-outside-1_11233_220)"/>
</svg>
