<svg width="40" height="41" viewBox="0 0 40 41" fill="none" xmlns="http://www.w3.org/2000/svg">
<path fill-rule="evenodd" clip-rule="evenodd" d="M20.0724 40.9958C19.6577 40.9958 19.2354 40.9826 18.8172 40.9567C16.645 40.8216 14.5262 40.3472 12.5199 39.5464C10.2042 38.6217 8.08336 37.2588 6.21628 35.4955C5.22771 34.5606 4.319 33.4968 3.51538 32.3338C2.2219 30.459 1.26292 28.3676 0.66507 26.1175C0.41558 25.1777 0.23335 24.1794 0.10798 23.0656C-0.00150036 22.0897 -0.0274004 21.0744 0.0287796 19.9615C0.13589 17.8066 0.59221 15.6855 1.38508 13.657C2.31239 11.2843 3.68621 9.11921 5.46838 7.22198C6.3436 6.28941 7.33346 5.43006 8.41047 4.66778C9.49503 3.90097 10.5413 3.29393 11.6091 2.81198C13.6242 1.90109 15.6733 1.33485 17.6994 1.12898C17.8094 1.11786 17.9193 1.10493 18.0291 1.092C18.2444 1.06664 18.4668 1.04046 18.6867 1.02908C19.0069 1.01288 19.333 1.00825 19.6484 1.00377C19.7911 1.00175 19.9337 0.999724 20.0763 0.996684C20.1251 0.996294 20.174 0.996094 20.2227 0.996094C21.7089 0.996094 23.2251 1.1807 24.7293 1.54478C26.0654 1.86781 27.3442 2.31384 28.53 2.87048C29.7904 3.46153 30.9883 4.19163 32.1921 5.10248C33.4025 6.01898 34.5053 7.08182 35.4699 8.26148C37.0002 10.135 38.1566 12.201 38.907 14.4022C39.3531 15.7115 39.6481 16.9279 39.8088 18.121C39.9155 18.9173 40.0103 19.6978 39.9987 20.4916C39.9962 20.6875 39.9965 20.8868 39.9967 21.0795C39.997 21.2364 39.9972 21.3932 39.996 21.55C39.9866 22.8675 39.8132 24.2158 39.4659 25.672C39.148 27.0019 38.7035 28.2803 38.1447 29.4718C37.2114 31.4595 35.9699 33.2669 34.4547 34.8439C33.4395 35.9003 32.3105 36.8376 31.0032 37.7095C29.0031 39.0434 26.7182 39.9991 24.2118 40.5499C22.8674 40.8457 21.4748 40.9958 20.0724 40.9958ZM19.7736 7.22894L19.7736 7.22994C19.5443 7.22994 19.3368 7.35038 19.2042 7.56038C19.1454 7.6531 19.1005 7.75665 19.0571 7.8568L19.0314 7.91588C18.8967 8.22323 18.7624 8.5308 18.628 8.8384C18.3785 9.40964 18.1208 9.99972 17.865 10.579L17.4825 11.4465L17.4797 11.4528C16.9421 12.6725 16.3862 13.9338 15.8301 15.1699C15.3617 16.2105 14.8801 17.266 14.4144 18.2869L14.4111 18.2941C14.0723 19.0368 13.7334 19.7794 13.3965 20.5231C12.5359 22.4208 11.6675 24.3457 10.8153 26.2444C10.372 27.2307 10.0259 28.0641 9.72628 28.867C9.54657 29.3492 9.42263 29.7852 9.34737 30.1999C9.31865 30.3598 9.30623 30.5136 9.31048 30.6571C9.31564 30.8101 9.39002 30.9461 9.52558 31.0504C9.61596 31.1202 9.70544 31.1541 9.79914 31.1541C9.85069 31.1541 9.90429 31.1435 9.95847 31.1224C10.1309 31.0562 10.2859 30.9507 10.4463 30.7903C10.7528 30.4829 10.9993 30.1397 11.2671 29.7553C11.636 29.2268 11.9559 28.6569 12.2652 28.1058C12.3605 27.936 12.4557 27.7665 12.5523 27.598C13.627 25.7245 14.6922 23.8456 15.5925 22.2547C16.4162 20.8018 17.0988 19.5758 17.7525 18.3145C18.3956 17.0756 19.0612 15.822 19.705 14.6096L19.7099 14.6003C20.0258 14.0054 20.3401 13.4135 20.6532 12.8209C20.8533 12.4421 21.0547 12.0552 21.2494 11.681L21.4488 11.2981C21.6187 10.972 21.7062 10.6341 21.7089 10.2937C21.6998 9.93488 21.638 9.63694 21.5199 9.38288C21.2128 8.72537 20.8849 8.1672 20.5173 7.67648C20.44 7.5729 20.3299 7.47104 20.1807 7.36508C20.0556 7.27669 19.9149 7.22996 19.7736 7.22994V7.22894ZM22.5576 12.5481L22.5576 12.5491C22.4366 12.5491 22.3183 12.5868 22.2246 12.6553C22.0471 12.785 21.9021 12.9513 21.7935 13.1494L21.7566 13.2169C21.5181 13.6533 21.2733 14.1011 21.0393 14.5453C20.9661 14.6826 20.9076 14.8261 20.8656 14.9719C20.8253 15.1134 20.7978 15.2569 20.7757 15.3722C20.7681 15.4114 20.7613 15.447 20.7549 15.4777C20.7638 15.9071 20.8376 16.2458 20.9943 16.5757C21.128 16.8576 21.2697 17.135 21.4155 17.4001L21.7313 17.9736C22.2453 18.9076 22.7753 19.8706 23.3073 20.8111C24.9236 23.6647 26.3676 26.2021 27.7218 28.5682C27.7636 28.6413 27.8052 28.7146 27.8468 28.7879C28.0948 29.2251 28.3513 29.6772 28.665 30.0829C28.8603 30.3358 29.0751 30.5807 29.2828 30.8175L29.3031 30.8407C29.4113 30.9646 29.5552 31.057 29.7432 31.1233C29.78 31.1359 29.8153 31.1421 29.8512 31.1421C29.9154 31.1421 29.9787 31.1227 30.0564 31.0792C30.1987 30.9992 30.2852 30.8716 30.3066 30.7102C30.3279 30.5499 30.3237 30.4216 30.294 30.3178C30.2655 30.2182 30.2377 30.1185 30.2098 30.0189C30.0911 29.5943 29.9692 29.1581 29.8044 28.741C29.5205 28.0248 29.21 27.3059 28.9097 26.6108C28.7777 26.3054 28.6467 26.0021 28.5174 25.6981C27.8817 24.2046 27.2416 22.6836 26.6225 21.2127L26.6137 21.1919L26.1018 19.9759C25.8156 19.2955 25.5303 18.6151 25.245 17.9347L25.2355 17.912C24.9533 17.2392 24.6712 16.5663 24.3882 15.8935C24.1404 15.3042 23.8917 14.7154 23.643 14.1268L23.3352 13.3978C23.3213 13.365 23.3076 13.332 23.294 13.299C23.2493 13.191 23.2032 13.0794 23.1471 12.9748C23.0983 12.8841 23.0308 12.7929 22.9518 12.7111C22.8531 12.6081 22.7094 12.5491 22.5576 12.5491V12.5481Z" fill="#232526"/>
<path d="M21 10.9415C20.9968 11.2777 20.9079 11.6017 20.7478 11.9071C20.4917 12.3954 20.237 12.8844 19.9781 13.3712C19.042 15.1314 18.0939 16.8855 17.1711 18.6523C16.5032 19.931 15.7952 21.1875 15.0806 22.4405C14.1035 24.1545 13.1251 25.8681 12.1383 27.577C11.7354 28.275 11.3589 28.9892 10.8943 29.6509C10.65 29.9989 10.403 30.3445 10.1 30.6459C9.96285 30.782 9.81192 30.8956 9.62817 30.966C9.47105 31.026 9.33544 30.9929 9.20922 30.8965C9.08426 30.8014 9.00618 30.6719 9.00099 30.5184C8.99605 30.3722 9.00988 30.2231 9.03631 30.0789C9.11634 29.6404 9.24627 29.2151 9.40312 28.7974C9.72399 27.9442 10.0817 27.1062 10.4569 26.2757C11.2861 24.4407 12.1193 22.6075 12.9549 20.7754C13.7377 19.0591 14.5318 17.3478 15.3101 15.6293C15.9748 14.1617 16.6255 12.688 17.2795 11.2157C17.6584 10.3634 18.0317 9.50873 18.4086 8.65574C18.4597 8.53974 18.5074 8.42005 18.5753 8.31361C18.7888 7.97835 19.1944 7.89644 19.5204 8.12624C19.6405 8.21085 19.759 8.30969 19.8465 8.42545C20.2316 8.93558 20.5455 9.4896 20.8167 10.0662C20.9442 10.3374 20.9918 10.6322 21 10.9415Z" fill="#FCFAF8"/>
<path d="M20 15.9893C20.0294 15.8657 20.0655 15.6657 20.1277 15.4723C20.1764 15.3219 20.2451 15.1741 20.3273 15.0356C20.6108 14.5578 20.9029 14.0839 21.1946 13.6099C21.3176 13.41 21.4823 13.2403 21.6904 13.1047C21.9398 12.9425 22.3121 12.9624 22.5272 13.1615C22.6138 13.2418 22.693 13.3336 22.752 13.4316C22.8354 13.57 22.8982 13.7181 22.9675 13.8633C23.3716 14.7132 23.7764 15.563 24.1788 16.4137C24.8366 17.8039 25.4911 19.1952 26.1498 20.5853C27.0735 22.5352 27.9951 24.4862 28.9273 26.4334C29.4228 27.4688 29.9402 28.496 30.4069 29.5426C30.6414 30.0687 30.797 30.6133 30.9705 31.154C31.0104 31.2791 31.0042 31.423 30.9848 31.5544C30.9611 31.7147 30.8648 31.8485 30.6975 31.9316C30.5842 31.9879 30.4724 32.0184 30.3374 31.9767C30.1407 31.9157 29.9661 31.826 29.8304 31.6884C29.5804 31.4345 29.3294 31.18 29.097 30.9134C28.6766 30.4311 28.3517 29.893 28.0121 29.3659C26.3129 26.7272 24.6214 24.0845 22.936 21.4388C22.1996 20.2826 21.482 19.1168 20.7602 17.953C20.5891 17.6772 20.4279 17.3959 20.2759 17.1113C20.1001 16.782 20.0112 16.4319 20 15.9893Z" fill="#FCFAF8"/>
</svg>
