<svg width="123" height="32" viewBox="0 0 123 32" fill="none" xmlns="http://www.w3.org/2000/svg">
<g clip-path="url(#clip0_3211_15673)">
<mask id="mask0_3211_15673" style="mask-type:luminance" maskUnits="userSpaceOnUse" x="0" y="0" width="123" height="32">
<path d="M122.505 0H0.904602V31.1795H122.505V0Z" fill="white"/>
</mask>
<g mask="url(#mask0_3211_15673)">
<path d="M0.904602 0V31.1795H29.7716V27.6847H4.36164V3.49481H29.7716V0H0.904602Z" fill="white"/>
<path d="M50.5779 13.9146L55.4367 6.29688H59.4514L53.6844 15.348V15.8311L59.77 24.8661H55.5961L50.5779 17.2644V13.9146Z" fill="white"/>
<path d="M71.2882 17.2644H75.9081L73.8371 8.05237H73.3591L71.2882 17.2644ZM76.6887 20.7592H70.5074L69.5835 24.8661H65.9671L70.3482 6.29688H76.848L81.2293 24.8661H77.6127L76.6887 20.7592Z" fill="white"/>
<path d="M90.4055 6.29688H93.8628V21.5322H102.21V24.8661H90.4055V6.29688Z" fill="white"/>
<path d="M32.6394 11.9823C32.6394 11.2414 32.3526 10.5972 31.779 10.0498C31.2056 9.5021 30.4091 9.22827 29.3734 9.22827C28.4973 9.22827 27.8122 9.40546 27.3025 9.77593C26.7927 10.1463 26.5378 10.6295 26.5378 11.2414C26.5378 11.5635 26.6015 11.8535 26.7289 12.1111C26.8563 12.3688 27.0635 12.5943 27.3661 12.8037C27.6688 13.013 28.0671 13.1902 28.5769 13.3512C29.0708 13.5122 29.7081 13.6573 30.4727 13.8022C32.4004 14.1565 33.8661 14.7524 34.8857 15.5737C35.9052 16.4112 36.415 17.6352 36.415 19.2617V19.5839C36.415 20.4536 36.2557 21.2266 35.953 21.9353C35.6503 22.6278 35.2043 23.2237 34.6308 23.7229C34.0571 24.2222 33.3563 24.5926 32.5278 24.8664C31.6994 25.124 30.7754 25.269 29.7399 25.269C28.5291 25.269 27.4777 25.0919 26.5537 24.7537C25.6297 24.4155 24.865 23.9323 24.2596 23.3202C23.6542 22.7083 23.1763 21.9997 22.8736 21.1783C22.555 20.357 22.3957 19.4551 22.3957 18.4888V18.3277H25.8527C25.8527 19.4389 26.1713 20.3248 26.8086 21.0012C27.4459 21.6615 28.4336 21.9997 29.7877 21.9997C30.8391 21.9997 31.6198 21.7742 32.1296 21.3072C32.6394 20.8401 32.8943 20.2926 32.8943 19.6645C32.8943 19.3585 32.8464 19.0846 32.7349 18.7948C32.6234 18.521 32.4482 18.2794 32.1774 18.054C31.9225 17.8285 31.556 17.6352 31.094 17.458C30.632 17.2808 30.0585 17.1359 29.3576 17.0071C28.4336 16.8461 27.5892 16.6367 26.8086 16.379C26.0439 16.1213 25.3748 15.7831 24.8013 15.3643C24.2278 14.9456 23.7976 14.4141 23.479 13.77C23.1603 13.1257 23.0011 12.3527 23.0011 11.4347V11.2737C23.0011 10.5167 23.1603 9.80811 23.463 9.1639C23.7658 8.51966 24.1959 7.95601 24.7535 7.47286C25.311 6.98971 25.9643 6.61929 26.7448 6.36161C27.5255 6.10393 28.3857 5.95898 29.3576 5.95898C30.4409 5.95898 31.3968 6.12004 32.2411 6.42604C33.0854 6.73203 33.7864 7.15076 34.3599 7.68223C34.9334 8.21371 35.3158 8.84182 35.6503 9.51819C36.0646 10.3396 36.0805 12.0145 36.0805 12.0145L32.6394 11.9823Z" fill="white"/>
<path d="M110.271 6.29688V24.8661H122.188V21.5322H113.744V9.64671H122.188V6.29688H110.271Z" fill="white"/>
<path d="M48.1085 6.29688H44.6514V24.8661H48.1085V6.29688Z" fill="white"/>
<path d="M119.543 13.915H116.23V17.2649H119.543V13.915Z" fill="white"/>
</g>
</g>
<defs>
<clipPath id="clip0_3211_15673">
<rect width="121.6" height="32" fill="white" transform="translate(0.904602)"/>
</clipPath>
</defs>
</svg>
