<svg width="121" height="87" viewBox="0 0 121 87" fill="none" xmlns="http://www.w3.org/2000/svg">
<path d="M111.858 86.9052C116.904 86.3794 120.561 81.8176 120.026 76.7161C119.491 71.6146 114.967 67.9052 109.921 68.431C106.141 68.8249 101.84 69.806 98.6483 67.7396L23.1172 18.837C19.9532 16.7884 19.4598 12.2385 19.0669 8.4909C18.5321 3.38941 14.0081 -0.319929 8.96236 0.20586C3.91662 0.731649 0.259836 5.29346 0.794695 10.3949C1.32955 15.4964 5.85351 19.2058 10.8993 18.68C14.7889 18.2747 19.2367 17.1995 22.5204 19.3255L97.6498 67.9661C100.893 70.0655 101.351 74.7793 101.754 78.6201C102.288 83.7216 106.812 87.4309 111.858 86.9052Z" fill="#2BCFA1"/>
</svg>
