<svg width="87" height="84" viewBox="0 0 87 84" fill="none" xmlns="http://www.w3.org/2000/svg">
<path d="M77.1608 83.296C82.2324 83.296 86.3438 79.1721 86.3438 74.085C86.3438 68.9979 82.2324 64.8739 77.1608 64.8739C73.4333 64.8739 69.0746 65.1823 66.3596 62.6283L21.8263 20.7356C19.0401 18.1147 19.2598 13.5361 19.2598 9.711C19.2598 4.62391 15.1485 0.5 10.0769 0.5C5.00532 0.5 0.89399 4.62391 0.89399 9.711C0.89399 14.7981 5.00532 18.922 10.0769 18.922C13.9096 18.922 18.4252 18.5459 21.2169 21.172L65.4028 62.7373C68.2603 65.4253 67.9779 70.1618 67.9779 74.085C67.9779 79.1721 72.0893 83.296 77.1608 83.296Z" fill="#2BCFA1"/>
</svg>
