<svg width="77" height="87" viewBox="0 0 77 87" fill="none" xmlns="http://www.w3.org/2000/svg">
<path d="M0.28807 76.9666C0.28807 82.0482 4.36638 86.1676 9.39733 86.1676C14.4283 86.1676 18.5067 82.0482 18.5067 76.9666C18.5067 73.1679 18.0289 68.7932 20.4323 65.8514L56.474 21.7348C58.8174 18.8664 63.3234 18.9021 67.0274 18.9021C72.0583 18.9021 76.1367 14.7827 76.1367 9.70117C76.1367 4.61962 72.0583 0.500099 67.0274 0.5001C61.9964 0.5001 57.918 4.61962 57.918 9.70117C57.918 13.6089 58.4714 18.1392 55.9991 21.1655L20.2591 64.9148C17.8571 67.8551 13.194 67.7657 9.39733 67.7657C4.36638 67.7657 0.28807 71.8851 0.28807 76.9666Z" fill="#2BCFA1"/>
</svg>
