<svg width="20" height="20" viewBox="0 0 20 20" fill="none" xmlns="http://www.w3.org/2000/svg">
<g clip-path="url(#clip0_8781_3474)">
<path fill-rule="evenodd" clip-rule="evenodd" d="M13.3313 5.499C12.8315 4.9529 11.9979 4.806 11.3717 5.30606C10.7454 5.80613 10.6572 6.6422 11.1491 7.23363C11.558 7.72536 12.7955 8.76246 13.201 9.09813C13.2464 9.13568 13.2691 9.15446 13.2956 9.16184C13.3187 9.16828 13.3439 9.16828 13.367 9.16184C13.3935 9.15446 13.4162 9.13568 13.4616 9.09813C13.8671 8.76246 15.1046 7.72536 15.5135 7.23363C16.0053 6.6422 15.9279 5.80087 15.2909 5.30606C14.6539 4.81126 13.8311 4.9529 13.3313 5.499Z" stroke="black" stroke-linecap="round" stroke-linejoin="round"/>
<path d="M9.38128 18.3334H3.95271H3.95269C3.15262 18.3334 2.75259 18.3334 2.44701 18.1838C2.1782 18.0522 1.95966 17.8422 1.8227 17.584C1.66699 17.2904 1.66699 16.906 1.66699 16.1373V8.86283C1.66699 8.09412 1.66699 7.70978 1.8227 7.41617C1.95966 7.15791 2.1782 6.94794 2.44701 6.81635C2.75259 6.66675 3.15263 6.66675 3.95271 6.66675H9.38128C10.1813 6.66675 10.5814 6.66675 10.887 6.81635C11.1558 6.94794 11.3743 7.15791 11.5113 7.41617C11.667 7.70978 11.667 8.09413 11.667 8.86283V16.1373C11.667 16.906 11.667 17.2904 11.5113 17.584C11.3743 17.8422 11.1558 18.0522 10.887 18.1838C10.5814 18.3334 10.1814 18.3334 9.38129 18.3334H9.38128Z" stroke="black" stroke-width="1.5" stroke-linecap="round" stroke-linejoin="round"/>
<path d="M12.083 13.3334H16.0473C16.8474 13.3334 17.2474 13.3334 17.553 13.1838C17.8218 13.0522 18.0404 12.8422 18.1773 12.584C18.333 12.2904 18.333 11.906 18.333 11.1373V3.86283C18.333 3.09413 18.333 2.70978 18.1773 2.41617C18.0404 2.15791 17.8218 1.94794 17.553 1.81635C17.2474 1.66675 16.8474 1.66675 16.0473 1.66675H10.6187C9.81865 1.66675 9.41861 1.66675 9.11302 1.81635C8.84422 1.94794 8.62567 2.15791 8.48871 2.41617C8.33301 2.70978 8.33301 3.09412 8.33301 3.86283V6.52786" stroke="black" stroke-width="1.5" stroke-linecap="round" stroke-linejoin="round"/>
<path d="M7.18721 13.9786C6.89975 14.2293 6.43231 14.2293 6.14484 13.9786L4.41256 12.4629C4.17259 12.2532 4.0951 11.8555 4.24008 11.5761L4.84001 10.4146C4.95749 10.1852 5.26995 10 5.53492 10H7.79964C8.06461 10 8.37707 10.1856 8.49455 10.4143L9.09448 11.5761C9.23946 11.8555 9.15947 12.2532 8.922 12.4627C8.05886 13.225 8.05561 13.2217 7.18721 13.9786Z" stroke="black" stroke-linecap="round" stroke-linejoin="round"/>
</g>
<defs>
<clipPath id="clip0_8781_3474">
<rect width="20" height="20" fill="white"/>
</clipPath>
</defs>
</svg>
