<svg width="24" height="24" viewBox="0 0 24 24" fill="none" xmlns="http://www.w3.org/2000/svg">
<path fill-rule="evenodd" clip-rule="evenodd" d="M15.9979 6.5988C15.3981 5.94348 14.3979 5.7672 13.6464 6.36728C12.8949 6.96735 12.7891 7.97065 13.3793 8.68036C13.8699 9.27043 15.3549 10.5149 15.8416 10.9178C15.8961 10.9628 15.9233 10.9854 15.9551 10.9942C15.9828 11.0019 16.0131 11.0019 16.0408 10.9942C16.0726 10.9854 16.0998 10.9628 16.1543 10.9178C16.641 10.5149 18.1259 9.27043 18.6166 8.68036C19.2068 7.97065 19.1139 6.96104 18.3495 6.36728C17.585 5.77351 16.5978 5.94348 15.9979 6.5988Z" stroke="black" stroke-linecap="round" stroke-linejoin="round"/>
<path d="M11.2571 22H4.74286C3.78276 22 3.30272 22 2.93602 21.8205C2.61345 21.6626 2.3512 21.4106 2.18685 21.1007C2 20.7484 2 20.2871 2 19.3647V10.6353C2 9.71285 2 9.25163 2.18685 8.89931C2.3512 8.58939 2.61345 8.33742 2.93602 8.17952C3.30272 8 3.78277 8 4.74286 8H11.2571C12.2172 8 12.6973 8 13.064 8.17952C13.3865 8.33742 13.6488 8.58939 13.8131 8.89931C14 9.25163 14 9.71285 14 10.6353V10.6353V19.3647V19.3647C14 20.2871 14 20.7484 13.8131 21.1007C13.6488 21.4106 13.3865 21.6626 13.064 21.8205C12.6973 22 12.2172 22 11.2571 22Z" stroke="black" stroke-width="1.5" stroke-linecap="round" stroke-linejoin="round"/>
<path d="M14.5 16H19.2571C20.2172 16 20.6973 16 21.064 15.8205C21.3865 15.6626 21.6488 15.4106 21.8131 15.1007C22 14.7484 22 14.2871 22 13.3647V4.63529C22 3.71286 22 3.25163 21.8131 2.89931C21.6488 2.58939 21.3865 2.33742 21.064 2.17952C20.6973 2 20.2172 2 19.2571 2H12.7429C11.7828 2 11.3027 2 10.936 2.17952C10.6134 2.33742 10.3512 2.58939 10.1868 2.89931C10 3.25163 10 3.71285 10 4.63529V7.83333" stroke="black" stroke-width="1.5" stroke-linecap="round" stroke-linejoin="round"/>
<path d="M8.62427 16.7744C8.27931 17.0752 7.71838 17.0752 7.37342 16.7744L5.29468 14.9555C5.00672 14.7039 4.91373 14.2266 5.08771 13.8914L5.80762 12.4975C5.9486 12.2222 6.32355 12 6.64151 12H9.35918C9.67714 12 10.0521 12.2228 10.1931 12.4972L10.913 13.8914C11.087 14.2266 10.991 14.7039 10.706 14.9552C9.67024 15.8699 9.66634 15.8661 8.62427 16.7744Z" stroke="black" stroke-linecap="round" stroke-linejoin="round"/>
</svg>
