<svg width="214" height="30" viewBox="0 0 214 30" fill="none" xmlns="http://www.w3.org/2000/svg">
<path d="M30.0474 15.0583C30.0684 16.1111 29.9534 17.1122 29.7425 18.1018C29.4261 19.5814 28.916 20.9882 28.1701 22.3109C27.7464 23.0631 27.267 23.7752 26.7262 24.4451C26.0168 25.3218 25.2153 26.1104 24.3236 26.8052C23.3936 27.5306 22.4004 28.1527 21.3227 28.6389C20.0955 29.194 18.8165 29.5826 17.4858 29.8027C16.3353 29.9941 15.179 30.04 14.019 29.9673C12.4888 29.8716 11.0046 29.5385 9.57419 28.9854C7.72763 28.2733 6.09392 27.2225 4.65963 25.8635C3.90222 25.1438 3.22917 24.3494 2.63283 23.49C1.51493 21.8764 0.772853 20.1039 0.343332 18.1975C0.0461197 16.8863 -0.0516729 15.5503 0.0250272 14.2066C0.16117 11.8063 0.815038 9.5553 2.02306 7.47276C3.19849 5.44955 4.75742 3.78811 6.71136 2.49417C7.34797 2.07307 8.00759 1.69599 8.70172 1.37825C9.95769 0.80402 11.2673 0.405886 12.6345 0.187679C13.7524 0.00966703 14.8761 -0.0362715 16.0036 0.0268939C17.2653 0.0996299 18.5002 0.338893 19.7024 0.727456C20.7935 1.07965 21.8347 1.54478 22.8126 2.14389C23.8327 2.76789 24.7704 3.49525 25.6218 4.33937C26.4616 5.172 27.1864 6.08886 27.8135 7.08611C28.3964 8.01445 28.8604 9.00021 29.219 10.0338C29.5392 10.9564 29.7751 11.902 29.9093 12.8705C30.0109 13.6113 30.0761 14.352 30.0474 15.0583ZM16.3104 6.94638C16.3027 6.7186 16.2586 6.47359 16.1493 6.24773C15.946 5.83045 15.7179 5.42849 15.4475 5.05141C15.3708 4.94231 15.2768 4.85043 15.1637 4.7777C14.901 4.60543 14.5961 4.66477 14.4293 4.92891C14.3775 5.01122 14.3392 5.10501 14.3008 5.19689C14.0075 5.86299 13.7198 6.5291 13.4245 7.19521C12.9087 8.35899 12.3948 9.52276 11.8733 10.6827C11.275 12.0092 10.6672 13.3299 10.067 14.6545C9.41887 16.0843 8.77267 17.5161 8.13031 18.9478C7.83885 19.5967 7.56081 20.2494 7.31153 20.9155C7.18881 21.2409 7.09102 21.574 7.02774 21.9147C7.00665 22.0276 6.99898 22.1444 7.0009 22.2573C7.00282 22.3205 7.0335 22.3855 7.06609 22.441C7.1658 22.6191 7.35372 22.6707 7.53396 22.5865C7.67202 22.5214 7.78516 22.4276 7.8887 22.3205C8.10921 22.0946 8.28946 21.8381 8.46971 21.5797C8.83978 21.0495 9.13891 20.4772 9.45914 19.9183C10.207 18.6128 10.9471 17.3017 11.693 15.9963C12.251 15.0201 12.7994 14.04 13.321 13.0428C14.0496 11.6512 14.7879 10.2654 15.5204 8.87771C15.7217 8.4968 15.9192 8.11589 16.1167 7.73499C16.2394 7.4919 16.3085 7.23923 16.3104 6.94638ZM15.5875 10.8971C15.5971 10.9909 15.6047 11.056 15.6124 11.123C15.6373 11.3565 15.7083 11.5747 15.8176 11.7814C16.0266 12.1757 16.2375 12.57 16.4542 12.9586C16.9585 13.8697 17.4628 14.7808 17.9767 15.6881C18.6363 16.8538 19.3055 18.0137 19.9709 19.1756C20.3736 19.8781 20.7724 20.5844 21.1808 21.2849C21.4052 21.6716 21.664 22.0353 21.9785 22.3587C22.084 22.4678 22.2009 22.554 22.3467 22.6057C22.433 22.6363 22.5077 22.6152 22.5806 22.5712C22.688 22.508 22.7474 22.4123 22.7704 22.2937C22.7934 22.1788 22.7819 22.0659 22.7493 21.951C22.6228 21.505 22.5039 21.0591 22.316 20.6341C22.1568 20.2705 22.0149 19.901 21.8615 19.5354C21.7081 19.1698 21.5452 18.8081 21.3898 18.4425C20.8568 17.1792 20.3275 15.912 19.7945 14.6487C19.1387 13.0964 18.4771 11.546 17.8194 9.99363C17.7101 9.73523 17.6085 9.47299 17.4973 9.21459C17.4455 9.094 17.3842 8.97533 17.3094 8.86622C17.1541 8.63844 16.8664 8.60399 16.6574 8.77817C16.5424 8.87388 16.4465 8.98873 16.3736 9.11888C16.2126 9.40791 16.0496 9.69503 15.8981 9.9898C15.8137 10.1506 15.737 10.3171 15.6795 10.4875C15.6297 10.6272 15.6124 10.7765 15.5875 10.8971Z" fill="#353536"/>
<path d="M58.1423 9.52462C58.0867 9.54376 58.0406 9.56864 57.9927 9.57055C57.8431 9.57821 57.6955 9.5763 57.5459 9.5763C55.4424 9.5763 53.337 9.5763 51.2335 9.5763C51.0686 9.5763 50.9018 9.58204 50.7369 9.58778C50.6736 9.58969 50.618 9.64903 50.6142 9.71603C50.6122 9.74857 50.6065 9.78111 50.6065 9.81556C50.6065 11.3047 50.6065 12.792 50.6065 14.2812C50.6065 14.3309 50.6103 14.3826 50.6276 14.4266C50.6372 14.4534 50.6736 14.4879 50.6985 14.4898C50.8481 14.4994 50.9957 14.5032 51.1453 14.5032C52.9842 14.5032 54.8231 14.4994 56.662 14.5051C57.4961 14.5089 57.3657 14.3788 57.3753 15.2018C57.3791 15.5158 57.3695 15.8297 57.3657 16.1436C57.3657 16.2029 57.2986 16.2642 57.2353 16.2661C57.0857 16.2699 56.9381 16.2757 56.7885 16.2757C54.9669 16.2757 53.1433 16.2757 51.3217 16.2757C51.222 16.2757 51.1223 16.2757 51.0226 16.2757C50.5835 16.2757 50.6026 16.2469 50.6046 16.7178C50.6046 16.8173 50.6046 16.9169 50.6046 17.0164C50.6046 18.653 50.6046 20.2914 50.6026 21.928C50.6026 22.0926 50.6257 22.2572 50.572 22.4352C50.4953 22.4467 50.4147 22.4659 50.3342 22.4678C49.3659 22.4908 49.1166 22.4831 48.7925 22.4238C48.7829 22.3816 48.7638 22.3357 48.7618 22.2898C48.7561 22.1577 48.758 22.0256 48.758 21.8936C48.758 17.3954 48.7561 12.8973 48.7599 8.39912C48.7599 7.77321 48.6775 7.83638 49.3045 7.83638C52.0715 7.83446 54.8384 7.83638 57.6054 7.83638C57.7377 7.83638 57.87 7.83638 58.0023 7.84403C58.0483 7.84595 58.0924 7.87274 58.1461 7.89189C58.1768 8.37424 58.1557 8.85468 58.1595 9.33321C58.1634 9.39446 58.1499 9.45954 58.1423 9.52462Z" fill="#353536"/>
<path d="M208.498 22.4334C208.03 22.4832 207.121 22.4793 206.764 22.4353C206.757 22.4219 206.745 22.4104 206.739 22.397C206.732 22.3817 206.722 22.3664 206.722 22.3511C206.718 20.7471 206.714 19.1431 206.711 17.5256C205.769 15.9197 204.824 14.308 203.878 12.6964C202.943 11.1 202.005 9.50555 201.065 7.89579C201.134 7.87091 201.18 7.84028 201.227 7.84028C201.758 7.83646 202.287 7.83837 202.818 7.83837C202.908 7.83837 202.975 7.88048 203.023 7.95513C203.138 8.13697 203.251 8.31881 203.365 8.50256C204.686 10.6234 206.007 12.7423 207.328 14.8612C207.397 14.9722 207.474 15.0813 207.552 15.1866C207.562 15.2 207.625 15.2 207.637 15.1847C207.717 15.0794 207.794 14.9741 207.863 14.8612C208.712 13.4811 209.562 12.0992 210.409 10.7191C210.929 9.87306 211.451 9.02894 211.97 8.18291C212.022 8.09869 212.072 8.01255 212.128 7.93025C212.166 7.87474 212.223 7.83645 212.294 7.83837C212.841 7.84028 213.387 7.8422 213.934 7.84411C213.974 7.84411 214.014 7.91493 213.995 7.9513C213.918 8.09677 213.844 8.24416 213.761 8.38772C212.104 11.2493 210.446 14.1128 208.787 16.9744C208.697 17.1313 208.578 17.2826 208.532 17.4529C208.486 17.6233 208.507 17.8128 208.507 17.9946C208.505 19.3019 208.507 20.6093 208.505 21.9147C208.507 22.0812 208.5 22.2458 208.498 22.4334Z" fill="#353536"/>
<path d="M129.045 9.60893C128.874 9.55916 128.707 9.5783 128.544 9.5783C127.317 9.57639 126.092 9.5783 124.864 9.57639C124.732 9.57639 124.6 9.57065 124.468 9.55916C124.443 9.55725 124.42 9.51897 124.4 9.49408C124.391 9.4826 124.393 9.46346 124.393 9.44623C124.393 8.95048 124.393 8.45473 124.393 7.95706C124.393 7.89006 124.448 7.83838 124.519 7.83647C124.634 7.83456 124.751 7.83264 124.866 7.83264C128.314 7.83264 131.76 7.83264 135.207 7.83264C135.322 7.83264 135.439 7.83647 135.555 7.8403C135.601 7.84221 135.654 7.89006 135.656 7.93026C135.66 8.09487 135.666 8.2614 135.666 8.42601C135.668 9.52471 135.668 9.53619 135.606 9.54576C135.246 9.60702 134.881 9.57256 134.519 9.57448C133.509 9.58022 132.498 9.57639 131.486 9.57639C131.371 9.57639 131.254 9.57639 131.139 9.58022C130.989 9.58405 130.935 9.63955 130.933 9.79268C130.929 9.9573 130.931 10.1238 130.931 10.2884C130.931 14.1434 130.933 17.9965 130.929 21.8515C130.929 22.5502 131.023 22.4621 130.335 22.466C129.988 22.4679 129.639 22.4679 129.292 22.464C129.156 22.4621 129.106 22.4162 129.104 22.2937C129.102 22.1291 129.102 21.9626 129.102 21.7979C129.102 17.9429 129.102 14.0898 129.102 10.2348C129.102 10.0702 129.102 9.9037 129.094 9.73909C129.087 9.69698 129.06 9.65104 129.045 9.60893Z" fill="#353536"/>
<path d="M76.8081 20.6915C76.9193 20.7585 77.0363 20.7375 77.1494 20.7375C77.7132 20.7394 78.275 20.7394 78.8387 20.7394C80.1311 20.7394 81.4216 20.7394 82.714 20.7413C82.8425 20.7413 82.9786 20.7088 83.0975 20.7949C83.1378 21.2256 83.1339 22.0831 83.0898 22.4276C83.0457 22.441 82.9978 22.4602 82.9518 22.4659C82.8693 22.4736 82.7869 22.4716 82.7044 22.4716C80.2538 22.4716 77.8014 22.4716 75.3508 22.4716C75.2511 22.4716 75.1514 22.4678 75.0536 22.4621C74.998 22.4602 74.9385 22.3893 74.9347 22.3262C74.9328 22.2764 74.9309 22.2266 74.9309 22.1769C74.9309 22.0773 74.9309 21.9778 74.9309 21.8802C74.9309 17.3993 74.9309 12.9203 74.9328 8.43936C74.9328 8.25943 74.9117 8.07568 74.9558 7.89958C74.973 7.88809 74.9845 7.87278 74.9999 7.87087C75.0804 7.85747 75.161 7.83833 75.2415 7.83833C75.7362 7.84598 76.2328 7.81344 76.7314 7.85747C76.7487 7.91681 76.7697 7.96083 76.7717 8.00677C76.7774 8.17138 76.7755 8.33791 76.7755 8.50252C76.7755 12.3882 76.7755 16.2719 76.7774 20.1575C76.7736 20.3355 76.741 20.5193 76.8081 20.6915Z" fill="#353536"/>
<path d="M152.421 15.1426C152.421 12.9107 152.421 10.6808 152.421 8.44897C152.421 8.28436 152.427 8.11783 152.431 7.95322C152.431 7.91877 152.49 7.84986 152.519 7.84795C152.552 7.84412 152.584 7.83838 152.619 7.83838C153.083 7.83838 153.547 7.83646 154.009 7.83838C154.059 7.83838 154.111 7.84412 154.155 7.85943C154.182 7.869 154.216 7.90537 154.216 7.93025C154.226 8.09486 154.229 8.25948 154.229 8.42601C154.229 12.3269 154.229 16.2279 154.231 20.1269C154.231 20.8179 154.143 20.7375 154.832 20.7375C156.553 20.7394 158.275 20.7375 159.997 20.7394C160.147 20.7394 160.295 20.7413 160.444 20.7452C160.536 20.7471 160.59 20.8064 160.59 20.906C160.592 21.3692 160.592 21.8305 160.59 22.2937C160.59 22.3951 160.536 22.4526 160.446 22.4564C160.331 22.4602 160.214 22.464 160.099 22.464C157.698 22.464 155.298 22.464 152.897 22.464C152.765 22.464 152.632 22.4583 152.502 22.4468C152.477 22.4449 152.439 22.4047 152.437 22.3779C152.425 22.2631 152.421 22.1482 152.421 22.0315C152.419 20.9576 152.421 19.8819 152.421 18.8081C152.421 17.5888 152.421 16.3657 152.421 15.1426Z" fill="#353536"/>
<path d="M105.248 9.39837C105.237 9.54575 105.223 9.69314 105.152 9.82904C105.099 9.93049 105.055 10.0396 105.001 10.141C103.112 13.8008 101.143 17.4146 99.0451 20.9596C98.8342 21.3156 98.6194 21.6697 98.3644 21.9951C98.2628 22.1252 98.1477 22.2439 98.0288 22.3588C97.9847 22.4028 97.9157 22.4238 97.8563 22.4468C97.7891 22.4717 97.676 22.397 97.6683 22.3281C97.6626 22.2784 97.6511 22.2286 97.6568 22.1807C97.6722 22.0659 97.6914 21.953 97.7182 21.84C97.816 21.4553 97.9541 21.0821 98.1132 20.7184C98.4641 19.9164 98.8169 19.1144 99.1793 18.3162C100.736 14.9014 102.284 11.4847 103.797 8.05084C103.843 7.94556 103.891 7.83837 103.95 7.74075C104.025 7.61251 104.23 7.57805 104.345 7.67376C104.42 7.73693 104.498 7.80392 104.55 7.88623C104.75 8.20971 104.941 8.53893 105.131 8.86625C105.223 9.03086 105.242 9.2127 105.248 9.39837Z" fill="#353536"/>
<path d="M182.954 9.51129C182.954 9.50746 182.939 9.62422 182.9 9.73141C182.849 9.87114 182.783 10.0051 182.714 10.1372C180.837 13.7836 178.872 17.3821 176.785 20.9155C176.601 21.2294 176.402 21.5338 176.197 21.8343C176.086 21.997 175.953 22.1463 175.821 22.2937C175.767 22.353 175.692 22.3951 175.622 22.4391C175.539 22.4889 175.399 22.4238 175.388 22.332C175.382 22.2822 175.368 22.2324 175.372 22.1846C175.388 22.0027 175.43 21.8266 175.483 21.6524C175.691 20.9882 175.971 20.3528 176.256 19.7192C176.971 18.1381 177.696 16.5609 178.408 14.978C179.437 12.6868 180.459 10.3918 181.485 8.09868C181.539 7.97809 181.596 7.85942 181.664 7.74648C181.74 7.61441 181.936 7.57996 182.055 7.67758C182.131 7.74074 182.21 7.80773 182.262 7.88813C182.463 8.21161 182.661 8.53701 182.843 8.86815C182.931 9.02702 182.981 9.20503 182.954 9.51129Z" fill="#353536"/>
<path d="M188.732 22.2133C188.723 22.2726 188.719 22.3051 188.713 22.3377C188.702 22.4047 188.583 22.4755 188.517 22.4487C188.458 22.4238 188.391 22.4008 188.345 22.3568C188.238 22.2535 188.128 22.1501 188.044 22.0295C187.843 21.7481 187.637 21.4648 187.461 21.1662C186.941 20.2819 186.431 19.3938 185.925 18.5018C185.051 16.9648 184.182 15.4239 183.313 13.8831C183.143 13.5806 182.985 13.2725 182.821 12.9662C182.734 12.8054 182.671 12.6351 182.621 12.459C182.567 12.2618 182.566 12.0685 182.633 11.8733C182.648 11.8254 182.658 11.7757 182.679 11.7316C182.88 11.3144 183.093 10.9028 183.348 10.5162C183.384 10.4626 183.434 10.4166 183.482 10.3707C183.59 10.2712 183.799 10.296 183.873 10.4262C183.946 10.5545 184.013 10.6884 184.071 10.8243C184.309 11.3699 184.543 11.9154 184.775 12.4647C185.718 14.7023 186.661 16.9418 187.605 19.1794C187.837 19.7268 188.08 20.2704 188.307 20.8198C188.458 21.1854 188.596 21.5586 188.686 21.9453C188.711 22.041 188.721 22.1405 188.732 22.2133Z" fill="#353536"/>
<path d="M104.877 12.1871C104.885 11.9996 104.91 11.8216 105 11.6569C105.188 11.3086 105.376 10.9583 105.57 10.6118C105.61 10.541 105.667 10.4798 105.723 10.4185C105.865 10.2635 106.087 10.2788 106.183 10.4549C106.262 10.6004 106.331 10.7497 106.396 10.9028C107.33 13.1078 108.264 15.3148 109.198 17.5198C109.585 18.4329 109.976 19.3421 110.361 20.2551C110.574 20.7566 110.785 21.26 110.937 21.7845C110.987 21.9606 111.021 22.1367 110.998 22.3223C110.987 22.4142 110.852 22.4908 110.772 22.4429C110.701 22.4027 110.624 22.3625 110.571 22.3032C110.436 22.1558 110.302 22.0084 110.193 21.8457C109.98 21.5318 109.769 21.2141 109.581 20.8848C108.774 19.4799 107.97 18.073 107.173 16.6642C106.538 15.5426 105.909 14.4171 105.282 13.2916C105.178 13.104 105.09 12.9069 104.996 12.7154C104.91 12.5451 104.889 12.3652 104.877 12.1871Z" fill="#353536"/>
</svg>
