<?xml version="1.0" encoding="UTF-8"?>
<svg width="752pt" height="752pt" version="1.1" viewBox="0 0 752 752" xmlns="http://www.w3.org/2000/svg">
 <defs>
  <clipPath id="a">
   <path d="m139.21 188h473.58v376h-473.58z"/>
  </clipPath>
 </defs>
 <g clip-path="url(#a)">
  <path d="m483.63 310.73h47.219c6.9453 0 13.887-6.9453 13.887-15.277v-38.887h-347.2c-6.9453 0-12.5-4.168-12.5-11.109 0-6.9453 5.5547-12.5 12.5-12.5h347.2v-5.5547c0-8.332-6.9453-15.277-15.277-15.277h-351.37c-8.332 0-15.277 6.9453-15.277 15.277v297.2c0 8.332 6.9453 15.277 15.277 15.277h351.37c8.332 0 15.277-6.9453 15.277-15.277v-69.441c0-8.332-6.9453-15.277-13.887-15.277h-47.219c-22.223 0-38.887-16.664-38.887-38.887v-51.387c0-20.832 16.664-38.887 38.887-38.887zm81.938 0h8.332c20.832 0 38.887 18.055 38.887 38.887v51.387c0 22.223-18.055 38.887-38.887 38.887h-8.332c1.3906 5.5547 2.7773 9.7227 2.7773 15.277v69.441c0 20.832-16.664 38.887-38.887 38.887h-351.37c-20.832 0-38.887-18.055-38.887-38.887v-297.2c0-20.832 18.055-38.887 38.887-38.887h351.37c22.223 0 38.887 18.055 38.887 38.887v68.051c0 5.5547-1.3906 11.109-2.7773 15.277zm8.332 23.609h-90.273c-8.332 0-15.277 6.9453-15.277 15.277v51.387c0 8.332 6.9453 15.277 15.277 15.277h90.273c8.332 0 15.277-6.9453 15.277-15.277v-51.387c0-8.332-6.9453-15.277-15.277-15.277z" fill="#fff"/>
 </g>
 <path d="m510.02 345.45c16.664 0 30.555 13.887 30.555 30.555 0 16.664-13.887 29.164-30.555 29.164-16.664 0-29.164-12.5-29.164-29.164 0-16.664 12.5-30.555 29.164-30.555zm0 23.609c-2.7773 0-5.5547 2.7773-5.5547 6.9453 0 2.7773 2.7773 6.9453 5.5547 6.9453 4.168 0 6.9453-4.168 6.9453-6.9453 0-4.168-2.7773-6.9453-6.9453-6.9453z" fill="#fff"/>
</svg>
