<svg width="28" height="28" viewBox="0 0 28 28" fill="none" xmlns="http://www.w3.org/2000/svg">
<path d="M8.56395 11.7658L14.0013 6.32842L19.4416 11.7687L22.6054 8.60472L14.0013 0L5.4001 8.60184L8.56395 11.7658Z" fill="#F3BA2F"/>
<path d="M6.32774 13.9994L3.16395 10.8354L0 13.9995L3.16379 17.1635L6.32774 13.9994Z" fill="#F3BA2F"/>
<path d="M8.56065 16.2341L13.998 21.6715L19.4381 16.2314L22.6037 19.3937L22.6021 19.3954L13.998 27.9999L5.39216 19.3939L8.56065 16.2341Z" fill="#F3BA2F"/>
<path d="M24.8361 17.1651L28 14.001L24.8362 10.837L21.6723 14.0011L24.8361 17.1651Z" fill="#F3BA2F"/>
<path d="M17.2112 13.9983H17.2125L14.002 10.7876L10.7899 13.9998L10.7943 14.0044L14.002 17.2122L17.2125 14.0016L17.214 13.9998L17.2112 13.9983Z" fill="#F3BA2F"/>
</svg>
