<svg width="16" height="16" viewBox="0 0 16 16" fill="none" xmlns="http://www.w3.org/2000/svg">
<g clip-path="url(#clip0_11746_173)">
<path d="M11.3337 8.00008C11.3337 9.84101 9.84126 11.3334 8.00033 11.3334C6.15938 11.3334 4.66699 9.84101 4.66699 8.00008C4.66699 6.15913 6.15938 4.66675 8.00033 4.66675" stroke="black" stroke-linecap="round"/>
<path d="M9.33301 1.46661C8.90221 1.37916 8.45627 1.33325 7.99967 1.33325C4.31777 1.33325 1.33301 4.31802 1.33301 7.99992C1.33301 11.6818 4.31777 14.6666 7.99967 14.6666C11.6815 14.6666 14.6663 11.6818 14.6663 7.99992C14.6663 7.54332 14.6204 7.09738 14.533 6.66658" stroke="black" stroke-linecap="round"/>
<path d="M11.0687 4.93117L8 7.99992M11.0687 4.93117L10.8521 4.10078C10.6879 3.47173 10.9127 2.74602 11.4325 2.22621L12.1987 1.45996C12.4027 1.25593 12.7186 1.30638 12.783 1.5533L13.1273 2.87267L14.4466 3.21691C14.6935 3.28133 14.744 3.59719 14.5399 3.80123L13.7737 4.56749C13.2539 5.08729 12.5282 5.31195 11.8991 5.14783L11.0687 4.93117Z" stroke="black" stroke-linecap="round" stroke-linejoin="round"/>
</g>
<defs>
<clipPath id="clip0_11746_173">
<rect width="16" height="16" fill="white"/>
</clipPath>
</defs>
</svg>
