<svg width="16" height="16" viewBox="0 0 16 16" fill="none" xmlns="http://www.w3.org/2000/svg">
<path d="M4.33333 14.6667C5.622 14.6667 6.66667 13.622 6.66667 12.3333C6.66667 11.0447 5.622 10 4.33333 10C3.04467 10 2 11.0447 2 12.3333C2 13.622 3.04467 14.6667 4.33333 14.6667Z" stroke="black"/>
<path d="M12 12.6667C13.1046 12.6667 14 11.7712 14 10.6667C14 9.56209 13.1046 8.66666 12 8.66666C10.8954 8.66666 10 9.56209 10 10.6667C10 11.7712 10.8954 12.6667 12 12.6667Z" stroke="black"/>
<path d="M6.66699 12.3333V4.66668C6.66699 4.05104 6.66699 3.74323 6.84266 3.55197C7.01826 3.36072 7.34533 3.33281 7.99939 3.277C10.6817 3.04816 12.6063 2.17338 13.5705 1.60653C13.7675 1.49068 13.8661 1.43276 13.9332 1.47116C14.0003 1.50956 14.0003 1.62101 14.0003 1.84392V10.6667" stroke="black" stroke-linecap="round" stroke-linejoin="round"/>
<path d="M6.66699 6.66666C10.5781 6.66666 13.1855 5.1111 14.0003 4.66666" stroke="black" stroke-linecap="round" stroke-linejoin="round"/>
</svg>
