<svg width="16" height="16" viewBox="0 0 16 16" fill="none" xmlns="http://www.w3.org/2000/svg">
<path d="M5.33301 12.3333C5.33301 11.781 5.78073 11.3333 6.33301 11.3333C6.88531 11.3333 7.33301 11.781 7.33301 12.3333C7.33301 12.8856 6.88531 13.3333 6.33301 13.3333C5.78073 13.3333 5.33301 12.8856 5.33301 12.3333Z" fill="black"/>
<path d="M10.667 12.3333C10.667 11.781 11.1147 11.3333 11.667 11.3333C12.2193 11.3333 12.667 11.781 12.667 12.3333C12.667 12.8856 12.2193 13.3333 11.667 13.3333C11.1147 13.3333 10.667 12.8856 10.667 12.3333Z" fill="black"/>
<path d="M2 3.33333H3.03786C3.22703 3.33333 3.39608 3.44971 3.4612 3.62478L5.39899 8.83422C5.65946 9.53448 6.33566 9.99999 7.09235 9.99999H11.0708C11.8471 9.99999 12.5363 9.51031 12.7819 8.78444L13.9765 5.25165C14.0739 4.96386 13.8565 4.66666 13.5488 4.66666H6.73443" stroke="black" stroke-linecap="round" stroke-linejoin="round"/>
</svg>
