<svg width="175" height="20" viewBox="0 0 175 20" fill="none" xmlns="http://www.w3.org/2000/svg">
<path d="M16.9936 16.4182L18.8166 19.9811H14.8309L11.1019 12.6892L11.0189 12.5193C10.381 11.4625 9.23742 10.8133 8.00322 10.8133H4.44784V19.9773H0.888672V0.0641335H13.4684C14.8875 0.0641335 16.2501 0.622723 17.254 1.62669C18.2542 2.64197 18.8166 4.01204 18.8204 5.43873C18.8204 7.54101 17.5975 9.45081 15.6915 10.3302C15.2083 10.5605 14.6875 10.7076 14.1553 10.7643L17.0011 16.4182H16.9936ZM13.4646 7.25794C13.7213 7.25794 13.9742 7.20132 14.2044 7.08809C14.8611 6.80125 15.2876 6.15584 15.2914 5.43873C15.2914 4.94807 15.0951 4.48006 14.7517 4.13282C14.412 3.79691 13.9477 3.61197 13.4722 3.61951H4.44784V7.28813L13.4684 7.25416H13.4646V7.25794Z" fill="#FF5050"/>
<path d="M92.4643 13.6024C92.4606 17.105 89.6185 19.9432 86.116 19.9432H72.5398V0.0375955H85.0931C88.0597 0.0451441 90.464 2.44937 90.4715 5.41597C90.4753 6.44635 90.1809 7.45409 89.6185 8.3184C91.3924 9.49221 92.4606 11.4775 92.4643 13.6024ZM76.1028 7.2314H85.1271C86.1311 7.2314 86.9463 6.41993 86.9501 5.41219C86.9501 4.40823 86.1386 3.59298 85.1309 3.58921H76.1028V7.2314ZM86.1235 16.3652C87.6634 16.4067 88.9429 15.1952 88.9882 13.659C89.0335 12.1229 87.8182 10.8396 86.2821 10.7943H76.1066V16.3954H86.1273V16.3652H86.1235Z" fill="black"/>
<path d="M135.325 16.4185V19.9815H126.32C125.354 19.9815 124.395 19.7626 123.531 19.3285C122.277 18.7058 121.266 17.6867 120.658 16.4299C120.224 15.5655 120.002 14.6107 120.005 13.6444V0.079614H123.561V13.9917C123.738 15.2485 124.723 16.2336 125.98 16.4072L135.325 16.4185Z" fill="black"/>
<path d="M155.631 16.4185V19.9815H146.622C145.656 19.9815 144.697 19.7626 143.833 19.3285C142.58 18.7058 141.568 17.6867 140.961 16.4299C140.527 15.5655 140.304 14.6107 140.308 13.6444V0.079614H143.867V13.9917C144.044 15.2485 145.029 16.2336 146.286 16.4072L155.635 16.4185H155.631Z" fill="black"/>
<path d="M153.782 19.9434H153.838L153.782 20V19.9434ZM174.797 0.00755596L167.082 9.97924L166.648 10.519V19.9132H163.096V10.5869L162.621 9.97924L154.906 0H159.405L164.87 7.08058L170.332 0L174.793 0.00755596H174.797Z" fill="black"/>
<path d="M41.2886 3.61951V0.0641335H24.9535V14.565C24.9535 17.524 27.3426 19.932 30.3017 19.9396H41.2886V16.3842H30.3017C29.3015 16.3729 28.4976 15.5614 28.4938 14.5612L28.5202 10.8096H41.3V7.25416H28.5126V3.61575H41.2886V3.61951Z" fill="#FF5050"/>
<path d="M114.001 3.61951V0.0641335H97.6655V14.565C97.6617 17.524 100.055 19.932 103.014 19.9396H114.001V16.3842H103.014C102.01 16.3766 101.198 15.5652 101.191 14.5612L101.221 10.8096H114.001V7.25416H101.221V3.61575H114.001V3.61951Z" fill="black"/>
<path d="M57.5671 0.0640184L57.5935 0.0375955H47.6332V19.9432H57.5935C60.228 19.947 62.753 18.894 64.5949 17.0144C64.7949 16.8181 64.9912 16.6181 65.1648 16.418C68.7164 12.2437 68.2069 5.97834 64.0325 2.4305C62.2246 0.894359 59.9261 0.0564734 57.5558 0.0677963H57.5671V0.0640184ZM57.5671 16.4105L51.1621 16.3916V3.61185H57.5671C61.0999 3.54769 64.0174 6.35955 64.0853 9.89229C64.1495 13.425 61.3376 16.3426 57.8049 16.4105H57.5671Z" fill="#FF5050"/>
</svg>
