<svg width="20" height="20" viewBox="0 0 20 20" fill="none" xmlns="http://www.w3.org/2000/svg">
<g clip-path="url(#clip0_10436_1179)">
<path d="M11.804 11.2444C11.3072 11.8084 10.7022 12.2699 10.0213 12.6045V14.5274C10.0213 14.6974 9.95345 14.8604 9.83275 14.9806C9.71206 15.1008 9.54835 15.1683 9.37766 15.1683H5.51607C5.34538 15.1683 5.18168 15.1008 5.06098 14.9806C4.94028 14.8604 4.87247 14.6974 4.87247 14.5274V12.6045C3.51621 11.9303 2.47937 10.7535 1.98444 9.32661C1.48952 7.89973 1.57595 6.33649 2.2252 4.97236C2.87445 3.60823 4.03476 2.55192 5.45715 2.0301C6.87954 1.50828 8.45065 1.56254 9.83333 2.18124M4.87247 18.3334H10.0213M10.5027 6.07057C10.0509 5.99237 10.0509 5.34628 10.5027 5.26809C11.3024 5.12878 12.0424 4.7558 12.6287 4.19655C13.215 3.63731 13.6211 2.91707 13.7953 2.12739L13.8224 2.00177C13.9202 1.55694 14.5561 1.55438 14.6577 1.99792L14.6912 2.14278C14.871 2.9294 15.2804 3.64548 15.8679 4.20091C16.4554 4.75634 17.1947 5.1263 17.9929 5.26424C18.4473 5.34372 18.4473 5.99237 17.9929 6.07185C17.195 6.21002 16.4559 6.58008 15.8687 7.1355C15.2814 7.69091 14.8722 8.40687 14.6925 9.19331L14.659 9.33817C14.5573 9.78171 13.9215 9.77915 13.8236 9.33432L13.7979 9.20998C13.6235 8.41995 13.217 7.69946 12.6302 7.14018C12.0434 6.5809 11.3028 6.20941 10.5027 6.07057Z" stroke="black" stroke-width="1.5" stroke-linecap="round" stroke-linejoin="round"/>
</g>
<defs>
<clipPath id="clip0_10436_1179">
<rect width="20" height="20" fill="white"/>
</clipPath>
</defs>
</svg>
