<svg width="48" height="49" viewBox="0 0 48 49" fill="none" xmlns="http://www.w3.org/2000/svg">
<path fill-rule="evenodd" clip-rule="evenodd" d="M3.91797 17.5076C3.91797 11.3471 7.90737 6.11562 13.4511 4.24075C13.868 4.09973 14.2938 3.9777 14.7273 3.8757C15.7673 3.631 16.8518 3.50152 17.9668 3.50152C19.095 3.50152 20.1922 3.63412 21.2436 3.88454C21.6642 3.98473 22.0775 4.10378 22.4824 4.24075C28.0261 6.11562 32.0155 11.3471 32.0155 17.5076V39.0746C32.0155 39.5953 31.5922 40.0174 31.0699 40.0174H4.86356C4.34132 40.0174 3.91797 39.5953 3.91797 39.0746V17.5076ZM6.92842 24.5106C6.92842 21.748 9.1748 19.5085 11.9458 19.5085H23.9877C26.7587 19.5085 29.0051 21.748 29.0051 24.5106V34.515C29.0051 35.3438 28.3312 36.0156 27.4999 36.0156H8.43365C7.60233 36.0156 6.92842 35.3438 6.92842 34.515V24.5106Z" fill="white"/>
<path d="M27.9705 24.0104H7.96296C8.20987 22.0364 9.89893 20.5089 11.9458 20.5089H23.9877C26.0346 20.5089 27.7236 22.0364 27.9705 24.0104Z" fill="white"/>
<path d="M7.93191 25.0109H28.0016V34.515C28.0016 34.7912 27.777 35.0152 27.4999 35.0152H8.43365C8.15654 35.0152 7.93191 34.7912 7.93191 34.515V25.0109Z" fill="white"/>
<path d="M20.46 2.06324C20.6683 2.32287 20.8011 2.58377 20.882 2.78233L21.2436 3.88454C21.6642 3.98473 22.0775 4.10378 22.4824 4.24075L21.8194 2.42473C21.7115 2.15597 21.5321 1.79779 21.2436 1.43828C20.654 0.703518 19.6358 0 17.9668 0C16.2977 0 15.2795 0.703518 14.6899 1.43828C14.4014 1.79779 14.222 2.15597 14.1141 2.42473L13.4511 4.24075C13.868 4.09973 14.2938 3.9777 14.7273 3.8757L15.0515 2.78233C15.1324 2.58377 15.2652 2.32287 15.4735 2.06324C15.8874 1.54746 16.6253 1.00043 17.9668 1.00043C19.3082 1.00043 20.0461 1.54746 20.46 2.06324Z" fill="white"/>
<path d="M29.7091 33.5614L29.3552 33.8515L29.3553 33.8518L29.011 34.1227C28.3277 34.6602 27.572 35.2177 26.7308 35.7644L26.3558 36.0081L25.9791 36.2353C25.2174 36.6948 24.3905 37.1399 23.4907 37.5511L23.0034 37.7737L23.0019 37.7715L22.6314 37.9236C22.0153 38.1765 21.3671 38.4125 20.6846 38.6261C20.3876 38.7191 20.0685 38.7637 19.7452 38.7637C17.3969 38.7637 15.46 40.6002 15.46 42.9059V43.1421C15.46 45.5783 17.5068 47.5206 19.9907 47.5206H40.5591C43.6663 47.5206 45.9792 44.7295 45.4975 41.7666C45.2685 40.3581 45.0695 38.8393 44.9846 37.4434C44.9429 36.7567 44.9543 36.0417 44.9655 35.356L44.9661 35.3221C44.9784 34.5708 44.9905 33.8295 44.9129 33.2624C44.8736 32.9753 44.8058 32.6841 44.6727 32.4444C44.5303 32.188 44.2954 31.9644 43.9446 31.9082C43.6802 31.8658 43.4269 31.8842 43.1927 31.9791C42.9597 32.0735 42.783 32.2284 42.6468 32.3992C42.4038 32.7041 42.2449 33.1246 42.109 33.4846C42.1035 33.4991 42.098 33.5136 42.0926 33.528C41.8737 34.1065 41.6609 34.6513 41.2572 35.0684C40.8783 35.4597 40.2856 35.7802 39.2145 35.7802C38.5677 35.7802 37.8775 35.4399 37.2387 34.9572C36.6109 34.4828 36.0969 33.9199 35.813 33.5816C35.8084 33.5762 35.8015 33.5657 35.7992 33.5406C35.7966 33.5127 35.8008 33.4717 35.8193 33.4246C35.931 33.1394 36.0554 32.7025 36.0083 32.2241C35.9591 31.7236 35.7232 31.2048 35.1663 30.8029C34.4923 30.3166 33.7581 30.5104 33.0973 30.8849C32.4515 31.251 31.7064 31.8815 30.8615 32.5966L30.8241 32.6283C30.4763 32.9226 30.1065 33.2355 29.7091 33.5614Z" fill="white" stroke="#292929" stroke-linecap="round"/>
</svg>
