<svg width="50" height="51" viewBox="0 0 50 51" fill="none" xmlns="http://www.w3.org/2000/svg">
<path d="M25.1134 2.22862C25.6194 2.14923 26.0214 2.06892 26.4035 1.99998C26.206 2.33135 25.9171 2.75596 25.5924 3.15419C24.55 4.32905 22.7605 5.70565 20.5089 5.70565C18.2573 5.70565 16.4757 4.33875 15.4333 3.1639C15.0909 2.74963 14.8194 2.3441 14.6142 1.99998C14.6142 1.99998 15.4554 2.20038 16 2.30068C17.7374 2.62068 19.1103 2.66824 20.5089 2.66824C21.7344 2.66824 23.8281 2.41715 25.1134 2.22862Z" fill="white"/>
<path fill-rule="evenodd" clip-rule="evenodd" d="M7.36662 5.42972L13.3777 2.02114C13.4221 2.10686 13.4721 2.20048 13.5281 2.30068C13.5625 2.36228 13.5992 2.42646 13.6382 2.4929C13.9008 2.91812 14.3691 3.61409 14.8104 4.11145C15.9817 5.43161 17.8412 6.79044 20.5089 6.79044C23.1766 6.79044 25.0361 5.43161 26.2074 4.11145C26.6465 3.61644 26.9934 3.12257 27.2555 2.69869C27.34 2.56204 27.4142 2.43308 27.4896 2.30068C27.547 2.19803 27.5981 2.10228 27.6432 2.01486L33.7611 5.38763C34.4513 5.76814 34.986 6.37586 35.2728 7.10587L39.603 18.1284L32.9953 21.3132L31.421 15.65C31.3466 15.3826 31.0811 15.214 30.8054 15.259C30.5296 15.304 30.3325 15.5482 30.3483 15.8251L30.3678 16.1669C30.3803 16.3881 30.3985 16.7096 30.4209 17.111C30.4658 17.9137 30.5278 19.0356 30.5965 20.3121C30.7339 22.8657 30.8977 26.0363 31.0039 28.5093C31.1722 32.4329 31.7529 38.0575 31.9934 40.28C32.03 40.6181 31.8424 40.9249 31.5396 41.0428C31.0841 41.2201 30.6225 41.4476 30.1441 41.6833L30.1416 41.6845L30.1405 41.6851C30.0329 41.7381 29.9245 41.7915 29.8151 41.8449C29.2079 42.141 28.538 42.4525 27.7267 42.7384C26.1102 43.308 23.8965 43.7884 20.5089 43.7884C17.1212 43.7884 15.9582 43.6178 13.2196 42.7398C11.6281 42.2295 9.28995 41.0448 9.28995 41.0448C8.97781 40.9265 8.78471 40.6066 8.82984 40.2589C9.12096 38.016 9.81249 32.4268 10.0136 28.5138C10.1409 26.0389 10.3049 22.866 10.437 20.3117L10.6695 15.8221C10.6837 15.549 10.4908 15.3081 10.2195 15.2602C9.94815 15.2123 9.68332 15.3723 9.60164 15.6334L7.82041 21.3289L0.999984 18.1329L5.94687 6.99339C6.23932 6.33485 6.73696 5.78677 7.36662 5.42972Z" fill="white"/>
<path d="M26.2923 42.9895L24.5471 40.5107C24.5643 40.5033 24.5815 40.4958 24.5987 40.4884L26.3239 42.9978C26.3195 42.9998 26.3137 43.0008 26.3066 42.9995C26.2979 42.9978 26.2957 42.9944 26.2955 42.9941L26.2955 42.9941L26.2923 42.9895ZM32.9005 33.8618C32.5061 34.1928 32.0864 34.545 31.6353 34.9118C31.381 35.1186 31.117 35.3297 30.8426 35.5438C30.0667 36.1491 29.208 36.7773 28.252 37.3934C27.9755 37.5716 27.6908 37.7488 27.3977 37.9241C26.5319 38.442 25.5919 38.9438 24.569 39.4073C24.2514 39.5512 23.9259 39.6914 23.592 39.8273C22.8917 40.1124 22.1548 40.3785 21.3788 40.6193C21.0345 40.7262 20.6655 40.7772 20.2924 40.7772C17.668 40.7772 15.5 42.813 15.5 45.373V45.6386C15.5 48.3453 17.7926 50.5 20.5708 50.5H43.895C47.3723 50.5 49.9696 47.4003 49.4287 44.1012C49.1689 42.5162 48.9429 40.8062 48.8465 39.2338C48.799 38.459 48.812 37.6528 48.8247 36.882L48.8253 36.8474C48.8393 35.9998 48.853 35.1699 48.7656 34.5366C48.7214 34.2163 48.6458 33.8974 48.5002 33.6375C48.3452 33.3607 48.0938 33.1262 47.7228 33.0672C47.4334 33.0212 47.1596 33.0416 46.9079 33.1428C46.6572 33.2435 46.4655 33.4093 46.316 33.5953C46.0467 33.9303 45.8696 34.395 45.7142 34.8029C45.7085 34.818 45.7027 34.8331 45.697 34.8481C45.4496 35.4968 45.2045 36.1216 44.7362 36.6014C44.2924 37.0559 43.6014 37.4223 42.3702 37.4223C41.6136 37.4223 40.8159 37.0287 40.0877 36.483C39.3702 35.9454 38.7837 35.3083 38.4603 34.9262C38.437 34.8987 38.4052 34.8212 38.4572 34.6898C38.5821 34.3735 38.7199 33.8921 38.6678 33.3668C38.6134 32.819 38.3537 32.2524 37.7387 31.8123C37.0083 31.2896 36.2098 31.4916 35.468 31.9085C34.7412 32.3171 33.9003 33.0227 32.9384 33.83L32.9005 33.8618ZM31.8275 36.0407C31.8331 36.0363 31.8387 36.0318 31.8443 36.0274L34.5739 39.9978C34.5695 39.9998 34.5637 40.0008 34.5566 39.9995C34.5477 39.9977 34.5456 39.9942 34.5455 39.9941L31.8275 36.0407ZM28.3655 38.5051C28.3716 38.5013 28.3776 38.4976 28.3837 38.4938L30.4489 41.4978C30.4445 41.4998 30.4387 41.5008 30.4316 41.4995C30.4229 41.4978 30.4207 41.4944 30.4205 41.4941L30.4205 41.4941L28.3655 38.5051Z" fill="white" stroke="black" stroke-linecap="round"/>
<path d="M19.1157 14.1285C19.4489 12.6532 21.5511 12.6532 21.8843 14.1285V14.1285C22.1003 15.0847 23.1976 15.5392 24.0264 15.0158V15.0158C25.3053 14.2082 26.7918 15.6947 25.9842 16.9736V16.9736C25.4608 17.8024 25.9153 18.8997 26.8715 19.1157V19.1157C28.3468 19.4489 28.3468 21.5511 26.8715 21.8843V21.8843C25.9153 22.1003 25.4608 23.1976 25.9842 24.0264V24.0264C26.7918 25.3053 25.3053 26.7918 24.0264 25.9842V25.9842C23.1976 25.4608 22.1003 25.9153 21.8843 26.8715V26.8715C21.5511 28.3468 19.4489 28.3468 19.1157 26.8715V26.8715C18.8997 25.9153 17.8024 25.4608 16.9736 25.9842V25.9842C15.6947 26.7918 14.2082 25.3053 15.0158 24.0264V24.0264C15.5392 23.1976 15.0847 22.1003 14.1285 21.8843V21.8843C12.6532 21.5511 12.6532 19.4489 14.1285 19.1157V19.1157C15.0847 18.8997 15.5392 17.8024 15.0158 16.9736V16.9736C14.2082 15.6947 15.6947 14.2082 16.9736 15.0158V15.0158C17.8024 15.5392 18.8997 15.0847 19.1157 14.1285V14.1285Z" stroke="black"/>
<path d="M39.2248 40.432C39.4114 39.6058 40.5886 39.6058 40.7752 40.432V40.432C40.8962 40.9674 41.5107 41.222 41.9748 40.9289V40.9289C42.691 40.4766 43.5234 41.309 43.0711 42.0252V42.0252C42.778 42.4893 43.0326 43.1038 43.568 43.2248V43.2248C44.3942 43.4114 44.3942 44.5886 43.568 44.7752V44.7752C43.0326 44.8962 42.778 45.5107 43.0711 45.9748V45.9748C43.5234 46.691 42.691 47.5234 41.9748 47.0711V47.0711C41.5107 46.778 40.8962 47.0326 40.7752 47.568V47.568C40.5886 48.3942 39.4114 48.3942 39.2248 47.568V47.568C39.1038 47.0326 38.4893 46.778 38.0252 47.0711V47.0711C37.309 47.5234 36.4766 46.691 36.9289 45.9748V45.9748C37.222 45.5107 36.9674 44.8962 36.432 44.7752V44.7752C35.6058 44.5886 35.6058 43.4114 36.432 43.2248V43.2248C36.9674 43.1038 37.222 42.4893 36.9289 42.0252V42.0252C36.4766 41.309 37.309 40.4766 38.0252 40.9289V40.9289C38.4893 41.222 39.1038 40.9674 39.2248 40.432V40.432Z" stroke="black"/>
<path d="M17.2301 20.321L19.9013 22.9296L23.8429 18.6328" stroke="black" stroke-linecap="round" stroke-linejoin="round"/>
<path d="M38.4215 43.9136L39.711 45.173L41.6139 43.0986" stroke="black" stroke-linecap="round" stroke-linejoin="round"/>
</svg>
