<svg width="49" height="49" viewBox="0 0 49 49" fill="none" xmlns="http://www.w3.org/2000/svg">
<path fill-rule="evenodd" clip-rule="evenodd" d="M7.29806 2.99414C7.39552 2.63796 7.59183 2.31718 7.90406 2.11647C8.94546 1.44701 11.8637 0 17.6326 0C23.4015 0 26.3197 1.44701 27.3611 2.11647C27.6733 2.31718 27.8696 2.63795 27.9671 2.99414L30.9003 13.7143C30.9003 13.7143 30.7968 13.7746 30.7305 13.8133C30.6967 13.8327 30.6445 13.8622 30.5741 13.9002C30.4332 13.9764 30.2195 14.087 29.9351 14.2206C29.3663 14.4879 28.5148 14.8473 27.3973 15.2077C25.1625 15.9283 21.8636 16.653 17.6326 16.653C13.4015 16.653 10.1026 15.9283 7.86793 15.2077C6.7504 14.8473 5.89889 14.4879 5.33006 14.2206C5.04566 14.087 4.83198 13.9764 4.69111 13.9002C4.66933 13.8885 4.64909 13.8786 4.62951 13.8691C4.58578 13.8479 4.54529 13.8283 4.49799 13.7919C4.4466 13.7524 4.37878 13.6777 4.37564 13.6742L7.29806 2.99414Z" fill="white"/>
<path d="M34.9033 19.5066L31.324 14.601L31.2257 14.6608C31.1846 14.6845 31.1248 14.7181 31.0465 14.7604C30.8901 14.845 30.6598 14.964 30.3579 15.1059C29.754 15.3896 28.8633 15.7649 27.7026 16.1393C25.3807 16.888 21.9787 17.6326 17.6326 17.6326C13.2865 17.6326 9.88452 16.888 7.56264 16.1393C6.40186 15.7649 5.51115 15.3896 4.90732 15.1059C4.6054 14.964 4.37514 14.845 4.21865 14.7604C4.14041 14.7181 4.03948 14.6608 4.03948 14.6608L3.94092 14.6014L0.36182 19.5066C-0.394221 20.5427 0.0920952 21.8467 1.28666 22.3282C4.21865 23.5102 10.1714 25.4694 17.6326 25.4694C25.0937 25.4694 31.0344 23.5102 33.9785 22.3282C35.1738 21.8484 35.6594 20.5427 34.9033 19.5066Z" fill="white"/>
<mask id="path-2-outside-1_9683_25709" maskUnits="userSpaceOnUse" x="3.89844" y="19.5645" width="45" height="29" fill="black">
<rect fill="white" x="3.89844" y="19.5645" width="45" height="29"/>
<path fill-rule="evenodd" clip-rule="evenodd" d="M13.675 36.7398C14.0887 36.5138 14.6591 36.2271 15.3535 35.9399C16.8504 35.3206 18.9399 34.6919 21.286 34.6764C23.704 34.6604 27.8096 35.4026 31.2673 36.1347C33.0056 36.5027 34.5955 36.8715 35.7507 37.1484C36.3284 37.2868 36.7976 37.4023 37.1226 37.4832C37.2851 37.5237 37.4116 37.5555 37.4976 37.5772L37.7931 37.6717C37.8613 37.6981 37.9626 37.7364 38.0918 37.7824C38.1611 37.807 38.2383 37.8339 38.3227 37.8623C38.5534 37.94 38.8376 38.0296 39.1593 38.1183C40.0441 38.3623 41.1872 38.593 42.2746 38.5694C43.7435 38.5375 45.7789 37.7947 46.7855 37.3861C46.9489 37.3198 47.0521 37.1585 47.0459 36.9794C46.7277 27.8589 39.3768 20.5645 30.3554 20.5645C21.4132 20.5645 14.1124 27.7313 13.675 36.7398Z"/>
<path d="M36.3397 38.2913C36.1036 38.2335 35.8327 38.1678 35.5324 38.0958C34.3827 37.8203 32.8013 37.4534 31.0733 37.0876C27.5985 36.3519 23.5921 35.6344 21.2922 35.6496C19.1043 35.6641 16.9886 36.15 15.563 36.7398L15.395 36.8327C15.0199 37.1239 15.7179 37.5171 15.3642 37.7137C15.1678 37.8228 15.0165 37.9131 14.9154 37.9754C14.8649 38.0066 14.827 38.0307 14.8022 38.0466L14.7752 38.0642L14.7706 38.0672L14.7692 38.0682L14.7683 38.0688L14.7637 38.072L14.7425 38.0864L14.6594 38.1431C14.5866 38.1929 14.4798 38.266 14.3442 38.3594C14.0728 38.546 13.6861 38.8134 13.225 39.1357C12.3023 39.7807 11.0833 40.6449 9.89506 41.5234C8.70401 42.404 7.55439 43.2914 6.76507 43.9845C6.51681 44.2025 6.31291 44.3938 6.15733 44.5543C6.24315 44.5417 6.34069 44.5227 6.45151 44.4959C6.83729 44.4025 7.29004 44.2409 7.8299 44.0483L8.03544 43.975C9.271 43.5357 10.2615 43.1146 11.7532 43.0751C16.5173 42.9489 19.0125 46.9906 23.121 45.8749C23.6562 45.7296 23.8813 45.669 24.4649 45.413C25.0403 45.1606 25.7129 44.8231 26.4464 44.4272C27.9128 43.6358 29.6011 42.6229 31.2039 41.6215C32.8057 40.6208 34.3169 39.6348 35.428 38.8988C35.7739 38.6696 36.081 38.4648 36.3397 38.2913Z"/>
<path d="M13.8269 37.701C13.0664 38.122 12.3295 38.5831 11.6211 39.087C10.9067 39.5951 9.98154 40.2574 9.33488 40.7355C8.14007 41.6189 6.96347 42.5259 6.14233 43.247C5.73641 43.6035 5.39465 43.934 5.18266 44.2042C5.0835 44.3306 4.9728 44.4926 4.92464 44.6686C4.89905 44.7621 4.8793 44.902 4.92983 45.054C4.98528 45.2208 5.10214 45.3335 5.22631 45.3968C5.66727 45.6217 6.19471 45.5583 6.6719 45.4428C7.10957 45.3368 7.6138 45.1567 8.14257 44.9679L8.34967 44.894C9.5852 44.4547 10.3809 44.0844 11.7456 44.0483C16.5173 43.9221 19.0942 47.9111 23.2746 46.8355C23.8997 46.6746 24.2424 46.57 24.8419 46.307C25.4496 46.0405 26.1469 45.6899 26.8928 45.2874C28.3848 44.4822 30.0924 43.4573 31.7025 42.4514C33.3136 41.4448 34.8323 40.4539 35.9479 39.7149C36.5058 39.3453 36.9632 39.0386 37.2812 38.8241C37.3979 38.7454 37.4958 38.6791 37.5731 38.6267L36.3397 38.2913C36.081 38.4648 35.7739 38.6696 35.428 38.8988C34.3169 39.6348 32.8057 40.6208 31.2039 41.6215C29.6011 42.6229 27.9128 43.6358 26.4464 44.4272C25.7129 44.8231 25.0403 45.1606 24.4649 45.413C23.8813 45.669 23.6562 45.7296 23.121 45.8749C19.0125 46.9906 16.5173 42.9489 11.7532 43.0751C10.2615 43.1146 9.271 43.5357 8.03544 43.975L7.8299 44.0483C7.29004 44.2409 6.83729 44.4025 6.45151 44.4959C6.34069 44.5227 6.24315 44.5417 6.15733 44.5543C6.31291 44.3938 6.51681 44.2025 6.76507 43.9845C7.55439 43.2914 8.70401 42.404 9.89506 41.5234C11.0833 40.6449 12.3023 39.7807 13.225 39.1357C13.6861 38.8134 14.0728 38.546 14.3442 38.3594C14.4798 38.266 14.5866 38.1929 14.6594 38.1431L14.7425 38.0864L14.7637 38.072L14.7683 38.0688L14.7692 38.0682L14.7706 38.0672L14.7752 38.0642L14.8022 38.0466C14.827 38.0307 14.8649 38.0066 14.9154 37.9754C15.0165 37.9131 15.1678 37.8228 15.3642 37.7137C15.7179 37.5171 15.0199 37.1239 15.395 36.8327L13.8269 37.701Z"/>
</mask>
<path fill-rule="evenodd" clip-rule="evenodd" d="M13.675 36.7398C14.0887 36.5138 14.6591 36.2271 15.3535 35.9399C16.8504 35.3206 18.9399 34.6919 21.286 34.6764C23.704 34.6604 27.8096 35.4026 31.2673 36.1347C33.0056 36.5027 34.5955 36.8715 35.7507 37.1484C36.3284 37.2868 36.7976 37.4023 37.1226 37.4832C37.2851 37.5237 37.4116 37.5555 37.4976 37.5772L37.7931 37.6717C37.8613 37.6981 37.9626 37.7364 38.0918 37.7824C38.1611 37.807 38.2383 37.8339 38.3227 37.8623C38.5534 37.94 38.8376 38.0296 39.1593 38.1183C40.0441 38.3623 41.1872 38.593 42.2746 38.5694C43.7435 38.5375 45.7789 37.7947 46.7855 37.3861C46.9489 37.3198 47.0521 37.1585 47.0459 36.9794C46.7277 27.8589 39.3768 20.5645 30.3554 20.5645C21.4132 20.5645 14.1124 27.7313 13.675 36.7398Z" fill="white"/>
<path d="M36.3397 38.2913C36.1036 38.2335 35.8327 38.1678 35.5324 38.0958C34.3827 37.8203 32.8013 37.4534 31.0733 37.0876C27.5985 36.3519 23.5921 35.6344 21.2922 35.6496C19.1043 35.6641 16.9886 36.15 15.563 36.7398L15.395 36.8327C15.0199 37.1239 15.7179 37.5171 15.3642 37.7137C15.1678 37.8228 15.0165 37.9131 14.9154 37.9754C14.8649 38.0066 14.827 38.0307 14.8022 38.0466L14.7752 38.0642L14.7706 38.0672L14.7692 38.0682L14.7683 38.0688L14.7637 38.072L14.7425 38.0864L14.6594 38.1431C14.5866 38.1929 14.4798 38.266 14.3442 38.3594C14.0728 38.546 13.6861 38.8134 13.225 39.1357C12.3023 39.7807 11.0833 40.6449 9.89506 41.5234C8.70401 42.404 7.55439 43.2914 6.76507 43.9845C6.51681 44.2025 6.31291 44.3938 6.15733 44.5543C6.24315 44.5417 6.34069 44.5227 6.45151 44.4959C6.83729 44.4025 7.29004 44.2409 7.8299 44.0483L8.03544 43.975C9.271 43.5357 10.2615 43.1146 11.7532 43.0751C16.5173 42.9489 19.0125 46.9906 23.121 45.8749C23.6562 45.7296 23.8813 45.669 24.4649 45.413C25.0403 45.1606 25.7129 44.8231 26.4464 44.4272C27.9128 43.6358 29.6011 42.6229 31.2039 41.6215C32.8057 40.6208 34.3169 39.6348 35.428 38.8988C35.7739 38.6696 36.081 38.4648 36.3397 38.2913Z" fill="white"/>
<path d="M13.8269 37.701C13.0664 38.122 12.3295 38.5831 11.6211 39.087C10.9067 39.5951 9.98154 40.2574 9.33488 40.7355C8.14007 41.6189 6.96347 42.5259 6.14233 43.247C5.73641 43.6035 5.39465 43.934 5.18266 44.2042C5.0835 44.3306 4.9728 44.4926 4.92464 44.6686C4.89905 44.7621 4.8793 44.902 4.92983 45.054C4.98528 45.2208 5.10214 45.3335 5.22631 45.3968C5.66727 45.6217 6.19471 45.5583 6.6719 45.4428C7.10957 45.3368 7.6138 45.1567 8.14257 44.9679L8.34967 44.894C9.5852 44.4547 10.3809 44.0844 11.7456 44.0483C16.5173 43.9221 19.0942 47.9111 23.2746 46.8355C23.8997 46.6746 24.2424 46.57 24.8419 46.307C25.4496 46.0405 26.1469 45.6899 26.8928 45.2874C28.3848 44.4822 30.0924 43.4573 31.7025 42.4514C33.3136 41.4448 34.8323 40.4539 35.9479 39.7149C36.5058 39.3453 36.9632 39.0386 37.2812 38.8241C37.3979 38.7454 37.4958 38.6791 37.5731 38.6267L36.3397 38.2913C36.081 38.4648 35.7739 38.6696 35.428 38.8988C34.3169 39.6348 32.8057 40.6208 31.2039 41.6215C29.6011 42.6229 27.9128 43.6358 26.4464 44.4272C25.7129 44.8231 25.0403 45.1606 24.4649 45.413C23.8813 45.669 23.6562 45.7296 23.121 45.8749C19.0125 46.9906 16.5173 42.9489 11.7532 43.0751C10.2615 43.1146 9.271 43.5357 8.03544 43.975L7.8299 44.0483C7.29004 44.2409 6.83729 44.4025 6.45151 44.4959C6.34069 44.5227 6.24315 44.5417 6.15733 44.5543C6.31291 44.3938 6.51681 44.2025 6.76507 43.9845C7.55439 43.2914 8.70401 42.404 9.89506 41.5234C11.0833 40.6449 12.3023 39.7807 13.225 39.1357C13.6861 38.8134 14.0728 38.546 14.3442 38.3594C14.4798 38.266 14.5866 38.1929 14.6594 38.1431L14.7425 38.0864L14.7637 38.072L14.7683 38.0688L14.7692 38.0682L14.7706 38.0672L14.7752 38.0642L14.8022 38.0466C14.827 38.0307 14.8649 38.0066 14.9154 37.9754C15.0165 37.9131 15.1678 37.8228 15.3642 37.7137C15.7179 37.5171 15.0199 37.1239 15.395 36.8327L13.8269 37.701Z" fill="white"/>
<path d="M37.5731 38.6267L37.2161 38.2767L36.6778 38.8256L37.3979 39.095L37.5731 38.6267ZM15.3642 37.7137L15.6071 38.1507L15.6071 38.1507L15.3642 37.7137ZM14.9154 37.9754L14.6531 37.5498L14.6531 37.5498L14.9154 37.9754ZM14.8022 38.0466L14.5313 37.6264L14.5296 37.6275L14.8022 38.0466ZM14.7752 38.0642L14.5025 37.6451L14.5012 37.646L14.7752 38.0642ZM14.7706 38.0672L14.4966 37.6489L14.4884 37.6545L14.7706 38.0672ZM14.7692 38.0682L15.0462 38.4845L15.0514 38.481L14.7692 38.0682ZM14.7683 38.0688L14.4913 37.6525L14.4862 37.656L14.7683 38.0688ZM14.7637 38.072L15.0452 38.4852L15.0457 38.4848L14.7637 38.072ZM14.7425 38.0864L14.4609 37.6732L14.4605 37.6735L14.7425 38.0864ZM14.6594 38.1431L14.3775 37.7302L14.3772 37.7304L14.6594 38.1431ZM14.3442 38.3594L14.6276 38.7713L14.6276 38.7713L14.3442 38.3594ZM13.225 39.1357L12.9385 38.7259L12.9385 38.7259L13.225 39.1357ZM9.89506 41.5234L10.1923 41.9255L10.1923 41.9255L9.89506 41.5234ZM6.76507 43.9845L7.09499 44.3602L7.09499 44.3602L6.76507 43.9845ZM6.15733 44.5543L5.7983 44.2063L4.77421 45.2629L6.23 45.049L6.15733 44.5543ZM6.45151 44.4959L6.56913 44.9818L6.56913 44.9818L6.45151 44.4959ZM7.8299 44.0483L7.66187 43.5774L7.66187 43.5774L7.8299 44.0483ZM8.03544 43.975L7.86792 43.5039L7.86791 43.5039L8.03544 43.975ZM11.7532 43.0751L11.7664 43.5749L11.7532 43.0751ZM23.121 45.8749L22.99 45.3924L23.121 45.8749ZM24.4649 45.413L24.6657 45.8709L24.6657 45.8709L24.4649 45.413ZM26.4464 44.4272L26.6838 44.8672L26.6838 44.8672L26.4464 44.4272ZM31.2039 41.6215L31.4689 42.0456L31.4689 42.0456L31.2039 41.6215ZM35.428 38.8988L35.7042 39.3156L35.7042 39.3156L35.428 38.8988ZM15.395 36.8327L15.0884 36.4378L15.0884 36.4378L15.395 36.8327ZM37.3979 39.095C37.4588 39.1178 37.5297 39.1438 37.6097 39.1723L37.945 38.2302C37.8703 38.2036 37.8044 38.1794 37.7483 38.1584L37.3979 39.095ZM8.31076 45.4387C8.37947 45.4142 8.44819 45.3896 8.51719 45.3651L8.18215 44.4229C8.11237 44.4477 8.04298 44.4725 7.97439 44.497L8.31076 45.4387ZM15.1778 38.4011C15.2729 38.3424 15.4177 38.2559 15.6071 38.1507L15.1214 37.2766C14.9179 37.3897 14.76 37.4839 14.6531 37.5498L15.1778 38.4011ZM15.0732 38.4669C15.0952 38.4527 15.1302 38.4304 15.1778 38.4011L14.6531 37.5498C14.5996 37.5828 14.5588 37.6087 14.5313 37.6264L15.0732 38.4669ZM15.0478 38.4833L15.0749 38.4657L14.5296 37.6275L14.5025 37.6451L15.0478 38.4833ZM15.0445 38.4855L15.0491 38.4825L14.5012 37.646L14.4967 37.649L15.0445 38.4855ZM15.0514 38.481L15.0527 38.48L14.4884 37.6545L14.4871 37.6554L15.0514 38.481ZM15.0457 38.4848L15.0503 38.4817L14.4862 37.656L14.4816 37.6591L15.0457 38.4848ZM15.024 38.4996L15.0452 38.4852L14.4822 37.6587L14.4609 37.6732L15.024 38.4996ZM14.9413 38.5561L15.0244 38.4993L14.4605 37.6735L14.3775 37.7302L14.9413 38.5561ZM14.6276 38.7713C14.7628 38.6783 14.8692 38.6054 14.9416 38.5559L14.3772 37.7304C14.304 37.7804 14.1968 37.8538 14.0607 37.9475L14.6276 38.7713ZM13.5114 39.5455C13.9714 39.224 14.3571 38.9574 14.6276 38.7713L14.0607 37.9475C13.7886 38.1347 13.4008 38.4028 12.9385 38.7259L13.5114 39.5455ZM10.1923 41.9255C11.3757 41.0505 12.5908 40.1891 13.5114 39.5455L12.9385 38.7259C12.0139 39.3723 10.791 40.2392 9.5978 41.1214L10.1923 41.9255ZM7.09499 44.3602C7.86771 43.6816 9.00324 42.8046 10.1923 41.9255L9.5978 41.1214C8.40477 42.0034 7.24106 42.9011 6.43515 43.6088L7.09499 44.3602ZM6.51635 44.9023C6.65945 44.7547 6.85269 44.573 7.09499 44.3602L6.43515 43.6088C6.18093 43.832 5.96637 44.0329 5.7983 44.2063L6.51635 44.9023ZM6.33388 44.0099C6.23539 44.0337 6.15301 44.0496 6.08466 44.0596L6.23 45.049C6.3333 45.0339 6.446 45.0116 6.56913 44.9818L6.33388 44.0099ZM7.66187 43.5774C7.1133 43.7731 6.68841 43.9241 6.33388 44.0099L6.56913 44.9818C6.98617 44.8809 7.46679 44.7087 7.99793 44.5192L7.66187 43.5774ZM7.86791 43.5039C7.79773 43.5289 7.72898 43.5534 7.66187 43.5774L7.99793 44.5192C8.06512 44.4952 8.13337 44.4709 8.20296 44.4461L7.86791 43.5039ZM11.7399 42.5753C10.1523 42.6173 9.08023 43.0728 7.86792 43.5039L8.20296 44.4461C9.46177 43.9985 10.3706 43.6119 11.7664 43.5749L11.7399 42.5753ZM24.264 44.9551C23.7126 45.1969 23.5141 45.2501 22.99 45.3924L23.2521 46.3574C23.7982 46.2091 24.0499 46.141 24.6657 45.8709L24.264 44.9551ZM26.2089 43.9872C25.482 44.3795 24.8224 44.7102 24.264 44.9551L24.6657 45.8709C25.2582 45.611 25.9439 45.2666 26.6838 44.8672L26.2089 43.9872ZM30.939 41.1975C29.3399 42.1965 27.6619 43.203 26.2089 43.9872L26.6838 44.8672C28.1638 44.0685 29.8622 43.0493 31.4689 42.0456L30.939 41.1975ZM35.1519 38.4819C34.0431 39.2164 32.5358 40.1998 30.939 41.1975L31.4689 42.0456C33.0755 41.0418 34.5907 40.0532 35.7042 39.3156L35.1519 38.4819ZM36.0614 37.876C35.8033 38.049 35.497 38.2533 35.1519 38.4819L35.7042 39.3156C36.0509 39.0859 36.3587 38.8806 36.6181 38.7067L36.0614 37.876ZM15.0452 38.4851L15.0462 38.4844L14.4923 37.6519L14.4913 37.6525L15.0452 38.4851ZM37.9301 38.9768L38.6797 38.2124L37.9657 37.5122L37.2161 38.2767L37.9301 38.9768ZM7.99776 44.5193L8.2033 44.446L7.86758 43.5041L7.66204 43.5773L7.99776 44.5193ZM11.7664 43.5749C14.0033 43.5156 15.7052 44.4276 17.4617 45.2944C19.1923 46.1485 20.9991 46.9693 23.2521 46.3574L22.99 45.3924C21.1344 45.8963 19.6394 45.254 17.9042 44.3977C16.1949 43.5541 14.2672 42.5083 11.7399 42.5753L11.7664 43.5749ZM15.0884 36.4378C14.9896 36.5145 14.9014 36.6143 14.8443 36.7414C14.7866 36.8701 14.7738 36.9978 14.7837 37.1097C14.801 37.3058 14.8943 37.475 14.9287 37.5406C14.9538 37.5887 14.9654 37.6103 14.9748 37.631C14.984 37.6515 14.9753 37.6382 14.9705 37.6045C14.9646 37.5633 14.9642 37.486 15.0071 37.4026C15.0486 37.322 15.1049 37.2858 15.1214 37.2766L15.6071 38.1507C15.712 38.0924 15.8239 38.0009 15.8963 37.86C15.9702 37.7163 15.9762 37.5738 15.9605 37.4635C15.9459 37.3609 15.9111 37.2747 15.8863 37.2197C15.8615 37.1649 15.8311 37.1083 15.8146 37.0767C15.7655 36.9831 15.7767 36.9871 15.7798 37.0215C15.7825 37.0525 15.7794 37.1002 15.7567 37.1508C15.7346 37.2 15.7067 37.2238 15.7016 37.2277L15.0884 36.4378ZM15.7016 37.2277C15.699 37.2297 15.7121 37.2192 15.7541 37.2018L15.3718 36.2777C15.2714 36.3193 15.1745 36.371 15.0884 36.4378L15.7016 37.2277ZM15.3535 35.9399L14.9712 35.0158L14.9712 35.0158L15.3535 35.9399ZM13.675 36.7398L12.6761 36.6913L12.5897 38.4719L14.1543 37.6174L13.675 36.7398ZM21.286 34.6764L21.2926 35.6764L21.2926 35.6764L21.286 34.6764ZM31.2673 36.1347L31.4744 35.1563L31.2673 36.1347ZM35.7507 37.1484L35.9837 36.1759L35.9837 36.1759L35.7507 37.1484ZM37.1226 37.4832L36.881 38.4536L36.881 38.4536L37.1226 37.4832ZM37.4976 37.5772L37.8019 36.6247L37.7726 36.6153L37.7428 36.6078L37.4976 37.5772ZM37.7931 37.6717L38.1543 36.7392L38.1262 36.7283L38.0974 36.7191L37.7931 37.6717ZM38.0918 37.7824L38.4272 36.8403L38.4272 36.8403L38.0918 37.7824ZM39.1593 38.1183L38.8934 39.0823L38.8934 39.0823L39.1593 38.1183ZM42.2746 38.5694L42.2529 37.5697L42.2529 37.5697L42.2746 38.5694ZM46.7855 37.3861L46.4094 36.4595L46.4094 36.4595L46.7855 37.3861ZM47.0459 36.9794L48.0452 36.9446L48.0452 36.9446L47.0459 36.9794ZM37.5731 38.6267L38.1343 39.4544L39.9358 38.2329L37.8355 37.6618L37.5731 38.6267ZM9.33488 40.7355L8.74037 39.9314L8.74037 39.9314L9.33488 40.7355ZM6.14233 43.247L5.48249 42.4956L5.48249 42.4956L6.14233 43.247ZM5.18266 44.2042L4.39587 43.587L4.39587 43.587L5.18266 44.2042ZM4.92464 44.6686L5.88918 44.9325L5.88918 44.9325L4.92464 44.6686ZM4.92983 45.054L3.98088 45.3695L3.98089 45.3695L4.92983 45.054ZM5.22631 45.3968L4.77205 46.2877L4.77206 46.2877L5.22631 45.3968ZM6.6719 45.4428L6.90716 46.4147L6.90717 46.4147L6.6719 45.4428ZM8.14257 44.9679L7.80664 44.026L7.8062 44.0261L8.14257 44.9679ZM8.34967 44.894L8.01462 43.9518L8.01374 43.9521L8.34967 44.894ZM11.7456 44.0483L11.772 45.0479L11.7456 44.0483ZM23.2746 46.8355L23.5238 47.8039L23.2746 46.8355ZM24.8419 46.307L24.4402 45.3913L24.4402 45.3913L24.8419 46.307ZM26.8928 45.2874L26.4178 44.4074L26.4178 44.4074L26.8928 45.2874ZM31.7025 42.4514L31.1726 41.6033L31.1726 41.6033L31.7025 42.4514ZM35.9479 39.7149L35.3957 38.8812L35.3957 38.8812L35.9479 39.7149ZM37.2812 38.8241L37.8403 39.6532L37.8404 39.6532L37.2812 38.8241ZM35.5324 38.0958L35.7654 37.1233L35.7654 37.1233L35.5324 38.0958ZM36.3397 38.2913L36.6022 37.3264L36.5899 37.323L36.5775 37.32L36.3397 38.2913ZM31.0733 37.0876L30.8662 38.0659L30.8662 38.0659L31.0733 37.0876ZM21.2922 35.6496L21.2988 36.6496L21.2988 36.6496L21.2922 35.6496ZM15.563 36.7398L15.1807 35.8157L15.1282 35.8374L15.0786 35.8649L15.563 36.7398ZM38.3227 37.8623L38.6421 36.9147L38.3227 37.8623ZM15.395 36.8327L14.9106 35.9579L14.9106 35.9579L15.395 36.8327ZM14.9712 35.0158C14.2389 35.3188 13.6359 35.6217 13.1956 35.8621L14.1543 37.6174C14.5414 37.406 15.0793 37.1355 15.7357 36.8639L14.9712 35.0158ZM21.2794 33.6764C18.7642 33.6931 16.5435 34.3653 14.9712 35.0158L15.7357 36.8639C17.1572 36.2758 19.1156 35.6908 21.2926 35.6764L21.2794 33.6764ZM31.4744 35.1563C28.0348 34.4282 23.8234 33.6595 21.2794 33.6764L21.2926 35.6764C23.5845 35.6612 27.5843 36.3771 31.0602 37.113L31.4744 35.1563ZM35.9837 36.1759C34.8226 35.8977 33.2237 35.5267 31.4744 35.1563L31.0602 37.113C32.7875 37.4787 34.3684 37.8454 35.5176 38.1208L35.9837 36.1759ZM37.3642 36.5128C37.0367 36.4313 36.5646 36.3151 35.9837 36.1759L35.5176 38.1208C36.0922 38.2585 36.5585 38.3733 36.881 38.4536L37.3642 36.5128ZM37.7428 36.6078C37.6557 36.5857 37.528 36.5536 37.3642 36.5128L36.881 38.4536C37.0423 38.4937 37.1675 38.5253 37.2524 38.5467L37.7428 36.6078ZM38.4272 36.8403C38.3073 36.7976 38.2147 36.7626 38.1543 36.7392L37.4318 38.6041C37.5079 38.6336 37.6179 38.6751 37.7565 38.7245L38.4272 36.8403ZM42.2529 37.5697C41.3042 37.5902 40.2673 37.3866 39.4252 37.1543L38.8934 39.0823C39.8208 39.3381 41.0703 39.5958 42.2963 39.5692L42.2529 37.5697ZM46.4094 36.4595C45.3887 36.8738 43.5136 37.5423 42.2529 37.5697L42.2963 39.5692C43.9735 39.5328 46.1691 38.7155 47.1616 38.3126L46.4094 36.4595ZM46.0465 37.0143C46.0384 36.7832 46.1752 36.5546 46.4094 36.4595L47.1616 38.3127C47.7227 38.0849 48.0658 37.5337 48.0452 36.9446L46.0465 37.0143ZM30.3554 21.5645C38.8187 21.5645 45.7464 28.4127 46.0465 37.0143L48.0452 36.9446C47.709 27.3052 39.9348 19.5645 30.3554 19.5645V21.5645ZM14.6738 36.7883C15.0863 28.2927 21.9663 21.5645 30.3554 21.5645V19.5645C20.86 19.5645 13.1385 27.1699 12.6761 36.6913L14.6738 36.7883ZM11.0415 38.2721C10.327 38.7803 9.39516 39.4473 8.74037 39.9314L9.92939 41.5396C10.5679 41.0675 11.4865 40.4099 12.2007 39.9019L11.0415 38.2721ZM8.74037 39.9314C7.54157 40.8177 6.33681 41.7454 5.48249 42.4956L6.80218 43.9984C7.59013 43.3065 8.73856 42.42 9.92939 41.5396L8.74037 39.9314ZM5.48249 42.4956C5.0693 42.8585 4.66836 43.2397 4.39587 43.587L5.96945 44.8214C6.12094 44.6283 6.40351 44.3485 6.80218 43.9984L5.48249 42.4956ZM4.39587 43.587C4.27884 43.7362 4.06318 44.028 3.96011 44.4046L5.88918 44.9325C5.88331 44.954 5.88031 44.9523 5.89629 44.9251C5.91161 44.8991 5.93497 44.8654 5.96946 44.8214L4.39587 43.587ZM3.96011 44.4046C3.90429 44.6086 3.84625 44.9644 3.98088 45.3695L5.87878 44.7386C5.91235 44.8396 5.89382 44.9156 5.88918 44.9325L3.96011 44.4046ZM3.98089 45.3695C4.13105 45.8212 4.44944 46.1232 4.77205 46.2877L5.68056 44.5059C5.75483 44.5438 5.83952 44.6205 5.87878 44.7386L3.98089 45.3695ZM4.77206 46.2877C5.55771 46.6883 6.40076 46.5373 6.90716 46.4147L6.43665 44.4709C5.98866 44.5793 5.77684 44.555 5.68056 44.5059L4.77206 46.2877ZM6.90717 46.4147C7.40691 46.2938 7.96541 46.093 8.47895 45.9096L7.8062 44.0261C7.26219 44.2205 6.81224 44.3799 6.43664 44.4709L6.90717 46.4147ZM8.68471 45.8362C9.98453 45.374 10.604 45.0788 11.772 45.0479L11.7191 43.0486C10.1577 43.0899 9.18586 43.5353 8.01462 43.9518L8.68471 45.8362ZM23.5238 47.8039C24.1834 47.6342 24.5805 47.5137 25.2436 47.2228L24.4402 45.3913C23.9043 45.6264 23.6159 45.7151 23.0254 45.867L23.5238 47.8039ZM25.2436 47.2228C25.8854 46.9413 26.6088 46.577 27.3677 46.1674L26.4178 44.4074C25.685 44.8029 25.0138 45.1397 24.4402 45.3913L25.2436 47.2228ZM27.3677 46.1674C28.8868 45.3476 30.6147 44.3101 32.2323 43.2995L31.1726 41.6033C29.5701 42.6045 27.8829 43.6167 26.4178 44.4074L27.3677 46.1674ZM32.2323 43.2995C33.8534 42.2867 35.3799 41.2907 36.5002 40.5486L35.3957 38.8812C34.2847 39.6172 32.7739 40.6029 31.1726 41.6033L32.2323 43.2995ZM36.5002 40.5486C37.0607 40.1773 37.5203 39.869 37.8403 39.6532L36.7221 37.995C36.406 38.2081 35.951 38.5134 35.3957 38.8812L36.5002 40.5486ZM37.8404 39.6532C37.9578 39.574 38.0564 39.5073 38.1343 39.4544L37.0119 37.7991C36.9353 37.851 36.8381 37.9168 36.7221 37.995L37.8404 39.6532ZM35.2993 39.0683C35.598 39.1399 35.8673 39.2052 36.102 39.2626L36.5775 37.32C36.3399 37.2618 36.0675 37.1957 35.7654 37.1233L35.2993 39.0683ZM30.8662 38.0659C32.5832 38.4294 34.1556 38.7942 35.2993 39.0683L35.7654 37.1233C34.6098 36.8464 33.0194 36.4774 31.2804 36.1093L30.8662 38.0659ZM21.2988 36.6496C23.4726 36.6352 27.373 37.3264 30.8662 38.0659L31.2804 36.1093C27.824 35.3775 23.7116 34.6335 21.2856 34.6496L21.2988 36.6496ZM15.9452 37.6638C17.2502 37.1239 19.2383 36.6632 21.2988 36.6496L21.2856 34.6496C18.9703 34.6649 16.7269 35.1761 15.1807 35.8157L15.9452 37.6638ZM39.4252 37.1543C39.1239 37.0712 38.8577 36.9873 38.6421 36.9147L38.0034 38.8099C38.2491 38.8928 38.5513 38.9879 38.8934 39.0823L39.4252 37.1543ZM38.6421 36.9147C38.5633 36.8881 38.4914 36.8631 38.4272 36.8403L37.7565 38.7244C37.8308 38.7509 37.9134 38.7796 38.0034 38.8099L38.6421 36.9147ZM36.0773 39.2563L37.3107 39.5917L37.8355 37.6618L36.6022 37.3264L36.0773 39.2563ZM8.4785 45.9098L8.68559 45.8359L8.01374 43.9521L7.80664 44.026L8.4785 45.9098ZM38.0974 36.7191L37.8019 36.6247L37.1932 38.5298L37.4887 38.6242L38.0974 36.7191ZM11.772 45.0479C13.8735 44.9924 15.4877 45.8293 17.2988 46.6993C19.059 47.5449 21.0492 48.4407 23.5238 47.8039L23.0254 45.867C21.3196 46.3059 19.9312 45.7451 18.1649 44.8965C16.4495 44.0725 14.3894 42.978 11.7191 43.0486L11.772 45.0479ZM15.0786 35.8649L14.9106 35.9579L15.8794 37.7076L16.0473 37.6146L15.0786 35.8649ZM14.3113 38.5758L15.8794 37.7076L14.9106 35.9579L13.3425 36.8261L14.3113 38.5758ZM12.2007 39.9019C12.8769 39.4209 13.582 38.9796 14.3113 38.5758L13.3425 36.8261C12.5509 37.2644 11.782 37.7454 11.0415 38.2721L12.2007 39.9019Z" fill="#292929" mask="url(#path-2-outside-1_9683_25709)"/>
</svg>
