<svg width="45" height="48" viewBox="0 0 45 48" fill="none" xmlns="http://www.w3.org/2000/svg">
<path d="M34.2095 48.0004H42.8935C43.5001 48.0004 43.9682 47.4663 43.8903 46.8648C43.4789 43.6872 42.3602 34.5255 42.2715 28.2024C42.2609 27.4444 42.2614 26.4641 42.2643 25.7012C42.2667 25.0729 41.6997 24.5926 41.0795 24.6932C38.916 25.0442 34.2122 25.7276 30.3808 25.7276C26.5496 25.7276 21.8464 25.0444 19.6826 24.6933C19.0622 24.5926 18.4951 25.0734 18.4976 25.7019C18.5007 26.4647 18.5012 27.4446 18.4899 28.2024C18.396 34.5224 17.211 43.6705 16.7734 46.8558C16.6903 47.4601 17.1594 48.0004 17.7694 48.0004H26.3508C26.8151 48.0004 27.2184 47.6808 27.3244 47.2287L29.6134 37.4676C29.6963 37.114 30.0117 36.864 30.3748 36.864C30.7434 36.864 31.0619 37.1213 31.1394 37.4817L33.2319 47.2107C33.331 47.6714 33.7383 48.0004 34.2095 48.0004Z" fill="white"/>
<path fill-rule="evenodd" clip-rule="evenodd" d="M10.6433 1.63291L10.6549 1.67167L10.6561 1.67551C10.6767 1.74376 10.6993 1.81491 10.7242 1.88859C10.7726 2.0318 10.8295 2.18456 10.8963 2.34401C11.0497 2.71032 11.2553 3.11202 11.5301 3.51479C12.4834 4.91196 14.2376 6.26931 17.36 6.26931C20.4579 6.26931 22.209 4.93309 23.1673 3.54753L23.1898 3.5148C23.4554 3.12552 23.6564 2.73726 23.808 2.38098C23.8768 2.21944 23.9354 2.06448 23.9853 1.91898C24.0144 1.83444 24.0404 1.7531 24.0639 1.67551L24.0652 1.671L24.0766 1.63291C24.0989 1.55714 24.1188 1.48497 24.1363 1.41694L23.0831 1.38566L23.0747 1.41338C22.9758 1.73493 22.8251 2.12556 22.5982 2.53251C22.5416 2.63418 22.4801 2.73687 22.4136 2.83976C22.3902 2.87592 22.3661 2.9121 22.3414 2.94828C21.5673 4.08286 20.1227 5.25672 17.36 5.25672C14.5972 5.25672 13.1526 4.08285 12.3785 2.94828C12.2836 2.80918 12.1983 2.66992 12.1217 2.53251C11.9194 2.16963 11.7776 1.81972 11.6792 1.5202C11.6641 1.47412 11.6499 1.42922 11.6368 1.38566L10.5746 1.38174C10.5943 1.45992 10.6171 1.54393 10.6433 1.63291ZM6.13679 10.9592L3.91969 12.7139L4.55911 13.5046L6.7762 11.7499C7.13348 11.4671 7.65764 11.7549 7.60418 12.2044L6.1873 26.1902L6.13679 26.8957V27.3097L6.29201 28.0263C6.38451 28.4534 6.5141 28.9915 6.68642 29.5793C7.09297 30.9661 7.757 32.7003 8.78142 33.8777C9.72026 34.9567 11.1978 35.8786 12.397 36.5189C12.8607 36.7665 13.2912 36.9763 13.6461 37.1411L14.3639 37.4744C14.4785 37.5101 15.4706 37.5978 15.4706 37.5978H19.245C19.245 37.5978 20.2431 37.5108 20.3516 37.4744L21.0695 37.1411C21.4244 36.9763 21.8549 36.7665 22.3185 36.5189C23.5178 35.8786 24.9953 34.9567 25.9341 33.8777C26.9585 32.7003 27.6226 30.9661 28.0291 29.5793C28.2014 28.9915 28.331 28.4534 28.4235 28.0263L28.5787 27.3097V27.0191L28.5282 26.1902L26.604 12.2044C26.5505 11.7549 27.0747 11.4671 27.432 11.7499L29.649 13.5046C30.3949 14.0948 31.4987 13.8754 31.956 13.0458L34.1012 9.15508C34.4087 8.5974 34.3354 7.90542 33.8966 7.43025L33.1409 8.11327C33.2777 8.26138 33.3061 8.48265 33.2027 8.67021L31.0574 12.561C30.905 12.8375 30.5371 12.9106 30.2885 12.7139L28.0714 10.9592C26.9995 10.1109 25.427 10.9741 25.5874 12.3227L27.5519 26.6467L27.4227 27.8142C27.3451 28.1723 27.2403 28.6117 27.1051 29.092C27.086 29.1596 27.0663 29.2281 27.0461 29.2972C26.6478 30.6556 26.0324 32.2125 25.1584 33.2171C24.3521 34.1437 23.0245 34.9898 21.8511 35.6178L21.8324 35.6278C21.3886 35.8648 20.9755 36.0661 20.6346 36.2245L19.5001 36.5852H15.2154L14.081 36.2245C13.74 36.0661 13.327 35.8648 12.8831 35.6278L12.8644 35.6178C11.691 34.9898 10.3634 34.1437 9.55718 33.2171C8.68309 32.2125 8.06769 30.6556 7.66947 29.2972C7.64919 29.2281 7.62953 29.1596 7.61048 29.092C7.47519 28.6117 7.37043 28.1723 7.29285 27.8142L7.16364 26.6467L8.62072 12.3227C8.7811 10.9741 7.20862 10.1109 6.13679 10.9592Z" fill="#292929"/>
<path d="M10.6549 1.67167L10.6433 1.63291C10.6171 1.54393 10.5943 1.45992 10.5746 1.38174L10.5681 1.38418C10.3106 1.48073 9.98155 1.60691 9.61481 1.75415L9.48689 1.80575C8.55076 2.18517 7.42913 2.67966 6.6198 3.15951C4.53078 4.3981 2.07641 6.98445 1.05834 8.11094C0.925329 8.25811 0.898524 8.47622 1.00068 8.66149L3.1507 12.561C3.30315 12.8375 3.67109 12.9106 3.91969 12.7139L6.13679 10.9592C7.20862 10.1109 8.7811 10.9741 8.62072 12.3227L7.16364 26.6467C7.25296 26.685 7.35676 26.7303 7.47275 26.782C7.54552 26.8145 7.62315 26.8496 7.70508 26.8871L7.72374 26.8957C8.0988 27.0679 8.56225 27.2914 9.06032 27.5563C10.2721 28.2008 11.7582 29.1259 12.6363 30.1893C13.553 31.2994 14.2158 33.0292 14.6451 34.4234C14.8262 35.0114 14.9698 35.5535 15.0757 35.986L15.0819 36.0109C15.1012 36.0903 15.1193 36.1658 15.1361 36.2372C15.1668 36.3678 15.1932 36.4846 15.2154 36.5852H19.5001C19.5223 36.4846 19.5488 36.3678 19.5795 36.2372C19.5963 36.1658 19.6143 36.0903 19.6337 36.0109L19.6386 35.9907L19.6398 35.986C19.7457 35.5535 19.8893 35.0114 20.0704 34.4234C20.4998 33.0292 21.1625 31.2994 22.0792 30.1893C22.9574 29.1259 24.4434 28.2008 25.6552 27.5563C26.1533 27.2914 26.6167 27.0679 26.9918 26.8957L27.0105 26.8871C27.0924 26.8496 27.17 26.8145 27.2428 26.782C27.3588 26.7303 27.4626 26.685 27.5519 26.6467L25.5874 12.3227C25.427 10.9741 26.9995 10.1109 28.0714 10.9592L30.2885 12.7139C30.5371 12.9106 30.905 12.8375 31.0574 12.561L33.2027 8.67021C33.3061 8.48265 33.2777 8.26138 33.1409 8.11327C32.1097 6.99672 29.6421 4.43943 27.5787 3.15364C26.8678 2.71068 25.8984 2.22811 25.0797 1.84555L25.0192 1.81731C24.6864 1.66237 24.3838 1.52631 24.1413 1.41913L24.1363 1.41694C24.1188 1.48497 24.0989 1.55714 24.0766 1.63291L24.0652 1.671L24.0639 1.67551C24.0404 1.7531 24.0144 1.83444 23.9853 1.91898C23.9354 2.06448 23.8768 2.21944 23.808 2.38098C23.6564 2.73726 23.4554 3.12552 23.1898 3.5148L23.1673 3.54753C22.209 4.93309 20.4579 6.26931 17.36 6.26931C14.2376 6.26931 12.4834 4.91196 11.5301 3.51479C11.2553 3.11202 11.0497 2.71032 10.8963 2.34401C10.8295 2.18456 10.7726 2.0318 10.7242 1.88859C10.6993 1.81491 10.6767 1.74376 10.6561 1.67551L10.6549 1.67167Z" fill="white"/>
<path d="M7.29285 27.8142C7.37043 28.1723 7.47519 28.6117 7.61048 29.092C7.62953 29.1596 7.64919 29.2281 7.66947 29.2972C8.06769 30.6556 8.68309 32.2125 9.55718 33.2171C10.3634 34.1437 11.691 34.9898 12.8644 35.6178L12.8831 35.6278C13.327 35.8648 13.74 36.0661 14.081 36.2245L14.0502 36.1001C13.9648 35.7585 13.8575 35.3567 13.7284 34.9242C13.7081 34.8564 13.6873 34.7878 13.666 34.7185C13.2402 33.336 12.6235 31.7744 11.8436 30.8299C11.1023 29.9322 9.77322 29.0851 8.57563 28.4482L8.48286 28.3991C8.04111 28.1668 7.6302 27.9691 7.29285 27.8142Z" fill="white"/>
<path d="M20.6346 36.2245C20.9755 36.0661 21.3886 35.8648 21.8324 35.6278L21.8511 35.6178C23.0245 34.9898 24.3521 34.1437 25.1584 33.2171C26.0324 32.2125 26.6478 30.6556 27.0461 29.2972C27.0663 29.2281 27.086 29.1596 27.1051 29.092C27.2403 28.6117 27.3451 28.1723 27.4227 27.8142L27.3425 27.8511C27.0211 28.0001 26.64 28.1849 26.2327 28.3991L26.1399 28.4482C24.9423 29.0851 23.6132 29.9322 22.8719 30.8299C22.092 31.7744 21.4753 33.336 21.0495 34.7185C21.0282 34.7878 21.0074 34.8564 20.9871 34.9242C20.842 35.4104 20.7244 35.8578 20.6346 36.2245Z" fill="white"/>
<path d="M27.5519 26.6467C27.4626 26.685 27.3588 26.7303 27.2428 26.782C27.17 26.8145 27.0924 26.8496 27.0105 26.8871L26.9918 26.8957C26.6167 27.0679 26.1533 27.2914 25.6552 27.5563C24.4434 28.2008 22.9574 29.1259 22.0792 30.1893C21.1625 31.2994 20.4998 33.0292 20.0704 34.4234C19.8893 35.0114 19.7457 35.5535 19.6398 35.986L19.6386 35.9907L19.6337 36.0109C19.6143 36.0903 19.5963 36.1658 19.5795 36.2372C19.5488 36.3678 19.5223 36.4846 19.5001 36.5852L20.6346 36.2245C20.7244 35.8578 20.842 35.4104 20.9871 34.9242C21.0074 34.8564 21.0282 34.7878 21.0495 34.7185C21.4753 33.336 22.092 31.7744 22.8719 30.8299C23.6132 29.9322 24.9423 29.0851 26.1399 28.4482L26.2327 28.3991C26.64 28.1849 27.0211 28.0001 27.3425 27.8511L27.4227 27.8142L27.5519 26.6467Z" fill="#292929"/>
<path d="M12.1217 2.53251C12.1983 2.66992 12.2836 2.80918 12.3785 2.94828C13.1526 4.08285 14.5972 5.25672 17.36 5.25672C20.1227 5.25672 21.5673 4.08286 22.3414 2.94828C22.3661 2.9121 22.3902 2.87592 22.4136 2.83976C22.4801 2.73687 22.5416 2.63418 22.5982 2.53251C22.8251 2.12556 22.9758 1.73493 23.0747 1.41338L23.0831 1.38566C22.7595 1.46088 22.3545 1.55115 21.9001 1.64407C21.8047 1.66359 21.707 1.68323 21.6075 1.70287C20.3186 1.95717 18.6781 2.21894 17.36 2.21894C16.0419 2.21894 14.4014 1.95717 13.1125 1.70287C13.0129 1.68323 12.9153 1.66359 12.8198 1.64406C12.3654 1.55115 11.9605 1.46088 11.6368 1.38566C11.6499 1.42922 11.6641 1.47412 11.6792 1.5202C11.7776 1.81972 11.9194 2.16963 12.1217 2.53251Z" fill="white"/>
</svg>
