<svg width="48" height="50" viewBox="0 0 48 50" fill="none" xmlns="http://www.w3.org/2000/svg">
<path d="M33.5489 47H35.7484C36.2814 47 36.7207 46.5864 36.748 46.054C36.8891 43.3023 37.3201 35.1442 37.7438 29.575C38.1563 24.153 39.1475 21.169 39.3995 15.7375C39.5311 12.9024 38.8347 8.87533 38.473 7.01463C38.3649 6.4586 37.8106 6.11359 37.2561 6.22936C35.809 6.5315 32.9888 7.025 30.0056 7.025C27.0128 7.025 24.0967 6.52829 22.6008 6.22642C22.0364 6.11253 21.479 6.4778 21.3868 7.04614C21.0707 8.99506 20.4599 13.255 20.6117 16.25C20.877 21.4818 21.7412 24.3478 22.0873 29.575C22.4541 35.1155 22.5698 43.2148 22.5999 46.0091C22.6059 46.5587 23.0528 47 23.6024 47H26.2822C26.8437 47 27.296 46.538 27.288 45.9765C27.2477 43.15 27.1988 35.0816 27.828 29.575C28.3362 25.1272 29.1769 18.6121 29.4176 16.7587C29.4556 16.4659 29.7046 16.25 29.9999 16.25C30.3001 16.25 30.5518 16.4739 30.5843 16.7723C30.7879 18.6438 31.4961 25.138 32.0031 29.575C32.6323 35.0816 32.5834 43.15 32.5431 45.9765C32.5351 46.538 32.9874 47 33.5489 47Z" fill="white"/>
<path d="M16.2663 42.3409L16.0932 42.4822L15.934 42.6069C15.6093 42.8612 15.2516 43.1239 14.8542 43.381L14.6772 43.4956L14.4994 43.6024C14.14 43.8182 13.7503 44.0271 13.3264 44.22L13.1256 44.3114L12.9216 44.3947C12.6314 44.5133 12.3261 44.624 12.0044 44.7243C11.8888 44.7603 11.7612 44.7786 11.6286 44.7786C10.3655 44.7786 9.30469 45.7649 9.30469 47.0261V47.1395C9.30469 48.4633 10.4185 49.5003 11.7469 49.5003H21.6578C23.3129 49.5003 24.5513 48.0192 24.293 46.4374C24.1835 45.7664 24.089 45.0471 24.0488 44.3893C24.0294 44.0716 24.0346 43.7388 24.0401 43.408L24.0405 43.3783C24.0463 43.0287 24.0525 42.656 24.0123 42.3637C23.9917 42.214 23.9535 42.0366 23.866 41.8797C23.7691 41.706 23.5961 41.5351 23.3298 41.4926C23.165 41.4663 22.9942 41.476 22.8302 41.5422C22.6673 41.6079 22.5482 41.7143 22.4618 41.8221C22.3179 42.0018 22.228 42.2398 22.1661 42.4036C22.1622 42.414 22.1583 42.4242 22.1546 42.434C22.0465 42.7186 21.9601 42.9284 21.8088 43.084C21.6822 43.2142 21.4673 43.3472 21.0099 43.3472C20.7817 43.3472 20.5048 43.2236 20.2132 43.0042C19.9833 42.8313 19.7852 42.6297 19.6493 42.4773C19.7003 42.3223 19.746 42.11 19.7228 41.8754C19.6922 41.5658 19.5431 41.247 19.21 41.0077C18.7601 40.6844 18.2827 40.8358 17.9354 41.0318C17.6027 41.2196 17.2279 41.5355 16.8334 41.868C16.8224 41.8772 16.8114 41.8865 16.8004 41.8958C16.6327 42.0371 16.456 42.186 16.2663 42.3409Z" fill="white" stroke="#292929" stroke-linecap="round"/>
<mask id="path-3-outside-1_9863_33501" maskUnits="userSpaceOnUse" x="6" y="0.408203" width="21" height="14" fill="black">
<rect fill="white" x="6" y="0.408203" width="21" height="14"/>
<path fill-rule="evenodd" clip-rule="evenodd" d="M10.807 8.20184C10.9865 8.10694 11.2339 7.98652 11.5351 7.86587C12.1844 7.60578 13.0908 7.34174 14.1085 7.33521C15.1573 7.32849 16.9382 7.64024 18.4381 7.94769C19.1921 8.10225 19.8817 8.25718 20.3828 8.37345C20.6334 8.4316 20.837 8.4801 20.9779 8.51408C21.0484 8.53108 21.1033 8.54445 21.1406 8.55358L21.2688 8.59323C21.2984 8.60434 21.3423 8.6204 21.3984 8.63972C21.4284 8.65008 21.4619 8.66136 21.4985 8.6733C21.5986 8.70595 21.7218 8.74356 21.8614 8.78082C22.2452 8.88331 22.7411 8.9802 23.2127 8.97029C23.8499 8.9569 24.7328 8.6449 25.1694 8.47329C25.2403 8.44543 25.2851 8.37769 25.2824 8.3025C25.1444 4.47189 21.9557 1.4082 18.0425 1.4082C14.1636 1.4082 10.9967 4.41828 10.807 8.20184Z"/>
<path d="M20.6384 8.85349C20.5359 8.82921 20.4184 8.8016 20.2881 8.77137C19.7895 8.65566 19.1035 8.50156 18.3539 8.34792C16.8467 8.03895 15.1088 7.73756 14.1112 7.74396C13.1621 7.75004 12.2444 7.95413 11.626 8.20184L11.5531 8.24089C11.3904 8.36319 11.6932 8.52832 11.5398 8.61087C11.4546 8.65671 11.3889 8.69465 11.3451 8.72081C11.3232 8.73389 11.3067 8.74402 11.296 8.75072L11.2843 8.75811L11.2823 8.75938L11.2817 8.75976L11.2812 8.76004L11.2793 8.76136L11.2701 8.76743L11.234 8.79124C11.2024 8.81215 11.1561 8.84287 11.0973 8.88207C10.9796 8.96047 10.8118 9.07275 10.6118 9.20815C10.2116 9.47904 9.68283 9.84198 9.16739 10.211C8.65075 10.5808 8.15208 10.9535 7.80969 11.2446C7.702 11.3362 7.61356 11.4165 7.54607 11.484C7.5833 11.4787 7.62561 11.4707 7.67368 11.4594C7.84102 11.4202 8.03741 11.3523 8.27159 11.2714L8.36074 11.2407C8.89669 11.0561 9.32634 10.8793 9.9734 10.8627C12.0399 10.8097 13.1223 12.5072 14.9044 12.0386C15.1366 11.9776 15.2342 11.9521 15.4874 11.8446C15.737 11.7386 16.0287 11.5968 16.3469 11.4306C16.983 11.0982 17.7153 10.6728 18.4106 10.2522C19.1054 9.83187 19.7609 9.41776 20.2429 9.10861C20.3929 9.01237 20.5261 8.92633 20.6384 8.85349Z"/>
<path d="M11.5112 8.26337C10.7561 8.66817 10.0215 9.11064 9.31922 9.60139C9.17696 9.7008 9.04036 9.79702 8.9244 9.88003C8.40613 10.2511 7.89575 10.632 7.53957 10.9349C7.36349 11.0846 7.21524 11.2234 7.12329 11.3369C7.08027 11.39 7.03226 11.458 7.01137 11.5319C7.00027 11.5712 6.9917 11.63 7.01362 11.6938C7.03767 11.7639 7.08836 11.8112 7.14222 11.8378C7.3335 11.9322 7.56229 11.9056 7.76928 11.8571C7.95913 11.8126 8.17785 11.737 8.40721 11.6576L8.49705 11.6266C9.03298 11.4421 9.37812 11.2866 9.97009 11.2714C12.0399 11.2184 13.1577 12.8938 14.971 12.442C15.2422 12.3745 15.3909 12.3305 15.6509 12.2201C15.9145 12.1081 16.217 11.9609 16.5405 11.7918C17.1877 11.4536 17.9284 11.0232 18.6268 10.6007C19.3257 10.178 19.9845 9.76178 20.4684 9.4514C20.7104 9.29617 20.9088 9.16733 21.0467 9.07725C21.0974 9.0442 21.1398 9.01637 21.1734 8.99436L20.6384 8.85349C20.5261 8.92633 20.3929 9.01237 20.2429 9.10861C19.7609 9.41776 19.1054 9.83187 18.4106 10.2522C17.7153 10.6728 16.983 11.0982 16.3469 11.4306C16.0287 11.5968 15.737 11.7386 15.4874 11.8446C15.2342 11.9521 15.1366 11.9776 14.9044 12.0386C13.1223 12.5072 12.0399 10.8097 9.9734 10.8627C9.32634 10.8793 8.89669 11.0561 8.36074 11.2407L8.27159 11.2714C8.03741 11.3523 7.84102 11.4202 7.67368 11.4594C7.62561 11.4707 7.5833 11.4787 7.54607 11.484C7.61356 11.4165 7.702 11.3362 7.80969 11.2446C8.15208 10.9535 8.65075 10.5808 9.16739 10.211C9.68283 9.84198 10.2116 9.47904 10.6118 9.20815C10.8118 9.07275 10.9796 8.96047 11.0973 8.88207C11.1561 8.84287 11.2024 8.81215 11.234 8.79124L11.2701 8.76743L11.2793 8.76136L11.2812 8.76004L11.2817 8.75976L11.2823 8.75938L11.2843 8.75811L11.296 8.75072C11.3067 8.74402 11.3232 8.73389 11.3451 8.72081C11.3889 8.69465 11.4546 8.65671 11.5398 8.61087C11.6932 8.52832 11.3904 8.36319 11.5531 8.24089L11.5112 8.26337Z"/>
</mask>
<path fill-rule="evenodd" clip-rule="evenodd" d="M10.807 8.20184C10.9865 8.10694 11.2339 7.98652 11.5351 7.86587C12.1844 7.60578 13.0908 7.34174 14.1085 7.33521C15.1573 7.32849 16.9382 7.64024 18.4381 7.94769C19.1921 8.10225 19.8817 8.25718 20.3828 8.37345C20.6334 8.4316 20.837 8.4801 20.9779 8.51408C21.0484 8.53108 21.1033 8.54445 21.1406 8.55358L21.2688 8.59323C21.2984 8.60434 21.3423 8.6204 21.3984 8.63972C21.4284 8.65008 21.4619 8.66136 21.4985 8.6733C21.5986 8.70595 21.7218 8.74356 21.8614 8.78082C22.2452 8.88331 22.7411 8.9802 23.2127 8.97029C23.8499 8.9569 24.7328 8.6449 25.1694 8.47329C25.2403 8.44543 25.2851 8.37769 25.2824 8.3025C25.1444 4.47189 21.9557 1.4082 18.0425 1.4082C14.1636 1.4082 10.9967 4.41828 10.807 8.20184Z" fill="white"/>
<path d="M20.6384 8.85349C20.5359 8.82921 20.4184 8.8016 20.2881 8.77137C19.7895 8.65566 19.1035 8.50156 18.3539 8.34792C16.8467 8.03895 15.1088 7.73756 14.1112 7.74396C13.1621 7.75004 12.2444 7.95413 11.626 8.20184L11.5531 8.24089C11.3904 8.36319 11.6932 8.52832 11.5398 8.61087C11.4546 8.65671 11.3889 8.69465 11.3451 8.72081C11.3232 8.73389 11.3067 8.74402 11.296 8.75072L11.2843 8.75811L11.2823 8.75938L11.2817 8.75976L11.2812 8.76004L11.2793 8.76136L11.2701 8.76743L11.234 8.79124C11.2024 8.81215 11.1561 8.84287 11.0973 8.88207C10.9796 8.96047 10.8118 9.07275 10.6118 9.20815C10.2116 9.47904 9.68283 9.84198 9.16739 10.211C8.65075 10.5808 8.15208 10.9535 7.80969 11.2446C7.702 11.3362 7.61356 11.4165 7.54607 11.484C7.5833 11.4787 7.62561 11.4707 7.67368 11.4594C7.84102 11.4202 8.03741 11.3523 8.27159 11.2714L8.36074 11.2407C8.89669 11.0561 9.32634 10.8793 9.9734 10.8627C12.0399 10.8097 13.1223 12.5072 14.9044 12.0386C15.1366 11.9776 15.2342 11.9521 15.4874 11.8446C15.737 11.7386 16.0287 11.5968 16.3469 11.4306C16.983 11.0982 17.7153 10.6728 18.4106 10.2522C19.1054 9.83187 19.7609 9.41776 20.2429 9.10861C20.3929 9.01237 20.5261 8.92633 20.6384 8.85349Z" fill="white"/>
<path d="M11.5112 8.26337C10.7561 8.66817 10.0215 9.11064 9.31922 9.60139C9.17696 9.7008 9.04036 9.79702 8.9244 9.88003C8.40613 10.2511 7.89575 10.632 7.53957 10.9349C7.36349 11.0846 7.21524 11.2234 7.12329 11.3369C7.08027 11.39 7.03226 11.458 7.01137 11.5319C7.00027 11.5712 6.9917 11.63 7.01362 11.6938C7.03767 11.7639 7.08836 11.8112 7.14222 11.8378C7.3335 11.9322 7.56229 11.9056 7.76928 11.8571C7.95913 11.8126 8.17785 11.737 8.40721 11.6576L8.49705 11.6266C9.03298 11.4421 9.37812 11.2866 9.97009 11.2714C12.0399 11.2184 13.1577 12.8938 14.971 12.442C15.2422 12.3745 15.3909 12.3305 15.6509 12.2201C15.9145 12.1081 16.217 11.9609 16.5405 11.7918C17.1877 11.4536 17.9284 11.0232 18.6268 10.6007C19.3257 10.178 19.9845 9.76178 20.4684 9.4514C20.7104 9.29617 20.9088 9.16733 21.0467 9.07725C21.0974 9.0442 21.1398 9.01637 21.1734 8.99436L20.6384 8.85349C20.5261 8.92633 20.3929 9.01237 20.2429 9.10861C19.7609 9.41776 19.1054 9.83187 18.4106 10.2522C17.7153 10.6728 16.983 11.0982 16.3469 11.4306C16.0287 11.5968 15.737 11.7386 15.4874 11.8446C15.2342 11.9521 15.1366 11.9776 14.9044 12.0386C13.1223 12.5072 12.0399 10.8097 9.9734 10.8627C9.32634 10.8793 8.89669 11.0561 8.36074 11.2407L8.27159 11.2714C8.03741 11.3523 7.84102 11.4202 7.67368 11.4594C7.62561 11.4707 7.5833 11.4787 7.54607 11.484C7.61356 11.4165 7.702 11.3362 7.80969 11.2446C8.15208 10.9535 8.65075 10.5808 9.16739 10.211C9.68283 9.84198 10.2116 9.47904 10.6118 9.20815C10.8118 9.07275 10.9796 8.96047 11.0973 8.88207C11.1561 8.84287 11.2024 8.81215 11.234 8.79124L11.2701 8.76743L11.2793 8.76136L11.2812 8.76004L11.2817 8.75976L11.2823 8.75938L11.2843 8.75811L11.296 8.75072C11.3067 8.74402 11.3232 8.73389 11.3451 8.72081C11.3889 8.69465 11.4546 8.65671 11.5398 8.61087C11.6932 8.52832 11.3904 8.36319 11.5531 8.24089L11.5112 8.26337Z" fill="white"/>
<path d="M21.1734 8.99436L20.8221 8.63858L20.2587 9.19481L21.003 9.46446L21.1734 8.99436ZM11.5398 8.61087L11.7767 9.05119L11.7767 9.05119L11.5398 8.61087ZM11.3451 8.72081L11.0888 8.29147L11.0888 8.29147L11.3451 8.72081ZM11.296 8.75072L11.0312 8.32656L11.0295 8.32766L11.296 8.75072ZM11.2843 8.75811L11.0177 8.33506L11.0165 8.33585L11.2843 8.75811ZM11.2823 8.75938L11.0145 8.33703L11.0063 8.34242L11.2823 8.75938ZM11.2817 8.75976L11.5525 9.18012L11.5576 9.17672L11.2817 8.75976ZM11.2812 8.76004L11.0104 8.33968L11.0054 8.34303L11.2812 8.76004ZM11.2793 8.76136L11.5546 9.17873L11.5551 9.17837L11.2793 8.76136ZM11.2701 8.76743L10.9947 8.35005L10.9943 8.35033L11.2701 8.76743ZM11.234 8.79124L10.9583 8.37414L10.958 8.37431L11.234 8.79124ZM11.0973 8.88207L11.3745 9.29819L11.3745 9.29819L11.0973 8.88207ZM10.6118 9.20815L10.3316 8.79408H10.3316L10.6118 9.20815ZM9.16739 10.211L9.45844 10.6175H9.45844L9.16739 10.211ZM7.80969 11.2446L8.13358 11.6255H8.13358L7.80969 11.2446ZM7.54607 11.484L7.19271 11.1302L6.13161 12.1902L7.61648 11.979L7.54607 11.484ZM7.67368 11.4594L7.78777 11.9462H7.78777L7.67368 11.4594ZM8.27159 11.2714L8.10831 10.7988H8.10831L8.27159 11.2714ZM8.36074 11.2407L8.19797 10.7679L8.19797 10.7679L8.36074 11.2407ZM9.9734 10.8627L9.98622 11.3625L9.9734 10.8627ZM14.9044 12.0386L14.7773 11.555L14.9044 12.0386ZM15.4874 11.8446L15.6828 12.3048L15.6828 12.3048L15.4874 11.8446ZM16.3469 11.4306L16.5784 11.8737L16.3469 11.4306ZM18.4106 10.2522L18.6694 10.68H18.6694L18.4106 10.2522ZM20.2429 9.10861L20.5128 9.52948L20.2429 9.10861ZM11.5531 8.24089L11.2527 7.84121L11.2527 7.84121L11.5531 8.24089ZM21.003 9.46446C21.0308 9.4745 21.0629 9.4859 21.099 9.49836L21.4249 8.55293C21.3939 8.54226 21.3667 8.5326 21.3437 8.52426L21.003 9.46446ZM8.57064 12.1302C8.60047 12.1199 8.6301 12.1096 8.65982 12.0994L8.33427 11.1539C8.30379 11.1643 8.27351 11.1748 8.24379 11.1851L8.57064 12.1302ZM11.6013 9.15016C11.6393 9.12751 11.6985 9.09326 11.7767 9.05119L11.3029 8.17055C11.2106 8.22016 11.1386 8.26179 11.0888 8.29147L11.6013 9.15016ZM11.5607 9.17487C11.5688 9.16987 11.5824 9.16147 11.6013 9.15016L11.0888 8.29147C11.064 8.30632 11.0447 8.31818 11.0312 8.32656L11.5607 9.17487ZM11.5508 9.18117L11.5625 9.17377L11.0295 8.32766L11.0178 8.33506L11.5508 9.18117ZM11.55 9.18164L11.552 9.18038L11.0165 8.33585L11.0145 8.33711L11.55 9.18164ZM11.5576 9.17672L11.5582 9.17633L11.0063 8.34242L11.0057 8.34281L11.5576 9.17672ZM11.5551 9.17837L11.5571 9.17705L11.0054 8.34303L11.0034 8.34435L11.5551 9.17837ZM11.5454 9.1848L11.5546 9.17873L11.0039 8.34398L10.9947 8.35005L11.5454 9.1848ZM11.5098 9.20834L11.5458 9.18452L10.9943 8.35033L10.9583 8.37414L11.5098 9.20834ZM11.3745 9.29819C11.4329 9.25928 11.4788 9.22883 11.51 9.20817L10.958 8.37431C10.9261 8.39547 10.8794 8.42646 10.8201 8.46595L11.3745 9.29819ZM10.8921 9.62221C11.0909 9.48761 11.2577 9.37602 11.3745 9.29819L10.8201 8.46595C10.7015 8.54492 10.5328 8.6579 10.3316 8.79408L10.8921 9.62221ZM9.45844 10.6175C9.969 10.252 10.4938 9.89177 10.8921 9.62221L10.3316 8.79408C9.92937 9.0663 9.39667 9.43192 8.87635 9.80441L9.45844 10.6175ZM8.13358 11.6255C8.45924 11.3486 8.94375 10.986 9.45844 10.6175L8.87635 9.80441C8.35775 10.1757 7.84491 10.5584 7.48581 10.8637L8.13358 11.6255ZM7.89943 11.8377C7.95424 11.783 8.03188 11.712 8.13358 11.6255L7.48581 10.8637C7.37212 10.9604 7.27288 11.0501 7.19271 11.1302L7.89943 11.8377ZM7.55959 10.9726C7.52352 10.981 7.49593 10.9861 7.47566 10.9889L7.61648 11.979C7.67067 11.9713 7.7277 11.9603 7.78777 11.9462L7.55959 10.9726ZM8.10831 10.7988C7.86566 10.8827 7.69647 10.9405 7.55958 10.9726L7.78777 11.9462C7.98557 11.8998 8.20917 11.822 8.43486 11.744L8.10831 10.7988ZM8.19797 10.7679C8.16736 10.7784 8.13741 10.7888 8.10831 10.7988L8.43486 11.744C8.46402 11.7339 8.49349 11.7238 8.52352 11.7134L8.19797 10.7679ZM9.96057 10.3628C9.22049 10.3818 8.71152 10.5911 8.19797 10.7679L8.52352 11.7134C9.08187 11.5212 9.43218 11.3767 9.98622 11.3625L9.96057 10.3628ZM15.2919 11.3844C15.0704 11.4785 14.9987 11.4968 14.7773 11.555L15.0316 12.5222C15.2744 12.4583 15.3981 12.4257 15.6828 12.3048L15.2919 11.3844ZM16.1153 10.9874C15.8036 11.1503 15.5247 11.2855 15.2919 11.3844L15.6828 12.3048C15.9492 12.1917 16.2538 12.0433 16.5784 11.8737L16.1153 10.9874ZM18.1518 9.82436C17.4603 10.2427 16.7381 10.662 16.1153 10.9874L16.5784 11.8737C17.2279 11.5343 17.9703 11.1028 18.6694 10.68L18.1518 9.82436ZM19.9729 8.68774C19.4933 8.99539 18.8417 9.40703 18.1518 9.82436L18.6694 10.68C19.3691 10.2567 20.0285 9.84011 20.5128 9.52948L19.9729 8.68774ZM20.3662 8.43407C20.2546 8.50647 20.1222 8.59203 19.9729 8.68774L20.5128 9.52948C20.6637 9.43272 20.7976 9.3462 20.9105 9.27291L20.3662 8.43407ZM11.552 9.18036L11.5525 9.18009L11.0109 8.33944L11.0105 8.33971L11.552 9.18036ZM21.5247 9.35015L21.8498 9.02909L21.1472 8.31752L20.8221 8.63858L21.5247 9.35015ZM8.43469 11.7441L8.52385 11.7133L8.19764 10.768L8.10848 10.7988L8.43469 11.7441ZM9.98622 11.3625C10.8787 11.3396 11.556 11.6878 12.33 12.0576C13.0805 12.4163 13.9478 12.8071 15.0316 12.5222L14.7773 11.555C14.0789 11.7387 13.5139 11.5151 12.7611 11.1553C12.0318 10.8068 11.1346 10.3327 9.96057 10.3628L9.98622 11.3625ZM11.2527 7.84121C11.1806 7.89542 11.1075 7.97253 11.0585 8.07827C11.0085 8.18609 10.9977 8.2932 11.0061 8.38423C11.0139 8.46963 11.0381 8.53843 11.0561 8.58166C11.0739 8.62467 11.0939 8.66152 11.1032 8.67864C11.1167 8.70373 11.116 8.70244 11.1153 8.70096C11.1146 8.69946 11.0972 8.66383 11.089 8.6082C11.0796 8.54409 11.0815 8.44467 11.1362 8.3417C11.1887 8.24288 11.2627 8.19216 11.3029 8.17055L11.7767 9.05119C11.8552 9.00894 11.9533 8.935 12.0193 8.81087C12.0874 8.68259 12.0921 8.55577 12.0784 8.46267C12.0659 8.37803 12.0372 8.3118 12.0217 8.27859C12.0063 8.2454 11.9873 8.21128 11.9828 8.20293C11.9739 8.1866 11.976 8.18939 11.9796 8.19821C11.9834 8.20724 11.9972 8.24171 12.0019 8.29314C12.0071 8.3502 12.0006 8.4237 11.9658 8.49876C11.932 8.57173 11.885 8.61693 11.8536 8.64056L11.2527 7.84121ZM11.8536 8.64056C11.8273 8.66031 11.8096 8.66692 11.8119 8.66598L11.4401 7.73769C11.3806 7.7615 11.3152 7.79425 11.2527 7.84121L11.8536 8.64056ZM11.5351 7.86587L11.1633 6.93758L11.1632 6.93758L11.5351 7.86587ZM10.807 8.20184L9.80826 8.15175L9.7202 9.90773L11.2745 9.08585L10.807 8.20184ZM14.1085 7.33521L14.1149 8.33519L14.1085 7.33521ZM18.4381 7.94769L18.6389 6.96806L18.4381 7.94769ZM20.3828 8.37345L20.6089 7.39933L20.6089 7.39933L20.3828 8.37345ZM20.9779 8.51408L20.7436 9.48623L20.7436 9.48623L20.9779 8.51408ZM21.1406 8.55358L21.4361 7.59825L21.4075 7.5894L21.3785 7.58228L21.1406 8.55358ZM21.2688 8.59323L21.62 7.65695L21.5924 7.64661L21.5643 7.63791L21.2688 8.59323ZM21.3984 8.63972L21.7242 7.69429H21.7242L21.3984 8.63972ZM21.8614 8.78082L21.6034 9.74697H21.6034L21.8614 8.78082ZM23.2127 8.97029L23.1917 7.97051L23.2127 8.97029ZM25.1694 8.47329L24.8036 7.54259L24.8036 7.54259L25.1694 8.47329ZM25.2824 8.3025L26.2817 8.2665V8.2665L25.2824 8.3025ZM21.1734 8.99436L21.7222 9.83031L23.5981 8.59873L21.428 8.02732L21.1734 8.99436ZM8.9244 9.88003L8.34231 9.06691L8.9244 9.88003ZM7.53957 10.9349L6.8918 10.173H6.8918L7.53957 10.9349ZM7.12329 11.3369L6.3463 10.7074L6.3463 10.7074L7.12329 11.3369ZM7.01137 11.5319L7.97367 11.8039L7.97367 11.8039L7.01137 11.5319ZM7.01362 11.6938L6.0678 12.0185L6.0678 12.0185L7.01362 11.6938ZM7.14222 11.8378L6.69953 12.7345L6.69953 12.7345L7.14222 11.8378ZM7.76928 11.8571L7.99747 12.8307H7.99747L7.76928 11.8571ZM8.40721 11.6576L8.0808 10.7124L8.08036 10.7126L8.40721 11.6576ZM8.49705 11.6266L8.17149 10.6811L8.17063 10.6814L8.49705 11.6266ZM9.97009 11.2714L9.99568 12.2711L9.97009 11.2714ZM14.971 12.442L15.2128 13.4124L14.971 12.442ZM15.6509 12.2201L15.26 11.2997H15.26L15.6509 12.2201ZM16.5405 11.7918L16.0774 10.9056H16.0774L16.5405 11.7918ZM18.6268 10.6007L18.1093 9.74509L18.6268 10.6007ZM20.4684 9.4514L19.9285 8.60966L19.9285 8.60966L20.4684 9.4514ZM21.0467 9.07725L21.5935 9.91456L21.5935 9.91455L21.0467 9.07725ZM20.2881 8.77137L20.5142 7.79725L20.5142 7.79725L20.2881 8.77137ZM20.6384 8.85349L20.893 7.88645L20.881 7.8833L20.869 7.88045L20.6384 8.85349ZM18.3539 8.34792L18.1531 9.32755L18.3539 8.34792ZM14.1112 7.74396L14.1176 8.74394H14.1176L14.1112 7.74396ZM11.626 8.20184L11.2541 7.27354L11.2025 7.29422L11.1535 7.32049L11.626 8.20184ZM21.4985 8.6733L21.8087 7.72263L21.4985 8.6733ZM11.5531 8.24089L11.0806 7.35955L11.0806 7.35955L11.5531 8.24089ZM11.5112 8.26337L11.0387 7.38203L11.5112 8.26337ZM11.1632 6.93758C10.8248 7.07315 10.5453 7.20901 10.3395 7.31782L11.2745 9.08585C11.4276 9.00487 11.643 8.89989 11.9069 8.79417L11.1632 6.93758ZM14.1021 6.33523C12.9207 6.3428 11.8868 6.64774 11.1633 6.93758L11.9069 8.79417C12.482 8.56382 13.2609 8.34067 14.1149 8.33519L14.1021 6.33523ZM18.6389 6.96806C17.1565 6.6642 15.273 6.32772 14.1021 6.33523L14.1149 8.33519C15.0416 8.32925 16.7199 8.61628 18.2373 8.92732L18.6389 6.96806ZM20.6089 7.39933C20.102 7.28172 19.4036 7.12481 18.6389 6.96806L18.2373 8.92732C18.9806 9.07969 19.6615 9.23265 20.1568 9.34757L20.6089 7.39933ZM21.2123 7.54194C21.0689 7.50736 20.8626 7.45819 20.6089 7.39933L20.1568 9.34757C20.4043 9.405 20.605 9.45283 20.7436 9.48623L21.2123 7.54194ZM21.3785 7.58228C21.3401 7.57288 21.284 7.55923 21.2123 7.54193L20.7436 9.48623C20.8128 9.50293 20.8665 9.51601 20.9027 9.52487L21.3785 7.58228ZM21.7242 7.69429C21.6773 7.67815 21.6419 7.66516 21.62 7.65695L20.9175 9.52951C20.9548 9.54352 21.0073 9.56266 21.0725 9.58515L21.7242 7.69429ZM23.1917 7.97051C22.8543 7.9776 22.4615 7.90603 22.1194 7.81468L21.6034 9.74697C22.0289 9.8606 22.6278 9.9828 23.2337 9.97007L23.1917 7.97051ZM24.8036 7.54259C24.6037 7.62116 24.3061 7.72999 23.9923 7.81939C23.6646 7.91274 23.3819 7.96651 23.1917 7.97051L23.2337 9.97007C24.0728 9.95244 25.1116 9.57048 25.5352 9.40398L24.8036 7.54259ZM24.283 8.3385C24.2702 7.98319 24.4857 7.66754 24.8036 7.54259L25.5352 9.40398C25.9949 9.22332 26.2999 8.77218 26.2817 8.2665L24.283 8.3385ZM18.0425 2.4082C21.4269 2.4082 24.1647 5.05518 24.283 8.3385L26.2817 8.2665C26.124 3.8886 22.4846 0.408203 18.0425 0.408203V2.4082ZM11.8058 8.25192C11.9684 5.00889 14.688 2.4082 18.0425 2.4082V0.408203C13.6392 0.408203 10.0251 3.82768 9.80826 8.15175L11.8058 8.25192ZM8.74642 8.7817C8.60258 8.88221 8.46256 8.98083 8.34231 9.06691L9.5065 10.6932C9.61816 10.6132 9.75135 10.5194 9.89202 10.4211L8.74642 8.7817ZM8.34231 9.06691C7.8201 9.44075 7.28142 9.84176 6.8918 10.173L8.18734 11.6967C8.51009 11.4223 8.99216 11.0614 9.5065 10.6932L8.34231 9.06691ZM6.8918 10.173C6.70868 10.3287 6.50017 10.5175 6.3463 10.7074L7.90028 11.9664C7.93031 11.9293 8.01829 11.8405 8.18734 11.6967L6.8918 10.173ZM6.3463 10.7074C6.28585 10.782 6.12785 10.9812 6.04906 11.26L7.97367 11.8039C7.95244 11.879 7.92469 11.9277 7.9135 11.9461C7.90155 11.9658 7.89421 11.9739 7.90028 11.9664L6.3463 10.7074ZM6.04906 11.26C6.00587 11.4128 5.95656 11.6945 6.0678 12.0185L7.95944 11.3691C8.02683 11.5654 7.99467 11.7296 7.97367 11.8039L6.04906 11.26ZM6.0678 12.0185C6.19177 12.3796 6.45151 12.612 6.69953 12.7345L7.58492 10.9411C7.72521 11.0104 7.88358 11.1482 7.95944 11.3691L6.0678 12.0185ZM6.69953 12.7345C7.2276 12.9952 7.76243 12.8858 7.99747 12.8307L7.54109 10.8835C7.50871 10.8911 7.48433 10.8957 7.46598 10.8984C7.44754 10.9011 7.44003 10.9011 7.44133 10.9011C7.44235 10.9011 7.50252 10.9004 7.58491 10.9411L6.69953 12.7345ZM7.99747 12.8307C8.24782 12.772 8.51951 12.6769 8.73407 12.6027L8.08036 10.7126C7.83618 10.797 7.67044 10.8532 7.54109 10.8835L7.99747 12.8307ZM8.8226 12.5721C9.42069 12.3662 9.5945 12.2814 9.99568 12.2711L9.94449 10.2717C9.16174 10.2918 8.64527 10.518 8.17149 10.6811L8.8226 12.5721ZM15.2128 13.4124C15.5176 13.3364 15.7194 13.2775 16.0418 13.1405L15.26 11.2997C15.0623 11.3836 14.9668 11.4125 14.7293 11.4717L15.2128 13.4124ZM16.0418 13.1405C16.339 13.0143 16.6672 12.854 17.0037 12.6781L16.0774 10.9056C15.7668 11.0679 15.4901 11.202 15.26 11.2997L16.0418 13.1405ZM17.0037 12.6781C17.6776 12.326 18.4385 11.8834 19.1444 11.4563L18.1093 9.74509C17.4184 10.163 16.6979 10.5813 16.0774 10.9056L17.0037 12.6781ZM19.1444 11.4563C19.8531 11.0276 20.5197 10.6065 21.0083 10.2931L19.9285 8.60966C19.4492 8.91706 18.7983 9.32827 18.1093 9.74509L19.1444 11.4563ZM21.0083 10.2931C21.2529 10.1362 21.4536 10.0059 21.5935 9.91456L20.5 8.23994C20.364 8.32874 20.1679 8.4561 19.9285 8.60966L21.0083 10.2931ZM21.5935 9.91455C21.6448 9.88103 21.688 9.85275 21.7222 9.83031L20.6245 8.15842C20.5917 8.17999 20.5499 8.20737 20.5 8.23994L21.5935 9.91455ZM20.0621 9.74549C20.1908 9.77535 20.3067 9.80259 20.4077 9.82653L20.869 7.88045C20.7651 7.85583 20.6461 7.82786 20.5142 7.79725L20.0621 9.74549ZM18.1531 9.32755C18.892 9.479 19.5692 9.63113 20.0621 9.74549L20.5142 7.79725C20.0097 7.6802 19.315 7.52412 18.5547 7.36829L18.1531 9.32755ZM14.1176 8.74394C14.993 8.73833 16.6281 9.01494 18.1531 9.32755L18.5547 7.36829C17.0652 7.06295 15.2246 6.7368 14.1047 6.74398L14.1176 8.74394ZM11.9978 9.13013C12.498 8.92978 13.2916 8.74924 14.1176 8.74394L14.1047 6.74398C13.0326 6.75085 11.9907 6.97848 11.2541 7.27354L11.9978 9.13013ZM22.1194 7.81468C21.9998 7.78273 21.894 7.75047 21.8087 7.72263L21.1883 9.62397C21.3031 9.66143 21.4439 9.70438 21.6034 9.74697L22.1194 7.81468ZM21.8087 7.72263C21.7776 7.71247 21.7493 7.70295 21.7242 7.69429L21.0725 9.58515C21.1075 9.59721 21.1462 9.61024 21.1883 9.62397L21.8087 7.72263ZM20.3837 9.82053L20.9187 9.9614L21.428 8.02732L20.893 7.88645L20.3837 9.82053ZM8.73363 12.6029L8.82346 12.5718L8.17063 10.6814L8.0808 10.7124L8.73363 12.6029ZM21.5643 7.63791L21.4361 7.59825L20.845 9.5089L20.9732 9.54856L21.5643 7.63791ZM9.99568 12.2711C10.7548 12.2517 11.3347 12.5361 12.145 12.913C12.9089 13.2683 13.9335 13.7311 15.2128 13.4124L14.7293 11.4717C14.1952 11.6048 13.7543 11.4557 12.9885 11.0996C12.2692 10.765 11.2552 10.2382 9.94449 10.2717L9.99568 12.2711ZM11.1535 7.32049L11.0806 7.35955L12.0256 9.12223L12.0984 9.08318L11.1535 7.32049ZM11.9837 9.14471L12.0256 9.12223L11.0806 7.35955L11.0387 7.38203L11.9837 9.14471ZM9.89202 10.4211C10.5574 9.95611 11.2578 9.53386 11.9837 9.14471L11.0387 7.38203C10.2544 7.80247 9.48557 8.26517 8.74642 8.7817L9.89202 10.4211Z" fill="#292929" mask="url(#path-3-outside-1_9863_33501)"/>
<path d="M10.1362 33.0904L10.4511 32.702L10.1362 33.0904C10.3747 33.2838 10.488 33.496 10.488 33.6746V34.5593C10.488 35.3877 11.1596 36.0593 11.988 36.0593H21.6442C22.4727 36.0593 23.1442 35.3877 23.1442 34.5593V33.6746C23.1442 33.496 23.2575 33.2838 23.496 33.0904C24.4805 32.2923 24.9202 30.9739 25.1148 29.7443C25.3123 28.4957 25.2742 27.2272 25.2121 26.4066C25.1804 25.9886 24.9655 25.6679 24.7341 25.4332C24.5064 25.2023 24.2292 25.0207 24.0072 24.8818C23.8955 24.812 23.7895 24.7091 23.7128 24.5462C23.4238 23.9329 23.3103 23.0723 23.3083 22.1449C23.3062 21.2295 23.4123 20.3043 23.5221 19.5963C23.6647 18.6769 22.9701 17.7793 21.9976 17.7793H21.8176C20.9389 17.7793 20.3061 18.509 20.1934 19.2714C20.1051 19.8682 19.8986 20.5812 19.4475 21.1363C19.0147 21.669 18.3234 22.0993 17.1553 22.0993C15.9833 22.0993 15.2839 21.666 14.8429 21.128C14.384 20.5682 14.1705 19.8508 14.0766 19.254C13.9577 18.498 13.3266 17.7793 12.455 17.7793H11.6347C10.6621 17.7793 9.9675 18.6769 10.1101 19.5963C10.2199 20.3043 10.326 21.2295 10.324 22.1449C10.3219 23.0723 10.2084 23.9329 9.91944 24.5462C9.84272 24.7091 9.73675 24.812 9.62506 24.8818C9.40305 25.0207 9.12578 25.2023 8.89813 25.4332C8.66674 25.6679 8.45181 25.9886 8.42016 26.4066C8.35803 27.2272 8.31988 28.4957 8.51746 29.7443C8.71204 30.9739 9.15173 32.2923 10.1362 33.0904Z" fill="white" stroke="#292929"/>
</svg>
