<svg width="48" height="48" viewBox="0 0 48 48" fill="none" xmlns="http://www.w3.org/2000/svg">
<path d="M38.1536 0.504618C30.3271 3.02191 8.19213 3.03376 1.06374 0.540196C0.83104 0.458797 0.590059 0.685552 0.658955 0.921833C0.753085 1.24466 0.836475 1.59134 0.909946 1.95962C0.909946 1.95962 2.84213 8.38045 4.89796 11.7555C6.79947 14.8773 10.7755 19.5923 10.7755 19.5923C10.7755 19.5923 5.97322 15.3383 3.91837 12.2453C2.38767 9.94133 1.30532 5.38819 1.30532 5.38819C1.56349 10.0936 1.04804 16.361 0.590742 21.9213C0.105885 27.8167 -0.313603 32.9173 0.323656 34.5187C0.382997 34.6678 0.563031 34.6941 0.697035 34.6055C3.08683 33.0244 6.7026 33.5053 10.9955 34.0762C13.5098 34.4107 16.2565 34.7759 19.1251 34.7759C21.9471 34.7759 24.7692 34.4224 27.4022 34.0926C32.0163 33.5145 36.0501 33.0092 38.4867 34.6063C38.621 34.6944 38.8007 34.6678 38.86 34.5187C39.4973 32.9173 39.0778 27.8167 38.5929 21.9214C38.2676 17.9652 37.9127 13.6511 37.8281 9.79636C34.6517 11.2657 32.5771 16.5478 30.3673 18.6127C28.1576 20.6775 24.9796 21.9214 24.9796 21.9214C24.9796 21.9214 27.9688 20.1146 29.8776 18.1229C31.7863 16.1312 35.2653 9.30656 37.8095 8.32697C37.8016 5.34169 37.9923 2.71973 38.5362 0.882608C38.6044 0.652486 38.3824 0.431012 38.1536 0.504618Z" fill="white"/>
<path d="M39.941 44.8006C40.3438 44.5894 40.5663 44.1624 40.5663 43.7041V41.6734V38.8437V30.9405V28.1108V25.3628C40.5663 25.3518 40.5662 25.3408 40.5659 25.3298L40.5657 25.3211C40.564 25.2628 40.5587 25.2052 40.5499 25.1486L40.4942 25.1745C40.3996 25.2182 40.268 25.2772 40.1021 25.3472L40.065 25.3628L40.0049 25.3879L40.0019 25.3891C39.8791 25.44 39.7403 25.4957 39.5867 25.5549C39.2065 25.7013 38.735 25.8687 38.1863 26.036L38.1839 26.0367C36.6417 26.5069 34.4867 26.9778 32.0381 26.9778C29.5895 26.9778 27.4344 26.5069 25.8922 26.0367L25.8898 26.036C25.3412 25.8687 24.8696 25.7013 24.4895 25.5549C24.3358 25.4957 24.1971 25.44 24.0742 25.3891L24.0713 25.3879L24.0111 25.3628L23.9741 25.3472C23.8082 25.2772 23.6765 25.2182 23.582 25.1745L23.5788 25.1731L23.5262 25.1486C23.5175 25.2052 23.5122 25.2628 23.5105 25.3211L23.5102 25.3298C23.51 25.3408 23.5099 25.3518 23.5099 25.3628V43.7041C23.5099 44.1624 23.7323 44.5894 24.1351 44.8006C25.2801 45.4008 27.9752 46.5308 32.0381 46.5308C36.1009 46.5308 38.7961 45.4008 39.941 44.8006Z" fill="white"/>
<path d="M40.5663 30.9405C40.5663 30.6195 40.7259 30.2787 41.0561 30.0012C41.0952 29.9683 41.1367 29.9364 41.1805 29.9054C41.5938 29.614 42.1533 29.4694 42.7075 29.5704C43.674 29.7464 45.1761 30.8589 45.1761 34.8921C45.1761 38.9252 43.674 40.0377 42.7075 40.2138C42.1533 40.3148 41.5938 40.1702 41.1805 39.8788C41.1367 39.8478 41.0952 39.8158 41.0561 39.783C40.7259 39.5055 40.5663 39.1647 40.5663 38.8437V41.6734C40.8708 41.8309 41.2008 41.95 41.5459 42.0233C42.0226 42.1247 42.5281 42.1387 43.0349 42.0464C45.2953 41.6346 47.0201 39.3179 47.0201 34.8921C47.0201 30.4663 45.2953 28.1495 43.0349 27.7378C42.5281 27.6455 42.0226 27.6595 41.5459 27.7609C41.2008 27.8342 40.8708 27.9533 40.5663 28.1108V30.9405Z" fill="white"/>
<path d="M23.961 24.3535C23.9234 24.3861 23.8815 24.4265 23.8481 24.4633C23.7817 24.5367 23.724 24.618 23.676 24.7053L23.7238 24.7279L23.7736 24.7511L23.7768 24.7526C23.8613 24.7916 23.9775 24.8437 24.1231 24.9055C24.1629 24.9224 24.205 24.9401 24.2492 24.9584C24.3528 25.0013 24.471 25.049 24.5975 25.0981C24.9781 25.2462 25.4597 25.4186 26.0255 25.5911L26.0279 25.5918C27.5396 26.0525 29.6476 26.5122 32.0381 26.5122C34.4285 26.5122 36.5366 26.0525 38.0483 25.5918L38.0507 25.5911C38.6165 25.4186 39.098 25.2462 39.4787 25.0981C39.6051 25.049 39.7204 25.0025 39.824 24.9596L39.8269 24.9584C39.8712 24.9401 39.9132 24.9224 39.9531 24.9055C40.0986 24.8437 40.2149 24.7916 40.2994 24.7526L40.3025 24.7511L40.3523 24.7279L40.4001 24.7053C40.3521 24.6179 40.2944 24.5367 40.228 24.4633C40.1947 24.4264 40.1591 24.3916 40.1215 24.359L40.1152 24.3535C40.1056 24.3453 40.0959 24.3373 40.086 24.3294C40.0739 24.3197 40.0617 24.3102 40.0492 24.3009C39.9406 24.2203 39.8172 24.1569 39.6814 24.1152C39.6121 24.0939 39.5389 24.0719 39.4621 24.0492C38.0567 23.6355 35.4026 23.0206 32.0381 23.0206C28.6736 23.0206 26.0194 23.6355 24.6141 24.0492C24.5372 24.0719 24.4641 24.0939 24.3947 24.1152C24.259 24.1569 24.1356 24.2203 24.027 24.3009C24.017 24.3083 23.9884 24.3314 23.9712 24.3453C23.9669 24.3487 23.9634 24.3516 23.961 24.3535Z" fill="white"/>
<path fill-rule="evenodd" clip-rule="evenodd" d="M41.5459 42.0233C41.2008 41.95 40.8708 41.8309 40.5663 41.6734V43.7041C40.5663 44.1624 40.3438 44.5894 39.941 44.8006C38.7961 45.4008 36.1009 46.5308 32.0381 46.5308C27.9752 46.5308 25.2801 45.4008 24.1351 44.8006C23.7323 44.5894 23.5099 44.1624 23.5099 43.7041V25.3628C23.5099 25.3518 23.51 25.3408 23.5102 25.3298L23.5105 25.3211C23.5122 25.2628 23.5175 25.2052 23.5262 25.1486C23.5506 24.9907 23.6017 24.8407 23.676 24.7053C23.724 24.618 23.7817 24.5367 23.8481 24.4633C23.8815 24.4265 23.9234 24.3861 23.961 24.3535C23.9634 24.3516 23.9669 24.3487 23.9712 24.3453C23.9884 24.3314 24.017 24.3083 24.027 24.3009C24.1356 24.2203 24.259 24.1569 24.3947 24.1152C24.4641 24.0939 24.5372 24.0719 24.6141 24.0492C26.0194 23.6355 28.6736 23.0206 32.0381 23.0206C35.4026 23.0206 38.0567 23.6355 39.4621 24.0492C39.5389 24.0719 39.6121 24.0939 39.6814 24.1152C39.8172 24.1569 39.9406 24.2203 40.0492 24.3009C40.0617 24.3102 40.0739 24.3197 40.086 24.3294C40.0959 24.3373 40.1056 24.3453 40.1152 24.3535L40.1215 24.359C40.1591 24.3916 40.1947 24.4264 40.228 24.4633C40.2944 24.5367 40.3521 24.6179 40.4001 24.7053C40.4745 24.8407 40.5255 24.9907 40.5499 25.1486C40.5587 25.2052 40.564 25.2628 40.5657 25.3211L40.5659 25.3298C40.5662 25.3408 40.5663 25.3518 40.5663 25.3628V28.1108C40.8708 27.9533 41.2008 27.8342 41.5459 27.7609C42.0226 27.6595 42.5281 27.6455 43.0349 27.7378C45.2953 28.1495 47.0201 30.4663 47.0201 34.8921C47.0201 39.3179 45.2953 41.6346 43.0349 42.0464C42.5281 42.1387 42.0226 42.1247 41.5459 42.0233ZM41.5459 26.7639C42.0825 26.6734 42.6452 26.6711 43.2104 26.774C46.1678 27.3128 47.9997 30.2756 47.9997 34.8921C47.9997 39.5086 46.1678 42.4714 43.2104 43.0102C42.6452 43.1131 42.0825 43.1107 41.5459 43.0203V43.7041C41.5459 44.4697 41.1688 45.263 40.3958 45.6682C39.1382 46.3274 36.2878 47.5104 32.0381 47.5104C27.7883 47.5104 24.9379 46.3274 23.6803 45.6682C22.9074 45.263 22.5303 44.4697 22.5303 43.7041V25.3628C22.5303 25.3233 22.5312 25.284 22.5332 25.2447C22.5332 25.2447 22.5411 24.836 22.6211 24.5913C22.7261 24.2698 23.0781 23.8558 23.0781 23.8558C23.3407 23.5477 23.6903 23.3069 24.107 23.1788C25.5093 22.7479 28.367 22.041 32.0381 22.041C35.7091 22.041 38.5669 22.7479 39.9691 23.1788C40.3858 23.3069 40.7354 23.5477 40.998 23.8558C40.998 23.8558 41.3501 24.2698 41.4551 24.5913C41.5351 24.836 41.543 25.2447 41.543 25.2447C41.5449 25.284 41.5459 25.3233 41.5459 25.3628V26.7639Z" fill="#292929"/>
<path d="M23.5262 25.1486L23.5788 25.1731L23.582 25.1745C23.6765 25.2182 23.8082 25.2772 23.9741 25.3472L24.0111 25.3628L24.0713 25.3879L24.0742 25.3891C24.1971 25.44 24.3358 25.4957 24.4895 25.5549C24.8696 25.7013 25.3412 25.8687 25.8898 26.036L25.8922 26.0367C27.4344 26.5069 29.5895 26.9778 32.0381 26.9778C34.4867 26.9778 36.6417 26.5069 38.1839 26.0367L38.1863 26.036C38.735 25.8687 39.2065 25.7013 39.5867 25.5549C39.7403 25.4957 39.8791 25.44 40.0019 25.3891L40.0049 25.3879L40.065 25.3628L40.1021 25.3472C40.268 25.2772 40.3996 25.2182 40.4942 25.1745L40.5499 25.1486C40.5255 24.9907 40.4745 24.8407 40.4001 24.7053L40.3523 24.7279L40.3025 24.7511L40.2994 24.7526C40.2149 24.7916 40.0986 24.8437 39.9531 24.9055C39.9132 24.9224 39.8712 24.9401 39.8269 24.9584L39.824 24.9596C39.7204 25.0025 39.6051 25.049 39.4787 25.0981C39.098 25.2462 38.6165 25.4186 38.0507 25.5911L38.0483 25.5918C36.5366 26.0525 34.4285 26.5122 32.0381 26.5122C29.6476 26.5122 27.5396 26.0525 26.0279 25.5918L26.0255 25.5911C25.4597 25.4186 24.9781 25.2462 24.5975 25.0981C24.471 25.049 24.3528 25.0013 24.2492 24.9584C24.205 24.9401 24.1629 24.9224 24.1231 24.9055C23.9775 24.8437 23.8613 24.7916 23.7768 24.7526L23.7736 24.7511L23.7238 24.7279L23.676 24.7053C23.6017 24.8407 23.5506 24.9907 23.5262 25.1486Z" fill="#292929"/>
</svg>
