<svg width="46" height="50" viewBox="0 0 46 50" fill="none" xmlns="http://www.w3.org/2000/svg">
<path fill-rule="evenodd" clip-rule="evenodd" d="M15.9542 1L8.79006 5.0938C7.98738 5.55247 7.35301 6.25655 6.98021 7.10253L1.50278 19.5321C1.39785 19.7702 1.50176 20.0486 1.73706 20.1597L9.45458 23.8041C9.71843 23.9287 10.0315 23.791 10.118 23.5123L12.1142 17.08C12.1142 17.08 11.6735 25.6442 11.3942 31.12C11.1747 35.4223 10.4187 41.5762 10.0989 44.059C10.0153 44.7081 10.3737 45.3321 10.985 45.5655C13.3891 46.4832 15.9542 48.64 23.5142 48.64C31.0742 48.64 33.5086 46.4766 35.842 45.5613C36.4349 45.3287 36.7856 44.7282 36.7176 44.0949C36.4534 41.6349 35.8181 35.4384 35.6342 31.12C35.401 25.642 34.9142 17.08 34.9142 17.08L36.6808 23.4838C36.7606 23.7731 37.0833 23.919 37.3532 23.7879L44.8358 20.1535C45.0609 20.0442 45.1642 19.7804 45.0734 19.5474L40.2798 7.25099C39.9143 6.3132 39.2327 5.5325 38.3528 5.04369L31.0742 1C31.0742 1 26.4903 1.96 23.5142 1.96C20.5381 1.96 15.9542 1 15.9542 1Z" fill="white"/>
<path d="M15.9542 1L8.79006 5.0938C7.98738 5.55247 7.35301 6.25655 6.98021 7.10253L1.50278 19.5321C1.39785 19.7702 1.50176 20.0486 1.73706 20.1597L9.45458 23.8041C9.71843 23.9287 10.0315 23.791 10.118 23.5123L12.1142 17.08C12.1142 17.08 11.6735 25.6442 11.3942 31.12C11.1747 35.4223 10.4187 41.5762 10.0989 44.059C10.0153 44.7081 10.3737 45.3321 10.985 45.5655C13.3891 46.4832 15.9542 48.64 23.5142 48.64C31.0742 48.64 33.5086 46.4766 35.842 45.5613C36.4349 45.3287 36.7856 44.7282 36.7176 44.0949C36.4534 41.6349 35.8181 35.4384 35.6342 31.12C35.401 25.642 34.9142 17.08 34.9142 17.08L36.6808 23.4838C36.7606 23.7731 37.0833 23.919 37.3532 23.7879L44.8358 20.1535C45.0609 20.0442 45.1642 19.7804 45.0734 19.5474L40.2798 7.25099C39.9143 6.3132 39.2327 5.5325 38.3528 5.04369L31.0742 1M15.9542 1C15.9542 1 20.5381 1.96 23.5142 1.96C26.4903 1.96 31.0742 1 31.0742 1M15.9542 1C15.9542 1 18.1142 6.52 23.5142 6.52C28.9142 6.52 31.0742 1 31.0742 1" stroke="#292929" stroke-linejoin="round"/>
</svg>
