<svg width="48" height="49" viewBox="0 0 48 49" fill="none" xmlns="http://www.w3.org/2000/svg">
<path d="M27.5127 19.1225C27.3765 16.3852 27.4354 12.7935 27.4799 10.9766C27.4948 10.3654 28.0526 9.91403 28.6563 10.0113C30.3064 10.2771 33.4595 10.7276 36.2098 10.789L34.2482 5.72782C33.9862 5.05187 33.4978 4.48915 32.8673 4.13682L27.2783 1.01381C27.2371 1.09476 27.1904 1.18342 27.138 1.27847C27.0791 1.38541 27.0128 1.50075 26.939 1.62256L26.9291 1.63886C26.689 2.03317 26.3706 2.49362 25.9666 2.95515C24.8966 4.17755 23.1979 5.43575 20.7608 5.43575C18.3238 5.43575 16.625 4.17755 15.555 2.95515C15.2207 2.57319 14.9449 2.19196 14.7237 1.84836L14.7127 1.83127C14.5848 1.63155 14.4753 1.44484 14.3836 1.27847C14.3325 1.18569 14.2867 1.099 14.2463 1.01963L8.75487 4.17579C8.17964 4.5064 7.72504 5.01389 7.45787 5.62367L2.9387 15.9382L9.16942 18.8976L10.7966 13.6239C10.8713 13.3821 11.1132 13.2339 11.361 13.2783C11.6089 13.3227 11.7851 13.5457 11.7722 13.7986L11.5598 17.9558C11.4391 20.3208 11.2893 23.2588 11.173 25.5505C10.9893 29.1737 10.3575 34.349 10.0916 36.4258C10.0503 36.7478 10.2268 37.044 10.5119 37.1534C10.9398 37.3177 11.3753 37.528 11.8279 37.7466L11.8302 37.7477L11.8542 37.7593C11.9476 37.8044 12.0418 37.8498 12.1367 37.8953C12.7103 38.1696 13.3422 38.4582 14.1018 38.7229C15.6152 39.2505 17.666 39.6939 20.7608 39.6939C23.8556 39.6939 25.8778 39.2491 27.3546 38.7217C27.5669 38.6459 27.7686 38.5681 27.9614 38.4892C27.9545 37.081 27.9411 35.6572 27.918 34.3062L27.8949 32.9352C27.8163 28.2503 27.7396 23.6791 27.5127 19.1225Z" fill="white"/>
<path d="M15.3759 1.00004C15.576 1.34032 15.8453 1.74545 16.1887 2.15604C16.1887 2.15604 16.1887 2.15604 16.1887 2.15604C16.2265 2.20112 16.2651 2.24626 16.3046 2.29139C17.2568 3.37924 18.7039 4.43129 20.7608 4.43129C22.8177 4.43129 24.2648 3.37924 25.2171 2.29139C25.2566 2.24626 25.2952 2.20112 25.3329 2.15604L25.3625 2.12041C25.6919 1.72206 25.9514 1.33047 26.1458 1.00004C25.7967 1.06387 25.3756 1.13736 24.9133 1.21087C24.7548 1.23607 24.5911 1.26135 24.4234 1.28629C23.2492 1.46086 21.8804 1.61881 20.7608 1.61881C19.5218 1.61881 17.9776 1.42537 16.7298 1.23005C16.689 1.22366 16.6485 1.21726 16.6083 1.21087C16.146 1.13736 15.7249 1.06387 15.3759 1.00004Z" fill="white"/>
<path fill-rule="evenodd" clip-rule="evenodd" d="M44.5313 49H40.1312C39.5997 49 39.1611 48.5887 39.1313 48.058C38.9999 45.721 38.6342 39.4723 38.2037 34.3062C37.7827 29.2537 37.4241 22.0296 37.3317 20.101C37.3185 19.8246 37.0909 19.6123 36.8142 19.6123C36.5413 19.6123 36.3156 19.8189 36.2976 20.0912C36.1711 22.005 35.6867 29.2451 35.2649 34.3062C34.8344 39.4723 34.4688 45.721 34.3374 48.058C34.3075 48.5887 33.8689 49 33.3374 49H28.9316C28.374 49 27.9239 48.5471 27.9298 47.9895C27.9467 46.3924 27.9749 43.1007 27.9654 39.5624C28.6378 39.3075 29.2044 39.0385 29.7056 38.7907L29.8177 38.7351L30.0099 38.6393C30.4553 38.4168 30.8369 38.227 31.2049 38.0818C31.9154 37.8015 32.3261 37.0826 32.2468 36.3392C32.0268 34.2789 31.4998 29.1008 31.3475 25.504C31.2572 23.3708 31.1214 20.6809 31.0018 18.4131L31.2033 19.1476C31.282 19.4347 31.4846 19.6718 31.756 19.7944C32.0273 19.917 32.3391 19.9123 32.6066 19.7816L38.643 16.8326C39.1097 16.6046 39.3242 16.0571 39.1364 15.5728L37.2834 10.7918C40.0636 10.7435 43.2943 10.2829 44.9752 10.0123C45.581 9.91473 46.1402 10.3701 46.153 10.9836C46.1917 12.8368 46.2441 16.5094 46.125 19.1225C45.8885 24.3134 45.6756 29.1383 45.5506 34.3062C45.4268 39.4251 45.498 45.5922 45.5338 47.9836C45.5422 48.5434 45.0911 49 44.5313 49ZM27.9614 38.4892C28.4417 38.2929 28.8667 38.09 29.2624 37.8943C29.3444 37.8538 29.4257 37.8133 29.5065 37.7729L29.5617 37.7454L29.563 37.7447C30 37.5264 30.4217 37.3158 30.8379 37.1516C31.1144 37.0425 31.2858 36.7584 31.2524 36.4453C31.0327 34.3875 30.5022 29.1794 30.3484 25.5463C30.2515 23.2564 30.1018 20.3206 29.9763 17.9561C29.9135 16.7741 29.8568 15.7353 29.8158 14.992C29.7953 14.6204 29.7788 14.3227 29.7673 14.1179L29.7496 13.8026L29.7496 13.8013C29.7351 13.545 29.9152 13.3188 30.1671 13.2772C30.419 13.2355 30.6615 13.3917 30.7294 13.6392L32.1677 18.8831L38.204 15.9341L36.2098 10.789C33.4595 10.7276 30.3064 10.2771 28.6563 10.0113C28.0526 9.91403 27.4948 10.3654 27.4799 10.9766C27.4354 12.7935 27.3765 16.3852 27.5127 19.1225C27.7396 23.6791 27.8163 28.2503 27.8949 32.9352L27.918 34.3062C27.9411 35.6572 27.9545 37.081 27.9614 38.4892ZM24.7918 1.23005L24.9133 1.21087C24.7548 1.23607 24.5911 1.26135 24.4234 1.28629C24.5486 1.26767 24.6715 1.24887 24.7918 1.23005ZM25.3625 2.12041L25.3329 2.15604C25.2952 2.20112 25.2566 2.24626 25.2171 2.29139C25.267 2.23437 25.3155 2.17732 25.3625 2.12041Z" fill="white"/>
</svg>
