<svg width="48" height="49" viewBox="0 0 48 49" fill="none" xmlns="http://www.w3.org/2000/svg">
<path d="M40.1318 49.0001H44.5318C45.0916 49.0001 45.5428 48.5434 45.5344 47.9837C45.4985 45.5922 45.4273 39.4251 45.5512 34.3062C45.6762 29.1384 45.889 24.3134 46.1255 19.1225C46.2446 16.5094 46.1922 12.8368 46.1536 10.9837C46.1408 10.3701 45.5816 9.91478 44.9757 10.0123C43.2002 10.2982 39.6957 10.796 36.8194 10.796C33.9396 10.796 30.4303 10.297 28.6568 10.0113C28.0532 9.91407 27.4953 10.3654 27.4804 10.9767C27.436 12.7935 27.377 16.3852 27.5133 19.1225C27.7622 24.1225 27.8303 29.14 27.9185 34.3062C28.006 39.43 27.9556 45.6025 27.9303 47.9896C27.9244 48.5471 28.3746 49.0001 28.9322 49.0001H33.3379C33.8694 49.0001 34.308 48.5888 34.3379 48.0581C34.4693 45.721 34.8349 39.4724 35.2654 34.3062C35.6872 29.2451 36.1717 22.005 36.2981 20.0912C36.3161 19.8189 36.5418 19.6123 36.8147 19.6123C37.0914 19.6123 37.319 19.8246 37.3323 20.101C37.4246 22.0297 37.7832 29.2537 38.2042 34.3062C38.6347 39.4724 39.0004 45.721 39.1318 48.0581C39.1616 48.5888 39.6002 49.0001 40.1318 49.0001Z" fill="white"/>
<path d="M11.6395 38.2109C11.6385 38.2105 11.6376 38.21 11.6366 38.2096L11.6395 38.2109ZM11.6395 38.2109C11.7319 38.2556 11.8259 38.3009 11.9208 38.3463C12.5006 38.6236 13.1517 38.9213 13.9369 39.195C15.5075 39.7425 17.6144 40.1939 20.7606 40.1939C23.9068 40.1939 25.9865 39.7411 27.5225 39.1925C28.2905 38.9182 28.9225 38.62 29.4838 38.3425C29.5852 38.2924 29.6855 38.2423 29.784 38.1931L29.7862 38.192L29.5876 37.7944L29.7862 38.192C30.2274 37.9716 30.6291 37.7714 31.0211 37.6167C31.5147 37.422 31.8058 36.9205 31.7494 36.3922C31.5295 34.3332 31.0008 29.14 30.8477 25.5251C30.7507 23.2324 30.6009 20.2944 30.4753 17.9296C30.4126 16.7471 30.3559 15.708 30.3149 14.9645C30.2944 14.5927 30.2778 14.2948 30.2663 14.0899L30.2663 14.0898L30.2488 13.778L31.6853 19.0153C31.7246 19.1589 31.8259 19.2774 31.9616 19.3387C32.0973 19.4 32.2532 19.3976 32.3869 19.3323L38.4233 16.3834C38.6566 16.2693 38.7639 15.9956 38.67 15.7534L34.7142 5.54709C34.4103 4.76304 33.8435 4.10965 33.111 3.70031L27.522 0.577296C27.4483 0.536103 27.3661 0.51466 27.2833 0.513801M11.6395 38.2109L11.6095 38.1964C11.1531 37.976 10.7371 37.7756 10.3325 37.6202C9.82371 37.4249 9.52606 36.9038 9.59541 36.3623C9.86153 34.2841 10.4908 29.1266 10.6734 25.5251C10.7897 23.2334 10.9395 20.2953 11.0602 17.9302L11.2724 13.777L9.64698 19.045C9.60418 19.1837 9.50324 19.2969 9.37036 19.3553C9.23748 19.4137 9.08579 19.4115 8.95469 19.3492L2.72396 16.3898C2.47988 16.2739 2.37207 15.985 2.4805 15.7376L6.99968 5.42298C7.3096 4.71562 7.83721 4.12635 8.50549 3.74226L13.9969 0.586092C14.0711 0.543407 14.1543 0.520945 14.2383 0.51965M27.2833 0.513801L27.2842 0.513812L27.2781 1.01377M27.2833 0.513801C27.2327 0.513277 27.1819 0.520412 27.1327 0.535396C27.0026 0.574945 26.8942 0.665761 26.8325 0.78692C26.7937 0.863226 26.7495 0.947049 26.6999 1.03709C26.6218 1.17879 26.5302 1.33591 26.4246 1.50343L27.0056 1.5105C27.017 1.49114 27.0282 1.47198 27.0392 1.45301L27.0342 1.45025L27.132 1.27525L27.2781 1.01377M27.2833 0.513801L26.156 0.50009M27.2781 1.01377L27.7149 1.25784C27.7179 1.25207 27.7208 1.24633 27.7237 1.24063L27.2781 1.01377ZM26.156 0.50009L26.1516 0.500037L26.1455 1M26.156 0.50009C26.3135 0.503366 26.4628 0.581159 26.5554 0.713554C26.6674 0.873885 26.6757 1.08484 26.5765 1.25346C26.5294 1.33355 26.4787 1.4171 26.4242 1.50343L26.1878 1.50055M26.156 0.50009C26.1227 0.499399 26.0891 0.502025 26.0556 0.508156C25.7096 0.571422 25.2924 0.644236 24.8346 0.717039C23.5714 0.917922 21.9987 1.11878 20.7606 1.11878C19.5225 1.11878 17.9498 0.917922 16.6866 0.717039C16.2288 0.644236 15.8115 0.571422 15.4656 0.508156C15.4312 0.501864 15.3967 0.499263 15.3626 0.500151M26.1455 1L25.7146 0.746541C25.6461 0.863008 25.5691 0.987355 25.4834 1.11691C25.7238 1.07599 25.9464 1.03642 26.1455 1ZM26.1455 1C26.0417 1.17651 25.9193 1.37048 25.7776 1.5736C25.9225 1.54836 26.0597 1.52386 26.1878 1.50055M26.1455 1L26.1395 1.49996L26.1878 1.50055M26.1455 1L26.2355 1.49184C26.2197 1.49473 26.2038 1.49763 26.1878 1.50055M15.3626 0.500151L15.367 0.500075L15.3756 1M15.3626 0.500151C15.206 0.504228 15.0578 0.581891 14.9658 0.713554C14.8538 0.873884 14.8455 1.08484 14.9446 1.25346C14.992 1.334 15.0431 1.41805 15.0979 1.50489L15.3347 1.50078M15.3626 0.500151L14.2383 0.51965M15.3756 1L15.2857 1.49184C15.3019 1.4948 15.3182 1.49778 15.3347 1.50078M15.3756 1C15.4794 1.17651 15.6019 1.37048 15.7436 1.5736C15.5992 1.54844 15.4624 1.52402 15.3347 1.50078M15.3756 1C15.5748 1.03642 15.7974 1.07599 16.0378 1.11691C15.9521 0.987355 15.8751 0.863008 15.8066 0.746541L15.3756 1ZM15.3756 1L15.3843 1.49992L15.3347 1.50078M14.2383 0.51965L14.2374 0.519667L14.246 1.01959M14.2383 0.51965C14.2886 0.518875 14.3392 0.525688 14.3884 0.54029C14.5197 0.579283 14.6292 0.670412 14.6914 0.792402C14.7296 0.867241 14.7729 0.949206 14.8213 1.03709M14.246 1.01959L13.8006 1.24678C13.8044 1.25414 13.8082 1.26156 13.812 1.26904L14.246 1.01959ZM14.246 1.01959L14.3921 1.27366M14.3921 1.27366L14.4952 1.45309L14.4854 1.45875C14.4961 1.47729 14.507 1.49603 14.5182 1.51495L15.0975 1.5049C14.9915 1.33683 14.8996 1.1792 14.8213 1.03709M14.3921 1.27366L14.8213 1.03709C14.8213 1.03709 14.8213 1.03709 14.8213 1.03709M14.3921 1.27366L14.8213 1.03709M32.1675 18.883L32.6247 18.6597L32.6496 18.7508L32.1675 18.883ZM32.1675 18.883L32.0329 18.3923L31.948 18.4338L32.1675 18.883ZM14.246 1.01959L14.8064 1.00987M14.8757 1.00867L15.3756 1M26.1455 1L26.6455 1.00608M26.7164 1.00694L27.2781 1.01377M11.6365 38.2095L11.6365 38.2095L11.6103 38.1968L11.6103 38.1969L11.6117 38.1975L11.6125 38.1979L11.6127 38.198L11.6156 38.1994L11.6182 38.2007L11.6183 38.2007L11.6184 38.2008L11.6365 38.2095Z" fill="white" stroke="#292929" stroke-linejoin="round"/>
</svg>
