<svg width="31" height="49" viewBox="0 0 31 49" fill="none" xmlns="http://www.w3.org/2000/svg">
<path d="M24.3702 49.0001H26.3126C26.8459 49.0001 27.2855 48.5835 27.3123 48.0508C27.4471 45.378 27.8492 37.6393 28.2447 32.347C28.6318 27.1652 29.5621 24.3134 29.7986 19.1225C29.9208 16.4396 29.2812 12.6397 28.9391 10.839C28.8327 10.2793 28.2743 9.93317 27.7168 10.0504C26.3392 10.3402 23.7346 10.796 20.9823 10.796C18.2206 10.796 15.5286 10.3371 14.1045 10.0475C13.5374 9.93215 12.9755 10.2976 12.8849 10.8692C12.586 12.7551 12.0248 16.7769 12.1659 19.6123C12.4149 24.6123 13.226 27.3514 13.5508 32.347C13.8931 37.6123 14.0023 45.2956 14.0314 48.0076C14.0373 48.5572 14.4842 49.0001 15.0339 49.0001H17.4252C17.9866 49.0001 18.4389 48.5404 18.4311 47.9791C18.3934 45.2399 18.3511 37.5821 18.9385 32.347C19.4163 28.089 20.2072 21.8485 20.4315 20.0895C20.4665 19.8147 20.6999 19.6123 20.9769 19.6123C21.2585 19.6123 21.4944 19.8219 21.5243 20.1019C21.714 21.8777 22.3802 28.099 22.8569 32.347C23.4443 37.5821 23.402 45.2399 23.3643 47.9791C23.3566 48.5404 23.8088 49.0001 24.3702 49.0001Z" fill="white"/>
<path d="M19.1762 8.12735L18.727 8.34694L19.1762 8.12735C18.8192 7.39693 18.689 6.3703 18.6952 5.28055C18.7012 4.20379 18.8392 3.12572 18.9726 2.33113C19.128 1.40622 18.4302 0.5 17.4532 0.5H16.8433C15.9644 0.5 15.3262 1.23058 15.2245 2.0031C15.1353 2.68069 14.9077 3.53511 14.367 4.21132C13.8451 4.86409 12.9951 5.39796 11.5439 5.39796C10.0883 5.39796 9.22851 4.86058 8.69681 4.20214C8.14668 3.52087 7.91038 2.66171 7.81451 1.98472C7.70605 1.21885 7.06961 0.5 6.1982 0.5H4.83653C3.85945 0.5 3.16172 1.40623 3.31704 2.33114C3.45048 3.12574 3.58849 4.2038 3.59455 5.28055C3.60068 6.3703 3.47054 7.39693 3.11348 8.12735C2.99744 8.3647 2.82245 8.50475 2.63654 8.59245C2.37539 8.71564 2.08558 8.88663 1.84824 9.11939C1.60789 9.3551 1.40058 9.67604 1.3655 10.0858C1.28741 10.9981 1.22728 12.4796 1.4606 13.9416C1.69081 15.384 2.225 16.9238 3.43537 17.8124C3.67245 17.9864 3.78771 18.1984 3.78771 18.3799V19.5918C3.78771 20.4203 4.45928 21.0918 5.28771 21.0918H17.002C17.8304 21.0918 18.502 20.4203 18.502 19.5918V18.3799C18.502 18.1984 18.6173 17.9864 18.8543 17.8124C20.0647 16.9238 20.5989 15.384 20.8291 13.9416C21.0624 12.4796 21.0023 10.9981 20.9242 10.0858C20.8891 9.67604 20.6818 9.3551 20.4415 9.11939C20.2041 8.88663 19.9143 8.71564 19.6532 8.59245C19.4672 8.50476 19.2923 8.36471 19.1762 8.12735Z" fill="white" stroke="#292929"/>
</svg>
