<svg width="20" height="20" viewBox="0 0 20 20" fill="none" xmlns="http://www.w3.org/2000/svg">
<path d="M10.0942 18.3174C10.0311 18.3389 9.96933 18.3387 9.90641 18.3166C9.09816 18.0326 3.3335 15.7828 3.3335 9.377V3.58654C3.3335 3.43333 3.4376 3.29978 3.58599 3.26262L9.91933 1.67663C9.97241 1.66334 10.0279 1.66334 10.081 1.67663L16.4143 3.26262C16.5627 3.29978 16.6668 3.43333 16.6668 3.58654V9.377C16.6668 15.8474 10.9035 18.0412 10.0942 18.3174Z" stroke="black" stroke-width="1.5" stroke-miterlimit="10" stroke-linejoin="round"/>
<path d="M11.6668 8.25697C11.667 8.58615 11.5602 8.90728 11.3612 9.17611C11.1622 9.44493 10.8808 9.64821 10.5557 9.75794L10.9835 11.8688C10.9991 11.9456 10.9966 12.0247 10.9764 12.1005C10.9562 12.1763 10.9187 12.2469 10.8666 12.3072C10.8144 12.3675 10.749 12.4161 10.6749 12.4494C10.6008 12.4827 10.5199 12.5 10.4379 12.5H9.56239C9.48057 12.4999 9.39979 12.4825 9.32582 12.4491C9.25186 12.4157 9.18654 12.3671 9.13453 12.3068C9.08251 12.2465 9.04509 12.176 9.02494 12.1003C9.00478 12.0246 9.0024 11.9455 9.01794 11.8688L9.44461 9.75794C9.15656 9.66072 8.90205 9.48978 8.70889 9.2638C8.51573 9.03783 8.39134 8.76551 8.34933 8.47661C8.30732 8.18771 8.34929 7.89334 8.47067 7.62568C8.59204 7.35801 8.78815 7.12734 9.03756 6.95889C9.28696 6.79043 9.58007 6.69066 9.88486 6.67048C10.1896 6.6503 10.4944 6.71049 10.7657 6.84447C11.0371 6.97845 11.2647 7.18106 11.4236 7.43017C11.5825 7.67928 11.6667 7.9653 11.6668 8.25697Z" fill="black"/>
</svg>
