<svg width="107" height="20" viewBox="0 0 107 20" fill="none" xmlns="http://www.w3.org/2000/svg">
<path d="M10.2461 5.98131L9.96578 10.1869C9.24949 9.78193 8.56434 9.62617 7.59891 9.62617C5.73032 9.62617 4.4846 10.6854 4.4846 13.0841V19.6262H0V5.79439H4.4846V8.31776C5.01403 6.76012 6.44661 5.42056 8.3152 5.42056C9.15606 5.42056 9.87235 5.66978 10.2461 5.98131ZM19.7447 13.7695V13.4891L17.4713 13.9564C16.0698 14.2368 15.1978 14.5794 15.1978 15.6698C15.1978 16.4798 15.8207 16.9782 16.7861 16.9782C18.4367 16.9782 19.7447 15.7321 19.7447 13.7695ZM24.167 10.81V15.8567C24.167 16.5732 24.4784 16.8847 25.039 16.8847C25.4439 16.8847 25.7865 16.8224 26.1913 16.6355V19.0343C25.5062 19.5327 24.6342 19.9377 23.2639 19.9377C21.6133 19.9377 20.3987 19.0654 19.9938 17.5078C19.2153 19.0966 17.5024 19.9377 15.3535 19.9377C12.5818 19.9377 10.8378 18.5358 10.8378 16.1682C10.8378 13.5202 12.8309 12.3988 15.883 11.8069L19.7447 11.1215V10.8723C19.7447 9.56386 19.0907 8.78505 17.7204 8.78505C16.4124 8.78505 15.7584 9.59502 15.5092 10.7477L11.3361 10.4361C11.8032 7.47664 14.0144 5.42056 17.9695 5.42056C21.5821 5.42056 24.167 7.0405 24.167 10.81ZM27.7796 5.79439H32.2642V19.6262H27.7796V5.79439ZM27.7485 4.11215V0H32.3265V4.11215H27.7485ZM39.6763 12.5857V19.6262H35.1917V5.79439H39.6763V7.94393C40.4237 6.41745 42.1054 5.42056 44.192 5.42056C47.9292 5.42056 49.1749 8.00623 49.1749 10.9657V19.6262H44.6903V12.0561C44.6903 10.0623 44.0363 8.97196 42.3857 8.97196C40.5794 8.97196 39.6763 10.405 39.6763 12.5857ZM56.4312 12.5545V12.866C56.4312 15.109 57.7081 16.5109 59.5767 16.5109C61.6944 16.5109 62.7221 14.9844 62.7221 12.7103C62.7221 10.4673 61.6944 8.94081 59.5767 8.94081C57.7081 8.94081 56.4312 10.3427 56.4312 12.5545ZM56.2132 17.134L55.4035 19.6262H51.9466V0H56.4312V8.2866C57.1164 6.63551 58.7047 5.42056 61.1027 5.42056C65.1513 5.42056 67.269 8.66044 67.269 12.7103C67.269 16.7913 65.1513 20 61.0093 20C58.7047 20 56.9607 18.8162 56.2132 17.134ZM73.2796 12.7103C73.2796 15.0156 74.1828 16.6044 76.1759 16.6044C78.1379 16.6044 79.1034 15.0156 79.1034 12.7103C79.1034 10.405 78.1379 8.8162 76.1759 8.8162C74.1828 8.8162 73.2796 10.405 73.2796 12.7103ZM83.6503 12.7103C83.6503 17.0093 80.5982 20 76.1759 20C71.7536 20 68.7327 17.0093 68.7327 12.7103C68.7327 8.44237 71.7536 5.42056 76.1759 5.42056C80.5982 5.42056 83.6503 8.44237 83.6503 12.7103ZM97.2909 5.79439L99.5021 14.2056H99.6267L102.274 5.79439H106.354L101.962 19.6262H97.5712L95.3289 11.2773H95.2043L92.9932 19.6262H88.602L84.2108 5.79439H88.6954L91.3426 14.2056H91.4672L93.6783 5.79439H97.2909Z" fill="black"/>
</svg>
