<svg width="28" height="28" viewBox="0 0 28 28" fill="none" xmlns="http://www.w3.org/2000/svg">
<path d="M27.9483 27.5779V22.4977C27.9483 22.2945 27.847 22.0913 27.7458 21.9389L6.12635 0.195397C5.97445 0.0429894 5.77193 -0.0078125 5.56941 -0.0078125H0.50631C0.253155 -0.0078125 0.050631 0.195397 0.050631 0.449409V5.17405C0.050631 5.37726 0.151893 5.58046 0.253155 5.73288L7.99969 13.5057C8.20221 13.7089 8.20221 13.9629 7.99969 14.1661L0.151893 22.0406C0.0506309 22.1421 0 22.2438 0 22.3453V27.5272C0 27.7811 0.202524 27.9844 0.455678 27.9844H8.96169C9.21484 27.9844 9.41736 27.7811 9.41736 27.5272V24.479C9.41736 24.3774 9.46799 24.225 9.56924 24.1742L13.7716 19.9577C13.9741 19.7544 14.2273 19.7544 14.4298 19.9577L22.227 27.7811C22.3789 27.9336 22.5813 27.9844 22.784 27.9844H27.4926C27.7458 28.0351 27.9483 27.8319 27.9483 27.5779Z" fill="black"/>
<path d="M16.5574 6.69812H20.8104C21.0635 6.69812 21.266 6.90133 21.266 7.15534V11.4228C21.266 11.8292 21.7723 12.0324 22.0255 11.7276L27.848 5.88528C27.9493 5.78367 27.9999 5.68207 27.9999 5.58046V0.449409C27.9999 0.195397 27.7974 -0.0078125 27.5443 -0.0078125H22.3799C22.2786 -0.0078125 22.1268 0.0429894 22.0762 0.144595L16.2535 5.93607C15.9498 6.1901 16.1523 6.69812 16.5574 6.69812Z" fill="#EE7A30"/>
</svg>
