<svg width="16" height="16" viewBox="0 0 16 16" fill="none" xmlns="http://www.w3.org/2000/svg">
<path d="M5.99967 4.00004H6.00634M9.99967 4.00004H10.0063M9.99967 8.00004H10.0063M5.99967 8.00004H6.00634M5.99967 12H6.00634M9.99967 12H10.0063M6.66634 4.00004C6.66634 4.36823 6.36786 4.66671 5.99967 4.66671C5.63149 4.66671 5.33301 4.36823 5.33301 4.00004C5.33301 3.63185 5.63149 3.33337 5.99967 3.33337C6.36786 3.33337 6.66634 3.63185 6.66634 4.00004ZM10.6663 4.00004C10.6663 4.36823 10.3679 4.66671 9.99967 4.66671C9.63147 4.66671 9.33301 4.36823 9.33301 4.00004C9.33301 3.63185 9.63147 3.33337 9.99967 3.33337C10.3679 3.33337 10.6663 3.63185 10.6663 4.00004ZM6.66634 8.00004C6.66634 8.36824 6.36786 8.66671 5.99967 8.66671C5.63149 8.66671 5.33301 8.36824 5.33301 8.00004C5.33301 7.63184 5.63149 7.33337 5.99967 7.33337C6.36786 7.33337 6.66634 7.63184 6.66634 8.00004ZM10.6663 8.00004C10.6663 8.36824 10.3679 8.66671 9.99967 8.66671C9.63147 8.66671 9.33301 8.36824 9.33301 8.00004C9.33301 7.63184 9.63147 7.33337 9.99967 7.33337C10.3679 7.33337 10.6663 7.63184 10.6663 8.00004ZM6.66634 12C6.66634 12.3682 6.36786 12.6667 5.99967 12.6667C5.63149 12.6667 5.33301 12.3682 5.33301 12C5.33301 11.6318 5.63149 11.3334 5.99967 11.3334C6.36786 11.3334 6.66634 11.6318 6.66634 12ZM10.6663 12C10.6663 12.3682 10.3679 12.6667 9.99967 12.6667C9.63147 12.6667 9.33301 12.3682 9.33301 12C9.33301 11.6318 9.63147 11.3334 9.99967 11.3334C10.3679 11.3334 10.6663 11.6318 10.6663 12Z" stroke="black" stroke-linecap="round" stroke-linejoin="round"/>
</svg>
