<svg width="3100" height="3100" viewBox="0 0 3100 3100" fill="none" xmlns="http://www.w3.org/2000/svg">
<g style="mix-blend-mode:plus-lighter" filter="url(#filter0_f_25682_137756)">
<path d="M1550 50L1614.21 652.293L1763.47 65.2678L1741.31 670.568L1972.6 110.76L1864.52 706.745L2173.12 185.552L1981.32 760.089L2360.96 288.12L2089.35 829.513L2532.29 416.376L2186.4 913.604L2683.62 567.709L2270.49 1010.65L2811.88 739.039L2339.91 1118.68L2914.45 926.878L2393.25 1235.48L2989.24 1127.4L2429.43 1358.69L3034.73 1336.53L2447.71 1485.79L3050 1550L2447.71 1614.21L3034.73 1763.47L2429.43 1741.31L2989.24 1972.6L2393.25 1864.52L2914.45 2173.12L2339.91 1981.32L2811.88 2360.96L2270.49 2089.35L2683.62 2532.29L2186.4 2186.4L2532.29 2683.62L2089.35 2270.49L2360.96 2811.88L1981.32 2339.91L2173.12 2914.45L1864.52 2393.25L1972.6 2989.24L1741.31 2429.43L1763.47 3034.73L1614.21 2447.71L1550 3050L1485.79 2447.71L1336.53 3034.73L1358.69 2429.43L1127.4 2989.24L1235.48 2393.25L926.878 2914.45L1118.68 2339.91L739.039 2811.88L1010.65 2270.49L567.709 2683.62L913.604 2186.4L416.376 2532.29L829.513 2089.35L288.12 2360.96L760.089 1981.32L185.552 2173.12L706.745 1864.52L110.76 1972.6L670.568 1741.31L65.2678 1763.47L652.293 1614.21L50 1550L652.293 1485.79L65.2678 1336.53L670.568 1358.69L110.76 1127.4L706.745 1235.48L185.552 926.878L760.089 1118.68L288.12 739.039L829.513 1010.65L416.376 567.709L913.604 913.604L567.709 416.376L1010.65 829.513L739.039 288.12L1118.68 760.089L926.878 185.552L1235.48 706.745L1127.4 110.76L1358.69 670.568L1336.53 65.2678L1485.79 652.293L1550 50Z" fill="url(#paint0_radial_25682_137756)"/>
</g>
<defs>
<filter id="filter0_f_25682_137756" x="0" y="0" width="3100" height="3100" filterUnits="userSpaceOnUse" color-interpolation-filters="sRGB">
<feFlood flood-opacity="0" result="BackgroundImageFix"/>
<feBlend mode="normal" in="SourceGraphic" in2="BackgroundImageFix" result="shape"/>
<feGaussianBlur stdDeviation="25" result="effect1_foregroundBlur_25682_137756"/>
</filter>
<radialGradient id="paint0_radial_25682_137756" cx="0" cy="0" r="1" gradientUnits="userSpaceOnUse" gradientTransform="translate(1550 1550) rotate(90) scale(1500)">
<stop offset="0.25" stop-color="white" stop-opacity="0"/>
<stop offset="1" stop-color="white" stop-opacity="0.2"/>
</radialGradient>
</defs>
</svg>
