<svg width="16" height="16" viewBox="0 0 16 16" fill="none" xmlns="http://www.w3.org/2000/svg">
<path d="M5.33333 12.6667C6.06971 12.6667 6.66667 12.0697 6.66667 11.3333C6.66667 10.5969 6.06971 10 5.33333 10C4.59695 10 4 10.5969 4 11.3333C4 12.0697 4.59695 12.6667 5.33333 12.6667Z" stroke="black" stroke-miterlimit="1.5" stroke-linecap="round" stroke-linejoin="round"/>
<path d="M11.9998 12.6667C12.7362 12.6667 13.3332 12.0697 13.3332 11.3333C13.3332 10.5969 12.7362 10 11.9998 10C11.2634 10 10.6665 10.5969 10.6665 11.3333C10.6665 12.0697 11.2634 12.6667 11.9998 12.6667Z" stroke="black" stroke-miterlimit="1.5" stroke-linecap="round" stroke-linejoin="round"/>
<path d="M6.69984 11.3333H9.99984V4.4C9.99984 4.17909 9.82077 4 9.59984 4H0.666504" stroke="black" stroke-linecap="round"/>
<path d="M3.76667 11.3333H2.4C2.17909 11.3333 2 11.1543 2 10.9333V7.66666" stroke="black" stroke-linecap="round"/>
<path d="M1.3335 6H4.00016" stroke="black" stroke-linecap="round" stroke-linejoin="round"/>
<path d="M10 6H13.7401C13.8981 6 14.0414 6.09309 14.1056 6.23755L15.2989 8.9224C15.3216 8.9736 15.3333 9.02893 15.3333 9.08487V10.9333C15.3333 11.1543 15.1543 11.3333 14.9333 11.3333H13.6667" stroke="black" stroke-linecap="round"/>
<path d="M10 11.3333H10.6667" stroke="black" stroke-linecap="round"/>
</svg>
