<svg width="10" height="18" viewBox="0 0 10 18" fill="none" xmlns="http://www.w3.org/2000/svg">
<path fill-rule="evenodd" clip-rule="evenodd" d="M9.37819 1.29844C9.4898 1.41156 9.57835 1.54595 9.63877 1.6939C9.69919 1.84184 9.73029 2.00045 9.73029 2.16063C9.73029 2.32081 9.69919 2.47942 9.63877 2.62737C9.57835 2.77531 9.4898 2.9097 9.37819 3.02282L3.03345 9.46731L9.37819 15.9118C9.48962 16.025 9.57801 16.1594 9.63832 16.3074C9.69862 16.4553 9.72966 16.6139 9.72966 16.774C9.72966 16.9341 9.69862 17.0927 9.63832 17.2406C9.57801 17.3885 9.48962 17.523 9.37819 17.6362C9.26676 17.7494 9.13448 17.8392 8.98889 17.9005C8.8433 17.9618 8.68726 17.9933 8.52967 17.9933C8.37208 17.9933 8.21604 17.9618 8.07045 17.9005C7.92486 17.8392 7.79258 17.7494 7.68115 17.6362L0.490281 10.3295C0.378671 10.2164 0.29012 10.082 0.229702 9.93404C0.169283 9.78609 0.138183 9.62749 0.138183 9.46731C0.138183 9.30713 0.169283 9.14852 0.229702 9.00057C0.29012 8.85262 0.378671 8.71824 0.490281 8.60512L7.68115 1.29844C7.79248 1.18503 7.92473 1.09506 8.07033 1.03367C8.21594 0.972274 8.37203 0.940674 8.52967 0.940674C8.68731 0.940674 8.8434 0.972274 8.98901 1.03367C9.13461 1.09506 9.26686 1.18503 9.37819 1.29844Z" fill="#4A4A4A"/>
</svg>
