<svg width="10" height="18" viewBox="0 0 10 18" fill="none" xmlns="http://www.w3.org/2000/svg">
<path fill-rule="evenodd" clip-rule="evenodd" d="M0.621807 16.7016C0.510198 16.5884 0.421646 16.4541 0.361228 16.3061C0.300809 16.1582 0.26971 15.9996 0.26971 15.8394C0.26971 15.6792 0.300809 15.5206 0.361228 15.3726C0.421646 15.2247 0.510198 15.0903 0.621807 14.9772L6.96655 8.53269L0.621806 2.0882C0.510377 1.97498 0.421986 1.84056 0.361681 1.69263C0.301376 1.54469 0.270338 1.38614 0.270338 1.22601C0.270338 1.06589 0.301376 0.907334 0.361681 0.7594C0.421986 0.611466 0.510377 0.477049 0.621806 0.363825C0.733236 0.250601 0.865522 0.160786 1.01111 0.0995106C1.1567 0.0382332 1.31274 0.00669517 1.47033 0.00669516C1.62791 0.00669515 1.78396 0.0382332 1.92955 0.0995105C2.07514 0.160786 2.20742 0.250601 2.31885 0.363825L9.50972 7.6705C9.62133 7.78362 9.70988 7.91801 9.7703 8.06596C9.83072 8.21391 9.86182 8.37251 9.86182 8.53269C9.86182 8.69287 9.83072 8.85148 9.7703 8.99943C9.70988 9.14738 9.62133 9.28176 9.50972 9.39488L2.31885 16.7016C2.20752 16.815 2.07527 16.9049 1.92967 16.9663C1.78406 17.0277 1.62797 17.0593 1.47033 17.0593C1.31269 17.0593 1.1566 17.0277 1.01099 16.9663C0.865389 16.9049 0.733135 16.815 0.621807 16.7016Z" fill="#4A4A4A"/>
</svg>
