<svg width="20" height="20" viewBox="0 0 20 20" fill="none" xmlns="http://www.w3.org/2000/svg">
<path d="M10 17.5C14.1421 17.5 17.5 14.1421 17.5 10C17.5 5.85786 14.1421 2.5 10 2.5C5.85786 2.5 2.5 5.85786 2.5 10C2.5 14.1421 5.85786 17.5 10 17.5Z" stroke="black" stroke-width="1.5" stroke-linecap="round" stroke-linejoin="round"/>
<path d="M12.6176 10.6144C12.8181 10.4741 12.9375 10.2447 12.9375 10C12.9375 9.75526 12.8181 9.52592 12.6176 9.38558L9.4926 7.19808C9.26349 7.0377 8.96419 7.01812 8.71614 7.14727C8.46809 7.27641 8.3125 7.53284 8.3125 7.8125V12.1875C8.3125 12.4672 8.46809 12.7236 8.71614 12.8527C8.96419 12.9819 9.26349 12.9623 9.4926 12.8019L12.6176 10.6144Z" stroke="black" stroke-width="1.5" stroke-linecap="round" stroke-linejoin="round"/>
</svg>
