<svg width="16" height="16" viewBox="0 0 16 16" fill="none" xmlns="http://www.w3.org/2000/svg">
<path d="M11.3333 6C11.3333 5.64638 11.1929 5.30724 10.9428 5.05719C10.6928 4.80714 10.3536 4.66667 10 4.66667M10 10C10.8414 9.99975 11.6612 9.73422 12.3429 9.24117C13.0247 8.74811 13.5336 8.05264 13.7973 7.25368C14.061 6.45472 14.066 5.59296 13.8117 4.79096C13.5574 3.98896 13.0567 3.28757 12.3808 2.78655C11.7049 2.28554 10.8882 2.0104 10.0469 2.00029C9.20563 1.99017 8.38257 2.24559 7.69481 2.73022C7.00705 3.21484 6.48962 3.90399 6.2161 4.69964C5.94259 5.49529 5.92692 6.35693 6.17133 7.162L6 7.33333L2.19533 11.138C2.0703 11.263 2.00004 11.4325 2 11.6093V13.3333C2 13.5101 2.07024 13.6797 2.19526 13.8047C2.32029 13.9298 2.48986 14 2.66667 14H4C4.17681 14 4.34638 13.9298 4.4714 13.8047C4.59643 13.6797 4.66667 13.5101 4.66667 13.3333C4.66667 13.1565 4.7369 12.987 4.86193 12.8619C4.98695 12.7369 5.15652 12.6667 5.33333 12.6667C5.51014 12.6667 5.67971 12.5964 5.80474 12.4714C5.92976 12.3464 6 12.1768 6 12C6 11.8232 6.07024 11.6536 6.19526 11.5286C6.32029 11.4036 6.48986 11.3333 6.66667 11.3333H7.05733C7.23413 11.3333 7.40367 11.263 7.52867 11.138L8.66667 10L8.838 9.82867C9.21479 9.94265 9.60635 10.0004 10 10Z" stroke="black" stroke-linecap="round" stroke-linejoin="round"/>
</svg>
