<svg width="16" height="16" viewBox="0 0 16 16" fill="none" xmlns="http://www.w3.org/2000/svg">
<path d="M4.66667 12H4.13333C3.3866 12 3.01323 12 2.72801 11.8547C2.47713 11.7269 2.27315 11.5229 2.14533 11.272C2 10.9868 2 10.6134 2 9.86667V6.8C2 6.05327 2 5.67989 2.14533 5.39468C2.27315 5.14379 2.47713 4.93982 2.72801 4.81199C3.01323 4.66667 3.3866 4.66667 4.13333 4.66667H4.66667M4.66667 4.66667V3.6V3.06667C4.66667 2.6933 4.66667 2.50661 4.73933 2.36401C4.80325 2.23857 4.90523 2.13658 5.03067 2.07266C5.17328 2 5.35997 2 5.73333 2H10.2667C10.6401 2 10.8267 2 10.9693 2.07266C11.0948 2.13658 11.1967 2.23857 11.2607 2.36401C11.3333 2.50661 11.3333 2.6933 11.3333 3.06667V3.6V4.66667M4.66667 4.66667H11.3333M11.3333 12H11.8667C12.6134 12 12.9868 12 13.272 11.8547C13.5229 11.7269 13.7269 11.5229 13.8547 11.272C14 10.9868 14 10.6134 14 9.86667V6.8C14 6.05326 14 5.67989 13.8547 5.39468C13.7269 5.14379 13.5229 4.93982 13.272 4.81199C12.9868 4.66667 12.6134 4.66667 11.8667 4.66667H11.3333M4.66667 7.33333H4.67333M5.73333 14H10.2667C10.6401 14 10.8267 14 10.9693 13.9273C11.0948 13.8634 11.1967 13.7615 11.2607 13.636C11.3333 13.4934 11.3333 13.3067 11.3333 12.9333V11.0667C11.3333 10.6933 11.3333 10.5066 11.2607 10.364C11.1967 10.2385 11.0948 10.1366 10.9693 10.0727C10.8267 10 10.6401 10 10.2667 10H5.73333C5.35997 10 5.17328 10 5.03067 10.0727C4.90523 10.1366 4.80325 10.2385 4.73933 10.364C4.66667 10.5066 4.66667 10.6933 4.66667 11.0667V12.9333C4.66667 13.3067 4.66667 13.4934 4.73933 13.636C4.80325 13.7615 4.90523 13.8634 5.03067 13.9273C5.17328 14 5.35997 14 5.73333 14Z" stroke="black" stroke-linecap="round" stroke-linejoin="round"/>
</svg>
