<svg width="261" height="302" viewBox="0 0 261 302" fill="none" xmlns="http://www.w3.org/2000/svg">
<path d="M44.5 104C44.5 104 11.7316 98.2993 4 84C-7.1103 63.452 52.5 33 52.5 33M52.5 33L62 35M52.5 33L54.5 37M52.5 33L51 37.5" stroke="#2EC99E" stroke-width="3" stroke-linecap="round"/>
<path fill-rule="evenodd" clip-rule="evenodd" d="M37.2141 98C37.2141 43.7027 81.0881 0 135.598 0C190.108 0 233.983 45.0271 233.983 99.3244V196H135.598C81.0881 196 37.2141 152.297 37.2141 98ZM97.8167 84.3608C104.679 84.3608 110.242 78.8198 110.242 71.9845C110.242 65.1493 104.679 59.6082 97.8167 59.6082C90.9547 59.6082 85.3919 65.1493 85.3919 71.9845C85.3919 78.8198 90.9547 84.3608 97.8167 84.3608ZM185.805 71.9845C185.805 78.8198 180.242 84.3608 173.38 84.3608C166.518 84.3608 160.955 78.8198 160.955 71.9845C160.955 65.1493 166.518 59.6082 173.38 59.6082C180.242 59.6082 185.805 65.1493 185.805 71.9845ZM118 118.499C132.069 106.164 159.625 129.321 165.789 134.916C166.514 135.575 166.709 136.599 166.326 137.5C165.685 139.007 163.741 139.444 162.5 138.375C154.528 131.509 130.923 113.493 119.5 124.999C115.787 128.74 114.68 132.781 113.738 136.671C113.367 138.204 111.657 139.07 110.242 138.375C109.278 137.902 108.761 136.842 109.03 135.803C110.129 131.567 112.414 123.397 118 118.499Z" fill="#2EC99E"/>
<path d="M83.5 177.5C83.5 177.5 73.7795 212.79 71.5 236C69.3624 257.765 71.5 292 71.5 292M71.5 292L55.5 288M71.5 292L55.5 294.5M71.5 292L61.5 300" stroke="#2EC99E" stroke-width="3" stroke-linecap="round" stroke-linejoin="round"/>
<path d="M185 174C185 174 187.023 209.638 187.5 232.5C187.957 254.365 187.5 288.5 187.5 288.5M187.5 288.5H201.5M187.5 288.5L201.5 295M187.5 288.5L195.5 300.5" stroke="#2EC99E" stroke-width="3" stroke-linecap="round" stroke-linejoin="round"/>
<path d="M229 103C229 103 244.595 120.388 250.3 136.593C257.146 156.041 255.117 197.969 255.117 197.969M255.117 197.969L250.3 207.82M255.117 197.969L253.85 210.851M255.117 197.969L259.175 210.851" stroke="#2EC99E" stroke-width="3" stroke-linecap="round"/>
</svg>
