<svg width="912" height="220" viewBox="0 0 912 220" fill="none" xmlns="http://www.w3.org/2000/svg">
<g clip-path="url(#clip0_30850_9715)">
<rect width="912" height="220" rx="8" fill="#141414"/>
<g clip-path="url(#clip1_30850_9715)">
<path d="M-70.1055 79.506C-70.1055 70.6694 -63.0526 62.2522 -54.3525 60.7055L91.3628 34.8005C100.063 33.2538 107.116 39.1634 107.116 48V212L-70.1055 243.506V79.506Z" fill="#141414"/>
<g opacity="0.32" filter="url(#filter0_f_30850_9715)">
<rect width="90" height="90" rx="45" transform="matrix(0.984563 -0.175033 0 1 -114.41 26.3825)" fill="#2BCFA1" fill-opacity="0.5"/>
</g>
</g>
<path d="M-69.6132 79.4185C-69.6132 70.8581 -62.7807 62.7038 -54.3525 61.2055L91.3628 35.3005C99.7911 33.8022 106.623 39.5271 106.623 48.0875V211.588L-69.6132 242.918V79.4185Z" stroke="url(#paint0_radial_30850_9715)"/>
<g filter="url(#filter1_d_30850_9715)">
<g clip-path="url(#clip2_30850_9715)">
<path d="M27.1152 79.506C27.1152 70.6694 34.1681 62.2522 42.8682 60.7055L188.583 34.8005C197.284 33.2538 204.336 39.1634 204.336 48V212L27.1152 243.506V79.506Z" fill="#141414"/>
<g filter="url(#filter2_b_30850_9715)">
<rect width="40" height="40" rx="8" transform="matrix(0.984563 -0.175033 0 1 46.8066 80.0053)" fill="#1C1C1C"/>
<rect x="0.492281" y="0.412483" width="39" height="39" rx="7.5" transform="matrix(0.984563 -0.175033 0 1 46.8142 80.0915)" stroke="#292929"/>
<g opacity="0.6">
<circle cx="9.49995" cy="9.49995" r="9.49995" transform="matrix(0.984563 -0.175033 0 1 57.1465 88.6674)" fill="#EC1E26"/>
<path opacity="0.999" fill-rule="evenodd" clip-rule="evenodd" d="M61.792 87.8412C62.0325 87.7984 62.2729 87.7557 62.5134 87.7129C62.722 87.887 62.9024 88.0878 63.0545 88.3154C63.0545 88.3154 63.2572 88.5793 63.4303 88.9054C63.5765 89.1806 63.7988 89.5517 64.0645 90.1929C64.0747 90.2217 64.0928 90.2444 64.1186 90.2609C64.125 90.0972 64.143 89.9388 64.1727 89.7855C64.3594 90.2964 64.5939 90.7722 64.8761 91.213C65.1081 91.5184 65.4147 91.6968 65.796 91.7481C65.9288 91.7309 66.061 91.701 66.1928 91.6582C65.8468 91.2631 65.6484 90.7744 65.5976 90.192C65.5795 89.8332 65.5736 89.472 65.5795 89.1085C65.5737 89.0181 65.5797 88.9264 65.5976 88.8336C65.6926 89.3719 65.9511 89.7723 66.3731 90.0348C67.0321 90.3819 67.7055 90.6956 68.3932 90.9759C68.8101 89.6552 69.3512 88.3817 70.0164 87.1553C70.1693 86.8472 70.3497 86.5564 70.5575 86.2828C70.798 86.2401 71.0385 86.1973 71.2789 86.1546C71.7565 86.7998 72.1293 87.5228 72.3972 88.3234C73.1901 90.6478 73.7011 93.0928 73.9302 95.6583C74.2577 96.7615 74.2277 97.9183 73.8401 99.1287C73.4765 99.1769 73.1157 99.2605 72.7579 99.3793C72.6211 99.4833 72.5791 99.6137 72.6317 99.7705C72.6572 99.8001 72.6873 99.8206 72.7218 99.8321C73.0157 99.7929 73.3163 99.7394 73.6236 99.6717C73.5097 99.9632 73.3774 100.245 73.2268 100.519C72.9528 100.45 72.6702 100.409 72.3791 100.398C72.128 100.52 72.0859 100.677 72.2529 100.866C72.4733 100.886 72.6898 100.919 72.9022 100.964C72.6353 101.409 72.3227 101.821 71.9643 102.199C70.0912 104.017 67.987 105.025 65.6517 105.223C63.8005 105.377 62.1773 104.928 60.782 103.876C60.5448 103.683 60.3284 103.469 60.1327 103.235C60.3153 103.113 60.5077 103.007 60.7098 102.918C60.8187 102.798 60.8428 102.671 60.782 102.537C60.7332 102.491 60.673 102.476 60.6016 102.491C60.34 102.584 60.0875 102.707 59.8441 102.859C59.6974 102.649 59.5651 102.427 59.4473 102.192C59.5123 102.155 59.5845 102.129 59.6637 102.115C59.8574 102.104 60.0498 102.09 60.2409 102.07C60.3716 101.963 60.4137 101.833 60.3671 101.679C60.3345 101.638 60.2925 101.613 60.2409 101.605C59.9057 101.616 59.569 101.657 59.2308 101.726C58.9625 100.918 58.8723 100.054 58.9603 99.1347C59.14 98.2192 59.2722 97.303 59.3571 96.386C59.6347 94.3348 60.0856 92.301 60.7098 90.2847C60.9764 89.4307 61.3371 88.6162 61.792 87.8412Z" fill="#FEFEFE"/>
<path fill-rule="evenodd" clip-rule="evenodd" d="M64.0607 92.2509C64.0727 92.404 64.0847 92.5571 64.0967 92.7102C63.6667 92.9922 63.2458 93.2934 62.8342 93.6139C61.9954 94.2885 61.1718 94.9848 60.3633 95.7027C60.4735 93.8892 60.8342 92.0914 61.4454 90.3094C61.6059 89.8639 61.8163 89.4449 62.0767 89.0522C62.227 88.9445 62.3713 88.9318 62.5096 89.014C62.8716 89.4956 63.1662 90.0319 63.3933 90.6229C63.6177 91.1687 63.8401 91.7113 64.0607 92.2509Z" fill="#F7BAD5"/>
<path fill-rule="evenodd" clip-rule="evenodd" d="M70.7719 87.4487C70.8736 87.4208 70.9698 87.4231 71.0605 87.4556C71.1637 87.5496 71.2539 87.6564 71.331 87.7762C71.9341 88.9317 72.3429 90.1916 72.5575 91.556C72.6217 92.0503 72.6939 92.542 72.7739 93.0312C72.798 93.1822 72.798 93.3374 72.7739 93.497C71.5878 92.7529 70.3253 92.1622 68.9863 91.7251C69.3472 90.4182 69.8281 89.1425 70.4292 87.8977C70.5265 87.7306 70.6407 87.5809 70.7719 87.4487Z" fill="#F7BAD5"/>
<path fill-rule="evenodd" clip-rule="evenodd" d="M64.1013 92.7092C64.0893 92.5561 64.0773 92.403 64.0653 92.2499C64.0551 91.6167 64.0731 90.9796 64.1194 90.3384C64.2435 91.754 64.7785 92.8815 65.7246 93.7209C65.9948 93.9024 66.2833 94.0517 66.5903 94.1686C66.2317 94.2983 65.8709 94.4141 65.5082 94.5162C65.0124 94.4794 64.6457 94.2341 64.408 93.7803C64.2553 93.448 64.1531 93.091 64.1013 92.7092Z" fill="#D5E9F8"/>
<path fill-rule="evenodd" clip-rule="evenodd" d="M68.8963 97.2903C68.846 98.1191 69.1826 98.6092 69.9063 98.7603C71.0737 98.6293 71.6328 97.9412 71.5837 96.6961C71.5435 96.5391 71.4834 96.3945 71.4033 96.2624C71.3791 96.2375 71.3491 96.2299 71.3131 96.2396C71.546 96.1161 71.7865 96.0021 72.0346 95.8979C72.098 95.8556 72.1582 95.8514 72.2149 95.8852C72.5597 96.7483 72.4335 97.6117 71.8362 98.4754C70.9592 99.4564 70.0273 99.7062 69.0406 99.2247C68.5006 98.8636 68.224 98.3112 68.2109 97.5674C68.4436 97.4899 68.6721 97.3975 68.8963 97.2903Z" fill="#A7DEF6"/>
<path fill-rule="evenodd" clip-rule="evenodd" d="M61.4668 97.9901C61.0703 98.8063 61.1665 99.4555 61.7554 99.9377C62.3599 100.233 62.9491 100.102 63.523 99.5459C63.8489 99.128 63.9932 98.669 63.9558 98.1687C64.1781 98.2106 64.4066 98.2218 64.6412 98.2021C64.5704 99.2678 64.0774 100.073 63.1622 100.619C62.0277 101.093 61.18 100.836 60.6192 99.8486C60.3561 99.2596 60.3561 98.6257 60.6192 97.9468C60.6394 97.9229 60.6635 97.9057 60.6913 97.8951C60.9565 97.9176 61.215 97.9493 61.4668 97.9901Z" fill="#A7DEF6"/>
<path fill-rule="evenodd" clip-rule="evenodd" d="M61.464 97.9906C62.2972 98.0335 63.1269 98.093 63.953 98.1691C63.9904 98.6694 63.8461 99.1284 63.5201 99.5463C62.9462 100.103 62.357 100.233 61.7526 99.9381C61.1636 99.4559 61.0674 98.8067 61.464 97.9906Z" fill="#232021"/>
<path fill-rule="evenodd" clip-rule="evenodd" d="M71.3143 96.2392C71.3503 96.2295 71.3803 96.2371 71.4045 96.262C71.4846 96.3942 71.5446 96.5387 71.5849 96.6957C71.634 97.9408 71.0749 98.6289 69.9075 98.7599C69.1838 98.6088 68.8471 98.1188 68.8975 97.2899C69.6915 96.9126 70.4971 96.5624 71.3143 96.2392Z" fill="#242021"/>
<path opacity="0.99" fill-rule="evenodd" clip-rule="evenodd" d="M59.2299 101.726C59.568 101.657 59.9047 101.617 60.2399 101.605C60.2915 101.614 60.3336 101.639 60.3662 101.68C60.4127 101.833 60.3706 101.964 60.2399 102.071C60.0489 102.09 59.8565 102.105 59.6628 102.115C59.5835 102.13 59.5114 102.155 59.4463 102.193C59.1246 102.25 58.812 102.364 58.5084 102.534C58.4564 102.558 58.4203 102.597 58.4002 102.65C57.8742 102.917 57.3932 103.267 56.9573 103.702C56.7996 103.814 56.6674 103.805 56.5605 103.676C56.5605 103.585 56.5605 103.495 56.5605 103.404C57.055 102.914 57.5961 102.508 58.1838 102.184C58.5346 102.021 58.8833 101.869 59.2299 101.726Z" fill="#252021"/>
<path opacity="0.99" fill-rule="evenodd" clip-rule="evenodd" d="M73.8378 99.1285C74.1568 99.1686 74.4815 99.2015 74.8117 99.227C75.4042 99.3561 75.9453 99.5834 76.4349 99.9088C76.4349 99.9735 76.4349 100.038 76.4349 100.103C76.366 100.256 76.2578 100.333 76.1103 100.335C75.6457 100.055 75.1407 99.8666 74.5953 99.7701C74.295 99.6553 73.9704 99.6224 73.6213 99.6715C73.3265 99.6816 73.0258 99.735 72.7195 99.8318C72.685 99.8204 72.6549 99.7999 72.6293 99.7703C72.5767 99.6134 72.6188 99.4831 72.7556 99.3791C73.1134 99.2602 73.4741 99.1767 73.8378 99.1285Z" fill="#252021"/>
<path fill-rule="evenodd" clip-rule="evenodd" d="M66.1213 100.734C66.3909 100.663 66.6435 100.676 66.8788 100.774C66.9584 100.846 66.9704 100.941 66.9149 101.059C66.8329 101.157 66.7367 101.232 66.6263 101.285C66.3422 101.379 66.0656 101.403 65.7966 101.355C65.6043 101.247 65.6043 101.104 65.7966 100.928C65.9074 100.858 66.0156 100.793 66.1213 100.734Z" fill="#F7BCD6"/>
<path opacity="0.982" fill-rule="evenodd" clip-rule="evenodd" d="M60.1314 103.235C59.7772 103.391 59.4766 103.626 59.2296 103.939C59.0595 104.067 58.9032 104.218 58.7607 104.391C58.5209 104.705 58.2924 105.03 58.0753 105.367C57.7868 105.444 57.6846 105.326 57.7687 105.014C58.0693 104.436 58.46 103.94 58.9411 103.524C59.2374 103.293 59.538 103.071 59.8429 102.859C60.0863 102.707 60.3388 102.585 60.6004 102.492C60.6718 102.477 60.732 102.492 60.7807 102.537C60.8416 102.671 60.8175 102.798 60.7086 102.919C60.5065 103.008 60.3141 103.113 60.1314 103.235Z" fill="#252021"/>
<path fill-rule="evenodd" clip-rule="evenodd" d="M64.8891 101.69C64.9387 101.675 64.9868 101.673 65.0334 101.683C65.1997 101.826 65.3981 101.887 65.6286 101.869C65.7221 101.849 65.8122 101.814 65.8991 101.762C66.0295 101.637 66.1678 101.528 66.314 101.436C66.477 101.498 66.6393 101.566 66.8009 101.641C66.9884 101.641 67.1688 101.583 67.342 101.467C67.4396 101.358 67.5478 101.268 67.6667 101.196C67.8684 101.205 67.9345 101.322 67.8651 101.549C67.3838 102.082 66.8727 102.224 66.332 101.976C65.7613 102.442 65.2383 102.47 64.7629 102.061C64.7261 101.915 64.7682 101.791 64.8891 101.69Z" fill="#272324"/>
<path opacity="0.985" fill-rule="evenodd" clip-rule="evenodd" d="M73.2244 100.519C73.5 100.624 73.7766 100.73 74.054 100.838C74.5633 101.127 74.9721 101.533 75.2805 102.056C75.2123 102.318 75.0681 102.415 74.8476 102.346C74.5709 101.908 74.2102 101.577 73.7655 101.355C73.718 101.266 73.6459 101.208 73.549 101.18C73.3362 101.097 73.1197 101.025 72.8997 100.965C72.6873 100.92 72.4709 100.887 72.2504 100.867C72.0834 100.677 72.1255 100.521 72.3767 100.398C72.6677 100.41 72.9503 100.45 73.2244 100.519Z" fill="#252021"/>
</g>
</g>
<path d="M48.0653 142.145L50.1631 141.772L53.8105 150.169L53.9447 150.145L57.5921 140.452L59.6899 140.079L59.6899 151.715L58.0452 152.007L58.0452 143.587L57.9389 143.606L54.5601 152.61L53.1951 152.853L49.8163 145.044L49.71 145.063L49.71 153.489L48.0653 153.782L48.0653 142.145ZM62.203 151.268L62.203 139.632L69.3858 138.355V139.866L63.9316 140.836V144.381L69.011 143.478V144.984L63.9316 145.887V149.45L69.453 148.468V149.979L62.203 151.268ZM73.9381 149.182L70.7606 138.11L72.5787 137.787L74.8107 146.402L74.917 146.383L77.2386 136.959L79.0399 136.639L81.3614 145.243L81.4677 145.224L83.6942 135.811L85.5179 135.487L82.3348 147.689L80.595 147.998L78.184 139.711L78.0945 139.727L75.6834 148.872L73.9381 149.182Z" fill="white"/>
<g opacity="0.32" filter="url(#filter3_f_30850_9715)">
<rect width="90" height="90" rx="45" transform="matrix(0.984563 -0.175033 0 1 -17.1895 26.3825)" fill="#2BCFA1" fill-opacity="0.5"/>
</g>
</g>
<path d="M27.6075 79.4185C27.6075 70.8581 34.44 62.7038 42.8682 61.2055L188.583 35.3005C197.012 33.8022 203.844 39.5271 203.844 48.0875V211.588L27.6075 242.918V79.4185Z" stroke="url(#paint1_radial_30850_9715)"/>
</g>
<g filter="url(#filter4_d_30850_9715)">
<g clip-path="url(#clip3_30850_9715)">
<path d="M124.336 79.506C124.336 70.6694 131.389 62.2522 140.089 60.7055L285.804 34.8005C294.504 33.2538 301.557 39.1634 301.557 48V212L124.336 243.506V79.506Z" fill="#141414"/>
<g filter="url(#filter5_b_30850_9715)">
<rect width="40" height="40" rx="8" transform="matrix(0.984563 -0.175033 0 1 144.027 80.0053)" fill="#1C1C1C"/>
<rect x="0.492281" y="0.412483" width="39" height="39" rx="7.5" transform="matrix(0.984563 -0.175033 0 1 144.035 80.0915)" stroke="#292929"/>
<g opacity="0.6">
<path d="M170.751 105.255L153.873 108.255V91.1125L157.389 90.4874V104.059L170.751 101.683V105.255Z" fill="#60DFFF"/>
<path d="M170.401 91.7455C172.149 91.4348 173.566 89.7439 173.566 87.9687C173.566 86.1935 172.149 85.0063 170.401 85.317C168.653 85.6277 167.236 87.3187 167.236 89.0939C167.236 90.8691 168.653 92.0563 170.401 91.7455Z" fill="#60DFFF"/>
</g>
</g>
<path d="M145.286 153.782V142.145L147.015 141.838V151.963L152.206 151.04V152.551L145.286 153.782ZM154.044 152.225V143.497L155.716 143.2V151.927L154.044 152.225ZM154.888 142.001C154.597 142.052 154.348 141.998 154.139 141.838C153.934 141.674 153.831 141.454 153.831 141.177C153.831 140.897 153.934 140.64 154.139 140.407C154.348 140.169 154.597 140.024 154.888 139.972C155.179 139.921 155.427 139.977 155.632 140.141C155.841 140.301 155.946 140.521 155.946 140.801C155.946 141.078 155.841 141.335 155.632 141.573C155.427 141.806 155.179 141.949 154.888 142.001ZM159.639 146.048V151.23L157.966 151.527V142.8L159.572 142.515V143.935L159.678 143.916C159.876 143.419 160.185 142.993 160.607 142.637C161.032 142.282 161.567 142.046 162.212 141.932C162.798 141.827 163.311 141.861 163.751 142.033C164.191 142.201 164.532 142.508 164.774 142.953C165.017 143.399 165.138 143.981 165.138 144.701V150.252L163.465 150.55V145.203C163.465 144.57 163.303 144.105 162.979 143.807C162.654 143.504 162.209 143.404 161.642 143.505C161.254 143.574 160.909 143.72 160.607 143.944C160.309 144.168 160.072 144.46 159.896 144.821C159.725 145.177 159.639 145.586 159.639 146.048ZM171.085 149.371C170.238 149.522 169.509 149.468 168.897 149.209C168.289 148.946 167.82 148.509 167.488 147.897C167.159 147.281 166.995 146.521 166.995 145.615C166.995 144.721 167.159 143.904 167.488 143.164C167.82 142.423 168.282 141.809 168.875 141.321C169.472 140.832 170.169 140.517 170.967 140.375C171.452 140.289 171.922 140.287 172.377 140.369C172.832 140.451 173.24 140.634 173.602 140.918C173.964 141.202 174.249 141.604 174.458 142.124C174.667 142.64 174.771 143.294 174.771 144.085V144.687L167.941 145.902V144.629L173.132 143.706C173.132 143.259 173.043 142.879 172.864 142.566C172.685 142.25 172.433 142.02 172.108 141.877C171.788 141.733 171.411 141.7 170.978 141.777C170.508 141.86 170.098 142.05 169.748 142.348C169.401 142.64 169.132 142.991 168.942 143.4C168.756 143.804 168.662 144.224 168.662 144.66V145.654C168.662 146.238 168.763 146.716 168.964 147.089C169.17 147.462 169.455 147.724 169.82 147.874C170.186 148.022 170.613 148.052 171.101 147.965C171.418 147.909 171.707 147.812 171.969 147.674C172.23 147.533 172.455 147.353 172.645 147.134C172.836 146.914 172.981 146.659 173.082 146.369L174.665 146.377C174.538 146.873 174.311 147.328 173.982 147.742C173.658 148.152 173.25 148.5 172.757 148.784C172.269 149.064 171.711 149.26 171.085 149.371ZM179.128 147.958C178.583 148.055 178.091 148.041 177.651 147.914C177.211 147.784 176.862 147.545 176.605 147.197C176.351 146.848 176.224 146.387 176.224 145.816C176.224 145.323 176.317 144.901 176.504 144.55C176.69 144.199 176.942 143.902 177.259 143.66C177.576 143.418 177.93 143.215 178.322 143.051C178.714 142.886 179.113 142.743 179.519 142.622C180.034 142.47 180.451 142.346 180.772 142.251C181.093 142.153 181.326 142.045 181.471 141.928C181.617 141.811 181.69 141.651 181.69 141.446V141.406C181.69 140.91 181.552 140.55 181.276 140.327C181.003 140.102 180.597 140.038 180.056 140.134C179.493 140.234 179.049 140.44 178.725 140.752C178.404 141.059 178.182 141.377 178.059 141.705L176.487 141.621C176.674 141.058 176.946 140.581 177.304 140.192C177.666 139.798 178.081 139.485 178.551 139.254C179.021 139.019 179.515 138.855 180.034 138.763C180.377 138.702 180.741 138.679 181.125 138.694C181.513 138.705 181.874 138.788 182.21 138.945C182.549 139.1 182.827 139.359 183.043 139.723C183.26 140.082 183.368 140.58 183.368 141.216V147.011L181.734 147.302V146.109L181.667 146.121C181.559 146.36 181.397 146.604 181.181 146.855C180.964 147.105 180.686 147.331 180.347 147.531C180.008 147.732 179.601 147.874 179.128 147.958ZM179.491 146.53C179.954 146.448 180.349 146.285 180.677 146.041C181.009 145.796 181.261 145.509 181.432 145.179C181.608 144.845 181.695 144.506 181.695 144.161V143.036C181.636 143.107 181.52 143.185 181.348 143.268C181.181 143.347 180.989 143.425 180.772 143.501C180.556 143.574 180.345 143.644 180.14 143.71C179.935 143.773 179.763 143.826 179.625 143.87C179.301 143.969 179.004 144.092 178.736 144.238C178.471 144.384 178.259 144.564 178.098 144.778C177.942 144.987 177.863 145.244 177.863 145.547C177.863 145.967 178.016 146.258 178.322 146.42C178.628 146.578 179.018 146.614 179.491 146.53Z" fill="white"/>
<g opacity="0.32" filter="url(#filter6_f_30850_9715)">
<rect width="90" height="90" rx="45" transform="matrix(0.984563 -0.175033 0 1 80.0312 26.3825)" fill="#2BCFA1" fill-opacity="0.5"/>
</g>
</g>
<path d="M124.828 79.4185C124.828 70.8581 131.661 62.7038 140.089 61.2055L285.804 35.3005C294.232 33.8022 301.065 39.5271 301.065 48.0875V211.588L124.828 242.918V79.4185Z" stroke="url(#paint2_radial_30850_9715)"/>
</g>
<g filter="url(#filter7_d_30850_9715)">
<g clip-path="url(#clip4_30850_9715)">
<path d="M221.557 79.506C221.557 70.6694 228.61 62.2522 237.31 60.7055L383.025 34.8005C391.725 33.2538 398.778 39.1634 398.778 48V212L221.557 243.506V79.506Z" fill="#141414"/>
<g filter="url(#filter8_b_30850_9715)">
<rect width="40" height="40" rx="8" transform="matrix(0.984563 -0.175033 0 1 241.248 80.0053)" fill="#1C1C1C"/>
<rect x="0.492281" y="0.412483" width="39" height="39" rx="7.5" transform="matrix(0.984563 -0.175033 0 1 241.256 80.0915)" stroke="#292929"/>
<path opacity="0.6" d="M260.921 106.508C266.367 105.54 270.785 100.279 270.785 94.7543C270.785 89.2332 266.37 85.5392 260.921 86.508C255.756 87.4262 251.514 92.2117 251.094 97.4131L264.129 95.0957V96.7765L251.094 99.0938C251.514 104.149 255.756 107.426 260.921 106.508Z" fill="#0052FF"/>
</g>
<path d="M242.507 153.782V142.145L246.702 141.399C247.515 141.255 248.188 141.271 248.722 141.449C249.255 141.624 249.654 141.918 249.919 142.333C250.184 142.744 250.316 143.238 250.316 143.814C250.316 144.299 250.228 144.723 250.053 145.088C249.878 145.448 249.643 145.755 249.348 146.008C249.057 146.257 248.737 146.458 248.386 146.611V146.725C248.767 146.676 249.138 146.735 249.499 146.902C249.865 147.064 250.167 147.335 250.406 147.713C250.644 148.091 250.764 148.581 250.764 149.183C250.764 149.778 250.626 150.336 250.35 150.859C250.077 151.377 249.656 151.825 249.085 152.203C248.515 152.577 247.786 152.843 246.898 153.001L242.507 153.782ZM244.235 151.969L246.73 151.525C247.558 151.378 248.151 151.11 248.509 150.72C248.867 150.331 249.046 149.892 249.046 149.403C249.046 149.036 248.955 148.715 248.772 148.44C248.589 148.166 248.328 147.968 247.989 147.847C247.653 147.725 247.254 147.705 246.792 147.787L244.235 148.241V151.969ZM244.235 146.872L246.551 146.46C246.939 146.391 247.288 146.254 247.597 146.047C247.911 145.84 248.159 145.584 248.341 145.278C248.528 144.969 248.621 144.626 248.621 144.251C248.621 143.77 248.455 143.396 248.123 143.13C247.791 142.863 247.282 142.791 246.596 142.913L244.235 143.332V146.872ZM255.18 151.722C254.636 151.818 254.143 151.804 253.703 151.677C253.263 151.547 252.915 151.308 252.657 150.96C252.404 150.611 252.277 150.151 252.277 149.579C252.277 149.086 252.37 148.664 252.557 148.313C252.743 147.962 252.995 147.665 253.312 147.423C253.629 147.181 253.983 146.978 254.375 146.814C254.766 146.649 255.165 146.507 255.572 146.385C256.086 146.233 256.504 146.109 256.825 146.015C257.146 145.916 257.379 145.808 257.524 145.691C257.67 145.575 257.742 145.414 257.742 145.209V145.17C257.742 144.673 257.604 144.313 257.328 144.09C257.056 143.865 256.65 143.801 256.109 143.898C255.546 143.998 255.102 144.203 254.777 144.515C254.457 144.822 254.235 145.14 254.112 145.468L252.54 145.384C252.726 144.821 252.998 144.344 253.356 143.955C253.718 143.561 254.134 143.249 254.604 143.017C255.074 142.782 255.568 142.619 256.086 142.526C256.43 142.465 256.793 142.443 257.177 142.458C257.565 142.468 257.927 142.552 258.263 142.708C258.602 142.863 258.88 143.123 259.096 143.486C259.312 143.845 259.42 144.343 259.42 144.979V150.775L257.787 151.065V149.872L257.72 149.884C257.612 150.123 257.45 150.367 257.233 150.618C257.017 150.869 256.739 151.094 256.4 151.295C256.06 151.495 255.654 151.637 255.18 151.722ZM255.544 150.293C256.006 150.211 256.402 150.048 256.73 149.804C257.062 149.56 257.313 149.272 257.485 148.943C257.66 148.608 257.748 148.269 257.748 147.924V146.799C257.688 146.871 257.573 146.948 257.401 147.031C257.233 147.11 257.041 147.188 256.825 147.265C256.609 147.337 256.398 147.407 256.193 147.473C255.988 147.536 255.816 147.59 255.678 147.633C255.354 147.733 255.057 147.855 254.789 148.002C254.524 148.147 254.311 148.327 254.151 148.541C253.994 148.751 253.916 149.007 253.916 149.31C253.916 149.731 254.069 150.022 254.375 150.183C254.68 150.341 255.07 150.378 255.544 150.293ZM268.087 142.637L266.571 143.18C266.508 142.994 266.407 142.824 266.269 142.671C266.135 142.517 265.952 142.403 265.721 142.331C265.49 142.258 265.201 142.253 264.854 142.314C264.38 142.399 263.985 142.577 263.668 142.849C263.351 143.118 263.192 143.42 263.192 143.758C263.192 144.049 263.299 144.265 263.511 144.405C263.724 144.546 264.067 144.63 264.541 144.66L265.905 144.735C266.696 144.78 267.285 144.962 267.673 145.279C268.061 145.597 268.255 146.064 268.255 146.681C268.255 147.204 268.106 147.697 267.807 148.159C267.513 148.616 267.101 149.008 266.571 149.333C266.045 149.658 265.436 149.881 264.742 150.005C263.78 150.176 262.995 150.107 262.387 149.798C261.779 149.486 261.406 148.956 261.268 148.208L262.885 147.67C262.985 148.08 263.192 148.367 263.506 148.531C263.819 148.692 264.227 148.727 264.731 148.637C265.279 148.54 265.717 148.347 266.045 148.057C266.374 147.764 266.538 147.449 266.538 147.112C266.538 146.839 266.437 146.628 266.236 146.478C266.038 146.327 265.734 146.241 265.324 146.22L263.869 146.154C263.067 146.111 262.474 145.921 262.09 145.584C261.71 145.246 261.52 144.767 261.52 144.146C261.52 143.631 261.661 143.155 261.945 142.718C262.228 142.281 262.62 141.91 263.12 141.606C263.619 141.297 264.192 141.086 264.837 140.971C265.766 140.806 266.497 140.88 267.03 141.195C267.563 141.505 267.916 141.986 268.087 142.637ZM273.797 148.395C272.951 148.545 272.222 148.491 271.61 148.233C271.002 147.969 270.532 147.532 270.2 146.921C269.872 146.305 269.708 145.544 269.708 144.639C269.708 143.745 269.872 142.928 270.2 142.188C270.532 141.447 270.995 140.833 271.588 140.345C272.184 139.856 272.882 139.541 273.68 139.399C274.165 139.313 274.635 139.31 275.09 139.392C275.545 139.474 275.953 139.658 276.315 139.942C276.676 140.226 276.962 140.628 277.171 141.148C277.379 141.663 277.484 142.317 277.484 143.109V143.711L270.653 144.925V143.653L275.845 142.73C275.845 142.283 275.755 141.903 275.576 141.59C275.397 141.273 275.146 141.043 274.821 140.9C274.5 140.757 274.124 140.723 273.691 140.8C273.221 140.884 272.811 141.074 272.46 141.371C272.114 141.664 271.845 142.015 271.655 142.424C271.468 142.828 271.375 143.248 271.375 143.683V144.678C271.375 145.261 271.476 145.739 271.677 146.113C271.882 146.485 272.168 146.747 272.533 146.898C272.899 147.045 273.326 147.075 273.814 146.989C274.131 146.932 274.42 146.835 274.681 146.698C274.942 146.557 275.168 146.377 275.358 146.157C275.548 145.938 275.694 145.683 275.794 145.392L277.378 145.4C277.251 145.897 277.023 146.352 276.695 146.766C276.371 147.176 275.962 147.523 275.47 147.808C274.981 148.088 274.424 148.284 273.797 148.395Z" fill="white"/>
<g opacity="0.32" filter="url(#filter9_f_30850_9715)">
<rect width="90" height="90" rx="45" transform="matrix(0.984563 -0.175033 0 1 177.252 26.3825)" fill="#2BCFA1" fill-opacity="0.5"/>
</g>
</g>
<path d="M222.049 79.4185C222.049 70.8581 228.881 62.7038 237.31 61.2055L383.025 35.3005C391.453 33.8022 398.286 39.5271 398.286 48.0875V211.588L222.049 242.918V79.4185Z" stroke="url(#paint3_radial_30850_9715)"/>
</g>
<g filter="url(#filter10_d_30850_9715)">
<g clip-path="url(#clip5_30850_9715)">
<path d="M318.779 79.506C318.779 70.6694 325.832 62.2522 334.532 60.7055L480.248 34.8005C488.948 33.2538 496.001 39.1634 496.001 48V212L318.779 243.506V79.506Z" fill="#141414"/>
<g filter="url(#filter11_b_30850_9715)">
<rect width="40" height="40" rx="8" transform="matrix(0.984563 -0.175033 0 1 338.471 80.0053)" fill="#1C1C1C"/>
<rect x="0.492281" y="0.412483" width="39" height="39" rx="7.5" transform="matrix(0.984563 -0.175033 0 1 338.478 80.0915)" stroke="#292929"/>
<g opacity="0.6">
<path d="M348.316 88.255V108.255L363.788 105.505V103.263L350.169 105.684V90.1674L363.788 87.7462V85.5045L348.316 88.255Z" fill="white"/>
<path d="M365.464 92.7885C365.464 92.2952 365.28 91.8991 364.91 91.6002C364.541 91.3012 364.028 91.2101 363.361 91.3287C362.797 91.429 362.355 91.6254 362.027 91.9304C361.699 92.2354 361.535 92.5863 361.535 92.9938C361.535 93.2082 361.576 93.394 361.658 93.5509C361.74 93.708 361.873 93.8344 362.068 93.9391C362.263 94.0439 362.52 94.1162 362.848 94.1651C363.166 94.2157 363.576 94.2393 364.069 94.2483C365.31 94.2635 366.254 94.4924 366.911 94.9226C367.567 95.3635 367.896 96.1201 367.896 97.2031V97.4176C367.896 97.9966 367.793 98.5296 367.598 99.0361C367.403 99.5318 367.116 99.9797 366.747 100.378C366.377 100.776 365.926 101.103 365.392 101.38C364.859 101.646 364.264 101.849 363.597 101.967C362.817 102.106 362.14 102.108 361.545 101.989C360.95 101.869 360.457 101.635 360.068 101.297C359.678 100.959 359.37 100.542 359.175 100.03C358.97 99.5191 358.867 98.9369 358.867 98.2935V98.1862L361.094 97.7904C361.094 98.5303 361.299 99.0837 361.709 99.4611C362.12 99.8278 362.756 99.9399 363.628 99.7848C364.305 99.6644 364.808 99.4249 365.136 99.0556C365.464 98.6862 365.628 98.2925 365.628 97.8743C365.628 97.6706 365.598 97.4937 365.526 97.3135C365.454 97.144 365.341 97.0032 365.167 96.8841C365.003 96.7631 364.767 96.6764 364.469 96.6113C364.171 96.5462 363.802 96.5154 363.351 96.5099C362.756 96.5085 362.212 96.4657 361.709 96.3835C361.217 96.2994 360.786 96.1509 360.416 95.9377C360.047 95.7246 359.77 95.4199 359.565 95.0275C359.36 94.635 359.257 94.1386 359.257 93.5274V93.4202C359.257 92.9161 359.36 92.4261 359.555 91.9625C359.75 91.4989 360.027 91.0744 360.386 90.6888C360.745 90.3033 361.165 89.9819 361.668 89.7209C362.171 89.46 362.725 89.265 363.351 89.1537C364.048 89.0297 364.664 89.0275 365.208 89.1346C365.751 89.2416 366.203 89.4402 366.572 89.7284C366.942 90.0166 367.188 90.391 367.403 90.8031C367.67 91.3026 367.68 92.4159 367.68 92.4159L365.464 92.7885Z" fill="white"/>
</g>
</g>
<path d="M345.978 144.091C345.918 143.564 345.672 143.191 345.24 142.972C344.807 142.75 344.262 142.697 343.606 142.814C343.136 142.897 342.73 143.046 342.387 143.258C342.043 143.467 341.777 143.719 341.587 144.014C341.4 144.305 341.307 144.615 341.307 144.944C341.307 145.221 341.37 145.448 341.497 145.626C341.628 145.804 341.797 145.942 342.006 146.042C342.219 146.136 342.446 146.208 342.689 146.255C342.931 146.299 343.164 146.33 343.388 146.347L344.507 146.444C344.872 146.47 345.247 146.526 345.631 146.613C346.015 146.7 346.371 146.841 346.7 147.037C347.028 147.232 347.293 147.499 347.494 147.839C347.699 148.177 347.802 148.608 347.802 149.131C347.802 149.79 347.634 150.405 347.298 150.976C346.966 151.546 346.483 152.035 345.849 152.444C345.219 152.851 344.456 153.134 343.561 153.294C342.704 153.446 341.961 153.44 341.335 153.275C340.708 153.109 340.218 152.805 339.864 152.36C339.509 151.912 339.314 151.34 339.276 150.646L341.01 150.338C341.044 150.752 341.178 151.079 341.413 151.317C341.652 151.552 341.956 151.704 342.325 151.775C342.698 151.841 343.106 151.835 343.55 151.756C344.039 151.669 344.473 151.514 344.854 151.291C345.238 151.064 345.54 150.79 345.76 150.471C345.98 150.148 346.09 149.797 346.09 149.418C346.09 149.073 345.993 148.808 345.799 148.623C345.609 148.437 345.35 148.301 345.021 148.216C344.697 148.129 344.33 148.068 343.919 148.031L342.566 147.897C341.648 147.806 340.921 147.562 340.384 147.165C339.851 146.768 339.584 146.163 339.584 145.353C339.584 144.682 339.763 144.065 340.121 143.502C340.479 142.938 340.964 142.464 341.575 142.078C342.187 141.689 342.877 141.427 343.645 141.29C344.421 141.152 345.105 141.169 345.698 141.34C346.295 141.51 346.765 141.807 347.108 142.231C347.451 142.651 347.63 143.172 347.645 143.795L345.978 144.091ZM349.867 151.979V140.343L351.596 140.036V145.592L351.736 145.568L356.541 139.156L358.717 138.77L354.096 144.83L358.734 150.403L356.653 150.773L352.95 146.232L351.596 148.053V151.672L349.867 151.979ZM361.296 149.947L359.461 150.274L363.584 137.904L365.581 137.549L369.704 148.453L367.869 148.779L364.63 139.832L364.541 139.848L361.296 149.947ZM361.604 145.336L367.556 144.278V145.755L361.604 146.813V145.336ZM371.358 148.159V136.522L373.087 136.215V146.34L378.278 145.417V146.928L371.358 148.159ZM380.25 146.578V134.941L387.433 133.665V135.176L381.979 136.146V139.691L387.058 138.788V140.294L381.979 141.197V144.759L387.5 143.778V145.289L380.25 146.578Z" fill="white"/>
<g opacity="0.32" filter="url(#filter12_f_30850_9715)">
<rect width="90" height="90" rx="45" transform="matrix(0.984563 -0.175033 0 1 274.475 26.3825)" fill="#2BCFA1" fill-opacity="0.5"/>
</g>
</g>
<path d="M319.272 79.4185C319.272 70.8581 326.104 62.7038 334.532 61.2055L480.248 35.3005C488.676 33.8022 495.508 39.5271 495.508 48.0875V211.588L319.272 242.918V79.4185Z" stroke="url(#paint4_radial_30850_9715)"/>
</g>
<g filter="url(#filter13_d_30850_9715)">
<g clip-path="url(#clip6_30850_9715)">
<path d="M416 79.506C416 70.6694 423.053 62.2522 431.753 60.7055L577.468 34.8005C586.168 33.2538 593.221 39.1634 593.221 48V212L416 243.506V79.506Z" fill="#141414"/>
<g filter="url(#filter14_b_30850_9715)">
<rect width="40" height="40" rx="8" transform="matrix(0.984563 -0.175033 0 1 435.691 80.0053)" fill="#1C1C1C"/>
<rect x="0.492281" y="0.412483" width="39" height="39" rx="7.5" transform="matrix(0.984563 -0.175033 0 1 435.699 80.0915)" stroke="#292929"/>
<g opacity="0.6">
<path d="M448.734 101.787C448.855 101.643 449.017 101.546 449.187 101.516L464.903 98.722C465.189 98.671 465.333 98.9956 465.129 99.2335L462.024 102.913C461.903 103.057 461.741 103.154 461.571 103.184L445.859 105.977C445.572 106.028 445.429 105.704 445.633 105.466L448.734 101.787Z" fill="url(#paint5_linear_30850_9715)"/>
<path d="M448.734 90.0973C448.855 89.9541 449.017 89.8568 449.187 89.8266L464.903 87.0327C465.189 86.9817 465.333 87.3063 465.129 87.5442L462.024 91.2241C461.903 91.3673 461.741 91.4647 461.571 91.4948L445.859 94.288C445.572 94.339 445.429 94.0144 445.633 93.7765L448.734 90.0973Z" fill="url(#paint6_linear_30850_9715)"/>
<path d="M462.024 93.5415C461.903 93.4412 461.741 93.4015 461.571 93.4317L445.859 96.2249C445.572 96.2759 445.429 96.6514 445.633 96.8169L448.738 99.3926C448.859 99.4929 449.021 99.5326 449.191 99.5024L464.906 96.7085C465.193 96.6576 465.336 96.282 465.133 96.1166L462.024 93.5415Z" fill="url(#paint7_linear_30850_9715)"/>
</g>
</g>
<path d="M443.199 144.091C443.139 143.564 442.893 143.191 442.46 142.972C442.028 142.75 441.483 142.697 440.827 142.814C440.357 142.897 439.95 143.046 439.607 143.258C439.264 143.467 438.998 143.719 438.807 144.014C438.621 144.305 438.528 144.615 438.528 144.944C438.528 145.221 438.591 145.448 438.718 145.626C438.848 145.804 439.018 145.942 439.227 146.042C439.439 146.136 439.667 146.208 439.909 146.255C440.152 146.299 440.385 146.33 440.609 146.347L441.727 146.444C442.093 146.47 442.468 146.526 442.852 146.613C443.236 146.7 443.592 146.841 443.92 147.037C444.249 147.232 444.513 147.499 444.715 147.839C444.92 148.177 445.022 148.608 445.022 149.131C445.022 149.79 444.855 150.405 444.519 150.976C444.187 151.546 443.704 152.035 443.07 152.444C442.44 152.851 441.677 153.134 440.782 153.294C439.924 153.446 439.182 153.44 438.556 153.275C437.929 153.109 437.439 152.805 437.084 152.36C436.73 151.912 436.534 151.34 436.497 150.646L438.231 150.338C438.265 150.752 438.399 151.079 438.634 151.317C438.873 151.552 439.177 151.704 439.546 151.775C439.919 151.841 440.327 151.835 440.771 151.756C441.259 151.669 441.694 151.514 442.074 151.291C442.458 151.064 442.76 150.79 442.981 150.471C443.201 150.148 443.311 149.797 443.311 149.418C443.311 149.073 443.214 148.808 443.02 148.623C442.829 148.437 442.57 148.301 442.242 148.216C441.918 148.129 441.55 148.068 441.14 148.031L439.786 147.897C438.869 147.806 438.142 147.562 437.605 147.165C437.071 146.768 436.805 146.163 436.805 145.353C436.805 144.682 436.984 144.065 437.342 143.502C437.7 142.938 438.185 142.464 438.796 142.078C439.408 141.689 440.098 141.427 440.866 141.29C441.642 141.152 442.326 141.169 442.919 141.34C443.516 141.51 443.986 141.807 444.329 142.231C444.672 142.651 444.851 143.172 444.866 143.795L443.199 144.091ZM450.573 151.536C449.768 151.679 449.065 151.617 448.464 151.348C447.864 151.08 447.398 150.638 447.066 150.023C446.734 149.408 446.568 148.649 446.568 147.748C446.568 146.843 446.734 146.021 447.066 145.284C447.398 144.547 447.864 143.938 448.464 143.456C449.065 142.974 449.768 142.662 450.573 142.519C451.379 142.376 452.082 142.438 452.682 142.706C453.283 142.975 453.749 143.418 454.081 144.037C454.413 144.656 454.579 145.418 454.579 146.324C454.579 147.225 454.413 148.043 454.081 148.776C453.749 149.509 453.283 150.117 452.682 150.598C452.082 151.08 451.379 151.393 450.573 151.536ZM450.579 150.109C451.101 150.016 451.533 149.799 451.877 149.458C452.22 149.116 452.473 148.698 452.637 148.203C452.805 147.707 452.889 147.179 452.889 146.618C452.889 146.062 452.805 145.565 452.637 145.129C452.473 144.689 452.22 144.357 451.877 144.134C451.533 143.911 451.101 143.845 450.579 143.938C450.053 144.032 449.617 144.251 449.27 144.597C448.927 144.942 448.671 145.364 448.503 145.864C448.339 146.359 448.257 146.885 448.257 147.442C448.257 148.002 448.339 148.501 448.503 148.938C448.671 149.374 448.927 149.702 449.27 149.921C449.617 150.14 450.053 150.202 450.579 150.109ZM458.118 138.382V150.018L456.446 150.316V138.679L458.118 138.382ZM462.869 149.367C462.324 149.464 461.832 149.449 461.392 149.323C460.952 149.193 460.603 148.953 460.346 148.605C460.092 148.256 459.966 147.796 459.966 147.224C459.966 146.732 460.059 146.31 460.245 145.958C460.432 145.607 460.684 145.31 461.001 145.068C461.318 144.826 461.672 144.623 462.063 144.459C462.455 144.295 462.854 144.152 463.261 144.03C463.775 143.878 464.193 143.755 464.514 143.66C464.834 143.561 465.067 143.453 465.213 143.337C465.358 143.22 465.431 143.059 465.431 142.855V142.815C465.431 142.319 465.293 141.959 465.017 141.735C464.745 141.511 464.338 141.447 463.798 141.543C463.234 141.643 462.791 141.849 462.466 142.16C462.145 142.467 461.924 142.785 461.8 143.114L460.229 143.03C460.415 142.466 460.687 141.99 461.045 141.6C461.407 141.206 461.823 140.894 462.293 140.663C462.763 140.428 463.257 140.264 463.775 140.172C464.118 140.111 464.482 140.088 464.866 140.103C465.254 140.113 465.616 140.197 465.951 140.353C466.291 140.509 466.569 140.768 466.785 141.131C467.001 141.49 467.109 141.988 467.109 142.624V148.42L465.476 148.71V147.517L465.409 147.529C465.301 147.768 465.138 148.013 464.922 148.263C464.706 148.514 464.428 148.739 464.088 148.94C463.749 149.14 463.343 149.283 462.869 149.367ZM463.233 147.939C463.695 147.856 464.09 147.693 464.419 147.449C464.75 147.205 465.002 146.918 465.174 146.588C465.349 146.254 465.437 145.914 465.437 145.57V144.445C465.377 144.516 465.261 144.593 465.09 144.677C464.922 144.756 464.73 144.833 464.514 144.91C464.297 144.982 464.087 145.052 463.882 145.119C463.676 145.182 463.505 145.235 463.367 145.278C463.042 145.378 462.746 145.501 462.477 145.647C462.213 145.792 462 145.972 461.84 146.186C461.683 146.396 461.605 146.652 461.605 146.955C461.605 147.376 461.758 147.667 462.063 147.828C462.369 147.986 462.759 148.023 463.233 147.939ZM471.01 142.545V147.727L469.337 148.024L469.337 139.297L470.943 139.011V140.432L471.049 140.413C471.247 139.915 471.556 139.489 471.978 139.134C472.403 138.778 472.938 138.543 473.583 138.428C474.169 138.324 474.681 138.358 475.121 138.53C475.562 138.698 475.903 139.004 476.145 139.45C476.388 139.895 476.509 140.478 476.509 141.198V146.749L474.836 147.046V141.7C474.836 141.067 474.674 140.602 474.349 140.303C474.025 140.001 473.579 139.9 473.012 140.001C472.625 140.07 472.28 140.217 471.978 140.441C471.679 140.664 471.442 140.956 471.267 141.317C471.096 141.673 471.01 142.083 471.01 142.545ZM481.253 146.099C480.708 146.196 480.216 146.181 479.776 146.054C479.336 145.924 478.987 145.685 478.73 145.337C478.476 144.988 478.349 144.528 478.349 143.956C478.349 143.463 478.442 143.041 478.629 142.69C478.815 142.339 479.067 142.042 479.384 141.8C479.701 141.558 480.055 141.355 480.447 141.191C480.839 141.026 481.238 140.884 481.644 140.762C482.159 140.61 482.577 140.486 482.897 140.392C483.218 140.293 483.451 140.185 483.597 140.068C483.742 139.952 483.815 139.791 483.815 139.586V139.547C483.815 139.05 483.677 138.691 483.401 138.467C483.128 138.243 482.722 138.178 482.181 138.275C481.618 138.375 481.174 138.58 480.85 138.892C480.529 139.199 480.307 139.517 480.184 139.846L478.612 139.761C478.799 139.198 479.071 138.721 479.429 138.332C479.791 137.938 480.207 137.626 480.676 137.394C481.146 137.159 481.64 136.996 482.159 136.904C482.502 136.843 482.866 136.82 483.25 136.835C483.638 136.845 483.999 136.929 484.335 137.085C484.674 137.24 484.952 137.5 485.168 137.863C485.385 138.222 485.493 138.72 485.493 139.356V145.152L483.859 145.442V144.249L483.792 144.261C483.684 144.5 483.522 144.745 483.306 144.995C483.089 145.246 482.811 145.471 482.472 145.672C482.133 145.872 481.726 146.015 481.253 146.099ZM481.616 144.67C482.079 144.588 482.474 144.425 482.802 144.181C483.134 143.937 483.386 143.649 483.557 143.32C483.733 142.985 483.82 142.646 483.82 142.301V141.176C483.761 141.248 483.645 141.325 483.473 141.408C483.306 141.488 483.114 141.565 482.897 141.642C482.681 141.714 482.47 141.784 482.265 141.851C482.06 141.914 481.888 141.967 481.75 142.01C481.426 142.11 481.13 142.232 480.861 142.379C480.596 142.524 480.384 142.704 480.223 142.918C480.067 143.128 479.988 143.384 479.988 143.687C479.988 144.108 480.141 144.399 480.447 144.56C480.753 144.718 481.143 144.755 481.616 144.67Z" fill="white"/>
<g opacity="0.32" filter="url(#filter15_f_30850_9715)">
<rect width="90" height="90" rx="45" transform="matrix(0.984563 -0.175033 0 1 371.695 26.3825)" fill="#2BCFA1" fill-opacity="0.5"/>
</g>
</g>
<path d="M416.492 79.4185C416.492 70.8581 423.325 62.7038 431.753 61.2055L577.468 35.3005C585.897 33.8022 592.729 39.5271 592.729 48.0875V211.588L416.492 242.918V79.4185Z" stroke="url(#paint8_radial_30850_9715)"/>
</g>
<g filter="url(#filter16_d_30850_9715)">
<g clip-path="url(#clip7_30850_9715)">
<path d="M513.221 79.506C513.221 70.6694 520.274 62.2522 528.974 60.7055L674.689 34.8005C683.389 33.2538 690.442 39.1634 690.442 48V212L513.221 243.506V79.506Z" fill="#141414"/>
<g filter="url(#filter17_b_30850_9715)">
<rect width="40" height="40" rx="8" transform="matrix(0.984563 -0.175033 0 1 532.912 80.0053)" fill="#1C1C1C"/>
<rect x="0.492281" y="0.412483" width="39" height="39" rx="7.5" transform="matrix(0.984563 -0.175033 0 1 532.92 80.0915)" stroke="#292929"/>
<path opacity="0.6" d="M547.163 90.5353L552.603 86.5047L558.044 88.6009L556.044 90.0882L552.603 88.7681L549.163 91.3114L547.163 90.5353ZM558.044 92.4643L556.044 91.6882L552.603 94.2315L549.163 92.9114L547.163 94.3987V96.6621L550.603 97.9822V101.846L552.603 102.622L554.603 101.134V97.271L558.044 94.7277V92.4643ZM558.044 98.5911V96.3277L556.044 97.815V100.078L558.044 98.5911ZM559.464 99.1386L556.024 101.682V103.945L561.464 99.9147V93.7879L559.464 95.2752V99.1386ZM557.464 90.6357L559.464 91.4118V93.6752L561.464 92.1879V89.9245L559.464 89.1484L557.464 90.6357ZM550.603 103.465V105.729L552.603 106.505L554.603 105.017V102.754L552.603 104.241L550.603 103.465ZM547.163 100.526L549.163 101.302V99.0382L547.163 98.2621V100.526ZM550.603 91.8554L552.603 92.6315L554.603 91.1442L552.603 90.3681L550.603 91.8554ZM545.742 93.8512L547.743 92.3639L545.742 91.5878L543.742 93.0751V95.3385L545.742 96.1146V93.8512ZM545.742 97.7146L543.742 96.9385V103.065L549.183 105.162V102.898L545.742 101.578V97.7146Z" fill="#F0B90B"/>
</g>
<path d="M534.171 153.782V142.145L538.366 141.399C539.179 141.255 539.853 141.271 540.386 141.449C540.919 141.624 541.318 141.918 541.583 142.333C541.848 142.744 541.98 143.238 541.98 143.814C541.98 144.299 541.893 144.723 541.717 145.088C541.542 145.448 541.307 145.755 541.012 146.008C540.721 146.257 540.401 146.458 540.05 146.611V146.725C540.431 146.676 540.802 146.735 541.163 146.902C541.529 147.064 541.831 147.335 542.07 147.713C542.308 148.091 542.428 148.581 542.428 149.183C542.428 149.778 542.29 150.336 542.014 150.859C541.741 151.377 541.32 151.825 540.749 152.203C540.179 152.577 539.45 152.843 538.562 153.001L534.171 153.782ZM535.899 151.969L538.394 151.525C539.222 151.378 539.815 151.11 540.173 150.72C540.531 150.331 540.71 149.892 540.71 149.403C540.71 149.036 540.619 148.715 540.436 148.44C540.253 148.166 539.992 147.968 539.653 147.847C539.317 147.725 538.918 147.705 538.456 147.787L535.899 148.241V151.969ZM535.899 146.872L538.215 146.46C538.603 146.391 538.952 146.254 539.261 146.047C539.575 145.84 539.823 145.584 540.005 145.278C540.192 144.969 540.285 144.626 540.285 144.251C540.285 143.77 540.119 143.396 539.787 143.13C539.455 142.863 538.946 142.791 538.26 142.913L535.899 143.332V146.872ZM553.725 138.669V150.305L552.136 150.588L546.313 143.089L546.207 143.108V151.642L544.478 151.949V140.313L546.078 140.028L551.907 147.538L552.013 147.519V138.973L553.725 138.669ZM556.247 149.857V138.221L560.442 137.475C561.255 137.33 561.928 137.347 562.462 137.525C562.995 137.699 563.394 137.994 563.659 138.409C563.924 138.82 564.056 139.313 564.056 139.889C564.056 140.374 563.968 140.799 563.793 141.163C563.618 141.524 563.383 141.831 563.088 142.084C562.797 142.333 562.476 142.534 562.126 142.687V142.8C562.506 142.752 562.877 142.811 563.239 142.977C563.605 143.14 563.907 143.41 564.145 143.788C564.384 144.166 564.503 144.656 564.503 145.258C564.503 145.853 564.365 146.412 564.089 146.934C563.817 147.452 563.396 147.9 562.825 148.278C562.255 148.653 561.525 148.919 560.638 149.076L556.247 149.857ZM557.975 148.044L560.47 147.6C561.298 147.453 561.891 147.185 562.249 146.796C562.607 146.406 562.786 145.967 562.786 145.478C562.786 145.111 562.695 144.79 562.512 144.516C562.329 144.242 562.068 144.044 561.729 143.922C561.393 143.8 560.994 143.78 560.532 143.862L557.975 144.317V148.044ZM557.975 142.947L560.291 142.536C560.679 142.467 561.028 142.329 561.337 142.122C561.65 141.915 561.898 141.659 562.081 141.354C562.268 141.044 562.361 140.702 562.361 140.327C562.361 139.846 562.195 139.472 561.863 139.205C561.531 138.938 561.022 138.866 560.336 138.988L557.975 139.408V142.947Z" fill="white"/>
<g opacity="0.32" filter="url(#filter18_f_30850_9715)">
<rect width="90" height="90" rx="45" transform="matrix(0.984563 -0.175033 0 1 468.916 26.3825)" fill="#2BCFA1" fill-opacity="0.5"/>
</g>
</g>
<path d="M513.713 79.4185C513.713 70.8581 520.545 62.7038 528.974 61.2055L674.689 35.3005C683.117 33.8022 689.95 39.5271 689.95 48.0875V211.588L513.713 242.918V79.4185Z" stroke="url(#paint9_radial_30850_9715)"/>
</g>
<g filter="url(#filter19_d_30850_9715)">
<g clip-path="url(#clip8_30850_9715)">
<path d="M610.443 79.506C610.443 70.6694 617.496 62.2522 626.196 60.7055L771.912 34.8005C780.612 33.2538 787.665 39.1634 787.665 48V212L610.443 243.506V79.506Z" fill="#141414"/>
<g filter="url(#filter20_b_30850_9715)">
<rect width="40" height="40" rx="8" transform="matrix(0.984563 -0.175033 0 1 630.135 80.0053)" fill="#1C1C1C"/>
<rect x="0.492281" y="0.412483" width="39" height="39" rx="7.5" transform="matrix(0.984563 -0.175033 0 1 630.142 80.0915)" stroke="#292929"/>
<path opacity="0.6" d="M654.6 99.5366L659.271 95.7683C659.519 95.5682 659.672 95.2516 659.672 94.941V89.0649C659.672 88.7543 659.519 88.4921 659.271 88.3801L654.6 86.2724C654.353 86.1603 654.045 86.2165 653.799 86.4148L649.129 90.1832C648.881 90.3833 648.728 90.6999 648.728 91.0105V101.511L645.452 104.153L642.177 102.676V98.5558L645.452 95.9143L647.612 96.8894V94.1256L645.853 93.3308C645.732 93.2765 645.593 93.2604 645.452 93.2853C645.312 93.3103 645.173 93.3759 645.052 93.4732L640.381 97.2416C640.133 97.4417 639.98 97.7583 639.98 98.0689V103.945C639.98 104.256 640.133 104.518 640.381 104.63L645.052 106.738C645.299 106.848 645.605 106.794 645.853 106.595L650.524 102.827C650.771 102.627 650.924 102.31 650.924 101.999V91.4974L650.983 91.4506L654.198 88.8561L657.474 90.3329V94.4529L654.198 97.0944L652.041 96.1217V98.8856L653.798 99.6779C654.045 99.7884 654.353 99.7337 654.599 99.5354L654.6 99.5366Z" fill="url(#paint10_linear_30850_9715)"/>
</g>
<path d="M631.393 153.782V142.145L635.477 141.419C636.368 141.261 637.107 141.294 637.692 141.52C638.278 141.745 638.716 142.118 639.007 142.638C639.298 143.155 639.443 143.769 639.443 144.481C639.443 145.197 639.296 145.867 639.001 146.492C638.711 147.111 638.27 147.64 637.681 148.079C637.096 148.512 636.359 148.808 635.472 148.966L632.663 149.465V147.976L635.315 147.505C635.878 147.405 636.335 147.225 636.685 146.966C637.036 146.703 637.293 146.384 637.457 146.01C637.622 145.636 637.704 145.23 637.704 144.79C637.704 144.351 637.622 143.975 637.457 143.664C637.293 143.352 637.034 143.131 636.68 143.001C636.329 142.87 635.867 142.856 635.293 142.958L633.122 143.344V153.474L631.393 153.782ZM644.847 151.566C644.042 151.709 643.339 151.647 642.738 151.378C642.138 151.11 641.672 150.668 641.34 150.053C641.008 149.438 640.842 148.679 640.842 147.778C640.842 146.873 641.008 146.052 641.34 145.314C641.672 144.577 642.138 143.968 642.738 143.486C643.339 143.005 644.042 142.692 644.847 142.549C645.653 142.406 646.356 142.468 646.956 142.736C647.557 143.005 648.023 143.448 648.355 144.067C648.687 144.686 648.853 145.449 648.853 146.354C648.853 147.255 648.687 148.073 648.355 148.806C648.023 149.539 647.557 150.147 646.956 150.628C646.356 151.11 645.653 151.423 644.847 151.566ZM644.853 150.139C645.375 150.046 645.808 149.829 646.151 149.488C646.494 149.146 646.747 148.728 646.911 148.233C647.079 147.737 647.163 147.209 647.163 146.648C647.163 146.092 647.079 145.595 646.911 145.159C646.747 144.719 646.494 144.387 646.151 144.164C645.808 143.941 645.375 143.875 644.853 143.968C644.327 144.062 643.891 144.281 643.544 144.627C643.201 144.972 642.945 145.395 642.777 145.894C642.613 146.389 642.531 146.915 642.531 147.472C642.531 148.033 642.613 148.531 642.777 148.968C642.945 149.404 643.201 149.732 643.544 149.951C643.891 150.17 644.327 150.232 644.853 150.139ZM652.392 138.412V150.048L650.72 150.346V138.709L652.392 138.412ZM655.7 152.733C655.45 152.778 655.222 152.797 655.017 152.792C654.812 152.791 654.659 152.776 654.559 152.749L654.961 151.285C655.267 151.314 655.539 151.301 655.778 151.248C656.017 151.194 656.228 151.065 656.41 150.863C656.597 150.659 656.761 150.351 656.903 149.94L657.11 149.323L653.966 141.041L655.756 140.723L657.932 147.109L658.021 147.093L660.197 139.934L661.993 139.614L658.452 150.136C658.288 150.62 658.079 151.041 657.826 151.401C657.572 151.764 657.27 152.056 656.919 152.278C656.569 152.499 656.162 152.651 655.7 152.733ZM666.875 150.928C666.193 151.05 665.606 151.063 665.113 150.969C664.625 150.874 664.226 150.704 663.916 150.46C663.607 150.216 663.375 149.929 663.223 149.6L664.66 148.742C664.761 148.891 664.895 149.044 665.063 149.199C665.235 149.358 665.466 149.478 665.757 149.559C666.051 149.639 666.43 149.638 666.892 149.556C667.526 149.443 668.05 149.193 668.464 148.805C668.878 148.421 669.085 147.888 669.085 147.206V145.49L668.979 145.509C668.878 145.712 668.733 145.945 668.542 146.206C668.356 146.466 668.099 146.709 667.771 146.934C667.442 147.159 667.015 147.318 666.489 147.412C665.811 147.532 665.199 147.48 664.655 147.255C664.114 147.025 663.685 146.622 663.368 146.046C663.055 145.465 662.898 144.711 662.898 143.783C662.898 142.855 663.053 142.032 663.362 141.314C663.676 140.596 664.105 140.012 664.649 139.563C665.193 139.11 665.811 138.822 666.501 138.699C667.034 138.605 667.465 138.619 667.793 138.742C668.121 138.862 668.377 139.025 668.559 139.231C668.746 139.437 668.889 139.621 668.99 139.785L669.113 139.763V138.349L670.752 138.057V146.978C670.752 147.728 670.581 148.374 670.238 148.916C669.894 149.458 669.43 149.896 668.845 150.232C668.263 150.566 667.606 150.798 666.875 150.928ZM666.859 145.937C667.34 145.851 667.746 145.665 668.078 145.379C668.414 145.088 668.667 144.714 668.839 144.255C669.014 143.792 669.102 143.26 669.102 142.657C669.102 142.07 669.016 141.568 668.845 141.152C668.673 140.736 668.421 140.432 668.089 140.241C667.757 140.046 667.347 139.992 666.859 140.079C666.355 140.168 665.936 140.376 665.6 140.7C665.264 141.021 665.011 141.423 664.839 141.904C664.671 142.384 664.587 142.903 664.587 143.46C664.587 144.032 664.673 144.519 664.845 144.92C665.016 145.321 665.27 145.613 665.606 145.796C665.945 145.978 666.363 146.025 666.859 145.937ZM676.615 145.918C675.809 146.062 675.106 145.999 674.506 145.731C673.905 145.463 673.439 145.021 673.107 144.406C672.775 143.79 672.609 143.032 672.609 142.13C672.609 141.225 672.775 140.404 673.107 139.667C673.439 138.93 673.905 138.32 674.506 137.839C675.106 137.357 675.809 137.045 676.615 136.901C677.42 136.758 678.123 136.821 678.724 137.089C679.324 137.357 679.79 137.801 680.122 138.42C680.454 139.039 680.62 139.801 680.62 140.706C680.62 141.608 680.454 142.425 680.122 143.158C679.79 143.892 679.324 144.499 678.724 144.981C678.123 145.463 677.42 145.775 676.615 145.918ZM676.62 144.491C677.143 144.398 677.575 144.181 677.918 143.84C678.261 143.499 678.515 143.081 678.679 142.585C678.847 142.09 678.931 141.562 678.931 141.001C678.931 140.444 678.847 139.948 678.679 139.512C678.515 139.071 678.261 138.739 677.918 138.516C677.575 138.293 677.143 138.228 676.62 138.321C676.095 138.414 675.658 138.634 675.311 138.98C674.968 139.325 674.713 139.747 674.545 140.247C674.381 140.742 674.299 141.268 674.299 141.824C674.299 142.385 674.381 142.884 674.545 143.32C674.713 143.756 674.968 144.084 675.311 144.303C675.658 144.522 676.095 144.585 676.62 144.491ZM684.16 139.219V144.401L682.487 144.698V135.971L684.093 135.686V137.106L684.199 137.087C684.397 136.59 684.706 136.164 685.128 135.808C685.553 135.452 686.088 135.217 686.733 135.102C687.319 134.998 687.831 135.032 688.272 135.204C688.712 135.372 689.053 135.679 689.295 136.124C689.538 136.57 689.659 137.152 689.659 137.872V143.423L687.986 143.721V138.374C687.986 137.741 687.824 137.276 687.5 136.978C687.175 136.675 686.729 136.575 686.163 136.676C685.775 136.744 685.43 136.891 685.128 137.115C684.829 137.339 684.592 137.631 684.417 137.991C684.246 138.348 684.16 138.757 684.16 139.219Z" fill="white"/>
<g opacity="0.32" filter="url(#filter21_f_30850_9715)">
<rect width="90" height="90" rx="45" transform="matrix(0.984563 -0.175033 0 1 566.139 26.3825)" fill="#2BCFA1" fill-opacity="0.5"/>
</g>
</g>
<path d="M610.936 79.4185C610.936 70.8581 617.768 62.7038 626.196 61.2055L771.912 35.3005C780.34 33.8022 787.172 39.5271 787.172 48.0875V211.588L610.936 242.918V79.4185Z" stroke="url(#paint11_radial_30850_9715)"/>
</g>
<g filter="url(#filter22_d_30850_9715)">
<g clip-path="url(#clip9_30850_9715)">
<path d="M707.664 79.506C707.664 70.6694 714.717 62.2522 723.417 60.7055L869.132 34.8005C877.832 33.2538 884.885 39.1634 884.885 48V212L707.664 243.506V79.506Z" fill="#141414"/>
<g filter="url(#filter23_b_30850_9715)">
<rect width="40" height="40" rx="8" transform="matrix(0.984563 -0.175033 0 1 727.355 80.0053)" fill="#1C1C1C"/>
<rect x="0.492281" y="0.412483" width="39" height="39" rx="7.5" transform="matrix(0.984563 -0.175033 0 1 727.363 80.0915)" stroke="#292929"/>
<g opacity="0.6">
<path fill-rule="evenodd" clip-rule="evenodd" d="M747.047 86.5047C752.484 85.538 756.892 89.2315 756.892 94.7544C756.892 100.277 752.484 105.538 747.047 106.505C741.609 107.471 737.201 103.778 737.201 98.255C737.201 92.7322 741.609 87.4714 747.047 86.5047Z" fill="#2775CA"/>
<path fill-rule="evenodd" clip-rule="evenodd" d="M749.311 89.0554C749.088 89.023 748.907 89.1889 748.907 89.4252V90.0063C748.907 90.1648 749.025 90.3241 749.172 90.3526C751.531 90.8081 753.219 92.8043 753.219 95.4927C753.219 98.1811 751.531 100.777 749.172 102.072C749.01 102.16 748.907 102.339 748.907 102.512V103.093C748.907 103.33 749.088 103.431 749.311 103.32C752.292 101.825 754.451 98.6127 754.451 95.2737C754.451 91.9346 752.292 89.49 749.311 89.0554ZM745.21 90.0823C745.21 89.846 745.029 89.7447 744.806 89.8562C741.825 91.3508 739.666 94.563 739.666 97.9021C739.666 101.241 741.825 103.686 744.806 104.12C745.029 104.153 745.21 103.987 745.21 103.75V103.169C745.21 103.011 745.093 102.852 744.946 102.823C742.586 102.367 740.898 100.371 740.898 97.6831C740.898 94.9947 742.586 92.3983 744.946 91.1038C745.093 91.0232 745.21 90.8219 745.21 90.6635V90.0823ZM747.367 91.5426L746.751 91.6521C746.58 91.6823 746.443 91.8465 746.443 92.0187V92.985C745.221 93.378 744.432 94.3413 744.432 95.3971C744.432 96.7638 745.248 97.149 746.97 97.0775C748.138 97.0636 748.47 97.2593 748.47 97.9325C748.47 98.6055 747.906 99.1547 747.111 99.2961C746.035 99.4873 745.681 99.0736 745.551 98.48C745.52 98.3394 745.396 98.2545 745.249 98.2808L744.546 98.4057C744.369 98.4372 744.231 98.6232 744.261 98.7943C744.44 99.8008 745.099 100.445 746.443 100.391V101.376C746.443 101.548 746.58 101.663 746.751 101.633L747.367 101.524C747.537 101.493 747.675 101.329 747.675 101.157V100.172C748.947 99.7408 749.76 98.6995 749.76 97.5911C749.76 96.1328 748.883 95.7989 747.191 95.8653C745.942 95.9037 745.701 95.6508 745.701 95.0593C745.701 94.4985 746.124 94.0254 746.94 93.8803C747.678 93.7492 748.102 93.9345 748.277 94.5047C748.316 94.632 748.435 94.7058 748.573 94.6812L749.221 94.566C749.402 94.5339 749.542 94.3407 749.504 94.1688C749.299 93.2549 748.666 92.7971 747.675 92.7934V91.7997C747.675 91.6274 747.537 91.5123 747.367 91.5426Z" fill="white"/>
</g>
</g>
<path d="M735.982 140.835L737.716 140.527V148.181C737.716 148.995 737.527 149.75 737.151 150.446C736.774 151.138 736.245 151.724 735.562 152.205C734.88 152.683 734.08 153.003 733.162 153.166C732.248 153.329 731.45 153.292 730.768 153.058C730.085 152.819 729.556 152.421 729.179 151.863C728.802 151.301 728.614 150.613 728.614 149.799V142.145L730.343 141.838V149.349C730.343 149.876 730.456 150.323 730.684 150.692C730.915 151.06 731.242 151.324 731.663 151.484C732.084 151.64 732.584 151.667 733.162 151.564C733.744 151.461 734.246 151.256 734.667 150.95C735.092 150.639 735.417 150.26 735.64 149.811C735.868 149.361 735.982 148.873 735.982 148.347V140.835ZM746.478 142.026C746.418 141.499 746.172 141.126 745.739 140.908C745.306 140.685 744.762 140.632 744.106 140.749C743.636 140.833 743.229 140.981 742.886 141.193C742.543 141.402 742.276 141.654 742.086 141.949C741.9 142.24 741.806 142.55 741.806 142.879C741.806 143.156 741.87 143.383 741.997 143.562C742.127 143.739 742.297 143.877 742.506 143.977C742.718 144.072 742.946 144.143 743.188 144.191C743.431 144.235 743.664 144.265 743.887 144.282L745.006 144.379C745.372 144.405 745.747 144.461 746.131 144.548C746.515 144.635 746.871 144.776 747.199 144.972C747.527 145.167 747.792 145.435 747.994 145.774C748.199 146.112 748.301 146.543 748.301 147.066C748.301 147.725 748.133 148.34 747.798 148.911C747.466 149.481 746.983 149.971 746.349 150.379C745.719 150.786 744.956 151.07 744.061 151.229C743.203 151.381 742.461 151.375 741.834 151.21C741.208 151.045 740.717 150.74 740.363 150.295C740.009 149.847 739.813 149.275 739.776 148.581L741.51 148.273C741.544 148.688 741.678 149.014 741.913 149.253C742.151 149.487 742.455 149.639 742.825 149.71C743.198 149.776 743.606 149.77 744.05 149.691C744.538 149.604 744.973 149.449 745.353 149.226C745.737 148.999 746.039 148.725 746.259 148.406C746.479 148.083 746.589 147.732 746.589 147.353C746.589 147.008 746.492 146.743 746.299 146.558C746.108 146.372 745.849 146.237 745.521 146.151C745.196 146.065 744.829 146.003 744.419 145.966L743.065 145.832C742.148 145.741 741.42 145.497 740.883 145.1C740.35 144.703 740.083 144.099 740.083 143.288C740.083 142.618 740.262 142.001 740.62 141.437C740.979 140.873 741.463 140.399 742.075 140.014C742.687 139.624 743.377 139.362 744.145 139.225C744.92 139.087 745.605 139.104 746.198 139.275C746.795 139.445 747.264 139.742 747.608 140.166C747.951 140.586 748.13 141.108 748.145 141.73L746.478 142.026ZM754.076 149.255L750.367 149.914V138.278L754.193 137.598C755.316 137.398 756.28 137.46 757.085 137.783C757.891 138.101 758.508 138.656 758.937 139.448C759.37 140.234 759.586 141.232 759.586 142.44C759.586 143.652 759.368 144.733 758.931 145.682C758.499 146.63 757.872 147.412 757.052 148.027C756.231 148.639 755.239 149.048 754.076 149.255ZM752.095 148.073L753.981 147.738C754.853 147.583 755.579 147.287 756.157 146.851C756.735 146.411 757.167 145.847 757.455 145.16C757.742 144.469 757.885 143.663 757.885 142.743C757.885 141.83 757.742 141.081 757.455 140.495C757.171 139.909 756.748 139.502 756.185 139.272C755.622 139.043 754.922 139.002 754.087 139.151L752.095 139.505V148.073ZM771.251 138.349L769.506 138.66C769.439 138.293 769.314 137.982 769.131 137.726C768.948 137.471 768.724 137.266 768.46 137.113C768.195 136.959 767.898 136.86 767.57 136.816C767.246 136.772 766.901 136.782 766.535 136.847C765.875 136.964 765.284 137.238 764.762 137.668C764.243 138.097 763.833 138.664 763.531 139.37C763.233 140.074 763.084 140.896 763.084 141.835C763.084 142.782 763.233 143.555 763.531 144.154C763.833 144.751 764.245 145.171 764.767 145.411C765.29 145.652 765.877 145.714 766.53 145.598C766.891 145.534 767.234 145.423 767.559 145.267C767.887 145.107 768.184 144.904 768.448 144.66C768.713 144.416 768.937 144.136 769.12 143.819C769.306 143.498 769.435 143.146 769.506 142.762L771.251 142.457C771.158 143.046 770.977 143.605 770.708 144.133C770.444 144.658 770.102 145.131 769.685 145.554C769.271 145.972 768.797 146.324 768.264 146.608C767.73 146.892 767.149 147.09 766.518 147.202C765.526 147.378 764.643 147.297 763.867 146.958C763.091 146.614 762.479 146.036 762.032 145.221C761.588 144.406 761.366 143.379 761.366 142.141C761.366 140.898 761.59 139.792 762.038 138.823C762.485 137.849 763.097 137.055 763.872 136.44C764.648 135.821 765.53 135.423 766.518 135.248C767.126 135.14 767.693 135.128 768.219 135.212C768.749 135.292 769.224 135.465 769.646 135.731C770.067 135.994 770.416 136.345 770.692 136.784C770.968 137.22 771.154 137.742 771.251 138.349Z" fill="white"/>
<g opacity="0.32" filter="url(#filter24_f_30850_9715)">
<rect width="90" height="90" rx="45" transform="matrix(0.984563 -0.175033 0 1 663.359 26.3825)" fill="#2BCFA1" fill-opacity="0.5"/>
</g>
</g>
<path d="M708.156 79.4185C708.156 70.8581 714.989 62.7038 723.417 61.2055L869.132 35.3005C877.561 33.8022 884.393 39.5271 884.393 48.0875V211.588L708.156 242.918V79.4185Z" stroke="url(#paint12_radial_30850_9715)"/>
</g>
<g filter="url(#filter25_d_30850_9715)">
<g clip-path="url(#clip10_30850_9715)">
<path d="M804.885 79.506C804.885 70.6694 811.938 62.2522 820.638 60.7055L966.353 34.8005C975.053 33.2538 982.106 39.1634 982.106 48V212L804.885 243.506V79.506Z" fill="#141414"/>
<g filter="url(#filter26_b_30850_9715)">
<rect width="40" height="40" rx="8" transform="matrix(0.984563 -0.175033 0 1 824.576 80.0053)" fill="#1C1C1C"/>
<rect x="0.492281" y="0.412483" width="39" height="39" rx="7.5" transform="matrix(0.984563 -0.175033 0 1 824.584 80.0915)" stroke="#292929"/>
<g opacity="0.6">
<path opacity="0.6" d="M844.263 93.9038L838.359 97.7397L844.263 100.319L850.173 95.6395L844.263 93.9038Z" fill="#6782EB"/>
<path opacity="0.45" d="M838.359 97.7398L844.263 100.319V86.5055L838.359 97.7398Z" fill="#6782EB"/>
<path opacity="0.8" d="M844.266 86.5048V100.319L850.176 95.6388L844.266 86.5048Z" fill="#6782EB"/>
<path opacity="0.45" d="M838.359 98.9075L844.263 106.506V101.48L838.359 98.9075Z" fill="#6782EB"/>
<path opacity="0.8" d="M844.266 101.479V106.505L850.176 96.8066L844.266 101.479Z" fill="#6782EB"/>
</g>
</g>
<path d="M825.835 153.782V142.145L833.018 140.868V142.38L827.563 143.349V146.895L832.643 145.992V147.497L827.563 148.4V151.963L833.085 150.981V152.493L825.835 153.782ZM839.203 142.678V144.041L834.51 144.876V143.512L839.203 142.678ZM835.769 141.197L837.441 140.9V149.156C837.441 149.485 837.49 149.725 837.587 149.874C837.684 150.02 837.809 150.109 837.961 150.143C838.118 150.172 838.288 150.17 838.471 150.137C838.605 150.114 838.722 150.083 838.823 150.046C838.924 150.01 839.002 149.981 839.058 149.959L839.36 151.309C839.263 151.364 839.125 151.426 838.946 151.496C838.767 151.57 838.543 151.632 838.275 151.684C837.835 151.769 837.424 151.763 837.044 151.664C836.664 151.565 836.356 151.362 836.121 151.055C835.886 150.748 835.769 150.332 835.769 149.805V141.197ZM842.911 145.564V150.746L841.238 151.043V139.407L842.888 139.113V143.443L842.995 143.424C843.196 142.919 843.504 142.491 843.918 142.141C844.332 141.791 844.873 141.556 845.54 141.437C846.129 141.333 846.644 141.364 847.084 141.532C847.528 141.7 847.871 142.006 848.113 142.452C848.36 142.893 848.483 143.477 848.483 144.204V149.755L846.81 150.053V144.706C846.81 144.066 846.648 143.599 846.323 143.304C845.999 143.006 845.548 142.908 844.969 143.011C844.574 143.081 844.22 143.229 843.907 143.455C843.597 143.681 843.353 143.974 843.174 144.335C842.998 144.692 842.911 145.102 842.911 145.564ZM854.418 148.876C853.571 149.027 852.842 148.973 852.231 148.714C851.623 148.451 851.153 148.014 850.821 147.402C850.493 146.786 850.329 146.026 850.329 145.12C850.329 144.226 850.493 143.409 850.821 142.669C851.153 141.928 851.615 141.314 852.208 140.826C852.805 140.337 853.502 140.022 854.3 139.88C854.785 139.794 855.255 139.792 855.71 139.874C856.165 139.956 856.574 140.139 856.935 140.423C857.297 140.707 857.582 141.109 857.791 141.629C858 142.145 858.104 142.799 858.104 143.59V144.192L851.274 145.407V144.134L856.465 143.211C856.465 142.764 856.376 142.384 856.197 142.071C856.018 141.755 855.766 141.525 855.442 141.382C855.121 141.238 854.744 141.205 854.312 141.282C853.842 141.365 853.432 141.555 853.081 141.853C852.734 142.145 852.466 142.496 852.275 142.905C852.089 143.309 851.996 143.729 851.996 144.165V145.159C851.996 145.742 852.096 146.221 852.298 146.594C852.503 146.967 852.788 147.228 853.154 147.379C853.519 147.527 853.946 147.557 854.435 147.47C854.752 147.414 855.041 147.317 855.302 147.179C855.563 147.038 855.788 146.858 855.979 146.639C856.169 146.419 856.314 146.164 856.415 145.873L857.998 145.882C857.871 146.378 857.644 146.833 857.316 147.247C856.991 147.657 856.583 148.005 856.091 148.289C855.602 148.569 855.044 148.765 854.418 148.876ZM859.96 147.715V138.988L861.577 138.7V140.086L861.666 140.071C861.823 139.573 862.099 139.155 862.494 138.815C862.893 138.472 863.345 138.255 863.848 138.166C863.953 138.147 864.076 138.129 864.217 138.111C864.363 138.093 864.477 138.082 864.559 138.079V139.704C864.492 139.697 864.372 139.698 864.201 139.705C864.029 139.709 863.858 139.727 863.686 139.757C863.291 139.827 862.938 139.975 862.629 140.201C862.323 140.422 862.08 140.698 861.901 141.029C861.722 141.356 861.633 141.709 861.633 142.088V147.417L859.96 147.715ZM869.402 146.212C868.555 146.363 867.826 146.309 867.214 146.05C866.607 145.787 866.137 145.35 865.805 144.738C865.477 144.122 865.312 143.362 865.312 142.457C865.312 141.563 865.477 140.746 865.805 140.005C866.137 139.265 866.599 138.65 867.192 138.162C867.789 137.673 868.486 137.358 869.284 137.216C869.769 137.13 870.239 137.128 870.694 137.21C871.149 137.292 871.557 137.475 871.919 137.759C872.281 138.043 872.566 138.445 872.775 138.965C872.984 139.481 873.088 140.135 873.088 140.926V141.529L866.258 142.743V141.47L871.449 140.547C871.449 140.1 871.36 139.72 871.181 139.408C871.002 139.091 870.75 138.861 870.425 138.718C870.105 138.574 869.728 138.541 869.295 138.618C868.826 138.701 868.415 138.892 868.065 139.189C867.718 139.482 867.449 139.832 867.259 140.241C867.073 140.645 866.979 141.065 866.979 141.501V142.495C866.979 143.079 867.08 143.557 867.282 143.93C867.487 144.303 867.772 144.565 868.137 144.716C868.503 144.863 868.93 144.893 869.419 144.806C869.736 144.75 870.025 144.653 870.286 144.516C870.547 144.374 870.772 144.194 870.962 143.975C871.153 143.755 871.298 143.5 871.399 143.21L872.982 143.218C872.855 143.714 872.628 144.169 872.299 144.584C871.975 144.994 871.567 145.341 871.074 145.625C870.586 145.905 870.028 146.101 869.402 146.212ZM880.387 140.464L880.387 135.356L882.065 135.058V143.785L880.421 144.077V142.566L880.331 142.582C880.134 143.083 879.817 143.528 879.38 143.916C878.948 144.3 878.409 144.549 877.764 144.663C877.212 144.762 876.723 144.725 876.298 144.555C875.876 144.38 875.545 144.069 875.302 143.624C875.063 143.178 874.944 142.595 874.944 141.875V136.324L876.617 136.026V141.373C876.617 141.968 876.779 142.412 877.103 142.707C877.428 143.002 877.849 143.103 878.368 143.011C878.681 142.955 878.992 142.82 879.302 142.606C879.615 142.391 879.874 142.104 880.079 141.746C880.288 141.387 880.391 140.96 880.387 140.464ZM884.313 143.385V134.658L885.918 134.373V135.793L886.025 135.774C886.204 135.261 886.496 134.834 886.903 134.493C887.309 134.148 887.796 133.925 888.363 133.825C888.937 133.722 889.418 133.773 889.806 133.977C890.198 134.18 890.487 134.504 890.673 134.948L890.763 134.932C890.968 134.43 891.294 134 891.742 133.644C892.189 133.284 892.723 133.049 893.342 132.939C894.121 132.801 894.757 132.936 895.249 133.345C895.745 133.753 895.993 134.457 895.993 135.457V141.309L894.321 141.606V135.913C894.321 135.322 894.162 134.922 893.845 134.714C893.528 134.505 893.15 134.439 892.71 134.518C892.165 134.615 891.742 134.86 891.44 135.255C891.138 135.646 890.987 136.106 890.987 136.637V142.199L889.32 142.495V136.694C889.32 136.221 889.174 135.866 888.883 135.63C888.592 135.394 888.214 135.317 887.748 135.4C887.431 135.456 887.138 135.593 886.869 135.812C886.605 136.025 886.39 136.296 886.226 136.625C886.066 136.953 885.985 137.313 885.985 137.707V143.088L884.313 143.385Z" fill="white"/>
<g opacity="0.32" filter="url(#filter27_f_30850_9715)">
<rect width="90" height="90" rx="45" transform="matrix(0.984563 -0.175033 0 1 760.58 26.3825)" fill="#2BCFA1" fill-opacity="0.5"/>
</g>
</g>
<path d="M805.377 79.4185C805.377 70.8581 812.21 62.7038 820.638 61.2055L966.353 35.3005C974.781 33.8022 981.614 39.5271 981.614 48.0875V211.588L805.377 242.918V79.4185Z" stroke="url(#paint13_radial_30850_9715)"/>
</g>
<rect width="912" height="220" fill="url(#paint14_linear_30850_9715)"/>
</g>
<rect x="0.5" y="0.5" width="911" height="219" rx="7.5" stroke="#222222"/>
<defs>
<filter id="filter0_f_30850_9715" x="-314.41" y="-189.371" width="488.611" height="505.753" filterUnits="userSpaceOnUse" color-interpolation-filters="sRGB">
<feFlood flood-opacity="0" result="BackgroundImageFix"/>
<feBlend mode="normal" in="SourceGraphic" in2="BackgroundImageFix" result="shape"/>
<feGaussianBlur stdDeviation="100" result="effect1_foregroundBlur_30850_9715"/>
</filter>
<filter id="filter1_d_30850_9715" x="-48.8848" y="-36" width="297.221" height="331.506" filterUnits="userSpaceOnUse" color-interpolation-filters="sRGB">
<feFlood flood-opacity="0" result="BackgroundImageFix"/>
<feColorMatrix in="SourceAlpha" type="matrix" values="0 0 0 0 0 0 0 0 0 0 0 0 0 0 0 0 0 0 127 0" result="hardAlpha"/>
<feOffset dx="-16" dy="-8"/>
<feGaussianBlur stdDeviation="30"/>
<feComposite in2="hardAlpha" operator="out"/>
<feColorMatrix type="matrix" values="0 0 0 0 0 0 0 0 0 0 0 0 0 0 0 0 0 0 0.25 0"/>
<feBlend mode="normal" in2="BackgroundImageFix" result="effect1_dropShadow_30850_9715"/>
<feBlend mode="normal" in="SourceGraphic" in2="effect1_dropShadow_30850_9715" result="shape"/>
</filter>
<filter id="filter2_b_30850_9715" x="26.8066" y="53.004" width="79.3828" height="87.0013" filterUnits="userSpaceOnUse" color-interpolation-filters="sRGB">
<feFlood flood-opacity="0" result="BackgroundImageFix"/>
<feGaussianBlur in="BackgroundImageFix" stdDeviation="10"/>
<feComposite in2="SourceAlpha" operator="in" result="effect1_backgroundBlur_30850_9715"/>
<feBlend mode="normal" in="SourceGraphic" in2="effect1_backgroundBlur_30850_9715" result="shape"/>
</filter>
<filter id="filter3_f_30850_9715" x="-217.189" y="-189.371" width="488.611" height="505.753" filterUnits="userSpaceOnUse" color-interpolation-filters="sRGB">
<feFlood flood-opacity="0" result="BackgroundImageFix"/>
<feBlend mode="normal" in="SourceGraphic" in2="BackgroundImageFix" result="shape"/>
<feGaussianBlur stdDeviation="100" result="effect1_foregroundBlur_30850_9715"/>
</filter>
<filter id="filter4_d_30850_9715" x="48.3359" y="-36" width="297.221" height="331.506" filterUnits="userSpaceOnUse" color-interpolation-filters="sRGB">
<feFlood flood-opacity="0" result="BackgroundImageFix"/>
<feColorMatrix in="SourceAlpha" type="matrix" values="0 0 0 0 0 0 0 0 0 0 0 0 0 0 0 0 0 0 127 0" result="hardAlpha"/>
<feOffset dx="-16" dy="-8"/>
<feGaussianBlur stdDeviation="30"/>
<feComposite in2="hardAlpha" operator="out"/>
<feColorMatrix type="matrix" values="0 0 0 0 0 0 0 0 0 0 0 0 0 0 0 0 0 0 0.25 0"/>
<feBlend mode="normal" in2="BackgroundImageFix" result="effect1_dropShadow_30850_9715"/>
<feBlend mode="normal" in="SourceGraphic" in2="effect1_dropShadow_30850_9715" result="shape"/>
</filter>
<filter id="filter5_b_30850_9715" x="124.027" y="53.004" width="79.3828" height="87.0013" filterUnits="userSpaceOnUse" color-interpolation-filters="sRGB">
<feFlood flood-opacity="0" result="BackgroundImageFix"/>
<feGaussianBlur in="BackgroundImageFix" stdDeviation="10"/>
<feComposite in2="SourceAlpha" operator="in" result="effect1_backgroundBlur_30850_9715"/>
<feBlend mode="normal" in="SourceGraphic" in2="effect1_backgroundBlur_30850_9715" result="shape"/>
</filter>
<filter id="filter6_f_30850_9715" x="-119.969" y="-189.371" width="488.611" height="505.753" filterUnits="userSpaceOnUse" color-interpolation-filters="sRGB">
<feFlood flood-opacity="0" result="BackgroundImageFix"/>
<feBlend mode="normal" in="SourceGraphic" in2="BackgroundImageFix" result="shape"/>
<feGaussianBlur stdDeviation="100" result="effect1_foregroundBlur_30850_9715"/>
</filter>
<filter id="filter7_d_30850_9715" x="145.557" y="-36" width="297.221" height="331.506" filterUnits="userSpaceOnUse" color-interpolation-filters="sRGB">
<feFlood flood-opacity="0" result="BackgroundImageFix"/>
<feColorMatrix in="SourceAlpha" type="matrix" values="0 0 0 0 0 0 0 0 0 0 0 0 0 0 0 0 0 0 127 0" result="hardAlpha"/>
<feOffset dx="-16" dy="-8"/>
<feGaussianBlur stdDeviation="30"/>
<feComposite in2="hardAlpha" operator="out"/>
<feColorMatrix type="matrix" values="0 0 0 0 0 0 0 0 0 0 0 0 0 0 0 0 0 0 0.25 0"/>
<feBlend mode="normal" in2="BackgroundImageFix" result="effect1_dropShadow_30850_9715"/>
<feBlend mode="normal" in="SourceGraphic" in2="effect1_dropShadow_30850_9715" result="shape"/>
</filter>
<filter id="filter8_b_30850_9715" x="221.248" y="53.004" width="79.3828" height="87.0013" filterUnits="userSpaceOnUse" color-interpolation-filters="sRGB">
<feFlood flood-opacity="0" result="BackgroundImageFix"/>
<feGaussianBlur in="BackgroundImageFix" stdDeviation="10"/>
<feComposite in2="SourceAlpha" operator="in" result="effect1_backgroundBlur_30850_9715"/>
<feBlend mode="normal" in="SourceGraphic" in2="effect1_backgroundBlur_30850_9715" result="shape"/>
</filter>
<filter id="filter9_f_30850_9715" x="-22.748" y="-189.371" width="488.611" height="505.753" filterUnits="userSpaceOnUse" color-interpolation-filters="sRGB">
<feFlood flood-opacity="0" result="BackgroundImageFix"/>
<feBlend mode="normal" in="SourceGraphic" in2="BackgroundImageFix" result="shape"/>
<feGaussianBlur stdDeviation="100" result="effect1_foregroundBlur_30850_9715"/>
</filter>
<filter id="filter10_d_30850_9715" x="242.779" y="-36" width="297.221" height="331.506" filterUnits="userSpaceOnUse" color-interpolation-filters="sRGB">
<feFlood flood-opacity="0" result="BackgroundImageFix"/>
<feColorMatrix in="SourceAlpha" type="matrix" values="0 0 0 0 0 0 0 0 0 0 0 0 0 0 0 0 0 0 127 0" result="hardAlpha"/>
<feOffset dx="-16" dy="-8"/>
<feGaussianBlur stdDeviation="30"/>
<feComposite in2="hardAlpha" operator="out"/>
<feColorMatrix type="matrix" values="0 0 0 0 0 0 0 0 0 0 0 0 0 0 0 0 0 0 0.25 0"/>
<feBlend mode="normal" in2="BackgroundImageFix" result="effect1_dropShadow_30850_9715"/>
<feBlend mode="normal" in="SourceGraphic" in2="effect1_dropShadow_30850_9715" result="shape"/>
</filter>
<filter id="filter11_b_30850_9715" x="318.471" y="53.004" width="79.3828" height="87.0013" filterUnits="userSpaceOnUse" color-interpolation-filters="sRGB">
<feFlood flood-opacity="0" result="BackgroundImageFix"/>
<feGaussianBlur in="BackgroundImageFix" stdDeviation="10"/>
<feComposite in2="SourceAlpha" operator="in" result="effect1_backgroundBlur_30850_9715"/>
<feBlend mode="normal" in="SourceGraphic" in2="effect1_backgroundBlur_30850_9715" result="shape"/>
</filter>
<filter id="filter12_f_30850_9715" x="74.4746" y="-189.371" width="488.611" height="505.753" filterUnits="userSpaceOnUse" color-interpolation-filters="sRGB">
<feFlood flood-opacity="0" result="BackgroundImageFix"/>
<feBlend mode="normal" in="SourceGraphic" in2="BackgroundImageFix" result="shape"/>
<feGaussianBlur stdDeviation="100" result="effect1_foregroundBlur_30850_9715"/>
</filter>
<filter id="filter13_d_30850_9715" x="340" y="-36" width="297.221" height="331.506" filterUnits="userSpaceOnUse" color-interpolation-filters="sRGB">
<feFlood flood-opacity="0" result="BackgroundImageFix"/>
<feColorMatrix in="SourceAlpha" type="matrix" values="0 0 0 0 0 0 0 0 0 0 0 0 0 0 0 0 0 0 127 0" result="hardAlpha"/>
<feOffset dx="-16" dy="-8"/>
<feGaussianBlur stdDeviation="30"/>
<feComposite in2="hardAlpha" operator="out"/>
<feColorMatrix type="matrix" values="0 0 0 0 0 0 0 0 0 0 0 0 0 0 0 0 0 0 0.25 0"/>
<feBlend mode="normal" in2="BackgroundImageFix" result="effect1_dropShadow_30850_9715"/>
<feBlend mode="normal" in="SourceGraphic" in2="effect1_dropShadow_30850_9715" result="shape"/>
</filter>
<filter id="filter14_b_30850_9715" x="415.691" y="53.004" width="79.3828" height="87.0013" filterUnits="userSpaceOnUse" color-interpolation-filters="sRGB">
<feFlood flood-opacity="0" result="BackgroundImageFix"/>
<feGaussianBlur in="BackgroundImageFix" stdDeviation="10"/>
<feComposite in2="SourceAlpha" operator="in" result="effect1_backgroundBlur_30850_9715"/>
<feBlend mode="normal" in="SourceGraphic" in2="effect1_backgroundBlur_30850_9715" result="shape"/>
</filter>
<filter id="filter15_f_30850_9715" x="171.695" y="-189.371" width="488.611" height="505.753" filterUnits="userSpaceOnUse" color-interpolation-filters="sRGB">
<feFlood flood-opacity="0" result="BackgroundImageFix"/>
<feBlend mode="normal" in="SourceGraphic" in2="BackgroundImageFix" result="shape"/>
<feGaussianBlur stdDeviation="100" result="effect1_foregroundBlur_30850_9715"/>
</filter>
<filter id="filter16_d_30850_9715" x="437.221" y="-36" width="297.221" height="331.506" filterUnits="userSpaceOnUse" color-interpolation-filters="sRGB">
<feFlood flood-opacity="0" result="BackgroundImageFix"/>
<feColorMatrix in="SourceAlpha" type="matrix" values="0 0 0 0 0 0 0 0 0 0 0 0 0 0 0 0 0 0 127 0" result="hardAlpha"/>
<feOffset dx="-16" dy="-8"/>
<feGaussianBlur stdDeviation="30"/>
<feComposite in2="hardAlpha" operator="out"/>
<feColorMatrix type="matrix" values="0 0 0 0 0 0 0 0 0 0 0 0 0 0 0 0 0 0 0.25 0"/>
<feBlend mode="normal" in2="BackgroundImageFix" result="effect1_dropShadow_30850_9715"/>
<feBlend mode="normal" in="SourceGraphic" in2="effect1_dropShadow_30850_9715" result="shape"/>
</filter>
<filter id="filter17_b_30850_9715" x="512.912" y="53.004" width="79.3828" height="87.0013" filterUnits="userSpaceOnUse" color-interpolation-filters="sRGB">
<feFlood flood-opacity="0" result="BackgroundImageFix"/>
<feGaussianBlur in="BackgroundImageFix" stdDeviation="10"/>
<feComposite in2="SourceAlpha" operator="in" result="effect1_backgroundBlur_30850_9715"/>
<feBlend mode="normal" in="SourceGraphic" in2="effect1_backgroundBlur_30850_9715" result="shape"/>
</filter>
<filter id="filter18_f_30850_9715" x="268.916" y="-189.371" width="488.611" height="505.753" filterUnits="userSpaceOnUse" color-interpolation-filters="sRGB">
<feFlood flood-opacity="0" result="BackgroundImageFix"/>
<feBlend mode="normal" in="SourceGraphic" in2="BackgroundImageFix" result="shape"/>
<feGaussianBlur stdDeviation="100" result="effect1_foregroundBlur_30850_9715"/>
</filter>
<filter id="filter19_d_30850_9715" x="534.443" y="-36" width="297.221" height="331.506" filterUnits="userSpaceOnUse" color-interpolation-filters="sRGB">
<feFlood flood-opacity="0" result="BackgroundImageFix"/>
<feColorMatrix in="SourceAlpha" type="matrix" values="0 0 0 0 0 0 0 0 0 0 0 0 0 0 0 0 0 0 127 0" result="hardAlpha"/>
<feOffset dx="-16" dy="-8"/>
<feGaussianBlur stdDeviation="30"/>
<feComposite in2="hardAlpha" operator="out"/>
<feColorMatrix type="matrix" values="0 0 0 0 0 0 0 0 0 0 0 0 0 0 0 0 0 0 0.25 0"/>
<feBlend mode="normal" in2="BackgroundImageFix" result="effect1_dropShadow_30850_9715"/>
<feBlend mode="normal" in="SourceGraphic" in2="effect1_dropShadow_30850_9715" result="shape"/>
</filter>
<filter id="filter20_b_30850_9715" x="610.135" y="53.004" width="79.3828" height="87.0013" filterUnits="userSpaceOnUse" color-interpolation-filters="sRGB">
<feFlood flood-opacity="0" result="BackgroundImageFix"/>
<feGaussianBlur in="BackgroundImageFix" stdDeviation="10"/>
<feComposite in2="SourceAlpha" operator="in" result="effect1_backgroundBlur_30850_9715"/>
<feBlend mode="normal" in="SourceGraphic" in2="effect1_backgroundBlur_30850_9715" result="shape"/>
</filter>
<filter id="filter21_f_30850_9715" x="366.139" y="-189.371" width="488.611" height="505.753" filterUnits="userSpaceOnUse" color-interpolation-filters="sRGB">
<feFlood flood-opacity="0" result="BackgroundImageFix"/>
<feBlend mode="normal" in="SourceGraphic" in2="BackgroundImageFix" result="shape"/>
<feGaussianBlur stdDeviation="100" result="effect1_foregroundBlur_30850_9715"/>
</filter>
<filter id="filter22_d_30850_9715" x="631.664" y="-36" width="297.221" height="331.506" filterUnits="userSpaceOnUse" color-interpolation-filters="sRGB">
<feFlood flood-opacity="0" result="BackgroundImageFix"/>
<feColorMatrix in="SourceAlpha" type="matrix" values="0 0 0 0 0 0 0 0 0 0 0 0 0 0 0 0 0 0 127 0" result="hardAlpha"/>
<feOffset dx="-16" dy="-8"/>
<feGaussianBlur stdDeviation="30"/>
<feComposite in2="hardAlpha" operator="out"/>
<feColorMatrix type="matrix" values="0 0 0 0 0 0 0 0 0 0 0 0 0 0 0 0 0 0 0.25 0"/>
<feBlend mode="normal" in2="BackgroundImageFix" result="effect1_dropShadow_30850_9715"/>
<feBlend mode="normal" in="SourceGraphic" in2="effect1_dropShadow_30850_9715" result="shape"/>
</filter>
<filter id="filter23_b_30850_9715" x="707.355" y="53.004" width="79.3828" height="87.0013" filterUnits="userSpaceOnUse" color-interpolation-filters="sRGB">
<feFlood flood-opacity="0" result="BackgroundImageFix"/>
<feGaussianBlur in="BackgroundImageFix" stdDeviation="10"/>
<feComposite in2="SourceAlpha" operator="in" result="effect1_backgroundBlur_30850_9715"/>
<feBlend mode="normal" in="SourceGraphic" in2="effect1_backgroundBlur_30850_9715" result="shape"/>
</filter>
<filter id="filter24_f_30850_9715" x="463.359" y="-189.371" width="488.611" height="505.753" filterUnits="userSpaceOnUse" color-interpolation-filters="sRGB">
<feFlood flood-opacity="0" result="BackgroundImageFix"/>
<feBlend mode="normal" in="SourceGraphic" in2="BackgroundImageFix" result="shape"/>
<feGaussianBlur stdDeviation="100" result="effect1_foregroundBlur_30850_9715"/>
</filter>
<filter id="filter25_d_30850_9715" x="728.885" y="-36" width="297.221" height="331.506" filterUnits="userSpaceOnUse" color-interpolation-filters="sRGB">
<feFlood flood-opacity="0" result="BackgroundImageFix"/>
<feColorMatrix in="SourceAlpha" type="matrix" values="0 0 0 0 0 0 0 0 0 0 0 0 0 0 0 0 0 0 127 0" result="hardAlpha"/>
<feOffset dx="-16" dy="-8"/>
<feGaussianBlur stdDeviation="30"/>
<feComposite in2="hardAlpha" operator="out"/>
<feColorMatrix type="matrix" values="0 0 0 0 0 0 0 0 0 0 0 0 0 0 0 0 0 0 0.25 0"/>
<feBlend mode="normal" in2="BackgroundImageFix" result="effect1_dropShadow_30850_9715"/>
<feBlend mode="normal" in="SourceGraphic" in2="effect1_dropShadow_30850_9715" result="shape"/>
</filter>
<filter id="filter26_b_30850_9715" x="804.576" y="53.004" width="79.3828" height="87.0013" filterUnits="userSpaceOnUse" color-interpolation-filters="sRGB">
<feFlood flood-opacity="0" result="BackgroundImageFix"/>
<feGaussianBlur in="BackgroundImageFix" stdDeviation="10"/>
<feComposite in2="SourceAlpha" operator="in" result="effect1_backgroundBlur_30850_9715"/>
<feBlend mode="normal" in="SourceGraphic" in2="effect1_backgroundBlur_30850_9715" result="shape"/>
</filter>
<filter id="filter27_f_30850_9715" x="560.58" y="-189.371" width="488.611" height="505.753" filterUnits="userSpaceOnUse" color-interpolation-filters="sRGB">
<feFlood flood-opacity="0" result="BackgroundImageFix"/>
<feBlend mode="normal" in="SourceGraphic" in2="BackgroundImageFix" result="shape"/>
<feGaussianBlur stdDeviation="100" result="effect1_foregroundBlur_30850_9715"/>
</filter>
<radialGradient id="paint0_radial_30850_9715" cx="0" cy="0" r="1" gradientUnits="userSpaceOnUse" gradientTransform="translate(-70.1055 63.506) rotate(39.9597) scale(115.605 137.969)">
<stop stop-color="white" stop-opacity="0.16"/>
<stop offset="1" stop-color="white" stop-opacity="0.08"/>
</radialGradient>
<radialGradient id="paint1_radial_30850_9715" cx="0" cy="0" r="1" gradientUnits="userSpaceOnUse" gradientTransform="translate(27.1152 63.506) rotate(39.9597) scale(115.605 137.969)">
<stop stop-color="white" stop-opacity="0.16"/>
<stop offset="1" stop-color="white" stop-opacity="0.08"/>
</radialGradient>
<radialGradient id="paint2_radial_30850_9715" cx="0" cy="0" r="1" gradientUnits="userSpaceOnUse" gradientTransform="translate(124.336 63.506) rotate(39.9597) scale(115.605 137.969)">
<stop stop-color="white" stop-opacity="0.16"/>
<stop offset="1" stop-color="white" stop-opacity="0.08"/>
</radialGradient>
<radialGradient id="paint3_radial_30850_9715" cx="0" cy="0" r="1" gradientUnits="userSpaceOnUse" gradientTransform="translate(221.557 63.506) rotate(39.9597) scale(115.605 137.969)">
<stop stop-color="white" stop-opacity="0.16"/>
<stop offset="1" stop-color="white" stop-opacity="0.08"/>
</radialGradient>
<radialGradient id="paint4_radial_30850_9715" cx="0" cy="0" r="1" gradientUnits="userSpaceOnUse" gradientTransform="translate(318.779 63.506) rotate(39.9597) scale(115.605 137.969)">
<stop stop-color="white" stop-opacity="0.16"/>
<stop offset="1" stop-color="white" stop-opacity="0.08"/>
</radialGradient>
<linearGradient id="paint5_linear_30850_9715" x1="463.402" y1="85.4304" x2="455.09" y2="109.265" gradientUnits="userSpaceOnUse">
<stop stop-color="#00FFA3"/>
<stop offset="1" stop-color="#DC1FFF"/>
</linearGradient>
<linearGradient id="paint6_linear_30850_9715" x1="458.647" y1="83.7722" x2="450.335" y2="107.607" gradientUnits="userSpaceOnUse">
<stop stop-color="#00FFA3"/>
<stop offset="1" stop-color="#DC1FFF"/>
</linearGradient>
<linearGradient id="paint7_linear_30850_9715" x1="461.009" y1="84.5961" x2="452.698" y2="108.43" gradientUnits="userSpaceOnUse">
<stop stop-color="#00FFA3"/>
<stop offset="1" stop-color="#DC1FFF"/>
</linearGradient>
<radialGradient id="paint8_radial_30850_9715" cx="0" cy="0" r="1" gradientUnits="userSpaceOnUse" gradientTransform="translate(416 63.506) rotate(39.9597) scale(115.605 137.969)">
<stop stop-color="white" stop-opacity="0.16"/>
<stop offset="1" stop-color="white" stop-opacity="0.08"/>
</radialGradient>
<radialGradient id="paint9_radial_30850_9715" cx="0" cy="0" r="1" gradientUnits="userSpaceOnUse" gradientTransform="translate(513.221 63.506) rotate(39.9597) scale(115.605 137.969)">
<stop stop-color="white" stop-opacity="0.16"/>
<stop offset="1" stop-color="white" stop-opacity="0.08"/>
</radialGradient>
<linearGradient id="paint10_linear_30850_9715" x1="639.916" y1="104.532" x2="660.657" y2="92.3249" gradientUnits="userSpaceOnUse">
<stop stop-color="#A726C1"/>
<stop offset="0.88" stop-color="#803BDF"/>
<stop offset="1" stop-color="#7B3FE4"/>
</linearGradient>
<radialGradient id="paint11_radial_30850_9715" cx="0" cy="0" r="1" gradientUnits="userSpaceOnUse" gradientTransform="translate(610.443 63.506) rotate(39.9597) scale(115.605 137.969)">
<stop stop-color="white" stop-opacity="0.16"/>
<stop offset="1" stop-color="white" stop-opacity="0.08"/>
</radialGradient>
<radialGradient id="paint12_radial_30850_9715" cx="0" cy="0" r="1" gradientUnits="userSpaceOnUse" gradientTransform="translate(707.664 63.506) rotate(39.9597) scale(115.605 137.969)">
<stop stop-color="white" stop-opacity="0.16"/>
<stop offset="1" stop-color="white" stop-opacity="0.08"/>
</radialGradient>
<radialGradient id="paint13_radial_30850_9715" cx="0" cy="0" r="1" gradientUnits="userSpaceOnUse" gradientTransform="translate(804.885 63.506) rotate(39.9597) scale(115.605 137.969)">
<stop stop-color="white" stop-opacity="0.16"/>
<stop offset="1" stop-color="white" stop-opacity="0.08"/>
</radialGradient>
<linearGradient id="paint14_linear_30850_9715" x1="456" y1="0" x2="456" y2="220" gradientUnits="userSpaceOnUse">
<stop offset="0.56" stop-color="#141414" stop-opacity="0"/>
<stop offset="1" stop-color="#141414"/>
</linearGradient>
<clipPath id="clip0_30850_9715">
<rect width="912" height="220" rx="8" fill="white"/>
</clipPath>
<clipPath id="clip1_30850_9715">
<path d="M-70.1055 79.506C-70.1055 70.6694 -63.0526 62.2522 -54.3525 60.7055L91.3628 34.8005C100.063 33.2538 107.116 39.1634 107.116 48V212L-70.1055 243.506V79.506Z" fill="white"/>
</clipPath>
<clipPath id="clip2_30850_9715">
<path d="M27.1152 79.506C27.1152 70.6694 34.1681 62.2522 42.8682 60.7055L188.583 34.8005C197.284 33.2538 204.336 39.1634 204.336 48V212L27.1152 243.506V79.506Z" fill="white"/>
</clipPath>
<clipPath id="clip3_30850_9715">
<path d="M124.336 79.506C124.336 70.6694 131.389 62.2522 140.089 60.7055L285.804 34.8005C294.504 33.2538 301.557 39.1634 301.557 48V212L124.336 243.506V79.506Z" fill="white"/>
</clipPath>
<clipPath id="clip4_30850_9715">
<path d="M221.557 79.506C221.557 70.6694 228.61 62.2522 237.31 60.7055L383.025 34.8005C391.725 33.2538 398.778 39.1634 398.778 48V212L221.557 243.506V79.506Z" fill="white"/>
</clipPath>
<clipPath id="clip5_30850_9715">
<path d="M318.779 79.506C318.779 70.6694 325.832 62.2522 334.532 60.7055L480.248 34.8005C488.948 33.2538 496.001 39.1634 496.001 48V212L318.779 243.506V79.506Z" fill="white"/>
</clipPath>
<clipPath id="clip6_30850_9715">
<path d="M416 79.506C416 70.6694 423.053 62.2522 431.753 60.7055L577.468 34.8005C586.168 33.2538 593.221 39.1634 593.221 48V212L416 243.506V79.506Z" fill="white"/>
</clipPath>
<clipPath id="clip7_30850_9715">
<path d="M513.221 79.506C513.221 70.6694 520.274 62.2522 528.974 60.7055L674.689 34.8005C683.389 33.2538 690.442 39.1634 690.442 48V212L513.221 243.506V79.506Z" fill="white"/>
</clipPath>
<clipPath id="clip8_30850_9715">
<path d="M610.443 79.506C610.443 70.6694 617.496 62.2522 626.196 60.7055L771.912 34.8005C780.612 33.2538 787.665 39.1634 787.665 48V212L610.443 243.506V79.506Z" fill="white"/>
</clipPath>
<clipPath id="clip9_30850_9715">
<path d="M707.664 79.506C707.664 70.6694 714.717 62.2522 723.417 60.7055L869.132 34.8005C877.832 33.2538 884.885 39.1634 884.885 48V212L707.664 243.506V79.506Z" fill="white"/>
</clipPath>
<clipPath id="clip10_30850_9715">
<path d="M804.885 79.506C804.885 70.6694 811.938 62.2522 820.638 60.7055L966.353 34.8005C975.053 33.2538 982.106 39.1634 982.106 48V212L804.885 243.506V79.506Z" fill="white"/>
</clipPath>
</defs>
</svg>
