<svg width="28" height="28" viewBox="0 0 28 28" fill="none" xmlns="http://www.w3.org/2000/svg">
<path d="M22.4373 1.42916L16.5949 10.1092C16.1909 10.7003 16.9678 11.4158 17.5272 10.918L23.2764 5.90916C23.4317 5.78471 23.6493 5.87805 23.6493 6.09582V21.7447C23.6493 21.9625 23.3696 22.0558 23.2453 21.9003L5.8424 1.05583C5.28302 0.371381 4.47503 -0.00195312 3.57381 -0.00195312H2.95228C1.33629 -0.00195312 0 1.33582 0 2.98471V25.0114C0 26.6603 1.33629 27.998 2.98335 27.998C4.00888 27.998 4.97225 27.4692 5.53163 26.5669L11.374 17.8869C11.778 17.2958 11.0011 16.5803 10.4417 17.078L4.69256 22.0558C4.53718 22.1803 4.31964 22.0869 4.31964 21.8692V6.25138C4.31964 6.0336 4.59933 5.94027 4.72364 6.09582L22.1265 26.9403C22.6859 27.6247 23.525 27.998 24.3951 27.998H25.0166C26.6637 27.998 28 26.6603 28 25.0114V2.98471C27.9689 1.33582 26.6326 -0.00195312 24.9856 -0.00195312C23.96 -0.00195312 22.9967 0.526935 22.4373 1.42916Z" fill="#08ED9A"/>
</svg>
