<svg width="20" height="20" viewBox="0 0 20 20" fill="none" xmlns="http://www.w3.org/2000/svg">
<path d="M6.11711 8.40419L10.0009 4.52031L13.8868 8.40624L16.1467 6.14624L10.0009 0L3.85722 6.14419L6.11711 8.40419Z" fill="#F3BA2F"/>
<path d="M4.51981 9.99959L2.25996 7.73963L0 9.9997L2.25985 12.2597L4.51981 9.99959Z" fill="#F3BA2F"/>
<path d="M6.11475 11.5958L9.99859 15.4797L13.8843 11.5939L16.1455 13.8527L16.1444 13.8539L9.99859 20L3.85154 13.8528L6.11475 11.5958Z" fill="#F3BA2F"/>
<path d="M17.74 12.2608L20 10.0007L17.7402 7.74076L15.4802 10.0008L17.74 12.2608Z" fill="#F3BA2F"/>
<path d="M12.2937 9.99878H12.2946L10.0014 7.70545L7.70709 9.99988L7.71025 10.0032L10.0014 12.2945L12.2946 10.0011L12.2957 9.99988L12.2937 9.99878Z" fill="#F3BA2F"/>
</svg>
