<svg width="20" height="20" viewBox="0 0 20 20" fill="none" xmlns="http://www.w3.org/2000/svg">
<path d="M0.299014 7.58197C1.63418 2.22434 7.06125 -1.03583 12.4182 0.299748C17.7762 1.63534 21.037 7.06168 19.7014 12.4189C18.3656 17.7758 12.9387 21.0359 7.58026 19.7001C2.224 18.3646 -1.03737 12.9387 0.299014 7.58197ZM9.04413 5.37299C8.78064 5.31863 8.52177 5.2645 8.27069 5.20795L8.27265 5.20307L6.60175 4.82514L6.27948 5.99701C6.27948 5.99701 7.17834 6.18369 7.15937 6.19526C7.64987 6.3062 7.73865 6.59984 7.72382 6.83295L7.15839 8.88666C7.19214 8.89446 7.23616 8.90534 7.28437 8.92279C7.24408 8.91375 7.20084 8.90414 7.15644 8.89447L6.36444 11.7705C6.30443 11.9054 6.15248 12.1079 5.80976 12.0312C5.81674 12.0458 4.9289 11.832 4.9289 11.832L4.32733 13.0878L5.90448 13.4443C6.19753 13.5108 6.48505 13.5799 6.76776 13.6455L6.26581 15.4687L7.47577 15.7421L7.97284 13.9384C8.30317 14.0196 8.6239 14.0944 8.93769 14.165L8.44355 15.9609L9.65448 16.2343L10.1555 14.415C12.2209 14.769 13.7742 14.6257 14.4279 12.9335C14.9546 11.5712 14.4013 10.7849 13.3146 10.2724C14.106 10.1071 14.7024 9.63599 14.8615 8.66205C15.0813 7.33153 13.963 6.61579 12.4338 6.13861L12.9299 4.33686L11.718 4.06342L11.2355 5.8183C10.9171 5.74643 10.5898 5.67846 10.2648 5.61127L10.7512 3.84467L9.5412 3.57123L9.04413 5.37299ZM9.03144 10.2031C9.8526 10.3887 12.4846 10.7562 12.0939 12.1767C11.7197 13.539 9.18766 12.8029 8.3664 12.6181L9.03144 10.2031ZM9.93866 6.90717C10.6226 7.06155 12.8246 7.34983 12.4689 8.64252C12.1272 9.88156 10.0189 9.25196 9.33515 9.0976L9.93866 6.90717Z" fill="#F79413"/>
</svg>
