<svg width="20" height="20" viewBox="0 0 20 20" fill="none" xmlns="http://www.w3.org/2000/svg">
<path d="M0 1.42537V5.03602C0.823774 4.60387 1.64123 4.6565 2.45236 4.5684V1C1.56261 1 0.823774 1.00757 0 1.42537Z" fill="#E36E1B"/>
<path d="M7.18931 1.82511C6.41492 1.54844 5.63463 1.30645 4.84798 1.15137V4.6787C5.63423 4.82063 6.41492 5.04906 7.18931 5.31218V1.82511Z" fill="#E36E1B"/>
<path d="M4.84894 8.20572V4.6784C4.05638 4.53569 3.25788 4.48107 2.45308 4.56877V8.13717C3.25788 8.03591 4.05638 8.07657 4.84894 8.20572Z" fill="#E36E1B"/>
<path d="M0 8.64684V12.2575C0.823774 11.7971 1.64123 11.8218 2.45236 11.7053V8.13697C1.61199 8.20552 0.823774 8.20037 0 8.64684Z" fill="#E36E1B"/>
<path d="M4.84798 8.20533V11.7327C5.63423 11.8475 6.41492 12.0492 7.18931 12.286V8.79891C6.41492 8.54895 5.63463 8.33369 4.84798 8.20533Z" fill="#E36E1B"/>
<path d="M2.45308 11.7047V15.2731C3.25788 15.1439 4.05638 15.1575 4.84894 15.2591V11.7318C4.05638 11.6162 3.25788 11.5895 2.45308 11.7047Z" fill="#E36E1B"/>
<path d="M18.0644 10.1716C18.9767 9.4165 19.4895 8.20301 19.4895 6.95521C19.4895 5.0209 18.2916 4.22877 15.7982 3.98359V2.29766C15.2679 2.27056 14.7345 2.21235 14.1984 2.13023V3.81337C13.6979 3.74081 13.1949 3.64752 12.6891 3.53829V1.842C12.1416 1.71921 11.5912 1.57809 11.0377 1.4258C11.0377 1.99588 11.0377 2.56596 11.0377 3.13604C10.5209 2.99811 10.0013 2.85021 9.47899 2.69832V6.14593C8.72198 5.86805 7.95905 5.57304 7.19063 5.31192V8.79898C7.95905 9.04694 8.72198 9.3288 9.47899 9.59351V13.0411C8.72198 12.7896 7.95905 12.5205 7.19063 12.2857V15.7727C7.95905 15.9944 8.72198 16.2499 9.47899 16.4887C10.0013 16.6048 10.5209 16.7172 11.0377 16.8192C11.0377 17.3893 11.0377 17.9594 11.0377 18.5295C11.5912 18.6343 12.1419 18.728 12.6891 18.8037V17.1074C13.1949 17.1816 13.6979 17.2406 14.1984 17.2785V18.9616C14.7345 18.9979 15.2679 19.0098 15.7982 18.9915V17.3195C18.5631 17.1692 20 15.0017 20 12.8394C20 11.244 19.2636 10.4698 18.0644 10.1708V10.1716ZM12.6939 6.31094C13.1981 6.41264 13.6994 6.49835 14.198 6.5637C14.4209 6.5928 14.6433 6.61795 14.8649 6.63825C14.9076 6.64225 14.9487 6.64665 14.9894 6.6518C14.9997 6.653 15.0096 6.6542 15.0198 6.6554C15.0578 6.6602 15.0949 6.66535 15.1312 6.67095C15.1336 6.67095 15.1364 6.67175 15.1388 6.67215C15.1787 6.6785 15.217 6.6853 15.2549 6.69285C15.2616 6.69405 15.2679 6.69565 15.2746 6.69685C15.3106 6.70405 15.3462 6.712 15.3806 6.7204L15.3845 6.7212C15.4221 6.73035 15.4588 6.7403 15.4943 6.75071C15.4967 6.75151 15.4991 6.75225 15.5015 6.75265C15.6097 6.78496 15.7089 6.82366 15.7982 6.86871C16.2181 7.07917 16.4315 7.43998 16.4315 7.97215C16.4315 8.51437 16.2181 8.90023 15.7982 9.09599C15.7085 9.13744 15.6093 9.17014 15.5011 9.19324C15.4987 9.19364 15.4967 9.19444 15.4943 9.19484C15.4588 9.20244 15.4221 9.20879 15.3845 9.21439L15.3806 9.21479C15.3462 9.21959 15.3106 9.22354 15.2746 9.22674C15.2679 9.22714 15.2616 9.22794 15.2549 9.22834C15.217 9.23114 15.1787 9.23354 15.1388 9.23434C15.1364 9.23434 15.1336 9.23434 15.1312 9.23434C15.0949 9.23514 15.0578 9.23474 15.0202 9.23434C15.01 9.23434 15.0001 9.23394 14.9898 9.23354C14.9491 9.23194 14.9076 9.22994 14.8653 9.22674C14.6437 9.20919 14.4213 9.18729 14.1984 9.16139C13.6994 9.10279 13.1981 9.02344 12.6943 8.92853V6.31174L12.6939 6.31094ZM15.7978 14.5624C15.7654 14.5676 15.7326 14.572 15.699 14.5759C15.6892 14.5771 15.6793 14.5779 15.6694 14.5791C15.6449 14.5815 15.62 14.5839 15.5947 14.5859C15.5828 14.5867 15.5714 14.5875 15.5595 14.5883C15.5343 14.5899 15.5086 14.5907 15.4829 14.5915C15.4718 14.5915 15.4608 14.5923 15.4497 14.5923C15.413 14.5931 15.3758 14.5931 15.3375 14.5923C14.959 14.5847 14.5793 14.5624 14.198 14.5281C13.699 14.4831 13.1976 14.4177 12.6939 14.3364V11.5836C13.1981 11.6717 13.6994 11.7443 14.198 11.7961C14.5793 11.8356 14.959 11.8631 15.3375 11.8762C15.3754 11.8774 15.413 11.8794 15.4497 11.8814C15.4608 11.8822 15.4718 11.883 15.4829 11.8834C15.5086 11.885 15.5343 11.887 15.5595 11.889C15.5714 11.8898 15.5832 11.891 15.5951 11.8922C15.6204 11.8946 15.6453 11.897 15.6698 11.8997C15.6797 11.9009 15.6895 11.9017 15.6994 11.9029C15.733 11.9069 15.7662 11.9113 15.7982 11.9165C16.5607 12.0305 16.9586 12.4093 16.9586 13.1814C16.9586 13.9469 16.5607 14.4344 15.7982 14.5616L15.7978 14.5624Z" fill="#E36E1B"/>
</svg>
