<svg width="20" height="20" viewBox="0 0 20 20" fill="none" xmlns="http://www.w3.org/2000/svg">
<path d="M4.47406 3.06342L10 0L15.5259 3.06342L13.4943 4.19513L10 2.26342L6.50565 4.19513L4.47406 3.06342ZM15.5259 6.92683L13.4943 5.79513L10 7.72683L6.50565 5.79513L4.47406 6.92683V9.19025L7.96839 11.122V14.9854L10 16.1171L12.0316 14.9854V11.122L15.5259 9.19025V6.92683ZM15.5259 13.0537V10.7902L13.4943 11.922V14.1854L15.5259 13.0537ZM16.9684 13.8537L13.4741 15.7854V18.0488L19 14.9854V8.85854L16.9684 9.99025V13.8537ZM14.9368 4.99512L16.9684 6.12683V8.39025L19 7.25854V4.99512L16.9684 3.86342L14.9368 4.99512ZM7.96839 16.6049V18.8683L10 20L12.0316 18.8683V16.6049L10 17.7366L7.96839 16.6049ZM4.47406 13.0537L6.50565 14.1854V11.922L4.47406 10.7902V13.0537ZM7.96839 4.99512L10 6.12683L12.0316 4.99512L10 3.86342L7.96839 4.99512ZM3.0316 6.12683L5.06319 4.99512L3.0316 3.86342L1 4.99512V7.25854L3.0316 8.39025V6.12683ZM3.0316 9.99025L1 8.85854V14.9854L6.52595 18.0488V15.7854L3.0316 13.8537V9.99025Z" fill="#F0B90B"/>
</svg>
