<svg width="20" height="20" viewBox="0 0 20 20" fill="none" xmlns="http://www.w3.org/2000/svg">
<path d="M17.9618 15.477C17.4688 15.477 17.0506 15.8099 16.946 16.2731L13.0249 16.0922C13.0399 16.0198 13.0473 15.9474 13.0473 15.8751C13.0473 15.7448 13.0249 15.6145 12.9876 15.4842L14.4141 14.688C14.7652 15.1078 15.4 15.1947 15.8556 14.8762C16.3112 14.5577 16.4307 13.9498 16.1245 13.4938C15.8182 13.0378 15.1983 12.893 14.7129 13.1608C14.2274 13.4286 14.0407 14.0221 14.2946 14.5071L12.9129 15.2815C12.5843 14.6084 11.7702 14.3044 11.0607 14.5867C10.3511 14.869 9.99265 15.6434 10.2466 16.3455L7.67735 16.9463C7.66241 16.6061 7.51303 16.2876 7.26657 16.0415L7.72963 15.4191C8.25244 15.5928 8.82753 15.3394 9.03665 14.84C9.24578 14.3406 9.01425 13.7688 8.51384 13.5444C8.01344 13.3128 7.40847 13.5082 7.14707 13.9787C6.88566 14.4492 7.04997 15.0427 7.5205 15.325L7.09479 15.8968C6.79604 15.6796 6.41513 15.5855 6.0417 15.629L5.60104 13.1898C6.15373 13.074 6.57945 12.6542 6.69894 12.1258C6.81844 11.5902 6.60932 11.0401 6.1612 10.7144C5.71307 10.3814 5.10811 10.338 4.61517 10.5913L3.50234 8.48508C3.74133 8.36927 3.93552 8.18832 4.07743 7.97118L5.00355 8.21003C4.99608 8.2607 4.98861 8.30413 4.98861 8.35479C4.98861 8.87593 5.39939 9.31744 5.93714 9.36811C6.47488 9.41878 6.96782 9.06411 7.06491 8.54298C7.162 8.02184 6.84085 7.52242 6.31804 7.3849C5.79523 7.24014 5.25001 7.50795 5.05583 8.00013L4.18199 7.77575C4.30149 7.50071 4.32389 7.19671 4.24921 6.9072L6.82591 5.75636C7.30391 6.33539 8.17028 6.45844 8.79765 6.02416C9.42502 5.58988 9.58934 4.75751 9.17109 4.13505L10.8142 2.57888C11.0159 2.70193 11.2474 2.78154 11.4789 2.79602V3.48363C10.9337 3.54153 10.5229 4.00476 10.5528 4.54037C10.5827 5.07598 11.0383 5.49579 11.591 5.49579C12.1436 5.49579 12.5992 5.07598 12.6291 4.54037C12.659 4.00476 12.2557 3.54153 11.703 3.48363V2.79602C11.9121 2.78154 12.1063 2.72364 12.2855 2.62955L14.0855 4.61999C13.6673 5.1556 13.6971 5.90111 14.1527 6.40054C14.6158 6.89996 15.3776 7.01576 15.9751 6.66834C16.5726 6.32092 16.8265 5.61883 16.595 4.98913L17.1551 4.68513C17.5136 5.09046 18.1335 5.16284 18.5742 4.83713C19.0148 4.51866 19.1194 3.91791 18.8132 3.47639C18.507 3.03487 17.8945 2.89735 17.424 3.17239C16.9535 3.44744 16.7817 4.02648 17.0356 4.50418L16.5054 4.7937C16.2888 4.41009 15.9004 4.14952 15.4597 4.08438C15.0191 4.01924 14.5635 4.15676 14.2423 4.46076L12.4797 2.51374C12.6515 2.38345 12.7934 2.20974 12.8905 2.02155L14.4365 2.26765C14.556 2.78878 15.0788 3.12897 15.6166 3.03487C16.1618 2.94802 16.5352 2.46307 16.4755 1.9347C16.4157 1.40633 15.9377 1.00824 15.3925 1.03719C14.8398 1.06614 14.4141 1.50042 14.4067 2.03603L12.9727 1.80441C13.1743 1.13852 12.8457 0.429198 12.1959 0.13244C11.5461 -0.164317 10.7769 0.0528226 10.381 0.631861C9.98518 1.2109 10.0897 1.98536 10.6275 2.4486L9.02918 3.96133C8.78271 3.68629 8.43169 3.51258 8.05825 3.48363V2.42688C8.60347 2.36898 9.01425 1.90575 8.98437 1.37014C8.95449 0.834525 8.50637 0.42196 7.95369 0.42196C7.401 0.42196 6.94541 0.841763 6.91554 1.37737C6.88566 1.91298 7.28897 2.37622 7.84166 2.43412V3.48363C7.34872 3.51982 6.90807 3.8021 6.67654 4.2219C6.44501 4.64894 6.45248 5.1556 6.69894 5.57541L4.18946 6.69006C4.09983 6.48015 3.95793 6.2992 3.77868 6.15444L4.75708 4.44628C4.8467 4.46799 4.92886 4.48247 5.01848 4.48247C5.54876 4.48247 5.98942 4.09886 6.05663 3.5922C6.12385 3.08554 5.78029 2.61507 5.27242 2.49202C4.75708 2.36898 4.23427 2.63678 4.04755 3.11449C3.86083 3.5922 4.07743 4.12781 4.54049 4.36666L3.59196 6.0314C3.01687 5.69845 2.2924 5.79255 1.82188 6.25578C1.35882 6.71901 1.27666 7.42109 1.62769 7.97118C1.97872 8.52127 2.66584 8.76736 3.30068 8.57193L4.42846 10.7071C4.14465 10.9098 3.94299 11.2138 3.87577 11.5467L3.05421 11.3151C3.07662 11.2355 3.08409 11.1487 3.08409 11.069C3.08409 10.5551 2.68825 10.1281 2.16544 10.0702C1.64263 10.0123 1.15716 10.338 1.03019 10.8374C0.903225 11.3368 1.18704 11.8435 1.68744 12.0172C2.18037 12.1909 2.73306 11.981 2.97206 11.525L3.8459 11.7711C3.8459 11.7928 3.8459 11.8145 3.8459 11.8363C3.8459 12.314 4.09236 12.7555 4.51061 13.0088L3.95046 13.7181C3.53968 13.3635 2.91231 13.3852 2.52393 13.7688C2.13556 14.1524 2.12062 14.7532 2.49406 15.1513C2.8675 15.5494 3.4874 15.5928 3.92058 15.2526C4.35377 14.9124 4.42846 14.3117 4.1073 13.8774L4.71227 13.1101C4.89152 13.1898 5.09317 13.226 5.29483 13.226C5.3247 13.226 5.35458 13.226 5.38445 13.2187L5.83257 15.6724C5.23508 15.8461 4.81683 16.3745 4.79442 16.9752C4.77949 17.5832 5.16786 18.1261 5.75789 18.3287C6.34792 18.5314 7.00516 18.3432 7.38607 17.8583L9.47731 18.763C9.46237 18.8354 9.44743 18.915 9.44743 18.9874C9.44743 19.5013 9.84327 19.9356 10.3736 19.9935C10.9038 20.0514 11.3893 19.7184 11.5088 19.219C11.6283 18.7196 11.337 18.2129 10.8366 18.0392C10.3362 17.8655 9.78352 18.0899 9.55199 18.5531L7.51303 17.6701C7.60266 17.5108 7.66241 17.3371 7.67735 17.1562L10.3362 16.5265C10.5379 16.8884 10.8964 17.1417 11.3146 17.2286C11.7329 17.3082 12.166 17.2068 12.4947 16.9535L13.488 17.7859C13.2565 18.2781 13.4581 18.8571 13.9511 19.1032C14.444 19.3565 15.049 19.1901 15.3328 18.7268C15.6166 18.2636 15.4821 17.6701 15.0266 17.3661C14.5635 17.0621 13.9436 17.1634 13.6075 17.5905L12.659 16.8015C12.8009 16.6568 12.9054 16.4758 12.9727 16.2876L16.9236 16.4758C16.9311 17.0331 17.3941 17.4747 17.9692 17.4747C18.5443 17.4747 19.0074 17.0187 18.9999 16.4686C18.9999 15.9257 18.5369 15.477 17.9618 15.477Z" fill="#FF473E"/>
</svg>
