<svg width="20" height="20" viewBox="0 0 20 20" fill="none" xmlns="http://www.w3.org/2000/svg">
<path d="M18.6892 5.04159L18.2577 4.28414C18.2239 4.22477 18.1768 4.17403 18.1201 4.13586C18.0634 4.0977 17.9987 4.07315 17.9309 4.06413C17.8632 4.05511 17.7943 4.06187 17.7296 4.08387C17.6649 4.10587 17.6061 4.14252 17.5579 4.19097L16.5656 5.18221C16.493 5.25511 16.4479 5.35083 16.4379 5.45318C16.4278 5.55552 16.4534 5.6582 16.5104 5.74383C16.8722 6.29663 17.1622 6.89324 17.3733 7.51926C17.7676 8.68954 17.8778 9.93686 17.6946 11.1581C17.5113 12.3794 17.04 13.5395 16.3196 14.5426C15.5991 15.5457 14.6502 16.363 13.5514 16.9268C12.4525 17.4907 11.2351 17.785 9.99992 17.7854C8.72837 17.7889 7.47569 17.478 6.35337 16.8804L8.03168 15.2016C9.07166 15.5949 10.2057 15.6672 11.2873 15.4093C12.3688 15.1515 13.3481 14.5752 14.0986 13.755C14.8491 12.9348 15.3363 11.9083 15.4972 10.8084C15.6581 9.70847 15.4853 8.58556 15.0012 7.58483C14.9705 7.52075 14.9248 7.46498 14.868 7.42219C14.8113 7.37941 14.7451 7.35086 14.675 7.33894C14.6049 7.32702 14.533 7.33209 14.4653 7.35371C14.3976 7.37533 14.3361 7.41287 14.2859 7.46319L13.2815 8.46047C13.2279 8.51394 13.1889 8.58022 13.1682 8.653C13.1476 8.72579 13.1458 8.80266 13.1633 8.87629L13.2495 9.2369C13.398 9.86859 13.3588 10.5299 13.1368 11.1396C12.9147 11.7493 12.5194 12.281 11.9994 12.6693C11.4794 13.0576 10.8574 13.2857 10.2096 13.3256C9.56176 13.3655 8.9164 13.2155 8.35267 12.8939L7.91002 12.6403C7.82542 12.5915 7.7271 12.5722 7.63034 12.5851C7.53359 12.5981 7.44382 12.6426 7.37503 12.7119L3.27547 16.8097C3.23072 16.8544 3.19604 16.9082 3.17376 16.9674C3.15148 17.0267 3.14211 17.09 3.14628 17.1531C3.15044 17.2162 3.16805 17.2778 3.19792 17.3335C3.22779 17.3893 3.26923 17.4381 3.31947 17.4766L3.92349 17.9398C5.66539 19.2819 7.80427 20.0066 10.0034 20C11.7542 19.9977 13.4738 19.5364 14.9905 18.662C16.5072 17.7876 17.768 16.5308 18.647 15.017C19.526 13.5032 19.9925 11.7853 19.9999 10.0349C20.0073 8.28451 19.5554 6.56278 18.6892 5.04159Z" fill="url(#paint0_linear_24847_151915)"/>
<path d="M16.0816 2.06104C14.3399 0.718488 12.2009 -0.00658467 10.0017 4.50632e-05C8.25003 0.00140635 6.52941 0.462318 5.01173 1.33673C3.49406 2.21114 2.23247 3.46843 1.35302 4.98297C0.473567 6.49752 0.00705 8.21628 7.92801e-05 9.96754C-0.00689144 11.7188 0.445928 13.4412 1.31329 14.9627L1.74474 15.7193C1.77872 15.7786 1.8259 15.8293 1.88262 15.8674C1.93935 15.9056 2.0041 15.9302 2.07185 15.9392C2.1396 15.9483 2.20854 15.9417 2.27332 15.9199C2.3381 15.898 2.39698 15.8616 2.4454 15.8133L3.43599 14.823C3.50804 14.75 3.55284 14.6544 3.56289 14.5524C3.57294 14.4503 3.54764 14.3479 3.49121 14.2622C3.12905 13.7096 2.83907 13.1129 2.62833 12.4868C2.23395 11.3165 2.12382 10.0692 2.30704 8.84792C2.49026 7.62666 2.96157 6.46654 3.68201 5.46344C4.40246 4.46035 5.35134 3.64308 6.45024 3.0792C7.54914 2.51533 8.76649 2.22103 10.0017 2.22064C11.2732 2.21776 12.5256 2.52955 13.6474 3.1282L11.9682 4.80615C11.127 4.48741 10.221 4.37764 9.32806 4.48626C8.43509 4.59487 7.58186 4.91864 6.84167 5.42972C6.10149 5.94081 5.49649 6.62393 5.07867 7.42039C4.66085 8.21686 4.4427 9.10283 4.44297 10.0022C4.44297 10.0945 4.468 10.5155 4.47576 10.588C4.54381 11.2251 4.72098 11.8458 4.99953 12.4229C5.03038 12.487 5.07613 12.5428 5.13296 12.5856C5.1898 12.6283 5.25606 12.6569 5.32619 12.6688C5.39632 12.6807 5.46829 12.6756 5.53606 12.654C5.60384 12.6324 5.66545 12.5949 5.71573 12.5446L6.72012 11.5395C6.77362 11.4862 6.81263 11.4201 6.83346 11.3475C6.8543 11.2749 6.85627 11.1982 6.8392 11.1246L6.75291 10.7631C6.60424 10.1314 6.64332 9.47003 6.86535 8.86023C7.08739 8.25043 7.48272 7.71873 8.0028 7.33043C8.52287 6.94213 9.14505 6.71413 9.79293 6.67443C10.4408 6.63474 11.0862 6.78507 11.6498 7.10697L12.0924 7.36061C12.1772 7.40889 12.2754 7.42803 12.372 7.41509C12.4687 7.40216 12.5584 7.35786 12.6274 7.289L16.7261 3.19117C16.7709 3.14641 16.8057 3.09261 16.828 3.03335C16.8504 2.97409 16.8599 2.91074 16.8558 2.84754C16.8517 2.78434 16.8342 2.72274 16.8044 2.66685C16.7746 2.61096 16.7332 2.56207 16.683 2.52344L16.0816 2.06104Z" fill="url(#paint1_linear_24847_151915)"/>
<defs>
<linearGradient id="paint0_linear_24847_151915" x1="3.94905" y1="20.8031" x2="21.5874" y2="4.11871" gradientUnits="userSpaceOnUse">
<stop stop-color="#B090F5"/>
<stop offset="1" stop-color="#5FBFFF"/>
</linearGradient>
<linearGradient id="paint1_linear_24847_151915" x1="-0.553123" y1="13.4426" x2="13.527" y2="-0.639619" gradientUnits="userSpaceOnUse">
<stop stop-color="#68D7FA"/>
<stop offset="1" stop-color="#7EF1B3"/>
</linearGradient>
</defs>
</svg>
