<svg width="20" height="20" viewBox="0 0 20 20" fill="none" xmlns="http://www.w3.org/2000/svg">
<path d="M10 0C15.5234 0 20 4.47656 20 10C20 15.5234 15.5234 20 10 20C4.47656 20 0 15.5234 0 10C0 4.47656 4.47656 0 10 0Z" fill="#0052FF"/>
<path d="M10.002 13.5156C8.06055 13.5156 6.48633 11.9434 6.48633 10C6.48633 8.05664 8.06055 6.48438 10.002 6.48438C11.7422 6.48438 13.1875 7.75391 13.4648 9.41406H17.0059C16.707 5.80469 13.6855 2.96875 10 2.96875C6.11719 2.96875 2.96875 6.11719 2.96875 10C2.96875 13.8828 6.11719 17.0312 10 17.0312C13.6855 17.0312 16.707 14.1953 17.0059 10.5859H13.4629C13.1836 12.2461 11.7422 13.5156 10.002 13.5156Z" fill="white"/>
</svg>
