<svg width="20" height="20" viewBox="0 0 20 20" fill="none" xmlns="http://www.w3.org/2000/svg">
<path d="M18.9958 10.0478C18.9958 11.546 18.9899 13.0443 19 14.5419C19.0023 14.9182 18.8627 15.1614 18.519 15.3527C15.871 16.8302 13.2266 18.314 10.594 19.818C10.1763 20.0566 9.85327 20.0629 9.43324 19.8232C6.79234 18.3146 4.13962 16.8262 1.48453 15.3417C1.14613 15.1527 0.998824 14.9101 1.00001 14.5315C1.0077 11.5259 1.00711 8.51958 1.00001 5.51389C0.999415 5.1376 1.13903 4.89384 1.48157 4.70196C4.20529 3.17894 6.92072 1.64267 9.63675 0.107551C9.89409 -0.0376633 10.1301 -0.0347821 10.3863 0.109855C13.1366 1.66399 15.8888 3.21524 18.6426 4.76304C18.8609 4.88578 18.9763 5.05289 18.9846 5.29433C18.9893 5.4286 18.9952 5.56287 18.9952 5.69713C18.9958 7.14754 18.9958 8.59737 18.9958 10.0478ZM17.1358 10.0219C17.1358 8.78293 17.1329 7.54342 17.1388 6.30449C17.14 6.11433 17.095 5.98237 16.9128 5.8798C14.6766 4.62704 12.4457 3.36564 10.207 2.11807C10.1059 2.0616 9.91302 2.06333 9.81127 2.1198C7.58035 3.36276 5.35772 4.61898 3.13035 5.86828C2.96175 5.96278 2.87005 6.06766 2.87064 6.27338C2.87715 8.77082 2.87596 11.2683 2.87182 13.7657C2.87182 13.9507 2.93631 14.0602 3.10491 14.1541C5.31512 15.3942 7.52238 16.6389 9.72549 17.8899C9.92781 18.0046 10.0828 18.0092 10.2881 17.8928C12.4735 16.651 14.663 15.4144 16.8578 14.1875C17.0678 14.07 17.1424 13.9392 17.1412 13.7104C17.1323 12.4807 17.137 11.2516 17.137 10.0219H17.1358Z" fill="#FF9211"/>
<path d="M10.798 16.0194C10.798 15.7601 10.798 15.5595 10.798 15.3596C10.798 13.7092 10.8021 12.0588 10.7933 10.4085C10.7921 10.186 10.8672 10.0673 11.0701 9.96361C12.4107 9.27787 13.7442 8.57774 15.0806 7.88394C15.1397 7.8534 15.2048 7.83438 15.3078 7.79462C15.3166 7.90929 15.3302 7.99976 15.3302 8.08966C15.3314 9.79765 15.3279 11.5056 15.3356 13.2136C15.3362 13.4124 15.2693 13.519 15.0906 13.6187C13.7595 14.3632 12.4367 15.1204 11.1104 15.8719C11.0275 15.9185 10.9376 15.9537 10.798 16.0194Z" fill="#FF9211"/>
<path d="M15.3522 6.9804C15.0588 7.14348 14.8044 7.28466 14.5346 7.43506C13.5455 6.87898 12.5492 6.31887 11.5536 5.75818C11.0933 5.49887 10.6372 5.23207 10.1704 4.98486C10.087 4.94049 9.93436 4.93992 9.85272 4.98486C8.45004 5.76395 7.05091 6.54994 5.65947 7.34804C5.5589 7.40567 5.46602 7.56932 5.46484 7.684C5.45182 9.23986 5.45892 10.7963 5.45241 12.3522C5.45182 12.5319 5.52281 12.6259 5.67722 12.7123C7.01837 13.4614 8.35184 14.2227 9.69654 14.9666C9.90656 15.083 9.9953 15.2103 9.97104 15.4408C9.9527 15.6183 9.96749 15.7993 9.96749 16.0384C9.51078 15.7854 9.10198 15.5618 8.69615 15.3337C7.45971 14.6381 6.228 13.9357 4.98624 13.2488C4.73895 13.1122 4.64547 12.9417 4.64666 12.6714C4.65435 10.9041 4.65435 9.13671 4.64666 7.36937C4.64547 7.09853 4.73954 6.92335 4.98387 6.78793C6.5658 5.90801 8.14241 5.01944 9.71843 4.13029C9.90537 4.02484 10.0763 4.00352 10.2716 4.11416C11.9168 5.04076 13.5644 5.96275 15.2114 6.88647C15.2445 6.90491 15.2753 6.92911 15.3528 6.98098L15.3522 6.9804Z" fill="#FF9211"/>
</svg>
