<svg width="20" height="20" viewBox="0 0 20 20" fill="none" xmlns="http://www.w3.org/2000/svg">
<path fill-rule="evenodd" clip-rule="evenodd" d="M16.2884 11.2438C14.611 10.3853 12.373 10.0968 11.0585 9.99906C12.8476 9.86645 16.3489 9.3802 17.8146 7.5841C20.1085 5.86711 19.9991 0.0577095 19.9991 0.0577095C19.9991 0.0577095 14.4947 -0.54952 12.0915 2.19116C10.5979 3.67782 10.1349 6.2603 9.99996 8.05872C9.86503 6.26262 9.40206 3.67782 7.90847 2.19116C5.50523 -0.551847 0.000804937 0.0577095 0.000804937 0.0577095C0.000804937 0.0577095 -0.0666626 3.68015 1.03376 6.05091C1.57582 7.21884 2.5669 8.17039 3.71152 8.75669C5.3889 9.61518 7.62697 9.90368 8.94142 10.0014C7.62697 10.0991 5.3889 10.3876 3.71152 11.2461C2.5669 11.8324 1.57582 12.7839 1.03376 13.9519C-0.0666626 16.3203 0.000804937 19.9427 0.000804937 19.9427C0.000804937 19.9427 5.50523 20.55 7.90847 17.8093C9.40206 16.3226 9.86503 13.7378 9.99996 11.9417C10.1349 13.7378 10.5979 16.3226 12.0915 17.8093C14.4947 20.55 19.9991 19.9427 19.9991 19.9427C19.9991 19.9427 20.0689 16.3203 18.9662 13.9495C18.4241 12.7816 17.433 11.8301 16.2884 11.2438ZM16.4722 16.325C16.4443 16.318 13.5711 15.499 9.88364 10.5737C8.80183 11.4183 6.08452 13.6518 3.49749 16.7019L3.38116 16.8391L3.42769 16.6646C3.43467 16.6344 4.27685 13.675 9.40671 9.906C8.91118 9.17081 7.74562 7.47941 3.24623 3.49403L3.14619 3.40562L3.2788 3.42423C3.37418 3.43819 5.68669 3.80113 9.91156 9.24526C9.91156 9.24526 9.96507 9.31971 10.0628 9.45C10.6584 9.0382 12.3823 7.81443 16.2582 3.43586L16.3466 3.33582L16.328 3.46843C16.314 3.56382 15.9511 5.86478 10.542 10.0735C11.5633 11.3624 13.6758 13.8518 16.5094 16.2528L16.649 16.3715L16.4745 16.325H16.4722Z" fill="url(#paint0_linear_25513_57335)"/>
<defs>
<linearGradient id="paint0_linear_25513_57335" x1="0.0287224" y1="0.029791" x2="19.9719" y2="19.9699" gradientUnits="userSpaceOnUse">
<stop stop-color="#5EDD4D"/>
<stop offset="1" stop-color="#01E1FF"/>
</linearGradient>
</defs>
</svg>
