<svg width="20" height="20" viewBox="0 0 20 20" fill="none" xmlns="http://www.w3.org/2000/svg">
<g clip-path="url(#clip0_24847_151840)">
<path d="M18.6261 19.2337L14.333 17.9088L11.0955 19.9147L8.83665 19.9137L5.59721 17.9088L1.30608 19.2337L0.000732422 14.6664L1.30608 9.59737L0.000732422 5.31168L1.30608 0L8.0113 4.15226H11.9207L18.6261 0L19.9314 5.31168L18.6261 9.59737L19.9314 14.6664L18.6261 19.2337Z" fill="#FF5C16"/>
<path d="M1.30664 0L8.01199 4.15518L7.74537 7.00686L1.30664 0ZM5.59791 14.6683L8.54819 16.9978L5.59791 17.9088V14.6683ZM8.31242 10.8171L7.74537 7.00876L4.1158 9.59854L4.11382 9.59752V9.59942L4.12509 12.2651L5.59692 10.8172L8.31242 10.8171ZM18.6258 0L11.9204 4.15518L12.1862 7.00686L18.6258 0ZM14.3347 14.6683L11.3842 16.9978L14.3347 17.9088V14.6683ZM15.8176 9.59927V9.59737L15.8168 9.59839L12.1872 7.00876L11.6202 10.8171H14.3345L15.8073 12.2648L15.8176 9.59927Z" fill="#FF5C16"/>
<path d="M5.59697 17.9086L1.30584 19.2336L0.000488281 14.6682H5.59697V17.9086ZM8.31147 10.8159L9.13119 16.3216L7.99514 13.2603L4.12331 12.2647L5.59598 10.8161H8.31147V10.8159ZM14.3346 17.9086L18.6258 19.2336L19.9312 14.6682H14.3346V17.9086ZM11.6202 10.8159L10.8005 16.3216L11.9364 13.2603L15.8084 12.2647L14.3347 10.8161H11.6202V10.8159Z" fill="#E34807"/>
<path d="M0.000488281 14.6665L1.30584 9.59745H4.11288L4.12316 12.264L7.99528 13.2596L9.13119 16.3208L8.54725 16.995L5.59697 14.6655H0.000488281V14.6665ZM19.9312 14.6665L18.6258 9.59745H15.8187L15.8084 12.264L11.9365 13.2596L10.8005 16.3208L11.3843 16.995L14.3347 14.6655H19.9312V14.6665ZM11.9205 4.15234H8.01105L7.74556 7.00402L9.13133 16.3179H10.8005L12.1871 7.00402L11.9205 4.15234Z" fill="#FF8D5D"/>
<path d="M1.30608 0L0.000732422 5.31168L1.30608 9.59737H4.11313L7.74468 7.00686L1.30608 0ZM7.50045 11.9219H6.22876L5.53637 12.6254L7.99637 13.2575L7.50045 11.921V11.9219ZM18.6261 0L19.9314 5.31168L18.6261 9.59737H15.8189L12.1875 7.00686L18.6261 0ZM12.4335 11.9219H13.7071L14.3995 12.6263L11.9366 13.2596L12.4335 11.9209V11.9219ZM11.0945 18.0978L11.3847 16.9968L10.8007 16.3226H9.13031L8.54651 16.9968L8.83651 18.0978" fill="#661800"/>
<path d="M11.0942 18.0977V19.9156H8.8363V18.0977H11.0942Z" fill="#C0C4CD"/>
<path d="M5.59802 17.9068L8.8383 19.9147V18.0967L8.54816 16.9958L5.59802 17.9068ZM14.3348 17.9068L11.0944 19.9147V18.0967L11.3845 16.9958L14.3348 17.9068Z" fill="#E7EBF6"/>
</g>
<defs>
<clipPath id="clip0_24847_151840">
<rect width="20" height="20" fill="white"/>
</clipPath>
</defs>
</svg>
