<svg width="20" height="20" viewBox="0 0 20 20" fill="none" xmlns="http://www.w3.org/2000/svg">
<path d="M19.4126 10C19.4126 14.9706 15.1986 19 10.0004 19C4.80224 19 0.588261 14.9706 0.588261 10C0.588261 5.02944 4.80224 1 10.0004 1C15.1986 1 19.4126 5.02944 19.4126 10Z" fill="#EC1E26"/>
<path fill-rule="evenodd" clip-rule="evenodd" d="M5.26411 1C5.50612 1 5.74809 1 5.9901 1C6.20002 1.20006 6.38151 1.42069 6.53458 1.66187C6.53458 1.66187 6.73855 1.94604 6.91279 2.28413C7.05986 2.56949 7.28362 2.95854 7.55096 3.61072C7.56124 3.63974 7.57939 3.66425 7.60541 3.68426C7.6118 3.53028 7.62995 3.38319 7.65986 3.24301C7.84775 3.75844 8.08369 4.24871 8.3677 4.71384C8.60114 5.04224 8.90968 5.26287 9.29333 5.37572C9.42698 5.38178 9.56005 5.37568 9.69262 5.35733C9.34444 4.92472 9.14479 4.42833 9.09368 3.86812C9.07553 3.52514 9.0695 3.18195 9.07553 2.83854C9.06961 2.75187 9.07564 2.66607 9.09368 2.58114C9.18929 3.10717 9.44945 3.53004 9.87411 3.84973C10.5373 4.28959 11.2149 4.7002 11.9069 5.08155C12.3264 3.90061 12.8709 2.78524 13.5403 1.73541C13.6942 1.46928 13.8757 1.22414 14.0848 1C14.3268 1 14.5688 1 14.8108 1C15.2914 1.69173 15.6665 2.4394 15.9361 3.24301C16.734 5.57865 17.2482 7.98103 17.4788 10.4501C17.8084 11.5504 17.7781 12.6412 17.3881 13.7227C17.0222 13.7071 16.6592 13.7255 16.2991 13.7778C16.1614 13.8533 16.1191 13.9697 16.172 14.1271C16.1977 14.1595 16.228 14.184 16.2628 14.2007C16.5585 14.213 16.861 14.213 17.1703 14.2007C17.0556 14.4576 16.9225 14.7028 16.771 14.9361C16.4952 14.8246 16.2108 14.7388 15.9179 14.6787C15.6652 14.7527 15.6229 14.8936 15.7909 15.1016C16.0127 15.1577 16.2305 15.2251 16.4443 15.3038C16.1757 15.6802 15.8611 16.0173 15.5005 16.315C13.6155 17.7223 11.4981 18.3228 9.14813 18.1168C7.28533 17.9511 5.65186 17.2525 4.24773 16.0208C4.0091 15.7976 3.79131 15.5586 3.59435 15.3038C3.77817 15.2192 3.97179 15.1518 4.17513 15.1016C4.28472 15.0055 4.30893 14.8891 4.24773 14.7522C4.19866 14.7009 4.13815 14.6764 4.06624 14.6787C3.803 14.7227 3.54891 14.7962 3.30395 14.8993C3.15636 14.676 3.02326 14.4431 2.90466 14.2007C2.97013 14.1763 3.04273 14.1641 3.12246 14.1639C3.31741 14.1868 3.511 14.2051 3.70324 14.2191C3.83479 14.1396 3.87715 14.0232 3.83029 13.8698C3.79751 13.8256 3.75519 13.7949 3.70324 13.7778C3.36595 13.7326 3.02715 13.7142 2.68687 13.7227C2.41686 12.9122 2.32611 12.0787 2.41462 11.2223C2.5954 10.3852 2.7285 9.53952 2.81391 8.68508C3.09328 6.78856 3.54702 4.93778 4.17513 3.1327C4.44339 2.36852 4.80638 1.65762 5.26411 1Z" fill="#FEFEFE"/>
<path fill-rule="evenodd" clip-rule="evenodd" d="M7.54892 5.55996C7.56101 5.70704 7.57313 5.85413 7.58522 6.00121C7.15242 6.19591 6.72892 6.41039 6.31475 6.6447C5.47068 7.14257 4.64186 7.6635 3.82825 8.20745C3.93914 6.50795 4.30213 4.86551 4.91723 3.28018C5.07868 2.88521 5.29042 2.52363 5.55246 2.19544C5.70372 2.11874 5.84892 2.131 5.98805 2.23221C6.35239 2.74945 6.64884 3.30714 6.87738 3.90528C7.10317 4.46011 7.32699 5.01167 7.54892 5.55996Z" fill="#F7BAD5"/>
<path fill-rule="evenodd" clip-rule="evenodd" d="M14.3019 2.14056C14.4043 2.13128 14.501 2.14966 14.5923 2.19572C14.6962 2.30213 14.7869 2.41857 14.8645 2.54504C15.4714 3.7413 15.8828 5.00375 16.0987 6.33242C16.1634 6.81155 16.236 7.28957 16.3165 7.76648C16.3407 7.91356 16.3407 8.06065 16.3165 8.20773C15.123 7.30302 13.8525 6.53084 12.5051 5.89118C12.8682 4.71389 13.3522 3.58626 13.9571 2.50827C14.0549 2.36631 14.1699 2.24374 14.3019 2.14056Z" fill="#F7BAD5"/>
<path fill-rule="evenodd" clip-rule="evenodd" d="M7.58773 6.0006C7.57565 5.85352 7.56352 5.70644 7.55143 5.55935C7.54116 4.95779 7.55931 4.3572 7.60588 3.75759C7.73075 5.11954 8.26918 6.27782 9.2212 7.23242C9.49308 7.44988 9.78347 7.63988 10.0924 7.80237C9.73146 7.8648 9.36846 7.91382 9.0034 7.94945C8.50454 7.83101 8.13549 7.53685 7.89628 7.06695C7.74266 6.72646 7.63982 6.37103 7.58773 6.0006Z" fill="#D5E9F8"/>
<path fill-rule="evenodd" clip-rule="evenodd" d="M12.4136 11.1482C12.3629 11.9249 12.7017 12.4459 13.43 12.711C14.6047 12.7834 15.1673 12.2257 15.1179 11.0379C15.0774 10.8824 15.0169 10.7353 14.9364 10.5966C14.912 10.569 14.8818 10.5567 14.8456 10.5599C15.08 10.482 15.322 10.4146 15.5716 10.3576C15.6355 10.3283 15.696 10.3344 15.7531 10.376C16.1001 11.2517 15.973 12.0485 15.372 12.7661C14.4895 13.5478 13.5517 13.6274 12.5588 13.0051C12.0153 12.5721 11.737 12.0021 11.7239 11.2953C11.958 11.261 12.188 11.212 12.4136 11.1482Z" fill="#A7DEF6"/>
<path fill-rule="evenodd" clip-rule="evenodd" d="M4.93609 10.56C4.53701 11.2664 4.63382 11.8977 5.22648 12.4537C5.83475 12.8351 6.42762 12.8106 7.00514 12.3802C7.33318 12.0392 7.47838 11.6286 7.44073 11.1484C7.66445 11.2256 7.89433 11.2746 8.13042 11.2955C8.05916 12.2931 7.56306 12.9734 6.64215 13.3362C5.50043 13.5943 4.6474 13.2082 4.08306 12.178C3.81836 11.5757 3.81836 10.9751 4.08306 10.3762C4.10342 10.357 4.12763 10.3448 4.15565 10.3394C4.42249 10.4054 4.68261 10.4789 4.93609 10.56Z" fill="#A7DEF6"/>
<path fill-rule="evenodd" clip-rule="evenodd" d="M4.93541 10.5603C5.77388 10.7413 6.60877 10.9374 7.44005 11.1487C7.4777 11.6289 7.3325 12.0395 7.00446 12.3805C6.42694 12.8109 5.83407 12.8354 5.2258 12.454C4.63314 11.8979 4.53633 11.2667 4.93541 10.5603Z" fill="#232021"/>
<path fill-rule="evenodd" clip-rule="evenodd" d="M14.8468 10.5597C14.8829 10.5566 14.9132 10.5688 14.9375 10.5965C15.0181 10.7352 15.0785 10.8822 15.119 11.0377C15.1684 12.2256 14.6058 12.7833 13.4311 12.7108C12.7028 12.4457 12.364 11.9248 12.4147 11.1481C13.2138 10.9243 14.0244 10.7282 14.8468 10.5597Z" fill="#242021"/>
<path fill-rule="evenodd" clip-rule="evenodd" d="M2.68614 13.7231C3.02643 13.7146 3.36522 13.733 3.70252 13.7783C3.75447 13.7954 3.79679 13.8261 3.82957 13.8702C3.87643 14.0236 3.83407 14.1401 3.70252 14.2195C3.51028 14.2056 3.31668 14.1872 3.12173 14.1644C3.042 14.1646 2.9694 14.1768 2.90394 14.2012C2.5802 14.2018 2.2656 14.2569 1.96016 14.3666C1.9078 14.3805 1.8715 14.4111 1.85126 14.4585C1.32191 14.6225 0.837924 14.8737 0.399291 15.2123C0.240589 15.2915 0.107493 15.2608 0 15.1204C0 15.0346 0 14.9488 0 14.863C0.497586 14.4823 1.04207 14.1881 1.63347 13.9805C1.98646 13.8855 2.33735 13.7997 2.68614 13.7231Z" fill="#252021"/>
<path fill-rule="evenodd" clip-rule="evenodd" d="M17.3865 13.7219C17.7075 13.8137 18.0342 13.8995 18.3665 13.9793C18.9628 14.2014 19.5072 14.5078 20 14.8986C20 14.9599 20 15.0212 20 15.0825C19.9306 15.2157 19.8217 15.2708 19.6733 15.2479C19.2058 14.9042 18.6976 14.6406 18.1487 14.4574C17.8466 14.2981 17.5199 14.2122 17.1687 14.2C16.872 14.1598 16.5694 14.1598 16.2612 14.2C16.2264 14.1833 16.1961 14.1588 16.1704 14.1264C16.1175 13.969 16.1598 13.8526 16.2975 13.7771C16.6576 13.7248 17.0206 13.7064 17.3865 13.7219Z" fill="#252021"/>
<path fill-rule="evenodd" clip-rule="evenodd" d="M9.61987 13.9434C9.89124 13.9211 10.1453 13.9763 10.3821 14.1089C10.4622 14.1901 10.4743 14.282 10.4184 14.3846C10.336 14.4637 10.2392 14.5189 10.1281 14.5501C9.84216 14.5919 9.56386 14.5674 9.29317 14.4766C9.09959 14.3417 9.09959 14.2069 9.29317 14.0721C9.40465 14.0244 9.51355 13.9816 9.61987 13.9434Z" fill="#F7BCD6"/>
<path fill-rule="evenodd" clip-rule="evenodd" d="M3.59435 15.3038C3.23784 15.3921 2.93533 15.5642 2.68685 15.8191C2.51562 15.9124 2.35833 16.0288 2.21496 16.1684C1.97362 16.4254 1.74372 16.695 1.52528 16.9774C1.23494 17.002 1.13209 16.8733 1.21674 16.5913C1.51917 16.0949 1.91241 15.6905 2.39646 15.3778C2.69467 15.2084 2.99717 15.0486 3.30395 14.8993C3.54891 14.7962 3.803 14.7227 4.06624 14.6787C4.13815 14.6764 4.19866 14.7009 4.24773 14.7522C4.30893 14.8891 4.28472 15.0055 4.17513 15.1016C3.97179 15.1518 3.77817 15.2192 3.59435 15.3038Z" fill="#252021"/>
<path fill-rule="evenodd" clip-rule="evenodd" d="M8.38362 14.6416C8.43346 14.6359 8.48188 14.642 8.52882 14.66C8.69616 14.8228 8.8958 14.9147 9.12775 14.9358C9.2218 14.9334 9.31255 14.915 9.4 14.8806C9.53122 14.784 9.67035 14.7043 9.81744 14.6416C9.98151 14.7279 10.1449 14.8198 10.3075 14.9174C10.4961 14.9493 10.6776 14.9248 10.852 14.8439C10.9502 14.7574 11.0591 14.69 11.1787 14.6416C11.3816 14.684 11.4482 14.8065 11.3783 15.0093C10.894 15.4335 10.3797 15.4825 9.83559 15.1564C9.2613 15.5013 8.73496 15.4401 8.25657 14.9726C8.21955 14.8274 8.26191 14.7171 8.38362 14.6416Z" fill="#272324"/>
<path fill-rule="evenodd" clip-rule="evenodd" d="M16.7695 14.9364C17.0469 15.082 17.3252 15.2291 17.6044 15.3777C18.1169 15.7374 18.5282 16.1909 18.8386 16.7382C18.77 16.9752 18.6248 17.0426 18.403 16.9404C18.1246 16.4787 17.7616 16.1049 17.314 15.8189C17.2663 15.7268 17.1937 15.6594 17.0962 15.6167C16.882 15.502 16.6642 15.3979 16.4428 15.3041C16.2291 15.2255 16.0113 15.1581 15.7895 15.1019C15.6214 14.8939 15.6638 14.753 15.9165 14.679C16.2094 14.7392 16.4937 14.825 16.7695 14.9364Z" fill="#252021"/>
</svg>
