<svg width="20" height="20" viewBox="0 0 20 20" fill="none" xmlns="http://www.w3.org/2000/svg">
<path fill-rule="evenodd" clip-rule="evenodd" d="M7.98143 14.1827C6.83681 15.8676 4.91877 18 2.36659 18C1.16009 18 0 17.5228 0 15.4501C0 10.1715 7.5019 2 14.4625 2C18.4222 2 20 4.63934 20 7.63652C20 11.4837 17.4013 15.8826 14.8182 15.8826C13.9984 15.8826 13.5962 15.4501 13.5962 14.7642C13.5962 14.5853 13.6272 14.3914 13.6891 14.1827C12.8074 15.6291 11.1059 16.9711 9.51274 16.9711C8.35265 16.9711 7.76488 16.2703 7.76488 15.2861C7.76488 14.9282 7.8422 14.5554 7.98143 14.1827ZM13.9774 7.53248C13.9774 8.40585 13.441 8.84253 12.841 8.84253C12.2319 8.84253 11.7047 8.40585 11.7047 7.53248C11.7047 6.65913 12.2319 6.22245 12.841 6.22245C13.441 6.22245 13.9774 6.65913 13.9774 7.53248ZM17.3865 7.5325C17.3865 8.40585 16.8501 8.84253 16.2501 8.84253C15.641 8.84253 15.1138 8.40585 15.1138 7.5325C15.1138 6.65913 15.641 6.22245 16.2501 6.22245C16.8501 6.22245 17.3865 6.65913 17.3865 7.5325Z" fill="#AB9FF2"/>
</svg>
