<svg width="20" height="20" viewBox="0 0 20 20" fill="none" xmlns="http://www.w3.org/2000/svg">
<path d="M14.8492 13.6765L19.5931 10.8931C19.8446 10.7453 20 10.4711 20 10.1768V4.61005C20 4.31577 19.8446 4.0416 19.5931 3.89374L14.8492 1.11035C14.5977 0.962499 14.2855 0.963936 14.0354 1.11035L9.29148 3.89374C9.04007 4.0416 8.88465 4.31577 8.88465 4.61005V14.5579L5.55767 16.5087L2.2307 14.5579V10.6549L5.55767 8.70406L7.75167 9.99162V7.37333L5.96451 6.32401C5.84159 6.25223 5.70039 6.21348 5.55767 6.21348C5.41495 6.21348 5.27375 6.25223 5.15083 6.32401L0.406869 9.10739C0.155403 9.25525 0 9.52946 0 9.82372V15.3905C0 15.6848 0.155403 15.9589 0.406869 16.1068L5.15083 18.8902C5.40225 19.0366 5.71309 19.0366 5.96451 18.8902L10.7085 16.1068C10.96 15.9589 11.1153 15.6848 11.1153 15.3905V5.44119L11.1746 5.40673L14.4409 3.49037L17.7679 5.44119V9.34427L14.4409 11.2951L12.2497 10.0103V12.6287L14.034 13.6751C14.2855 13.8215 14.5977 13.8215 14.8478 13.6751L14.8492 13.6765Z" fill="url(#paint0_linear_24847_151931)"/>
<defs>
<linearGradient id="paint0_linear_24847_151931" x1="-0.0649868" y1="15.9359" x2="19.2945" y2="4.87718" gradientUnits="userSpaceOnUse">
<stop stop-color="#A726C1"/>
<stop offset="0.88" stop-color="#803BDF"/>
<stop offset="1" stop-color="#7B3FE4"/>
</linearGradient>
</defs>
</svg>
