<svg width="20" height="20" viewBox="0 0 20 20" fill="none" xmlns="http://www.w3.org/2000/svg">
<path d="M0 9.06667C0 5.89304 0 4.30622 0.61763 3.09405C1.16091 2.0278 2.0278 1.16091 3.09405 0.61763C4.30622 0 5.89304 0 9.06667 0H10.9333C14.107 0 15.6938 0 16.9059 0.61763C17.9722 1.16091 18.8391 2.0278 19.3824 3.09405C20 4.30622 20 5.89304 20 9.06667V10.9333C20 14.107 20 15.6938 19.3824 16.9059C18.8391 17.9722 17.9722 18.8391 16.9059 19.3824C15.6938 20 14.107 20 10.9333 20H9.06667C5.89304 20 4.30622 20 3.09405 19.3824C2.0278 18.8391 1.16091 17.9722 0.61763 16.9059C0 15.6938 0 14.107 0 10.9333V9.06667Z" fill="url(#paint0_linear_24847_151863)"/>
<path d="M3.33337 6.33325H4.33337C9.48803 6.33325 13.6667 10.5119 13.6667 15.6666V16.6666H15.6667C16.219 16.6666 16.6667 16.2189 16.6667 15.6666C16.6667 8.85507 11.1449 3.33325 4.33337 3.33325C3.78109 3.33325 3.33337 3.78097 3.33337 4.33325V6.33325Z" fill="url(#paint1_radial_24847_151863)"/>
<path d="M14 15.6665H16.6667C16.6667 16.2188 16.219 16.6665 15.6667 16.6665H14V15.6665Z" fill="url(#paint2_linear_24847_151863)"/>
<path d="M4.33337 3.33325L4.33337 5.99992H3.33337L3.33337 4.33325C3.33337 3.78097 3.78109 3.33325 4.33337 3.33325Z" fill="url(#paint3_linear_24847_151863)"/>
<path d="M3.33337 6H4.33337C9.67213 6 14 10.3279 14 15.6667V16.6667H11V15.6667C11 11.9848 8.01527 9 4.33337 9H3.33337V6Z" fill="url(#paint4_radial_24847_151863)"/>
<path d="M11.3334 15.6667H14V16.6667H11.3334V15.6667Z" fill="url(#paint5_linear_24847_151863)"/>
<path d="M3.33337 8.66667L3.33337 6L4.33337 6L4.33337 8.66667H3.33337Z" fill="url(#paint6_linear_24847_151863)"/>
<path d="M3.33337 10.3332C3.33337 10.8855 3.78109 11.3332 4.33337 11.3332C6.72661 11.3332 8.66671 13.2733 8.66671 15.6665C8.66671 16.2188 9.11442 16.6665 9.66671 16.6665H11.3334V15.6665C11.3334 11.8005 8.19937 8.6665 4.33337 8.6665H3.33337V10.3332Z" fill="url(#paint7_radial_24847_151863)"/>
<path d="M8.66675 15.6665H11.3334V16.6665H9.66675C9.11446 16.6665 8.66675 16.2188 8.66675 15.6665Z" fill="url(#paint8_radial_24847_151863)"/>
<path d="M4.33337 11.3332C3.78109 11.3332 3.33337 10.8855 3.33337 10.3332L3.33337 8.6665L4.33337 8.6665L4.33337 11.3332Z" fill="url(#paint9_radial_24847_151863)"/>
<defs>
<linearGradient id="paint0_linear_24847_151863" x1="10" y1="0" x2="10" y2="20" gradientUnits="userSpaceOnUse">
<stop stop-color="#174299"/>
<stop offset="1" stop-color="#001E59"/>
</linearGradient>
<radialGradient id="paint1_radial_24847_151863" cx="0" cy="0" r="1" gradientUnits="userSpaceOnUse" gradientTransform="translate(4.33337 15.6666) rotate(-90) scale(12.3333)">
<stop offset="0.770277" stop-color="#FF4000"/>
<stop offset="1" stop-color="#8754C9"/>
</radialGradient>
<linearGradient id="paint2_linear_24847_151863" x1="13.8333" y1="16.1665" x2="16.6667" y2="16.1665" gradientUnits="userSpaceOnUse">
<stop stop-color="#FF4000"/>
<stop offset="1" stop-color="#8754C9"/>
</linearGradient>
<linearGradient id="paint3_linear_24847_151863" x1="3.83337" y1="3.33325" x2="3.83337" y2="6.16659" gradientUnits="userSpaceOnUse">
<stop stop-color="#8754C9"/>
<stop offset="1" stop-color="#FF4000"/>
</linearGradient>
<radialGradient id="paint4_radial_24847_151863" cx="0" cy="0" r="1" gradientUnits="userSpaceOnUse" gradientTransform="translate(4.33337 15.6667) rotate(-90) scale(9.66667)">
<stop offset="0.723929" stop-color="#FFF700"/>
<stop offset="1" stop-color="#FF9901"/>
</radialGradient>
<linearGradient id="paint5_linear_24847_151863" x1="11.3334" y1="16.1667" x2="14" y2="16.1667" gradientUnits="userSpaceOnUse">
<stop stop-color="#FFF700"/>
<stop offset="1" stop-color="#FF9901"/>
</linearGradient>
<linearGradient id="paint6_linear_24847_151863" x1="3.83337" y1="8.66667" x2="3.83337" y2="6" gradientUnits="userSpaceOnUse">
<stop stop-color="#FFF700"/>
<stop offset="1" stop-color="#FF9901"/>
</linearGradient>
<radialGradient id="paint7_radial_24847_151863" cx="0" cy="0" r="1" gradientUnits="userSpaceOnUse" gradientTransform="translate(4.33337 15.6665) rotate(-90) scale(7)">
<stop offset="0.59513" stop-color="#00AAFF"/>
<stop offset="1" stop-color="#01DA40"/>
</radialGradient>
<radialGradient id="paint8_radial_24847_151863" cx="0" cy="0" r="1" gradientUnits="userSpaceOnUse" gradientTransform="translate(8.50008 16.1665) scale(2.83333 7.55556)">
<stop stop-color="#00AAFF"/>
<stop offset="1" stop-color="#01DA40"/>
</radialGradient>
<radialGradient id="paint9_radial_24847_151863" cx="0" cy="0" r="1" gradientUnits="userSpaceOnUse" gradientTransform="translate(3.83337 11.4998) rotate(-90) scale(2.83333 53.7284)">
<stop stop-color="#00AAFF"/>
<stop offset="1" stop-color="#01DA40"/>
</radialGradient>
</defs>
</svg>
