<svg width="20" height="20" viewBox="0 0 20 20" fill="none" xmlns="http://www.w3.org/2000/svg">
<path d="M18.75 4.82258L10.25 0.0650704C10.0955 -0.0216901 9.90451 -0.0216901 9.75 0.0650704L1.25 4.82258C1.09549 4.90934 1 5.06939 1 5.24291V14.7579C1 14.9315 1.09549 15.0915 1.25 15.1783L9.75 19.9349C9.90451 20.0217 10.0955 20.0217 10.25 19.9349L18.75 15.1783C18.9045 15.0915 19 14.9315 19 14.7579V5.24459C19 5.07107 18.9054 4.91019 18.75 4.82258ZM10 1.04639L17.8585 5.44507C16.6285 6.12483 15.5234 6.99749 14.5877 8.02767C12.8099 5.99427 10.3411 3.98699 6.98785 2.73275L10 1.04639ZM16.3628 11.3574C16.1389 11.3574 15.9358 11.2285 15.8455 11.0289C15.7292 10.7518 15.8655 10.4351 16.1519 10.3214C16.4375 10.2085 16.7639 10.3407 16.8811 10.6187C16.9089 10.6836 16.9227 10.7535 16.9227 10.8234C16.9227 10.8933 16.9089 10.9632 16.8811 11.0281C16.7917 11.2277 16.5885 11.3566 16.3637 11.3574H16.3628ZM16.3628 9.72835C16.2283 9.72835 16.0955 9.75362 15.9696 9.80079C15.6493 9.34171 15.3021 8.87422 14.9106 8.40335C15.7483 7.47341 16.7274 6.6732 17.8151 6.03218C17.2491 7.22998 16.7769 8.46653 16.4019 9.73256C16.388 9.73256 16.3759 9.72835 16.362 9.72835H16.3628ZM14.2578 8.3983C13.355 9.4529 12.6311 10.6061 12.0503 11.7601C11.77 7.81119 8.64149 4.71729 6.96181 3.24152C10.1806 4.47807 12.5503 6.42976 14.2578 8.3983ZM11.7005 13.4776C11.4766 13.4776 11.2734 13.3487 11.1832 13.1499C11.1554 13.0851 11.1415 13.0151 11.1415 12.9444C11.1354 12.6437 11.3811 12.3943 11.691 12.3884C12.0009 12.3825 12.2578 12.6209 12.2639 12.9216C12.27 13.2224 12.0243 13.4717 11.7144 13.4776H11.7005ZM11.5469 11.8637C11.4505 11.8755 11.3559 11.8982 11.2656 11.9327C10.0885 10.3702 8.67448 8.98962 7.07205 7.8373C7.17274 7.67221 7.22569 7.48436 7.22743 7.29231C7.22743 6.78017 6.86024 6.33626 6.34549 6.22507V3.35692C7.88976 4.6836 11.2951 7.8373 11.5469 11.8637ZM6.61371 7.497C6.48871 7.77413 6.15625 7.90048 5.87066 7.77918C5.74045 7.72359 5.63628 7.62335 5.57986 7.497C5.55208 7.43214 5.53819 7.36307 5.53819 7.29316C5.54774 6.99328 5.80556 6.75743 6.11372 6.7667C6.40972 6.77512 6.64757 7.00592 6.65625 7.29316C6.65625 7.36307 6.64149 7.43298 6.61371 7.497ZM5.84462 3.37292V6.22591C5.57986 6.28488 5.34635 6.43481 5.18663 6.64793C4.26302 6.13831 3.29514 5.70704 2.29427 5.36084L5.84462 3.37377V3.37292ZM2.00173 6.22086C2.74913 7.29484 4.21701 9.58683 5.1059 12.1492C5.09635 12.1551 5.08507 12.1602 5.07552 12.1669C4.12587 11.3684 3.09635 10.665 2.00087 10.0678V6.22086H2.00173ZM6.27257 13.0716C6.27257 13.1415 6.25781 13.2114 6.2309 13.2754C6.1059 13.5526 5.77257 13.6789 5.48698 13.5576C5.35677 13.502 5.25347 13.4018 5.19618 13.2754C5.07986 12.9975 5.21788 12.6816 5.50434 12.5687C5.7908 12.4558 6.11632 12.5898 6.23264 12.8677C6.25955 12.9326 6.27344 13.0017 6.27344 13.0716H6.27257ZM5.81771 16.6136L2.00173 14.4791V10.6296C2.97135 11.1814 3.88628 11.8207 4.73264 12.5384C4.42361 13.0564 4.60677 13.7193 5.14062 14.0192C5.29427 14.1051 5.46701 14.1548 5.6441 14.1632C5.80122 14.9854 5.87934 15.8125 5.81857 16.6136H5.81771ZM6.29687 16.8823C6.3967 15.965 6.32552 15.0199 6.15017 14.0824C6.20312 14.0596 6.25434 14.0327 6.30295 14.0024C7.65451 15.4343 8.7934 17.0423 9.68576 18.7809L6.29601 16.8823H6.29687ZM9.9566 18.225C9.06858 16.5723 7.96007 15.0401 6.65885 13.6688C7 13.1642 6.85503 12.4862 6.33507 12.1551C6.15017 12.0372 5.93403 11.9749 5.71267 11.9757C5.67014 11.9774 5.62847 11.9816 5.58681 11.9875C4.67101 9.33329 3.15885 6.99497 2.3967 5.91341C3.2908 6.23855 4.15712 6.63276 4.98611 7.09268C4.97309 7.15838 4.96615 7.22493 4.96528 7.29147C4.96528 7.89711 5.47222 8.38735 6.09635 8.38735C6.32378 8.38735 6.54688 8.31996 6.73438 8.1953C8.3125 9.32403 9.70399 10.6802 10.8602 12.2158C10.4453 12.658 10.4783 13.3437 10.934 13.7463C10.9948 13.8002 11.0616 13.8474 11.1337 13.887C10.6111 15.297 10.2179 16.7484 9.95747 18.225H9.9566ZM10.3767 18.7439C10.6276 17.1375 11.0391 15.559 11.6059 14.0302C11.6372 14.0302 11.6675 14.0394 11.7005 14.0394C11.8229 14.0377 11.9444 14.0175 12.0599 13.9779C12.6415 14.9323 13.145 15.9296 13.5642 16.9606L10.3776 18.7439H10.3767ZM14.0009 16.7155C13.5764 15.6837 13.0694 14.6855 12.4861 13.7294C12.9314 13.3142 12.9462 12.6268 12.5182 12.1939C12.4905 12.1661 12.4609 12.1391 12.4306 12.1147C12.9948 10.9708 13.6953 9.82522 14.5807 8.77904C14.9375 9.21115 15.2569 9.64074 15.553 10.0619C15.1198 10.4932 15.1285 11.1831 15.5729 11.6025C15.6623 11.6868 15.7656 11.7567 15.8785 11.8081C15.5946 13.1592 15.4453 14.5339 15.4323 15.9128L14.0017 16.7147L14.0009 16.7155ZM15.9358 15.6331C15.967 14.3856 16.112 13.1423 16.3689 11.9201C16.4774 11.9184 16.5859 11.9007 16.6892 11.8687C17.171 12.7195 17.5885 13.6031 17.9392 14.512L15.9358 15.6331ZM17.9983 13.3529C17.776 12.8576 17.4826 12.268 17.1224 11.6287C17.5816 11.2277 17.6189 10.5412 17.2049 10.0956C17.1137 9.99705 17.0043 9.91535 16.8819 9.8547C17.1901 8.82284 17.5634 7.81035 18 6.82313L17.9983 13.3521V13.3529Z" fill="#FF5050"/>
</svg>
