<svg width="20" height="20" viewBox="0 0 20 20" fill="none" xmlns="http://www.w3.org/2000/svg">
<path d="M14.6412 1.76061C14.1206 2.2752 13.6438 2.83293 13.2199 3.42763L13.0858 3.3845C12.3128 3.1349 11.5118 2.98084 10.7045 2.92845C10.4614 2.90996 9.55434 2.90996 9.25823 2.92845C8.36367 2.987 7.67795 3.1195 6.89871 3.38758C6.86754 3.3999 6.83949 3.40915 6.81144 3.41839C6.37195 2.82677 5.88259 2.27212 5.34336 1.7637C7.93042 0.454114 10.957 0.296964 13.6656 1.32922C13.9554 1.43707 14.2391 1.56341 14.5165 1.69899L14.6412 1.76061ZM19.4662 13.4482C19.0735 14.5545 18.4844 15.5805 17.7207 16.4741C17.3062 16.9548 16.848 17.3955 16.3555 17.7961C15.2022 18.7143 13.8557 19.3706 12.4188 19.7157C10.8292 20.0948 9.17096 20.0948 7.58132 19.7157C6.1413 19.3706 4.7979 18.7143 3.64464 17.7961C3.15216 17.3955 2.69397 16.9548 2.27942 16.4741C0.0819817 13.9074 -0.585042 10.3823 0.533937 7.20539C0.745888 6.61685 1.01083 6.04988 1.32875 5.51064C1.47525 5.26413 1.65603 4.98681 1.74331 4.8728C2.04253 6.1454 2.41033 7.26394 2.54748 7.6676C2.53812 7.68917 2.52566 7.71382 2.51319 7.73539C1.78694 9.18979 1.39421 10.5918 1.3007 12.0832C1.3007 12.1017 1.29759 12.1233 1.29759 12.1417C1.27265 12.5885 1.28512 12.8012 1.35992 13.0816C1.59369 13.9598 2.31371 14.9273 3.44203 15.8764C5.29038 17.4294 7.79639 18.551 9.6946 18.6804C11.6739 18.8129 14.5944 17.6697 16.5394 15.9996C16.8448 15.7315 17.1316 15.4481 17.3997 15.1461C17.5929 14.9242 17.8797 14.5421 17.8578 14.5421C17.8516 14.5421 17.8578 14.536 17.8703 14.5298C17.8797 14.5236 17.889 14.5144 17.8828 14.5082C17.8797 14.5052 17.8859 14.4959 17.8953 14.4928C17.9046 14.4897 17.9108 14.4836 17.9077 14.4774C17.9046 14.4713 17.9077 14.4651 17.9202 14.462C17.9295 14.4589 17.9327 14.4497 17.9295 14.4435C17.9264 14.4374 17.9295 14.4312 17.9358 14.4312C17.942 14.4312 17.9482 14.422 17.9482 14.4158C17.9482 14.4096 17.9545 14.4004 17.9607 14.4004C17.9669 14.4004 17.9732 14.3942 17.9732 14.3881C17.9825 14.3634 17.9981 14.3388 18.0137 14.3172C18.0604 14.2463 18.2475 13.9166 18.2724 13.8611C18.4501 13.4636 18.5623 13.1093 18.6153 12.7549C18.6402 12.5855 18.6558 12.2742 18.6433 12.2003C18.6402 12.188 18.6402 12.1664 18.6371 12.1325C18.6308 12.0709 18.6277 11.9784 18.6215 11.886C18.6153 11.7473 18.6028 11.5532 18.5934 11.4577C18.4594 10.0587 18.0979 8.91555 17.4121 7.70457C17.3841 7.65835 17.3591 7.61213 17.3436 7.57516C17.3373 7.56591 17.3342 7.55667 17.3311 7.5505C17.4277 7.26394 17.8236 6.06529 18.1384 4.69408L18.1446 4.70024L18.1914 4.76187C18.2724 4.86971 18.4875 5.19018 18.5841 5.34424C19.0236 6.05296 19.3664 6.81406 19.6096 7.60905C20.1737 9.52258 20.127 11.5624 19.4662 13.4482Z" fill="#F00500"/>
<path d="M15.4204 9.76601C15.4111 9.81531 15.2646 9.96322 15.1181 10.0711C14.6879 10.3823 13.918 10.6719 13.1357 10.8106C12.69 10.8907 12.2443 10.903 12.1102 10.8383C12.0229 10.7952 12.0105 10.7613 12.0417 10.6504C12.1071 10.4193 12.3191 10.1666 12.6495 9.92932C12.8178 9.80915 13.5004 9.39933 13.8183 9.22677C14.3419 8.94328 14.7658 8.77381 15.0526 8.73375C15.143 8.72143 15.2521 8.71834 15.2864 8.73375C15.3425 8.75532 15.4048 8.91863 15.4298 9.11584C15.4422 9.22061 15.436 9.68281 15.4204 9.76601ZM8.07691 10.7859C8.05821 10.8229 7.9647 10.863 7.85873 10.8784C7.75275 10.8938 7.42859 10.8845 7.24469 10.863C6.5839 10.7767 5.88259 10.5764 5.37142 10.3299C5.08466 10.1912 4.87894 10.0526 4.72621 9.90159L4.63894 9.81223L4.62959 9.69514C4.614 9.49177 4.61712 9.1713 4.64205 9.05729C4.65764 8.96177 4.69192 8.86933 4.73868 8.78613C4.76361 8.75532 4.76361 8.75532 4.87582 8.75532C5.01297 8.75532 5.12829 8.77689 5.31531 8.83543C5.69869 8.95253 6.26909 9.23601 6.96417 9.64892C7.53768 9.98787 7.75275 10.1543 7.91795 10.3823C8.03016 10.524 8.10497 10.7243 8.07691 10.7859ZM12.4905 15.0752C12.4905 15.0844 12.4531 15.2324 12.4063 15.408C12.3596 15.5836 12.3222 15.7254 12.3222 15.7315C12.2879 15.7346 12.2567 15.7377 12.2224 15.7346H12.1227L11.9855 16.0551C11.9107 16.2307 11.8422 16.394 11.8328 16.4187L11.8141 16.4618L11.6832 16.2523V15.3988L11.6583 15.4049C11.6053 15.4172 11.2281 15.4665 11.0629 15.4819C10.3803 15.5497 9.6946 15.5343 9.01511 15.4388C8.90602 15.4234 8.81251 15.4111 8.80939 15.4142C8.80628 15.4172 8.80939 15.6144 8.81563 15.8579L8.82498 16.2954L8.77199 16.3755C8.74394 16.4187 8.71588 16.4557 8.71588 16.4587C8.70653 16.468 8.67536 16.4187 8.60367 16.2769C8.52575 16.129 8.46965 15.9719 8.42913 15.8086L8.40731 15.7192L8.31068 15.7254L8.21406 15.7346L8.18912 15.6206C8.17665 15.559 8.16107 15.4635 8.15484 15.4111L8.14548 15.3125L8.06444 15.2416C8.01769 15.2015 7.97094 15.1615 7.96159 15.1553C7.946 15.143 7.93977 15.1214 7.93977 15.1029V15.066L8.719 15.0721L8.74394 15.1522L8.87796 15.1584C8.95277 15.1615 9.18966 15.1676 9.40161 15.1738L9.79123 15.1831L9.89097 15.029L9.99383 14.8749H10.1247L10.1185 14.234L9.94707 14.16C9.39538 13.9197 9.07121 13.6455 8.94965 13.3127C8.92472 13.2449 8.92472 13.2202 8.91849 12.9121C8.91537 12.607 8.91537 12.5793 8.93719 12.5115C8.98082 12.3574 9.10238 12.2373 9.25823 12.1972C9.31122 12.1818 9.45148 12.1818 10.1871 12.1818L11.0536 12.1849L11.1502 12.2311C11.2655 12.2866 11.3185 12.3266 11.384 12.4129C11.4588 12.5115 11.4806 12.5885 11.4806 12.7765C11.4806 13.0446 11.4619 13.2757 11.4338 13.3681C11.3933 13.4945 11.331 13.6146 11.2531 13.7225C11.0972 13.9197 10.8136 14.1169 10.5549 14.2063L10.4801 14.234L10.4863 14.8811L10.6234 14.8934L10.717 15.0321L10.8073 15.1707H11.225C11.4557 15.1707 11.6583 15.1738 11.677 15.1769C11.7081 15.1831 11.7144 15.18 11.7455 15.1276L11.7829 15.0721H12.1414C12.4094 15.0598 12.4905 15.066 12.4905 15.0752Z" fill="black"/>
<path d="M10.8447 15.9596C10.7855 15.9935 10.745 16.0089 10.7357 16.0027C10.7263 15.9996 10.6827 15.9626 10.6359 15.9287L10.5518 15.861L10.4645 15.9534C10.2744 16.1568 10.2681 16.166 10.212 16.1691C10.1247 16.1783 10.106 16.1629 10.0001 16.0058C9.94396 15.9257 9.90032 15.8579 9.90032 15.8579C9.90032 15.8579 9.8598 15.8517 9.81304 15.8486L9.72577 15.8394L9.64473 16.0058L9.57304 15.9842C9.51694 15.9657 9.46083 15.9441 9.40784 15.9195L9.31433 15.8733V15.6976L10.9725 15.7038L10.9757 15.787C10.9788 15.8856 10.9819 15.8825 10.8447 15.9596Z" fill="black"/>
<path d="M18.6371 12.2003C18.634 12.188 18.634 12.1664 18.6308 12.1325C17.8828 12.0524 15.7477 12.0031 13.7653 13.6208C13.7653 13.6208 13.1263 10.7243 10.1341 10.7243C7.14183 10.7243 6.03221 13.6208 6.03221 13.6208C4.3553 11.8367 2.1111 11.9661 1.3007 12.0832C1.3007 12.1017 1.29759 12.1233 1.29759 12.1417C1.27265 12.5885 1.28512 12.8012 1.35992 13.0816C1.59369 13.9598 2.31371 14.9273 3.44203 15.8764C5.29038 17.4294 7.79639 18.551 9.6946 18.6804C11.6739 18.8129 14.5944 17.6697 16.5394 15.9996C16.8448 15.7315 17.1316 15.4481 17.3997 15.1461C17.5929 14.9242 17.8797 14.5421 17.8578 14.5421C17.8516 14.5421 17.8578 14.536 17.8703 14.5298C17.8797 14.5236 17.889 14.5144 17.8828 14.5082C17.8797 14.5052 17.8859 14.4959 17.8953 14.4928C17.9046 14.4897 17.9108 14.4836 17.9077 14.4774C17.9046 14.4713 17.9077 14.4651 17.9202 14.462C17.9295 14.4589 17.9327 14.4497 17.9295 14.4435C17.9264 14.4374 17.9295 14.4312 17.9358 14.4312C17.942 14.4312 17.9482 14.422 17.9482 14.4158C17.9482 14.4096 17.9545 14.4004 17.9607 14.4004C17.9669 14.4004 17.9732 14.3942 17.9732 14.3881C17.9825 14.3634 17.9981 14.3388 18.0137 14.3172C18.0604 14.2463 18.2475 13.9166 18.2724 13.8611C18.4501 13.4636 18.5623 13.1093 18.6153 12.7549C18.634 12.5855 18.6495 12.2742 18.6371 12.2003ZM10.8447 15.9596C10.7855 15.9935 10.745 16.0089 10.7357 16.0027C10.7263 15.9996 10.6827 15.9626 10.6359 15.9287L10.5518 15.861L10.4645 15.9534C10.2744 16.1568 10.2681 16.166 10.212 16.1691C10.1247 16.1783 10.106 16.1629 10.0001 16.0058C9.94396 15.9257 9.90032 15.8579 9.90032 15.8579C9.90032 15.8579 9.8598 15.8517 9.81304 15.8486L9.72577 15.8394L9.64473 16.0058L9.57304 15.9842C9.51694 15.9657 9.46083 15.9441 9.40784 15.9195L9.31433 15.8733V15.6976L10.9725 15.7038L10.9757 15.787C10.9788 15.8856 10.9819 15.8825 10.8447 15.9596ZM12.4032 15.4049C12.3565 15.5805 12.3191 15.7223 12.3191 15.7285C12.2848 15.7315 12.2536 15.7346 12.2193 15.7315H12.1196L11.9855 16.0551C11.9107 16.2307 11.8422 16.394 11.8328 16.4187L11.8141 16.4618L11.6832 16.2523V15.3988L11.6583 15.4049C11.6053 15.4172 11.2281 15.4665 11.0629 15.4819C10.3803 15.5497 9.6946 15.5343 9.01511 15.4388C8.90602 15.4234 8.81251 15.4111 8.80939 15.4142C8.80628 15.4172 8.80939 15.6144 8.81563 15.8579L8.82498 16.2954L8.77199 16.3755C8.74394 16.4187 8.71588 16.4557 8.71588 16.4587C8.70653 16.468 8.67536 16.4187 8.60367 16.2769C8.52575 16.129 8.46965 15.9719 8.42913 15.8086L8.40731 15.7192L8.31068 15.7254L8.21406 15.7346L8.18912 15.6206C8.17665 15.559 8.16107 15.4635 8.15484 15.4111L8.14548 15.3125L8.06444 15.2416C8.01769 15.2015 7.97094 15.1615 7.96159 15.1553C7.946 15.143 7.93977 15.1214 7.93977 15.1029V15.066L8.719 15.0721L8.74394 15.1522L8.87796 15.1584C8.95277 15.1615 9.18966 15.1676 9.40161 15.1738L9.79123 15.1831L9.89097 15.029L9.99383 14.8749H10.1247L10.1185 14.234L9.94707 14.16C9.39538 13.9197 9.07121 13.6455 8.94965 13.3127C8.92472 13.2449 8.92472 13.2202 8.91849 12.9121C8.91537 12.607 8.91537 12.5793 8.93719 12.5115C8.98082 12.3574 9.10238 12.2373 9.25823 12.1972C9.31122 12.1818 9.45148 12.1818 10.1871 12.1818L11.0536 12.1849L11.1502 12.2311C11.2655 12.2866 11.3185 12.3266 11.384 12.4129C11.4588 12.5115 11.4806 12.5885 11.4806 12.7765C11.4806 13.0446 11.4619 13.2757 11.4338 13.3681C11.3933 13.4945 11.331 13.6146 11.2531 13.7225C11.0972 13.9197 10.8136 14.1169 10.5549 14.2063L10.4801 14.234L10.4863 14.8811L10.6234 14.8934L10.717 15.0321L10.8073 15.1707H11.225C11.4557 15.1707 11.6583 15.1738 11.677 15.1769C11.7081 15.1831 11.7144 15.18 11.7455 15.1276L11.7829 15.0721H12.1414C12.4188 15.0721 12.4998 15.0752 12.4998 15.0844C12.4905 15.0814 12.45 15.2324 12.4032 15.4049Z" fill="white"/>
<path d="M18.6121 11.886C18.6059 11.7473 18.5934 11.5532 18.5841 11.4577C18.4501 10.0587 18.0885 8.91555 17.4028 7.70457C17.3747 7.65835 17.3498 7.61213 17.3342 7.57516C17.328 7.56591 17.3249 7.55667 17.3217 7.5505C17.4184 7.26394 17.8142 6.06529 18.129 4.69408C18.556 2.83293 18.8272 0.657484 17.9981 0.00423437C17.9981 0.00423437 16.5643 -0.100532 14.6443 1.76061C14.1238 2.2752 13.6469 2.83293 13.223 3.42763L13.0889 3.3845C12.3159 3.1349 11.5149 2.98084 10.7076 2.92845C10.4645 2.90996 9.55746 2.90996 9.26135 2.92845C8.36679 2.987 7.68106 3.1195 6.90183 3.38758C6.87066 3.3999 6.84261 3.40915 6.81456 3.41839C6.37507 2.82677 5.88571 2.27212 5.34648 1.7637C3.34853 -0.106695 1.86175 0.00115301 1.86175 0.00115301C0.982775 0.675973 1.282 2.95002 1.73707 4.8728C2.0363 6.1454 2.4041 7.26394 2.54124 7.6676C2.53189 7.68917 2.51942 7.71382 2.50695 7.73539C1.78071 9.18979 1.38798 10.5918 1.29447 12.0832C2.10799 11.9661 4.34906 11.8336 6.02909 13.6208C6.02909 13.6208 7.13872 10.7243 10.131 10.7243C13.1232 10.7243 13.7622 13.6208 13.7622 13.6208C15.7446 12.0031 17.8797 12.0555 18.6277 12.1325C18.6246 12.0709 18.6184 11.9784 18.6121 11.886ZM3.13034 6.50592C3.13034 6.50592 1.96461 3.62484 2.26383 1.97939C2.31371 1.70207 2.40721 1.45864 2.55371 1.27376C2.55371 1.27376 3.87529 1.40318 6.00727 3.74502C6.00727 3.74502 5.60207 3.93914 5.05972 4.35205C5.05972 4.35205 5.05661 4.35513 5.05349 4.35513C4.46439 4.80192 3.71009 5.51064 3.13034 6.50592ZM8.07691 10.7859C8.05821 10.8229 7.9647 10.863 7.85873 10.8784C7.75275 10.8938 7.42859 10.8845 7.24469 10.863C6.5839 10.7767 5.88259 10.5764 5.37142 10.3299C5.08466 10.1912 4.87894 10.0526 4.72621 9.90159L4.63894 9.81223L4.62959 9.69514C4.614 9.49177 4.61712 9.1713 4.64205 9.05729C4.65764 8.96177 4.69192 8.86933 4.73868 8.78613C4.76361 8.75532 4.76361 8.75532 4.87582 8.75532C5.01297 8.75532 5.12829 8.77689 5.31531 8.83543C5.69869 8.95253 6.26909 9.23601 6.96417 9.64892C7.53768 9.98787 7.75275 10.1543 7.91795 10.3823C8.03016 10.524 8.10497 10.7243 8.07691 10.7859ZM15.4204 9.76601C15.4111 9.81531 15.2646 9.96322 15.1181 10.0711C14.6879 10.3823 13.918 10.6719 13.1357 10.8106C12.69 10.8907 12.2443 10.903 12.1102 10.8383C12.0229 10.7952 12.0105 10.7613 12.0417 10.6504C12.1071 10.4193 12.3191 10.1666 12.6495 9.92932C12.8178 9.80915 13.5004 9.39933 13.8183 9.22677C14.3419 8.94328 14.7658 8.77381 15.0526 8.73375C15.143 8.72143 15.2521 8.71834 15.2864 8.73375C15.3425 8.75532 15.4048 8.91863 15.4298 9.11584C15.4422 9.22061 15.436 9.68281 15.4204 9.76601ZM14.903 4.35205L14.8968 4.34896C14.3731 3.93606 13.9804 3.74193 13.9804 3.74193C16.0407 1.40009 17.3155 1.27068 17.3155 1.27068C17.4558 1.45864 17.5462 1.69899 17.596 1.97631C17.8859 3.62176 16.7607 6.50592 16.7607 6.50592C16.29 5.67703 15.6573 4.94367 14.903 4.35205Z" fill="#FFA409"/>
<path d="M17.5991 1.97631C17.356 1.9455 16.2059 1.93933 14.903 4.35205L14.8968 4.34896C14.3731 3.93606 13.9804 3.74193 13.9804 3.74193C16.0407 1.40009 17.3155 1.27068 17.3155 1.27068C17.4589 1.45864 17.5493 1.69899 17.5991 1.97631Z" fill="#FF9300"/>
<path d="M16.7638 6.50592C16.29 5.67395 15.6604 4.94367 14.903 4.35205C16.2059 1.93933 17.3529 1.9455 17.5991 1.97631C17.889 3.62484 16.7638 6.50592 16.7638 6.50592Z" fill="#FF8300"/>
<path d="M6.00727 3.74193C6.00727 3.74193 5.60207 3.93606 5.05972 4.34896C5.05972 4.34896 5.05661 4.35205 5.05349 4.35205C3.70386 1.93625 2.51631 1.9455 2.26072 1.97631C2.31059 1.69899 2.4041 1.45556 2.55059 1.27068C2.55371 1.27068 3.87529 1.40009 6.00727 3.74193Z" fill="#FF9300"/>
<path d="M5.05661 4.35205C4.46439 4.80192 3.71009 5.50756 3.13034 6.50592C3.13034 6.50592 1.96461 3.62484 2.26383 1.97631C2.51631 1.9455 3.70697 1.93933 5.05661 4.35205ZM2.26383 1.97631C2.24825 1.97939 2.22955 1.98247 2.21396 1.98555L2.26383 1.97631Z" fill="#FF8300"/>
<path d="M13.6095 8.10515C13.6095 8.10515 12.612 8.16678 12.7367 7.39644C12.8614 6.62609 13.6406 6.53365 13.8588 6.56447C14.077 6.59528 14.9497 6.90342 14.7939 7.5505C14.6381 8.19759 14.4199 8.07434 14.2952 8.10515C14.1705 8.13597 13.6095 8.10515 13.6095 8.10515ZM6.25351 8.10515C6.25351 8.10515 5.25609 8.16678 5.38077 7.39644C5.50544 6.62609 6.28468 6.53365 6.50286 6.56447C6.72105 6.59528 7.59379 6.90342 7.43794 7.5505C7.28209 8.19759 7.06391 8.07434 6.93923 8.10515C6.81456 8.13597 6.25351 8.10515 6.25351 8.10515Z" fill="white"/>
</svg>
