<svg width="20" height="20" viewBox="0 0 20 20" fill="none" xmlns="http://www.w3.org/2000/svg">
<path d="M0 1V19H16.2587V16.9824H1.94711V3.01756H16.2587V1H0Z" fill="white"/>
<path d="M17.8735 7.91755C17.8735 7.48986 17.712 7.11796 17.3889 6.8019C17.0659 6.48574 16.6173 6.32765 16.034 6.32765C15.5405 6.32765 15.1547 6.42995 14.8676 6.64382C14.5804 6.85764 14.4369 7.13659 14.4369 7.48986C14.4369 7.67581 14.4728 7.84318 14.5445 7.99192C14.6163 8.14071 14.733 8.27087 14.9034 8.39174C15.0739 8.51261 15.2982 8.61491 15.5854 8.70786C15.8635 8.8008 16.2225 8.88452 16.6531 8.96818C17.7388 9.17276 18.5644 9.51674 19.1386 9.99088C19.7129 10.4744 20 11.181 20 12.12V12.306C20 12.8081 19.9103 13.2543 19.7398 13.6634C19.5693 14.0632 19.3181 14.4072 18.9951 14.6954C18.672 14.9837 18.2772 15.1975 17.8106 15.3556C17.344 15.5043 16.8236 15.588 16.2404 15.588C15.5584 15.588 14.9662 15.4857 14.4458 15.2905C13.9254 15.0953 13.4947 14.8163 13.1537 14.463C12.8128 14.1097 12.5436 13.7006 12.3731 13.2264C12.1936 12.7523 12.1039 12.2316 12.1039 11.6738V11.5808H14.051C14.051 12.2223 14.2305 12.7337 14.5894 13.1242C14.9483 13.5054 15.5046 13.7006 16.2673 13.7006C16.8595 13.7006 17.2992 13.5704 17.5863 13.3008C17.8735 13.0312 18.017 12.7151 18.017 12.3525C18.017 12.1758 17.9901 12.0178 17.9273 11.8504C17.8644 11.6924 17.7658 11.5529 17.6133 11.4227C17.4697 11.2926 17.2633 11.181 17.0031 11.0787C16.7429 10.9764 16.4198 10.8928 16.0251 10.8184C15.5046 10.7254 15.0291 10.6046 14.5894 10.4558C14.1587 10.307 13.7818 10.1117 13.4588 9.87001C13.1358 9.62827 12.8935 9.32144 12.7141 8.9496C12.5346 8.57764 12.4449 8.13142 12.4449 7.60144V7.50849C12.4449 7.07146 12.5346 6.6624 12.7051 6.2905C12.8756 5.91857 13.1179 5.59318 13.4319 5.31425C13.7459 5.03533 14.1138 4.82149 14.5535 4.67273C14.9932 4.52397 15.4777 4.44029 16.0251 4.44029C16.6352 4.44029 17.1736 4.53327 17.6491 4.70992C18.1247 4.88657 18.5195 5.12831 18.8425 5.43512C19.1655 5.74195 19.3809 6.10456 19.5693 6.49503C19.8026 6.96922 19.8116 7.93613 19.8116 7.93613L17.8735 7.91755Z" fill="white"/>
</svg>
