<svg width="20" height="20" viewBox="0 0 20 20" fill="none" xmlns="http://www.w3.org/2000/svg">
<path fill-rule="evenodd" clip-rule="evenodd" d="M8.57796 5.95604C8.57796 5.0989 9.28347 4.76923 10.452 4.76923C12.1276 4.76923 14.244 5.27472 15.9197 6.17582V1.01099C14.0897 0.285714 12.2819 0 10.452 0C5.97638 0 3 2.32967 3 6.21978C3 12.2857 11.378 11.3187 11.378 13.9341C11.378 14.945 10.4961 15.2748 9.26141 15.2748C7.4315 15.2748 5.09449 14.5274 3.24252 13.5164V18.7472C5.29291 19.6263 7.36535 20 9.26141 20C13.8472 20 17 17.7362 17 13.8022C16.9779 7.25275 8.57796 8.41758 8.57796 5.95604Z" fill="#635BFF"/>
</svg>
