<svg width="20" height="20" viewBox="0 0 20 20" fill="none" xmlns="http://www.w3.org/2000/svg">
<path d="M10 20C15.5228 20 20 15.5228 20 10C20 4.47715 15.5228 0 10 0C4.47715 0 0 4.47715 0 10C0 15.5228 4.47715 20 10 20Z" fill="#26A17B"/>
<path d="M11.0653 10.9223V10.9207C10.9961 10.9255 10.6392 10.9464 9.845 10.9464C9.20995 10.9464 8.76462 10.9287 8.60706 10.9207V10.9223C6.16494 10.8145 4.34339 10.3901 4.34339 9.88046C4.34339 9.37242 6.16654 8.94637 8.60706 8.83866V10.4994C8.76622 10.5107 9.22442 10.538 9.85626 10.538C10.6151 10.538 10.9945 10.5059 11.0653 10.4994V8.84027C13.5026 8.94959 15.3193 9.37403 15.3193 9.88207C15.3193 10.3901 13.5009 10.8145 11.0653 10.9239M11.0653 8.66824V7.18271H14.4656V4.91744H5.20835V7.18271H8.60867V8.66824C5.845 8.79525 3.76783 9.34188 3.76783 9.99782C3.76783 10.6538 5.84661 11.2004 8.60867 11.329V16.0911H11.0669V11.329C13.8257 11.202 15.8997 10.6554 15.8997 9.99943C15.8997 9.34509 13.8257 8.79686 11.0669 8.66985" fill="white"/>
</svg>
