<svg width="20" height="20" viewBox="0 0 20 20" fill="none" xmlns="http://www.w3.org/2000/svg">
<path d="M13.2845 1.79921L17.4733 5.86406C17.8299 6.20932 18.0053 6.55868 17.9998 6.91073C17.9943 7.26278 17.8409 7.58367 17.541 7.87479C17.2273 8.17946 16.8887 8.33383 16.5267 8.34058C16.1646 8.34602 15.8053 8.1754 15.4487 7.83013L11.1646 3.6732C10.6781 3.20066 10.2083 2.8662 9.75637 2.66986C9.30445 2.47353 8.82905 2.44238 8.33154 2.57779C7.83265 2.71184 7.29785 3.05712 6.72433 3.61227C5.93385 4.38002 5.55655 5.10037 5.59526 5.77334C5.63394 6.44628 6.02642 7.14497 6.77132 7.86669L11.09 12.0588C11.4507 12.4081 11.6275 12.7575 11.622 13.1041C11.6165 13.4521 11.4617 13.773 11.1563 14.0695C10.8523 14.3647 10.5165 14.5191 10.1516 14.5313C9.78677 14.5435 9.42331 14.3742 9.06399 14.0249L4.87524 9.96002C4.19393 9.29926 3.70194 8.67369 3.39929 8.08331C3.09664 7.49296 2.98332 6.82542 3.06209 6.0807C3.13257 5.44295 3.34125 4.8255 3.68951 4.22703C4.03638 3.62852 4.53389 3.0165 5.17928 2.38958C5.94765 1.6435 6.68147 1.0721 7.38076 0.674005C8.07866 0.275918 8.75442 0.0552089 9.40671 0.00917152C10.0604 -0.0368659 10.7044 0.090414 11.3415 0.39101C11.9786 0.691608 12.6254 1.16011 13.2832 1.79921H13.2845Z" fill="url(#paint0_linear_24847_151941)"/>
<path d="M6.71402 18.2015L2.52666 14.1366C2.17011 13.79 1.9946 13.442 2.00013 13.0899C2.00565 12.7379 2.15905 12.417 2.45894 12.1259C2.77265 11.8212 3.11123 11.6668 3.47331 11.6601C3.83539 11.6547 4.1947 11.8239 4.55125 12.1705L8.83396 16.3275C9.32181 16.8 9.7903 17.1345 10.2422 17.3308C10.6941 17.5271 11.1695 17.5569 11.6684 17.4229C12.1673 17.2888 12.7021 16.9435 13.2756 16.387C14.0661 15.6193 14.4434 14.8989 14.4047 14.226C14.366 13.553 13.9735 12.8543 13.2287 12.1313L10.9277 9.91741C10.567 9.56808 10.3901 9.21872 10.3956 8.87211C10.4011 8.52413 10.5559 8.2032 10.8613 7.90668C11.1654 7.61147 11.5012 7.45714 11.866 7.44495C12.2309 7.43276 12.5943 7.60201 12.9536 7.95137L15.1233 10.0379C15.8046 10.6987 16.2966 11.3243 16.5993 11.9146C16.9019 12.505 17.0152 13.1725 16.9365 13.9173C16.866 14.555 16.6573 15.1725 16.3091 15.771C15.9622 16.3694 15.4647 16.9815 14.8193 17.6084C14.0509 18.3545 13.3171 18.9259 12.6178 19.3239C11.9185 19.7221 11.2428 19.9441 10.5891 19.9901C9.93542 20.0362 9.29141 19.9089 8.65434 19.6083C8.01723 19.3077 7.37046 18.8392 6.71264 18.2001L6.71402 18.2015Z" fill="url(#paint1_linear_24847_151941)"/>
<path d="M9.32647 7.71332C10.176 7.71332 10.8646 7.03859 10.8646 6.20625C10.8646 5.37394 10.176 4.69922 9.32647 4.69922C8.47698 4.69922 7.78833 5.37394 7.78833 6.20625C7.78833 7.03859 8.47698 7.71332 9.32647 7.71332Z" fill="url(#paint2_radial_24847_151941)"/>
<defs>
<linearGradient id="paint0_linear_24847_151941" x1="16.7844" y1="4.1674" x2="3.89186" y2="10.0151" gradientUnits="userSpaceOnUse">
<stop stop-color="#201C1B"/>
<stop offset="0.36" stop-color="#77390D"/>
<stop offset="0.67" stop-color="#EA8101"/>
<stop offset="1" stop-color="#F4B852"/>
</linearGradient>
<linearGradient id="paint1_linear_24847_151941" x1="3.57298" y1="16.0007" x2="18.5649" y2="11.4468" gradientUnits="userSpaceOnUse">
<stop stop-color="#1F1D1C"/>
<stop offset="0.37" stop-color="#77390D"/>
<stop offset="0.67" stop-color="#EA8101"/>
<stop offset="1" stop-color="#F4FB52"/>
</linearGradient>
<radialGradient id="paint2_radial_24847_151941" cx="0" cy="0" r="1" gradientUnits="userSpaceOnUse" gradientTransform="translate(9.32647 6.20763) scale(1.53813 1.50705)">
<stop stop-color="#F4B852"/>
<stop offset="0.33" stop-color="#EA8101"/>
<stop offset="0.64" stop-color="#77390D"/>
<stop offset="1" stop-color="#211C1D"/>
</radialGradient>
</defs>
</svg>
