<svg width="20" height="20" viewBox="0 0 20 20" fill="none" xmlns="http://www.w3.org/2000/svg">
<path d="M20 1.2967V8.13034L0 16.205L20 1.2967Z" fill="#00C9FF"/>
<path d="M16.2506 1V12.7885C16.2506 14.4358 15.5921 16.0158 14.4199 17.1807C13.2477 18.3456 11.6579 19 10.0002 19C8.34251 19 6.75269 18.3456 5.58051 17.1807C4.40834 16.0158 3.74981 14.4358 3.74981 12.7885V7.82112L7.4994 5.77042V12.7885C7.46432 13.0948 7.49471 13.405 7.58862 13.6988C7.68256 13.9926 7.83786 14.2633 8.04443 14.4933C8.25099 14.7233 8.5041 14.9073 8.78719 15.0333C9.07032 15.1593 9.377 15.2245 9.68722 15.2245C9.9974 15.2245 10.3041 15.1593 10.5872 15.0333C10.8703 14.9073 11.1235 14.7233 11.33 14.4933C11.5365 14.2633 11.6919 13.9926 11.7858 13.6988C11.8797 13.405 11.9101 13.0948 11.875 12.7885V3.37895L16.2506 1Z" fill="#0D67FE"/>
</svg>
