<svg width="20" height="20" viewBox="0 0 20 20" fill="none" xmlns="http://www.w3.org/2000/svg">
<path fill-rule="evenodd" clip-rule="evenodd" d="M10 0C15.5229 0 20 4.47714 20 10C20 15.5229 15.5229 20 10 20C4.47714 20 0 15.5229 0 10C0 4.47714 4.47714 0 10 0Z" fill="#2775CA"/>
<path fill-rule="evenodd" clip-rule="evenodd" d="M12.2989 2.95296C12.0731 2.88106 11.8885 3.01465 11.8885 3.25094V3.83208C11.8885 3.99052 12.0083 4.17085 12.1575 4.22537C14.5537 5.10038 16.2684 7.39665 16.2684 10.0851C16.2684 12.7735 14.5537 15.0696 12.1575 15.9447C11.9939 16.0044 11.8885 16.1643 11.8885 16.338V16.9191C11.8885 17.1553 12.0731 17.289 12.2989 17.2171C15.327 16.2525 17.5198 13.4241 17.5198 10.0851C17.5198 6.74601 15.327 3.91756 12.2989 2.95296ZM8.13426 3.25094C8.13426 3.01465 7.94967 2.88106 7.72392 2.95296C4.69568 3.91756 2.5029 6.74596 2.5029 10.0851C2.5029 13.4242 4.69568 16.2525 7.72392 17.2171C7.94966 17.289 8.13426 17.1553 8.13426 16.9191V16.338C8.13426 16.1795 8.01448 15.9992 7.86525 15.9447C5.46906 15.0696 3.75431 12.7734 3.75431 10.0851C3.75431 7.39669 5.46906 5.10038 7.86525 4.22537C8.01448 4.17085 8.13426 3.99052 8.13426 3.83208V3.25094ZM10.3243 5.09451H9.69853C9.52578 5.09451 9.38572 5.23412 9.38572 5.40639V6.37271C8.14526 6.54853 7.34338 7.37152 7.34338 8.42733C7.34338 9.79399 8.17203 10.3243 9.92108 10.5589C11.1077 10.7526 11.4454 11.0075 11.4454 11.6807C11.4454 12.3537 10.8723 12.8026 10.0645 12.8026C8.97215 12.8026 8.61264 12.326 8.48006 11.7092C8.44866 11.563 8.32314 11.4562 8.17325 11.4562H7.45958C7.27981 11.4562 7.13926 11.6177 7.17016 11.7942C7.35189 12.8325 8.02069 13.5942 9.38572 13.7788V14.7636C9.38572 14.936 9.52578 15.0756 9.69853 15.0756H10.3243C10.497 15.0756 10.6371 14.936 10.6371 14.7636V13.7783C11.9293 13.5737 12.7548 12.6768 12.7548 11.5685C12.7548 10.1101 11.8648 9.62051 10.1461 9.38604C8.87769 9.20247 8.63235 8.90661 8.63235 8.31507C8.63235 7.75429 9.06188 7.35637 9.89054 7.35637C10.64 7.35637 11.0711 7.61718 11.2491 8.21854C11.2889 8.35277 11.4093 8.44764 11.5497 8.44764H12.2079C12.3914 8.44764 12.5342 8.27949 12.4951 8.10069C12.2867 7.15034 11.6442 6.58004 10.6371 6.40015V5.40639C10.6371 5.23412 10.497 5.09451 10.3243 5.09451Z" fill="white"/>
</svg>
