<svg width="20" height="20" viewBox="0 0 20 20" fill="none" xmlns="http://www.w3.org/2000/svg">
<path d="M4.60034 2.9931H4.96421V2H4.60034C4.21456 1.99964 3.8325 2.08002 3.47601 2.23655C3.11954 2.39308 2.79563 2.62268 2.52284 2.91221C2.25006 3.20175 2.03374 3.54553 1.88627 3.9239C1.73879 4.30226 1.66306 4.70778 1.6634 5.11724V7.37931C1.66418 7.85828 1.49232 8.31942 1.18303 8.66821C0.873752 9.01699 0.450484 9.22699 0 9.25517L0.0259906 9.75172L0 10.2483C0.450484 10.2765 0.873752 10.4865 1.18303 10.8352C1.49232 11.184 1.66418 11.6452 1.6634 12.1241V14.731C1.66202 15.5961 1.98428 16.4263 2.55936 17.0393C3.13444 17.6523 3.91528 17.9978 4.73029 18V17.0069C4.16517 17.0065 3.62327 16.7681 3.22367 16.344C2.82406 15.9199 2.5994 15.3446 2.59906 14.7448V12.1241C2.59945 11.6563 2.49188 11.1954 2.28573 10.7818C2.07959 10.3683 1.78114 10.0146 1.41649 9.75172C1.7801 9.48772 2.07776 9.13382 2.28377 8.72051C2.4898 8.3072 2.598 7.8469 2.59906 7.37931V5.11724C2.60145 4.55466 2.81307 4.01586 3.18787 3.61806C3.56266 3.22025 4.0703 2.99564 4.60034 2.9931Z" fill="white"/>
<path d="M15.4127 2.9931H15.0488V2H15.4127C16.1898 2.00219 16.9343 2.33176 17.4825 2.91628C18.0308 3.5008 18.338 4.29244 18.3366 5.11724V7.37931C18.3358 7.85828 18.5076 8.31942 18.8169 8.66821C19.1262 9.01699 19.5495 9.22699 20 9.25517L19.974 9.75172L20 10.2483C19.5495 10.2765 19.1262 10.4865 18.8169 10.8352C18.5076 11.184 18.3358 11.6452 18.3366 12.1241V14.731C18.338 15.5961 18.0157 16.4263 17.4407 17.0393C16.8655 17.6523 16.0848 17.9978 15.2697 18V17.0069C15.8349 17.0065 16.3768 16.7681 16.7764 16.344C17.176 15.9199 17.4005 15.3446 17.4009 14.7448V12.1241C17.4005 11.6563 17.5082 11.1954 17.7143 10.7818C17.9204 10.3683 18.2189 10.0146 18.5835 9.75172C18.2199 9.48772 17.9222 9.13381 17.7162 8.72051C17.5102 8.3072 17.402 7.8469 17.4009 7.37931V5.11724C17.4024 4.83905 17.3519 4.56331 17.2527 4.30583C17.1534 4.04837 17.0072 3.81425 16.8224 3.6169C16.6377 3.41953 16.4181 3.26284 16.1761 3.1558C15.9342 3.04875 15.6748 2.99346 15.4127 2.9931Z" fill="white"/>
<path d="M13.4122 6H14.8027L11.9047 8.88276C11.3848 9.38211 10.7086 9.65862 10.0074 9.65862C9.30621 9.65862 8.63003 9.38211 8.1101 8.88276L5.21214 6H6.60264L8.79885 8.17931C9.12681 8.49879 9.55576 8.67604 10.0009 8.67604C10.4461 8.67604 10.875 8.49879 11.203 8.17931L13.4122 6Z" fill="white"/>
<path d="M6.58987 14.0002H5.19937L8.11032 11.1036C8.62738 10.5981 9.30465 10.3175 10.0076 10.3175C10.7106 10.3175 11.3879 10.5981 11.9049 11.1036L14.8159 14.0002H13.4254L11.2162 11.7933C10.8882 11.4738 10.4593 11.2966 10.0141 11.2966C9.56898 11.2966 9.14003 11.4738 8.81207 11.7933L6.58987 14.0002Z" fill="white"/>
</svg>
