<svg width="20" height="20" viewBox="0 0 20 20" fill="none" xmlns="http://www.w3.org/2000/svg">
<path d="M19.9631 19.7041V16.0754C19.9631 15.9302 19.8908 15.7851 19.8185 15.6762L4.37598 0.145149C4.26748 0.0362871 4.12282 0 3.97816 0H0.361651C0.180826 0 0.0361651 0.145149 0.0361651 0.326587V3.70133C0.0361651 3.84648 0.108495 3.99162 0.180826 4.10049L5.71409 9.65248C5.85874 9.79764 5.85874 9.97907 5.71409 10.1242L0.108495 15.7488C0.036165 15.8214 0 15.894 0 15.9665V19.6678C0 19.8493 0.144661 19.9944 0.325485 19.9944H6.40123C6.58205 19.9944 6.72671 19.8493 6.72671 19.6678V17.4906C6.72671 17.418 6.76288 17.3091 6.8352 17.2729L9.83691 14.261C9.98156 14.1159 10.1624 14.1159 10.3071 14.261L15.8765 19.8493C15.985 19.9582 16.1296 19.9944 16.2743 19.9944H19.6376C19.8185 20.0307 19.9631 19.8855 19.9631 19.7041Z" fill="white"/>
<path d="M11.8267 4.78995H14.8646C15.0454 4.78995 15.19 4.9351 15.19 5.11654V8.16469C15.19 8.45499 15.5517 8.60014 15.7326 8.38241L19.8915 4.20935C19.9638 4.13678 20 4.0642 20 3.99162V0.326587C20 0.145149 19.8554 0 19.6746 0H15.9857C15.9134 0 15.8049 0.036287 15.7687 0.108862L11.6097 4.24563C11.3927 4.42708 11.5374 4.78995 11.8267 4.78995Z" fill="#EE7A30"/>
</svg>
