<svg width="16" height="16" viewBox="0 0 16 16" fill="none" xmlns="http://www.w3.org/2000/svg">
<g clip-path="url(#clip0_11980_173)">
<path d="M4.0004 13.5C3.86779 13.5 3.74061 13.4473 3.64685 13.3535C3.55308 13.2598 3.5004 13.1326 3.5004 13V10.3319C3.23367 10.4581 2.93935 10.5148 2.64483 10.4967C2.3503 10.4786 2.06512 10.3864 1.81581 10.2286C1.5665 10.0707 1.36115 9.85237 1.21886 9.59387C1.07657 9.33536 1.00195 9.04507 1.00195 8.74999C1.00195 8.45491 1.07657 8.16462 1.21886 7.90612C1.36115 7.64761 1.5665 7.42928 1.81581 7.27143C2.06512 7.11358 2.3503 7.02134 2.64483 7.00327C2.93935 6.98521 3.23367 7.04192 3.5004 7.16812V4.49999C3.5004 4.36738 3.55308 4.24021 3.64685 4.14644C3.74061 4.05267 3.86779 3.99999 4.0004 3.99999H6.91852C6.79219 3.73326 6.73536 3.4389 6.75333 3.14431C6.77131 2.84971 6.8635 2.56445 7.02133 2.31505C7.17916 2.06566 7.39751 1.86023 7.65605 1.71788C7.9146 1.57553 8.20494 1.50089 8.50009 1.50089C8.79523 1.50089 9.08558 1.57553 9.34412 1.71788C9.60267 1.86023 9.82101 2.06566 9.97884 2.31505C10.1367 2.56445 10.2289 2.84971 10.2468 3.14431C10.2648 3.4389 10.208 3.73326 10.0816 3.99999H13.0004C13.133 3.99999 13.2602 4.05267 13.354 4.14644C13.4477 4.24021 13.5004 4.36738 13.5004 4.49999V7.16812C13.2337 7.04192 12.9394 6.98521 12.6448 7.00327C12.3503 7.02134 12.0651 7.11358 11.8158 7.27143C11.5665 7.42928 11.3612 7.64761 11.2189 7.90612C11.0766 8.16462 11.002 8.45491 11.002 8.74999C11.002 9.04507 11.0766 9.33536 11.2189 9.59387C11.3612 9.85237 11.5665 10.0707 11.8158 10.2286C12.0651 10.3864 12.3503 10.4786 12.6448 10.4967C12.9394 10.5148 13.2337 10.4581 13.5004 10.3319V13C13.5004 13.1326 13.4477 13.2598 13.354 13.3535C13.2602 13.4473 13.133 13.5 13.0004 13.5H4.0004Z" stroke="black" stroke-linecap="round" stroke-linejoin="round"/>
</g>
<defs>
<clipPath id="clip0_11980_173">
<rect width="16" height="16" fill="white"/>
</clipPath>
</defs>
</svg>
