<svg width="16" height="16" viewBox="0 0 16 16" fill="none" xmlns="http://www.w3.org/2000/svg">
<path d="M7.5 5.5L5.5 14" stroke="black" stroke-linecap="round" stroke-linejoin="round"/>
<path d="M3.66875 9.50001C3.28567 8.8358 3.06048 8.09239 3.01059 7.32725C2.96071 6.56211 3.08747 5.79575 3.38106 5.08743C3.67466 4.3791 4.12723 3.74779 4.70378 3.24231C5.28033 2.73683 5.96541 2.37072 6.70605 2.17229C7.44669 1.97386 8.22305 1.94842 8.97509 2.09795C9.72712 2.24749 10.4347 2.56797 11.0431 3.03464C11.6515 3.50131 12.1444 4.10164 12.4837 4.78923C12.8231 5.47682 12.9997 6.23325 13 7.00001C13 9.76126 11 11.5 9 11.5C7 11.5 6.39813 10.1831 6.39813 10.1831" stroke="black" stroke-linecap="round" stroke-linejoin="round"/>
</svg>
