<svg width="20" height="20" viewBox="0 0 20 20" fill="none" xmlns="http://www.w3.org/2000/svg">
<path d="M10 2.5L11.1918 6.92651C11.3372 7.46667 11.41 7.73674 11.5535 7.95754C11.6805 8.15291 11.8471 8.31947 12.0425 8.4465C12.2632 8.59 12.5333 8.66275 13.0735 8.80817L17.5 10L13.0735 11.1918C12.5333 11.3372 12.2632 11.41 12.0425 11.5535C11.8471 11.6805 11.6805 11.8471 11.5535 12.0425C11.41 12.2632 11.3372 12.5333 11.1918 13.0735L10 17.5L8.80817 13.0735C8.66275 12.5333 8.59 12.2632 8.4465 12.0425C8.31947 11.8471 8.15291 11.6805 7.95754 11.5535C7.73674 11.41 7.46667 11.3372 6.92651 11.1918L2.5 10L6.92651 8.80817C7.46667 8.66275 7.73674 8.59 7.95754 8.4465C8.15291 8.31947 8.31947 8.15291 8.4465 7.95754C8.59 7.73674 8.66275 7.46667 8.80817 6.92651L10 2.5Z" stroke="black" stroke-width="1.5" stroke-linecap="round" stroke-linejoin="round"/>
</svg>
