<svg width="16" height="16" viewBox="0 0 16 16" fill="none" xmlns="http://www.w3.org/2000/svg">
<path d="M9.33301 3.73341C9.33301 3.36005 9.33301 3.17336 9.40567 3.03075C9.46961 2.90531 9.57154 2.80333 9.69701 2.73941C9.83961 2.66675 10.0263 2.66675 10.3997 2.66675H12.2663C12.6397 2.66675 12.8264 2.66675 12.969 2.73941C13.0945 2.80333 13.1964 2.90531 13.2603 3.03075C13.333 3.17336 13.333 3.36005 13.333 3.73341V5.60008C13.333 5.97345 13.333 6.16013 13.2603 6.30274C13.1964 6.42818 13.0945 6.53017 12.969 6.59409C12.8264 6.66675 12.6397 6.66675 12.2663 6.66675H10.3997C10.0263 6.66675 9.83961 6.66675 9.69701 6.59409C9.57154 6.53017 9.46961 6.42818 9.40567 6.30274C9.33301 6.16013 9.33301 5.97345 9.33301 5.60008V3.73341Z" stroke="black" stroke-linecap="round" stroke-linejoin="round"/>
<path d="M2.66699 3.73341C2.66699 3.36005 2.66699 3.17336 2.73965 3.03075C2.80357 2.90531 2.90556 2.80333 3.031 2.73941C3.17361 2.66675 3.36029 2.66675 3.73366 2.66675H5.60033C5.97369 2.66675 6.16038 2.66675 6.30299 2.73941C6.42843 2.80333 6.53041 2.90531 6.59433 3.03075C6.66699 3.17336 6.66699 3.36005 6.66699 3.73341V5.60008C6.66699 5.97345 6.66699 6.16013 6.59433 6.30274C6.53041 6.42818 6.42843 6.53017 6.30299 6.59409C6.16038 6.66675 5.97369 6.66675 5.60033 6.66675H3.73366C3.36029 6.66675 3.17361 6.66675 3.031 6.59409C2.90556 6.53017 2.80357 6.42818 2.73965 6.30274C2.66699 6.16013 2.66699 5.97345 2.66699 5.60008V3.73341Z" fill="black" stroke="black" stroke-linecap="round" stroke-linejoin="round"/>
<path d="M2.66699 10.3999C2.66699 10.0265 2.66699 9.83985 2.73965 9.69725C2.80357 9.57178 2.90556 9.46985 3.031 9.40592C3.17361 9.33325 3.36029 9.33325 3.73366 9.33325H5.60033C5.97369 9.33325 6.16038 9.33325 6.30299 9.40592C6.42843 9.46985 6.53041 9.57178 6.59433 9.69725C6.66699 9.83985 6.66699 10.0265 6.66699 10.3999V12.2666C6.66699 12.64 6.66699 12.8267 6.59433 12.9693C6.53041 13.0947 6.42843 13.1967 6.30299 13.2606C6.16038 13.3333 5.97369 13.3333 5.60033 13.3333H3.73366C3.36029 13.3333 3.17361 13.3333 3.031 13.2606C2.90556 13.1967 2.80357 13.0947 2.73965 12.9693C2.66699 12.8267 2.66699 12.64 2.66699 12.2666V10.3999Z" stroke="black" stroke-linecap="round" stroke-linejoin="round"/>
<path d="M9.33301 10.3999C9.33301 10.0265 9.33301 9.83985 9.40567 9.69725C9.46961 9.57178 9.57154 9.46985 9.69701 9.40592C9.83961 9.33325 10.0263 9.33325 10.3997 9.33325H12.2663C12.6397 9.33325 12.8264 9.33325 12.969 9.40592C13.0945 9.46985 13.1964 9.57178 13.2603 9.69725C13.333 9.83985 13.333 10.0265 13.333 10.3999V12.2666C13.333 12.64 13.333 12.8267 13.2603 12.9693C13.1964 13.0947 13.0945 13.1967 12.969 13.2606C12.8264 13.3333 12.6397 13.3333 12.2663 13.3333H10.3997C10.0263 13.3333 9.83961 13.3333 9.69701 13.2606C9.57154 13.1967 9.46961 13.0947 9.40567 12.9693C9.33301 12.8267 9.33301 12.64 9.33301 12.2666V10.3999Z" stroke="black" stroke-linecap="round" stroke-linejoin="round"/>
</svg>
