<svg width="115" height="20" viewBox="0 0 115 20" fill="none" xmlns="http://www.w3.org/2000/svg">
<path d="M10.5197 14.3127C10.5176 14.4401 10.4657 14.5614 10.3753 14.6502C10.2849 14.7391 10.1633 14.7881 10.0372 14.7866H1.15134C1.37919 17.0074 3.0277 19.0386 5.35975 19.0386C6.95466 19.0386 8.13408 18.4292 9.01865 17.1428C9.05984 17.0752 9.11682 17.0189 9.18458 16.9788C9.25235 16.9386 9.32884 16.9159 9.40733 16.9126C9.46586 16.9109 9.52412 16.9213 9.57853 16.9432C9.63294 16.9651 9.68237 16.9979 9.72378 17.0398C9.76518 17.0816 9.7977 17.1315 9.81934 17.1865C9.84097 17.2415 9.85128 17.3003 9.84961 17.3595C9.84992 17.4412 9.82663 17.5212 9.7826 17.5897C8.88463 19.1605 7.10209 19.9323 5.35975 19.9323C2.37098 19.9323 0.226562 17.2241 0.226562 14.3398C0.226562 11.4555 2.35757 8.74724 5.35975 8.74724C8.36193 8.74724 10.5063 11.4284 10.5197 14.3127ZM9.56816 13.8929C9.38052 11.6722 7.6918 9.64096 5.35975 9.64096C3.0277 9.64096 1.37919 11.6722 1.15134 13.8929H9.56816Z" fill="black"/>
<path d="M21.3258 8.9642C21.442 8.96761 21.5526 9.01578 21.6348 9.09886C21.717 9.18194 21.7647 9.29363 21.7681 9.41107C21.7698 9.47021 21.7595 9.52907 21.7378 9.58405C21.7162 9.63902 21.6837 9.68896 21.6423 9.73079C21.6009 9.77263 21.5514 9.80548 21.497 9.82734C21.4426 9.8492 21.3843 9.85961 21.3258 9.85793H18.9402V19.3233C18.9391 19.4415 18.8922 19.5545 18.8095 19.6381C18.7267 19.7217 18.6148 19.7691 18.4979 19.7701C18.3816 19.7667 18.2711 19.7186 18.1889 19.6355C18.1066 19.5524 18.059 19.4407 18.0556 19.3233V9.85793H15.7637C15.7052 9.85961 15.647 9.8492 15.5925 9.82734C15.5381 9.80548 15.4887 9.77263 15.4473 9.73079C15.4059 9.68896 15.3734 9.63902 15.3517 9.58405C15.3301 9.52907 15.3198 9.47021 15.3215 9.41107C15.3225 9.29288 15.3694 9.17983 15.4522 9.09626C15.5349 9.01269 15.6468 8.96527 15.7637 8.9642H18.0556V5.51118C18.0558 5.39676 18.0964 5.28618 18.1701 5.1993C18.2438 5.11243 18.3458 5.05496 18.4577 5.03724C18.5202 5.02885 18.5838 5.03419 18.6441 5.05292C18.7044 5.07164 18.76 5.1033 18.8071 5.14572C18.8542 5.18815 18.8916 5.24035 18.9169 5.29875C18.9422 5.35714 18.9547 5.42037 18.9536 5.4841V8.9642H21.3258Z" fill="black"/>
<path d="M35.8597 13.5413V19.2692C35.8563 19.3867 35.8086 19.4984 35.7264 19.5814C35.6442 19.6645 35.5336 19.7127 35.4174 19.7161C35.3589 19.7178 35.3006 19.7074 35.2462 19.6855C35.1918 19.6636 35.1424 19.6308 35.101 19.5889C35.0595 19.5471 35.027 19.4972 35.0054 19.4422C34.9838 19.3872 34.9735 19.3284 34.9751 19.2692V13.5413C34.9751 11.6049 33.8895 9.68201 31.7585 9.68201C29.0244 9.68201 27.845 12.0924 28.0058 14.5704C28.0058 14.6381 28.0326 14.9225 28.0326 14.9631V19.2557C28.0324 19.3701 27.9917 19.4807 27.918 19.5676C27.8443 19.6544 27.7424 19.7119 27.6305 19.7296C27.568 19.738 27.5044 19.7327 27.4441 19.7139C27.3838 19.6952 27.3282 19.6636 27.2811 19.6211C27.234 19.5787 27.1966 19.5265 27.1713 19.4681C27.146 19.4097 27.1335 19.3465 27.1346 19.2828V0.446862C27.1357 0.328675 27.1826 0.215629 27.2653 0.132055C27.348 0.0484804 27.4599 0.00106004 27.5769 0C27.6931 0.00340612 27.8037 0.0515795 27.8859 0.134655C27.9681 0.217731 28.0158 0.329424 28.0192 0.446862V11.0903C28.7831 9.70909 30.1502 8.77474 31.7451 8.77474C34.372 8.77474 35.8597 11.0903 35.8597 13.5413Z" fill="black"/>
<path d="M51.8258 14.3127C51.8237 14.4401 51.7717 14.5614 51.6813 14.6502C51.5909 14.7391 51.4694 14.7881 51.3433 14.7866H42.4574C42.6852 17.0074 44.3337 19.0386 46.6658 19.0386C48.2607 19.0386 49.4401 18.4292 50.3247 17.1428C50.3659 17.0752 50.4228 17.0189 50.4906 16.9788C50.5584 16.9386 50.6349 16.9159 50.7134 16.9126C50.7719 16.9109 50.8301 16.9213 50.8846 16.9432C50.939 16.9651 50.9884 16.9979 51.0298 17.0398C51.0712 17.0816 51.1037 17.1315 51.1254 17.1865C51.147 17.2415 51.1573 17.3003 51.1556 17.3595C51.156 17.4412 51.1327 17.5212 51.0886 17.5897C50.1907 19.1605 48.4081 19.9323 46.6658 19.9323C43.677 19.9323 41.5326 17.2241 41.5326 14.3398C41.5326 11.4555 43.6636 8.74724 46.6658 8.74724C49.6412 8.74724 51.8124 11.4284 51.8258 14.3127ZM50.8608 13.8929C50.6732 11.6722 48.9844 9.64096 46.6524 9.64096C44.3203 9.64096 42.6718 11.6722 42.444 13.8929H50.8608Z" fill="black"/>
<path d="M62.7535 9.38364C62.7621 9.50386 62.7231 9.6226 62.6453 9.71393C62.5674 9.80526 62.457 9.86177 62.3381 9.87112C59.7246 10.2638 58.5451 12.4169 58.5451 14.922V19.2146C58.5449 19.329 58.5043 19.4396 58.4306 19.5265C58.3569 19.6133 58.2549 19.6708 58.1431 19.6885C58.0805 19.6969 58.0169 19.6916 57.9566 19.6729C57.8963 19.6541 57.8407 19.6225 57.7936 19.5801C57.7466 19.5376 57.7091 19.4854 57.6838 19.427C57.6585 19.3686 57.646 19.3054 57.6472 19.2417V9.45134C57.6474 9.33692 57.688 9.22634 57.7617 9.13946C57.8354 9.05259 57.9374 8.99512 58.0492 8.9774C58.1118 8.96901 58.1754 8.97435 58.2357 8.99308C58.296 9.0118 58.3516 9.04346 58.3987 9.08588C58.4457 9.12831 58.4832 9.18051 58.5085 9.23891C58.5338 9.29731 58.5463 9.36053 58.5451 9.42426V11.4148C59.2823 10.1555 60.7432 8.96386 62.271 8.96386C62.4989 8.96386 62.7535 9.12635 62.7535 9.38364Z" fill="black"/>
<path d="M77.3606 14.3127C77.3585 14.4401 77.3065 14.5614 77.2161 14.6502C77.1257 14.7391 77.0042 14.7881 76.8781 14.7866H67.9922C68.22 17.0074 69.8686 19.0386 72.2006 19.0386C73.7955 19.0386 74.9749 18.4292 75.8595 17.1428C75.9007 17.0752 75.9577 17.0189 76.0254 16.9788C76.0932 16.9386 76.1697 16.9159 76.2482 16.9126C76.3067 16.9109 76.365 16.9213 76.4194 16.9432C76.4738 16.9651 76.5232 16.9979 76.5646 17.0398C76.606 17.0816 76.6386 17.1315 76.6602 17.1865C76.6818 17.2415 76.6921 17.3003 76.6905 17.3595C76.6908 17.4412 76.6675 17.5212 76.6235 17.5897C75.7255 19.1605 73.9429 19.9323 72.2006 19.9323C69.2118 19.9323 67.0674 17.2241 67.0674 14.3398C67.0674 11.4555 69.1984 8.74724 72.2006 8.74724C75.2028 8.74724 77.3472 11.4284 77.3606 14.3127ZM76.409 13.8929C76.2214 11.6722 74.5327 9.64096 72.2006 9.64096C69.8686 9.64096 68.22 11.6722 67.9922 13.8929H76.409Z" fill="black"/>
<path d="M91.7254 9.49198V19.3229C91.7221 19.4404 91.6744 19.5521 91.5921 19.6351C91.5099 19.7182 91.3994 19.7664 91.2831 19.7698C91.2246 19.7715 91.1664 19.7611 91.1119 19.7392C91.0575 19.7174 91.0081 19.6845 90.9667 19.6427C90.9253 19.6008 90.8928 19.5509 90.8711 19.4959C90.8495 19.4409 90.8392 19.3821 90.8409 19.3229V17.4542C90.1037 18.9302 88.8037 20 87.1417 20C84.5014 20 83.0406 17.6844 83.0406 15.2335V9.47844C83.0416 9.36025 83.0885 9.2472 83.1713 9.16363C83.254 9.08005 83.3659 9.03263 83.4828 9.03157C83.5991 9.03498 83.7096 9.08315 83.7919 9.16623C83.8741 9.2493 83.9218 9.361 83.9251 9.47844V15.2335C83.9251 17.1699 85.0107 19.0927 87.1417 19.0927C90.1305 19.0927 90.8409 16.2626 90.8409 13.1346V9.46489C90.8419 9.39245 90.86 9.3213 90.8938 9.2574C90.9276 9.19349 90.976 9.1387 91.0351 9.0976C91.0941 9.05649 91.1621 9.03028 91.2332 9.02115C91.3044 9.01202 91.3766 9.02024 91.444 9.04512C91.5282 9.08468 91.5995 9.14778 91.6494 9.22697C91.6992 9.30616 91.7256 9.39812 91.7254 9.49198Z" fill="black"/>
<path d="M114.227 13.5006V19.2557C114.223 19.3731 114.176 19.4848 114.093 19.5679C114.011 19.6509 113.901 19.6991 113.784 19.7025C113.726 19.7042 113.667 19.6938 113.613 19.6719C113.559 19.6501 113.509 19.6172 113.468 19.5754C113.426 19.5335 113.394 19.4836 113.372 19.4286C113.351 19.3737 113.34 19.3148 113.342 19.2557V13.5006C113.342 11.5642 112.256 9.66844 110.125 9.66844C107.445 9.66844 106.426 12.5663 106.426 14.8141V19.2557C106.423 19.3731 106.375 19.4848 106.293 19.5679C106.211 19.6509 106.1 19.6991 105.984 19.7025C105.925 19.7042 105.867 19.6938 105.813 19.6719C105.758 19.6501 105.709 19.6172 105.668 19.5754C105.626 19.5335 105.594 19.4836 105.572 19.4286C105.55 19.3737 105.54 19.3148 105.542 19.2557V13.5006C105.542 11.5642 104.456 9.66844 102.325 9.66844C99.6178 9.66844 98.5053 11.8215 98.5992 14.6922C98.5992 14.76 98.626 14.8818 98.5992 14.9224V19.2421C98.5989 19.3565 98.5583 19.4671 98.4846 19.554C98.4109 19.6409 98.309 19.6983 98.1971 19.7161C98.1346 19.7244 98.071 19.7191 98.0107 19.7004C97.9504 19.6817 97.8948 19.65 97.8477 19.6076C97.8006 19.5651 97.7631 19.5129 97.7379 19.4545C97.7126 19.3961 97.7001 19.3329 97.7012 19.2692V9.45178C97.7014 9.33736 97.742 9.22677 97.8157 9.1399C97.8894 9.05302 97.9914 8.99556 98.1033 8.97783C98.1658 8.96944 98.2294 8.97479 98.2897 8.99351C98.35 9.01223 98.4056 9.04389 98.4527 9.08632C98.4998 9.12874 98.5372 9.18094 98.5625 9.23934C98.5878 9.29774 98.6003 9.36096 98.5992 9.42469V11.0632C99.3631 9.68198 100.73 8.77471 102.325 8.77471C104.134 8.77471 105.542 9.93926 106.118 11.6319C106.855 9.9528 108.289 8.77471 110.125 8.77471C112.739 8.77471 114.227 11.0632 114.227 13.5006Z" fill="black"/>
</svg>
