<svg width="24" height="24" viewBox="0 0 24 24" fill="none" xmlns="http://www.w3.org/2000/svg">
<path d="M1.04764 15.9245C1.11972 16.1967 1.36579 16.3853 1.64723 16.3853H3.72232C4.09936 16.7951 4.98901 17.7031 6.1644 18.524C7.38649 19.3776 8.93564 20.15 10.5489 20.15C12.915 20.15 14.8735 18.8242 16.7237 17.5717L16.7458 17.5567L16.7459 17.5567L16.7925 17.5252C17.1458 17.2863 17.4924 17.052 17.8363 16.8313C18.1821 17.1746 18.7665 17.7292 19.3945 18.2148C19.7361 18.4788 20.0938 18.7251 20.4356 18.906C20.7739 19.085 21.1127 19.2088 21.4119 19.2088C22.1549 19.2088 22.6665 18.746 22.9845 18.2193C23.301 17.6949 23.4443 17.08 23.4443 16.7059C23.4443 15.6713 23.0479 14.8434 22.3621 14.4487L18.176 11.609L16.712 6.85001C16.4061 5.85557 15.6787 5.0601 14.7162 4.67038C13.7924 4.29571 12.3272 3.85 10.5884 3.85C9.46091 3.85 8.36011 3.97259 7.33177 4.1858C7.32627 4.18608 7.31918 4.18668 7.31104 4.18804L7.27928 4.19333L7.27304 4.1975C5.32413 4.61005 3.63403 5.37001 2.61975 6.38429L2.61972 6.38432C1.18893 7.81608 0.556055 9.5564 0.556055 12C0.556055 14.0569 1.02623 15.844 1.04764 15.9245ZM1.04764 15.9245L1.19264 15.8861M1.04764 15.9245C1.04765 15.9246 1.04767 15.9246 1.04768 15.9247L1.19264 15.8861M1.19264 15.8861C1.24723 16.0922 1.43358 16.2353 1.64723 16.2353H3.78841M1.19264 15.8861C1.17288 15.8118 0.706055 14.0386 0.706055 12C0.706055 9.58682 1.32911 7.888 2.72582 6.49035L3.78841 16.2353M3.78841 16.2353C4.47547 16.9911 7.41288 20 10.5489 20C12.8689 20 14.7943 18.6967 16.6574 17.4355L16.6618 17.4325L16.7091 17.4005C17.0966 17.1385 17.4782 16.8806 17.8571 16.64L3.78841 16.2353ZM3.4982 7.26281L3.49824 7.26277C3.6586 7.10241 3.84727 6.94887 4.05848 6.80172C4.05792 6.80281 4.05736 6.80391 4.0568 6.805C3.07095 8.72885 3.16609 11.4386 4.26748 14.8218C4.0834 14.9296 3.92382 15.0371 3.78759 15.1441H2.14125C2.00803 14.5084 1.79723 13.2987 1.79723 12C1.79723 9.88597 2.32657 8.43353 3.4982 7.26281ZM15.5255 7.21485L15.5255 7.21493L16.8191 11.4197C15.3862 11.54 13.2936 11.9258 11.187 12.4399C9.05876 12.9593 6.9046 13.6124 5.39114 14.2613C4.43154 11.2372 4.36388 8.92587 5.16139 7.37014C5.77275 6.17896 6.8062 5.6426 7.59416 5.40005C8.54186 5.20428 9.55794 5.09118 10.5884 5.09118C12.1256 5.09118 13.4273 5.48768 14.2497 5.81994C14.8638 6.06931 15.3298 6.57745 15.5255 7.21485ZM16.0506 16.529L16.0506 16.529C14.2951 17.7186 12.5283 18.9088 10.5498 18.9088C9.35391 18.9088 8.14295 18.3486 7.11058 17.6614C6.17764 17.0404 5.40489 16.3254 4.94113 15.8589C5.44723 15.576 6.22574 15.2534 7.16919 14.923C8.21735 14.5559 9.45909 14.1827 10.7358 13.8466C13.2677 13.18 15.9196 12.6642 17.467 12.6272L20.0581 14.3864C18.6711 14.754 17.3813 15.6276 16.0633 16.5204L16.0506 16.529ZM21.7733 15.5484L21.7733 15.5484L21.7766 15.5506L21.7901 15.5595C21.7939 15.562 21.7991 15.5654 21.8051 15.569C21.9369 15.6698 22.0368 15.8293 22.104 16.0306C22.1721 16.2343 22.2031 16.4708 22.2031 16.7059C22.2031 16.8518 22.1285 17.1812 21.9772 17.4747C21.9025 17.6196 21.8139 17.7462 21.7152 17.8349C21.6176 17.9226 21.517 17.9676 21.4119 17.9676C21.3416 17.9676 21.2086 17.9241 21.0125 17.8166C20.8241 17.7134 20.5992 17.5636 20.3534 17.3807C19.9094 17.0504 19.4064 16.6186 18.9416 16.1754C19.7769 15.7323 20.5909 15.4441 21.4119 15.4441C21.5404 15.4441 21.6468 15.4737 21.7351 15.5226L21.7733 15.5484Z" fill="black" stroke="black" stroke-width="0.3"/>
</svg>
