<svg width="16" height="16" viewBox="0 0 16 16" fill="none" xmlns="http://www.w3.org/2000/svg">
<path d="M0.746279 10.6036C0.788509 10.7631 0.932645 10.8736 1.09767 10.8736H2.50305C2.7439 11.1369 3.34233 11.7529 4.13774 12.3084C4.94918 12.8752 5.97169 13.3834 7.0321 13.3834C8.59414 13.3834 9.88875 12.507 11.1264 11.6692L11.1354 11.6632L11.1354 11.6631L11.1667 11.642C11.4136 11.475 11.6563 11.311 11.8972 11.1572C12.1225 11.3823 12.5257 11.7681 12.9598 12.1037C13.1863 12.2788 13.4222 12.4411 13.6466 12.5599C13.8699 12.678 14.0869 12.756 14.2741 12.756C14.7453 12.756 15.0727 12.4633 15.2797 12.1204C15.4862 11.7784 15.579 11.3773 15.579 11.1373C15.579 10.4584 15.3189 9.92608 14.881 9.67497L12.0742 7.77093L11.0931 4.58146C10.8935 3.93281 10.4192 3.41417 9.79159 3.16002C9.17966 2.91184 8.20936 2.61675 7.05845 2.61675C6.30885 2.61675 5.57693 2.69842 4.89335 2.84044C4.89087 2.84047 4.88655 2.84063 4.88176 2.84143L4.87117 2.84319L4.86794 2.84535C3.56951 3.11891 2.44959 3.6234 1.78137 4.29163L1.78136 4.29164C0.838858 5.23477 0.420215 6.38116 0.420215 8.00008C0.420215 9.36541 0.732634 10.5523 0.746279 10.6036ZM0.746279 10.6036C0.746277 10.6036 0.746275 10.6036 0.746273 10.6036L0.794607 10.5908L0.746285 10.6037C0.746283 10.6037 0.746281 10.6037 0.746279 10.6036ZM2.2963 4.80659L2.29632 4.80657C2.44764 4.65525 2.63503 4.5137 2.84746 4.38092C2.81327 4.43835 2.78017 4.49782 2.74854 4.55955C2.09675 5.83149 2.1599 7.63512 2.90462 9.90426C2.76222 9.98562 2.64182 10.0664 2.54198 10.1462H1.38649C1.29809 9.73273 1.14767 8.89851 1.14767 8.00008C1.14767 6.58105 1.50356 5.59871 2.2963 4.80659ZM10.3976 4.79531L10.3976 4.79533L11.2783 7.65805C10.326 7.73173 8.90354 7.99195 7.46934 8.34194C6.02766 8.69375 4.57013 9.13725 3.56276 9.57539C2.90595 7.53001 2.85035 5.955 3.39595 4.89068C3.81244 4.0792 4.51675 3.71531 5.04985 3.55163C5.68544 3.42018 6.36704 3.3442 7.05845 3.3442C8.09161 3.3442 8.96599 3.61064 9.51807 3.8337C9.94145 4.00561 10.2627 4.35601 10.3976 4.79531ZM10.728 11.0608L10.728 11.0608C9.56085 11.8517 8.36986 12.656 7.03272 12.656C6.22091 12.656 5.40361 12.2762 4.71219 11.8159C4.0547 11.3783 3.51633 10.8714 3.21235 10.5616C3.55148 10.3628 4.09734 10.1345 4.76245 9.90156C5.46272 9.65633 6.29185 9.40711 7.14396 9.18279C8.84102 8.73601 10.6234 8.3895 11.659 8.36787L13.4921 9.61243C12.5349 9.83686 11.6483 10.4374 10.7312 11.0586L10.728 11.0608ZM14.543 10.3242L14.543 10.3242L14.5441 10.3249C14.5447 10.3254 14.5459 10.3261 14.5473 10.3271C14.5514 10.3298 14.5581 10.3343 14.5641 10.3378C14.6638 10.4129 14.7358 10.53 14.7829 10.6713C14.8304 10.8134 14.8516 10.9766 14.8516 11.1373C14.8516 11.2445 14.7989 11.4719 14.6954 11.6728C14.644 11.7726 14.5815 11.8626 14.5098 11.9272C14.4383 11.9914 14.3598 12.0285 14.2741 12.0285C14.2133 12.0285 14.1148 11.9935 13.9838 11.9217C13.8554 11.8513 13.7034 11.75 13.5386 11.6273C13.2247 11.3938 12.8676 11.0853 12.543 10.7721C13.1243 10.4567 13.695 10.2462 14.2741 10.2462C14.3687 10.2462 14.4487 10.2682 14.5158 10.3059L14.543 10.3242Z" fill="black" stroke="black" stroke-width="0.1"/>
</svg>
