<svg width="28" height="28" viewBox="0 0 28 28" fill="none" xmlns="http://www.w3.org/2000/svg">
<path fill-rule="evenodd" clip-rule="evenodd" d="M14 -0.0078125C21.732 -0.0078125 28 6.26019 28 13.9922C28 21.7242 21.732 27.9922 14 27.9922C6.268 27.9922 0 21.7242 0 13.9922C0 6.26019 6.268 -0.0078125 14 -0.0078125Z" fill="#2775CA"/>
<path fill-rule="evenodd" clip-rule="evenodd" d="M17.2184 4.12633C16.9023 4.02567 16.6439 4.2127 16.6439 4.54351V5.3571C16.6439 5.57892 16.8116 5.83137 17.0205 5.90771C20.3752 7.13272 22.7758 10.3475 22.7758 14.1113C22.7758 17.875 20.3752 21.0896 17.0205 22.3148C16.7914 22.3984 16.6439 22.6221 16.6439 22.8654V23.6789C16.6439 24.0096 16.9023 24.1968 17.2184 24.0961C21.4578 22.7456 24.5277 18.7859 24.5277 14.1113C24.5277 9.4366 21.4578 5.47677 17.2184 4.12633ZM11.388 4.54351C11.388 4.2127 11.1295 4.02567 10.8135 4.12633C6.57396 5.47677 3.50406 9.43653 3.50406 14.1113C3.50406 18.786 6.57396 22.7456 10.8135 24.0961C11.1295 24.1968 11.388 24.0096 11.388 23.6789V22.8654C11.388 22.6435 11.2203 22.391 11.0114 22.3148C7.65669 21.0896 5.25603 17.8749 5.25603 14.1113C5.25603 10.3476 7.65669 7.13272 11.0114 5.90771C11.2203 5.83137 11.388 5.57892 11.388 5.3571V4.54351ZM14.454 7.1245H13.5779C13.3361 7.1245 13.14 7.31996 13.14 7.56113V8.91398C11.4034 9.16013 10.2807 10.3123 10.2807 11.7904C10.2807 13.7038 11.4408 14.4461 13.8895 14.7746C15.5508 15.0459 16.0236 15.4026 16.0236 16.3451C16.0236 17.2874 15.2213 17.9158 14.0902 17.9158C12.561 17.9158 12.0577 17.2485 11.8721 16.385C11.8281 16.1804 11.6524 16.0309 11.4425 16.0309H10.4434C10.1917 16.0309 9.99496 16.2569 10.0382 16.504C10.2926 17.9576 11.229 19.024 13.14 19.2825V20.6613C13.14 20.9025 13.3361 21.098 13.5779 21.098H14.454C14.6958 21.098 14.8919 20.9025 14.8919 20.6613V19.2818C16.701 18.9954 17.8567 17.7398 17.8567 16.188C17.8567 14.1464 16.6107 13.4609 14.2046 13.1326C12.4288 12.8756 12.0853 12.4614 12.0853 11.6333C12.0853 10.8482 12.6866 10.2911 13.8468 10.2911C14.896 10.2911 15.4995 10.6562 15.7487 11.4981C15.8044 11.6861 15.973 11.8189 16.1696 11.8189H17.091C17.3479 11.8189 17.5479 11.5835 17.4931 11.3332C17.2014 10.0027 16.3019 9.20425 14.8919 8.9524V7.56113C14.8919 7.31996 14.6958 7.1245 14.454 7.1245Z" fill="white"/>
</svg>
