<svg width="16" height="16" viewBox="0 0 16 16" fill="none" xmlns="http://www.w3.org/2000/svg">
<path fill-rule="evenodd" clip-rule="evenodd" d="M13.1845 2.95306C13.9098 2.64768 14.6873 3.26097 14.5593 4.03743L13.0467 13.2086C12.9008 14.0928 11.9296 14.6002 11.1183 14.1596C10.4395 13.7908 9.43227 13.2233 8.52454 12.6302C8.07127 12.334 6.68334 11.3842 6.85394 10.7082C6.9998 10.1301 9.33307 7.95817 10.6664 6.6665C11.1901 6.15912 10.9516 5.86601 10.3331 6.33317C8.79867 7.49204 6.33522 9.25397 5.52058 9.74984C4.80182 10.1873 4.42654 10.262 3.97891 10.1873C3.16149 10.0511 2.40365 9.84017 1.78493 9.5837C0.948678 9.23704 0.989412 8.08784 1.78436 7.75317L13.1845 2.95306Z" stroke="black"/>
</svg>
