<svg width="24" height="24" viewBox="0 0 24 24" fill="none" xmlns="http://www.w3.org/2000/svg">
<path d="M2.46433 9.34375C2.21579 9.34375 1.98899 9.14229 2.00041 8.87895C2.06733 7.33687 2.25481 6.33298 2.78008 5.53884C3.08228 5.08196 3.45765 4.68459 3.88923 4.36468C5.05575 3.5 6.70139 3.5 9.99266 3.5H14.0074C17.2986 3.5 18.9443 3.5 20.1108 4.36468C20.5424 4.68459 20.9177 5.08196 21.2199 5.53884C21.7452 6.33289 21.9327 7.33665 21.9996 8.87843C22.011 9.14208 21.7839 9.34375 21.5351 9.34375C20.1493 9.34375 19.0259 10.533 19.0259 12C19.0259 13.467 20.1493 14.6562 21.5351 14.6562C21.7839 14.6562 22.011 14.8579 21.9996 15.1216C21.9327 16.6634 21.7452 17.6671 21.2199 18.4612C20.9177 18.918 20.5424 19.3154 20.1108 19.6353C18.9443 20.5 17.2986 20.5 14.0074 20.5H9.99266C6.70139 20.5 5.05575 20.5 3.88923 19.6353C3.45765 19.3154 3.08228 18.918 2.78008 18.4612C2.25481 17.667 2.06733 16.6631 2.00041 15.1211C1.98899 14.8577 2.21579 14.6562 2.46433 14.6562C3.85012 14.6562 4.97352 13.467 4.97352 12C4.97352 10.533 3.85012 9.34375 2.46433 9.34375Z" stroke="black" stroke-width="2" stroke-linejoin="round"/>
<g clip-path="url(#clip0_11288_198)">
<path d="M9.75 13.5C9.75 14.3284 10.4216 15 11.25 15H12.75C13.5784 15 14.25 14.3284 14.25 13.5C14.25 12.6716 13.5784 12 12.75 12H11.25C10.4216 12 9.75 11.3284 9.75 10.5C9.75 9.67157 10.4216 9 11.25 9H12.75C13.5784 9 14.25 9.67157 14.25 10.5M12 8.25V15.75" stroke="black" stroke-width="1.25" stroke-linecap="round" stroke-linejoin="round"/>
</g>
<defs>
<clipPath id="clip0_11288_198">
<rect width="9" height="9" fill="white" transform="translate(7.5 7.5)"/>
</clipPath>
</defs>
</svg>
