<svg width="141" height="141" viewBox="0 0 141 141" fill="none" xmlns="http://www.w3.org/2000/svg">
<rect width="141" height="141" rx="8" fill="#DBDBD8"/>
<path fill-rule="evenodd" clip-rule="evenodd" d="M53.5397 12.0746C53.2999 12.0263 53.0573 12.067 52.845 12.1883L35.712 21.9786C33.7554 23.0966 32.2092 24.8128 31.3005 26.8749L17.9492 57.1719C17.6934 57.7524 17.9467 58.4309 18.5203 58.7017L37.3317 67.5849C37.9749 67.8886 38.7379 67.553 38.9488 66.8737L43.8146 51.195C43.8146 51.195 42.7405 72.0701 42.0596 85.4175C41.5246 95.9044 39.6817 110.904 38.9022 116.956C38.6984 118.538 39.572 120.06 41.0622 120.628C46.922 122.865 53.1746 128.122 71.6021 128.122C90.0296 128.122 95.9635 122.849 101.651 120.618C103.096 120.051 103.951 118.588 103.785 117.044C103.141 111.048 101.593 95.9437 101.145 85.4175C100.576 72.0649 99.3896 51.195 99.3896 51.195L103.696 66.8043C103.89 67.5094 104.677 67.8651 105.335 67.5455L123.574 58.6866C124.122 58.4202 124.374 57.7773 124.153 57.2092L112.468 27.2368C111.577 24.9509 109.916 23.048 107.771 21.8565L90.3554 12.181C90.1452 12.0643 89.9067 12.0258 89.671 12.0733C87.7053 12.4697 78.0874 14.34 71.6021 14.34C65.1239 14.34 55.5202 12.4739 53.5397 12.0746Z" fill="#121314"/>
<path fill-rule="evenodd" clip-rule="evenodd" d="M53.5397 12.0746C53.2999 12.0263 53.0573 12.067 52.845 12.1883L35.712 21.9786C33.7554 23.0966 32.2092 24.8128 31.3005 26.8749L17.9492 57.1719C17.6934 57.7524 17.9467 58.4309 18.5203 58.7017L37.3317 67.5849C37.9749 67.8886 38.7379 67.553 38.9488 66.8737L43.8146 51.195C43.8146 51.195 42.7405 72.0701 42.0596 85.4175C41.5246 95.9044 39.6817 110.904 38.9022 116.956C38.6984 118.538 39.572 120.06 41.0622 120.628C46.922 122.865 53.1746 128.122 71.6021 128.122C90.0296 128.122 95.9635 122.849 101.651 120.618C103.096 120.051 103.951 118.588 103.785 117.044C103.141 111.048 101.593 95.9437 101.145 85.4175C100.576 72.0649 99.3896 51.195 99.3896 51.195L103.696 66.8043C103.89 67.5094 104.677 67.8651 105.335 67.5455L123.574 58.6866C124.122 58.4202 124.374 57.7773 124.153 57.2092L112.468 27.2368C111.577 24.9509 109.916 23.048 107.771 21.8565L90.3554 12.181C90.1452 12.0643 89.9067 12.0258 89.671 12.0733C87.7053 12.4697 78.0874 14.34 71.6021 14.34C65.1239 14.34 55.5202 12.4739 53.5397 12.0746Z" stroke="#DBDBD8" stroke-linejoin="round"/>
<path d="M72.0461 42.7448L74.9511 51.5069C75.0983 51.951 75.5206 52.2517 75.9972 52.2517H85.398C86.4635 52.2517 86.9065 53.5879 86.0445 54.2017L78.4391 59.6169C78.0536 59.8914 77.8922 60.3779 78.0395 60.8221L80.9445 69.5841C81.2738 70.5772 80.1139 71.403 79.2519 70.7892L71.6465 65.374C71.261 65.0995 70.739 65.0995 70.3535 65.374L62.7481 70.7892C61.886 71.403 60.7262 70.5772 61.0555 69.5841L63.9605 60.8221C64.1078 60.3779 63.9464 59.8914 63.5609 59.6169L55.9555 54.2017C55.0935 53.5879 55.5365 52.2517 56.602 52.2517H66.0028C66.4794 52.2517 66.9017 51.951 67.0489 51.5069L69.9539 42.7448C70.2832 41.7517 71.7168 41.7517 72.0461 42.7448Z" fill="#F9F9F6"/>
<path fill-rule="evenodd" clip-rule="evenodd" d="M69.4789 42.5875C69.9596 41.1375 72.0395 41.1375 72.5202 42.5875L75.4252 51.3495C75.5029 51.584 75.7303 51.7517 75.9967 51.7517H85.3975C86.9262 51.7517 87.6118 53.6992 86.334 54.609L78.7286 60.0242C78.519 60.1734 78.4365 60.4322 78.5136 60.6647L81.4186 69.4268C81.9117 70.914 80.1869 72.0691 78.9615 71.1966L71.356 65.7813C71.1441 65.6304 70.8549 65.6304 70.643 65.7813L63.0376 71.1966C61.8122 72.0691 60.0873 70.914 60.5804 69.4268L63.4854 60.6647C63.5625 60.4322 63.48 60.1734 63.2705 60.0242L55.665 54.609C54.3873 53.6992 55.0729 51.7517 56.6015 51.7517H66.0024C66.2688 51.7517 66.4961 51.584 66.5738 51.3495L69.4789 42.5875ZM71.571 42.9022C71.3932 42.3659 70.6058 42.3659 70.4281 42.9022L67.523 51.6642C67.3063 52.318 66.689 52.7517 66.0024 52.7517H56.6015C55.9992 52.7517 55.7988 53.4766 56.245 53.7944L63.8505 59.2096C64.4119 59.6094 64.652 60.3237 64.4346 60.9794L61.5296 69.7415C61.3642 70.2404 61.959 70.7369 62.4576 70.3819L70.063 64.9667C70.6221 64.5686 71.377 64.5686 71.936 64.9667L79.5415 70.3819C80.0401 70.737 80.6349 70.2404 80.4694 69.7415L77.5644 60.9794C77.347 60.3237 77.5871 59.6094 78.1486 59.2096L85.754 53.7944C86.2003 53.4766 85.9998 52.7517 85.3975 52.7517H75.9967C75.3101 52.7517 74.6928 52.318 74.476 51.6642L71.571 42.9022Z" fill="#F9F9F6"/>
</svg>
