<svg width="141" height="141" viewBox="0 0 141 141" fill="none" xmlns="http://www.w3.org/2000/svg">
<rect width="141" height="141" rx="8" fill="#DBDBD8"/>
<path fill-rule="evenodd" clip-rule="evenodd" d="M53.1746 12L35.712 21.9786C33.7554 23.0966 32.2092 24.8128 31.3005 26.8749L17.9492 57.1719C17.6934 57.7524 17.9467 58.4309 18.5203 58.7017L37.3317 67.5849C37.9749 67.8886 38.7379 67.553 38.9488 66.8737L43.8146 51.195C43.8146 51.195 42.7405 72.0701 42.0596 85.4175C41.5246 95.9044 39.6817 110.904 38.9022 116.956C38.6984 118.538 39.572 120.06 41.0622 120.628C46.922 122.865 53.1746 128.122 71.6021 128.122C90.0296 128.122 95.9635 122.849 101.651 120.618C103.096 120.051 103.951 118.588 103.785 117.044C103.141 111.048 101.593 95.9437 101.145 85.4175C100.576 72.0649 99.3896 51.195 99.3896 51.195L103.696 66.8043C103.89 67.5094 104.677 67.8651 105.335 67.5455L123.574 58.6866C124.122 58.4202 124.374 57.7773 124.153 57.2092L112.468 27.2368C111.577 24.9509 109.916 23.048 107.771 21.8565L90.0296 12C90.0296 12 78.8562 14.34 71.6021 14.34C64.3479 14.34 53.1746 12 53.1746 12Z" fill="#121314"/>
<path d="M53.1746 12L35.712 21.9786C33.7554 23.0966 32.2092 24.8128 31.3005 26.8749L17.9492 57.1719C17.6934 57.7524 17.9467 58.4309 18.5203 58.7017L37.3317 67.5849C37.9749 67.8886 38.7379 67.553 38.9488 66.8737L43.8146 51.195C43.8146 51.195 42.7405 72.0701 42.0596 85.4175C41.5246 95.9044 39.6817 110.904 38.9022 116.956C38.6984 118.538 39.572 120.06 41.0622 120.628C46.922 122.865 53.1746 128.122 71.6021 128.122C90.0296 128.122 95.9635 122.849 101.651 120.618C103.096 120.051 103.951 118.588 103.785 117.044C103.141 111.048 101.593 95.9437 101.145 85.4175C100.576 72.0649 99.3896 51.195 99.3896 51.195L103.696 66.8043C103.89 67.5094 104.677 67.8651 105.335 67.5455L123.574 58.6866C124.122 58.4202 124.374 57.7773 124.153 57.2092L112.468 27.2368C111.577 24.9509 109.916 23.048 107.771 21.8565L90.0296 12M53.1746 12C53.1746 12 64.3479 14.34 71.6021 14.34C78.8562 14.34 90.0296 12 90.0296 12M53.1746 12C53.1746 12 58.4396 25.455 71.6021 25.455C84.7646 25.455 90.0296 12 90.0296 12" stroke="#DBDBD8" stroke-linejoin="round"/>
<path d="M55.4868 33.6022L57.0319 38.3575C57.1102 38.5985 57.3348 38.7617 57.5883 38.7617H62.5883C63.155 38.7617 63.3906 39.4869 62.9321 39.82L58.887 42.7589C58.682 42.9079 58.5962 43.1719 58.6745 43.413L60.2196 48.1682C60.3947 48.7072 59.7779 49.1554 59.3194 48.8223L55.2743 45.8834C55.0693 45.7344 54.7916 45.7344 54.5866 45.8834L50.5415 48.8223C50.083 49.1554 49.4662 48.7072 49.6413 48.1682L51.1864 43.413C51.2647 43.1719 51.1789 42.9079 50.9739 42.7589L46.9288 39.82C46.4703 39.4869 46.7059 38.7617 47.2726 38.7617H52.2726C52.5261 38.7617 52.7507 38.5985 52.829 38.3575L54.3741 33.6022C54.5492 33.0633 55.3117 33.0633 55.4868 33.6022Z" fill="#F9F9F6"/>
<path fill-rule="evenodd" clip-rule="evenodd" d="M53.8985 33.4477C54.2233 32.4481 55.6375 32.4481 55.9623 33.4477L57.5074 38.203C57.5188 38.238 57.5514 38.2617 57.5883 38.2617H62.5883C63.6393 38.2617 64.0763 39.6067 63.226 40.2245L59.1809 43.1634C59.1511 43.1851 59.1387 43.2234 59.15 43.2585L60.6951 48.0137C61.0199 49.0134 59.8758 49.8446 59.0255 49.2268L54.9804 46.2879C54.9506 46.2662 54.9103 46.2662 54.8805 46.2879L50.8354 49.2268C49.9851 49.8446 48.841 49.0134 49.1658 48.0137L50.7108 43.2585C50.7222 43.2234 50.7098 43.1851 50.68 43.1634L46.6349 40.2245C45.7846 39.6067 46.2216 38.2617 47.2726 38.2617H52.2726C52.3094 38.2617 52.3421 38.238 52.3535 38.203L53.8985 33.4477ZM54.8788 33.7122C54.871 33.7176 54.859 33.7279 54.8496 33.7567L53.3045 38.512C53.1593 38.9591 52.7427 39.2617 52.2726 39.2617H47.2726C47.2423 39.2617 47.2288 39.2699 47.2213 39.2757C47.2107 39.2839 47.1988 39.2988 47.1918 39.3205C47.1848 39.3421 47.1856 39.3612 47.1893 39.374C47.192 39.3831 47.1981 39.3977 47.2227 39.4155L51.2677 42.3544C51.648 42.6307 51.8071 43.1204 51.6619 43.5675L50.1168 48.3228C50.1074 48.3516 50.1111 48.367 50.1143 48.3759C50.1188 48.3885 50.1293 48.4044 50.1477 48.4178C50.1661 48.4312 50.1845 48.4362 50.1978 48.4366C50.2073 48.4369 50.2231 48.4356 50.2476 48.4178L54.2927 45.4789C54.673 45.2026 55.1879 45.2026 55.5682 45.4789L59.6133 48.4178C59.6378 48.4356 59.6536 48.4369 59.663 48.4366C59.6764 48.4362 59.6948 48.4312 59.7132 48.4178C59.7316 48.4044 59.7421 48.3885 59.7466 48.3759C59.7498 48.367 59.7534 48.3516 59.7441 48.3228L58.199 43.5675C58.0537 43.1204 58.2129 42.6307 58.5931 42.3544L62.6382 39.4155C62.6628 39.3977 62.6689 39.3831 62.6715 39.374C62.6753 39.3612 62.6761 39.3421 62.6691 39.3205C62.6621 39.2988 62.6502 39.2839 62.6396 39.2757C62.6321 39.2699 62.6186 39.2617 62.5883 39.2617H57.5883C57.1182 39.2617 56.7016 38.9591 56.5564 38.512L55.0113 33.7567C55.0019 33.7279 54.9899 33.7176 54.9821 33.7122C54.9711 33.7047 54.9532 33.698 54.9304 33.698C54.9077 33.698 54.8898 33.7047 54.8788 33.7122ZM87.8285 33.4477C88.1533 32.4481 89.5675 32.4481 89.8923 33.4477L91.4374 38.203C91.4488 38.238 91.4814 38.2617 91.5183 38.2617H96.5183C97.5693 38.2617 98.0063 39.6067 97.156 40.2245L93.1109 43.1634C93.0811 43.1851 93.0687 43.2234 93.08 43.2585L94.6251 48.0137C94.9499 49.0134 93.8058 49.8446 92.9555 49.2268L88.9104 46.2879C88.8806 46.2662 88.8403 46.2662 88.8105 46.2879L84.7654 49.2268C83.9151 49.8446 82.771 49.0134 83.0957 48.0137L84.6408 43.2585C84.6522 43.2234 84.6397 43.1851 84.61 43.1634L80.5649 40.2245C79.7145 39.6067 80.1516 38.2617 81.2026 38.2617H86.2026C86.2394 38.2617 86.2721 38.238 86.2835 38.203L87.8285 33.4477ZM88.8088 33.7122C88.801 33.7176 88.789 33.7279 88.7796 33.7567L87.2345 38.512C87.0893 38.9591 86.6727 39.2617 86.2026 39.2617H81.2026C81.1723 39.2617 81.1588 39.2699 81.1513 39.2757C81.1407 39.2839 81.1288 39.2988 81.1218 39.3205C81.1148 39.3421 81.1156 39.3612 81.1193 39.374C81.122 39.3831 81.1281 39.3977 81.1527 39.4155L85.1977 42.3544C85.578 42.6307 85.7371 43.1204 85.5919 43.5675L84.0468 48.3228C84.0374 48.3516 84.0411 48.367 84.0443 48.3759C84.0488 48.3885 84.0593 48.4044 84.0777 48.4178C84.0961 48.4312 84.1145 48.4362 84.1278 48.4366C84.1373 48.4369 84.1531 48.4356 84.1776 48.4178L88.2227 45.4789C88.603 45.2026 89.1179 45.2026 89.4982 45.4789L93.5433 48.4178C93.5678 48.4356 93.5836 48.4369 93.593 48.4366C93.6064 48.4362 93.6248 48.4312 93.6432 48.4178C93.6616 48.4044 93.6721 48.3885 93.6766 48.3759C93.6798 48.367 93.6835 48.3516 93.6741 48.3228L92.129 43.5675C91.9837 43.1204 92.1429 42.6307 92.5231 42.3544L96.5682 39.4155C96.5928 39.3977 96.5989 39.3831 96.6015 39.374C96.6053 39.3612 96.6061 39.3421 96.5991 39.3205C96.5921 39.2988 96.5802 39.2839 96.5696 39.2757C96.5621 39.2699 96.5486 39.2617 96.5183 39.2617H91.5183C91.0482 39.2617 90.6316 38.9591 90.4864 38.512L88.9413 33.7567C88.9319 33.7279 88.9199 33.7176 88.9121 33.7122C88.9011 33.7047 88.8832 33.698 88.8604 33.698C88.8377 33.698 88.8198 33.7047 88.8088 33.7122ZM71.4485 47.4877C71.7733 46.4881 73.1875 46.4881 73.5123 47.4877L75.0574 52.243C75.0688 52.278 75.1014 52.3017 75.1383 52.3017H80.1383C81.1893 52.3017 81.6263 53.6467 80.776 54.2645L76.7309 57.2034C76.7011 57.2251 76.6887 57.2634 76.7 57.2985L78.2451 62.0537C78.5699 63.0534 77.4258 63.8846 76.5755 63.2668L72.5304 60.3279C72.5006 60.3062 72.4603 60.3062 72.4305 60.3279L68.3854 63.2668C67.5351 63.8846 66.391 63.0534 66.7158 62.0537L68.2608 57.2985C68.2722 57.2634 68.2597 57.2251 68.23 57.2034L64.1849 54.2645C63.3345 53.6467 63.7716 52.3017 64.8226 52.3017H69.8226C69.8594 52.3017 69.8921 52.278 69.9035 52.243L71.4485 47.4877ZM72.4288 47.7522C72.4209 47.7576 72.409 47.7679 72.3996 47.7967L70.8545 52.552C70.7093 52.9991 70.2927 53.3017 69.8226 53.3017H64.8226C64.7923 53.3017 64.7788 53.3099 64.7713 53.3157C64.7607 53.3239 64.7488 53.3388 64.7418 53.3605C64.7348 53.3821 64.7356 53.4012 64.7393 53.414C64.742 53.4231 64.7481 53.4377 64.7727 53.4555L68.8177 56.3944C69.198 56.6707 69.3571 57.1604 69.2119 57.6075L67.6668 62.3628C67.6574 62.3916 67.6611 62.407 67.6643 62.4159C67.6688 62.4285 67.6793 62.4444 67.6977 62.4578C67.7161 62.4712 67.7345 62.4762 67.7478 62.4767C67.7573 62.4769 67.7731 62.4756 67.7976 62.4578L71.8427 59.5189C72.223 59.2426 72.7379 59.2426 73.1182 59.5189L77.1633 62.4578C77.1878 62.4756 77.2036 62.4769 77.213 62.4767C77.2264 62.4762 77.2448 62.4712 77.2632 62.4578C77.2816 62.4444 77.2921 62.4285 77.2966 62.4159C77.2998 62.407 77.3034 62.3916 77.2941 62.3628L75.749 57.6075C75.6037 57.1604 75.7629 56.6707 76.1431 56.3944L80.1882 53.4555C80.2128 53.4377 80.2189 53.4231 80.2215 53.414C80.2253 53.4012 80.2261 53.3821 80.2191 53.3605C80.2121 53.3388 80.2002 53.3239 80.1896 53.3157C80.1821 53.3099 80.1686 53.3017 80.1383 53.3017H75.1383C74.6682 53.3017 74.2516 52.9991 74.1064 52.552L72.5613 47.7967C72.5519 47.7679 72.5399 47.7576 72.5321 47.7522C72.5211 47.7447 72.5032 47.738 72.4804 47.738C72.4577 47.738 72.4398 47.7447 72.4288 47.7522Z" fill="#F9F9F6"/>
</svg>
