<svg width="56" height="56" viewBox="0 0 56 56" fill="none" xmlns="http://www.w3.org/2000/svg">
<rect width="56" height="56" rx="8" fill="#DBDBD8"/>
<path d="M32.4754 48H35.0005C35.5526 48 36.0007 47.5527 36.0037 47.0006C36.0191 44.2443 36.0978 36.3827 36.5 31C36.8953 25.7102 37.7586 22.799 38 17.5C38.1221 14.8205 38.0677 11.0498 38.0281 9.16632C38.0152 8.55278 37.4554 8.09851 36.8496 8.19625C35.0446 8.48746 31.4489 9 28.5 9C25.5494 9 21.9514 8.48688 20.1474 8.19576C19.5427 8.09817 18.9835 8.54919 18.9692 9.16161C18.9237 11.1211 18.858 15.1483 19 18C19.2542 23.1042 20.1685 25.9003 20.5 31C20.8483 36.3581 20.6332 44.1693 20.5382 46.9607C20.5189 47.5289 20.9738 48 21.5424 48H24.5246C25.0672 48 25.5112 47.5693 25.5278 47.0269C25.6119 44.2926 25.8953 36.3889 26.5 31C26.9871 26.6584 27.7308 20.2978 27.9422 18.4934C27.9753 18.2103 28.2149 18 28.5 18C28.7851 18 29.0247 18.2103 29.0579 18.4934C29.2693 20.2978 30.0129 26.6584 30.5 31C31.1047 36.3889 31.3881 44.2926 31.4722 47.0269C31.4888 47.5693 31.9328 48 32.4754 48Z" fill="black"/>
<path d="M23.2025 12.1541L23.7647 13.9669C23.7932 14.0588 23.875 14.121 23.9672 14.121H25.7867C25.9929 14.121 26.0787 14.3975 25.9118 14.5245L24.4398 15.6449C24.3652 15.7017 24.334 15.8023 24.3625 15.8942L24.9247 17.7071C24.9885 17.9125 24.764 18.0834 24.5971 17.9564L23.1251 16.836C23.0505 16.7792 22.9495 16.7792 22.8749 16.836L21.4028 17.9564C21.236 18.0834 21.0115 17.9125 21.0753 17.7071L21.6375 15.8942C21.666 15.8023 21.6348 15.7017 21.5602 15.6449L20.0882 14.5245C19.9213 14.3975 20.0071 14.121 20.2133 14.121H22.0328C22.125 14.121 22.2068 14.0588 22.2353 13.9669L22.7975 12.1541C22.8613 11.9486 23.1387 11.9486 23.2025 12.1541Z" fill="#F9F9F6"/>
<path fill-rule="evenodd" clip-rule="evenodd" d="M22.7149 12.2175C22.8051 11.9275 23.1949 11.9275 23.2851 12.2175L23.8296 13.97C23.8442 14.0169 23.8868 14.0505 23.9368 14.0505H25.699C25.9856 14.0505 26.1141 14.44 25.8746 14.622L24.4489 15.7051C24.4096 15.735 24.3941 15.7867 24.4086 15.8332L24.9532 17.5858C25.0456 17.8832 24.7223 18.1143 24.4925 17.9397L23.0668 16.8566C23.0271 16.8264 22.9729 16.8264 22.9332 16.8566L21.5075 17.9397C21.2777 18.1143 20.9544 17.8832 21.0468 17.5858L21.5914 15.8332C21.6059 15.7867 21.5904 15.735 21.5511 15.7051L20.1254 14.622C19.8859 14.44 20.0144 14.0505 20.301 14.0505H22.0632C22.1132 14.0505 22.1558 14.0169 22.1704 13.97L22.7149 12.2175ZM23.1071 12.2805C23.0738 12.1732 22.9262 12.1732 22.8929 12.2805L22.3483 14.033C22.3077 14.1638 22.1919 14.2505 22.0632 14.2505H20.301C20.188 14.2505 20.1505 14.3955 20.2341 14.459L21.6598 15.5422C21.7651 15.6221 21.8101 15.765 21.7693 15.8962L21.2248 17.6487C21.1938 17.7485 21.3053 17.8478 21.3987 17.7768L22.8244 16.6937C22.9292 16.6141 23.0708 16.6141 23.1756 16.6937L24.6013 17.7768C24.6947 17.8478 24.8062 17.7485 24.7752 17.6487L24.2307 15.8962C24.1899 15.765 24.2349 15.6221 24.3402 15.5422L25.7659 14.459C25.8495 14.3955 25.812 14.2505 25.699 14.2505H23.9368C23.8081 14.2505 23.6923 14.1638 23.6517 14.033L23.1071 12.2805Z" fill="#F9F9F6"/>
</svg>
