<svg width="16" height="16" viewBox="0 0 16 16" fill="none" xmlns="http://www.w3.org/2000/svg">
<path d="M5.9585 9.45817C6.44175 9.45817 6.8335 9.00113 6.8335 8.43734C6.8335 7.87355 6.44175 7.4165 5.9585 7.4165C5.47525 7.4165 5.0835 7.87355 5.0835 8.43734C5.0835 9.00113 5.47525 9.45817 5.9585 9.45817Z" stroke="black" stroke-linejoin="round"/>
<path d="M10.0415 9.45817C10.5248 9.45817 10.9165 9.00113 10.9165 8.43734C10.9165 7.87355 10.5248 7.4165 10.0415 7.4165C9.55825 7.4165 9.1665 7.87355 9.1665 8.43734C9.1665 9.00113 9.55825 9.45817 10.0415 9.45817Z" stroke="black" stroke-linejoin="round"/>
<path d="M6.54167 4.2085C6.54167 4.2085 7.17143 3.91683 8 3.91683C8.82857 3.91683 9.45833 4.2085 9.45833 4.2085L9.75 3.3335C10.774 3.3335 11.5352 3.50454 12.375 3.91683C12.9583 4.88905 14.125 7.65016 14.125 10.9168C13.0376 12.0392 12.1978 12.5128 10.9167 12.6668L10.0417 11.2085C9.75 11.3057 8.93333 11.5002 8 11.5002C7.06667 11.5002 6.25 11.3057 5.95833 11.2085L5.08333 12.6668C3.80217 12.5128 2.96241 12.0392 1.875 10.9168C1.875 7.65016 3.04167 4.88905 3.625 3.91683C4.46475 3.50454 5.226 3.3335 6.25 3.3335L6.54167 4.2085Z" stroke="black" stroke-linecap="round" stroke-linejoin="round"/>
<path d="M5.95817 11.2083C5.32452 11.0465 4.7915 10.625 4.7915 10.625" stroke="black" stroke-linecap="round" stroke-linejoin="round"/>
<path d="M10.0415 11.2083C10.6752 11.0465 11.2082 10.625 11.2082 10.625" stroke="black" stroke-linecap="round" stroke-linejoin="round"/>
</svg>
