<svg width="16" height="16" viewBox="0 0 16 16" fill="none" xmlns="http://www.w3.org/2000/svg">
<path d="M2 9.99998H14M2 12.6666H8.66667M14 4.66665H8.66667M14 7.33331H8.66667M3.06667 7.33331H4.93333C5.3067 7.33331 5.49339 7.33331 5.63599 7.26065C5.76143 7.19671 5.86342 7.09478 5.92734 6.96931C6 6.82671 6 6.64001 6 6.26665V4.39998C6 4.02661 6 3.83993 5.92734 3.69732C5.86342 3.57188 5.76143 3.46989 5.63599 3.40597C5.49339 3.33331 5.3067 3.33331 4.93333 3.33331H3.06667C2.6933 3.33331 2.50661 3.33331 2.36401 3.40597C2.23857 3.46989 2.13658 3.57188 2.07266 3.69732C2 3.83993 2 4.02661 2 4.39998V6.26665C2 6.64001 2 6.82671 2.07266 6.96931C2.13658 7.09478 2.23857 7.19671 2.36401 7.26065C2.50661 7.33331 2.6933 7.33331 3.06667 7.33331Z" stroke="black" stroke-linecap="round" stroke-linejoin="round"/>
</svg>
