<svg width="25" height="28" viewBox="0 0 25 28" fill="none" xmlns="http://www.w3.org/2000/svg">
<path d="M22.9559 21.6678C22.2887 21.6678 21.7227 22.1339 21.5812 22.7824L16.2744 22.5291C16.2946 22.4277 16.3048 22.3264 16.3048 22.2251C16.3048 22.0427 16.2744 21.8603 16.2239 21.6779L18.1545 20.5632C18.6296 21.151 19.4888 21.2726 20.1054 20.8267C20.722 20.3808 20.8837 19.5297 20.4693 18.8913C20.0549 18.2529 19.2159 18.0502 18.5589 18.4251C17.9018 18.8001 17.6491 19.631 17.9928 20.3099L16.1228 21.3942C15.6781 20.4518 14.5763 20.0262 13.616 20.4214C12.6557 20.8166 12.1706 21.9008 12.5142 22.8837L9.03705 23.7248C9.01683 23.2485 8.81467 22.8027 8.48111 22.4581L9.10781 21.5867C9.81537 21.8299 10.5937 21.4752 10.8767 20.776C11.1597 20.0768 10.8464 19.2763 10.1692 18.9622C9.49191 18.6379 8.67316 18.9115 8.31938 19.5702C7.96559 20.2288 8.18797 21.0598 8.82478 21.455L8.24862 22.2555C7.8443 21.9515 7.32878 21.8198 6.82338 21.8806L6.227 18.4657C6.975 18.3035 7.55116 17.7158 7.71289 16.9761C7.87462 16.2262 7.59159 15.4561 6.98511 15.0001C6.37863 14.534 5.55987 14.4732 4.89274 14.8279L3.38664 11.8791C3.71009 11.717 3.9729 11.4636 4.16496 11.1596L5.41836 11.494C5.40825 11.565 5.39814 11.6258 5.39814 11.6967C5.39814 12.4263 5.95409 13.0444 6.68187 13.1154C7.40965 13.1863 8.07678 12.6898 8.20819 11.9602C8.33959 11.2306 7.90494 10.5314 7.19738 10.3389C6.48981 10.1362 5.75192 10.5111 5.48912 11.2002L4.30647 10.8861C4.4682 10.501 4.49852 10.0754 4.39744 9.67007L7.88473 8.0589C8.53165 8.86955 9.70418 9.04181 10.5533 8.43382C11.4023 7.82583 11.6247 6.66052 11.0587 5.78906L13.2824 3.61043C13.5554 3.78269 13.8687 3.89416 14.1821 3.91443V4.87708C13.4442 4.95814 12.8882 5.60667 12.9287 6.35652C12.9691 7.10638 13.5857 7.6941 14.3337 7.6941C15.0817 7.6941 15.6983 7.10638 15.7387 6.35652C15.7791 5.60667 15.2333 4.95814 14.4853 4.87708V3.91443C14.7683 3.89416 15.0311 3.81309 15.2737 3.68136L17.7098 6.46799C17.1437 7.21784 17.1842 8.26156 17.8008 8.96075C18.4275 9.65994 19.4585 9.82207 20.2671 9.33568C21.0758 8.84928 21.4194 7.86637 21.1061 6.98478L21.8642 6.55919C22.3494 7.12664 23.1884 7.22798 23.7847 6.77198C24.3811 6.32612 24.5226 5.48507 24.1082 4.86695C23.6938 4.24882 22.8649 4.05629 22.2281 4.44135C21.5913 4.82641 21.3588 5.63707 21.7025 6.30586L20.9848 6.71118C20.6917 6.17413 20.166 5.80933 19.5697 5.71813C18.9733 5.62693 18.3567 5.81946 17.922 6.24506L15.5365 3.51923C15.769 3.33684 15.9611 3.09364 16.0925 2.83018L18.1849 3.1747C18.3466 3.90429 19.0542 4.38055 19.7819 4.24882C20.5198 4.12722 21.0252 3.4483 20.9444 2.70858C20.8635 1.96886 20.2166 1.41153 19.4787 1.45206C18.7307 1.4926 18.1545 2.10059 18.1444 2.85044L16.2037 2.52618C16.4766 1.59393 16.0318 0.600877 15.1524 0.185417C14.273 -0.230044 13.2319 0.0739517 12.6962 0.884606C12.1604 1.69526 12.302 2.77951 13.0297 3.42803L10.8666 5.54587C10.533 5.16081 10.058 4.91761 9.55256 4.87708V3.39763C10.2905 3.31657 10.8464 2.66805 10.806 1.91819C10.7655 1.16833 10.159 0.590744 9.41105 0.590744C8.66305 0.590744 8.04646 1.17847 8.00603 1.92832C7.96559 2.67818 8.51143 3.3267 9.25943 3.40777V4.87708C8.59229 4.92774 7.99592 5.32294 7.68257 5.91066C7.36922 6.50852 7.37933 7.21784 7.71289 7.80557L4.31658 9.36608C4.19528 9.07221 4.00323 8.81888 3.76063 8.61622L5.08479 6.22479C5.20609 6.25519 5.31728 6.27546 5.43857 6.27546C6.15625 6.27546 6.75262 5.7384 6.8436 5.02908C6.93457 4.31975 6.4696 3.6611 5.78225 3.48883C5.08479 3.31657 4.37723 3.6915 4.12453 4.36029C3.87182 5.02908 4.16496 5.77893 4.79166 6.11333L3.50793 8.44396C2.72961 7.97783 1.74913 8.10956 1.11232 8.75809C0.485618 9.40661 0.374429 10.3895 0.849509 11.1596C1.32459 11.9298 2.25453 12.2743 3.11372 12.0007L4.64004 14.99C4.25593 15.2737 3.98301 15.6993 3.89204 16.1654L2.78015 15.8412C2.81048 15.7297 2.82058 15.6081 2.82058 15.4966C2.82058 14.7772 2.28486 14.1793 1.57729 14.0983C0.869725 14.0172 0.2127 14.4732 0.0408625 15.1724C-0.130975 15.8716 0.253132 16.5809 0.930373 16.8241C1.59751 17.0673 2.3455 16.7734 2.66896 16.135L3.85161 16.4796C3.85161 16.51 3.85161 16.5404 3.85161 16.5708C3.85161 17.2396 4.18517 17.8577 4.75123 18.2123L3.99312 19.2054C3.43718 18.7089 2.5881 18.7393 2.06248 19.2763C1.53686 19.8134 1.51664 20.6544 2.02205 21.2118C2.52745 21.7691 3.36642 21.8299 3.95269 21.3536C4.53896 20.8774 4.64004 20.0363 4.20539 19.4283L5.02414 18.3542C5.26674 18.4657 5.53966 18.5163 5.81257 18.5163C5.85301 18.5163 5.89344 18.5163 5.93387 18.5062L6.54035 21.9414C5.73171 22.1845 5.16566 22.9243 5.13533 23.7653C5.11512 24.6165 5.64074 25.3765 6.43927 25.6602C7.23781 25.944 8.12732 25.6805 8.64283 25.0016L11.4731 26.2682C11.4529 26.3696 11.4327 26.481 11.4327 26.5823C11.4327 27.3018 11.9684 27.9098 12.6861 27.9909C13.4037 28.0719 14.0608 27.6058 14.2225 26.9066C14.3842 26.2074 13.99 25.4981 13.3128 25.2549C12.6355 25.0117 11.8875 25.3258 11.5742 25.9744L8.81467 24.7381C8.93597 24.5152 9.01683 24.272 9.03705 24.0187L12.6355 23.1371C12.9084 23.6437 13.3936 23.9984 13.9597 24.12C14.5257 24.2315 15.112 24.0896 15.5568 23.7349L16.9011 24.9002C16.5878 25.5893 16.8607 26.3999 17.5278 26.7445C18.195 27.0991 19.0137 26.8661 19.3978 26.2176C19.7819 25.569 19.6 24.7381 18.9834 24.3125C18.3567 23.8869 17.5177 24.0288 17.0629 24.6266L15.7791 23.5221C15.9712 23.3195 16.1127 23.0661 16.2037 22.8027L21.5508 23.0661C21.561 23.8464 22.1877 24.4645 22.966 24.4645C23.7443 24.4645 24.371 23.8261 24.3609 23.056C24.3609 22.296 23.7342 21.6678 22.9559 21.6678Z" fill="#FF473E"/>
</svg>
