<svg width="41" height="20" viewBox="0 0 41 20" fill="none" xmlns="http://www.w3.org/2000/svg">
<path d="M23.4972 15.4539V19.8642H21.2521V16.8086L18.6937 17.1104C18.1318 17.1759 17.8848 17.3627 17.8848 17.7057C17.8848 18.2087 18.354 18.4207 19.3604 18.4207C19.9737 18.4207 20.6534 18.3281 21.2534 18.1685L20.0915 19.8371C19.6219 19.9431 19.1645 19.9955 18.6819 19.9955C16.6458 19.9955 15.4838 19.1747 15.4838 17.7178C15.4838 16.4331 16.3972 15.7583 18.4731 15.5194L21.2153 15.1962C21.067 14.3876 20.4654 14.036 19.2692 14.036C18.1464 14.036 16.9064 14.3272 15.7972 14.8705L16.1499 12.8968C17.181 12.4596 18.3562 12.2345 19.5435 12.2345C22.155 12.2345 23.4994 13.3344 23.4994 15.452L23.4972 15.4539ZM3.30162 9.93162L0.847656 19.8639H3.30162L4.5194 14.873L6.63051 17.4403H9.18924L11.3004 14.873L12.5181 19.8639H14.9721L12.5181 9.93034L7.90924 15.4833L3.30035 9.93034L3.30162 9.93162ZM12.5181 -0.00195312L7.90924 5.55101L3.30162 -0.00195312L0.847656 9.93162H3.30162L4.5194 4.94072L6.63051 7.50803H9.18924L11.3004 4.94072L12.5181 9.93162H14.9721L12.5181 -0.00195312ZM29.3975 15.3613L27.4134 15.0701C26.9175 14.9912 26.7219 14.8315 26.7219 14.5537C26.7219 14.1034 27.2045 13.9047 28.1972 13.9047C29.3464 13.9047 30.3775 14.1433 31.4616 14.6597L31.188 12.7135C30.3127 12.3958 29.308 12.2374 28.2635 12.2374C25.8229 12.2374 24.4902 13.0984 24.4902 14.6476C24.4902 15.8534 25.2213 16.5282 26.7746 16.7668L28.7857 17.0715C29.2946 17.1507 29.5035 17.3493 29.5035 17.6671C29.5035 18.1174 29.0343 18.3294 28.081 18.3294C26.8277 18.3294 25.4699 18.0251 24.3604 17.4818L24.5826 19.428C25.5359 19.7863 26.7762 19.998 27.9381 19.998C30.4448 19.998 31.7499 19.1102 31.7499 17.5342C31.7499 16.2759 31.0188 15.5999 29.4007 15.3626L29.3975 15.3613ZM32.6229 10.8178V19.8636H34.8677V10.8182L32.6229 10.8178ZM37.4908 15.7982L40.6124 12.367H37.8188L34.8677 15.9164L38.0143 19.8623H40.8477L37.4908 15.7969V15.7982ZM32.3096 7.78555C32.3096 9.24181 33.4715 10.0626 35.5077 10.0626C35.9902 10.0626 36.4477 10.0092 36.9172 9.90448L38.0791 8.23584C37.4791 8.39424 36.7994 8.48813 36.1861 8.48813C35.181 8.48813 34.7105 8.27608 34.7105 7.77309C34.7105 7.42851 34.9591 7.24328 35.5197 7.17781L38.0778 6.87602V9.9313H40.3229V5.52099C40.3229 3.40206 38.9781 2.30348 36.367 2.30348C35.1785 2.30348 34.0045 2.52863 32.9731 2.96614L32.62 4.93913C33.7296 4.3959 34.9696 4.10465 36.0921 4.10465C37.2886 4.10465 37.8902 4.45594 38.0381 5.26487L35.2962 5.58838C33.2204 5.82694 32.3067 6.50174 32.3067 7.78651L32.3096 7.78555ZM26.0305 7.30907C26.0305 9.13738 27.075 10.0642 29.1375 10.0642C29.9597 10.0642 30.6397 9.9313 31.2915 9.62664L31.5781 7.62715C30.9515 8.01038 30.3115 8.20901 29.6718 8.20901C28.7054 8.20901 28.2743 7.81205 28.2743 6.92424V4.27518H31.6813V2.43473H28.274V0.872444L24.0048 3.16351V4.2755H26.0277V7.30811L26.0305 7.30907ZM23.8242 6.47491V6.92552H17.7562C18.0299 7.84303 18.8429 8.26267 20.2864 8.26267C21.4356 8.26267 22.5064 8.02411 23.4585 7.56136L23.1848 9.49538C22.3096 9.86583 21.2004 10.0654 20.0645 10.0654C17.0486 10.0654 15.4042 8.71455 15.4042 6.21208C15.4042 3.70897 17.0753 2.30476 19.66 2.30476C22.2448 2.30476 23.8248 3.82841 23.8248 6.47619L23.8232 6.47491H23.8242ZM17.727 5.38878H21.5638C21.3616 4.51023 20.6965 4.05132 19.6337 4.05132C18.5705 4.05132 17.94 4.4981 17.727 5.38878Z" fill="#0A0A0A"/>
</svg>
