<svg width="28" height="28" viewBox="0 0 28 28" fill="none" xmlns="http://www.w3.org/2000/svg">
<path d="M26.1648 7.05823L25.5608 5.99779C25.5134 5.91468 25.4475 5.84364 25.3681 5.79021C25.2888 5.73678 25.1981 5.70241 25.1033 5.68979C25.0084 5.67716 24.912 5.68662 24.8214 5.71742C24.7308 5.74822 24.6486 5.79953 24.5811 5.86735L23.1918 7.25509C23.0903 7.35715 23.0271 7.49116 23.013 7.63445C22.9989 7.77773 23.0348 7.92148 23.1145 8.04136C23.6211 8.81528 24.027 9.65053 24.3226 10.527C24.8747 12.1654 25.0289 13.9116 24.7724 15.6214C24.5159 17.3311 23.856 18.9553 22.8474 20.3596C21.8388 21.764 20.5103 22.9081 18.9719 23.6976C17.4334 24.487 15.7291 24.899 13.9999 24.8996C12.2197 24.9045 10.466 24.4692 8.89472 23.6326L11.2444 21.2823C12.7003 21.8328 14.288 21.9341 15.8022 21.5731C17.3163 21.212 18.6873 20.4052 19.7381 19.2569C20.7888 18.1087 21.4708 16.6717 21.6961 15.1318C21.9213 13.5919 21.6795 12.0198 21.0017 10.6188C20.9586 10.5291 20.8947 10.451 20.8153 10.3911C20.7358 10.3312 20.6431 10.2912 20.545 10.2745C20.4469 10.2578 20.3462 10.2649 20.2514 10.2952C20.1566 10.3255 20.0705 10.378 20.0002 10.4485L18.5941 11.8447C18.5191 11.9195 18.4645 12.0123 18.4355 12.1142C18.4066 12.2161 18.4042 12.3237 18.4286 12.4268L18.5494 12.9317C18.7572 13.816 18.7024 14.7418 18.3915 15.5954C18.0806 16.4491 17.5272 17.1934 16.7992 17.737C16.0712 18.2807 15.2003 18.6 14.2934 18.6559C13.3865 18.7117 12.483 18.5017 11.6937 18.0514L11.074 17.6964C10.9556 17.6282 10.8179 17.601 10.6825 17.6191C10.547 17.6373 10.4214 17.6997 10.325 17.7966L4.58565 23.5336C4.523 23.5962 4.47446 23.6715 4.44326 23.7544C4.41207 23.8373 4.39895 23.9259 4.40479 24.0143C4.41062 24.1027 4.43527 24.1889 4.47709 24.2669C4.51891 24.345 4.57692 24.4133 4.64726 24.4672L5.49289 25.1158C7.93155 26.9946 10.926 28.0093 14.0047 27.9999C16.4558 27.9968 18.8633 27.3509 20.9867 26.1268C23.1101 24.9027 24.8752 23.1431 26.1058 21.0238C27.3364 18.9045 27.9895 16.4995 27.9999 14.0489C28.0102 11.5983 27.3775 9.18789 26.1648 7.05823Z" fill="url(#paint0_linear_12095_351)"/>
<path d="M22.5142 2.88545C20.0758 1.00588 17.0813 -0.00921854 14.0023 6.30884e-05C11.55 0.00196889 9.14117 0.647246 7.01643 1.87142C4.89168 3.09559 3.12546 4.8558 1.89423 6.97616C0.662994 9.09653 0.00986999 11.5028 0.000110992 13.9546C-0.00964801 16.4063 0.624299 18.8177 1.83861 20.9478L2.44263 22.007C2.4902 22.0901 2.55625 22.161 2.63567 22.2144C2.71509 22.2678 2.80574 22.3022 2.90059 22.3149C2.99545 22.3277 3.09196 22.3184 3.18265 22.2878C3.27334 22.2573 3.35577 22.2062 3.42356 22.1387L4.81038 20.7522C4.91126 20.6499 4.97397 20.5162 4.98805 20.3733C5.00212 20.2304 4.9667 20.087 4.8877 19.9671C4.38067 19.1934 3.9747 18.3581 3.67966 17.4815C3.12753 15.8431 2.97334 14.0968 3.22985 12.3871C3.48636 10.6773 4.14619 9.05315 5.15482 7.64882C6.16344 6.24448 7.49188 5.10031 9.03034 4.31088C10.5688 3.52146 12.2731 3.10944 14.0023 3.10889C15.7825 3.10486 17.5359 3.54137 19.1063 4.37948L16.7555 6.72861C15.5778 6.28238 14.3094 6.12869 13.0593 6.28076C11.8091 6.43282 10.6146 6.88609 9.57834 7.60161C8.54208 8.31713 7.69509 9.27351 7.11014 10.3886C6.52519 11.5036 6.21979 12.744 6.22016 14.0031C6.22016 14.1323 6.2552 14.7217 6.26607 14.8232C6.36133 15.7152 6.60938 16.5842 6.99935 17.3921C7.04253 17.4818 7.10658 17.5599 7.18615 17.6198C7.26572 17.6797 7.35848 17.7196 7.45666 17.7363C7.55485 17.753 7.6556 17.7459 7.75049 17.7156C7.84537 17.6854 7.93162 17.6328 8.00202 17.5624L9.40817 16.1553C9.48307 16.0807 9.53768 15.9881 9.56685 15.8865C9.59602 15.7848 9.59878 15.6774 9.57488 15.5744L9.45408 15.0683C9.24593 14.184 9.30064 13.258 9.6115 12.4043C9.92235 11.5506 10.4758 10.8062 11.2039 10.2626C11.932 9.71898 12.8031 9.39978 13.7101 9.3442C14.6171 9.28863 15.5206 9.4991 16.3097 9.94976L16.9294 10.3048C17.048 10.3724 17.1855 10.3992 17.3208 10.3811C17.4561 10.363 17.5818 10.301 17.6784 10.2046L23.4166 4.46764C23.4793 4.40498 23.528 4.32965 23.5593 4.24669C23.5906 4.16373 23.6038 4.07504 23.5981 3.98656C23.5924 3.89808 23.5678 3.81183 23.5261 3.73359C23.4844 3.65534 23.4265 3.58689 23.3562 3.53282L22.5142 2.88545Z" fill="url(#paint1_linear_12095_351)"/>
<defs>
<linearGradient id="paint0_linear_12095_351" x1="5.52867" y1="29.1244" x2="30.2224" y2="5.7662" gradientUnits="userSpaceOnUse">
<stop stop-color="#B090F5"/>
<stop offset="1" stop-color="#5FBFFF"/>
</linearGradient>
<linearGradient id="paint1_linear_12095_351" x1="-0.774372" y1="18.8197" x2="18.9378" y2="-0.895465" gradientUnits="userSpaceOnUse">
<stop stop-color="#68D7FA"/>
<stop offset="1" stop-color="#7EF1B3"/>
</linearGradient>
</defs>
</svg>
