<svg width="16" height="16" viewBox="0 0 16 16" fill="none" xmlns="http://www.w3.org/2000/svg">
<path d="M7.99967 4.99992H8.00634M7.99967 10.9999H8.00634M8.66634 10.9999C8.66634 11.3681 8.36787 11.6666 7.99967 11.6666C7.63147 11.6666 7.33301 11.3681 7.33301 10.9999C7.33301 10.6317 7.63147 10.3333 7.99967 10.3333C8.36787 10.3333 8.66634 10.6317 8.66634 10.9999ZM8.66634 4.99992C8.66634 5.36811 8.36787 5.66658 7.99967 5.66658C7.63147 5.66658 7.33301 5.36811 7.33301 4.99992C7.33301 4.63173 7.63147 4.33325 7.99967 4.33325C8.36787 4.33325 8.66634 4.63173 8.66634 4.99992Z" stroke="black" stroke-linecap="round" stroke-linejoin="round"/>
</svg>
