<svg width="20" height="20" viewBox="0 0 20 20" fill="none" xmlns="http://www.w3.org/2000/svg">
<path d="M10.0003 6.25008H10.0087M10.0003 13.7501H10.0087M10.8337 13.7501C10.8337 14.2103 10.4606 14.5834 10.0003 14.5834C9.54008 14.5834 9.16699 14.2103 9.16699 13.7501C9.16699 13.2898 9.54008 12.9167 10.0003 12.9167C10.4606 12.9167 10.8337 13.2898 10.8337 13.7501ZM10.8337 6.25008C10.8337 6.71032 10.4606 7.08341 10.0003 7.08341C9.54008 7.08341 9.16699 6.71032 9.16699 6.25008C9.16699 5.78985 9.54008 5.41675 10.0003 5.41675C10.4606 5.41675 10.8337 5.78985 10.8337 6.25008Z" stroke="black" stroke-width="1.5" stroke-linecap="round" stroke-linejoin="round"/>
</svg>
