<svg id="eSo8zc2djIx1" xmlns="http://www.w3.org/2000/svg" xmlns:xlink="http://www.w3.org/1999/xlink" viewBox="0 0 23 19" shape-rendering="geometricPrecision" text-rendering="geometricPrecision"><path d="M22.0924,13.4698h-15.26752l.76658-1.4343l12.73704-.0212c.4307,0,.7999-.2827.8768-.6737l1.7639-9.07012c.0462-.23788-.023-.48283-.1923-.66889-.0836-.09158-.1879-.16534-.3057-.21618s-.2461-.07753-.3762-.07823L5.89165,1.25772l-.13844-.598243C5.66604,0.277922,5.29172,0,4.86612,0h-3.961093c-.240028,0-.470225.087595-.639951.243515s-.265076.367393-.265076.587897.095351.431978.265076.587898.399923.24351.639951.24351h3.227843l.60506,2.64262L6.22751,10.9308L4.30978,13.8066c-.09959.1235-.15958.2701-.17317.4233s.01975.3068.09625.4435c.15383.2802.46405.4569.8076.4569h1.61008c-.34325.4188-.52865.9289-.52815,1.4532C6.12239,17.9166,7.30175,19,8.75287,19s2.63043-1.0834,2.63043-2.4165c0-.5252-.1897-1.0363-.5281-1.4532h4.1303c-.3432.4188-.5286.9289-.5281,1.4532c0,1.3331,1.1793,2.4165,2.6304,2.4165s2.6305-1.0834,2.6305-2.4165c0-.5252-.1897-1.0363-.5281-1.4532h2.9048c.4974,0,.905-.3721.905-.8314-.0015-.2203-.0977-.4311-.2678-.5864-.17-.1553-.4-.2426-.6398-.2427ZM6.26853,2.89699L21.031,2.94174L19.585,10.3797l-11.59615.0188L6.26853,2.89699ZM8.75287,17.3278c-.4461,0-.81017-.3345-.81017-.7443s.36407-.7443.81017-.7443.81017.3345.81017.7443c0,.1974-.08536.3867-.2373.5263s-.358.218-.57287.218Zm8.33493,0c-.4461,0-.8101-.3345-.8101-.7443s.364-.7443.8101-.7443.8102.3345.8102.7443c0,.1974-.0854.3867-.2373.5263s-.358.218-.5729.218Z" fill="#8053ff"/></svg>