<svg width="19" height="19" viewBox="0 0 19 19" fill="none" xmlns="http://www.w3.org/2000/svg">
<rect x="0.5" y="0.5" width="18" height="18" rx="4" fill="#2EC99E"/>
<path d="M10.1723 5.65918C10.1723 5.42618 9.97735 5.2373 9.73684 5.2373C9.49633 5.2373 9.30136 5.42618 9.30136 5.65918V9.00182C9.30136 9.16751 9.16704 9.30182 9.00136 9.30182H5.65872C5.42572 9.30182 5.23684 9.49679 5.23684 9.7373C5.23684 9.97782 5.42572 10.1728 5.65872 10.1728H9.00136C9.16704 10.1728 9.30136 10.3071 9.30136 10.4728V13.8154C9.30136 14.0484 9.49633 14.2373 9.73684 14.2373C9.97735 14.2373 10.1723 14.0484 10.1723 13.8154V10.4728C10.1723 10.3071 10.3066 10.1728 10.4723 10.1728H13.815C14.048 10.1728 14.2368 9.97782 14.2368 9.7373C14.2368 9.49679 14.048 9.30182 13.815 9.30182H10.4723C10.3066 9.30182 10.1723 9.16751 10.1723 9.00182V5.65918Z" fill="#084836"/>
</svg>
