<?xml version="1.0" standalone="no"?>
<!DOCTYPE svg PUBLIC "-//W3C//DTD SVG 20010904//EN"
 "http://www.w3.org/TR/2001/REC-SVG-20010904/DTD/svg10.dtd">
<svg version="1.0" xmlns="http://www.w3.org/2000/svg"
 width="512.000000pt" height="512.000000pt" viewBox="0 0 512.000000 512.000000"
 preserveAspectRatio="xMidYMid meet">

<g transform="translate(0.000000,512.000000) scale(0.100000,-0.100000)"
fill="#000000" stroke="none">
<path d="M795 5113 c-327 -46 -624 -282 -734 -583 -60 -166 -56 -9 -56 -1970
0 -1961 -4 -1804 56 -1970 85 -231 298 -444 529 -529 166 -60 9 -56 1970 -56
1961 0 1804 -4 1970 56 231 85 444 298 529 529 60 166 56 9 56 1970 0 1961 4
1804 -56 1970 -69 189 -227 371 -412 474 -68 38 -113 56 -222 89 l-70 21
-1765 2 c-971 1 -1778 -1 -1795 -3z m1853 -1480 c19 -9 46 -34 60 -56 l27 -41
3 -397 3 -398 398 -3 397 -3 41 -27 c102 -68 102 -228 0 -296 l-41 -27 -397
-3 -398 -3 -3 -398 -3 -397 -27 -41 c-68 -102 -228 -102 -296 0 l-27 41 -3
397 -3 398 -398 3 -397 3 -41 27 c-102 68 -102 228 0 296 l41 27 398 3 398 3
0 386 c0 372 1 388 21 430 44 92 147 123 247 76z"/>
</g>
</svg>
