<svg width="24" height="24" viewBox="0 0 24 24" fill="none" xmlns="http://www.w3.org/2000/svg">
<g clip-path="url(#clip0_11805_18)">
<path d="M15 15C15 16.6569 16.1939 18 17.6667 18H20.3333C21.8061 18 23 16.6569 23 15C23 13.3431 21.8061 12 20.3333 12H17.6667C16.1939 12 15 10.6569 15 9C15 7.34315 16.1939 6 17.6667 6H20.3333C21.8061 6 23 7.34315 23 9M19 4.5V19.5" stroke="black" stroke-width="2" stroke-linecap="round" stroke-linejoin="round"/>
<path d="M10.5466 14.5582L10.1094 13.2928L7.85779 6.77501L7.62512 6.10154H6.9126H6.79328H6.08116L5.84827 6.77451L3.59272 13.2923L3.15462 14.5582L3.13348 14.6193L2.92173 15.2312L1.75587 18.6001H1.44462L6.22098 5.32739H7.47744L12.2538 18.6001H11.943L10.7793 15.2317L10.5677 14.6193L10.5466 14.5582Z" stroke="black" stroke-width="2"/>
</g>
<defs>
<clipPath id="clip0_11805_18">
<rect width="24" height="24" fill="white"/>
</clipPath>
</defs>
</svg>
