<svg width="29" height="27" viewBox="0 0 29 27" fill="none" xmlns="http://www.w3.org/2000/svg">
<path d="M0.564846 16.6604C0.562308 14.9516 0.559769 13.2429 0.569117 11.5002C0.591458 11.4562 0.601177 11.4454 0.610162 11.434C1.22839 11.0835 1.89307 10.9068 2.59154 10.8474C3.04253 10.8091 3.49239 10.7564 3.9611 10.7083C3.9611 9.04689 3.9611 7.3774 3.9611 5.66561C2.84999 5.70145 1.74536 5.73514 0.674875 6.24595C0.61265 6.24668 0.588747 6.24624 0.564846 6.24581C0.562308 4.53707 0.559769 2.82833 0.569117 1.0856C0.591458 1.04159 0.601177 1.03085 0.610162 1.01939C1.16847 0.716357 1.76036 0.532891 2.38933 0.493133C2.92581 0.459219 3.46295 0.436829 4.0315 0.407715C4.0315 2.14743 4.0315 3.83875 4.0315 5.47096C5.14794 5.52982 6.23155 5.58694 7.33884 5.64531C7.33884 4.04241 7.33884 2.37024 7.33884 0.648712C8.50055 0.840882 9.57247 1.22657 10.6596 1.61479C10.6596 2.46861 10.6596 3.32126 10.6596 4.17391C10.6596 4.92191 10.6552 5.66998 10.6654 6.41783C10.6666 6.50901 10.7255 6.65529 10.7918 6.68118C11.7676 7.06216 12.7491 7.42719 13.7298 7.79458C13.7443 7.80002 13.765 7.78738 13.8067 7.77755C13.8067 6.16621 13.8067 4.54923 13.8067 2.87165C14.5393 3.0786 15.236 3.27537 15.956 3.47877C15.956 2.65461 15.956 1.843 15.956 1.03067C16.7181 1.21969 17.4607 1.3982 18.1982 1.59696C18.2607 1.61381 18.3267 1.76533 18.3283 1.85548C18.3394 2.49778 18.3423 3.14056 18.3297 3.78281C18.3255 3.99745 18.3663 4.10605 18.5945 4.1432C19.1799 4.23852 19.7609 4.3635 20.3746 4.48262C20.3746 3.65507 20.3746 2.86271 20.3746 2.06024C21.154 2.14579 21.907 2.22845 22.6918 2.31459C22.6918 3.10387 22.6918 3.91322 22.6918 4.73023C23.6016 4.81422 24.4715 4.96044 25.3088 5.26774C26.4518 5.68724 27.3342 6.39694 27.6784 7.66779C27.8735 8.38845 27.8643 9.12324 27.7865 9.86586C27.7121 10.5765 27.5166 11.2418 27.2238 11.8814C26.9598 12.458 26.6086 12.9706 26.1669 13.4136C26.0949 13.4858 25.9999 13.5331 25.8829 13.6147C26.2663 13.7886 26.5658 13.9118 26.8547 14.0578C27.7658 14.518 28.2465 15.3188 28.4355 16.3208C28.7471 17.9721 28.4817 19.5373 27.678 20.9878C26.8331 22.5128 25.5511 23.4474 23.9127 23.8489C23.5268 23.9434 23.13 23.9898 22.7055 24.064C22.7055 24.8256 22.7055 25.6163 22.7055 26.4077C21.9201 26.4077 21.1644 26.4077 20.382 26.4077C20.382 25.5825 20.382 24.791 20.382 23.9916C19.6939 23.9076 19.0314 23.8268 18.3408 23.7425C18.3408 24.5393 18.3408 25.3305 18.3408 26.1679C17.9631 26.12 17.6155 26.0869 17.2717 26.0293C16.9077 25.9683 16.5498 25.8602 16.1844 25.8187C15.9697 25.7943 15.9574 25.6901 15.9583 25.5191C15.9625 24.7822 15.9601 24.0453 15.9601 23.2918C14.5243 23.0716 13.1587 22.6383 11.7992 22.1794C11.4747 22.0699 11.1502 21.9579 10.8201 21.8698C10.6409 21.822 10.6004 21.726 10.6011 21.5481C10.607 20.1192 10.6044 18.6903 10.6044 17.2615C10.6044 16.7403 10.5276 16.6551 10.0314 16.5451C9.43443 16.4127 8.84208 16.2577 8.24507 16.1256C7.9818 16.0673 7.71198 16.0411 7.4096 15.9949C7.4096 17.6947 7.4096 19.3479 7.4096 21.0502C6.25875 20.9432 5.13739 20.8668 3.99348 21.097C3.99348 19.3919 3.99348 17.7018 3.99348 15.9603C2.84879 16.0543 1.73675 16.1167 0.674676 16.6606C0.612648 16.6612 0.588747 16.6608 0.564846 16.6604ZM7.34685 12.0286C7.34694 11.7409 7.34413 11.4532 7.34803 11.1656C7.35105 10.9428 7.47161 10.8188 7.67782 10.8579C8.03085 10.9248 8.38027 11.0158 8.72783 11.1101C9.34915 11.2788 9.96797 11.4575 10.6042 11.6366C10.6042 10.0329 10.6063 8.44172 10.597 6.85058C10.5966 6.78177 10.5035 6.67525 10.4331 6.65119C9.80343 6.4359 9.17306 6.22039 8.53464 6.03596C8.17595 5.93234 7.80171 5.88717 7.40207 5.80935C7.40207 5.97689 7.40207 6.08046 7.40207 6.18404C7.40207 7.62244 7.40268 9.06085 7.40158 10.4993C7.40133 10.8164 7.31691 10.8812 7.05679 10.8473C6.52653 10.7784 5.99457 10.7112 5.46138 10.6836C5.09871 10.6649 4.73271 10.7302 4.36832 10.7287C4.10957 10.7276 4.02574 10.8172 4.0281 11.0944C4.04075 12.5806 4.03407 14.0671 4.03407 15.5534C4.03407 15.6469 4.03407 15.7405 4.03407 15.8243C5.14543 15.8243 6.22914 15.8243 7.34685 15.8243C7.34685 14.6297 7.34685 13.3579 7.34685 12.0286ZM23.1639 19.8315C23.77 19.5802 24.1251 19.1195 24.214 18.4455C24.3655 17.2973 24.0025 16.4891 22.8247 16.2727C22.1036 16.1402 21.359 16.1498 20.626 16.0824C20.2211 16.0451 19.8185 15.9815 19.415 15.9283C19.0619 15.8818 18.709 15.8333 18.3344 15.7827C18.3344 17.0519 18.3316 18.2678 18.3412 19.4835C18.3418 19.5579 18.4314 19.6856 18.4945 19.6968C18.9218 19.7725 19.3518 19.8396 19.7835 19.8786C20.3819 19.9327 20.9882 19.9193 21.5805 20.0102C22.1196 20.0929 22.6223 20.0054 23.1639 19.8315ZM18.3343 9.72696C18.3343 10.4427 18.3343 11.1585 18.3343 11.8701C18.5479 11.9006 18.727 11.9296 18.9069 11.9513C19.8409 12.0644 20.7728 12.2229 21.7101 12.2747C22.7297 12.331 23.2416 11.861 23.4774 10.8266C23.6359 10.1315 23.3297 9.29213 22.6527 8.95092C22.0428 8.64352 21.3778 8.64116 20.7287 8.54703C20.2551 8.47835 19.7818 8.40724 19.3088 8.33482C18.9926 8.28641 18.6769 8.23381 18.3343 8.17879C18.3343 8.71431 18.3343 9.19187 18.3343 9.72696ZM12.7441 12.5131C12.0612 12.2582 11.3784 12.0034 10.6811 11.7431C10.6701 11.8238 10.6608 11.8605 10.6607 11.8972C10.6599 13.4395 10.6625 14.9819 10.656 16.5242C10.6553 16.7012 10.7386 16.7382 10.8748 16.7818C11.5099 16.9853 12.1418 17.1994 12.7735 17.4142C13.1092 17.5284 13.442 17.6518 13.8065 17.7818C13.8065 16.1546 13.8088 14.5844 13.7992 13.0142C13.7988 12.945 13.7031 12.8428 13.6305 12.8135C13.3544 12.7021 13.0696 12.6143 12.7441 12.5131Z" fill="#E36E1B"/>
</svg>
