<svg width="32" height="32" viewBox="0 0 32 32" fill="none" xmlns="http://www.w3.org/2000/svg">
<path d="M18.8733 28.3677C18.8733 29.5453 17.9104 30.5 16.7226 30.5C15.5348 30.5 14.5719 29.5453 14.5719 28.3677C14.5719 27.19 15.5348 26.2353 16.7226 26.2353C17.9104 26.2353 18.8733 27.19 18.8733 28.3677Z" fill="#DBDBDB"/>
<path d="M26.6158 28.3677C26.6158 29.5453 25.6529 30.5 24.4651 30.5C23.2773 30.5 22.3144 29.5453 22.3144 28.3677C22.3144 27.19 23.2773 26.2353 24.4651 26.2353C25.6529 26.2353 26.6158 27.19 26.6158 28.3677Z" fill="#DBDBDB"/>
<path fill-rule="evenodd" clip-rule="evenodd" d="M14.6248 24.6413C12.9648 24.6413 11.3955 23.3863 11.0948 21.7676L7.82955 4.91198C7.75222 4.50974 7.39749 4.21875 6.98448 4.21875H1.35938C0.608613 4.21875 0 3.61014 0 2.85938C0 2.10861 0.608614 1.5 1.35938 1.5L8.84165 1.5C9.45941 1.5 9.99052 1.93408 10.1084 2.53532L11.2399 8.32353L28.5579 8.35542C30.708 8.35542 32.3316 10.2887 31.942 12.3853L30.1988 21.7676C29.8981 23.3863 28.6205 24.6413 26.9605 24.6413H14.6248ZM11.9869 12.0231L13.7301 21.2722C13.8053 21.6768 14.1611 21.9706 14.5761 21.9706L26.6078 22.0245C27.0228 22.0245 27.3787 21.7308 27.4539 21.3261L29.1971 12.077C29.2945 11.5529 28.8886 11.0696 28.351 11.0696L12.8329 11.0156C12.2954 11.0156 11.8895 11.499 11.9869 12.0231Z" fill="#DBDBDB"/>
</svg>
