<svg width="24" height="24" viewBox="0 0 24 24" fill="none" xmlns="http://www.w3.org/2000/svg">
<path fill-rule="evenodd" clip-rule="evenodd" d="M24 6C24 4.34315 22.6569 3 21 3H3C1.34315 3 0 4.34315 0 6V18C0 19.6569 1.34315 21 3 21H21C22.6569 21 24 19.6569 24 18V6ZM14.3122 5.54505C14.7101 5.15165 15.3552 5.15165 15.7531 5.54505L18.9952 8.75048C19.1941 8.94719 19.1941 9.26608 18.9952 9.46279L17.5543 10.8874C17.3553 11.0841 17.0327 11.0841 16.8338 10.8874L15.573 9.64087C15.2745 9.34579 14.7907 9.34579 14.4923 9.64087L12.6911 11.4217C12.3927 11.7167 12.3927 12.1951 12.6911 12.4901L14.4923 14.2709C14.7907 14.566 15.2745 14.566 15.573 14.2709L16.8338 13.0244C17.0327 12.8277 17.3553 12.8277 17.5543 13.0244L18.9952 14.449C19.1941 14.6457 19.1941 14.9646 18.9952 15.1613L15.7531 18.3667C15.3552 18.7601 14.7101 18.7601 14.3122 18.3667L8.54843 12.6682C8.15052 12.2748 8.15052 11.637 8.54843 11.2436L14.3122 5.54505Z" fill="#C2000E"/>
</svg>
