<svg width="24" height="18" viewBox="0 0 24 18" fill="none" xmlns="http://www.w3.org/2000/svg">
<path fill-rule="evenodd" clip-rule="evenodd" d="M24 3C24 1.34315 22.6569 0 21 0H3C1.34315 0 0 1.34315 0 3V15C0 16.6569 1.34315 18 3 18H21C22.6569 18 24 16.6569 24 15V3ZM14.3122 2.54505C14.7101 2.15165 15.3552 2.15165 15.7531 2.54505L18.9952 5.75048C19.1941 5.94719 19.1941 6.26608 18.9952 6.46279L17.5543 7.88739C17.3553 8.0841 17.0327 8.0841 16.8338 7.88739L15.573 6.64087C15.2745 6.34579 14.7907 6.34579 14.4923 6.64087L12.6911 8.42166C12.3927 8.71669 12.3927 9.19506 12.6911 9.49014L14.4923 11.2709C14.7907 11.566 15.2745 11.566 15.573 11.2709L16.8338 10.0244C17.0327 9.82765 17.3553 9.82765 17.5543 10.0244L18.9952 11.449C19.1941 11.6457 19.1941 11.9646 18.9952 12.1613L15.7531 15.3667C15.3552 15.7601 14.7101 15.7601 14.3122 15.3667L8.54843 9.66818C8.15052 9.27482 8.15052 8.63698 8.54843 8.24357L14.3122 2.54505Z" fill="#C2000E"/>
</svg>
