<svg width="24" height="24" viewBox="0 0 24 24" fill="none" xmlns="http://www.w3.org/2000/svg">
<g clip-path="url(#clip0_4471_17875)">
<path d="M21.237 18.5724C20.6652 18.5724 20.18 18.9719 20.0587 19.5278L15.5101 19.3106C15.5274 19.2238 15.5361 19.1369 15.5361 19.0501C15.5361 18.8937 15.5101 18.7374 15.4667 18.581L17.1216 17.6256C17.5288 18.1294 18.2652 18.2336 18.7937 17.8515C19.3222 17.4693 19.4609 16.7397 19.1056 16.1925C18.7504 15.6453 18.0313 15.4716 17.4681 15.793C16.905 16.1143 16.6884 16.8266 16.9829 17.4085L15.3801 18.3379C14.9989 17.5301 14.0545 17.1653 13.2314 17.504C12.4083 17.8428 11.9924 18.7721 12.287 19.6146L9.30659 20.3355C9.28926 19.9273 9.11598 19.5451 8.83007 19.2498L9.36724 18.5029C9.97372 18.7113 10.6409 18.4073 10.8834 17.808C11.126 17.2087 10.8575 16.5226 10.277 16.2533C9.69647 15.9754 8.99468 16.2099 8.69144 16.7744C8.3882 17.339 8.57881 18.0512 9.12464 18.39L8.63079 19.0761C8.28423 18.8156 7.84236 18.7026 7.40916 18.7548L6.89798 15.8277C7.53912 15.6887 8.03297 15.185 8.1716 14.5509C8.31022 13.9082 8.06763 13.2481 7.54778 12.8572C7.02794 12.4577 6.32615 12.4056 5.75432 12.7096L4.46338 10.1821C4.74063 10.0431 4.96589 9.82598 5.13051 9.56541L6.20485 9.85204C6.19619 9.91284 6.18753 9.96495 6.18753 10.0257C6.18753 10.6511 6.66405 11.1809 7.28786 11.2417C7.91167 11.3025 8.4835 10.8769 8.59614 10.2516C8.70877 9.62621 8.33621 9.02691 7.72973 8.86188C7.12324 8.68817 6.49077 9.00954 6.2655 9.60016L5.25181 9.3309C5.39043 9.00085 5.41642 8.63606 5.32978 8.28863L8.31889 6.90763C8.87339 7.60247 9.87842 7.75013 10.6062 7.22899C11.334 6.70786 11.5246 5.70901 11.0394 4.96205L12.9455 3.09465C13.1794 3.24231 13.448 3.33785 13.7166 3.35522V4.18035C13.0841 4.24984 12.6076 4.80571 12.6423 5.44845C12.6769 6.09118 13.2054 6.59494 13.8466 6.59494C14.4877 6.59494 15.0162 6.09118 15.0509 5.44845C15.0855 4.80571 14.6177 4.24984 13.9765 4.18035V3.35522C14.2191 3.33785 14.4444 3.26837 14.6523 3.15545L16.7404 5.54399C16.2552 6.18672 16.2898 7.08134 16.8183 7.68064C17.3555 8.27995 18.2392 8.41892 18.9324 8.00201C19.6255 7.5851 19.9201 6.7426 19.6515 5.98695L20.3013 5.62216C20.7172 6.10855 21.4363 6.19541 21.9475 5.80456C22.4586 5.42239 22.5799 4.70149 22.2247 4.17167C21.8695 3.64185 21.159 3.47682 20.6132 3.80687C20.0674 4.13692 19.8681 4.83177 20.1627 5.40502L19.5475 5.75244C19.2963 5.29211 18.8457 4.97943 18.3345 4.90126C17.8234 4.82309 17.2949 4.98811 16.9223 5.35291L14.8776 3.01648C15.0769 2.86014 15.2415 2.65169 15.3541 2.42587L17.1476 2.72117C17.2862 3.34654 17.8927 3.75476 18.5165 3.64185C19.149 3.53762 19.5822 2.95569 19.5129 2.32164C19.4435 1.68759 18.889 1.20988 18.2566 1.24463C17.6154 1.27937 17.1216 1.8005 17.1129 2.44324L15.4494 2.1653C15.6833 1.36622 15.3021 0.515037 14.5483 0.158929C13.7946 -0.19718 12.9022 0.0633871 12.443 0.758234C11.9838 1.45308 12.1051 2.38244 12.7289 2.93831L10.8748 4.7536C10.5889 4.42355 10.1817 4.21509 9.74846 4.18035V2.91226C10.3809 2.84277 10.8575 2.2869 10.8228 1.64416C10.7881 1.00143 10.2683 0.506352 9.62716 0.506352C8.98602 0.506352 8.45751 1.01012 8.42285 1.65285C8.3882 2.29558 8.85606 2.85146 9.4972 2.92094V4.18035C8.92537 4.22378 8.41419 4.56252 8.1456 5.06628C7.87702 5.57873 7.88568 6.18672 8.1716 6.69049L5.26047 8.02807C5.1565 7.77618 4.99189 7.55904 4.78395 7.38533L5.91894 5.33554C6.02291 5.36159 6.11821 5.37896 6.22218 5.37896C6.83733 5.37896 7.34851 4.91863 7.42649 4.31064C7.50446 3.70265 7.10592 3.13808 6.51676 2.99043C5.91894 2.84277 5.31246 3.16414 5.09585 3.73739C4.87925 4.31064 5.13051 4.95337 5.66768 5.23999L4.56735 7.23768C3.90021 6.83814 3.0598 6.95105 2.51396 7.50693C1.97679 8.06281 1.88149 8.90531 2.2887 9.56541C2.69591 10.2255 3.493 10.5208 4.22945 10.2863L5.53772 12.8486C5.20849 13.0918 4.97456 13.4566 4.89658 13.8561L3.94353 13.5782C3.96953 13.4826 3.97819 13.3784 3.97819 13.2828C3.97819 12.6662 3.51899 12.1537 2.91251 12.0842C2.30603 12.0147 1.74286 12.4056 1.59557 13.0049C1.44828 13.6042 1.77752 14.2122 2.35801 14.4207C2.92984 14.6291 3.57098 14.3772 3.84823 13.83L4.86192 14.1253C4.86192 14.1514 4.86192 14.1775 4.86192 14.2035C4.86192 14.7768 5.14784 15.3066 5.63303 15.6106L4.98322 16.4618C4.5067 16.0362 3.77892 16.0622 3.32838 16.5226C2.87785 16.9829 2.86053 17.7038 3.29373 18.1815C3.72693 18.6592 4.44605 18.7113 4.94856 18.3031C5.45108 17.8949 5.53772 17.174 5.16517 16.6528L5.86696 15.7322C6.07489 15.8277 6.30882 15.8711 6.54275 15.8711C6.57741 15.8711 6.61207 15.8711 6.64672 15.8625L7.16656 18.8069C6.47344 19.0153 5.98825 19.6494 5.96226 20.3703C5.94493 21.0999 6.39546 21.7513 7.07992 21.9945C7.76439 22.2377 8.52682 22.0119 8.96869 21.4299L11.3946 22.5156C11.3773 22.6025 11.36 22.698 11.36 22.7849C11.36 23.4015 11.8192 23.9227 12.4343 23.9922C13.0495 24.0616 13.6126 23.6621 13.7513 23.0628C13.8899 22.4635 13.552 21.8555 12.9715 21.6471C12.391 21.4386 11.7499 21.7079 11.4813 22.2637L9.11598 21.2041C9.21995 21.013 9.28926 20.8046 9.30659 20.5874L12.391 19.8318C12.6249 20.266 13.0408 20.57 13.526 20.6743C14.0112 20.7698 14.5137 20.6482 14.8949 20.3442L16.0472 21.3431C15.7786 21.9337 16.0126 22.6285 16.5844 22.9238C17.1562 23.2278 17.858 23.0281 18.1873 22.4722C18.5165 21.9163 18.3605 21.2041 17.832 20.8393C17.2949 20.4745 16.5757 20.5961 16.1859 21.1086L15.0855 20.1618C15.2501 19.9881 15.3714 19.771 15.4494 19.5451L20.0327 19.771C20.0414 20.4398 20.5785 20.9696 21.2457 20.9696C21.9128 20.9696 22.45 20.4224 22.4413 19.7623C22.4413 19.1109 21.9041 18.5724 21.237 18.5724Z" fill="#FF473E"/>
</g>
<defs>
<clipPath id="clip0_4471_17875">
<rect width="24" height="24" fill="white"/>
</clipPath>
</defs>
</svg>
