<svg width="20" height="20" viewBox="0 0 20 20" fill="none" xmlns="http://www.w3.org/2000/svg">
    <path
        d="M15.8546 5.17859H7.35971C6.15511 5.17859 5.17859 6.15511 5.17859 7.35971V15.8546C5.17859 17.0592 6.15511 18.0357 7.35971 18.0357H15.8546C17.0592 18.0357 18.0357 17.0592 18.0357 15.8546V7.35971C18.0357 6.15511 17.0592 5.17859 15.8546 5.17859Z"
        stroke="white" stroke-width="1.5" stroke-linejoin="round" />
    <path
        d="M14.8022 5.02552L14.8214 4.10715C14.8198 3.53933 14.5935 2.99522 14.192 2.59371C13.7904 2.19219 13.2463 1.96591 12.6785 1.96429H4.41321C3.76429 1.96621 3.1425 2.22485 2.68364 2.6837C2.22478 3.14256 1.96615 3.76435 1.96423 4.41327V12.6786C1.96585 13.2464 2.19213 13.7905 2.59365 14.192C2.99516 14.5935 3.53927 14.8198 4.10709 14.8214H5.02546"
        stroke="white" stroke-width="1.5" stroke-linecap="round" stroke-linejoin="round" />
</svg>