<svg width="28" height="28" viewBox="0 0 28 28" fill="none" xmlns="http://www.w3.org/2000/svg">
    <path fill-rule="evenodd" clip-rule="evenodd"
        d="M14 0C21.732 0 28 6.268 28 14C28 21.732 21.732 28 14 28C6.268 28 0 21.732 0 14C0 6.268 6.268 0 14 0Z"
        fill="#2775CA" />
    <path fill-rule="evenodd" clip-rule="evenodd"
        d="M17.2185 4.13418C16.9024 4.03351 16.644 4.22054 16.644 4.55135V5.36494C16.644 5.58676 16.8117 5.83921 17.0205 5.91555C20.3753 7.14056 22.7759 10.3553 22.7759 14.1191C22.7759 17.8829 20.3753 21.0975 17.0205 22.3226C16.7915 22.4062 16.644 22.63 16.644 22.8732V23.6867C16.644 24.0175 16.9024 24.2046 17.2185 24.104C21.4579 22.7535 24.5278 18.7937 24.5278 14.1191C24.5278 9.44444 21.4579 5.48461 17.2185 4.13418ZM11.3881 4.55135C11.3881 4.22054 11.1296 4.03351 10.8136 4.13418C6.57405 5.48461 3.50415 9.44438 3.50415 14.1191C3.50415 18.7939 6.57405 22.7535 10.8136 24.104C11.1296 24.2046 11.3881 24.0175 11.3881 23.6867V22.8732C11.3881 22.6514 11.2204 22.3989 11.0114 22.3226C7.65678 21.0975 5.25612 17.8827 5.25612 14.1191C5.25612 10.3554 7.65678 7.14056 11.0114 5.91555C11.2204 5.83921 11.3881 5.58676 11.3881 5.36494V4.55135ZM14.4541 7.13234H13.578C13.3362 7.13234 13.1401 7.3278 13.1401 7.56898V8.92183C11.4035 9.16798 10.2808 10.3202 10.2808 11.7983C10.2808 13.7116 11.4409 14.454 13.8896 14.7825C15.5509 15.0537 16.0237 15.4105 16.0237 16.353C16.0237 17.2952 15.2214 17.9236 14.0903 17.9236C12.5611 17.9236 12.0578 17.2564 11.8722 16.3929C11.8282 16.1882 11.6525 16.0387 11.4426 16.0387H10.4435C10.1918 16.0387 9.99506 16.2647 10.0383 16.5119C10.2927 17.9655 11.2291 19.0319 13.1401 19.2904V20.6691C13.1401 20.9104 13.3362 21.1059 13.578 21.1059H14.4541C14.6959 21.1059 14.892 20.9104 14.892 20.6691V19.2896C16.7011 19.0032 17.8568 17.7476 17.8568 16.1959C17.8568 14.1542 16.6108 13.4687 14.2047 13.1405C12.4289 12.8835 12.0854 12.4693 12.0854 11.6411C12.0854 10.856 12.6867 10.299 13.8469 10.299C14.8961 10.299 15.4996 10.6641 15.7488 11.506C15.8045 11.6939 15.9731 11.8267 16.1697 11.8267H17.0911C17.348 11.8267 17.548 11.5913 17.4932 11.341C17.2015 10.0105 16.302 9.21209 14.892 8.96024V7.56898C14.892 7.3278 14.6959 7.13234 14.4541 7.13234Z"
        fill="white" />
</svg>