<svg width="59" height="59" viewBox="0 0 59 59" fill="none" xmlns="http://www.w3.org/2000/svg">
    <rect x="12.4233" width="48" height="48" rx="8" transform="rotate(15 12.4233 0)" fill="white" />
    <g filter="url(#filter0_b_27201_36588)">
        <rect x="1" y="10" width="48" height="48" rx="8" fill="black" fill-opacity="0.75" />
        <rect x="1.5" y="10.5" width="47" height="47" rx="7.5" stroke="white" />
        <path
            d="M35.427 28.0499L34.9093 27.141C34.8687 27.0697 34.8122 27.0088 34.7442 26.963C34.6761 26.9173 34.5984 26.8878 34.5171 26.877C34.4358 26.8661 34.3532 26.8743 34.2755 26.9007C34.1979 26.9271 34.1274 26.971 34.0695 27.0292L32.8788 28.2187C32.7917 28.3061 32.7375 28.421 32.7255 28.5438C32.7134 28.6666 32.7441 28.7899 32.8125 28.8926C33.2467 29.556 33.5946 30.2719 33.848 31.0231C34.3212 32.4275 34.4534 33.9242 34.2335 35.3898C34.0136 36.8553 33.4481 38.2474 32.5835 39.4511C31.719 40.6548 30.5803 41.6356 29.2617 42.3122C27.943 42.9889 26.4822 43.342 24.9999 43.3425C23.4741 43.3467 21.9709 42.9736 20.6241 42.2565L22.6381 40.2419C23.886 40.7139 25.2469 40.8007 26.5447 40.4912C27.8426 40.1818 29.0178 39.4902 29.9184 38.506C30.819 37.5217 31.4036 36.29 31.5967 34.9701C31.7898 33.6502 31.5824 32.3027 31.0015 31.1018C30.9646 31.0249 30.9098 30.958 30.8417 30.9066C30.7736 30.8553 30.6941 30.821 30.6101 30.8067C30.526 30.7924 30.4397 30.7985 30.3584 30.8245C30.2772 30.8504 30.2033 30.8955 30.1431 30.9558L28.9378 32.1526C28.8735 32.2167 28.8268 32.2963 28.8019 32.3836C28.7771 32.471 28.775 32.5632 28.7959 32.6516L28.8995 33.0843C29.0777 33.8423 29.0306 34.6359 28.7641 35.3675C28.4977 36.0992 28.0233 36.7372 27.3993 37.2032C26.7754 37.6692 26.0289 37.9429 25.2515 37.9908C24.4742 38.0386 23.6997 37.8586 23.0232 37.4727L22.4921 37.1683C22.3905 37.1099 22.2726 37.0866 22.1565 37.1021C22.0403 37.1177 21.9326 37.1712 21.8501 37.2542L16.9306 42.1716C16.8769 42.2253 16.8353 42.2899 16.8086 42.3609C16.7818 42.432 16.7706 42.508 16.7756 42.5837C16.7806 42.6595 16.8017 42.7333 16.8375 42.8003C16.8734 42.8672 16.9231 42.9257 16.9834 42.9719L17.7082 43.5278C19.7985 45.1383 22.3652 46.008 25.0041 46C27.105 45.9973 29.1685 45.4437 30.9886 44.3944C32.8087 43.3452 34.3216 41.837 35.3764 40.0204C36.4313 38.2038 36.9911 36.1424 36.9999 34.0419C37.0088 31.9414 36.4665 29.8753 35.427 28.0499Z"
            fill="white" />
        <path
            d="M32.2979 24.4732C30.2078 22.8622 27.6411 21.9921 25.002 22.0001C22.9 22.0017 20.8353 22.5548 19.0141 23.6041C17.1929 24.6534 15.679 26.1621 14.6236 27.9796C13.5683 29.797 13.0085 31.8595 13.0001 33.9611C12.9917 36.0626 13.5351 38.1295 14.576 39.9553L15.0937 40.8632C15.1345 40.9343 15.1911 40.9952 15.2591 41.0409C15.3272 41.0867 15.4049 41.1162 15.4862 41.1271C15.5675 41.138 15.6502 41.1301 15.728 41.1039C15.8057 41.0777 15.8764 41.0339 15.9345 40.976L17.1232 39.7876C17.2096 39.6999 17.2634 39.5853 17.2755 39.4628C17.2875 39.3403 17.2572 39.2174 17.1895 39.1147C16.7549 38.4515 16.4069 37.7355 16.154 36.9841C15.6807 35.5798 15.5486 34.083 15.7684 32.6175C15.9883 31.152 16.5539 29.7598 17.4184 28.5561C18.2829 27.3524 19.4216 26.3717 20.7403 25.695C22.059 25.0184 23.5198 24.6652 25.002 24.6648C26.5278 24.6613 28.0308 25.0355 29.3768 25.7538L27.3618 27.7674C26.3524 27.3849 25.2652 27.2532 24.1937 27.3835C23.1221 27.5138 22.0982 27.9024 21.21 28.5157C20.3218 29.129 19.5958 29.9487 19.0944 30.9045C18.593 31.8602 18.3312 32.9234 18.3316 34.0026C18.3316 34.1134 18.3616 34.6186 18.3709 34.7056C18.4526 35.4702 18.6652 36.215 18.9994 36.9075C19.0365 36.9844 19.0914 37.0514 19.1596 37.1027C19.2278 37.154 19.3073 37.1883 19.3914 37.2026C19.4756 37.2169 19.5619 37.2108 19.6433 37.1848C19.7246 37.1589 19.7985 37.1139 19.8589 37.0535L21.0641 35.8474C21.1283 35.7834 21.1752 35.7041 21.2002 35.617C21.2252 35.5298 21.2275 35.4378 21.207 35.3495L21.1035 34.9157C20.9251 34.1577 20.972 33.364 21.2384 32.6323C21.5049 31.9005 21.9793 31.2625 22.6034 30.7965C23.2274 30.3306 23.9741 30.057 24.7515 30.0093C25.529 29.9617 26.3034 30.1421 26.9797 30.5284L27.5109 30.8327C27.6126 30.8907 27.7304 30.9136 27.8464 30.8981C27.9624 30.8826 28.0701 30.8294 28.1529 30.7468L33.0714 25.8294C33.1251 25.7757 33.1668 25.7111 33.1937 25.64C33.2205 25.5689 33.2318 25.4929 33.2269 25.4171C33.222 25.3412 33.201 25.2673 33.1652 25.2002C33.1295 25.1331 33.0798 25.0745 33.0196 25.0281L32.2979 24.4732Z"
            fill="white" />
    </g>
    <defs>
        <filter id="filter0_b_27201_36588" x="-15" y="-6" width="80" height="80" filterUnits="userSpaceOnUse"
            color-interpolation-filters="sRGB">
            <feFlood flood-opacity="0" result="BackgroundImageFix" />
            <feGaussianBlur in="BackgroundImageFix" stdDeviation="8" />
            <feComposite in2="SourceAlpha" operator="in" result="effect1_backgroundBlur_27201_36588" />
            <feBlend mode="normal" in="SourceGraphic" in2="effect1_backgroundBlur_27201_36588" result="shape" />
        </filter>
    </defs>
</svg>