<svg width="16" height="16" viewBox="0 0 16 16" fill="none" xmlns="http://www.w3.org/2000/svg">
    <path
        d="M8.07528 14.6539C8.02481 14.6711 7.97541 14.6709 7.92508 14.6532C7.27848 14.426 2.66675 12.6262 2.66675 7.50158V2.86921C2.66675 2.74665 2.75003 2.63981 2.86874 2.61008L7.93541 1.34129C7.97788 1.33065 8.02228 1.33065 8.06475 1.34129L13.1314 2.61008C13.2501 2.63981 13.3334 2.74665 13.3334 2.86921V7.50158C13.3334 12.6779 8.72275 14.433 8.07528 14.6539Z"
        stroke="#2BCFA1" stroke-width="1.5" stroke-miterlimit="10" stroke-linejoin="round" />
    <mask id="path-2-inside-1_27178_1216" fill="white">
        <path
            d="M9.33341 6.60556C9.33356 6.8689 9.24815 7.1258 9.08895 7.34086C8.92974 7.55592 8.7046 7.71855 8.44453 7.80633L8.78675 9.49506C8.7992 9.55648 8.79727 9.61977 8.78109 9.6804C8.76492 9.74102 8.73491 9.79748 8.6932 9.84574C8.65149 9.89399 8.59912 9.93284 8.53984 9.95951C8.48056 9.98617 8.41583 9.99999 8.3503 9.99998H7.64986C7.5844 9.99987 7.51978 9.98596 7.46061 9.95923C7.40144 9.93251 7.34918 9.89365 7.30757 9.84541C7.26596 9.79717 7.23602 9.74076 7.2199 9.68019C7.20378 9.61963 7.20187 9.55641 7.2143 9.49506L7.55564 7.80633C7.3252 7.72855 7.12159 7.5918 6.96706 7.41102C6.81253 7.23024 6.71303 7.01239 6.67942 6.78127C6.64581 6.55015 6.67938 6.31465 6.77649 6.10052C6.87359 5.88639 7.03047 5.70186 7.23 5.56709C7.42952 5.43232 7.66401 5.35251 7.90784 5.33636C8.15166 5.32022 8.39545 5.36837 8.61255 5.47556C8.82965 5.58274 9.01172 5.74483 9.13885 5.94412C9.26598 6.1434 9.33329 6.37222 9.33341 6.60556Z" />
    </mask>
    <path
        d="M9.33341 6.60556C9.33356 6.8689 9.24815 7.1258 9.08895 7.34086C8.92974 7.55592 8.7046 7.71855 8.44453 7.80633L8.78675 9.49506C8.7992 9.55648 8.79727 9.61977 8.78109 9.6804C8.76492 9.74102 8.73491 9.79748 8.6932 9.84574C8.65149 9.89399 8.59912 9.93284 8.53984 9.95951C8.48056 9.98617 8.41583 9.99999 8.3503 9.99998H7.64986C7.5844 9.99987 7.51978 9.98596 7.46061 9.95923C7.40144 9.93251 7.34918 9.89365 7.30757 9.84541C7.26596 9.79717 7.23602 9.74076 7.2199 9.68019C7.20378 9.61963 7.20187 9.55641 7.2143 9.49506L7.55564 7.80633C7.3252 7.72855 7.12159 7.5918 6.96706 7.41102C6.81253 7.23024 6.71303 7.01239 6.67942 6.78127C6.64581 6.55015 6.67938 6.31465 6.77649 6.10052C6.87359 5.88639 7.03047 5.70186 7.23 5.56709C7.42952 5.43232 7.66401 5.35251 7.90784 5.33636C8.15166 5.32022 8.39545 5.36837 8.61255 5.47556C8.82965 5.58274 9.01172 5.74483 9.13885 5.94412C9.26598 6.1434 9.33329 6.37222 9.33341 6.60556Z"
        fill="#2BCFA1" />
    <path
        d="M9.33341 6.60556L10.3334 6.60501V6.60501L9.33341 6.60556ZM8.44453 7.80633L8.12472 6.85885L7.28933 7.14082L7.46445 8.00495L8.44453 7.80633ZM8.78675 9.49506L7.80667 9.69367L7.80668 9.69373L8.78675 9.49506ZM8.3503 9.99998L8.35051 8.99998H8.3503V9.99998ZM7.64986 9.99998L7.64816 11H7.64986V9.99998ZM7.2143 9.49506L8.19437 9.69373L8.19448 9.69318L7.2143 9.49506ZM7.55564 7.80633L8.53582 8.00445L8.71041 7.14068L7.87544 6.85885L7.55564 7.80633ZM8.33341 6.6061C8.33344 6.65135 8.31904 6.70018 8.2852 6.74589L9.89269 7.93584C10.1773 7.55143 10.3337 7.08644 10.3334 6.60501L8.33341 6.6061ZM8.2852 6.74589C8.25083 6.79231 8.19659 6.83459 8.12472 6.85885L8.76433 8.75382C9.2126 8.60251 9.60866 8.31953 9.89269 7.93584L8.2852 6.74589ZM7.46445 8.00495L7.80667 9.69367L9.76683 9.29644L9.4246 7.60772L7.46445 8.00495ZM7.80668 9.69373C7.78845 9.60378 7.79135 9.51086 7.81489 9.42264L9.7473 9.93816C9.80319 9.72868 9.80995 9.50918 9.76681 9.29639L7.80668 9.69373ZM7.81489 9.42264C7.83838 9.33457 7.88108 9.25608 7.93665 9.19179L9.44974 10.4997C9.58873 10.3389 9.69146 10.1475 9.7473 9.93816L7.81489 9.42264ZM7.93665 9.19179C7.99207 9.12768 8.05865 9.07944 8.1296 9.04753L8.95007 10.8715C9.13958 10.7862 9.3109 10.6603 9.44974 10.4997L7.93665 9.19179ZM8.1296 9.04753C8.20045 9.01566 8.27573 8.99996 8.35051 8.99998L8.3501 11C8.55594 11 8.76067 10.9567 8.95007 10.8715L8.1296 9.04753ZM8.3503 8.99998H7.64986V11H8.3503V8.99998ZM7.65156 8.99998C7.72626 9.00011 7.80144 9.01591 7.87217 9.04785L7.04905 10.8706C7.23812 10.956 7.44255 10.9996 7.64816 11L7.65156 8.99998ZM7.87217 9.04785C7.94301 9.07984 8.00947 9.12812 8.06478 9.19223L6.55037 10.4986C6.68889 10.6592 6.85987 10.7852 7.04905 10.8706L7.87217 9.04785ZM8.06478 9.19223C8.12023 9.25651 8.16282 9.33495 8.18625 9.42294L6.25356 9.93745C6.30923 10.1466 6.4117 10.3378 6.55037 10.4986L8.06478 9.19223ZM8.18625 9.42294C8.20971 9.51108 8.21258 9.6039 8.19437 9.69373L6.23424 9.29639C6.19115 9.50892 6.19785 9.72817 6.25356 9.93745L8.18625 9.42294ZM8.19448 9.69318L8.53582 8.00445L6.57546 7.60821L6.23413 9.29694L8.19448 9.69318ZM7.87544 6.85885C7.81189 6.8374 7.76174 6.80167 7.7272 6.76126L6.20693 8.06078C6.48145 8.38193 6.83851 8.61971 7.23583 8.75382L7.87544 6.85885ZM7.7272 6.76126C7.69302 6.72127 7.67492 6.67799 7.66901 6.63736L5.68983 6.92518C5.75114 7.34678 5.93205 7.73922 6.20693 8.06078L7.7272 6.76126ZM7.66901 6.63736C7.66313 6.59693 7.66858 6.55462 7.68722 6.5135L5.86575 5.68754C5.69019 6.07469 5.62848 6.50336 5.68983 6.92518L7.66901 6.63736ZM7.68722 6.5135C7.70608 6.47193 7.73949 6.4297 7.78972 6.39577L6.67027 4.73841C6.32145 4.97402 6.0411 5.30085 5.86575 5.68754L7.68722 6.5135ZM7.78972 6.39577C7.84028 6.36162 7.90393 6.33881 7.9739 6.33418L7.84178 4.33855C7.42409 4.3662 7.01876 4.50303 6.67027 4.73841L7.78972 6.39577ZM7.9739 6.33418C8.04391 6.32954 8.11202 6.34368 8.16986 6.37223L9.05524 4.57888C8.67887 4.39307 8.25942 4.3109 7.84178 4.33855L7.9739 6.33418ZM8.16986 6.37223C8.22742 6.40065 8.26932 6.44045 8.29579 6.48193L9.98191 5.4063C9.75411 5.04921 9.43188 4.76483 9.05524 4.57888L8.16986 6.37223ZM8.29579 6.48193C8.32195 6.52294 8.33339 6.56576 8.33341 6.6061L10.3334 6.60501C10.3332 6.17867 10.21 5.76387 9.98191 5.4063L8.29579 6.48193Z"
        fill="#2BCFA1" mask="url(#path-2-inside-1_27178_1216)" />
</svg>