<svg width="16" height="16" viewBox="0 0 16 16" fill="none" xmlns="http://www.w3.org/2000/svg">
    <path
        d="M12.4 2H3.6C2.71635 2 2 2.71635 2 3.6V12.4C2 13.2837 2.71635 14 3.6 14H12.4C13.2837 14 14 13.2837 14 12.4V3.6C14 2.71635 13.2837 2 12.4 2Z"
        stroke="#2BCFA1" stroke-width="1.5" stroke-miterlimit="10" stroke-linecap="round" stroke-linejoin="round" />
    <path
        d="M9.33325 9.00002L11.3333 6.66669M9.61897 10.1667C9.61897 10.811 9.10731 11.3334 8.47611 11.3334C7.84491 11.3334 7.33325 10.811 7.33325 10.1667C7.33325 9.52234 7.84491 9.00002 8.47611 9.00002C9.10731 9.00002 9.61897 9.52234 9.61897 10.1667Z"
        stroke="#2BCFA1" stroke-linecap="round" />
    <path
        d="M4.66675 8.00002C4.66675 6.15907 6.25862 4.66669 8.2223 4.66669C8.86995 4.66669 9.47712 4.82901 10.0001 5.11263"
        stroke="#2BCFA1" stroke-linecap="round" />
</svg>