<svg xmlns="http://www.w3.org/2000/svg" width="14" height="14" viewBox="0 0 14 14" fill="none">
  <path d="M1.55678 0.255283C1.20861 -0.092883 0.635017 -0.0837783 0.275619 0.275619C-0.0837783 0.635017 -0.092883 1.20861 0.255283 1.55678L5.57242 6.87392C5.64206 6.94355 5.64206 7.05645 5.57242 7.12608L0.255283 12.4432C-0.092883 12.7914 -0.0837782 13.365 0.275619 13.7244C0.635017 14.0838 1.20861 14.0929 1.55678 13.7447L6.87392 8.42758C6.94355 8.35794 7.05645 8.35794 7.12608 8.42758L12.4432 13.7447C12.7914 14.0929 13.365 14.0838 13.7244 13.7244C14.0838 13.365 14.0929 12.7914 13.7447 12.4432L8.42758 7.12608C8.35794 7.05645 8.35794 6.94355 8.42758 6.87392L13.7447 1.55678C14.0929 1.20861 14.0838 0.635017 13.7244 0.275619C13.365 -0.0837783 12.7914 -0.0928826 12.4432 0.255283L7.12608 5.57242C7.05645 5.64206 6.94355 5.64206 6.87392 5.57242L1.55678 0.255283Z" fill="#E63F43"/>
</svg>