<svg width="24" height="24" viewBox="0 0 24 24" fill="none" xmlns="http://www.w3.org/2000/svg">
    <g clip-path="url(#clip0_17299_29036)">
        <path opacity="0.25"
            d="M16.5 9.0675V11.625C16.5 13.3125 13.7587 14.7047 10.1747 14.9588C11.4787 15.4528 13.1625 15.75 15 15.75C19.1419 15.75 22.5 14.2388 22.5 12.375C22.5 10.7419 19.9237 9.38063 16.5 9.0675Z"
            fill="black" />
        <path opacity="0.25"
            d="M9 11.25C13.1421 11.25 16.5 9.73896 16.5 7.875C16.5 6.01104 13.1421 4.5 9 4.5C4.85786 4.5 1.5 6.01104 1.5 7.875C1.5 9.73896 4.85786 11.25 9 11.25Z"
            fill="black" />
        <path
            d="M9 11.25C13.1421 11.25 16.5 9.73896 16.5 7.875C16.5 6.01104 13.1421 4.5 9 4.5C4.85786 4.5 1.5 6.01104 1.5 7.875C1.5 9.73896 4.85786 11.25 9 11.25Z"
            stroke="black" stroke-linecap="round" stroke-linejoin="round" />
        <path d="M1.5 7.875V11.625C1.5 13.4887 4.85812 15 9 15C13.1419 15 16.5 13.4887 16.5 11.625V7.875" stroke="black"
            stroke-linecap="round" stroke-linejoin="round" />
        <path d="M6 10.9688V14.7188" stroke="black" stroke-linecap="round" stroke-linejoin="round" />
        <path
            d="M16.5 9.0675C19.9237 9.38063 22.5 10.7419 22.5 12.375C22.5 14.2388 19.1419 15.75 15 15.75C13.1625 15.75 11.4787 15.4528 10.1747 14.9588"
            stroke="black" stroke-linecap="round" stroke-linejoin="round" />
        <path d="M7.5 14.9325V16.125C7.5 17.9887 10.8581 19.5 15 19.5C19.1419 19.5 22.5 17.9887 22.5 16.125V12.375"
            stroke="black" stroke-linecap="round" stroke-linejoin="round" />
        <path d="M18 15.4688V19.2188" stroke="black" stroke-linecap="round" stroke-linejoin="round" />
        <path d="M12 10.9688V19.2188" stroke="black" stroke-linecap="round" stroke-linejoin="round" />
    </g>
    <defs>
        <clipPath id="clip0_17299_29036">
            <rect width="24" height="24" fill="white" />
        </clipPath>
    </defs>
</svg>