<svg width="25" height="24" viewBox="0 0 25 24" fill="none" xmlns="http://www.w3.org/2000/svg">
<path fill-rule="evenodd" clip-rule="evenodd" d="M20.75 2.25H4.25C3.42157 2.25 2.75 2.92157 2.75 3.75V10.5C2.75 11.3284 3.42157 12 4.25 12H20.75C21.5784 12 22.25 11.3284 22.25 10.5V3.75C22.25 2.92157 21.5784 2.25 20.75 2.25ZM4.25 0C2.17893 0 0.5 1.67893 0.5 3.75V10.5C0.5 12.5711 2.17893 14.25 4.25 14.25H20.75C22.8211 14.25 24.5 12.5711 24.5 10.5V3.75C24.5 1.67893 22.8211 0 20.75 0H4.25Z" fill="#DBDBDB"/>
<path fill-rule="evenodd" clip-rule="evenodd" d="M4.25 16.5C3.83579 16.5 3.5 16.8358 3.5 17.25V18.75C3.5 19.1642 3.83579 19.5 4.25 19.5H20.75C21.1642 19.5 21.5 19.1642 21.5 18.75V17.25C21.5 16.8358 21.1642 16.5 20.75 16.5H4.25Z" fill="#DBDBDB"/>
<path fill-rule="evenodd" clip-rule="evenodd" d="M5.75 22.875C5.75 22.2537 6.25368 21.75 6.875 21.75H18.125C18.7463 21.75 19.25 22.2537 19.25 22.875C19.25 23.4963 18.7463 24 18.125 24H6.875C6.25368 24 5.75 23.4963 5.75 22.875Z" fill="#DBDBDB"/>
</svg>
