<svg width="59" height="59" viewBox="0 0 59 59" fill="none" xmlns="http://www.w3.org/2000/svg">
<rect x="12.4238" width="48" height="48" rx="8" transform="rotate(15 12.4238 0)" fill="white"/>
<g filter="url(#filter0_b_27862_83716)">
<rect x="1" y="10" width="48" height="48" rx="8" fill="black" fill-opacity="0.75"/>
<rect x="1.5" y="10.5" width="47" height="47" rx="7.5" stroke="white"/>
<path d="M33 33H17M33 33C34.1046 33 35 33.8954 35 35V39C35 41.2091 33.2091 43 31 43H19C16.7909 43 15 41.2091 15 39V35C15 33.8954 15.8954 33 17 33M33 33V31C33 29.8954 32.1046 29 31 29M17 33V31C17 29.8954 17.8954 29 19 29M31 29H19M31 29V27C31 25.8954 30.1046 25 29 25H21C19.8954 25 19 25.8954 19 27V29M23 36H27" stroke="white" stroke-width="2" stroke-linecap="round"/>
</g>
<defs>
<filter id="filter0_b_27862_83716" x="-15" y="-6" width="80" height="80" filterUnits="userSpaceOnUse" color-interpolation-filters="sRGB">
<feFlood flood-opacity="0" result="BackgroundImageFix"/>
<feGaussianBlur in="BackgroundImageFix" stdDeviation="8"/>
<feComposite in2="SourceAlpha" operator="in" result="effect1_backgroundBlur_27862_83716"/>
<feBlend mode="normal" in="SourceGraphic" in2="effect1_backgroundBlur_27862_83716" result="shape"/>
</filter>
</defs>
</svg>
