<svg xmlns="http://www.w3.org/2000/svg" width="20" height="20" viewBox="0 0 20 20" fill="none">
<path d="M9.99996 6.24984H10.0083M9.99996 13.7498H10.0083M10.8333 13.7498C10.8333 14.2101 10.4602 14.5832 9.99996 14.5832C9.53971 14.5832 9.16663 14.2101 9.16663 13.7498C9.16663 13.2896 9.53971 12.9165 9.99996 12.9165C10.4602 12.9165 10.8333 13.2896 10.8333 13.7498ZM10.8333 6.24984C10.8333 6.71007 10.4602 7.08317 9.99996 7.08317C9.53971 7.08317 9.16663 6.71007 9.16663 6.24984C9.16663 5.7896 9.53971 5.4165 9.99996 5.4165C10.4602 5.4165 10.8333 5.7896 10.8333 6.24984Z" stroke="#7B7B7B" stroke-width="1.5" stroke-linecap="round" stroke-linejoin="round"/>
</svg>