<svg width="59" height="59" viewBox="0 0 59 59" fill="none" xmlns="http://www.w3.org/2000/svg">
<rect x="12.4233" width="48" height="48" rx="8" transform="rotate(15 12.4233 0)" fill="white"/>
<g filter="url(#filter0_b_21780_27001)">
<rect x="1" y="10" width="48" height="48" rx="8" fill="black" fill-opacity="0.75"/>
<rect x="1.5" y="10.5" width="47" height="47" rx="7.5" stroke="white"/>
<path d="M20.48 40.35L23.58 42.75C23.98 43.15 24.88 43.35 25.48 43.35H29.28C30.48 43.35 31.78 42.45 32.08 41.25L34.48 33.95C34.98 32.55 34.08 31.35 32.58 31.35H28.58C27.98 31.35 27.48 30.85 27.58 30.15L28.08 26.95C28.28 26.05 27.68 25.05 26.78 24.75C25.98 24.45 24.98 24.85 24.58 25.45L20.48 31.55" stroke="white" stroke-width="1.5" stroke-miterlimit="10"/>
<path d="M15.3799 40.35V30.55C15.3799 29.15 15.9799 28.65 17.3799 28.65H18.3799C19.7799 28.65 20.3799 29.15 20.3799 30.55V40.35C20.3799 41.75 19.7799 42.25 18.3799 42.25H17.3799C15.9799 42.25 15.3799 41.75 15.3799 40.35Z" stroke="white" stroke-width="1.5" stroke-linecap="round" stroke-linejoin="round"/>
</g>
<defs>
<filter id="filter0_b_21780_27001" x="-15" y="-6" width="80" height="80" filterUnits="userSpaceOnUse" color-interpolation-filters="sRGB">
<feFlood flood-opacity="0" result="BackgroundImageFix"/>
<feGaussianBlur in="BackgroundImageFix" stdDeviation="8"/>
<feComposite in2="SourceAlpha" operator="in" result="effect1_backgroundBlur_21780_27001"/>
<feBlend mode="normal" in="SourceGraphic" in2="effect1_backgroundBlur_21780_27001" result="shape"/>
</filter>
</defs>
</svg>
