<svg width="14" height="17" viewBox="0 0 14 17" fill="none" xmlns="http://www.w3.org/2000/svg">
<path fill-rule="evenodd" clip-rule="evenodd" d="M8.96429 4.15714H2.78571C2.28077 4.15714 1.87143 4.56648 1.87143 5.07143V14.2143C1.87143 14.7192 2.28077 15.1286 2.78571 15.1286H8.96429C9.46923 15.1286 9.87857 14.7192 9.87857 14.2143V5.07143C9.87857 4.56648 9.46923 4.15714 8.96429 4.15714ZM2.78571 2.78571C1.52335 2.78571 0.5 3.80906 0.5 5.07143V14.2143C0.5 15.4767 1.52335 16.5 2.78571 16.5H8.96429C10.2267 16.5 11.25 15.4767 11.25 14.2143V5.07143C11.25 3.80906 10.2267 2.78571 8.96429 2.78571H2.78571Z" fill="#C2C2C2"/>
<path d="M4.75 1.41429C4.75 1.66676 4.95467 1.87143 5.20714 1.87143H10.3071C11.317 1.87143 12.1357 2.69011 12.1357 3.70001V12.3857C12.1357 12.6382 12.3404 12.8429 12.5929 12.8429H13.05C13.3025 12.8429 13.5071 12.6382 13.5071 12.3857V3.24286C13.5071 1.72802 12.2791 0.499999 10.7643 0.5L5.20714 0.500006C4.95467 0.500006 4.75 0.704676 4.75 0.957149V1.41429Z" fill="#C2C2C2"/>
</svg>
