<svg xmlns="http://www.w3.org/2000/svg" width="20" height="20" viewBox="0 0 20 20" fill="none">
  <path d="M4.14527 5.17859H12.6402C13.8448 5.17859 14.8213 6.15511 14.8213 7.35971V15.8546C14.8213 17.0592 13.8448 18.0357 12.6402 18.0357H4.14527C2.94067 18.0357 1.96415 17.0592 1.96415 15.8546V7.35971C1.96415 6.15511 2.94067 5.17859 4.14527 5.17859Z" stroke="white" stroke-width="1.5" stroke-linejoin="round"/>
  <path d="M5.19812 5.02546L5.17899 4.10709C5.18061 3.53927 5.40689 2.99516 5.8084 2.59365C6.20992 2.19213 6.75402 1.96585 7.32185 1.96423H15.5872C16.2361 1.96615 16.8579 2.22478 17.3167 2.68364C17.7756 3.1425 18.0342 3.76429 18.0361 4.41321V12.6785C18.0345 13.2463 17.8082 13.7904 17.4067 14.192C17.0052 14.5935 16.4611 14.8198 15.8933 14.8214H14.9749" stroke="white" stroke-width="1.5" stroke-linecap="round" stroke-linejoin="round"/>
</svg>