<svg width="20" height="20" viewBox="0 0 20 20" fill="none" xmlns="http://www.w3.org/2000/svg">
<path d="M15.8538 5.17859H7.35886C6.15426 5.17859 5.17773 6.15511 5.17773 7.35971V15.8546C5.17773 17.0592 6.15426 18.0357 7.35886 18.0357H15.8538C17.0584 18.0357 18.0349 17.0592 18.0349 15.8546V7.35971C18.0349 6.15511 17.0584 5.17859 15.8538 5.17859Z" stroke="white" stroke-width="1.5" stroke-linejoin="round"/>
<path d="M14.8029 5.02546L14.822 4.10709C14.8204 3.53927 14.5941 2.99516 14.1926 2.59365C13.7911 2.19213 13.247 1.96585 12.6791 1.96423H4.41382C3.7649 1.96615 3.14311 2.22478 2.68425 2.68364C2.22539 3.1425 1.96676 3.76429 1.96484 4.41321V12.6785C1.96646 13.2463 2.19274 13.7904 2.59426 14.192C2.99577 14.5935 3.53988 14.8198 4.1077 14.8214H5.02607" stroke="white" stroke-width="1.5" stroke-linecap="round" stroke-linejoin="round"/>
</svg>
