<svg width="12" height="12" viewBox="0 0 12 12" fill="none" xmlns="http://www.w3.org/2000/svg">
<g clip-path="url(#clip0_8274_15404)">
<path fill-rule="evenodd" clip-rule="evenodd" d="M9.375 1.125H2.625C1.79657 1.125 1.125 1.79657 1.125 2.625V9.375C1.125 10.2034 1.79657 10.875 2.625 10.875H9.375C10.2034 10.875 10.875 10.2034 10.875 9.375V2.625C10.875 1.79657 10.2034 1.125 9.375 1.125ZM2.625 0C1.17525 0 0 1.17525 0 2.625V9.375C0 10.8247 1.17525 12 2.625 12H9.375C10.8247 12 12 10.8247 12 9.375V2.625C12 1.17525 10.8247 0 9.375 0H2.625Z" fill="#C2C2C2"/>
<path fill-rule="evenodd" clip-rule="evenodd" d="M1.56599 7.40812C1.28974 8.00937 1.125 8.70606 1.125 9.37478C1.125 9.68544 0.87316 9.93728 0.5625 9.93728C0.25184 9.93728 0 9.68544 0 9.37478C0 8.53143 0.205204 7.67521 0.543727 6.93843C0.879506 6.20762 1.36753 5.54961 1.96979 5.1483C2.59173 4.73388 3.35612 4.58835 4.11834 4.96774C4.83919 5.32654 5.45375 6.1057 5.95516 7.28507C6.42577 8.39201 6.77277 8.548 6.906 8.5699C6.98562 8.58298 7.09545 8.57097 7.2687 8.49969C7.4293 8.43361 7.5931 8.33973 7.79946 8.22146C7.82528 8.20665 7.85177 8.19147 7.87901 8.17591L7.8862 8.17181C8.31345 7.92771 8.97514 7.54968 9.72793 7.73402C10.4935 7.92148 11.1374 8.62353 11.755 9.88242C11.8918 10.1613 11.7766 10.4983 11.4977 10.6352C11.2188 10.772 10.8818 10.6568 10.745 10.3779C10.1572 9.17967 9.71138 8.8882 9.46035 8.82673C9.20082 8.76318 8.9224 8.87549 8.43705 9.15275C8.41202 9.16705 8.38625 9.18187 8.35983 9.19706C8.16324 9.3101 7.93062 9.44385 7.69676 9.54007C7.42402 9.65228 7.09032 9.74028 6.72356 9.68001C5.96405 9.55519 5.40696 8.87099 4.91984 7.72524C4.46352 6.65193 3.98984 6.16043 3.61705 5.97488C3.28564 5.80992 2.95099 5.84636 2.59362 6.0845C2.21656 6.33575 1.84498 6.8009 1.56599 7.40812Z" fill="#C2C2C2"/>
<path d="M9 4.125C9 4.74632 8.49632 5.25 7.875 5.25C7.25368 5.25 6.75 4.74632 6.75 4.125C6.75 3.50368 7.25368 3 7.875 3C8.49632 3 9 3.50368 9 4.125Z" fill="#C2C2C2"/>
</g>
<defs>
<clipPath id="clip0_8274_15404">
<rect width="12" height="12" fill="white"/>
</clipPath>
</defs>
</svg>
