<svg width="32" height="32" viewBox="0 0 32 32" fill="none" xmlns="http://www.w3.org/2000/svg">
<g clip-path="url(#clip0_20956_1246)" filter="url(#filter0_d_20956_1246)">
<path d="M28 12C28 5.36638 22.6207 0 16 0C9.36638 0 4 5.36638 4 12C4 18.6207 9.36638 24 16 24C22.6207 24 28 18.6207 28 12Z" fill="url(#paint0_radial_20956_1246)"/>
<path d="M24.1595 8.25C24.1078 8.54741 24.056 8.68965 23.9785 8.84482C23.9009 9.02586 23.8233 9.21982 23.7457 9.63362C23.7198 9.78879 23.694 9.9181 23.681 10.0215V10.0345C23.6552 10.2026 23.6422 10.319 23.5776 10.5129C23.5259 10.681 23.4353 10.9526 23.2155 11.2371C23.0345 11.4698 22.7371 11.8707 22.3362 11.9224C22.2974 11.9224 22.2328 11.9224 22.194 11.9095C21.056 11.3276 20.0862 10.9009 19.75 10.8103C19.3621 10.694 19.4138 9.84051 19.4526 9.09051C19.4785 8.75431 19.4914 8.43103 19.4785 8.15948C19.4267 7.20258 19.2586 6.1681 18.431 5.66379C17.9397 5.36638 17.2931 5.27586 16.6853 5.27586C16.8017 5.22413 16.9181 5.14655 17.0603 5.06896C17.4224 4.86206 17.8621 4.60344 18.3147 4.55172C18.4569 4.53879 18.5991 4.52586 18.7414 4.5C19.6336 4.39655 20.4095 4.30603 21.2241 4.59051C21.5991 4.71982 22.3491 5.13362 22.5431 5.53448C22.6853 5.80603 22.9181 6.02586 23.3707 6.45258C23.6164 6.67241 23.7716 6.80172 23.8879 6.90517C24.056 7.03448 24.0819 7.07327 24.1336 7.16379C24.2888 7.47413 24.2371 7.79741 24.1595 8.25Z" fill="white"/>
<path d="M20.0345 12.1681C20.0862 12.181 20.1121 12.2457 20.0733 12.2974C19.9569 12.4784 19.8147 12.7371 19.6466 13.0345C19.569 13.1767 19.4914 13.319 19.4267 13.4224C19.2069 13.7974 19.194 14.1207 19.181 14.3664C19.1681 14.6379 19.1552 14.7543 18.9871 14.8578C18.8578 14.9483 18.7155 14.9741 17.7845 15.1164C17.6164 15.1422 17.5517 15.1681 17.4871 15.2069C17.4741 15.2198 17.4483 15.2198 17.4353 15.2328C17.3836 15.2586 17.3319 15.2069 17.3319 15.1552C17.3448 15.0259 17.3448 14.8578 17.3448 14.6379V14.5991C17.3448 14.4181 17.3448 14.2629 17.3319 14.1465C17.319 13.9138 17.319 13.8103 17.3836 13.7069C17.4612 13.5776 17.5259 13.5388 17.6164 13.4741C17.7586 13.3836 17.9526 13.2672 18.2241 12.8793C18.3793 12.6724 18.4052 12.556 18.431 12.4655C18.444 12.4267 18.444 12.4138 18.5603 12.3233C18.6767 12.2328 19.0517 11.9483 19.5302 12.0259C19.6853 12.0517 19.8535 12.1034 20.0345 12.1681Z" fill="white"/>
<path d="M16.3233 16.4612C16.2974 16.4871 16.2845 16.5 16.2457 16.5C16.1422 16.5 16.0776 16.4741 16.0388 16.4224C15.9483 16.306 15.9612 16.0733 15.9741 15.931L16.375 15.8276C16.4009 16.0474 16.4138 16.3448 16.3233 16.4612Z" fill="white"/>
<path d="M16.3491 15.0388C16.3362 15.0905 16.3362 15.1552 16.3362 15.2328C16.3362 15.2586 16.3362 15.2845 16.3362 15.3103C16.3362 15.375 16.3362 15.4784 16.3362 15.5302C16.2069 15.569 16.1034 15.569 15.9741 15.569C15.9741 15.5302 15.9741 15.4655 15.9741 15.4267C15.9741 15.4009 15.9741 15.3621 15.9741 15.3362C15.9741 15.2974 15.9741 15.2715 15.9741 15.2328C15.9741 15.1552 15.9741 15.0388 15.9871 15C16.0259 15 16.0647 14.9871 16.1034 14.9741C16.181 14.9612 16.2974 14.9353 16.3621 14.9483C16.3621 14.9741 16.3621 15.0129 16.3491 15.0388Z" fill="white"/>
<path d="M15.625 16.3448C15.6121 16.5517 15.5474 16.7974 15.3535 16.8362C15.2629 16.8491 15.2241 16.8233 15.1983 16.7974C15.069 16.681 15.056 16.319 15.069 16.0603C15.1595 16.0603 15.2629 16.0474 15.3922 16.0216C15.4698 16.0086 15.5474 15.9828 15.6121 15.9698C15.625 16.0733 15.6379 16.2026 15.625 16.3448Z" fill="white"/>
<path d="M15.5345 15.6207L15.1078 15.7759C15.1336 15.6078 15.1595 15.375 15.1724 15.2198C15.1853 15.1164 15.2112 15.0776 15.2241 15.0646C15.2241 15.0646 15.2371 15.0517 15.25 15.0517C15.25 15.0517 15.25 15.0517 15.2629 15.0517H15.2759L15.5474 15.0388C15.5345 15.1681 15.5345 15.4526 15.5345 15.6207Z" fill="white"/>
<path d="M14.8362 15.4914C14.8103 15.556 14.7845 15.7371 14.7716 15.8664L14.2414 15.8534C14.2672 15.6853 14.319 15.5172 14.3578 15.3879C14.4095 15.2586 14.4483 15.1552 14.5 15.1293C14.5517 15.1034 14.6681 15.0905 14.7457 15.1552C14.8621 15.2328 14.8879 15.3491 14.8362 15.4914Z" fill="white"/>
<path d="M14.6422 17.1336C14.6035 17.1853 14.5517 17.2241 14.5 17.2241C14.4353 17.2371 14.3966 17.2112 14.3578 17.1853C14.1897 17.0302 14.2026 16.5259 14.2155 16.2802C14.4354 16.2284 14.681 16.1897 14.7974 16.1767C14.7974 16.3707 14.8104 16.9009 14.6422 17.1336Z" fill="white"/>
<path d="M13.944 15.8276C13.9181 15.8922 13.8922 15.9569 13.8793 16.0215C13.8147 16.0474 13.6207 16.0215 13.4267 15.9828L13.556 15.1422C13.7759 15.0776 14.0345 15.0647 14.0862 15.1293C14.1767 15.2198 14.0086 15.6465 13.944 15.8276Z" fill="white"/>
<path d="M13.6983 17.25C13.5948 17.3793 13.4397 17.444 13.2198 17.431C13.0647 17.431 13.0129 17.3664 12.9871 17.3276C12.8707 17.1336 12.9871 16.681 13.1035 16.3965L13.8276 16.4353C13.8405 16.4871 13.8405 16.5517 13.8405 16.6164C13.8535 16.8362 13.8276 17.0948 13.6983 17.25Z" fill="white"/>
<path d="M19.6983 11.1336C19.0388 10.9526 19.1035 9.99569 19.1552 9.06465C19.1681 8.74138 19.194 8.43103 19.181 8.17241C19.1293 7.30603 18.9871 6.36207 18.2888 5.93534C17.5388 5.48276 16.3103 5.5862 15.5603 5.67672C15.2888 5.75431 15.0302 5.81896 14.8233 5.80603C14.3836 5.78017 14.0345 5.59913 13.7241 5.43103C13.4914 5.30172 13.2845 5.18534 13.0776 5.18534C13.0647 5.18534 13.0517 5.18534 13.0517 5.18534C12.4698 5.22413 12.1983 5.36638 11.9526 5.5862C11.8879 5.63793 11.8103 5.7931 11.5647 6.50431C11.4353 6.86638 11.4224 7.06034 11.3966 7.24138C11.3707 7.40948 11.3578 7.59051 11.2672 7.86207C11.2026 8.0431 11.1509 8.19827 11.1121 8.35344C10.9957 8.75431 10.8922 9.07758 10.6078 9.46551C10.569 9.50431 10.5302 9.58189 10.4785 9.64655C10.4138 9.75 10.3362 9.87931 10.2198 10.0215C10.1422 10.125 9.97414 10.5129 9.98707 10.6293C10 10.8233 10.0647 10.9397 10.1293 11.069C10.194 11.1983 10.2845 11.3534 10.2974 11.5733V11.6121C10.3233 11.9483 10.2716 12.1164 9.63793 12.6853C9.23707 13.0474 8.93966 13.3965 8.74569 13.6552C8.73276 13.681 8.74569 13.7069 8.78449 13.7069C8.79742 13.7069 8.79742 13.7069 8.79742 13.7069C8.81035 13.7069 8.82328 13.7069 8.83621 13.7069C8.84914 13.7069 8.86207 13.7069 8.875 13.7069C8.88794 13.7069 8.90087 13.7069 8.9138 13.7069C9.06897 13.7198 9.22414 13.7845 9.32759 13.9009C9.34052 13.9267 9.37931 13.9267 9.40518 13.9138C9.50862 13.875 9.625 13.875 9.72845 13.8879C9.85776 13.9009 10 13.9397 10.0905 14.0302C10.1164 14.056 10.1552 14.069 10.194 14.056C10.2974 14.0302 10.4138 14.0302 10.5172 14.069C10.5948 14.0948 10.6724 14.1465 10.7241 14.2112C10.7629 14.25 10.8276 14.2629 10.8793 14.2371C10.9052 14.2241 10.944 14.1983 10.9828 14.1853C11.125 14.1336 11.2802 14.1595 11.4095 14.2112C11.4741 14.2371 11.5388 14.25 11.6035 14.3017C11.7069 14.3793 11.7845 14.4828 11.8233 14.5991C11.8491 14.6638 11.9397 14.6897 11.9914 14.6379C12.0948 14.5603 12.1724 14.5474 12.25 14.5733C12.2888 14.5862 12.3147 14.6121 12.3405 14.6509C12.3793 14.7026 12.444 14.7543 12.4957 14.7284C12.7155 14.6638 12.9741 14.7026 13.1681 14.806C13.2328 14.8448 13.3103 14.8965 13.3491 14.9741V14.9353C13.3491 14.9224 13.3621 14.9095 13.375 14.8965L13.4138 14.8836C13.5172 14.8448 14.0603 14.6897 14.2672 14.9095C14.2802 14.9224 14.2931 14.9224 14.306 14.9095C14.3319 14.8836 14.3578 14.8578 14.3707 14.8578C14.5129 14.7802 14.7457 14.7672 14.9009 14.9095C14.9267 14.9353 14.9785 14.9224 15.0043 14.8965C15.0172 14.8707 15.0302 14.8578 15.056 14.8448C15.1078 14.7931 15.1853 14.7802 15.2629 14.7802L15.5603 14.7672C15.6379 14.7672 15.8707 14.7414 15.9353 14.7284H15.9483C15.9741 14.7284 16.0129 14.7155 16.0517 14.7026C16.194 14.6767 16.3621 14.6379 16.4914 14.7026C16.6207 14.7672 16.6078 14.9095 16.5948 15.0388C16.5948 15.0905 16.5819 15.1422 16.5819 15.194C16.5819 15.2198 16.5819 15.2457 16.5819 15.2715C16.5819 15.3879 16.5819 15.4914 16.569 15.569L16.5819 15.6336C16.5819 15.6336 16.5819 15.6336 16.5819 15.6465C16.5948 15.6983 16.6595 15.7371 16.6983 15.6983C16.8017 15.6336 16.9052 15.556 16.944 15.5043V15.4914C16.944 15.4784 16.9569 15.4526 16.9698 15.4009C16.9828 15.2845 17.0086 15.0647 17.0086 14.6121C17.0086 14.5862 17.0086 14.5733 17.0086 14.5603C17.0086 14.3922 17.0086 14.25 16.9957 14.1336C16.9828 13.8879 16.9698 13.694 17.0991 13.5C17.2155 13.306 17.3319 13.2414 17.4483 13.1638C17.5776 13.0862 17.7198 12.9957 17.9655 12.6595C18.0819 12.4914 18.0948 12.4267 18.1078 12.375C18.1336 12.2457 18.1724 12.1681 18.3664 12.0388C18.5216 11.9224 18.9741 11.5733 19.5948 11.6767C19.8017 11.7155 20.125 11.819 20.4612 11.9483C20.4741 11.9483 20.4871 11.9612 20.5 11.9612H20.5129C20.8103 12.0776 21.0819 12.2069 21.2759 12.3103C21.3147 12.3362 21.3664 12.3233 21.4052 12.2845C21.4698 12.2069 21.5345 12.1681 21.5991 12.1164C21.625 12.1034 21.6509 12.0905 21.6638 12.0776C21.6767 12.0776 21.6767 12.0647 21.6767 12.0647C21.7285 12.0259 21.7285 11.9224 21.6638 11.8965C20.7974 11.4698 19.9698 11.2112 19.6983 11.1336ZM13.4655 11.3276C13.2586 12.2069 11.8879 13.1897 11.2672 13.1897H11.2543C11.2414 13.1897 11.2285 13.1897 11.2285 13.1897C11.2155 13.1897 11.2026 13.1897 11.1897 13.1767C11.1767 13.1767 11.1767 13.1767 11.1638 13.1767C11.0474 13.1379 10.8922 13.0603 10.7759 12.944C10.6983 12.8664 10.6336 12.7629 10.6078 12.6724C10.6078 12.6595 10.5948 12.6336 10.5948 12.6207C10.556 12.4655 10.5172 12.2845 10.6466 11.9741C10.6595 11.9353 10.6853 11.8965 10.6983 11.8578C10.6983 11.8448 10.7112 11.8319 10.7112 11.819C10.7241 11.7802 10.7371 11.7543 10.75 11.7284C10.7629 11.6767 10.7888 11.6379 10.8017 11.6121C10.8017 11.5991 10.8147 11.5862 10.8147 11.5733C10.8535 11.4698 10.8535 11.431 10.8664 11.3922C10.8664 11.3664 10.8793 11.3147 10.8922 11.2629C10.931 11.0948 10.9569 10.9526 10.9698 10.8362C10.9957 10.6164 11.0345 10.4224 11.1509 10.2414C11.1767 10.2155 11.1897 10.1897 11.2155 10.1638C11.2285 10.1509 11.2285 10.1509 11.2414 10.1379C11.2543 10.125 11.2543 10.125 11.2672 10.1121C11.2931 10.0862 11.3319 10.0733 11.3578 10.0603C11.3707 10.0603 11.3836 10.0474 11.3966 10.0474C11.4224 10.0345 11.4483 10.0345 11.4741 10.0215C11.5905 9.99569 11.7198 9.99569 11.875 10.0086C12.0431 10.0215 12.1983 10.0474 12.3276 10.0862C12.444 10.1121 12.5474 10.1509 12.625 10.1897C12.6379 10.1897 12.6379 10.2026 12.6509 10.2026C12.6638 10.2155 12.6767 10.2155 12.7026 10.2284C12.7285 10.2414 12.7414 10.2414 12.7672 10.2543C12.7931 10.2672 12.819 10.2802 12.8448 10.2931L12.8707 10.306C12.9612 10.3448 13.0517 10.3965 13.1164 10.4483C13.1552 10.4741 13.181 10.5 13.2069 10.5259C13.2198 10.5388 13.2328 10.5388 13.2328 10.5517C13.2457 10.5647 13.2457 10.5647 13.2586 10.5776C13.5302 10.8103 13.5172 11.1336 13.4655 11.3276ZM14.1121 7.97844L14.0862 8.13362C14.0216 8.49569 13.8793 8.98707 13.3621 9.11638C12.8578 9.23275 12.7414 9.25862 12.3922 9.28448C12.3793 9.28448 12.3793 9.28448 12.3664 9.28448C12.1078 9.28448 11.6035 9.11638 11.5129 8.71551C11.4612 8.45689 11.5776 8.26293 11.7586 7.95258C11.7845 7.90086 11.8233 7.84913 11.8621 7.78448C12.1207 7.35775 12.2112 7.04741 12.2888 6.80172C12.3664 6.55603 12.431 6.36207 12.5991 6.19396C12.6379 6.15517 12.6767 6.11638 12.7285 6.09051C12.7543 6.06465 12.7931 6.05172 12.8319 6.02586C12.8836 6 12.9353 5.98707 12.9871 5.9612C13.1035 5.92241 13.2328 5.90948 13.3491 5.90948C13.5948 5.90948 13.8405 5.97413 14.0086 6.11638C14.0862 6.18103 14.2026 6.29741 14.2672 6.67241C14.2931 6.86638 14.2414 7.21551 14.1121 7.97844ZM17.8233 9.01293C17.6422 9.32327 17.5517 9.49138 17.3966 9.62069C17.0862 9.87931 16.7371 9.93103 16.4397 9.93103C16.2328 9.93103 16.0517 9.89224 15.9353 9.87931C15.625 9.82758 15.069 9.72413 14.875 9.27155C14.8362 9.18103 14.8362 9.12931 14.8362 9.05172C14.8362 8.98707 14.8362 8.85775 14.7974 8.5862V8.57327C14.7845 8.44396 14.7716 8.30172 14.7974 8.12069V8.09482C14.9009 7.55172 14.9397 7.47413 14.9526 7.42241C15.0043 7.31896 15.1336 7.26724 15.25 7.33189C15.3535 7.38362 15.3922 7.51293 15.3535 7.61638C15.3405 7.64224 15.3147 7.75862 15.2241 8.18534V8.2112C15.1983 8.32758 15.2112 8.4181 15.2241 8.53448V8.54741C15.2629 8.85775 15.2629 8.98706 15.2629 9.06465C15.2629 9.07758 15.2629 9.09051 15.2629 9.10344V9.11638C15.3017 9.20689 15.3793 9.25862 15.4698 9.31034C15.5345 9.3362 15.5991 9.28448 15.5862 9.21982C15.4957 8.74138 15.4957 8.18534 15.6767 7.8362C15.7414 7.71982 15.8448 7.53879 15.9483 7.35775C15.9612 7.34482 15.9741 7.31896 15.9741 7.30603C15.9871 7.2931 15.9871 7.28017 16 7.26724C16.0517 7.18965 16.0905 7.125 16.1293 7.06034C16.1293 7.04741 16.1422 7.04741 16.1422 7.03448L16.1552 7.02155C16.1681 7.00862 16.1681 6.99569 16.181 6.98275C16.181 6.98275 16.181 6.96982 16.194 6.96982L16.2069 6.95689C16.2069 6.94396 16.2198 6.94396 16.2198 6.93103C16.2586 6.87931 16.2974 6.82758 16.3233 6.77586C16.375 6.7112 16.3103 6.63362 16.2457 6.65948C16.0647 6.73707 15.9483 6.82758 15.9224 6.84051C15.8319 6.9181 15.6897 6.90517 15.6121 6.80172C15.5345 6.7112 15.5474 6.56896 15.6509 6.49138C15.7672 6.40086 16.3621 5.97413 17.0733 6.1681C17.5905 6.31034 17.8491 6.7112 17.9526 6.85344C18.0302 6.96982 18.2888 7.33189 18.2759 7.84913C18.2759 8.22413 18.1207 8.50862 17.8233 9.01293Z" fill="white"/>
<path d="M13.194 6.36207C13.1552 6.45259 13.1164 6.55603 13.0647 6.67241C12.9612 6.94396 12.8319 7.25431 12.7672 7.37069C12.6638 7.56465 12.5862 7.69396 12.5216 7.78448C12.444 7.90086 12.3922 7.99138 12.3405 8.12069C12.2629 8.34052 12.25 8.58621 12.3017 8.85776C12.1595 8.84483 11.9397 8.75431 11.9138 8.625C11.9009 8.53448 11.9526 8.44396 12.1078 8.17241C12.1336 8.12069 12.1724 8.05603 12.2112 8.00431C12.4828 7.53879 12.5991 7.18965 12.6767 6.93103C12.7672 6.65948 12.806 6.5431 12.9483 6.43965C13.0388 6.40086 13.1164 6.375 13.194 6.36207Z" fill="white"/>
<path d="M12.9224 16.1379C12.7672 16.4483 12.5862 16.7328 12.4698 16.875C12.3664 16.6164 12.1983 16.0086 12.25 15.5302C12.25 15.5172 12.25 15.5043 12.25 15.4914C12.2629 15.3362 12.3017 15.2069 12.3793 15.0905C12.431 15.0129 12.5603 14.9741 12.7026 14.9741C12.806 14.9741 12.9224 15 13.0259 15.0517C13.0776 15.0776 13.1552 15.1422 13.1552 15.3103C13.181 15.5431 13.0647 15.8534 12.9224 16.1379Z" fill="white"/>
<path d="M21.1983 12.6853C21.2112 12.6983 21.2112 12.7112 21.2112 12.7241C21.1724 12.8147 21.1078 12.8793 21.0431 12.9569C20.9655 13.0474 20.875 13.1509 20.7974 13.319C20.681 13.5517 20.6422 13.7586 20.6293 14.3017C20.6034 14.9353 20.6293 15.2845 20.6552 15.5431C20.6681 15.7888 20.681 15.944 20.6422 16.1897C20.5517 16.681 20.3448 17.0043 20.0733 17.4181C19.7371 17.9353 19.4009 18.4655 18.8319 18.6336C18.7802 18.6465 18.7802 18.6465 18.625 18.6465C18.4957 18.6465 18.2759 18.6465 17.875 18.6595C17.125 18.6853 16.75 18.6983 16.4397 18.7629C16.1034 18.8276 15.9353 18.9052 15.7543 18.9698C15.5991 19.0345 15.4569 19.0862 15.1853 19.1509C15.0172 19.1897 14.7716 19.2155 13.931 19.2284C13.0517 19.2284 12.5216 19.2284 11.8362 19.1509C10.8793 19.0474 10.4009 18.9828 10.0776 18.8147C9.32759 18.4138 9.00431 17.6897 8.48707 16.5C8.48707 16.4871 8.5 16.4741 8.51293 16.4741C8.53879 16.4871 8.56465 16.5 8.59052 16.5129C8.61638 16.5259 8.64224 16.5259 8.65517 16.5259C8.7069 16.5388 8.75862 16.5388 8.81034 16.5259C8.82328 16.5259 8.82328 16.5259 8.83621 16.5129C8.84914 16.5129 8.86207 16.5129 8.86207 16.5259C8.90086 16.6164 8.95259 16.694 9.0431 16.7457C9.13362 16.7974 9.23707 16.7974 9.32759 16.7974C9.43103 16.7974 9.53448 16.7845 9.63793 16.7715C9.68965 16.7715 9.74138 16.7974 9.76724 16.8362C9.85776 17.069 9.97414 17.2241 10.1552 17.25C10.1681 17.25 10.181 17.25 10.194 17.25C10.2328 17.25 10.2974 17.2371 10.375 17.1853C10.4397 17.1336 10.5431 17.1724 10.5948 17.2371C10.6336 17.3017 10.6853 17.3405 10.7371 17.3793C10.9181 17.5603 11.3578 17.6509 11.7198 17.6509C11.9138 17.6509 12.0948 17.625 12.1983 17.5733C12.3534 17.4957 12.3534 17.3922 12.3405 17.3405C12.3276 17.2629 12.3147 17.1724 12.3017 17.0948C12.3017 17.0819 12.3147 17.0819 12.3147 17.0948C12.3405 17.1465 12.3664 17.1983 12.431 17.2112C12.444 17.2112 12.444 17.2112 12.4569 17.2112C12.5603 17.2112 12.7155 17.25 12.7414 17.3405C12.7543 17.3922 12.7802 17.431 12.806 17.4828C12.8707 17.5733 12.9871 17.6897 13.2328 17.7026H13.2457C13.5302 17.7026 13.75 17.6121 13.8922 17.431C13.9052 17.4181 13.9052 17.4052 13.9181 17.3922C13.9698 17.3147 14.125 17.3147 14.1897 17.3793C14.2672 17.444 14.3578 17.4828 14.4612 17.4828C14.4741 17.4828 14.5 17.4828 14.5129 17.4828C14.6422 17.4698 14.7457 17.4052 14.8362 17.2888C14.8879 17.2112 14.9267 17.1207 14.9526 17.0172C14.9655 16.9914 15.0043 16.9784 15.0302 17.0043C15.0819 17.056 15.1724 17.1078 15.3017 17.1078C15.3276 17.1078 15.3664 17.1078 15.4052 17.0948C15.6509 17.0431 15.7802 16.8362 15.8319 16.6164C15.8319 16.6034 15.8448 16.6034 15.8448 16.6164C15.9095 16.694 16.0259 16.7845 16.2198 16.7845C16.2328 16.7845 16.2457 16.7845 16.2457 16.7845C16.3491 16.7845 16.4397 16.7328 16.5043 16.6552C16.5819 16.5517 16.6078 16.3965 16.6207 16.2543C16.6207 16.2155 16.6466 16.1767 16.6983 16.1509C16.9052 16.0603 17.1638 15.8664 17.2414 15.7371C17.2414 15.7371 17.2414 15.7241 17.2543 15.7241C17.2672 15.6853 17.306 15.6595 17.3319 15.6595C17.5 15.6336 17.5647 15.5948 17.6293 15.569C17.681 15.5431 17.7198 15.5302 17.8491 15.5043C18.7931 15.3621 18.9741 15.3233 19.181 15.194C19.4914 14.9871 19.5043 14.7026 19.5172 14.431C19.5302 14.1983 19.5431 13.9397 19.7241 13.6293C19.7888 13.5129 19.8664 13.3836 19.944 13.2284C20.0862 12.9698 20.2802 12.6078 20.4224 12.4138C20.4483 12.375 20.5 12.3621 20.5388 12.3879C20.8621 12.5043 21.1466 12.6336 21.1983 12.6853Z" fill="white"/>
<path d="M12.0172 15.5043C11.9785 15.8276 11.9526 16.2672 12.0043 16.8362C12.0172 16.9914 12.0431 17.1595 12.069 17.3276C12.0302 17.3534 11.8879 17.3922 11.6552 17.3793C11.319 17.3664 10.9828 17.2888 10.8793 17.1724L10.8664 17.1595C10.7888 17.0948 10.7241 17.0431 10.7241 16.9267C10.7241 16.8879 10.7371 16.8491 10.7759 16.7845C10.8017 16.7586 10.8276 16.7198 10.8535 16.6681C10.9052 16.5905 10.9828 16.5 11.0604 16.3707C11.2802 16.0086 11.3578 15.8922 11.4612 15.75C11.4741 15.7371 11.4741 15.7241 11.4871 15.7112C11.5517 15.6336 11.6164 15.5302 11.7328 15.3621C11.8104 15.2457 11.875 15.1422 11.9397 15.0647C12.0302 14.9353 12.0948 14.8707 12.1336 14.8319C12.1336 14.8836 12.1207 14.9612 12.1078 15.0388C12.056 15.194 12.0302 15.3362 12.0172 15.5043Z" fill="white"/>
<path d="M11.8491 10.4095C11.8491 10.4224 11.8491 10.4224 11.8491 10.4095C11.7974 10.4741 11.7457 10.5517 11.681 10.681C11.5129 11.0431 11.5129 11.25 11.5129 11.4181C11.5129 11.5086 11.5129 11.5733 11.4871 11.6509C11.4741 11.7026 11.4483 11.7672 11.4095 11.8319C11.319 12.0517 11.1897 12.3362 11.2414 12.7241C11.1638 12.6853 11.0474 12.5948 11.0216 12.556C11.0216 12.5302 11.0086 12.5172 11.0086 12.4914C10.9828 12.375 10.9698 12.2974 11.0345 12.1164C11.2414 11.6509 11.2672 11.5345 11.2802 11.4052C11.2802 11.3793 11.2931 11.3534 11.2931 11.3146C11.3319 11.1336 11.3578 10.9784 11.3707 10.8491C11.3966 10.6552 11.4224 10.5259 11.4871 10.4353C11.5129 10.3965 11.5776 10.3836 11.6681 10.3836C11.7069 10.3836 11.7457 10.3836 11.7974 10.3965H11.8103C11.8491 10.4095 11.8491 10.4095 11.8491 10.4095Z" fill="white"/>
<path d="M11.5905 15.0259C11.5776 14.9095 11.5647 14.806 11.5129 14.6896C11.5129 14.6896 11.5 14.6638 11.5 14.6509C11.4871 14.6379 11.4871 14.625 11.4741 14.6121L11.4612 14.5991C11.4483 14.5862 11.4483 14.5862 11.4353 14.5862L11.4224 14.5733C11.4095 14.5733 11.4095 14.5603 11.3966 14.5603H11.3836C11.319 14.5345 11.2543 14.5086 11.1767 14.4957C11.1638 14.4957 11.1509 14.4957 11.1509 14.4957C11.1379 14.4957 11.1379 14.4957 11.125 14.4957H11.1121C11.0991 14.4957 11.0862 14.5086 11.0603 14.5086C11.0474 14.5086 11.0474 14.5215 11.0345 14.5215L11.0216 14.5345C11.0086 14.5474 11.0086 14.5474 10.9957 14.5603L10.9828 14.5733V14.5862C10.9569 14.625 10.931 14.6638 10.9052 14.7026C10.8405 14.7931 10.7759 14.8965 10.7112 14.9871C10.6466 15.0776 10.5948 15.1552 10.5302 15.2457C10.4914 15.2974 10.4655 15.3362 10.4267 15.3879C10.4267 15.4009 10.4138 15.4009 10.4138 15.4138C10.4526 15.4267 10.4914 15.4267 10.5302 15.4396C10.6207 15.4526 10.7112 15.4655 10.7888 15.4784C10.9698 15.5043 11.1638 15.5172 11.3448 15.5043C11.3578 15.5043 11.3578 15.5043 11.3707 15.5043C11.4095 15.4396 11.4741 15.3621 11.5388 15.2586C11.5776 15.2069 11.6164 15.1552 11.6422 15.1034C11.6035 15.0905 11.5905 15.0517 11.5905 15.0259Z" fill="white"/>
<path d="M10.931 15.7888C10.9181 15.931 10.7629 16.2931 10.5172 16.6422C10.3103 16.9267 10.181 17.0043 10.1552 17.0043C10.0517 16.9914 9.96121 16.7457 9.88362 16.5C9.85776 16.3966 9.81897 16.306 9.80604 16.2155C9.75431 16.0345 9.74138 15.7759 9.75431 15.6207C9.96121 15.7371 10.3233 15.7629 10.8405 15.7629C10.8664 15.7759 10.9052 15.7759 10.931 15.7888Z" fill="white"/>
<path d="M10.569 14.625C10.4785 14.7672 10.3879 14.8965 10.2974 15.0259C10.2457 15.0905 10.2069 15.1552 10.1552 15.2198C10.1293 15.2586 10.0905 15.2974 10.0647 15.3362C9.98707 15.3233 9.92242 15.2974 9.84483 15.2845C9.78018 15.2715 9.72845 15.2457 9.6638 15.2198C9.65087 15.2198 9.63794 15.2069 9.62501 15.2069C9.61207 15.194 9.59914 15.1681 9.58621 15.1552C9.61207 15.1164 9.62501 15.0647 9.65087 15.0259C9.68966 14.9483 9.72845 14.8707 9.78018 14.7931C9.85776 14.6638 9.94828 14.5216 10.0905 14.431C10.1035 14.431 10.1035 14.4181 10.1164 14.4181C10.1681 14.3922 10.2198 14.3664 10.2845 14.3534C10.2974 14.3534 10.3362 14.3534 10.3621 14.3534H10.375C10.375 14.3534 10.375 14.3534 10.3879 14.3534C10.4009 14.3534 10.4138 14.3664 10.4397 14.3664C10.4397 14.3664 10.4526 14.3664 10.4526 14.3793C10.4655 14.3922 10.4785 14.3922 10.4914 14.4052C10.4655 14.3922 10.5172 14.444 10.5172 14.431C10.5431 14.5086 10.556 14.5474 10.569 14.625Z" fill="white"/>
<path d="M9.8707 14.25C9.70259 14.3793 9.58621 14.5603 9.49569 14.7543C9.44397 14.8578 9.39225 14.9612 9.34052 15.0646C9.34052 15.0776 9.32759 15.0905 9.32759 15.0905C9.27587 15.0776 9.22414 15.0646 9.18535 15.0517C9.13363 15.0388 9.0819 15.0129 9.03018 15C9.00432 14.9871 8.99138 14.9741 8.96552 14.9612C9.01725 14.8707 9.06897 14.7802 9.13363 14.6896C9.21121 14.5733 9.30173 14.444 9.39225 14.3405C9.43104 14.3017 9.46983 14.25 9.50863 14.2241C9.56035 14.1983 9.61207 14.1983 9.67673 14.2112C9.74138 14.2112 9.80604 14.2112 9.85776 14.2371C9.84483 14.2371 9.85776 14.25 9.8707 14.25Z" fill="white"/>
<path d="M9.61207 16.4483C9.59914 16.4612 9.59914 16.4612 9.58621 16.4741H9.57328C9.53448 16.4741 9.49569 16.4871 9.4569 16.4871C9.37931 16.4871 9.30172 16.5 9.22414 16.4871C9.18534 16.4871 9.14655 16.4741 9.12069 16.4483C9.09483 16.4095 9.0819 16.3319 9.06897 16.2802C9.01724 15.9957 9.01724 15.7112 9.0431 15.4267C9.18534 15.4784 9.34052 15.5172 9.49569 15.5431C9.4569 15.8017 9.52155 16.1767 9.54741 16.2802C9.58621 16.3319 9.59914 16.3965 9.61207 16.4483Z" fill="white"/>
<path d="M9.14656 14.1595C9.01725 14.3147 8.90087 14.4828 8.79742 14.6638C8.75863 14.7284 8.7069 14.806 8.66811 14.8836C8.61639 14.8707 8.56466 14.8448 8.52587 14.819C8.48708 14.7931 8.44828 14.7672 8.42242 14.7414C8.40949 14.7284 8.38363 14.7155 8.3707 14.7026C8.3707 14.7026 8.35777 14.7026 8.35777 14.6897C8.3707 14.6509 8.39656 14.625 8.39656 14.5991C8.42242 14.5345 8.44828 14.4828 8.48708 14.431C8.55173 14.3276 8.61639 14.2241 8.69397 14.1207C8.71983 14.0819 8.7457 14.0431 8.79742 14.0302C8.83621 14.0172 8.88794 14.0302 8.92673 14.0302C9.00432 14.0431 9.0819 14.0948 9.14656 14.1595Z" fill="white"/>
<path d="M8.15086 14.8448C8.15086 14.8319 8.1638 14.8319 8.15086 14.8448C8.20259 14.8966 8.24138 14.9353 8.29311 14.9741C8.31897 14.9871 8.3319 15.0129 8.35776 15.0259C8.35776 15.0259 8.35776 15.0259 8.35776 15.0388C8.30604 15.2586 8.26724 15.4914 8.26724 15.7241C8.26724 15.7371 8.25431 15.7371 8.25431 15.7241C8.18966 15.4526 8.11207 15.0129 8.15086 14.8448Z" fill="white"/>
<path d="M8.78449 15.3233C8.75863 15.5172 8.7457 15.7112 8.75863 15.9052C8.75863 16.0086 8.77156 16.1121 8.78449 16.2284C8.75863 16.2284 8.73276 16.2284 8.7069 16.2284H8.69397H8.68104C8.65518 16.2155 8.65518 16.2155 8.62932 16.2026C8.60345 16.1897 8.57759 16.1509 8.55173 16.1121C8.50001 16.0216 8.48708 15.9181 8.48708 15.8147C8.47414 15.6207 8.50001 15.4138 8.5388 15.2198C8.56466 15.2328 8.60345 15.2457 8.64225 15.2586C8.69397 15.2845 8.73276 15.3103 8.78449 15.3233Z" fill="white"/>
<mask id="mask0_20956_1246" style="mask-type:luminance" maskUnits="userSpaceOnUse" x="4" y="0" width="24" height="24">
<path d="M28 12C28 5.36638 22.6207 0 16 0C9.36638 0 4 5.36638 4 12C4 18.6207 9.36638 24 16 24C22.6207 24 28 18.6207 28 12Z" fill="white"/>
</mask>
<g mask="url(#mask0_20956_1246)">
<g opacity="0.8">
<path opacity="0.8" d="M13.8793 25.4095C13 25.4095 12.1724 25.3578 11.4741 25.306L11.2802 25.2931L11.0862 25.2672C10.9957 25.2543 10.8922 25.2414 10.7759 25.2284C10.1035 25.1509 8.84914 25.0216 7.46552 24.375L7.24569 24.2715L7.05173 24.1552C4.38793 22.6552 3.40518 20.4181 2.86207 19.2155C2.82328 19.1379 2.78449 19.0474 2.74569 18.9569C2.47414 18.4009 2.30604 17.9095 2.1638 17.444L2.13793 17.3405L2.11207 17.2371C1.72414 15.8664 1.63362 14.6897 1.80173 13.5129C1.98276 12.3362 2.40949 11.2759 3.17242 10.1509L3.56035 9.51724C3.63793 9.38793 3.68966 9.24569 3.72845 9.10345C4.02586 7.62931 4.69828 6.5819 5.03449 6.07759C5.125 5.46983 5.28018 4.875 5.48707 4.2931L5.51293 4.20259L5.55173 4.11207C5.55173 4.09914 5.56466 4.07328 5.57759 4.03448C5.73276 3.5819 6.0819 2.53448 6.97414 1.42241L7.31035 1.03448L7.65949 0.724137C8.5388 -0.0775867 9.59914 -0.672414 10.7371 -1.00862C11.3707 -1.20259 12.0302 -1.31897 12.7026 -1.35776H12.7672H12.8578C12.9741 -1.35776 13.0905 -1.37069 13.194 -1.37069C13.6078 -1.37069 14.0216 -1.3319 14.4353 -1.26724C14.694 -1.22845 14.9526 -1.25431 15.1983 -1.35776C15.9095 -1.65517 16.6466 -1.84914 17.4095 -1.95259C17.4741 -1.96552 17.5259 -1.96552 17.5776 -1.97845C17.694 -1.99138 17.8879 -2.01724 18.1207 -2.0431C18.5216 -2.0819 19.1422 -2.13362 19.8017 -2.13362C21.1078 -2.13362 22.2328 -1.96552 23.2414 -1.61638L23.3319 -1.59052L23.4095 -1.56466C25.6336 -0.724139 26.7586 0.452586 27.5733 1.47414L27.6121 1.52586L27.7284 1.62931C28.4655 2.19828 29.0862 2.90948 29.5776 3.69827L29.7328 3.94396L29.8621 4.20259C30.9483 6.41379 30.5991 8.46983 30.4698 9.23276L30.4569 9.27155C30.3664 9.84052 30.2112 10.3966 30.0172 10.9397C29.9397 11.4569 29.8233 11.9741 29.6552 12.4655C29.3707 13.3448 28.944 14.1853 28.4009 14.9353C28.0905 15.375 27.7284 15.8017 27.3405 16.1767C27.1983 16.306 27.1078 16.4871 27.0819 16.681C27.069 16.7974 27.0431 16.9138 27.0302 17.0302C26.7069 18.7371 25.9698 19.9267 25.6595 20.4052L24.7414 21.7241C23.6293 23.1078 22.3103 24.0129 20.7198 24.5043L20.3319 24.6207L19.9181 24.6983C19.4397 24.7888 18.9612 24.8276 18.4698 24.8276C18.4052 24.8276 18.3405 24.8276 18.2629 24.8276H18.2371H18.1595H18.069C17.8879 24.8276 17.7069 24.8664 17.5259 24.9181C16.4655 25.2543 15.3017 25.4095 13.8793 25.4095Z" stroke="url(#paint1_linear_20956_1246)" stroke-width="0.136474" stroke-miterlimit="10"/>
<path opacity="0.8" d="M13.8793 24.4914C13.0388 24.4914 12.2241 24.4397 11.5517 24.3879L11.3966 24.375L11.2414 24.3491C11.1379 24.3362 11.0216 24.3233 10.9052 24.3103C10.2457 24.2457 9.15948 24.1164 7.94397 23.5474L7.76293 23.4569L7.59483 23.3664C5.22845 22.0603 4.36207 20.1078 3.84483 18.944C3.80603 18.8664 3.76724 18.7629 3.71552 18.6724C3.46983 18.181 3.31466 17.7155 3.18535 17.3017L3.15948 17.2112L3.13362 17.1336C2.79741 15.9052 2.7069 14.8707 2.86207 13.8491C3.01724 12.8405 3.40517 11.8966 4.07759 10.9138L4.5819 10.0991C4.67241 9.9569 4.73707 9.78879 4.76293 9.62069C5.00862 8.22414 5.6681 7.24138 5.96552 6.78879L6.00431 6.73707L6.01724 6.71121C6.01724 6.69827 6.03017 6.68534 6.03017 6.67241C6.0431 6.60776 6.06897 6.55603 6.0819 6.50431C6.15948 5.93534 6.30172 5.36638 6.49569 4.82327L6.52155 4.74569L6.54741 4.6681C6.56035 4.64224 6.56035 4.61638 6.58621 4.53879C6.72845 4.11207 7.02586 3.21983 7.80172 2.26293L8.08621 1.92672L8.37069 1.6681C9.13362 0.969826 10.0517 0.452585 11.0345 0.168102C11.6034 -1.10628e-06 12.1724 -0.103449 12.7672 -0.129311H12.819H12.8966C13 -0.129311 13.0905 -0.142242 13.181 -0.142242C13.6078 -0.142242 14.0216 -0.258622 14.4353 -0.181036C14.7586 -0.11638 15.0819 -0.155174 15.3793 -0.284484C15.9353 -0.530174 16.6853 -0.620691 17.5388 -0.73707C17.6034 -0.750001 17.6552 -0.750001 17.694 -0.762932C17.8103 -0.775863 17.9914 -0.801725 18.1983 -0.814656C18.5733 -0.853449 19.1552 -0.892242 19.7888 -0.892242C20.9784 -0.892242 21.9871 -0.73707 22.8793 -0.439656L22.9569 -0.413794L23.0216 -0.387932C24.9871 0.362068 25.9569 1.34483 26.7198 2.31465C26.7586 2.36638 26.8103 2.4181 26.8233 2.44396L26.8362 2.4569L26.9784 2.58621L26.9914 2.61207C27.6509 3.11638 28.2069 3.73707 28.6336 4.43534L28.7629 4.64224L28.8664 4.86207C29.7974 6.76293 29.5129 8.50862 29.3836 9.24569L29.3707 9.28448C29.2802 9.82759 29.1379 10.3448 28.944 10.8621C28.8793 11.3534 28.7629 11.8448 28.6078 12.3103C28.3491 13.0862 27.9741 13.8233 27.4957 14.4957C27.1724 14.9612 26.7845 15.3879 26.3707 15.7629C26.1767 15.944 26.0474 16.1767 26.0216 16.4483C25.9957 16.6422 25.9698 16.8233 25.944 17.0172C25.6595 18.5302 25.0129 19.5647 24.7026 20.0302L23.9526 21.1164C22.9569 22.3965 21.7802 23.2241 20.3578 23.6638L20.0345 23.7672L19.6853 23.8319C19.2716 23.9095 18.8448 23.9483 18.431 23.9353C18.3664 23.9353 18.3017 23.9353 18.2371 23.9353H18.2241H18.1853C18.1853 23.9353 18.1724 23.9353 18.1466 23.9353H18.069H17.9914H17.8491C17.6552 23.9483 17.4612 23.9741 17.2672 24.0388C16.3233 24.3491 15.2241 24.4914 13.8793 24.4914Z" stroke="url(#paint2_linear_20956_1246)" stroke-width="0.136474" stroke-miterlimit="10"/>
<path opacity="0.8" d="M13.8793 23.4181C13.0776 23.4181 12.2888 23.3664 11.6293 23.3147L11.5 23.3017L11.3707 23.2888C11.2543 23.2759 11.125 23.2629 10.9957 23.25C10.375 23.1853 9.43104 23.0819 8.37069 22.5776L8.22845 22.5129L8.09914 22.4353C6.06897 21.2974 5.31897 19.6164 4.82759 18.5043C4.7888 18.4138 4.73707 18.2974 4.69828 18.2069C4.47845 17.7672 4.33621 17.3534 4.21983 16.9655L4.19397 16.9009L4.18104 16.8362C3.88362 15.7759 3.80604 14.8707 3.93535 14.0172C4.06466 13.1509 4.4138 12.3362 5.00862 11.4698L5.08621 11.3664L5.1638 11.2629C5.21552 11.1983 5.25431 11.1336 5.30604 11.0819L5.60345 10.5259C5.7069 10.3448 5.77155 10.1509 5.79742 9.94396C5.99138 8.70258 6.58621 7.81034 6.85776 7.39655C6.87069 7.37069 6.89655 7.34482 6.90949 7.33189L6.97414 7.24137C7 7.18965 7.02586 7.125 7.05173 7.04741C7.07759 6.96982 7.11638 6.85344 7.14224 6.75C7.2069 6.21982 7.33621 5.70258 7.51724 5.19827L7.54311 5.13362L7.56897 5.06896C7.5819 5.01724 7.60776 4.97844 7.63362 4.88793C7.76293 4.48706 8.00862 3.75 8.66811 2.94827L8.88793 2.67672L9.12069 2.46982C9.76724 1.875 10.5431 1.44827 11.3836 1.18965C11.875 1.04741 12.3664 0.956892 12.8836 0.93103H12.9224H12.9871C13.0647 0.93103 13.1422 0.93103 13.2328 0.93103C13.6724 0.93103 14.0991 0.982754 14.5259 1.09913C14.8879 1.18965 15.2759 1.15086 15.6121 0.982754C16.1552 0.724134 16.8793 0.439651 17.7198 0.336203C17.7716 0.323272 17.8233 0.323272 17.8621 0.310341C17.9655 0.29741 18.1336 0.271548 18.3405 0.258616C18.6897 0.219823 19.2457 0.18103 19.8276 0.18103C20.8879 0.18103 21.7802 0.310341 22.569 0.581892L22.6207 0.607754L22.6724 0.633616C24.4828 1.31896 25.2845 2.2112 25.9052 3C26.0474 3.1681 26.0603 3.19396 26.1509 3.28448L26.2672 3.38793L26.306 3.43965C26.6035 3.67241 27.2112 4.15086 27.7414 5.01724L27.8448 5.18534L27.9353 5.35344C28.7241 6.94396 28.4784 8.39224 28.3621 9.09051L28.3491 9.12931C28.2716 9.63362 28.1293 10.1379 27.9224 10.6164V10.6552C27.8707 11.1078 27.7672 11.5603 27.625 11.9871C27.4052 12.6724 27.0819 13.306 26.6552 13.8879C26.306 14.3922 25.8793 14.8448 25.4009 15.2328C25.2845 15.3233 25.194 15.4397 25.1293 15.569C25.0647 15.6983 25.0259 15.8405 25.0129 15.9828C25 16.2672 24.9612 16.5517 24.9095 16.8362C24.6638 18.1422 24.0948 19.0474 23.8103 19.5L23.2284 20.3534C22.3621 21.5172 21.3276 22.2672 20.0733 22.6552L19.8147 22.7328L19.5302 22.7845C19.181 22.8491 18.819 22.875 18.4569 22.875C18.4052 22.875 18.3405 22.875 18.2759 22.875H18.2629H18.1983C18.1853 22.875 18.1595 22.875 18.0948 22.875H18.0302H17.9785L17.681 22.8879C17.4741 22.9009 17.2672 22.9267 17.0733 23.0043C16.181 23.2888 15.1595 23.4181 13.8793 23.4181Z" stroke="url(#paint3_linear_20956_1246)" stroke-width="0.12794" stroke-miterlimit="10"/>
<path opacity="0.8" d="M13.8793 22.3448C13.1164 22.3448 12.3535 22.2931 11.7198 22.2414L11.6293 22.2284L11.5388 22.2155C11.4095 22.2026 11.2672 22.1767 11.1379 22.1638C10.556 22.0991 9.75431 22.0086 8.84914 21.5948L8.74569 21.5431L8.64224 21.4914C6.92242 20.5216 6.2888 19.0991 5.82328 18.0647C5.77155 17.9612 5.71983 17.8448 5.68104 17.7414C5.48707 17.3405 5.35776 16.9655 5.25431 16.6422L5.24138 16.5905L5.20259 16.5517C4.69828 14.7672 4.89224 13.5129 5.875 12.0776L5.92673 12L5.97845 11.9224C6.04311 11.8448 6.10776 11.7543 6.17242 11.6767C6.26293 11.5603 6.35345 11.431 6.4569 11.3147C6.52155 11.2371 6.57328 11.1466 6.61207 11.056L6.72845 10.7716C6.78018 10.6422 6.80604 10.5129 6.81897 10.3836C6.92242 9.23276 7.47845 8.40517 7.75 7.99138C7.77586 7.96552 7.80173 7.9138 7.81466 7.90086L7.87931 7.79742L7.90518 7.77155C7.94397 7.7069 8.00862 7.55173 8.06035 7.39655C8.08621 7.29311 8.13793 7.125 8.18966 6.98276V6.96983C8.24138 6.49138 8.35776 6.01293 8.52586 5.56035L8.5388 5.52155L8.55173 5.48276C8.57759 5.40518 8.60345 5.34052 8.62931 5.25C8.74569 4.90086 8.93966 4.30604 9.46983 3.64655L9.63793 3.43966L9.80604 3.28449C11.0603 2.14655 12.4569 2.05604 12.9224 2.01724H12.9483H13C13.0647 2.01724 13.1293 2.01724 13.194 2.01724C13.75 2.01724 14.2931 2.13362 14.8103 2.35345C14.9009 2.39224 15.0043 2.40518 15.0948 2.40518C15.1983 2.40518 15.2888 2.37931 15.3793 2.32759C15.8578 2.05604 16.7241 1.55173 17.8362 1.42242C17.8879 1.40949 17.9397 1.40949 17.9784 1.40949C18.0819 1.39655 18.2371 1.38362 18.4181 1.35776C18.7543 1.3319 19.2586 1.29311 19.8017 1.29311C20.7457 1.29311 21.5216 1.40949 22.181 1.62931L22.2198 1.64224L22.2586 1.65518C23.8103 2.23707 24.4698 2.97414 25.0259 3.67242C25.1681 3.86638 25.2457 3.94397 25.4009 4.09914L25.4914 4.17673L25.556 4.25431L25.6078 4.29311C25.8664 4.5 26.3578 4.875 26.7974 5.58621L26.875 5.71552L26.9397 5.84483C27.5733 7.13793 27.3664 8.30173 27.2629 8.92242V8.96121C27.1853 9.4138 27.056 9.86638 26.875 10.2931L26.8621 10.3319C26.8621 10.3448 26.8621 10.3448 26.8491 10.3707C26.8362 10.4095 26.8362 10.4483 26.8362 10.4871L26.8233 10.5388C26.7845 10.9267 26.694 11.3017 26.5647 11.6638C26.3707 12.2457 26.0991 12.7888 25.7371 13.2802C25.3879 13.7845 24.9871 14.1983 24.5474 14.5216C24.3534 14.6638 24.1983 14.8448 24.0819 15.0647C23.9655 15.2845 23.9138 15.5172 23.9138 15.7629C23.9138 16.0603 23.875 16.3707 23.8233 16.6681C23.6164 17.7802 23.1509 18.5302 22.8535 18.9828L22.4267 19.6164C21.6767 20.6638 20.7845 21.3362 19.7112 21.6724L19.6595 21.6853C19.569 21.7112 19.4785 21.7371 19.3879 21.75L19.3233 21.7629C19.0259 21.8147 18.7284 21.8405 18.431 21.8405C18.3793 21.8405 18.3276 21.8405 18.2759 21.8405H18.2629C18.2371 21.8405 18.2112 21.8405 18.1853 21.8405C18.1595 21.8405 18.1078 21.8405 18.0043 21.8405H17.9655H17.9267C17.7845 21.8405 17.6035 21.8535 17.4483 21.8535C17.2285 21.8664 17.0216 21.9052 16.8147 21.9828C16.0388 22.2155 15.0948 22.3448 13.8793 22.3448Z" stroke="url(#paint4_linear_20956_1246)" stroke-width="0.119418" stroke-miterlimit="10"/>
<path opacity="0.8" d="M13.8793 21.2716C13.1422 21.2716 12.4181 21.2198 11.7974 21.1681H11.7328L11.6681 21.1552C11.5259 21.1293 11.3707 21.1164 11.2284 21.1034C10.6853 21.0388 10.0129 20.9741 9.28879 20.625L9.21121 20.5862L9.14655 20.5474C7.73707 19.7586 7.2069 18.569 6.7931 17.6121C6.74138 17.4957 6.68965 17.3793 6.63793 17.25C6.46983 16.9138 6.35345 16.5776 6.26293 16.2931L6.25 16.2543L6.23707 16.2155C5.82328 14.7414 5.96552 13.8103 6.76724 12.6466L6.80603 12.5948L6.84483 12.5431C6.90948 12.4526 6.97414 12.375 7.03879 12.2845C7.24569 12.0129 7.45259 11.7414 7.75 11.4181C7.81465 11.3534 7.85345 11.25 7.86638 11.1595L7.87931 10.8621L7.86638 10.7457V10.6293C7.89224 9.67241 8.37069 8.96121 8.62931 8.57327C8.65517 8.53448 8.69397 8.48276 8.7069 8.4569L8.74569 8.39224L8.78448 8.34052C8.83621 8.26293 8.95259 7.99138 9.05603 7.74569C9.09483 7.64224 9.14655 7.43534 9.21121 7.26724C9.22414 7.21552 9.22414 7.20258 9.23707 7.08621C9.27586 6.68534 9.37931 6.28448 9.50862 5.90948L9.52155 5.88362L9.53448 5.85776C9.57328 5.75431 9.59914 5.67672 9.63793 5.57327C9.74138 5.26293 9.89655 4.81034 10.2974 4.30603L10.4138 4.16379L10.5302 4.06034C11.4095 3.27155 12.3534 3.11638 13 3.07758H13.0259H13.0517C13.1034 3.07758 13.1422 3.07758 13.194 3.07758C13.7371 3.07758 14.3966 3.33621 14.7457 3.50431C14.8233 3.5431 14.9138 3.56896 15.0043 3.56896C15.0948 3.56896 15.1853 3.55603 15.2759 3.53017C15.4957 3.45258 15.7026 3.36207 15.8966 3.25862C16.3362 3 17.0603 2.58621 17.9655 2.48276C18.0172 2.46983 18.056 2.46983 18.0948 2.46983C18.1853 2.4569 18.3276 2.44396 18.5086 2.4181C18.819 2.39224 19.2845 2.35345 19.7888 2.35345C20.6034 2.35345 21.2759 2.44396 21.819 2.63793L21.8448 2.65086L21.8707 2.66379C23.1638 3.15517 23.681 3.71121 24.1724 4.34483C24.3276 4.55172 24.444 4.69396 24.6767 4.90086L24.7284 4.95258L24.7802 5.00431C24.8319 5.05603 24.8836 5.09483 24.9353 5.13362C25.1552 5.30172 25.5302 5.59914 25.8534 6.14224L25.9052 6.21983L25.944 6.31034C26.4224 7.28017 26.2672 8.19827 26.1767 8.74138V8.78017C26.1121 9.15517 26.0086 9.51724 25.8534 9.86638C25.8147 9.9569 25.7888 10.0474 25.7629 10.1509C25.75 10.2155 25.7371 10.2802 25.7371 10.3319L25.7241 10.3836C25.6853 10.694 25.6207 11.0043 25.5172 11.3017C25.3621 11.7802 25.1293 12.2328 24.8448 12.6336C24.4052 13.2543 23.9009 13.694 23.2931 13.9784C23.1509 14.0431 23.0216 14.1466 22.931 14.2888C22.8405 14.4181 22.7888 14.5862 22.7759 14.7414C22.7759 14.806 22.7759 14.8578 22.7759 14.8965C22.8017 15.3621 22.8405 15.8922 22.7371 16.4483C22.569 17.3534 22.181 17.9612 21.8966 18.4138C21.8966 18.4138 20.5776 20.25 19.375 20.625L19.2457 20.6638L19.1034 20.6897C18.8707 20.7284 18.6379 20.7543 18.3922 20.7543C18.3534 20.7543 18.3017 20.7543 18.25 20.7543C18.2241 20.7543 18.1853 20.7543 18.1466 20.7543C18.0948 20.7543 18.0172 20.7543 17.9009 20.7672H17.875H17.8491C17.3836 20.7802 16.9569 20.7931 16.8276 20.819C16.7629 20.8319 16.6983 20.8448 16.6336 20.8707C16 21.1422 15.1078 21.2716 13.8793 21.2716Z" stroke="url(#paint5_linear_20956_1246)" stroke-width="0.110884" stroke-miterlimit="10"/>
<path opacity="0.8" d="M13.8793 20.2112C13.181 20.2112 12.4828 20.1595 11.8879 20.1207H11.8621H11.8362C11.6681 20.0948 11.5129 20.0819 11.3707 20.069C10.8664 20.0172 10.3362 19.9526 9.76724 19.694L9.72845 19.681L9.68966 19.6681C8.59052 19.0474 8.17673 18.1293 7.7888 17.2371C7.73707 17.1078 7.67242 16.9784 7.60776 16.8491C7.47845 16.5905 7.375 16.306 7.29742 16.0345V16.0215V16.0086C6.96121 14.8319 7.05173 14.2371 7.67242 13.3319L7.68535 13.306L7.69828 13.2802C7.77587 13.1897 7.84052 13.0991 7.90518 13.0215C8.20259 12.6336 8.46121 12.2974 9.04311 11.7543C9.0819 11.7155 9.12069 11.6638 9.13362 11.5991C9.14656 11.5474 9.14656 11.4828 9.12069 11.431L9.01724 11.1336C8.99138 11.0431 8.97845 10.9397 8.97845 10.8491V10.7715V10.7069C9.00431 10.0603 9.34052 9.55603 9.56035 9.21982C9.59914 9.1681 9.625 9.11638 9.65087 9.07758L9.67673 9.03879L9.70259 9C9.81897 8.84482 10.0129 8.39224 10.1164 8.12069C10.1422 8.03017 10.2069 7.81034 10.2716 7.64224C10.3103 7.51293 10.3362 7.38362 10.3491 7.25431C10.3879 6.93103 10.4526 6.60775 10.569 6.31034V6.29741V6.28448C10.6207 6.15517 10.6595 6.05172 10.6853 5.94827C10.7759 5.67672 10.8793 5.36638 11.1638 5.01724L11.2155 4.95258L11.2672 4.90086C11.8879 4.33189 12.5733 4.22844 13.0905 4.18965H13.1035H13.1164C13.1422 4.18965 13.181 4.18965 13.2069 4.18965C13.7241 4.18965 14.1121 4.39655 14.3707 4.53879L14.4353 4.56465H14.4483C14.5259 4.60344 14.5776 4.64224 14.6422 4.6681C14.7974 4.74569 14.9914 4.77155 15.1595 4.71982C15.5216 4.62931 16.0776 4.40948 16.4397 4.20258H16.4526C16.8405 3.96982 17.4353 3.63362 18.1336 3.55603C18.1724 3.5431 18.2241 3.5431 18.2629 3.5431C18.3405 3.53017 18.4828 3.51724 18.6379 3.50431C18.9224 3.47844 19.3621 3.43965 19.8147 3.43965C20.5129 3.43965 21.069 3.51724 21.4957 3.65948H21.5086H21.5216C22.556 4.04741 22.944 4.4612 23.3578 5.00431C23.5259 5.22413 23.694 5.43103 24.0043 5.70258L24.0302 5.72844L24.056 5.75431C24.1336 5.83189 24.2241 5.90948 24.3276 5.98707C24.5086 6.12931 24.7672 6.32327 24.9871 6.69827L25.0129 6.73706L25.0388 6.77586C25.3621 7.44827 25.2586 8.08189 25.181 8.56034V8.59913C25.1293 8.89655 25.0517 9.18103 24.9224 9.46551C24.8578 9.62069 24.806 9.78879 24.7802 9.95689C24.7672 10.0603 24.7543 10.1379 24.7414 10.2026L24.7285 10.2543C24.7026 10.5 24.6509 10.7328 24.5733 10.9655C24.4569 11.3405 24.2759 11.6897 24.0431 12.0129C23.6552 12.5819 23.2155 12.931 22.6336 13.1121C22.3491 13.2026 22.1164 13.3836 21.9612 13.6293L21.9095 13.694L21.8578 13.7586C21.7155 13.9267 21.7543 14.5733 21.7802 14.9612C21.806 15.3879 21.8319 15.8276 21.7543 16.2414C21.625 16.9526 21.3147 17.431 21.0431 17.8448C21.0431 17.8448 20.0345 19.306 19.1164 19.5776L19.0517 19.6034L18.9871 19.6164C18.819 19.6422 18.6379 19.6681 18.4569 19.6681C18.4181 19.6681 18.3793 19.6681 18.3276 19.6681C18.2888 19.6681 18.25 19.6681 18.1983 19.6681C18.1336 19.6681 18.0431 19.6681 17.8879 19.681H17.875H17.8621C17.2543 19.7069 16.8793 19.7198 16.6724 19.7586C16.5302 19.7845 16.4009 19.8233 16.2716 19.875C15.7155 20.0948 14.9655 20.2112 13.8793 20.2112Z" stroke="url(#paint6_linear_20956_1246)" stroke-width="0.110884" stroke-miterlimit="10"/>
</g>
</g>
</g>
<defs>
<filter id="filter0_d_20956_1246" x="0" y="0" width="32" height="32" filterUnits="userSpaceOnUse" color-interpolation-filters="sRGB">
<feFlood flood-opacity="0" result="BackgroundImageFix"/>
<feColorMatrix in="SourceAlpha" type="matrix" values="0 0 0 0 0 0 0 0 0 0 0 0 0 0 0 0 0 0 127 0" result="hardAlpha"/>
<feOffset dy="4"/>
<feGaussianBlur stdDeviation="2"/>
<feComposite in2="hardAlpha" operator="out"/>
<feColorMatrix type="matrix" values="0 0 0 0 0 0 0 0 0 0 0 0 0 0 0 0 0 0 0.25 0"/>
<feBlend mode="normal" in2="BackgroundImageFix" result="effect1_dropShadow_20956_1246"/>
<feBlend mode="normal" in="SourceGraphic" in2="effect1_dropShadow_20956_1246" result="shape"/>
</filter>
<radialGradient id="paint0_radial_20956_1246" cx="0" cy="0" r="1" gradientUnits="userSpaceOnUse" gradientTransform="translate(16.0005 13.2537) rotate(90) scale(13.48)">
<stop offset="0.1667" stop-color="#073183"/>
<stop offset="1" stop-color="#0054F9"/>
</radialGradient>
<linearGradient id="paint1_linear_20956_1246" x1="2.31946" y1="-2.69805" x2="29.8144" y2="26.1595" gradientUnits="userSpaceOnUse">
<stop offset="0.2057" stop-color="#89D0FF"/>
<stop offset="0.3984" stop-color="#EBBF9A"/>
<stop offset="0.6015" stop-color="#EB8280"/>
<stop offset="0.8411" stop-color="#A281FF"/>
</linearGradient>
<linearGradient id="paint2_linear_20956_1246" x1="3.38565" y1="-1.45638" x2="28.733" y2="25.2559" gradientUnits="userSpaceOnUse">
<stop offset="0.2057" stop-color="#89D0FF"/>
<stop offset="0.3984" stop-color="#EBBF9A"/>
<stop offset="0.6015" stop-color="#EB80DA"/>
<stop offset="0.8411" stop-color="#A281FF"/>
</linearGradient>
<linearGradient id="paint3_linear_20956_1246" x1="4.46248" y1="-0.382815" x2="27.6617" y2="24.1838" gradientUnits="userSpaceOnUse">
<stop offset="0.2057" stop-color="#89D0FF"/>
<stop offset="0.3984" stop-color="#EBBF9A"/>
<stop offset="0.6015" stop-color="#EB8280"/>
<stop offset="0.8411" stop-color="#A281FF"/>
</linearGradient>
<linearGradient id="paint4_linear_20956_1246" x1="5.53784" y1="0.69449" x2="26.5842" y2="23.1087" gradientUnits="userSpaceOnUse">
<stop offset="0.2057" stop-color="#89D0FF"/>
<stop offset="0.3984" stop-color="#EBBF9A"/>
<stop offset="0.6015" stop-color="#EB80E7"/>
<stop offset="0.8411" stop-color="#A281FF"/>
</linearGradient>
<linearGradient id="paint5_linear_20956_1246" x1="6.60692" y1="1.77385" x2="25.5045" y2="22.034" gradientUnits="userSpaceOnUse">
<stop offset="0.2057" stop-color="#89D0FF"/>
<stop offset="0.3984" stop-color="#EBBF9A"/>
<stop offset="0.6015" stop-color="#EB80D3"/>
<stop offset="0.8411" stop-color="#A281FF"/>
</linearGradient>
<linearGradient id="paint6_linear_20956_1246" x1="7.6899" y1="2.84023" x2="24.4369" y2="20.9545" gradientUnits="userSpaceOnUse">
<stop offset="0.2057" stop-color="#89D0FF"/>
<stop offset="0.3984" stop-color="#EBBF9A"/>
<stop offset="0.6015" stop-color="#A280EB"/>
<stop offset="0.8411" stop-color="#A281FF"/>
</linearGradient>
<clipPath id="clip0_20956_1246">
<rect width="24" height="24" fill="white" transform="translate(4)"/>
</clipPath>
</defs>
</svg>
