<svg width="96" height="96" viewBox="0 0 96 96" fill="none" xmlns="http://www.w3.org/2000/svg">
    <g filter="url(#filter0_bi_20474_751)">
        <rect width="96" height="96" rx="48" fill="url(#paint0_radial_20474_751)" />
        <rect x="0.75" y="0.75" width="94.5" height="94.5" rx="47.25" stroke="url(#paint1_radial_20474_751)"
            stroke-width="1.5" />
        <path
            d="M38.4174 24C40.5491 30.1638 42.6734 36.3301 44.8246 42.4876C45 42.9879 44.9485 43.2424 44.518 43.5684C42.888 44.8071 42.2073 46.5286 42.3618 48.8883C35.9141 50.9722 29.4505 53.0623 22.8691 55.19C22.6962 54.3337 22.5122 53.5199 22.3736 52.6987C22.2252 51.826 22.1222 50.9446 21.9995 50.0669C21.9995 49.262 21.9995 48.4558 21.9995 47.6508C26.9901 46.0497 31.9795 44.4486 36.9959 42.8399C36.9334 42.633 36.8966 42.4926 36.85 42.3559C35.388 38.103 33.9272 33.8488 32.4603 29.5971C31.8299 27.769 31.7857 27.7075 33.3937 26.7133C34.982 25.734 36.6562 24.899 38.2935 24C38.3352 24 38.3769 24 38.4174 24Z"
            fill="white" />
        <path
            d="M65.2152 67.8073C63.3779 69.4936 61.3873 70.8127 59.2238 71.8583C59.0876 71.9235 58.7859 71.822 58.6633 71.6953C55.7283 68.6762 52.808 65.6432 49.8852 62.6114C49.2904 61.9945 48.7004 61.3714 48.1767 60.8235C46.8913 62.0836 45.6293 63.2734 44.4175 64.516C42.0626 66.9308 39.7409 69.3783 37.3897 71.7957C37.2547 71.9348 36.9297 72.0489 36.7813 71.9787C34.6043 70.9619 32.6186 69.6403 30.7739 67.9753C31.7478 66.9572 32.6971 65.9629 33.6488 64.9724C37.321 61.1507 40.998 57.3328 44.6603 53.5024C44.9989 53.1488 45.2503 53.0159 45.7544 53.2479C47.3329 53.9751 48.9359 53.9087 50.4985 53.1514C50.799 53.0059 50.9915 52.9859 51.2491 53.2554C55.819 58.0162 60.4 62.7656 64.9773 67.5189C65.0484 67.5929 65.1073 67.6769 65.2128 67.8085L65.2152 67.8073Z"
            fill="white" />
        <path
            d="M57.9474 24.1531C60.2311 25.0884 62.2941 26.3184 64.1743 27.8644C64.2896 27.9597 64.3325 28.2769 64.2749 28.4436C62.8007 32.7142 61.3092 36.9797 59.8203 41.2451C59.6326 41.783 59.4486 42.3209 59.2414 42.9203C59.4388 43.0018 59.6179 43.0895 59.8043 43.1497C64.3264 44.6016 68.8461 46.0586 73.3755 47.4842C73.8673 47.6384 74.0059 47.8515 73.9998 48.3631C73.9704 50.6751 73.5509 53.7771 73.0027 55.2516C66.5415 53.1778 60.0766 51.1014 53.6215 49.0301C53.6215 48.7618 53.6166 48.5537 53.6215 48.3443C53.6706 46.4648 52.9973 44.9126 51.5868 43.7114C51.3194 43.4832 51.2004 43.3202 51.339 42.9303C53.4768 36.8568 55.5937 30.7758 57.7168 24.6972C57.7769 24.5242 57.8603 24.3587 57.9474 24.1543V24.1531Z"
            fill="white" />
        <ellipse cx="47.9394" cy="48.1359" rx="2.88227" ry="2.94648" fill="white" />
    </g>
    <defs>
        <filter id="filter0_bi_20474_751" x="-12" y="-12" width="120" height="120" filterUnits="userSpaceOnUse"
            color-interpolation-filters="sRGB">
            <feFlood flood-opacity="0" result="BackgroundImageFix" />
            <feGaussianBlur in="BackgroundImageFix" stdDeviation="6" />
            <feComposite in2="SourceAlpha" operator="in" result="effect1_backgroundBlur_20474_751" />
            <feBlend mode="normal" in="SourceGraphic" in2="effect1_backgroundBlur_20474_751" result="shape" />
            <feColorMatrix in="SourceAlpha" type="matrix" values="0 0 0 0 0 0 0 0 0 0 0 0 0 0 0 0 0 0 127 0"
                result="hardAlpha" />
            <feOffset dy="-4" />
            <feGaussianBlur stdDeviation="8" />
            <feComposite in2="hardAlpha" operator="arithmetic" k2="-1" k3="1" />
            <feColorMatrix type="matrix" values="0 0 0 0 1 0 0 0 0 1 0 0 0 0 1 0 0 0 0.08 0" />
            <feBlend mode="normal" in2="shape" result="effect2_innerShadow_20474_751" />
        </filter>
        <radialGradient id="paint0_radial_20474_751" cx="0" cy="0" r="1" gradientUnits="userSpaceOnUse"
            gradientTransform="translate(48) rotate(90) scale(96)">
            <stop stop-color="white" stop-opacity="0.02" />
            <stop offset="1" stop-color="white" stop-opacity="0.08" />
        </radialGradient>
        <radialGradient id="paint1_radial_20474_751" cx="0" cy="0" r="1" gradientUnits="userSpaceOnUse"
            gradientTransform="translate(0 48) scale(48)">
            <stop stop-color="#FF2244" stop-opacity="0.56" />
            <stop offset="1" stop-color="#FF2244" stop-opacity="0.04" />
        </radialGradient>
    </defs>
</svg>