<svg width="70" height="64" viewBox="0 0 70 64" fill="none" xmlns="http://www.w3.org/2000/svg">
<path d="M22.1004 0C24.9699 8.21837 27.8295 16.4401 30.7255 24.6501C30.9616 25.3171 30.8922 25.6565 30.3127 26.0912C28.1185 27.7429 27.2021 30.0382 27.4102 33.1844C18.7306 35.9629 10.0295 38.7497 1.16993 41.5867C0.937128 40.4449 0.68947 39.3599 0.502901 38.2649C0.303123 37.1014 0.164434 35.9261 -0.000671387 34.7559C-0.000671387 33.6826 -0.000671387 32.6077 -0.000671387 31.5344C6.71747 29.3996 13.434 27.2647 20.1868 25.1199C20.1026 24.844 20.0531 24.6568 19.9903 24.4746C18.0223 18.804 16.0558 13.1317 14.0812 7.46274C13.2325 5.02531 13.1731 4.94339 15.3376 3.61769C17.4758 2.31204 19.7294 1.19865 21.9336 0C21.9897 0 22.0459 0 22.1004 0Z" fill="white"/>
<path d="M58.1744 58.4095C55.7012 60.658 53.0215 62.4167 50.109 63.811C49.9258 63.8979 49.5196 63.7625 49.3545 63.5936C45.4035 59.568 41.4724 55.5241 37.5379 51.4817C36.7371 50.6592 35.943 49.8284 35.238 49.0978C33.5077 50.7779 31.8087 52.3644 30.1775 54.0211C27.0075 57.241 23.882 60.5042 20.717 63.7274C20.5353 63.9129 20.0978 64.0651 19.898 63.9715C16.9674 62.6157 14.2943 60.8536 11.8112 58.6335C13.1221 57.2761 14.4 55.9504 15.6812 54.6297C20.6245 49.5341 25.5744 44.4436 30.5044 39.3364C30.9601 38.865 31.2986 38.6878 31.9771 38.997C34.1021 39.9667 36.26 39.8781 38.3634 38.8683C38.7679 38.6744 39.0272 38.6476 39.3739 39.0071C45.5257 45.3547 51.6924 51.6874 57.8541 58.025C57.9499 58.1236 58.0292 58.2356 58.1711 58.4112L58.1744 58.4095Z" fill="white"/>
<path d="M48.3908 0.203857C51.4651 1.45099 54.2422 3.09099 56.7732 5.15227C56.9284 5.27932 56.9862 5.70228 56.9086 5.92462C54.924 11.6186 52.9164 17.306 50.912 22.9933C50.6594 23.7105 50.4117 24.4277 50.1327 25.2268C50.3985 25.3354 50.6396 25.4524 50.8905 25.5327C56.978 27.4686 63.0621 29.4112 69.1594 31.312C69.8215 31.5176 70.0081 31.8018 69.9998 32.4839C69.9602 35.5666 69.3955 39.7025 68.6575 41.6685C59.9598 38.9034 51.2571 36.135 42.5676 33.3732C42.5676 33.0155 42.5609 32.738 42.5676 32.4588C42.6336 29.9528 41.7272 27.8832 39.8284 26.2816C39.4685 25.9774 39.3084 25.7601 39.4949 25.2401C42.3727 17.1421 45.2224 9.03409 48.0804 0.929401C48.1613 0.698698 48.2736 0.478026 48.3908 0.205529V0.203857Z" fill="white"/>
<ellipse cx="34.9187" cy="32.1813" rx="3.87998" ry="3.92864" fill="white"/>
</svg>
