<svg width="56" height="56" viewBox="0 0 56 56" fill="none" xmlns="http://www.w3.org/2000/svg">
<g filter="url(#filter0_b_20314_8064)">
<rect width="56" height="56" rx="12" fill="#141414"/>
<rect x="0.5" y="0.5" width="55" height="55" rx="11.5" stroke="#292929"/>
<path d="M33 35C33 36.1046 33.8954 37 35 37C36.1046 37 37 36.1046 37 35C37 33.8954 36.1046 33 35 33M33 35C33 33.8954 33.8954 33 35 33M33 35H23M35 33V23M23 35C23 36.1046 22.1046 37 21 37C19.8954 37 19 36.1046 19 35C19 33.8954 19.8954 33 21 33M23 35C23 33.8954 22.1046 33 21 33M35 23C33.8954 23 33 22.1046 33 21M35 23C36.1046 23 37 22.1046 37 21C37 19.8954 36.1046 19 35 19C33.8954 19 33 19.8954 33 21M21 33V23M21 23C19.8954 23 19 22.1046 19 21C19 19.8954 19.8954 19 21 19C22.1046 19 23 19.8954 23 21M21 23C22.1046 23 23 22.1046 23 21M23 21H33M26 31V25L30 31V25" stroke="#2BCFA1" stroke-width="2" stroke-linecap="round" stroke-linejoin="round"/>
</g>
<defs>
<filter id="filter0_b_20314_8064" x="-12" y="-12" width="80" height="80" filterUnits="userSpaceOnUse" color-interpolation-filters="sRGB">
<feFlood flood-opacity="0" result="BackgroundImageFix"/>
<feGaussianBlur in="BackgroundImageFix" stdDeviation="6"/>
<feComposite in2="SourceAlpha" operator="in" result="effect1_backgroundBlur_20314_8064"/>
<feBlend mode="normal" in="SourceGraphic" in2="effect1_backgroundBlur_20314_8064" result="shape"/>
</filter>
</defs>
</svg>
