<svg width="56" height="56" viewBox="0 0 56 56" fill="none" xmlns="http://www.w3.org/2000/svg">
<g filter="url(#filter0_b_20445_7316)">
<rect width="56" height="56" rx="12" fill="#141414"/>
<rect x="0.5" y="0.5" width="55" height="55" rx="11.5" stroke="#292929"/>
<path d="M19 27L19.1529 30.2269C19.3171 33.6686 19.3993 35.3894 20.5588 36.4447C21.7184 37.5 23.5272 37.5 27.1446 37.5H28.8554C32.4728 37.5 34.2816 37.5 35.4412 36.4447C36.6007 35.3894 36.6829 33.6686 36.8471 30.2269L37 27" stroke="#2BCFA1" stroke-width="2" stroke-linecap="round" stroke-linejoin="round"/>
<path d="M18.8472 26.4431C20.5465 29.6744 24.3792 31 28 31C31.6208 31 35.4535 29.6744 37.1528 26.4431C37.964 24.9006 37.3498 22 35.352 22H20.648C18.6502 22 18.036 24.9006 18.8472 26.4431Z" stroke="#2BCFA1" stroke-width="2"/>
<path d="M28 27H28.009" stroke="#2BCFA1" stroke-width="2" stroke-linecap="round" stroke-linejoin="round"/>
<path d="M32 22L31.9117 21.6909C31.4717 20.1509 31.2517 19.3809 30.7279 18.9404C30.2041 18.5 29.5084 18.5 28.117 18.5H27.883C26.4916 18.5 25.7959 18.5 25.2721 18.9404C24.7483 19.3809 24.5283 20.1509 24.0883 21.6909L24 22" stroke="#2BCFA1" stroke-width="2"/>
</g>
<defs>
<filter id="filter0_b_20445_7316" x="-12" y="-12" width="80" height="80" filterUnits="userSpaceOnUse" color-interpolation-filters="sRGB">
<feFlood flood-opacity="0" result="BackgroundImageFix"/>
<feGaussianBlur in="BackgroundImageFix" stdDeviation="6"/>
<feComposite in2="SourceAlpha" operator="in" result="effect1_backgroundBlur_20445_7316"/>
<feBlend mode="normal" in="SourceGraphic" in2="effect1_backgroundBlur_20445_7316" result="shape"/>
</filter>
</defs>
</svg>
