<svg width="56" height="56" stop-color="black" viewBox="0 0 56 56" fill="none" xmlns="http://www.w3.org/2000/svg">
    <path
        d="M5.8335 28.957V18.2938C5.8335 15.5172 7.53683 13.0437 10.1268 12.0637L28.6535 5.06372C31.5468 3.96705 34.6502 6.11379 34.6502 9.21712V18.0838M16.3335 28.0004H32.6668M42.0935 31.617C41.1135 32.5737 40.5535 33.9504 40.6935 35.4204C40.9035 37.9404 43.2135 39.7837 45.7335 39.7837H50.1668V42.5604C50.1668 47.3904 46.2235 51.3337 41.3935 51.3337H14.6068C9.77683 51.3337 5.8335 47.3904 5.8335 42.5604V26.8571C5.8335 22.0271 9.77683 18.0837 14.6068 18.0837H41.3935C46.2235 18.0837 50.1668 22.0271 50.1668 26.8571V30.2171H45.4535C44.1468 30.2171 42.9568 30.7304 42.0935 31.617ZM52.6374 32.5974V37.4042C52.6374 38.6876 51.6107 39.7375 50.3041 39.7841H45.7307C43.2107 39.7841 40.9007 37.9408 40.6907 35.4208C40.5507 33.9508 41.1107 32.5741 42.0907 31.6175C42.9541 30.7308 44.1441 30.2175 45.4507 30.2175H50.3041C51.6107 30.2642 52.6374 31.3141 52.6374 32.5974Z"
        stroke="url(#paint0_linear_20314_11059)" stroke-width="4" stroke-linecap="round" stroke-linejoin="round" />
    <defs>
        <linearGradient id="paint0_linear_20314_11059" x1="5.56451" y1="5.22991" x2="56.1012" y2="47.0131"
            gradientUnits="userSpaceOnUse">
            <stop />
            <stop offset="1" stop-opacity="0.4" />
        </linearGradient>
    </defs>
</svg>