<svg width="56" height="56" viewBox="0 0 56 56" fill="none" xmlns="http://www.w3.org/2000/svg">
<g filter="url(#filter0_b_20445_7533)">
<rect width="56" height="56" rx="12" fill="#141414"/>
<rect x="0.5" y="0.5" width="55" height="55" rx="11.5" stroke="#292929"/>
<path d="M30.1645 29.4933C29.5682 30.1701 28.8423 30.7239 28.0252 31.1254V33.4329C28.0252 33.6368 27.9438 33.8325 27.7989 33.9767C27.6541 34.121 27.4577 34.202 27.2528 34.202H22.6189C22.4141 34.202 22.2177 34.121 22.0728 33.9767C21.928 33.8325 21.8466 33.6368 21.8466 33.4329V31.1254C20.2191 30.3164 18.9749 28.9042 18.381 27.1919C17.7871 25.4797 17.8908 23.6038 18.6699 21.9669C19.449 20.3299 20.8414 19.0623 22.5482 18.4361C24.2551 17.81 26.1404 17.8751 27.7996 18.6175M21.8466 38.0001H28.0252M28.6028 23.2847C28.0607 23.1909 28.0607 22.4156 28.6028 22.3217C29.5625 22.1546 30.4505 21.707 31.1541 21.0359C31.8577 20.3648 32.345 19.5005 32.554 18.5529L32.5865 18.4021C32.7039 17.8683 33.4669 17.8653 33.5889 18.3975L33.6291 18.5714C33.8448 19.5153 34.3361 20.3746 35.0411 21.0411C35.7461 21.7076 36.6333 22.1516 37.5911 22.3171C38.1363 22.4125 38.1363 23.1909 37.5911 23.2862C36.6336 23.452 35.7467 23.8961 35.042 24.5626C34.3373 25.2291 33.8463 26.0883 33.6306 27.032L33.5905 27.2058C33.4685 27.7381 32.7054 27.735 32.588 27.2012L32.5571 27.052C32.3478 26.104 31.8601 25.2394 31.1559 24.5682C30.4518 23.8971 29.5631 23.4513 28.6028 23.2847Z" stroke="#2BCFA1" stroke-width="2" stroke-linecap="round" stroke-linejoin="round"/>
</g>
<defs>
<filter id="filter0_b_20445_7533" x="-12" y="-12" width="80" height="80" filterUnits="userSpaceOnUse" color-interpolation-filters="sRGB">
<feFlood flood-opacity="0" result="BackgroundImageFix"/>
<feGaussianBlur in="BackgroundImageFix" stdDeviation="6"/>
<feComposite in2="SourceAlpha" operator="in" result="effect1_backgroundBlur_20445_7533"/>
<feBlend mode="normal" in="SourceGraphic" in2="effect1_backgroundBlur_20445_7533" result="shape"/>
</filter>
</defs>
</svg>
