<svg width="32" height="32" viewBox="0 0 32 32" fill="none" xmlns="http://www.w3.org/2000/svg">
<path fill-rule="evenodd" clip-rule="evenodd" d="M27 3H5C3.89543 3 3 3.89543 3 5V27C3 28.1046 3.89543 29 5 29H27C28.1046 29 29 28.1046 29 27V5C29 3.89543 28.1046 3 27 3ZM5 0C2.23858 0 0 2.23858 0 5V27C0 29.7614 2.23858 32 5 32H27C29.7614 32 32 29.7614 32 27V5C32 2.23858 29.7614 0 27 0H5Z" fill="#C2C2C2"/>
<path fill-rule="evenodd" clip-rule="evenodd" d="M9.5 13C10.3284 13 11 13.6716 11 14.5V24.5C11 25.3284 10.3284 26 9.5 26C8.67157 26 8 25.3284 8 24.5V14.5C8 13.6716 8.67157 13 9.5 13Z" fill="#C2C2C2"/>
<path fill-rule="evenodd" clip-rule="evenodd" d="M16 9C16.8284 9 17.5 9.67157 17.5 10.5V24.5C17.5 25.3284 16.8284 26 16 26C15.1716 26 14.5 25.3284 14.5 24.5V10.5C14.5 9.67157 15.1716 9 16 9Z" fill="#C2C2C2"/>
<path fill-rule="evenodd" clip-rule="evenodd" d="M22.5 17C23.3284 17 24 17.6716 24 18.5V24.5C24 25.3284 23.3284 26 22.5 26C21.6716 26 21 25.3284 21 24.5V18.5C21 17.6716 21.6716 17 22.5 17Z" fill="#C2C2C2"/>
</svg>
