<svg width="18" height="19" viewBox="0 0 18 19" fill="none" xmlns="http://www.w3.org/2000/svg">
    <g id="Frame 48" clip-path="url(#clip0_18495_4985)">
        <path id="Trash" fill-rule="evenodd" clip-rule="evenodd"
            d="M6.08108 18.5C4.83219 18.5 3.78622 17.5412 3.66092 16.2815L2.31176 4.43356H0.841779C0.376877 4.43356 0 4.05668 0 3.59178C0 3.12688 0.376877 2.75 0.841779 2.75H6.08108V1.97952C6.08108 1.1624 6.7345 0.5 7.54054 0.5H10.9459C11.752 0.5 12.4054 1.1624 12.4054 1.97952V2.75H17.1582C17.6231 2.75 18 3.12688 18 3.59178C18 4.05668 17.6231 4.43356 17.1582 4.43356H15.6882L14.3391 16.2815C14.2138 17.5412 13.1678 18.5 11.9189 18.5H6.08108ZM4.90146 4.43356C4.30347 4.43356 3.83916 4.9549 3.90813 5.5489L5.11302 15.9251C5.16314 16.429 5.58152 16.8125 6.08108 16.8125H11.9189C12.4185 16.8125 12.8369 16.429 12.887 15.9251L14.0919 5.5489C14.1608 4.9549 13.6965 4.43356 13.0985 4.43356H4.90146Z"
            fill="#E63F43" />
    </g>
    <defs>
        <clipPath id="clip0_18495_4985">
            <rect width="18" height="18" fill="white" transform="translate(0 0.5)" />
        </clipPath>
    </defs>
</svg>