<svg width="32" height="32" viewBox="0 0 32 32" fill="none" xmlns="http://www.w3.org/2000/svg">
<g clip-path="url(#clip0_688_5934)">
<path fill-rule="evenodd" clip-rule="evenodd" d="M10.8108 32C8.59056 32 6.73106 30.2955 6.5083 28.0561L4.1098 6.99299H1.4965C0.670004 6.99299 0 6.32299 0 5.4965C0 4.67 0.670004 4 1.4965 4H10.8108V2.63026C10.8108 1.17761 11.9725 0 13.4054 0H19.4595C20.8924 0 22.0541 1.17761 22.0541 2.63026V4H30.5035C31.33 4 32 4.67 32 5.4965C32 6.32299 31.33 6.99299 30.5035 6.99299H27.8902L25.4917 28.0561C25.2689 30.2955 23.4094 32 21.1892 32H10.8108ZM7.84039 6.99299C7.2424 6.99299 6.77809 7.51434 6.84706 8.10834L9.08981 27.4224C9.17891 28.3182 9.92271 29 10.8108 29H21.1892C22.0773 29 22.8211 28.3182 22.9102 27.4224L25.1529 8.10834C25.2219 7.51434 24.7576 6.99299 24.1596 6.99299H7.84039Z" fill="#DBDBDB"/>
</g>
<defs>
<clipPath id="clip0_688_5934">
<rect width="32" height="32" fill="white"/>
</clipPath>
</defs>
</svg>
