<svg width="14" height="15" viewBox="0 0 14 15" fill="none" xmlns="http://www.w3.org/2000/svg">
<path fill-rule="evenodd" clip-rule="evenodd" d="M6.99999 0.5C3.12162 0.5 0 3.62162 0 7.5C0 11.3784 3.12162 14.5 6.99999 14.5H14V7.5946C14 3.71622 10.8784 0.5 6.99999 0.5ZM3.73162 11.071C3.56425 10.9036 3.56978 10.6267 3.74397 10.4525L9.95255 4.24397C10.1267 4.06977 10.4036 4.06424 10.571 4.23161C10.7384 4.39898 10.7328 4.67587 10.5586 4.85006L4.35007 11.0586C4.17587 11.2328 3.89898 11.2384 3.73162 11.071ZM4.85714 7.64286C5.80392 7.64286 6.57143 6.87535 6.57143 5.92857C6.57143 4.9818 5.80392 4.21429 4.85714 4.21429C3.91037 4.21429 3.14286 4.9818 3.14286 5.92857C3.14286 6.87535 3.91037 7.64286 4.85714 7.64286ZM9.14286 11.3571C10.0896 11.3571 10.8571 10.5896 10.8571 9.64286C10.8571 8.69608 10.0896 7.92857 9.14286 7.92857C8.19608 7.92857 7.42857 8.69608 7.42857 9.64286C7.42857 10.5896 8.19608 11.3571 9.14286 11.3571Z" fill="#25BB92"/>
<path d="M5.71429 5.92857C5.71429 6.40196 5.33053 6.78571 4.85714 6.78571C4.38376 6.78571 4 6.40196 4 5.92857C4 5.45518 4.38376 5.07143 4.85714 5.07143C5.33053 5.07143 5.71429 5.45518 5.71429 5.92857Z" fill="#2EC99E"/>
<path d="M10 9.64286C10 10.1162 9.61624 10.5 9.14286 10.5C8.66947 10.5 8.28571 10.1162 8.28571 9.64286C8.28571 9.16947 8.66947 8.78571 9.14286 8.78571C9.61624 8.78571 10 9.16947 10 9.64286Z" fill="#2EC99E"/>
</svg>
