<svg width="12" height="10" viewBox="0 0 12 10" fill="none" xmlns="http://www.w3.org/2000/svg">
<path d="M10.1208 1.59117C9.36287 1.24341 8.55014 0.987202 7.70038 0.840459C7.6849 0.837627 7.66945 0.844705 7.66147 0.85886C7.55695 1.04476 7.44117 1.28729 7.36009 1.47792C6.44612 1.34109 5.53684 1.34109 4.64161 1.47792C4.56051 1.28306 4.44053 1.04476 4.33554 0.85886C4.32756 0.845177 4.31211 0.8381 4.29663 0.840459C3.44734 0.986733 2.63461 1.24294 1.87624 1.59117C1.86968 1.594 1.86405 1.59872 1.86031 1.60485C0.318734 3.90794 -0.103569 6.15442 0.103599 8.37304C0.104536 8.3839 0.110629 8.39428 0.119066 8.40088C1.13616 9.14781 2.12138 9.60126 3.08831 9.90182C3.10379 9.90654 3.12018 9.90088 3.13003 9.88814C3.35876 9.57579 3.56265 9.24644 3.73746 8.90009C3.74778 8.8798 3.73793 8.85574 3.71685 8.84772C3.39344 8.72504 3.0855 8.57546 2.78928 8.4056C2.76585 8.39192 2.76397 8.35841 2.78552 8.34236C2.84786 8.29565 2.91021 8.24705 2.96974 8.19798C2.9805 8.18902 2.99551 8.18712 3.00817 8.19278C4.95422 9.08128 7.06106 9.08128 8.98415 8.19278C8.99681 8.18665 9.01182 8.18855 9.02305 8.19751C9.08259 8.24658 9.14493 8.29565 9.20773 8.34236C9.22929 8.35841 9.22788 8.39192 9.20445 8.4056C8.90823 8.57876 8.60028 8.72504 8.27641 8.84725C8.25533 8.85527 8.24595 8.8798 8.25626 8.90009C8.43483 9.24595 8.63872 9.5753 8.86323 9.88767C8.87261 9.90088 8.88947 9.90654 8.90495 9.90182C9.87657 9.60126 10.8618 9.14781 11.8789 8.40088C11.8878 8.39428 11.8934 8.38436 11.8944 8.37351C12.1423 5.80854 11.4791 3.58048 10.1362 1.60532C10.1329 1.59872 10.1273 1.594 10.1208 1.59117ZM4.02808 7.02213C3.44218 7.02213 2.95942 6.48424 2.95942 5.82364C2.95942 5.16305 3.43282 4.62516 4.02808 4.62516C4.62801 4.62516 5.1061 5.16777 5.09672 5.82364C5.09672 6.48424 4.62332 7.02213 4.02808 7.02213ZM7.97925 7.02213C7.39337 7.02213 6.91061 6.48424 6.91061 5.82364C6.91061 5.16305 7.38399 4.62516 7.97925 4.62516C8.5792 4.62516 9.05727 5.16777 9.04791 5.82364C9.04791 6.48424 8.5792 7.02213 7.97925 7.02213Z" fill="#808080"/>
</svg>
