<svg width="32" height="32" viewBox="0 0 32 32" fill="none" xmlns="http://www.w3.org/2000/svg">
<path d="M26.8435 6.00353C24.8224 5.07619 22.6552 4.39296 20.3891 4.00164C20.3479 3.99409 20.3066 4.01296 20.2854 4.05071C20.0066 4.54646 19.6979 5.1932 19.4817 5.70153C17.0444 5.33665 14.6197 5.33665 12.2324 5.70153C12.0161 5.1819 11.6962 4.54646 11.4162 4.05071C11.3949 4.01422 11.3537 3.99535 11.3125 4.00164C9.04768 4.3917 6.8804 5.07493 4.85809 6.00353C4.84058 6.01108 4.82557 6.02368 4.81561 6.04002C0.704734 12.1816 -0.421407 18.1722 0.13104 24.0885C0.13354 24.1175 0.149788 24.1452 0.172286 24.1628C2.88453 26.1546 5.51179 27.3638 8.09027 28.1653C8.13154 28.1779 8.17527 28.1628 8.20153 28.1288C8.81147 27.2958 9.35517 26.4176 9.82135 25.494C9.84886 25.4399 9.8226 25.3757 9.76637 25.3543C8.90396 25.0272 8.08277 24.6283 7.29285 24.1754C7.23036 24.1389 7.22536 24.0495 7.28284 24.0067C7.44907 23.8822 7.61535 23.7525 7.77407 23.6217C7.80279 23.5978 7.84281 23.5927 7.87657 23.6078C13.066 25.9772 18.6843 25.9772 23.8125 23.6078C23.8463 23.5915 23.8863 23.5965 23.9163 23.6204C24.075 23.7513 24.2413 23.8822 24.4087 24.0067C24.4662 24.0495 24.4625 24.1389 24.4 24.1754C23.6101 24.6371 22.7889 25.0272 21.9252 25.3531C21.869 25.3745 21.844 25.4399 21.8715 25.494C22.3477 26.4163 22.8914 27.2945 23.4901 28.1275C23.5151 28.1628 23.56 28.1779 23.6013 28.1653C26.1923 27.3638 28.8195 26.1546 31.5318 24.1628C31.5555 24.1452 31.5705 24.1187 31.573 24.0898C32.2342 17.2498 30.4656 11.3084 26.8847 6.04127C26.876 6.02368 26.861 6.01108 26.8435 6.00353ZM10.5963 20.4861C9.03393 20.4861 7.74656 19.0517 7.74656 17.2901C7.74656 15.5286 9.00896 14.0942 10.5963 14.0942C12.1961 14.0942 13.471 15.5411 13.446 17.2901C13.446 19.0517 12.1836 20.4861 10.5963 20.4861ZM21.1328 20.4861C19.5704 20.4861 18.2831 19.0517 18.2831 17.2901C18.2831 15.5286 19.5454 14.0942 21.1328 14.0942C22.7326 14.0942 24.0075 15.5411 23.9825 17.2901C23.9825 19.0517 22.7326 20.4861 21.1328 20.4861Z" fill="#C2C2C2"/>
</svg>
