<svg width="34" height="34" viewBox="0 0 34 34" fill="none" xmlns="http://www.w3.org/2000/svg">
<g clip-path="url(#clip0_8710_16596)">
<path fill-rule="evenodd" clip-rule="evenodd" d="M10.8644 26.771C11.3684 24.7287 9.62939 22.8323 7.55116 23.1578L7.17635 23.2165C6.70287 23.2906 6.22246 23.1341 5.88358 22.7952L3.77121 20.6828C2.59964 19.5113 2.59964 17.6118 3.77122 16.4402L16.4991 3.71227C17.6707 2.5407 19.5702 2.5407 20.7418 3.71227L22.8541 5.82463C23.193 6.16352 23.3496 6.64393 23.2754 7.1174L23.2167 7.49222C22.8912 9.57045 24.7876 11.3094 26.8299 10.8055C27.3303 10.682 27.8588 10.8293 28.2232 11.1937L30.2877 13.2582C31.4593 14.4298 31.4593 16.3293 30.2877 17.5009L17.5598 30.2288C16.3882 31.4003 14.4887 31.4004 13.3172 30.2288L11.2526 28.1643C10.8882 27.7998 10.741 27.2713 10.8644 26.771ZM18.0901 5.30326L5.36221 18.0312C5.06931 18.3241 5.06931 18.799 5.3622 19.0918L7.20492 20.9346C10.7205 20.3852 13.6853 23.4393 13.1386 26.8682L14.9081 28.6378C15.201 28.9307 15.6759 28.9307 15.9688 28.6378L28.6967 15.9099C28.9896 15.617 28.9896 15.1421 28.6967 14.8492L26.9271 13.0796C23.4983 13.6263 20.4442 10.6616 20.9935 7.14598L19.1508 5.30326C18.8579 5.01037 18.383 5.01037 18.0901 5.30326Z" fill="#808080"/>
<path fill-rule="evenodd" clip-rule="evenodd" d="M17.0995 22.9687C16.5656 22.9687 16.1328 22.536 16.1328 22.0021L16.1328 11.9354C16.1328 11.4015 16.5656 10.9687 17.0995 10.9687C17.6334 10.9687 18.0662 11.4015 18.0662 11.9354L18.0662 22.0021C18.0662 22.536 17.6334 22.9687 17.0995 22.9687Z" fill="#808080"/>
<path fill-rule="evenodd" clip-rule="evenodd" d="M13.3168 18.0313C13.6097 17.7384 13.6097 17.2635 13.3168 16.9706C13.0239 16.6778 12.549 16.6778 12.2561 16.9706C11.9632 17.2635 11.9632 17.7384 12.2561 18.0313C12.549 18.3242 13.0239 18.3242 13.3168 18.0313ZM14.3775 19.092C15.2561 18.2133 15.2561 16.7887 14.3775 15.91C13.4988 15.0313 12.0742 15.0313 11.1955 15.91C10.3168 16.7887 10.3168 18.2133 11.1955 19.092C12.0742 19.9706 13.4988 19.9706 14.3775 19.092Z" fill="#808080"/>
<path fill-rule="evenodd" clip-rule="evenodd" d="M21.8022 16.9708C22.095 16.6779 22.095 16.203 21.8022 15.9101C21.5093 15.6172 21.0344 15.6172 20.7415 15.9101C20.4486 16.203 20.4486 16.6779 20.7415 16.9708C21.0344 17.2637 21.5093 17.2637 21.8022 16.9708ZM22.8628 18.0314C23.7415 17.1527 23.7415 15.7281 22.8628 14.8494C21.9841 13.9708 20.5595 13.9708 19.6808 14.8494C18.8022 15.7281 18.8022 17.1527 19.6808 18.0314C20.5595 18.9101 21.9841 18.9101 22.8628 18.0314Z" fill="#808080"/>
</g>
<defs>
<clipPath id="clip0_8710_16596">
<rect width="24" height="24" fill="white" transform="translate(0.0585938 16.9707) rotate(-45)"/>
</clipPath>
</defs>
</svg>
