<svg width="124" height="20" viewBox="0 0 124 20" fill="none" xmlns="http://www.w3.org/2000/svg">
<path fill-rule="evenodd" clip-rule="evenodd" d="M20 10C20 15.5228 15.5228 20 10 20C4.47715 20 0 15.5228 0 10C0 4.47715 4.47715 0 10 0C15.5228 0 20 4.47715 20 10ZM11.0151 3.06897H13.2931V15.7069H12.186L12.1838 15.7069H9.32588C7.13895 15.7069 5.36207 13.929 5.36207 11.7409C5.36207 9.55272 7.13895 7.77485 9.32588 7.77485C9.9298 7.77485 10.5025 7.91043 11.0151 8.15279V3.06897Z" fill="currentColor"/>
<path d="M9.32588 10.0314C8.39188 10.0314 7.64012 10.7836 7.64012 11.7181C7.64012 12.6526 8.39188 13.4048 9.32588 13.4048H11.0116V11.7409C11.0116 10.8064 10.2599 10.0314 9.32588 10.0314Z" fill="currentColor"/>
<path d="M51.8447 15.9196C50.901 15.9196 50.0615 15.7209 49.3263 15.3234C48.6021 14.9259 48.026 14.3849 47.598 13.7004C47.181 13.0048 46.9725 12.2154 46.9725 11.3321C46.9725 10.4378 47.181 9.64835 47.598 8.96381C48.026 8.26823 48.6021 7.72723 49.3263 7.34079C50.0615 6.94332 50.901 6.74459 51.8447 6.74459C52.7774 6.74459 53.6114 6.94332 54.3466 7.34079C55.0818 7.72723 55.6579 8.26271 56.0749 8.94725C56.4919 9.63178 56.7004 10.4267 56.7004 11.3321C56.7004 12.2154 56.4919 13.0048 56.0749 13.7004C55.6579 14.3849 55.0818 14.9259 54.3466 15.3234C53.6114 15.7209 52.7774 15.9196 51.8447 15.9196ZM51.8447 13.7997C52.2726 13.7997 52.6567 13.7004 52.9969 13.5016C53.3371 13.3029 53.6059 13.0213 53.8034 12.657C54.0009 12.2816 54.0997 11.84 54.0997 11.3321C54.0997 10.8132 54.0009 10.3715 53.8034 10.0072C53.6059 9.64283 53.3371 9.36128 52.9969 9.16255C52.6567 8.96381 52.2726 8.86444 51.8447 8.86444C51.4167 8.86444 51.0326 8.96381 50.6925 9.16255C50.3523 9.36128 50.078 9.64283 49.8695 10.0072C49.672 10.3715 49.5732 10.8132 49.5732 11.3321C49.5732 11.84 49.672 12.2816 49.8695 12.657C50.078 13.0213 50.3523 13.3029 50.6925 13.5016C51.0326 13.7004 51.4167 13.7997 51.8447 13.7997Z" fill="currentColor"/>
<path d="M70.4396 15.9196V1.74526H73.0073V15.9196H70.4396Z" fill="currentColor"/>
<path d="M75.7196 15.7871V5.12378H78.2874V15.7871H75.7196ZM77.0035 3.88168C76.5317 3.88168 76.1476 3.74367 75.8513 3.46765C75.555 3.19162 75.4069 2.84935 75.4069 2.44084C75.4069 2.03233 75.555 1.69006 75.8513 1.41404C76.1476 1.13801 76.5317 1 77.0035 1C77.4754 1 77.8594 1.13249 78.1557 1.39747C78.452 1.65142 78.6001 1.98264 78.6001 2.39116C78.6001 2.82175 78.452 3.18058 78.1557 3.46765C77.8704 3.74367 77.4863 3.88168 77.0035 3.88168Z" fill="currentColor"/>
<path d="M92.7094 15.7871V1.74526H95.2772V10.4575V13.5257V15.7871H92.7094Z" fill="currentColor"/>
<path fill-rule="evenodd" clip-rule="evenodd" d="M32.817 15.7872C30.1566 15.7872 28 13.6173 28 10.9406C28 8.26383 30.1566 6.09392 32.817 6.09392C33.6301 6.09392 34.3963 6.29666 35.0681 6.65465V1.61287H37.6339V15.7872H32.817ZM35.0681 13.2056V10.9649C35.0681 9.72743 34.0711 8.72425 32.8412 8.72425C31.6113 8.72425 30.6142 9.72743 30.6142 10.9649C30.6142 12.2024 31.6113 13.2056 32.8412 13.2056H35.0681Z" fill="currentColor"/>
<path d="M40.3416 15.7871V6.87708H42.7941V8.04699C43.0361 7.71504 43.3433 7.44652 43.7159 7.24143C44.2975 6.9102 45.0052 6.74459 45.8392 6.74459V9.12942C45.7295 9.11838 45.6307 9.11286 45.5429 9.11286C45.4552 9.10182 45.3619 9.0963 45.2631 9.0963C44.5608 9.0963 43.9902 9.30056 43.5513 9.70907C43.1233 10.1065 42.9093 10.7304 42.9093 11.5805V15.7871H40.3416Z" fill="currentColor"/>
<path d="M62.0215 15.4227C62.5811 15.754 63.234 15.9196 63.9802 15.9196C64.8142 15.9196 65.5603 15.7319 66.2187 15.3565C66.8881 14.9811 67.4148 14.4511 67.7989 13.7666C68.1939 13.0821 68.3915 12.2706 68.3915 11.3321C68.3915 10.4046 68.1939 9.59866 67.7989 8.91412C67.4148 8.22959 66.8881 7.69962 66.2187 7.32423C65.5603 6.9378 64.8142 6.74459 63.9802 6.74459C63.2011 6.74459 62.5317 6.9102 61.9721 7.24143C61.6778 7.4156 61.5351 7.48794 61.3137 7.75676L61.2808 8.67568V11.3321C61.2808 10.8132 61.3795 10.3715 61.577 10.0072C61.7746 9.64283 62.0434 9.36128 62.3836 9.16255C62.7237 8.96381 63.1078 8.86444 63.5358 8.86444C63.9637 8.86444 64.3423 8.96381 64.6715 9.16255C65.0117 9.36128 65.2805 9.64283 65.4781 10.0072C65.6865 10.3715 65.7908 10.8132 65.7908 11.3321C65.7908 11.84 65.6865 12.2816 65.4781 12.657C65.2805 13.0213 65.0117 13.3029 64.6715 13.5016C64.3423 13.7004 63.9637 13.7997 63.5358 13.7997C63.1078 13.7997 62.7237 13.7004 62.3836 13.5016C62.0434 13.3029 61.7746 13.0213 61.577 12.657C61.392 12.3054 61.2937 11.8957 61.2819 11.4278L61.3137 13.9819V14.8438C61.523 15.0744 61.759 15.2674 62.0215 15.4227Z" fill="currentColor"/>
<path fill-rule="evenodd" clip-rule="evenodd" d="M58.7459 6.87708V19H61.3137V14.8438V13.9819L61.2819 11.4278C61.2812 11.3962 61.2808 11.3643 61.2808 11.3321V8.67568L61.3137 7.75676V6.87708H58.7459Z" fill="currentColor"/>
<path d="M86.3821 6.74459C87.0844 6.74459 87.7099 6.88812 88.2585 7.17518C88.8182 7.4512 89.2571 7.8818 89.5754 8.46697C89.8936 9.0411 90.0527 9.78084 90.0527 10.6862V15.7871H87.4849V11.0837C87.4849 10.366 87.3258 9.83604 87.0076 9.49377C86.7003 9.1515 86.2614 8.98037 85.6908 8.98037C85.2848 8.98037 84.9172 9.0687 84.588 9.24535C84.2697 9.41097 84.0174 9.67043 83.8308 10.0237C83.6552 10.377 83.5675 10.8297 83.5675 11.3818V15.7871H80.9997V6.87708H83.4522V7.93542C83.7063 7.65056 84.0081 7.41371 84.3575 7.22487C84.9501 6.90468 85.625 6.74459 86.3821 6.74459Z" fill="currentColor"/>
<path d="M102.092 6.87708H99.0301L95.2772 10.4575V13.5257L96.5573 12.348L98.4036 10.6494L102.092 6.87708Z" fill="currentColor"/>
<path d="M99.3099 15.7871H102.421L98.4036 10.6494L96.5573 12.348L99.3099 15.7871Z" fill="currentColor"/>
<path d="M105.263 15.3234C106.032 15.7209 106.92 15.9196 107.93 15.9196C108.731 15.9196 109.439 15.7981 110.053 15.5552C110.668 15.3013 111.178 14.9425 111.584 14.4787L110.218 12.9882C109.922 13.2753 109.592 13.4906 109.23 13.6341C108.879 13.7776 108.468 13.8494 107.996 13.8494C107.469 13.8494 107.008 13.7556 106.613 13.5679C106.229 13.3691 105.927 13.0876 105.708 12.7232C105.594 12.5188 105.512 12.298 105.46 12.0608C105.417 11.8625 105.395 11.6527 105.395 11.4315V11.034C105.395 10.8656 105.407 10.7055 105.43 10.5537C105.473 10.2777 105.555 10.0293 105.675 9.80844C105.861 9.45513 106.119 9.18463 106.448 8.99693C106.789 8.7982 107.178 8.69883 107.617 8.69883C108.056 8.69883 108.44 8.7982 108.769 8.99693C109.099 9.18463 109.356 9.44961 109.543 9.79188C109.667 10.0191 109.75 10.273 109.791 10.5537H105.43C105.407 10.7055 105.395 10.8656 105.395 11.034V11.4315C105.395 11.6527 105.417 11.8625 105.46 12.0608H112.16C112.171 11.9504 112.182 11.8344 112.193 11.713C112.204 11.5805 112.209 11.4646 112.209 11.3652C112.209 10.4046 112.006 9.5821 111.6 8.89756C111.194 8.20198 110.64 7.67202 109.938 7.30767C109.247 6.93228 108.468 6.74459 107.601 6.74459C106.701 6.74459 105.894 6.94332 105.181 7.34079C104.468 7.72723 103.903 8.26823 103.486 8.96381C103.08 9.64835 102.877 10.4378 102.877 11.3321C102.877 12.2154 103.085 13.0048 103.502 13.7004C103.919 14.3849 104.506 14.9259 105.263 15.3234Z" fill="currentColor"/>
<path fill-rule="evenodd" clip-rule="evenodd" d="M115.795 15.3565C116.465 15.7319 117.216 15.9196 118.05 15.9196C118.83 15.9196 119.493 15.754 120.042 15.4227C120.33 15.2524 120.583 15.0368 120.801 14.7758L120.701 7.80619C120.497 7.58183 120.266 7.39357 120.009 7.24143C119.45 6.9102 118.797 6.74459 118.05 6.74459C117.216 6.74459 116.465 6.93228 115.795 7.30767C115.126 7.68306 114.594 8.21303 114.199 8.89756C113.815 9.5821 113.623 10.3936 113.623 11.3321C113.623 12.2595 113.815 13.0655 114.199 13.75C114.594 14.4346 115.126 14.9701 115.795 15.3565ZM119.631 13.5016C119.29 13.7004 118.912 13.7997 118.495 13.7997C118.067 13.7997 117.683 13.7004 117.343 13.5016C117.003 13.3029 116.728 13.0213 116.52 12.657C116.322 12.2816 116.223 11.84 116.223 11.3321C116.223 10.8132 116.322 10.3715 116.52 10.0072C116.728 9.64283 117.003 9.36128 117.343 9.16255C117.683 8.96381 118.067 8.86444 118.495 8.86444C118.912 8.86444 119.29 8.96381 119.631 9.16255C119.971 9.36128 120.24 9.64283 120.437 10.0072C120.646 10.3715 120.75 10.8132 120.75 11.3321C120.75 11.84 120.646 12.2816 120.437 12.657C120.24 13.0213 119.971 13.3029 119.631 13.5016Z" fill="currentColor"/>
<path d="M123.268 1.74526H120.701V7.80619L120.801 14.7758L120.816 15.7871H123.268V1.74526Z" fill="currentColor"/>
</svg>
