<svg width="215" height="40" viewBox="0 0 215 40" fill="none" xmlns="http://www.w3.org/2000/svg">
    <path
        d="M27.8523 32.9049V13.2289H33.3872V18.7879L32.6071 17.1787C33.2014 15.789 34.1549 14.7406 35.4674 14.0335C36.7799 13.3021 38.3772 12.9363 40.2593 12.9363V18.2028C40.0116 18.1784 39.7888 18.1662 39.5906 18.1662C39.3925 18.1418 39.182 18.1296 38.9591 18.1296C37.3742 18.1296 36.0865 18.5807 35.0959 19.4828C34.1301 20.3606 33.6472 21.7381 33.6472 23.6155V32.9049H27.8523Z"
        fill="white" />
    <path
        d="M53.8123 33.1975C51.6826 33.1975 49.7881 32.7586 48.1289 31.8809C46.4944 31.0032 45.1943 29.8085 44.2285 28.2968C43.2874 26.7608 42.8169 25.0175 42.8169 23.0669C42.8169 21.092 43.2874 19.3487 44.2285 17.8371C45.1943 16.301 46.4944 15.1063 48.1289 14.2529C49.7881 13.3752 51.6826 12.9363 53.8123 12.9363C55.9173 12.9363 57.7994 13.3752 59.4586 14.2529C61.1178 15.1063 62.4179 16.2888 63.359 17.8005C64.3 19.3121 64.7706 21.0676 64.7706 23.0669C64.7706 25.0175 64.3 26.7608 63.359 28.2968C62.4179 29.8085 61.1178 31.0032 59.4586 31.8809C57.7994 32.7586 55.9173 33.1975 53.8123 33.1975ZM53.8123 28.5162C54.7781 28.5162 55.6449 28.2968 56.4126 27.8579C57.1803 27.4191 57.787 26.7973 58.2328 25.9927C58.6785 25.1638 58.9014 24.1885 58.9014 23.0669C58.9014 21.921 58.6785 20.9457 58.2328 20.1411C57.787 19.3365 57.1803 18.7148 56.4126 18.2759C55.6449 17.8371 54.7781 17.6176 53.8123 17.6176C52.8465 17.6176 51.9797 17.8371 51.212 18.2759C50.4443 18.7148 49.8252 19.3365 49.3547 20.1411C48.9089 20.9457 48.6861 21.921 48.6861 23.0669C48.6861 24.1885 48.9089 25.1638 49.3547 25.9927C49.8252 26.7973 50.4443 27.4191 51.212 27.8579C51.9797 28.2968 52.8465 28.5162 53.8123 28.5162Z"
        fill="white" />
    <path
        d="M81.1995 33.1975C79.5156 33.1975 78.0421 32.8318 76.7791 32.1003C75.5161 31.3689 74.5255 30.2595 73.8074 28.7722C73.114 27.2606 72.7673 25.3588 72.7673 23.0669C72.7673 20.7507 73.1016 18.8489 73.7702 17.3616C74.4389 15.8743 75.4047 14.765 76.6676 14.0335C77.9306 13.3021 79.4413 12.9363 81.1995 12.9363C83.0816 12.9363 84.7656 13.363 86.2515 14.2164C87.7621 15.0454 88.9508 16.2157 89.8176 17.7273C90.7091 19.239 91.1548 21.0189 91.1548 23.0669C91.1548 25.1394 90.7091 26.9314 89.8176 28.4431C88.9508 29.9548 87.7621 31.1251 86.2515 31.9541C84.7656 32.783 83.0816 33.1975 81.1995 33.1975ZM69.3869 40V13.2289H74.9218V17.2519L74.8103 23.1035L75.1818 28.9185V40H69.3869ZM80.1966 28.5162C81.1624 28.5162 82.0168 28.2968 82.7597 27.8579C83.5274 27.4191 84.1341 26.7973 84.5799 25.9927C85.0504 25.1638 85.2857 24.1885 85.2857 23.0669C85.2857 21.921 85.0504 20.9457 84.5799 20.1411C84.1341 19.3365 83.5274 18.7148 82.7597 18.2759C82.0168 17.8371 81.1624 17.6176 80.1966 17.6176C79.2308 17.6176 78.364 17.8371 77.5963 18.2759C76.8286 18.7148 76.2219 19.3365 75.7761 20.1411C75.3304 20.9457 75.1075 21.921 75.1075 23.0669C75.1075 24.1885 75.3304 25.1638 75.7761 25.9927C76.2219 26.7973 76.8286 27.4191 77.5963 27.8579C78.364 28.2968 79.2308 28.5162 80.1966 28.5162Z"
        fill="white" />
    <path d="M95.777 32.9049V1.64576H101.572V32.9049H95.777Z" fill="white" />
    <path
        d="M107.693 32.9049V9.10656H113.488V32.9049H107.693ZM110.59 6.36362C109.525 6.36362 108.659 6.05885 107.99 5.44931C107.321 4.83976 106.987 4.08393 106.987 3.18181C106.987 2.27969 107.321 1.52386 107.99 0.914314C108.659 0.304772 109.525 0 110.59 0C111.655 0 112.522 0.292581 113.191 0.877742C113.859 1.43852 114.194 2.16997 114.194 3.07209C114.194 4.02298 113.859 4.81538 113.191 5.44931C112.547 6.05885 111.68 6.36362 110.59 6.36362Z"
        fill="white" />
    <path
        d="M131.756 12.9363C133.341 12.9363 134.752 13.2533 135.991 13.8872C137.254 14.4968 138.244 15.4476 138.962 16.7399C139.68 18.0077 140.04 19.6413 140.04 21.6406V32.9049H134.245V22.5183C134.245 20.9335 133.886 19.7632 133.167 19.0074C132.474 18.2515 131.483 17.8736 130.196 17.8736C129.279 17.8736 128.45 18.0687 127.707 18.4588C126.989 18.8245 126.419 19.3975 125.998 20.1777C125.602 20.9579 125.404 21.9576 125.404 23.1766V32.9049H119.609V13.2289H125.144V18.6782L124.104 17.0325C124.822 15.7158 125.85 14.704 127.187 13.9969C128.524 13.2899 130.047 12.9363 131.756 12.9363Z"
        fill="white" />
    <path
        d="M150.827 28.882L150.976 21.9332L160.3 13.2289H167.209L158.256 22.1892L155.248 24.603L150.827 28.882ZM146.035 32.9049V1.64576H151.83V32.9049H146.035ZM160.931 32.9049L154.17 24.6395L157.811 20.2143L167.952 32.9049H160.931Z"
        fill="white" />
    <path
        d="M180.385 33.1975C178.106 33.1975 176.1 32.7586 174.367 31.8809C172.658 31.0032 171.333 29.8085 170.392 28.2968C169.451 26.7608 168.981 25.0175 168.981 23.0669C168.981 21.092 169.439 19.3487 170.355 17.8371C171.296 16.301 172.571 15.1063 174.181 14.2529C175.791 13.3752 177.611 12.9363 179.642 12.9363C181.598 12.9363 183.356 13.3508 184.916 14.1798C186.501 14.9844 187.752 16.1547 188.668 17.6908C189.585 19.2024 190.043 21.0189 190.043 23.1401C190.043 23.3595 190.03 23.6155 190.006 23.9081C189.981 24.1763 189.956 24.4323 189.931 24.6761H173.698V21.348H186.885L184.656 22.3355C184.656 21.3114 184.446 20.4215 184.025 19.6657C183.604 18.9098 183.022 18.3247 182.279 17.9102C181.536 17.4713 180.669 17.2519 179.679 17.2519C178.688 17.2519 177.809 17.4713 177.041 17.9102C176.298 18.3247 175.716 18.922 175.295 19.7023C174.874 20.4581 174.664 21.3602 174.664 22.4086V23.2864C174.664 24.3592 174.899 25.31 175.37 26.139C175.865 26.9436 176.546 27.5653 177.413 28.0042C178.304 28.4187 179.344 28.6259 180.533 28.6259C181.598 28.6259 182.527 28.4675 183.319 28.1505C184.136 27.8335 184.879 27.3581 185.548 26.7242L188.631 30.0157C187.715 31.0397 186.563 31.8321 185.176 32.3929C183.79 32.9293 182.192 33.1975 180.385 33.1975Z"
        fill="white" />
    <path
        d="M203.225 33.1975C201.342 33.1975 199.646 32.783 198.135 31.9541C196.625 31.1007 195.424 29.9182 194.532 28.4065C193.665 26.8948 193.232 25.115 193.232 23.0669C193.232 20.9945 193.665 19.2024 194.532 17.6908C195.424 16.1791 196.625 15.0088 198.135 14.1798C199.646 13.3508 201.342 12.9363 203.225 12.9363C204.908 12.9363 206.382 13.3021 207.645 14.0335C208.908 14.765 209.886 15.8743 210.58 17.3616C211.273 18.8489 211.62 20.7507 211.62 23.0669C211.62 25.3588 211.285 27.2606 210.617 28.7722C209.948 30.2595 208.982 31.3689 207.719 32.1003C206.481 32.8318 204.983 33.1975 203.225 33.1975ZM204.227 28.5162C205.169 28.5162 206.023 28.2968 206.791 27.8579C207.558 27.4191 208.165 26.7973 208.611 25.9927C209.081 25.1638 209.317 24.1885 209.317 23.0669C209.317 21.921 209.081 20.9457 208.611 20.1411C208.165 19.3365 207.558 18.7148 206.791 18.2759C206.023 17.8371 205.169 17.6176 204.227 17.6176C203.262 17.6176 202.395 17.8371 201.627 18.2759C200.859 18.7148 200.24 19.3365 199.77 20.1411C199.324 20.9457 199.101 21.921 199.101 23.0669C199.101 24.1885 199.324 25.1638 199.77 25.9927C200.24 26.7973 200.859 27.4191 201.627 27.8579C202.395 28.2968 203.262 28.5162 204.227 28.5162ZM209.465 32.9049V28.882L209.577 23.0304L209.205 17.2153V1.64576H215V32.9049H209.465Z"
        fill="white" />
    <path fill-rule="evenodd" clip-rule="evenodd"
        d="M10.8709 32.9051C4.86705 32.9051 0 28.1133 0 22.2023C0 16.2913 4.86705 11.4995 10.8709 11.4995C12.706 11.4995 14.435 11.9472 15.9512 12.7377V1.3534H21.7417V32.9051H15.9512H10.8709ZM15.9512 27.2041V22.2561C15.9512 19.5234 13.7011 17.308 10.9255 17.308C8.14985 17.308 5.89976 19.5234 5.89976 22.2561C5.89976 24.9888 8.14985 27.2041 10.9255 27.2041H15.9512Z"
        fill="white" />
</svg>