<svg width="128" height="24" viewBox="0 0 128 24" fill="none" xmlns="http://www.w3.org/2000/svg">
<g id="droplinked1">
<path d="M31.7929 19.8928C30.5346 19.8928 29.4153 19.6278 28.4351 19.0978C27.4694 18.5679 26.7013 17.8465 26.1307 16.9338C25.5747 16.0064 25.2967 14.9538 25.2967 13.7761C25.2967 12.5837 25.5747 11.5311 26.1307 10.6184C26.7013 9.69098 27.4694 8.96963 28.4351 8.45439C29.4153 7.92443 30.5346 7.65945 31.7929 7.65945C33.0365 7.65945 34.1485 7.92443 35.1288 8.45439C36.1091 8.96963 36.8772 9.68361 37.4332 10.5963C37.9892 11.509 38.2672 12.569 38.2672 13.7761C38.2672 14.9538 37.9892 16.0064 37.4332 16.9338C36.8772 17.8465 36.1091 18.5679 35.1288 19.0978C34.1485 19.6278 33.0365 19.8928 31.7929 19.8928ZM31.7929 17.0663C32.3635 17.0663 32.8756 16.9338 33.3292 16.6688C33.7827 16.4039 34.1412 16.0285 34.4046 15.5427C34.6679 15.0421 34.7996 14.4533 34.7996 13.7761C34.7996 13.0842 34.6679 12.4954 34.4046 12.0096C34.1412 11.5238 33.7827 11.1484 33.3292 10.8834C32.8756 10.6184 32.3635 10.4859 31.7929 10.4859C31.2223 10.4859 30.7102 10.6184 30.2566 10.8834C29.8031 11.1484 29.4373 11.5238 29.1593 12.0096C28.8959 12.4954 28.7643 13.0842 28.7643 13.7761C28.7643 14.4533 28.8959 15.0421 29.1593 15.5427C29.4373 16.0285 29.8031 16.4039 30.2566 16.6688C30.7102 16.9338 31.2223 17.0663 31.7929 17.0663Z" fill="CurrentColor"/>
<path d="M56.5861 19.8928V0.993683H60.0098V19.8928H56.5861Z" fill="CurrentColor"/>
<path d="M63.6262 19.7161V5.49838H67.0499V19.7161H63.6262ZM65.338 3.84224C64.7089 3.84224 64.1968 3.65822 63.8017 3.29019C63.4067 2.92216 63.2092 2.46581 63.2092 1.92112C63.2092 1.37643 63.4067 0.920077 63.8017 0.552047C64.1968 0.184016 64.7089 0 65.338 0C65.9671 0 66.4793 0.176655 66.8743 0.529965C67.2693 0.868554 67.4669 1.31019 67.4669 1.85488C67.4669 2.429 67.2693 2.90744 66.8743 3.29019C66.4939 3.65822 65.9818 3.84224 65.338 3.84224Z" fill="CurrentColor"/>
<path d="M86.2793 19.7161V0.993683H89.7029V12.61V16.7009V19.7161H86.2793Z" fill="CurrentColor"/>
<path fill-rule="evenodd" clip-rule="evenodd" d="M6.42262 19.7163C2.87551 19.7163 0 16.823 0 13.2541C0 9.68511 2.87551 6.79189 6.42262 6.79189C7.50686 6.79189 8.52835 7.06221 9.42415 7.53953V0.81716H12.8452V19.7163H6.42262ZM9.42415 16.2741V13.2865C9.42415 11.6366 8.09477 10.299 6.4549 10.299C4.81502 10.299 3.48564 11.6366 3.48564 13.2865C3.48564 14.9365 4.81502 16.2741 6.4549 16.2741H9.42415Z" fill="CurrentColor"/>
<path d="M16.4554 19.7161V7.8361H19.7255V9.39599C20.0481 8.95339 20.4578 8.59537 20.9545 8.3219C21.73 7.88027 22.6737 7.65945 23.7856 7.65945V10.8392C23.6393 10.8245 23.5076 10.8171 23.3906 10.8171C23.2735 10.8024 23.1492 10.7951 23.0175 10.7951C22.0811 10.7951 21.3203 11.0674 20.735 11.6121C20.1644 12.1421 19.8791 12.9738 19.8791 14.1073V19.7161H16.4554Z" fill="CurrentColor"/>
<path d="M45.3619 19.2303C46.1081 19.672 46.9787 19.8928 47.9736 19.8928C49.0856 19.8928 50.0805 19.6425 50.9583 19.142C51.8508 18.6415 52.5531 17.9349 53.0652 17.0221C53.5919 16.1094 53.8553 15.0274 53.8553 13.7761C53.8553 12.5395 53.5919 11.4649 53.0652 10.5522C52.5531 9.63945 51.8508 8.93283 50.9583 8.43231C50.0805 7.91707 49.0856 7.65945 47.9736 7.65945C46.9348 7.65945 46.0423 7.88027 45.2961 8.3219C44.9037 8.55413 44.7135 8.65059 44.4182 9.00901L44.3743 10.2342V13.7761C44.3743 13.0842 44.506 12.4954 44.7694 12.0096C45.0327 11.5238 45.3912 11.1484 45.8448 10.8834C46.2983 10.6184 46.8104 10.4859 47.381 10.4859C47.9516 10.4859 48.4564 10.6184 48.8953 10.8834C49.3489 11.1484 49.7074 11.5238 49.9707 12.0096C50.2487 12.4954 50.3877 13.0842 50.3877 13.7761C50.3877 14.4533 50.2487 15.0421 49.9707 15.5427C49.7074 16.0285 49.3489 16.4039 48.8953 16.6688C48.4564 16.9338 47.9516 17.0663 47.381 17.0663C46.8104 17.0663 46.2983 16.9338 45.8448 16.6688C45.3912 16.4039 45.0327 16.0285 44.7694 15.5427C44.5227 15.0739 44.3916 14.5275 44.3759 13.9038L44.4182 17.3092V18.4583C44.6974 18.7659 45.012 19.0232 45.3619 19.2303Z" fill="CurrentColor"/>
<path fill-rule="evenodd" clip-rule="evenodd" d="M40.9946 7.8361V24H44.4182V18.4583V17.3092L44.3759 13.9038C44.3749 13.8616 44.3743 13.819 44.3743 13.7761V10.2342L44.4182 9.00901V7.8361H40.9946Z" fill="CurrentColor"/>
<path d="M77.8428 7.65945C78.7792 7.65945 79.6132 7.85082 80.3447 8.23357C81.0909 8.6016 81.6762 9.17573 82.1005 9.95596C82.5248 10.7215 82.7369 11.7078 82.7369 12.9149V19.7161H79.3132V13.4449C79.3132 12.488 79.1011 11.7814 78.6768 11.325C78.2671 10.8687 77.6819 10.6405 76.9211 10.6405C76.3797 10.6405 75.8896 10.7583 75.4506 10.9938C75.0263 11.2146 74.6898 11.5606 74.4411 12.0317C74.207 12.5027 74.0899 13.1063 74.0899 13.8424V19.7161H70.6663V7.8361H73.9363V9.24722C74.2751 8.86741 74.6774 8.55161 75.1434 8.29982C75.9335 7.87291 76.8333 7.65945 77.8428 7.65945Z" fill="CurrentColor"/>
<path d="M98.7888 7.8361H94.7067L89.7029 12.61V16.7009L91.4097 15.1307L93.8714 12.8659L98.7888 7.8361Z" fill="CurrentColor"/>
<path d="M95.0798 19.7161H99.2278L93.8714 12.8659L91.4097 15.1307L95.0798 19.7161Z" fill="CurrentColor"/>
<path d="M103.018 19.0978C104.042 19.6278 105.227 19.8928 106.573 19.8928C107.641 19.8928 108.585 19.7309 109.404 19.407C110.224 19.0684 110.904 18.59 111.445 17.9717L109.624 15.9843C109.229 16.3671 108.79 16.6541 108.307 16.8455C107.839 17.0369 107.29 17.1326 106.661 17.1326C105.959 17.1326 105.344 17.0074 104.817 16.7572C104.305 16.4922 103.903 16.1168 103.61 15.631C103.459 15.3584 103.349 15.064 103.28 14.7477C103.222 14.4833 103.193 14.2036 103.193 13.9086V13.3786C103.193 13.1541 103.209 12.9406 103.24 12.7383C103.297 12.3703 103.406 12.039 103.567 11.7446C103.815 11.2735 104.159 10.9128 104.598 10.6626C105.052 10.3976 105.571 10.2651 106.156 10.2651C106.741 10.2651 107.254 10.3976 107.692 10.6626C108.131 10.9128 108.475 11.2661 108.724 11.7225C108.889 12.0254 108.999 12.364 109.055 12.7383H103.24C103.209 12.9406 103.193 13.1541 103.193 13.3786V13.9086C103.193 14.2036 103.222 14.4833 103.28 14.7477H112.213C112.228 14.6005 112.243 14.4459 112.257 14.284C112.272 14.1073 112.279 13.9528 112.279 13.8203C112.279 12.5395 112.009 11.4428 111.467 10.5301C110.926 9.60265 110.187 8.89603 109.251 8.41023C108.329 7.90971 107.29 7.65945 106.134 7.65945C104.935 7.65945 103.859 7.92443 102.908 8.45439C101.957 8.96963 101.204 9.69098 100.648 10.6184C100.106 11.5311 99.8356 12.5837 99.8356 13.7761C99.8356 14.9538 100.114 16.0064 100.67 16.9338C101.226 17.8465 102.008 18.5679 103.018 19.0978Z" fill="CurrentColor"/>
<path fill-rule="evenodd" clip-rule="evenodd" d="M117.061 19.142C117.953 19.6425 118.955 19.8928 120.067 19.8928C121.106 19.8928 121.991 19.672 122.723 19.2303C123.107 19.0032 123.444 18.7157 123.735 18.3678L123.601 9.07493C123.329 8.77577 123.022 8.52477 122.679 8.3219C121.933 7.88027 121.062 7.65945 120.067 7.65945C118.955 7.65945 117.953 7.90971 117.061 8.41023C116.168 8.91075 115.458 9.61737 114.932 10.5301C114.42 11.4428 114.164 12.5248 114.164 13.7761C114.164 15.0127 114.42 16.0873 114.932 17.0001C115.458 17.9128 116.168 18.6268 117.061 19.142ZM122.174 16.6688C121.721 16.9338 121.216 17.0663 120.66 17.0663C120.089 17.0663 119.577 16.9338 119.124 16.6688C118.67 16.4039 118.304 16.0285 118.026 15.5427C117.763 15.0421 117.631 14.4533 117.631 13.7761C117.631 13.0842 117.763 12.4954 118.026 12.0096C118.304 11.5238 118.67 11.1484 119.124 10.8834C119.577 10.6184 120.089 10.4859 120.66 10.4859C121.216 10.4859 121.721 10.6184 122.174 10.8834C122.628 11.1484 122.986 11.5238 123.25 12.0096C123.528 12.4954 123.667 13.0842 123.667 13.7761C123.667 14.4533 123.528 15.0421 123.25 15.5427C122.986 16.0285 122.628 16.4039 122.174 16.6688Z" fill="CurrentColor"/>
<path d="M127.024 0.993683H123.601V9.07493L123.735 18.3678L123.754 19.7161H127.024V0.993683Z" fill="CurrentColor"/>
</g>
</svg>
