<svg xmlns="http://www.w3.org/2000/svg" width="16" height="16" viewBox="0 0 16 16" fill="none">
  <g clip-path="url(#clip0_22200_49183)">
    <path d="M7.3335 2.66617H4.5335C3.41339 2.66617 2.85334 2.66617 2.42552 2.88415C2.04919 3.0759 1.74323 3.38186 1.55148 3.75819C1.3335 4.18601 1.3335 4.74606 1.3335 5.86617V11.4662C1.3335 12.5863 1.3335 13.1463 1.55148 13.5741C1.74323 13.9505 2.04919 14.2564 2.42552 14.4482C2.85334 14.6662 3.41339 14.6662 4.5335 14.6662H10.1335C11.2536 14.6662 11.8137 14.6662 12.2415 14.4482C12.6178 14.2564 12.9238 13.9505 13.1155 13.5741C13.3335 13.1463 13.3335 12.5863 13.3335 11.4662V8.66617M5.33348 10.6662H6.44984C6.77596 10.6662 6.93902 10.6662 7.09247 10.6293C7.22852 10.5967 7.35858 10.5428 7.47788 10.4697C7.61243 10.3872 7.72773 10.2719 7.95833 10.0413L14.3335 3.66617C14.8858 3.11388 14.8858 2.21845 14.3335 1.66617C13.7812 1.11388 12.8858 1.11388 12.3335 1.66617L5.95832 8.04133C5.72772 8.27193 5.61241 8.38723 5.52996 8.52179C5.45685 8.64108 5.40298 8.77114 5.37032 8.90719C5.33348 9.06064 5.33348 9.2237 5.33348 9.54982V10.6662Z" stroke="white" stroke-width="1.5" stroke-linecap="round" stroke-linejoin="round"/>
  </g>
  <defs>
    <clipPath id="clip0_22200_49183">
      <rect width="16" height="16" fill="white" transform="translate(0 -0.000488281)"/>
    </clipPath>
  </defs>
</svg>