<svg xmlns="http://www.w3.org/2000/svg" width="21" height="20" viewBox="0 0 21 20" fill="none">
  <path d="M9.87726 13.7525C9.87726 13.6517 9.87726 13.551 9.87726 13.4498C9.87726 12.8701 9.8757 12.2908 9.87804 11.7111C9.87961 11.3135 10.1417 11.0416 10.512 11.0459C10.8698 11.0502 11.1257 11.3236 11.1269 11.7119C11.1292 12.3306 11.1277 12.949 11.1277 13.5678C11.1277 13.6299 11.1277 13.6916 11.1277 13.7537C11.139 13.756 11.1503 13.758 11.1612 13.7603C11.1964 13.7017 11.2331 13.6443 11.2663 13.5849C11.9202 12.408 12.5734 11.2306 13.2269 10.0537C13.4589 9.63611 13.6987 9.5283 14.1445 9.68689C16.6234 10.5693 18.1331 12.3002 18.5402 14.9025C18.6796 15.7943 18.6359 16.7209 18.6152 17.6299C18.598 18.3654 17.9644 18.9244 17.2234 18.9537C17.1714 18.9556 17.1191 18.9564 17.0671 18.9564C12.6905 18.9564 8.31437 18.9568 3.93781 18.956C3.1882 18.956 2.63195 18.5701 2.43859 17.9162C2.40734 17.8111 2.37922 17.6994 2.38 17.5912C2.38508 16.7974 2.3382 15.997 2.41945 15.2107C2.65656 12.9127 3.83273 11.2154 5.85539 10.1099C6.1839 9.93064 6.54328 9.80291 6.89757 9.67635C7.29367 9.53533 7.55383 9.64783 7.75969 10.0185C8.42023 11.2068 9.07883 12.3959 9.7382 13.5842C9.7714 13.6435 9.80812 13.701 9.84328 13.7595C9.85461 13.7572 9.86593 13.7549 9.87726 13.7525ZM14.6609 15.6256C14.9277 15.6256 15.1941 15.6256 15.4609 15.6256C15.4675 15.6256 15.4737 15.6256 15.4804 15.6256C15.8484 15.6178 16.1234 15.356 16.1284 15.0095C16.1335 14.6549 15.855 14.3791 15.4792 14.3763C14.9394 14.3728 14.3995 14.3724 13.8597 14.3763C13.4905 14.3791 13.2171 14.642 13.2101 14.9904C13.203 15.3404 13.4866 15.6193 13.8609 15.6244C14.1277 15.6283 14.3945 15.6256 14.6609 15.6256Z" fill="#C2C2C2"/>
  <path d="M5.92188 5.62031C5.92383 3.08321 7.96914 1.04063 10.5055 1.04297C13.0438 1.04531 15.0852 3.08906 15.0836 5.62578C15.0816 8.1625 13.0363 10.2059 10.5004 10.2035C7.96328 10.2016 5.91992 8.15586 5.92188 5.62031Z" fill="#C2C2C2"/>
</svg>