<svg xmlns="http://www.w3.org/2000/svg" width="21" height="20" viewBox="0 0 21 20" fill="none">
  <path d="M17.8361 19.1391C12.9009 19.1391 7.96578 19.1391 3.03062 19.1391C2.95093 19.1199 2.87046 19.1043 2.79234 19.0812C2.00953 18.8523 1.57124 18.2559 1.57124 17.4055C1.57007 13.1859 1.5689 8.96641 1.57515 4.74727C1.57554 4.52734 1.61382 4.29883 1.68023 4.08906C1.87007 3.48828 2.53726 3.02031 3.14312 3.04883C3.14312 3.11172 3.14312 3.17578 3.14312 3.23984C3.14312 3.87734 3.14077 4.51445 3.14351 5.15195C3.14859 6.21406 3.90054 6.9832 4.96187 7.00859C5.32749 7.01719 5.6939 7.01797 6.05953 7.0082C7.1271 6.98008 7.87945 6.20391 7.88179 5.13516C7.88296 4.49766 7.88218 3.86055 7.88218 3.22305C7.88218 3.16016 7.88218 3.09766 7.88218 3.03438C9.59429 3.03438 11.2841 3.03438 12.9849 3.03438C12.9849 3.73711 12.9841 4.42695 12.9849 5.11641C12.9861 6.22188 13.7537 6.99766 14.8595 7.00937C15.1959 7.01289 15.5326 7.01328 15.8689 7.00937C16.9576 6.9957 17.7205 6.22422 17.7236 5.13477C17.7255 4.49727 17.724 3.86016 17.724 3.22266C17.724 3.16016 17.724 3.09805 17.724 2.98828C17.9775 3.07031 18.2084 3.11172 18.4072 3.21562C19.0337 3.54297 19.299 4.0832 19.2986 4.78203C19.2947 8.97773 19.2966 13.1738 19.2962 17.3695C19.2962 17.4699 19.2947 17.5707 19.2845 17.6699C19.2408 18.093 19.0544 18.4422 18.74 18.7285C18.481 18.9633 18.1685 19.0711 17.8361 19.1391ZM10.4216 9.36328C8.43257 9.36328 6.44351 9.36289 4.45445 9.36328C3.91226 9.36328 3.63804 9.63672 3.63804 10.1801C3.63726 12.3164 3.63726 14.4527 3.63804 16.5891C3.63804 17.1312 3.91265 17.4047 4.45562 17.4051C8.42788 17.4055 12.4002 17.4055 16.3724 17.4051C16.9263 17.4051 17.1962 17.1344 17.1962 16.5789C17.1966 14.4484 17.1966 12.318 17.1962 10.1879C17.1962 9.63281 16.9267 9.36367 16.3709 9.36367C14.388 9.36289 12.4048 9.36328 10.4216 9.36328Z" fill="#C2C2C2"/>
  <path d="M14.1596 3.41711C14.1596 2.85696 14.1589 2.29641 14.1596 1.73625C14.1604 1.24719 14.3991 1.00891 14.887 1.00852C15.2053 1.00813 15.5241 1.00696 15.8424 1.00891C16.2608 1.01164 16.5139 1.25891 16.5159 1.68274C16.5202 2.60891 16.5174 3.53469 16.5174 4.46086C16.5174 4.6968 16.5214 4.93274 16.5163 5.16867C16.5073 5.58547 16.2651 5.82649 15.8518 5.83078C15.5096 5.8343 15.1674 5.8343 14.8253 5.83078C14.4116 5.82649 14.1647 5.5843 14.1608 5.16907C14.1557 4.58469 14.1596 4.00071 14.1596 3.41711Z" fill="#C2C2C2"/>
  <path d="M6.67506 3.42051C6.67506 3.98691 6.67584 4.55293 6.67467 5.11934C6.67389 5.5916 6.43873 5.8291 5.97116 5.83145C5.65866 5.83301 5.34577 5.83262 5.03327 5.83145C4.55202 5.82949 4.32116 5.59824 4.31959 5.11231C4.31764 4.4459 4.3192 3.77949 4.3192 3.1127C4.3192 2.64668 4.31686 2.18066 4.31998 1.71465C4.32311 1.2459 4.56334 1.00957 5.03209 1.0084C5.34459 1.00762 5.65748 1.00762 5.96998 1.0084C6.43287 1.00957 6.67428 1.25332 6.67506 1.72168C6.67584 2.28809 6.67506 2.85449 6.67506 3.42051Z" fill="#C2C2C2"/>
  <path d="M10.4418 10.6027C10.6602 10.6027 10.8785 10.5996 11.0965 10.6035C11.3941 10.6086 11.5582 10.7652 11.5625 11.0629C11.5688 11.5051 11.5676 11.9477 11.5629 12.3899C11.5598 12.6824 11.4113 12.8492 11.1227 12.857C10.6629 12.8695 10.2023 12.8695 9.74258 12.857C9.45391 12.8492 9.30586 12.682 9.30274 12.3895C9.29805 11.9473 9.29688 11.5047 9.30313 11.0625C9.30743 10.7656 9.47188 10.6086 9.76954 10.6039C9.99336 10.6 10.2176 10.6027 10.4418 10.6027Z" fill="#C2C2C2"/>
  <path d="M11.5643 15.3275C11.5643 15.5459 11.5686 15.7642 11.5631 15.9822C11.5557 16.2794 11.3956 16.4423 11.0999 16.4459C10.6577 16.4509 10.2151 16.4505 9.77251 16.4462C9.46821 16.4431 9.30532 16.2791 9.3022 15.9716C9.2979 15.5353 9.29751 15.0986 9.3022 14.6623C9.30532 14.3576 9.46821 14.1923 9.77446 14.188C10.2108 14.1818 10.6475 14.1826 11.0838 14.1876C11.3983 14.1916 11.5588 14.3576 11.5635 14.6732C11.567 14.8908 11.5643 15.1091 11.5643 15.3275Z" fill="#C2C2C2"/>
  <path d="M6.84863 10.603C7.07285 10.603 7.29707 10.5991 7.5209 10.6042C7.7959 10.61 7.95996 10.7507 7.96738 11.0241C7.98066 11.4952 7.97988 11.9675 7.96738 12.4389C7.96035 12.6979 7.81543 12.8467 7.55488 12.855C7.08379 12.8698 6.61113 12.8702 6.14004 12.8561C5.85879 12.8475 5.72012 12.6819 5.71777 12.3936C5.71387 11.9514 5.71387 11.5092 5.71777 11.0671C5.72051 10.7643 5.87598 10.6096 6.17598 10.6038C6.40059 10.5999 6.6248 10.603 6.84863 10.603Z" fill="#C2C2C2"/>
  <path d="M14.0349 10.6032C14.2591 10.6032 14.4833 10.5989 14.7071 10.6043C14.9876 10.6114 15.1446 10.7664 15.1478 11.0485C15.1532 11.5024 15.1532 11.9567 15.1478 12.4106C15.1446 12.6852 15.0028 12.8477 14.7271 12.8559C14.2618 12.8704 13.795 12.8696 13.3298 12.8571C13.0466 12.8493 12.9013 12.6926 12.8954 12.4047C12.8864 11.9567 12.8864 11.5082 12.8954 11.0606C12.9017 10.7516 13.0646 10.6071 13.3802 10.6039C13.5985 10.6012 13.8169 10.6032 14.0349 10.6032Z" fill="#C2C2C2"/>
  <path d="M6.83535 16.4489C6.61699 16.4489 6.39902 16.4524 6.18066 16.4481C5.87949 16.4423 5.7209 16.2868 5.71816 15.988C5.71387 15.5399 5.71348 15.0915 5.71855 14.6435C5.72168 14.3634 5.87324 14.1978 6.15332 14.1915C6.61309 14.181 7.07363 14.181 7.5334 14.1915C7.80645 14.1978 7.96231 14.3509 7.96934 14.6243C7.98106 15.0841 7.98066 15.5442 7.97051 16.004C7.96387 16.295 7.80059 16.4419 7.5084 16.4478C7.28379 16.4528 7.05957 16.4489 6.83535 16.4489Z" fill="#C2C2C2"/>
  <path d="M15.149 15.3187C15.149 15.5429 15.1525 15.7671 15.1482 15.991C15.1424 16.2804 14.9873 16.4421 14.6994 16.4464C14.2514 16.4527 13.8029 16.4519 13.3549 16.4468C13.0646 16.4437 12.9025 16.2917 12.8963 16C12.8861 15.546 12.8861 15.0917 12.8963 14.6378C12.9029 14.3476 13.0631 14.1945 13.3549 14.1894C13.8029 14.182 14.2514 14.1812 14.6994 14.1898C14.99 14.1953 15.1396 14.3582 15.1494 14.6464C15.1498 14.6582 15.1498 14.6699 15.1498 14.682C15.149 14.8945 15.149 15.1066 15.149 15.3187Z" fill="#C2C2C2"/>
</svg>