<svg xmlns="http://www.w3.org/2000/svg" width="21" height="20" viewBox="0 0 21 20" fill="none">
  <path d="M9.64811 19.5319C9.37116 19.5081 9.09421 19.4831 8.81686 19.4608C7.48952 19.3553 6.18288 19.1413 4.91843 18.7124C4.21647 18.4741 3.53327 18.1866 2.96882 17.6948C2.72038 17.4784 2.48679 17.2202 2.3239 16.937C1.96413 16.3116 2.09069 15.5917 2.60749 15.0131C3.13054 14.428 3.80163 14.0686 4.52194 13.8006C4.99694 13.6237 5.49147 13.4999 5.9739 13.3413C6.10241 13.2991 6.15827 13.3362 6.22507 13.4413C7.11491 14.8378 8.011 16.2307 8.90241 17.6264C9.2403 18.1557 9.70475 18.4838 10.3391 18.5346C11.0227 18.5893 11.5958 18.3526 11.986 17.7878C12.4579 17.1042 12.8915 16.394 13.3403 15.6944C13.8192 14.9479 14.3001 14.2026 14.7712 13.451C14.8489 13.3272 14.9188 13.3089 15.0544 13.3448C15.8891 13.5659 16.7106 13.821 17.461 14.2616C17.8872 14.512 18.2743 14.8081 18.5622 15.2182C19.0411 15.9003 18.9747 16.7385 18.4087 17.3534C17.9262 17.878 17.3266 18.2178 16.6813 18.4878C15.5044 18.9796 14.2669 19.2299 13.0071 19.3788C12.5145 19.437 12.0184 19.4608 11.5239 19.5018C11.4692 19.5065 11.4157 19.5213 11.3614 19.5319C10.7907 19.5319 10.2192 19.5319 9.64811 19.5319Z" fill="#C2C2C2"/>
  <path d="M4.35814 6.62785C4.41088 4.85598 4.99408 3.44114 6.14486 2.27903C7.09877 1.31574 8.25736 0.730979 9.60346 0.535276C11.148 0.310276 12.582 0.623948 13.8804 1.48215C15.2019 2.35559 16.0738 3.5716 16.4562 5.11262C16.8808 6.82434 16.6167 8.43957 15.6675 9.92746C14.1402 12.3228 12.6003 14.7099 11.0656 17.1005C11.0355 17.1474 11.0074 17.1962 10.9746 17.2411C10.723 17.5853 10.2788 17.5888 10.0347 17.2404C9.864 16.997 9.71049 16.7411 9.54994 16.4904C8.13783 14.2864 6.72221 12.0849 5.31478 9.87785C4.65736 8.84699 4.34018 7.71496 4.35814 6.62785ZM13.2972 6.60598C13.2968 5.06887 12.0359 3.81028 10.4992 3.8134C8.96869 3.81653 7.71674 5.06731 7.71127 6.59778C7.7058 8.13449 8.96283 9.39699 10.5003 9.39973C12.0371 9.40207 13.2976 8.14309 13.2972 6.60598Z" fill="#C2C2C2"/>
</svg>