<svg width="19" height="19" viewBox="0 0 19 19" fill="none" xmlns="http://www.w3.org/2000/svg">
<path fill-rule="evenodd" clip-rule="evenodd" d="M9.5 4.5H14C14.2761 4.5 14.5 4.72386 14.5 5V9.5C14.5 9.77614 14.2761 10 14 10C13.7239 10 13.5 9.77614 13.5 9.5V6.20711L9.35355 10.3536C9.15829 10.5488 8.84171 10.5488 8.64645 10.3536C8.45118 10.1583 8.45118 9.84171 8.64645 9.64645L12.7929 5.5H9.5C9.22386 5.5 9 5.27614 9 5C9 4.72386 9.22386 4.5 9.5 4.5Z" fill="white" stroke="white" stroke-width="0.5" stroke-linejoin="round"/>
<path fill-rule="evenodd" clip-rule="evenodd" d="M5 13.5H2C1.72386 13.5 1.5 13.7239 1.5 14V17C1.5 17.2761 1.72386 17.5 2 17.5H5C5.27614 17.5 5.5 17.2761 5.5 17V14C5.5 13.7239 5.27614 13.5 5 13.5ZM2 12C0.895431 12 0 12.8954 0 14V17C0 18.1046 0.89543 19 2 19H5C6.10457 19 7 18.1046 7 17V14C7 12.8954 6.10457 12 5 12H2Z" fill="white"/>
<path fill-rule="evenodd" clip-rule="evenodd" d="M3 2.25C2.30964 2.25 1.75 2.80964 1.75 3.5V9.5H0.25V3.5C0.25 1.98122 1.48122 0.75 3 0.75H15.5C17.0188 0.75 18.25 1.98122 18.25 3.5V16C18.25 17.5188 17.0188 18.75 15.5 18.75H9V17.25H15.5C16.1904 17.25 16.75 16.6904 16.75 16V3.5C16.75 2.80964 16.1904 2.25 15.5 2.25H3Z" fill="white"/>
</svg>
