<svg width="24" height="24" viewBox="0 0 24 24" fill="none" xmlns="http://www.w3.org/2000/svg">
    <path opacity="0.25"
        d="M2 7C2 4.23858 4.23858 2 7 2H17C19.7614 2 22 4.23858 22 7V17C22 19.7614 19.7614 22 17 22H7C4.23858 22 2 19.7614 2 17V7Z"
        fill="black" />
    <path fill-rule="evenodd" clip-rule="evenodd"
        d="M22.0002 16.01V17.0001C22.0002 19.7616 19.7616 22.0001 17.0002 22.0001H7.00022C4.55176 22.0001 2.51435 20.2402 2.08398 17.9164L2.4417 17.5587C2.48065 17.5197 2.52275 17.484 2.56757 17.452L4.75942 15.8864C5.47543 15.375 6.45625 15.4562 7.07844 16.0784L8.15169 17.1516C8.62032 17.6202 9.38012 17.6202 9.84875 17.1516L14.8379 12.1625C15.4962 11.5042 16.5478 11.4565 17.263 12.0525L21.9105 15.9254C21.9421 15.9517 21.9721 15.98 22.0002 16.01Z"
        fill="black" />
    <path
        d="M8 10C6.89543 10 6 9.10457 6 8C6 6.89543 6.89543 6 8 6C9.10457 6 10 6.89543 10 8C10 9.10457 9.10457 10 8 10Z"
        fill="black" />
</svg>