<svg width="14" height="15" viewBox="0 0 14 15" fill="none" xmlns="http://www.w3.org/2000/svg">
<path d="M4.89583 7.13542H9.39583C9.67198 7.13542 9.89583 7.36394 9.89583 7.64583V10.4531C9.89583 10.735 9.67198 10.9635 9.39583 10.9635H4.89583C4.61969 10.9635 4.39583 10.735 4.39583 10.4531V7.64583C4.39583 7.36394 4.61969 7.13542 4.89583 7.13542Z" fill="#2EC99E"/>
<path d="M7.14583 4.32812C7.83619 4.32812 8.39583 4.89943 8.39583 5.60417V6.36979H5.89583V5.60417C5.89583 4.89943 6.45548 4.32812 7.14583 4.32812Z" fill="#2EC99E"/>
<path fill-rule="evenodd" clip-rule="evenodd" d="M0 7.5C0 3.62162 3.12162 0.5 6.99999 0.5C10.8784 0.5 14 3.71622 14 7.5946V14.5H6.99999C3.12162 14.5 0 11.3784 0 7.5ZM4.89583 6.36979C4.20548 6.36979 3.64583 6.94109 3.64583 7.64583V10.4531C3.64583 11.1579 4.20548 11.7292 4.89583 11.7292H9.39583C10.0862 11.7292 10.6458 11.1579 10.6458 10.4531V7.64583C10.6458 6.94109 10.0862 6.36979 9.39583 6.36979H9.14583V5.60417C9.14583 4.47659 8.2504 3.5625 7.14583 3.5625C6.04126 3.5625 5.14583 4.47659 5.14583 5.60417V6.36979H4.89583Z" fill="#2EC99E"/>
</svg>
