<svg width="34" height="34" viewBox="0 0 34 34" fill="none" xmlns="http://www.w3.org/2000/svg">
<g clip-path="url(#clip0_8710_16597)">
<path fill-rule="evenodd" clip-rule="evenodd" d="M17.5012 5.83359L5.83394 17.5009C5.24816 18.0866 5.24816 19.0364 5.83394 19.6222L14.3192 28.1075C14.905 28.6932 15.8548 28.6932 16.4405 28.1075L28.1078 16.4402C28.6936 15.8544 28.6936 14.9047 28.1078 14.3189L19.6225 5.83359C19.0367 5.24781 18.087 5.24781 17.5012 5.83359ZM4.24295 15.9099L15.9102 4.2426C17.3747 2.77814 19.749 2.77814 21.2135 4.2426L29.6988 12.7279C31.1633 14.1924 31.1633 16.5667 29.6988 18.0312L18.0315 29.6984C16.5671 31.1629 14.1927 31.1629 12.7282 29.6984L4.24295 21.2132C2.77849 19.7487 2.77849 17.3743 4.24295 15.9099Z" fill="#808080"/>
<path fill-rule="evenodd" clip-rule="evenodd" d="M20.4173 26.2515L7.68934 13.5236L8.75 12.4629L21.4779 25.1908L20.4173 26.2515Z" fill="#808080"/>
<path fill-rule="evenodd" clip-rule="evenodd" d="M25.1904 8.22047L8.21984 25.191L7.15918 24.1304L24.1297 7.15981L25.1904 8.22047Z" fill="#808080"/>
<path fill-rule="evenodd" clip-rule="evenodd" d="M9.07267 19.086C9.04116 18.4654 9.51866 17.9369 10.1392 17.9054L18.4742 17.4822C18.6973 17.4709 18.7987 17.7564 18.6185 17.8884L17.7959 18.491C17.6627 18.5887 17.6766 18.7918 17.8219 18.8704L18.6331 19.3093C18.8332 19.4175 18.7647 19.7203 18.5375 19.7319L10.2533 20.1525C9.63274 20.184 9.10417 19.7065 9.07267 19.086Z" fill="#808080"/>
<path fill-rule="evenodd" clip-rule="evenodd" d="M13.4041 23.2608C13.2817 23.451 12.9867 23.3619 12.99 23.1357L13.1103 14.8249C13.1193 14.2036 13.6303 13.7073 14.2515 13.7163C14.8728 13.7253 15.3691 14.2362 15.3601 14.8575L15.2384 23.2642C15.2352 23.4819 14.9555 23.5686 14.8298 23.3909L14.2319 22.5463C14.1398 22.4162 13.9454 22.4204 13.8591 22.5544L13.4041 23.2608Z" fill="#808080"/>
</g>
<defs>
<clipPath id="clip0_8710_16597">
<rect width="24" height="24" fill="white" transform="translate(0 16.9707) rotate(-45)"/>
</clipPath>
</defs>
</svg>
