<svg width="16" height="16" viewBox="0 0 16 16" fill="none" xmlns="http://www.w3.org/2000/svg">
<path d="M7.51338 2.94142C7.66772 2.59516 7.74492 2.42204 7.85239 2.36872C7.94572 2.3224 8.05532 2.3224 8.14865 2.36872C8.25612 2.42204 8.33332 2.59516 8.48765 2.94142L9.71698 5.69937C9.76265 5.80173 9.78545 5.85291 9.82078 5.8921C9.85198 5.92678 9.89018 5.95452 9.93278 5.97351C9.98098 5.99498 10.0367 6.00086 10.1482 6.01262L13.151 6.32956C13.528 6.36934 13.7165 6.38924 13.8005 6.47496C13.8733 6.54942 13.9072 6.65369 13.892 6.75678C13.8745 6.87545 13.7337 7.00232 13.4521 7.25612L11.209 9.27758C11.1258 9.35258 11.0841 9.39012 11.0578 9.43578C11.0345 9.47625 11.0199 9.52112 11.015 9.56752C11.0095 9.61998 11.0211 9.67478 11.0443 9.78445L11.6709 12.7383C11.7495 13.1091 11.7889 13.2945 11.7333 13.4008C11.6849 13.4932 11.5963 13.5576 11.4935 13.575C11.3753 13.595 11.2111 13.5003 10.8827 13.3109L8.26698 11.8023C8.16992 11.7463 8.12138 11.7183 8.06978 11.7073C8.02412 11.6977 7.97692 11.6977 7.93125 11.7073C7.87965 11.7183 7.83112 11.7463 7.73405 11.8023L5.1184 13.3109C4.79001 13.5003 4.62582 13.595 4.50754 13.575C4.4048 13.5576 4.31611 13.4932 4.26782 13.4008C4.21222 13.2945 4.25155 13.1091 4.33021 12.7383L4.95672 9.78445C4.97997 9.67478 4.9916 9.61998 4.98608 9.56752C4.98119 9.52112 4.96661 9.47625 4.94328 9.43578C4.91691 9.39012 4.87528 9.35258 4.79204 9.27758L2.54896 7.25612C2.26735 7.00232 2.12654 6.87545 2.10904 6.75678C2.09384 6.65369 2.12771 6.54942 2.2006 6.47496C2.28452 6.38924 2.47302 6.36934 2.85002 6.32956L5.85288 6.01262C5.96434 6.00086 6.02006 5.99498 6.06824 5.97351C6.11088 5.95452 6.14905 5.92678 6.18029 5.8921C6.21559 5.85291 6.2384 5.80173 6.28404 5.69937L7.51338 2.94142Z" fill="#FFD951" stroke="#FFD951" stroke-linecap="round" stroke-linejoin="round"/>
</svg>
