<svg width="24" height="24" viewBox="0 0 24 24" fill="none" xmlns="http://www.w3.org/2000/svg">
<path d="M21.1428 13.1428V16.5714C21.1428 18.0571 17.5611 20 13.1428 20C8.72454 20 5.14282 18.0571 5.14282 16.5714V13.7143" stroke="white" stroke-width="2" stroke-linecap="round" stroke-linejoin="round"/>
<path d="M5.47876 14.0104C6.46733 15.3224 9.52447 16.5532 13.1428 16.5532C17.561 16.5532 21.1428 14.7178 21.1428 13.1407C21.1428 12.2549 20.0148 11.2847 18.2445 10.6035" stroke="white" stroke-width="2" stroke-linecap="round" stroke-linejoin="round"/>
<path d="M17.7144 7.42847V10.857C17.7144 12.3428 14.1326 14.2856 9.71436 14.2856C5.29607 14.2856 1.71436 12.3428 1.71436 10.857V7.42847" stroke="white" stroke-width="2" stroke-linecap="round" stroke-linejoin="round"/>
<path fill-rule="evenodd" clip-rule="evenodd" d="M9.71436 10.8389C14.1326 10.8389 17.7144 9.00343 17.7144 7.42629C17.7144 5.84914 14.1326 4 9.71436 4C5.29607 4 1.71436 5.848 1.71436 7.42629C1.71436 9.00343 5.29607 10.8389 9.71436 10.8389Z" stroke="white" stroke-width="2" stroke-linecap="round" stroke-linejoin="round"/>
</svg>
