<svg width="26" height="24" viewBox="0 0 26 24" fill="none" xmlns="http://www.w3.org/2000/svg">
<path d="M8.20871 0C9.27454 3.08189 10.3367 6.16503 11.4123 9.24379C11.5 9.49393 11.4743 9.62119 11.259 9.78419C10.444 10.4036 10.1037 11.2643 10.1809 12.4442C6.95707 13.4861 3.72524 14.5311 0.43455 15.595C0.348081 15.1668 0.256094 14.76 0.186797 14.3493C0.112594 13.913 0.0610808 13.4723 -0.000244141 13.0335C-0.000244141 12.631 -0.000244141 12.2279 -0.000244141 11.8254C2.49507 11.0248 4.98976 10.2243 7.49795 9.41995C7.46668 9.31651 7.44828 9.2463 7.42498 9.17796C6.69398 7.05148 5.9636 4.92438 5.23016 2.79853C4.91495 1.88449 4.89287 1.85377 5.69684 1.35663C6.491 0.867017 7.32808 0.449495 8.14677 0C8.16762 0 8.18847 0 8.20871 0Z" fill="white"/>
<path d="M21.6076 21.9035C20.689 22.7467 19.6937 23.4062 18.6119 23.9291C18.5438 23.9617 18.393 23.9109 18.3316 23.8476C16.8641 22.338 15.404 20.8215 13.9426 19.3056C13.6452 18.9972 13.3502 18.6856 13.0884 18.4116C12.4457 19.0417 11.8146 19.6366 11.2087 20.2579C10.0313 21.4653 8.87043 22.689 7.69483 23.8977C7.62737 23.9673 7.46486 24.0243 7.39066 23.9892C6.30214 23.4808 5.30929 22.82 4.38696 21.9875C4.87388 21.4785 5.34854 20.9813 5.82442 20.4861C7.66049 18.5752 9.49901 16.6663 11.3302 14.7511C11.4994 14.5743 11.6251 14.5078 11.8772 14.6238C12.6664 14.9874 13.468 14.9542 14.2492 14.5756C14.3995 14.5028 14.4958 14.4928 14.6245 14.6276C16.9095 17.008 19.2 19.3827 21.4886 21.7593C21.5242 21.7963 21.5536 21.8383 21.6064 21.9041L21.6076 21.9035Z" fill="white"/>
<path d="M17.9737 0.076416C19.1156 0.544091 20.1471 1.15909 21.0872 1.93207C21.1448 1.97971 21.1663 2.13832 21.1375 2.2217C20.4003 4.35696 19.6546 6.48971 18.9101 8.62245C18.8163 8.8914 18.7243 9.16034 18.6207 9.46C18.7194 9.50075 18.8089 9.54464 18.9022 9.57473C21.1632 10.3007 23.423 11.0292 25.6878 11.742C25.9337 11.8191 26.003 11.9256 25.9999 12.1814C25.9852 13.3374 25.7755 14.8884 25.5013 15.6257C22.2707 14.5888 19.0383 13.5506 15.8108 12.5149C15.8108 12.3808 15.8083 12.2767 15.8108 12.172C15.8353 11.2323 15.4986 10.4562 14.7934 9.85559C14.6597 9.74149 14.6002 9.65999 14.6695 9.46502C15.7384 6.42827 16.7969 3.38775 17.8584 0.348495C17.8885 0.261981 17.9302 0.179229 17.9737 0.0770429V0.076416Z" fill="white"/>
<ellipse cx="12.9699" cy="12.068" rx="1.44114" ry="1.47324" fill="white"/>
</svg>
