<svg width="21" height="21" viewBox="0 0 21 21" fill="none" xmlns="http://www.w3.org/2000/svg">
<path d="M20.16 0H0.84C0.375375 0 0 0.375375 0 0.84V20.16C0 20.6246 0.375375 21 0.84 21H20.16C20.6246 21 21 20.6246 21 20.16V0.84C21 0.375375 20.6246 0 20.16 0ZM19.11 12.18H10.92V8.82H19.11V12.18ZM19.11 19.11H1.89V1.89H19.11V7.14H10.08C9.61537 7.14 9.24 7.51537 9.24 7.98V13.02C9.24 13.4846 9.61537 13.86 10.08 13.86H19.11V19.11ZM12.285 10.5C12.285 10.7785 12.3956 11.0455 12.5925 11.2425C12.7894 11.4394 13.0565 11.55 13.335 11.55C13.6135 11.55 13.8805 11.4394 14.0775 11.2425C14.2744 11.0455 14.385 10.7785 14.385 10.5C14.385 10.2215 14.2744 9.95445 14.0775 9.75754C13.8805 9.56062 13.6135 9.45 13.335 9.45C13.0565 9.45 12.7894 9.56062 12.5925 9.75754C12.3956 9.95445 12.285 10.2215 12.285 10.5Z" fill="white"/>
</svg>
