<svg width="64" height="56" viewBox="0 0 64 56" fill="none" xmlns="http://www.w3.org/2000/svg">
<path d="M47.5174 39.438L62.6979 30.7787C63.5027 30.3187 64 29.4655 64 28.5501V11.2313C64 10.3157 63.5027 9.46276 62.6979 9.00275L47.5174 0.343312C46.7127 -0.116669 45.7136 -0.1122 44.9134 0.343312L29.7328 9.00275C28.9282 9.46276 28.4309 10.3157 28.4309 11.2313V42.1801L17.7845 48.2493L7.13823 42.1801V30.0374L17.7845 23.9682L24.8053 27.9739V19.8281L19.0864 16.5636C18.6931 16.3403 18.2412 16.2197 17.7845 16.2197C17.3278 16.2197 16.876 16.3403 16.4827 16.5636L1.30198 25.223C0.49729 25.683 0 26.5361 0 27.4516V44.7705C0 45.686 0.49729 46.5388 1.30198 46.9988L16.4827 55.6584C17.2872 56.1139 18.2819 56.1139 19.0864 55.6584L34.2671 46.9988C35.0719 46.5388 35.569 45.686 35.569 44.7705V13.817L35.7589 13.7098L46.211 7.74783L56.8573 13.817V25.96L46.211 32.0292L39.1991 28.032V36.1781L44.9088 39.4337C45.7136 39.8892 46.7127 39.8892 47.5128 39.4337L47.5174 39.438Z" fill="white"/>
</svg>
