<svg xmlns:xlink="http://www.w3.org/1999/xlink" xmlns="http://www.w3.org/2000/svg" width="80" height="25" viewBox="0 0 80 26" fill="none">
<path d="M40.7234 4.65458V20.785H43.3502V13.7798H50.7738V20.785H53.4006V4.65458H50.7738V11.4294H43.3502V4.65458H40.7234Z" fill="#242629"></path>
<path d="M57.0694 4.28589C56.2242 4.28589 55.5618 4.90806 55.5618 5.78371C55.5618 6.65936 56.2242 7.28153 57.0694 7.28153C57.9145 7.28153 58.5769 6.65936 58.5769 5.78371C58.5769 4.90806 57.9145 4.28589 57.0694 4.28589ZM55.8359 8.98675V20.785H58.3028V8.98675H55.8359Z" fill="#242629"></path>
<path d="M66.4086 8.98675C64.4899 8.98675 63.5534 9.77023 62.9595 10.7611L62.6854 8.98675H60.4926V20.785H62.9595V14.8628C62.9595 13.0424 63.6676 11.3141 65.8604 11.3141H66.9568V8.98675H66.4086Z" fill="#242629"></path>
<path d="M73.2645 20.9232C76.8279 20.9232 79.2262 18.5037 79.2262 14.8859C79.2262 11.2911 76.8279 8.84849 73.2645 8.84849C69.7012 8.84849 67.3028 11.2911 67.3028 14.8859C67.3028 18.5037 69.7012 20.9232 73.2645 20.9232ZM73.2645 18.8033C71.1859 18.8033 69.8383 17.1672 69.8383 14.8859C69.8383 12.6046 71.1859 10.9685 73.2645 10.9685C75.3431 10.9685 76.7136 12.6046 76.7136 14.8859C76.7136 17.1672 75.3431 18.8033 73.2645 18.8033Z" fill="#242629"></path>
<path fill-rule="evenodd" clip-rule="evenodd" d="M8.49725 0H25.9866H25.9885V0.0028693L34.4823 12.6041L25.9885 25.2053V25.2081H25.9866H8.49725V0ZM8.49576 25.2094L0 12.6053L8.49576 0.00127788V25.2094ZM23.4873 10.3016H19.7528L22.3754 6.30129H20.3927L17.2352 11.127L14.0881 6.30129H12.1055L14.728 10.3016H10.9935V11.8467H23.4873V10.3016ZM19.6794 14.8522L22.3334 18.9054H20.3508L17.2352 14.1431L14.1196 18.9054H12.1475L14.8015 14.8627H10.9935V13.3282H23.4873V14.8522H19.6794Z" fill="#242629"></path>
</svg>