
<svg xmlns="http://www.w3.org/2000/svg" xmlns:xlink="http://www.w3.org/1999/xlink" viewBox="0 0 50 50" width="50px" height="50px">
<g id="surface154550">
<path style=" stroke:none;fill-rule:nonzero;fill:rgb(50.196081%,32.549021%,100%);fill-opacity:1;" d="M 43.050781 1.972656 C 41.800781 1.972656 40.550781 2.449219 39.597656 3.398438 L 38.800781 4.199219 L 45.699219 11.097656 L 46.5 10.300781 C 48.398438 8.402344 48.398438 5.300781 46.5 3.398438 C 45.550781 2.449219 44.300781 1.972656 43.050781 1.972656 Z M 37.484375 6.089844 C 37.222656 6.097656 36.976562 6.207031 36.796875 6.390625 L 4.296875 38.789062 C 4.167969 38.914062 4.078125 39.070312 4.035156 39.242188 L 2.035156 46.742188 C 1.941406 47.085938 2.039062 47.457031 2.292969 47.707031 C 2.542969 47.960938 2.914062 48.058594 3.257812 47.96875 L 10.757812 45.96875 C 10.929688 45.921875 11.085938 45.832031 11.210938 45.707031 L 43.609375 13.207031 C 43.878906 12.957031 43.988281 12.578125 43.898438 12.222656 C 43.808594 11.867188 43.527344 11.589844 43.171875 11.5 C 42.816406 11.410156 42.4375 11.523438 42.191406 11.796875 L 9.992188 44.09375 L 5.90625 40.007812 L 38.207031 7.808594 C 38.5 7.523438 38.59375 7.082031 38.433594 6.703125 C 38.273438 6.320312 37.894531 6.078125 37.484375 6.089844 Z M 37.484375 6.089844 "/>
</g>
</svg>
