<svg width="24" height="24" viewBox="0 0 24 24" fill="none" xmlns="http://www.w3.org/2000/svg">
<rect width="24" height="24" fill="#F5F5F5"/>
<g id="Frame 21581">
<rect x="-348" y="-297" width="720" height="568" rx="8" fill="#1C1C1C"/>
<g id="fields">
<g id="Upload_Card">
<rect x="-268" y="-24" width="560" height="99" rx="8" fill="#141414"/>
<rect x="-268" y="-24" width="560" height="99" rx="8" stroke="#616161" stroke-linecap="round" stroke-dasharray="4 4"/>
<g id="Upload_Content">
<g id="General/File">
<path id="Stroke 1" fill-rule="evenodd" clip-rule="evenodd" d="M14.7369 2.76175H8.08489C6.00489 2.75375 4.30089 4.41075 4.25089 6.49075V17.2277C4.20589 19.3297 5.87389 21.0697 7.97489 21.1147C8.01189 21.1147 8.04889 21.1157 8.08489 21.1147H16.0729C18.1629 21.0407 19.8149 19.3187 19.8029 17.2277V8.03775L14.7369 2.76175Z" stroke="white" stroke-width="1.5" stroke-linecap="round" stroke-linejoin="round"/>
<path id="Stroke 3" d="M14.4746 2.75V5.659C14.4746 7.079 15.6236 8.23 17.0436 8.234H19.7976" stroke="white" stroke-width="1.5" stroke-linecap="round" stroke-linejoin="round"/>
<path id="Stroke 5" d="M11.6406 9.9082V15.9492" stroke="white" stroke-width="1.5" stroke-linecap="round" stroke-linejoin="round"/>
<path id="Stroke 7" d="M13.9869 12.2652L11.6419 9.91016L9.29688 12.2652" stroke="white" stroke-width="1.5" stroke-linecap="round" stroke-linejoin="round"/>
</g>
</g>
</g>
</g>
</g>
</svg>
