<svg width="16" height="17" viewBox="0 0 16 17" fill="none" xmlns="http://www.w3.org/2000/svg">
<path d="M16 8.5C16 12.9183 12.4183 16.5 8 16.5C3.58172 16.5 0 12.9183 0 8.5C0 4.08172 3.58172 0.5 8 0.5C12.4183 0.5 16 4.08172 16 8.5Z" fill="#757575"/>
<path d="M8.31549 9.88006C8.31549 10.1224 8.12106 10.3188 7.88121 10.3188C7.64137 10.3188 7.44694 10.1224 7.44694 9.88006V9.56667C7.44694 9.33267 7.47176 9.12374 7.52139 8.93989C7.57929 8.74767 7.65374 8.57635 7.74473 8.42593C7.84399 8.2755 7.95153 8.14179 8.06733 8.02479C8.19141 7.89943 8.31549 7.77825 8.43957 7.66125L8.78698 7.34786C8.99378 7.18072 9.16335 6.98851 9.2957 6.77123C9.43633 6.55394 9.50664 6.28234 9.50664 5.95641C9.50664 5.72241 9.46528 5.51349 9.38256 5.32963C9.29984 5.14577 9.18817 4.99117 9.04755 4.86581C8.90693 4.74046 8.74149 4.64435 8.55124 4.57749C8.36925 4.51064 8.17073 4.47721 7.95566 4.47721C7.50898 4.47721 7.14502 4.6151 6.86377 4.89088C6.68616 5.07033 6.55232 5.28162 6.46225 5.52475C6.37964 5.74777 6.16451 5.9099 5.93239 5.86852C5.70089 5.82725 5.54417 5.60084 5.61875 5.37561C5.76971 4.9197 6.01514 4.5492 6.35505 4.2641C6.80173 3.88803 7.34768 3.7 7.99288 3.7C8.32376 3.7 8.63395 3.75014 8.92347 3.85043C9.22126 3.94236 9.47769 4.08443 9.69275 4.27664C9.90782 4.46049 10.0774 4.69031 10.2015 4.9661C10.3338 5.24188 10.4 5.55527 10.4 5.90627C10.4 6.17369 10.371 6.40769 10.3131 6.60826C10.2552 6.80883 10.1725 6.98851 10.065 7.14729C9.96573 7.30608 9.84578 7.45233 9.70516 7.58604C9.56454 7.7114 9.41565 7.84093 9.25848 7.97464C9.08477 8.11671 8.93588 8.24625 8.8118 8.36325C8.69599 8.48025 8.60087 8.6056 8.52642 8.73932C8.45197 8.86467 8.39821 9.00674 8.36512 9.16553C8.33203 9.32431 8.31549 9.51653 8.31549 9.74217V9.88006ZM8.55124 11.8231C8.55124 11.9986 8.4892 12.1574 8.36512 12.2994C8.24104 12.4331 8.07974 12.5 7.88121 12.5C7.68269 12.5 7.52139 12.4331 7.39731 12.2994C7.27323 12.1574 7.21119 11.9986 7.21119 11.8231C7.21119 11.6476 7.27323 11.493 7.39731 11.3593C7.52139 11.2172 7.68269 11.1462 7.88121 11.1462C8.07974 11.1462 8.24104 11.2172 8.36512 11.3593C8.4892 11.493 8.55124 11.6476 8.55124 11.8231Z" fill="black"/>
</svg>
