<svg width="16" height="16" viewBox="0 0 16 16" fill="none" xmlns="http://www.w3.org/2000/svg">
<g clip-path="url(#clip0_2891_11240)">
<path fill-rule="evenodd" clip-rule="evenodd" d="M7.05465 4.775C7.05465 4.69216 6.9875 4.625 6.90465 4.625H6.08259H5.00609H4.59535C4.51251 4.625 4.44535 4.69216 4.44535 4.775V7.625C4.44535 8.32848 4.99549 8.90269 5.68656 8.93598C5.70758 8.93699 5.72873 8.9375 5.75 8.9375C6.15501 8.9375 6.51692 8.75184 6.75622 8.4605C6.94264 8.23353 7.05465 7.94243 7.05465 7.625V6.51449V5.48209V4.775ZM3.32708 3.5V7.625C3.32708 8.95784 4.39045 10.0408 5.71026 10.0622C5.72348 10.0624 5.73673 10.0625 5.75 10.0625C6.11006 10.0625 6.45177 9.98349 6.75894 9.84176C7.59338 9.45677 8.17293 8.60897 8.17293 7.625V6.25042V3.5H3.32708Z" fill="#C2C2C2"/>
<path fill-rule="evenodd" clip-rule="evenodd" d="M9.98038 5.4517C9.97532 5.42298 9.96907 5.39473 9.96168 5.36699C9.87494 5.04129 9.63122 4.78656 9.32214 4.67971C9.29623 4.67075 9.26985 4.66283 9.24307 4.656C9.16365 4.63573 9.08066 4.625 8.99551 4.625H8.32293C8.28164 4.625 8.24425 4.64168 8.21713 4.66866C8.18983 4.69583 8.17293 4.73344 8.17293 4.775V6.25042V7.82673C8.17293 8.44019 8.66726 8.9375 9.27705 8.9375C9.95933 8.9375 10.4783 8.32117 10.3662 7.64412L10.1635 6.49224L9.98038 5.4517ZM11.0699 5.15808C10.9036 4.19975 10.072 3.5 9.09938 3.5H7.05465V5.48209V6.51449V7.82673C7.05465 9.06151 8.04965 10.0625 9.27705 10.0625C9.40935 10.0625 9.5386 10.051 9.66396 10.029C10.0938 9.95343 10.4779 9.7543 10.7822 9.47186C11.3105 8.98165 11.5987 8.2405 11.4692 7.45918L11.0699 5.15808Z" fill="#C2C2C2"/>
<path fill-rule="evenodd" clip-rule="evenodd" d="M2.50449 4.625C2.01906 4.625 1.60375 4.97362 1.51962 5.4517L1.13385 7.64412C1.02168 8.32117 1.54067 8.9375 2.22295 8.9375C2.83274 8.9375 3.32707 8.44019 3.32707 7.82673V4.775C3.32707 4.69216 3.25992 4.625 3.17707 4.625H2.50449ZM2.40062 3.5C1.42797 3.5 0.596351 4.19975 0.430066 5.15808L0.0307881 7.45918C-0.098654 8.2405 0.189499 8.98165 0.71777 9.47186C1.02214 9.7543 1.40621 9.95343 1.83604 10.029C1.9614 10.051 2.09065 10.0625 2.22295 10.0625C3.45035 10.0625 4.44535 9.06151 4.44535 7.82673V3.5H2.40062Z" fill="#C2C2C2"/>
<path d="M2.58156 14.375C2.16982 14.375 1.83604 14.0392 1.83604 13.625V10.029C1.40621 9.95343 1.02214 9.7543 0.71777 9.47186V13.625C0.71777 14.6605 1.55222 15.5 2.58156 15.5H8.91844C9.94778 15.5 10.7822 14.6605 10.7822 13.625V9.47186C10.4779 9.7543 10.0938 9.95343 9.66396 10.029V10.4688V11.5V13.625C9.66396 14.0392 9.33018 14.375 8.91844 14.375H2.58156Z" fill="#C2C2C2"/>
<path fill-rule="evenodd" clip-rule="evenodd" d="M14.5578 2.35066C14.4706 1.87596 14.0568 1.53125 13.5742 1.53125H12.9676C12.8847 1.53125 12.8176 1.59841 12.8176 1.68125V4.46617C12.8176 5.02851 13.2904 5.48438 13.8737 5.48438C14.5263 5.48438 15.0227 4.91941 14.9155 4.29878L14.5578 2.35066ZM15.611 2.14367C15.4387 1.19202 14.6102 0.5 13.643 0.5H11.7479V4.46617C11.7479 5.59805 12.6997 6.51562 13.8737 6.51562C14.0002 6.51562 14.1239 6.50507 14.2438 6.48488C14.6549 6.41565 15.0223 6.2331 15.3134 5.9742C15.8187 5.52484 16.0944 4.84546 15.9706 4.12925L15.611 2.14367Z" fill="#C2C2C2"/>
<path fill-rule="evenodd" clip-rule="evenodd" d="M9.66396 11.5V10.4688H13.5307C13.9245 10.4688 14.2438 10.1609 14.2438 9.78125V6.48488C14.6549 6.41565 15.0223 6.2331 15.3134 5.9742V9.78125C15.3134 10.7305 14.5153 11.5 13.5307 11.5H9.66396ZM5.75 10.0625C5.73673 10.0625 5.72348 10.0624 5.71026 10.0622C5.69467 9.97076 5.68656 9.87692 5.68656 9.78125V8.93598C5.70758 8.93699 5.72873 8.9375 5.75 8.9375C6.15501 8.9375 6.51692 8.75184 6.75622 8.4605V9.78125C6.75622 9.80164 6.75714 9.82182 6.75894 9.84176C6.45177 9.98349 6.11006 10.0625 5.75 10.0625Z" fill="#C2C2C2"/>
<path fill-rule="evenodd" clip-rule="evenodd" d="M7.4258 1.53125C6.94317 1.53125 6.5294 1.87596 6.44224 2.35066L6.08455 4.29878C6.06527 4.41031 6.06548 4.52003 6.08259 4.625H5.00609C4.99333 4.46344 5.00039 4.29736 5.02945 4.12925L5.38896 2.14367C5.56126 1.19202 6.38983 0.5 7.35696 0.5H8.18242H9.25207H12.8176V4.28125C12.8176 5.51526 11.78 6.51562 10.5 6.51562C10.3857 6.51562 10.2733 6.50765 10.1635 6.49224L9.98038 5.4517C9.97532 5.42298 9.96907 5.39473 9.96168 5.36699C10.1247 5.44224 10.3072 5.48438 10.5 5.48438C11.1892 5.48438 11.7479 4.94572 11.7479 4.28125V1.68125C11.7479 1.59841 11.6808 1.53125 11.5979 1.53125H9.40207C9.31923 1.53125 9.25207 1.59841 9.25207 1.68125V4.28125C9.25207 4.42091 9.27675 4.555 9.32214 4.67971C9.29623 4.67075 9.26985 4.66283 9.24307 4.656C9.16365 4.63573 9.08066 4.625 8.99551 4.625H8.32293C8.28164 4.625 8.24425 4.64168 8.21713 4.66866C8.18983 4.69583 8.17293 4.73344 8.17293 4.775V6.25042C7.86396 6.41924 7.5068 6.51562 7.1263 6.51562C7.10231 6.51562 7.07843 6.51525 7.05465 6.51449V5.48209C7.07831 5.4836 7.1022 5.48438 7.1263 5.48438C7.70958 5.48438 8.18242 5.02851 8.18242 4.46617V1.68125C8.18242 1.59841 8.11526 1.53125 8.03242 1.53125H7.4258Z" fill="#C2C2C2"/>
</g>
<defs>
<clipPath id="clip0_2891_11240">
<rect width="16" height="16" fill="white"/>
</clipPath>
</defs>
</svg>
