<svg width="32" height="33" viewBox="0 0 32 33" fill="none" xmlns="http://www.w3.org/2000/svg">
<path fill-rule="evenodd" clip-rule="evenodd" d="M27 3.5H5C3.89543 3.5 3 4.39543 3 5.5V27.5C3 28.6046 3.89543 29.5 5 29.5H27C28.1046 29.5 29 28.6046 29 27.5V5.5C29 4.39543 28.1046 3.5 27 3.5ZM5 0.5C2.23858 0.5 0 2.73858 0 5.5V27.5C0 30.2614 2.23858 32.5 5 32.5H27C29.7614 32.5 32 30.2614 32 27.5V5.5C32 2.73858 29.7614 0.5 27 0.5H5Z" fill="#DBDBDB"/>
<path fill-rule="evenodd" clip-rule="evenodd" d="M9.5 13.5C10.3284 13.5 11 14.1716 11 15V25C11 25.8284 10.3284 26.5 9.5 26.5C8.67157 26.5 8 25.8284 8 25V15C8 14.1716 8.67157 13.5 9.5 13.5Z" fill="#DBDBDB"/>
<path fill-rule="evenodd" clip-rule="evenodd" d="M16 9.5C16.8284 9.5 17.5 10.1716 17.5 11V25C17.5 25.8284 16.8284 26.5 16 26.5C15.1716 26.5 14.5 25.8284 14.5 25V11C14.5 10.1716 15.1716 9.5 16 9.5Z" fill="#DBDBDB"/>
<path fill-rule="evenodd" clip-rule="evenodd" d="M22.5 17.5C23.3284 17.5 24 18.1716 24 19V25C24 25.8284 23.3284 26.5 22.5 26.5C21.6716 26.5 21 25.8284 21 25V19C21 18.1716 21.6716 17.5 22.5 17.5Z" fill="#DBDBDB"/>
</svg>
