<svg width="48" height="48" viewBox="0 0 48 48" fill="none" xmlns="http://www.w3.org/2000/svg">
<g clip-path="url(#clip0_23370_34057)">
<rect x="0.5" y="0.5" width="47" height="47" rx="7.5" stroke="white"/>
<mask id="path-2-inside-1_23370_34057" fill="white">
<path d="M14.6953 19.1854L23.6953 23.1855L24.3045 21.8147L15.3045 17.8147L14.6953 19.1854ZM24.7499 33.5001V22.5001H23.2499V33.5001H24.7499ZM24.3045 23.1855L33.3045 19.1854L32.6953 17.8147L23.6953 21.8147L24.3045 23.1855Z"/>
</mask>
<path d="M14.6953 19.1854L23.6953 23.1855L24.3045 21.8147L15.3045 17.8147L14.6953 19.1854ZM24.7499 33.5001V22.5001H23.2499V33.5001H24.7499ZM24.3045 23.1855L33.3045 19.1854L32.6953 17.8147L23.6953 21.8147L24.3045 23.1855Z" fill="black"/>
<path d="M14.6953 19.1854L12.8677 18.3732L12.0554 20.2008L13.883 21.013L14.6953 19.1854ZM23.6953 23.1855L22.883 25.0131L24.7107 25.8254L25.5229 23.9977L23.6953 23.1855ZM24.3045 21.8147L26.1321 22.6269L26.9444 20.7993L25.1168 19.9871L24.3045 21.8147ZM15.3045 17.8147L16.1168 15.9871L14.2892 15.1748L13.4769 17.0024L15.3045 17.8147ZM24.7499 33.5001V35.5001H26.7499V33.5001H24.7499ZM24.7499 22.5001H26.7499V20.5001H24.7499V22.5001ZM23.2499 22.5001V20.5001H21.2499V22.5001H23.2499ZM23.2499 33.5001H21.2499V35.5001H23.2499V33.5001ZM24.3045 23.1855L22.4769 23.9977L23.2891 25.8254L25.1168 25.0131L24.3045 23.1855ZM33.3045 19.1854L34.1168 21.013L35.9444 20.2008L35.1321 18.3732L33.3045 19.1854ZM32.6953 17.8147L34.5229 17.0024L33.7107 15.1748L31.883 15.9871L32.6953 17.8147ZM23.6953 21.8147L22.883 19.9871L21.0554 20.7993L21.8677 22.6269L23.6953 21.8147ZM13.883 21.013L22.883 25.0131L24.5076 21.3578L15.5076 17.3578L13.883 21.013ZM25.5229 23.9977L26.1321 22.6269L22.4769 21.0025L21.8677 22.3732L25.5229 23.9977ZM25.1168 19.9871L16.1168 15.9871L14.4922 19.6423L23.4922 23.6423L25.1168 19.9871ZM13.4769 17.0024L12.8677 18.3732L16.5229 19.9977L17.1321 18.627L13.4769 17.0024ZM26.7499 33.5001V22.5001H22.7499V33.5001H26.7499ZM24.7499 20.5001H23.2499V24.5001H24.7499V20.5001ZM21.2499 22.5001V33.5001H25.2499V22.5001H21.2499ZM23.2499 35.5001H24.7499V31.5001H23.2499V35.5001ZM25.1168 25.0131L34.1168 21.013L32.4922 17.3578L23.4922 21.3578L25.1168 25.0131ZM35.1321 18.3732L34.5229 17.0024L30.8677 18.627L31.4769 19.9977L35.1321 18.3732ZM31.883 15.9871L22.883 19.9871L24.5076 23.6423L33.5076 19.6423L31.883 15.9871ZM21.8677 22.6269L22.4769 23.9977L26.1321 22.3732L25.5229 21.0025L21.8677 22.6269Z" fill="white" mask="url(#path-2-inside-1_23370_34057)"/>
<path d="M15 29.1102V18.89C15 18.6529 15.1396 18.438 15.3563 18.3417L23.7563 14.6084C23.9115 14.5394 24.0885 14.5394 24.2437 14.6084L32.6437 18.3417C32.8604 18.438 33 18.6529 33 18.89V29.1102C33 29.3473 32.8604 29.5622 32.6437 29.6585L24.2437 33.3918C24.0885 33.4607 23.9115 33.4607 23.7563 33.3918L15.3563 29.6585C15.1396 29.5622 15 29.3473 15 29.1102Z" stroke="white" stroke-width="2" stroke-linecap="round" stroke-linejoin="round"/>
<path d="M19.5 16.5L28.1437 20.3416C28.3604 20.4379 28.5 20.6528 28.5 20.8899V24.5" stroke="white" stroke-width="1.5" stroke-linecap="round" stroke-linejoin="round"/>
</g>
<defs>
<clipPath id="clip0_23370_34057">
<rect width="48" height="48" fill="white"/>
</clipPath>
</defs>
</svg>
