<svg width="48" height="48" viewBox="0 0 48 48" fill="none" xmlns="http://www.w3.org/2000/svg">
<rect width="48" height="48" fill="#F5F5F5"/>
<g id="Payment Link" clip-path="url(#clip0_8011_14434)" filter="url(#filter0_d_8011_14434)">
<rect width="1920" height="5132" transform="translate(-752 -1304)" fill="#141414"/>
<g id="Frame 53251">
<g id="Frame 53041">
<g id="Frame 53038" filter="url(#filter1_bd_8011_14434)">
<rect x="-36" y="-36" width="488" height="268" rx="16" fill="url(#paint0_linear_8011_14434)" fill-opacity="0.15" shape-rendering="crispEdges"/>
<rect x="-35.5" y="-35.5" width="487" height="267" rx="15.5" stroke="url(#paint1_linear_8011_14434)" stroke-opacity="0.3" shape-rendering="crispEdges"/>
<g id="design-nib 2" clip-path="url(#clip1_8011_14434)">
<g id="Clip path group">
<mask id="mask0_8011_14434" style="mask-type:luminance" maskUnits="userSpaceOnUse" x="0" y="0" width="48" height="48">
<g id="clip0_2585_14438">
<path id="Vector" d="M48 0H0V48H48V0Z" fill="white"/>
</g>
</mask>
<g mask="url(#mask0_8011_14434)">
<g id="Group">
<path id="Vector_2" d="M35.3495 22.8148L31.5389 34.2464C31.4151 34.6178 31.1179 34.9056 30.7425 35.0172L7.38765 41.9604C6.45707 42.237 5.60025 41.3518 5.90725 40.4308L13.49 17.6824C13.6003 17.3515 13.8491 17.085 14.1716 16.9522L24.9447 12.5162C25.3927 12.3318 25.9077 12.4347 26.2503 12.7773L35.0595 21.5868C35.3809 21.9082 35.4933 22.3836 35.3495 22.8148Z" stroke="white" stroke-width="2.5" stroke-linecap="round" stroke-linejoin="round"/>
<path id="Vector_3" d="M6.59375 41.2031L19.3217 28.4751" stroke="white" stroke-width="2.5" stroke-linecap="round" stroke-linejoin="round"/>
<path id="Vector_4" d="M35.5869 22.1113L41.2439 16.4544C42.8059 14.8923 42.8059 12.3596 41.2439 10.7975L37.0013 6.55486C35.4391 4.99278 32.9065 4.99278 31.3443 6.55486L25.6875 12.2117" stroke="white" stroke-width="2.5" stroke-linecap="round" stroke-linejoin="round"/>
<path id="Vector_5" d="M23.5667 24.2327C22.3951 23.0611 20.4955 23.0611 19.324 24.2327C18.1524 25.4043 18.1524 27.3039 19.324 28.4753C20.4955 29.6469 22.3951 29.6469 23.5667 28.4753C24.7381 27.3039 24.7381 25.4043 23.5667 24.2327Z" stroke="white" stroke-width="2.5" stroke-linecap="round" stroke-linejoin="round"/>
</g>
</g>
</g>
</g>
</g>
</g>
</g>
</g>
<defs>
<filter id="filter0_d_8011_14434" x="-756" y="-1304" width="1928" height="5140" filterUnits="userSpaceOnUse" color-interpolation-filters="sRGB">
<feFlood flood-opacity="0" result="BackgroundImageFix"/>
<feColorMatrix in="SourceAlpha" type="matrix" values="0 0 0 0 0 0 0 0 0 0 0 0 0 0 0 0 0 0 127 0" result="hardAlpha"/>
<feOffset dy="4"/>
<feGaussianBlur stdDeviation="2"/>
<feComposite in2="hardAlpha" operator="out"/>
<feColorMatrix type="matrix" values="0 0 0 0 0 0 0 0 0 0 0 0 0 0 0 0 0 0 0.25 0"/>
<feBlend mode="normal" in2="BackgroundImageFix" result="effect1_dropShadow_8011_14434"/>
<feBlend mode="normal" in="SourceGraphic" in2="effect1_dropShadow_8011_14434" result="shape"/>
</filter>
<filter id="filter1_bd_8011_14434" x="-88.4562" y="-84.1741" width="592.912" height="372.912" filterUnits="userSpaceOnUse" color-interpolation-filters="sRGB">
<feFlood flood-opacity="0" result="BackgroundImageFix"/>
<feGaussianBlur in="BackgroundImageFix" stdDeviation="13.3817"/>
<feComposite in2="SourceAlpha" operator="in" result="effect1_backgroundBlur_8011_14434"/>
<feColorMatrix in="SourceAlpha" type="matrix" values="0 0 0 0 0 0 0 0 0 0 0 0 0 0 0 0 0 0 127 0" result="hardAlpha"/>
<feOffset dy="4.28214"/>
<feGaussianBlur stdDeviation="26.2281"/>
<feComposite in2="hardAlpha" operator="out"/>
<feColorMatrix type="matrix" values="0 0 0 0 0 0 0 0 0 0.0283334 0 0 0 0 0.283333 0 0 0 0.12 0"/>
<feBlend mode="normal" in2="effect1_backgroundBlur_8011_14434" result="effect2_dropShadow_8011_14434"/>
<feBlend mode="normal" in="SourceGraphic" in2="effect2_dropShadow_8011_14434" result="shape"/>
</filter>
<linearGradient id="paint0_linear_8011_14434" x1="-36" y1="-44.3489" x2="94.0279" y2="466.555" gradientUnits="userSpaceOnUse">
<stop stop-color="white" stop-opacity="0"/>
<stop offset="1" stop-color="white"/>
</linearGradient>
<linearGradient id="paint1_linear_8011_14434" x1="-53.3126" y1="-58.9595" x2="74.4995" y2="372.396" gradientUnits="userSpaceOnUse">
<stop stop-color="white"/>
<stop offset="1" stop-color="white" stop-opacity="0"/>
</linearGradient>
<clipPath id="clip0_8011_14434">
<rect width="1920" height="5132" fill="white" transform="translate(-752 -1304)"/>
</clipPath>
<clipPath id="clip1_8011_14434">
<rect width="48" height="48" fill="white"/>
</clipPath>
</defs>
</svg>
