<svg width="20" height="20" viewBox="0 0 20 20" fill="none" xmlns="http://www.w3.org/2000/svg">
<g clip-path="url(#clip0_13173_562)">
<path d="M8.33325 7.5V15.8333" stroke="white" stroke-width="1.5" stroke-linecap="round" stroke-linejoin="round"/>
<path d="M5 7.5V15.8333" stroke="white" stroke-width="1.5" stroke-linecap="round" stroke-linejoin="round"/>
<path d="M8.33325 11.1458C8.33325 10.1789 8.72834 9.25157 9.4316 8.56784C10.1349 7.88411 11.0887 7.5 12.0833 7.5C13.0778 7.5 14.0316 7.88411 14.7349 8.56784C15.4382 9.25157 15.8333 10.1789 15.8333 11.1458V15.8333" stroke="white" stroke-width="1.5" stroke-linecap="round" stroke-linejoin="round"/>
<path d="M5.00008 5.83317C5.46032 5.83317 5.83341 5.46007 5.83341 4.99984C5.83341 4.5396 5.46032 4.1665 5.00008 4.1665C4.53984 4.1665 4.16675 4.5396 4.16675 4.99984C4.16675 5.46007 4.53984 5.83317 5.00008 5.83317Z" fill="white"/>
</g>
<defs>
<clipPath id="clip0_13173_562">
<rect width="20" height="20" fill="white"/>
</clipPath>
</defs>
</svg>
