<svg width="32" height="32" viewBox="0 0 32 32" fill="none" xmlns="http://www.w3.org/2000/svg">
<path d="M3 10C3 8.89543 3.89543 8 5 8H15C15.5523 8 16 7.55228 16 7V6C16 5.44771 15.5523 5 15 5H5C2.23858 5 0 7.23858 0 10V27C0 29.7614 2.23858 32 5 32H22C24.7614 32 27 29.7614 27 27V17C27 16.4477 26.5523 16 26 16H25C24.4477 16 24 16.4477 24 17V27C24 28.1046 23.1046 29 22 29H5C3.89543 29 3 28.1046 3 27V10Z" fill="#DBDBDB"/>
<path fill-rule="evenodd" clip-rule="evenodd" d="M19 0H30.5C31.3284 -2.95028e-07 32 0.671572 32 1.5V13C32 13.8284 31.3284 14.5 30.5 14.5C29.6716 14.5 29 13.8284 29 13L29 5.12132L15.5607 18.5607C14.9749 19.1464 14.0251 19.1464 13.4393 18.5607C12.8536 17.9749 12.8536 17.0251 13.4393 16.4393L26.8787 3L19 3C18.1716 3 17.5 2.32843 17.5 1.5C17.5 0.671573 18.1716 0 19 0Z" fill="#DBDBDB"/>
</svg>
