<svg width="20" height="20" viewBox="0 0 20 20" fill="none" xmlns="http://www.w3.org/2000/svg">
<mask id="path-1-outside-1_28519_38127" maskUnits="userSpaceOnUse" x="2.82422" y="0.578125" width="14" height="18" fill="black">
<rect fill="white" x="2.82422" y="0.578125" width="14" height="18"/>
<path d="M8.79103 18.3457C8.34898 18.5555 7.96511 18.2859 7.58315 18.0824L6.83919 17.7055C6.23144 17.4284 5.62853 17.3467 5.03657 16.9609C4.36782 16.5252 3.92476 15.7509 3.83847 14.964C3.76177 14.2646 4.01412 13.7345 4.1314 13.0586C4.16582 12.8601 4.17719 12.6525 4.19261 12.4516L4.22394 12.1368L4.22569 10.7638L4.19378 10.3723C4.18673 10.2806 4.18607 10.1893 4.17523 10.0976L4.1232 9.6816C4.05693 9.21468 4.05566 9.17131 4.44836 9.02069C4.8669 8.8601 5.01878 8.35431 5.0834 7.95481C5.19469 7.26706 5.15561 6.5906 4.93173 5.92477C4.84765 5.67481 4.69319 5.46831 4.58486 5.23143C4.38603 4.79643 4.25532 4.30318 4.17303 3.83263C4.09545 3.38882 4.07498 3.20281 4.54107 3.16288L4.89911 3.12599C5.64111 3.0307 6.3554 2.75609 6.98823 2.36132C7.15469 2.25747 7.12811 2.31171 7.21886 2.13183C7.38315 1.80613 7.82903 1.54305 8.19153 1.59918C8.46123 1.64095 8.72561 1.73965 8.99486 1.793C9.62123 1.9171 10.3312 1.9292 10.9568 1.79426C11.156 1.7513 11.3469 1.68026 11.5439 1.63506L11.7718 1.58608C12.2217 1.5252 12.5971 1.82187 12.8056 2.19255C12.847 2.26624 12.858 2.27046 12.9308 2.31234L13.0979 2.41161C13.7271 2.79786 14.3493 3.00224 15.0812 3.12165L15.366 3.16038C15.545 3.17634 15.7259 3.13509 15.8244 3.32816L15.8304 3.34029C15.9613 3.59068 15.5527 4.94693 15.4324 5.19398C15.1458 5.78223 14.9591 6.02781 14.8802 6.70956L14.8611 6.98931C14.8162 7.63085 14.8945 8.75368 15.56 9.02618C15.9714 9.19468 15.9223 9.27977 15.8582 9.70823L15.8235 10.0125C15.8007 10.2136 15.7852 10.4236 15.7766 10.626L15.7708 12.1247C15.7802 12.3613 15.8094 12.5984 15.8393 12.833L15.8972 13.2866C15.9222 13.4361 15.9783 13.575 16.0078 13.7206L16.0571 13.9074C16.4422 15.076 15.8427 16.4715 14.7757 17.0639C14.1834 17.3927 13.5312 17.5925 12.9122 17.8602L12.4948 18.0531C11.8477 18.3877 11.5028 18.6502 10.8769 18.1487L10.1196 17.4873L8.79103 18.3457ZM11.8116 2.22218C11.7586 2.23466 11.7489 2.24743 11.7192 2.29519L10.6872 4.11771C10.7754 4.29064 10.8663 4.50852 11.0037 4.64656C11.067 4.66589 11.1369 4.66639 11.2027 4.66993C11.2408 4.6691 11.2881 4.67485 11.3196 4.65093L11.9717 3.35296C12.077 3.15003 12.1901 2.9481 12.279 2.73732C12.4008 2.44845 12.0797 2.21028 11.8116 2.22218ZM8.02398 2.22953C7.83403 2.29578 7.72007 2.43814 7.67465 2.62871C7.74853 2.83368 7.85744 3.02978 7.95582 3.22411L8.60294 4.50481C8.69461 4.70381 8.69098 4.70931 8.94665 4.6561C9.07878 4.60989 9.20019 4.32681 9.26098 4.20139L9.29636 4.12515L8.34848 2.37251C8.28003 2.24005 8.16798 2.22116 8.02398 2.22953ZM9.1259 2.45183L9.33682 2.85962C9.50382 3.21435 9.81082 3.6532 9.93515 3.99544C9.97994 3.9948 10.0313 3.99903 10.0745 3.98693C10.1309 3.78015 10.2651 3.58951 10.3751 3.40701L10.8934 2.45427L10.5747 2.49671C10.2113 2.52857 9.48848 2.55203 9.1259 2.45183ZM7.13015 3.02347L6.4039 3.37249C5.92965 3.57273 5.31053 3.72917 4.80519 3.77196C4.91219 4.19864 4.92928 4.50173 5.1329 4.93302C5.21961 5.11668 5.35253 5.28335 5.42453 5.4721C5.64707 6.05539 5.7649 6.62848 5.76923 7.25643C5.77457 8.03352 5.54569 9.1821 4.80236 9.55239C4.79494 9.5561 4.74532 9.5771 4.74269 9.58177C4.73411 9.59698 4.85432 10.3236 4.85923 10.9659L4.85969 11.7859C4.85911 11.981 4.86553 12.1808 4.84244 12.3747L4.72848 13.2236C4.71998 13.2777 4.71798 13.3328 4.7074 13.3865L4.60723 13.8291C4.45173 14.389 4.38269 14.689 4.53498 15.279L4.62486 15.5194C4.88761 16.0989 5.32615 16.4564 5.90978 16.6899L7.01244 17.0813L8.14515 17.6569C8.46107 17.8263 8.5479 17.7829 8.85144 17.5801L9.59069 17.0875C9.61803 17.0706 9.6689 17.0463 9.68711 17.0206C9.43173 16.7094 9.43415 16.6086 9.43757 16.2326L9.43786 10.0384C9.43761 9.42814 9.45794 9.16556 9.66423 8.57506L9.74569 8.34039C9.79115 8.21585 9.75486 8.22531 9.69353 8.10406L7.35069 3.41196C7.29223 3.28892 7.23478 3.12876 7.15144 3.02187L7.13015 3.02347ZM12.8451 3.01113L10.8736 6.99198C10.6797 7.40556 10.5744 7.66489 10.4757 8.12114C10.4068 8.43985 10.4038 8.42352 10.2672 8.72377C10.0417 9.21898 10.0655 9.76514 10.0657 10.2958L10.0658 16.5366C10.117 16.6319 10.2188 16.7174 10.2986 16.7892L10.9716 17.3909C11.1059 17.5127 11.2865 17.7398 11.4737 17.7756L11.4849 17.7778C11.6423 17.8061 11.8281 17.682 11.9614 17.613L13.1452 17.0911C13.3957 16.9973 13.6319 16.8764 13.8761 16.7683C14.0709 16.682 14.2752 16.6124 14.4641 16.5136C15.2797 16.087 15.6712 15.1295 15.4988 14.2449L15.3296 13.5516C15.1741 12.8262 15.1442 12.2371 15.1444 11.5029L15.1919 10.2024C15.2087 9.9956 15.2228 9.79093 15.256 9.58564C14.5532 9.19764 14.3391 8.51706 14.2584 7.75139C14.1732 6.94227 14.2645 6.01185 14.6639 5.29056C14.9719 4.73427 15.0882 4.44431 15.1686 3.77658C14.5626 3.70003 13.9746 3.55564 13.4175 3.30132L12.8451 3.01113ZM10.3319 4.73743C10.3128 4.80885 10.3062 4.88023 10.3031 4.95348L10.3012 6.46677C10.3013 6.54018 10.2918 6.63002 10.3134 6.70064C10.4038 6.57827 10.4542 6.39627 10.5166 6.25623L10.9931 5.30864L10.9689 5.29993C10.6395 5.34756 10.4733 4.95235 10.3319 4.73743ZM9.66678 4.74956C9.53782 4.96818 9.42498 5.21052 9.16057 5.28002C9.10548 5.29448 9.0469 5.29681 8.99311 5.31281L9.44244 6.17839L9.5699 6.42681C9.5874 6.46643 9.60111 6.4956 9.62732 6.52931L9.65065 6.57239C9.66265 6.59173 9.67036 6.61027 9.67836 6.63152L9.6839 5.61527C9.68415 5.32639 9.69336 5.0371 9.66678 4.74956Z"/>
</mask>
<path d="M8.79103 18.3457C8.34898 18.5555 7.96511 18.2859 7.58315 18.0824L6.83919 17.7055C6.23144 17.4284 5.62853 17.3467 5.03657 16.9609C4.36782 16.5252 3.92476 15.7509 3.83847 14.964C3.76177 14.2646 4.01412 13.7345 4.1314 13.0586C4.16582 12.8601 4.17719 12.6525 4.19261 12.4516L4.22394 12.1368L4.22569 10.7638L4.19378 10.3723C4.18673 10.2806 4.18607 10.1893 4.17523 10.0976L4.1232 9.6816C4.05693 9.21468 4.05566 9.17131 4.44836 9.02069C4.8669 8.8601 5.01878 8.35431 5.0834 7.95481C5.19469 7.26706 5.15561 6.5906 4.93173 5.92477C4.84765 5.67481 4.69319 5.46831 4.58486 5.23143C4.38603 4.79643 4.25532 4.30318 4.17303 3.83263C4.09545 3.38882 4.07498 3.20281 4.54107 3.16288L4.89911 3.12599C5.64111 3.0307 6.3554 2.75609 6.98823 2.36132C7.15469 2.25747 7.12811 2.31171 7.21886 2.13183C7.38315 1.80613 7.82903 1.54305 8.19153 1.59918C8.46123 1.64095 8.72561 1.73965 8.99486 1.793C9.62123 1.9171 10.3312 1.9292 10.9568 1.79426C11.156 1.7513 11.3469 1.68026 11.5439 1.63506L11.7718 1.58608C12.2217 1.5252 12.5971 1.82187 12.8056 2.19255C12.847 2.26624 12.858 2.27046 12.9308 2.31234L13.0979 2.41161C13.7271 2.79786 14.3493 3.00224 15.0812 3.12165L15.366 3.16038C15.545 3.17634 15.7259 3.13509 15.8244 3.32816L15.8304 3.34029C15.9613 3.59068 15.5527 4.94693 15.4324 5.19398C15.1458 5.78223 14.9591 6.02781 14.8802 6.70956L14.8611 6.98931C14.8162 7.63085 14.8945 8.75368 15.56 9.02618C15.9714 9.19468 15.9223 9.27977 15.8582 9.70823L15.8235 10.0125C15.8007 10.2136 15.7852 10.4236 15.7766 10.626L15.7708 12.1247C15.7802 12.3613 15.8094 12.5984 15.8393 12.833L15.8972 13.2866C15.9222 13.4361 15.9783 13.575 16.0078 13.7206L16.0571 13.9074C16.4422 15.076 15.8427 16.4715 14.7757 17.0639C14.1834 17.3927 13.5312 17.5925 12.9122 17.8602L12.4948 18.0531C11.8477 18.3877 11.5028 18.6502 10.8769 18.1487L10.1196 17.4873L8.79103 18.3457ZM11.8116 2.22218C11.7586 2.23466 11.7489 2.24743 11.7192 2.29519L10.6872 4.11771C10.7754 4.29064 10.8663 4.50852 11.0037 4.64656C11.067 4.66589 11.1369 4.66639 11.2027 4.66993C11.2408 4.6691 11.2881 4.67485 11.3196 4.65093L11.9717 3.35296C12.077 3.15003 12.1901 2.9481 12.279 2.73732C12.4008 2.44845 12.0797 2.21028 11.8116 2.22218ZM8.02398 2.22953C7.83403 2.29578 7.72007 2.43814 7.67465 2.62871C7.74853 2.83368 7.85744 3.02978 7.95582 3.22411L8.60294 4.50481C8.69461 4.70381 8.69098 4.70931 8.94665 4.6561C9.07878 4.60989 9.20019 4.32681 9.26098 4.20139L9.29636 4.12515L8.34848 2.37251C8.28003 2.24005 8.16798 2.22116 8.02398 2.22953ZM9.1259 2.45183L9.33682 2.85962C9.50382 3.21435 9.81082 3.6532 9.93515 3.99544C9.97994 3.9948 10.0313 3.99903 10.0745 3.98693C10.1309 3.78015 10.2651 3.58951 10.3751 3.40701L10.8934 2.45427L10.5747 2.49671C10.2113 2.52857 9.48848 2.55203 9.1259 2.45183ZM7.13015 3.02347L6.4039 3.37249C5.92965 3.57273 5.31053 3.72917 4.80519 3.77196C4.91219 4.19864 4.92928 4.50173 5.1329 4.93302C5.21961 5.11668 5.35253 5.28335 5.42453 5.4721C5.64707 6.05539 5.7649 6.62848 5.76923 7.25643C5.77457 8.03352 5.54569 9.1821 4.80236 9.55239C4.79494 9.5561 4.74532 9.5771 4.74269 9.58177C4.73411 9.59698 4.85432 10.3236 4.85923 10.9659L4.85969 11.7859C4.85911 11.981 4.86553 12.1808 4.84244 12.3747L4.72848 13.2236C4.71998 13.2777 4.71798 13.3328 4.7074 13.3865L4.60723 13.8291C4.45173 14.389 4.38269 14.689 4.53498 15.279L4.62486 15.5194C4.88761 16.0989 5.32615 16.4564 5.90978 16.6899L7.01244 17.0813L8.14515 17.6569C8.46107 17.8263 8.5479 17.7829 8.85144 17.5801L9.59069 17.0875C9.61803 17.0706 9.6689 17.0463 9.68711 17.0206C9.43173 16.7094 9.43415 16.6086 9.43757 16.2326L9.43786 10.0384C9.43761 9.42814 9.45794 9.16556 9.66423 8.57506L9.74569 8.34039C9.79115 8.21585 9.75486 8.22531 9.69353 8.10406L7.35069 3.41196C7.29223 3.28892 7.23478 3.12876 7.15144 3.02187L7.13015 3.02347ZM12.8451 3.01113L10.8736 6.99198C10.6797 7.40556 10.5744 7.66489 10.4757 8.12114C10.4068 8.43985 10.4038 8.42352 10.2672 8.72377C10.0417 9.21898 10.0655 9.76514 10.0657 10.2958L10.0658 16.5366C10.117 16.6319 10.2188 16.7174 10.2986 16.7892L10.9716 17.3909C11.1059 17.5127 11.2865 17.7398 11.4737 17.7756L11.4849 17.7778C11.6423 17.8061 11.8281 17.682 11.9614 17.613L13.1452 17.0911C13.3957 16.9973 13.6319 16.8764 13.8761 16.7683C14.0709 16.682 14.2752 16.6124 14.4641 16.5136C15.2797 16.087 15.6712 15.1295 15.4988 14.2449L15.3296 13.5516C15.1741 12.8262 15.1442 12.2371 15.1444 11.5029L15.1919 10.2024C15.2087 9.9956 15.2228 9.79093 15.256 9.58564C14.5532 9.19764 14.3391 8.51706 14.2584 7.75139C14.1732 6.94227 14.2645 6.01185 14.6639 5.29056C14.9719 4.73427 15.0882 4.44431 15.1686 3.77658C14.5626 3.70003 13.9746 3.55564 13.4175 3.30132L12.8451 3.01113ZM10.3319 4.73743C10.3128 4.80885 10.3062 4.88023 10.3031 4.95348L10.3012 6.46677C10.3013 6.54018 10.2918 6.63002 10.3134 6.70064C10.4038 6.57827 10.4542 6.39627 10.5166 6.25623L10.9931 5.30864L10.9689 5.29993C10.6395 5.34756 10.4733 4.95235 10.3319 4.73743ZM9.66678 4.74956C9.53782 4.96818 9.42498 5.21052 9.16057 5.28002C9.10548 5.29448 9.0469 5.29681 8.99311 5.31281L9.44244 6.17839L9.5699 6.42681C9.5874 6.46643 9.60111 6.4956 9.62732 6.52931L9.65065 6.57239C9.66265 6.59173 9.67036 6.61027 9.67836 6.63152L9.6839 5.61527C9.68415 5.32639 9.69336 5.0371 9.66678 4.74956Z" fill="white"/>
<path d="M8.79103 18.3457C8.34898 18.5555 7.96511 18.2859 7.58315 18.0824L6.83919 17.7055C6.23144 17.4284 5.62853 17.3467 5.03657 16.9609C4.36782 16.5252 3.92476 15.7509 3.83847 14.964C3.76177 14.2646 4.01412 13.7345 4.1314 13.0586C4.16582 12.8601 4.17719 12.6525 4.19261 12.4516L4.22394 12.1368L4.22569 10.7638L4.19378 10.3723C4.18673 10.2806 4.18607 10.1893 4.17523 10.0976L4.1232 9.6816C4.05693 9.21468 4.05566 9.17131 4.44836 9.02069C4.8669 8.8601 5.01878 8.35431 5.0834 7.95481C5.19469 7.26706 5.15561 6.5906 4.93173 5.92477C4.84765 5.67481 4.69319 5.46831 4.58486 5.23143C4.38603 4.79643 4.25532 4.30318 4.17303 3.83263C4.09545 3.38882 4.07498 3.20281 4.54107 3.16288L4.89911 3.12599C5.64111 3.0307 6.3554 2.75609 6.98823 2.36132C7.15469 2.25747 7.12811 2.31171 7.21886 2.13183C7.38315 1.80613 7.82903 1.54305 8.19153 1.59918C8.46123 1.64095 8.72561 1.73965 8.99486 1.793C9.62123 1.9171 10.3312 1.9292 10.9568 1.79426C11.156 1.7513 11.3469 1.68026 11.5439 1.63506L11.7718 1.58608C12.2217 1.5252 12.5971 1.82187 12.8056 2.19255C12.847 2.26624 12.858 2.27046 12.9308 2.31234L13.0979 2.41161C13.7271 2.79786 14.3493 3.00224 15.0812 3.12165L15.366 3.16038C15.545 3.17634 15.7259 3.13509 15.8244 3.32816L15.8304 3.34029C15.9613 3.59068 15.5527 4.94693 15.4324 5.19398C15.1458 5.78223 14.9591 6.02781 14.8802 6.70956L14.8611 6.98931C14.8162 7.63085 14.8945 8.75368 15.56 9.02618C15.9714 9.19468 15.9223 9.27977 15.8582 9.70823L15.8235 10.0125C15.8007 10.2136 15.7852 10.4236 15.7766 10.626L15.7708 12.1247C15.7802 12.3613 15.8094 12.5984 15.8393 12.833L15.8972 13.2866C15.9222 13.4361 15.9783 13.575 16.0078 13.7206L16.0571 13.9074C16.4422 15.076 15.8427 16.4715 14.7757 17.0639C14.1834 17.3927 13.5312 17.5925 12.9122 17.8602L12.4948 18.0531C11.8477 18.3877 11.5028 18.6502 10.8769 18.1487L10.1196 17.4873L8.79103 18.3457ZM11.8116 2.22218C11.7586 2.23466 11.7489 2.24743 11.7192 2.29519L10.6872 4.11771C10.7754 4.29064 10.8663 4.50852 11.0037 4.64656C11.067 4.66589 11.1369 4.66639 11.2027 4.66993C11.2408 4.6691 11.2881 4.67485 11.3196 4.65093L11.9717 3.35296C12.077 3.15003 12.1901 2.9481 12.279 2.73732C12.4008 2.44845 12.0797 2.21028 11.8116 2.22218ZM8.02398 2.22953C7.83403 2.29578 7.72007 2.43814 7.67465 2.62871C7.74853 2.83368 7.85744 3.02978 7.95582 3.22411L8.60294 4.50481C8.69461 4.70381 8.69098 4.70931 8.94665 4.6561C9.07878 4.60989 9.20019 4.32681 9.26098 4.20139L9.29636 4.12515L8.34848 2.37251C8.28003 2.24005 8.16798 2.22116 8.02398 2.22953ZM9.1259 2.45183L9.33682 2.85962C9.50382 3.21435 9.81082 3.6532 9.93515 3.99544C9.97994 3.9948 10.0313 3.99903 10.0745 3.98693C10.1309 3.78015 10.2651 3.58951 10.3751 3.40701L10.8934 2.45427L10.5747 2.49671C10.2113 2.52857 9.48848 2.55203 9.1259 2.45183ZM7.13015 3.02347L6.4039 3.37249C5.92965 3.57273 5.31053 3.72917 4.80519 3.77196C4.91219 4.19864 4.92928 4.50173 5.1329 4.93302C5.21961 5.11668 5.35253 5.28335 5.42453 5.4721C5.64707 6.05539 5.7649 6.62848 5.76923 7.25643C5.77457 8.03352 5.54569 9.1821 4.80236 9.55239C4.79494 9.5561 4.74532 9.5771 4.74269 9.58177C4.73411 9.59698 4.85432 10.3236 4.85923 10.9659L4.85969 11.7859C4.85911 11.981 4.86553 12.1808 4.84244 12.3747L4.72848 13.2236C4.71998 13.2777 4.71798 13.3328 4.7074 13.3865L4.60723 13.8291C4.45173 14.389 4.38269 14.689 4.53498 15.279L4.62486 15.5194C4.88761 16.0989 5.32615 16.4564 5.90978 16.6899L7.01244 17.0813L8.14515 17.6569C8.46107 17.8263 8.5479 17.7829 8.85144 17.5801L9.59069 17.0875C9.61803 17.0706 9.6689 17.0463 9.68711 17.0206C9.43173 16.7094 9.43415 16.6086 9.43757 16.2326L9.43786 10.0384C9.43761 9.42814 9.45794 9.16556 9.66423 8.57506L9.74569 8.34039C9.79115 8.21585 9.75486 8.22531 9.69353 8.10406L7.35069 3.41196C7.29223 3.28892 7.23478 3.12876 7.15144 3.02187L7.13015 3.02347ZM12.8451 3.01113L10.8736 6.99198C10.6797 7.40556 10.5744 7.66489 10.4757 8.12114C10.4068 8.43985 10.4038 8.42352 10.2672 8.72377C10.0417 9.21898 10.0655 9.76514 10.0657 10.2958L10.0658 16.5366C10.117 16.6319 10.2188 16.7174 10.2986 16.7892L10.9716 17.3909C11.1059 17.5127 11.2865 17.7398 11.4737 17.7756L11.4849 17.7778C11.6423 17.8061 11.8281 17.682 11.9614 17.613L13.1452 17.0911C13.3957 16.9973 13.6319 16.8764 13.8761 16.7683C14.0709 16.682 14.2752 16.6124 14.4641 16.5136C15.2797 16.087 15.6712 15.1295 15.4988 14.2449L15.3296 13.5516C15.1741 12.8262 15.1442 12.2371 15.1444 11.5029L15.1919 10.2024C15.2087 9.9956 15.2228 9.79093 15.256 9.58564C14.5532 9.19764 14.3391 8.51706 14.2584 7.75139C14.1732 6.94227 14.2645 6.01185 14.6639 5.29056C14.9719 4.73427 15.0882 4.44431 15.1686 3.77658C14.5626 3.70003 13.9746 3.55564 13.4175 3.30132L12.8451 3.01113ZM10.3319 4.73743C10.3128 4.80885 10.3062 4.88023 10.3031 4.95348L10.3012 6.46677C10.3013 6.54018 10.2918 6.63002 10.3134 6.70064C10.4038 6.57827 10.4542 6.39627 10.5166 6.25623L10.9931 5.30864L10.9689 5.29993C10.6395 5.34756 10.4733 4.95235 10.3319 4.73743ZM9.66678 4.74956C9.53782 4.96818 9.42498 5.21052 9.16057 5.28002C9.10548 5.29448 9.0469 5.29681 8.99311 5.31281L9.44244 6.17839L9.5699 6.42681C9.5874 6.46643 9.60111 6.4956 9.62732 6.52931L9.65065 6.57239C9.66265 6.59173 9.67036 6.61027 9.67836 6.63152L9.6839 5.61527C9.68415 5.32639 9.69336 5.0371 9.66678 4.74956Z" stroke="white" stroke-width="0.3" mask="url(#path-1-outside-1_28519_38127)"/>
</svg>
