<svg stroke="currentColor" fill="currentColor" stroke-width="0" viewBox="0 0 24 24" color="white" height="35px" width="35px" xmlns="http://www.w3.org/2000/svg" style="color: white; margin-right: 8px;"><path fill="none" d="M0 0h24v24H0V0z" stroke="#FFFFFF" stroke-width="0px"></path><path d="M21 7.28V5c0-1.1-.9-2-2-2H5a2 2 0 00-2 2v14a2 2 0 002 2h14c1.1 0 2-.9 2-2v-2.28A2 2 0 0022 15V9a2 2 0 00-1-1.72zM20 9v6h-7V9h7zM5 19V5h14v2h-6c-1.1 0-2 .9-2 2v6c0 1.1.9 2 2 2h6v2H5z" stroke="#FFFFFF" fill="#FFFFFF" stroke-width="0px"></path><circle cx="16" cy="12" r="1.5" stroke="#FFFFFF" fill="#FFFFFF" stroke-width="0px"></circle></svg>