<svg width="34" height="40" viewBox="0 0 34 40" fill="none" xmlns="http://www.w3.org/2000/svg">
<g filter="url(#filter0_d_688_5930)">
<path fill-rule="evenodd" clip-rule="evenodd" d="M8.07903 22.331L6.97451 24.0618C6.6548 24.5628 7.00975 25.2235 7.59859 25.2235H26.4014C26.9902 25.2235 27.3452 24.5628 27.0255 24.0618L25.921 22.331C24.8328 20.6257 24.2539 18.6383 24.2539 16.6077V9.60816C24.2539 5.54923 21.0062 2.25882 17 2.25882C12.9938 2.25882 9.74614 5.54923 9.74614 9.60815V16.6077C9.74614 18.6383 9.16723 20.6257 8.07903 22.331ZM17 0C11.7625 0 7.51666 4.30171 7.51666 9.60815L7.51666 16.6077C7.51665 18.2032 7.0618 19.7647 6.20678 21.1045L4.3609 23.9971C3.40178 25.5001 4.46664 27.4824 6.23314 27.4824H27.7669C29.5334 27.4824 30.5982 25.5001 29.6391 23.9971L27.7932 21.1045C26.9382 19.7647 26.4833 18.2032 26.4833 16.6077V9.60816C26.4833 4.30172 22.2375 0 17 0Z" fill="#DBDBDB"/>
<path fill-rule="evenodd" clip-rule="evenodd" d="M11.0547 25.2235H22.9453V25.9765C22.9453 29.3032 20.2835 32 17 32C13.7165 32 11.0547 29.3032 11.0547 25.9765V25.2235ZM13.4543 27.1059C13.9278 28.6333 15.3362 29.7412 17 29.7412C18.6638 29.7412 20.0722 28.6333 20.5457 27.1059H13.4543Z" fill="#DBDBDB"/>
</g>
<defs>
<filter id="filter0_d_688_5930" x="-3" y="0" width="40" height="40" filterUnits="userSpaceOnUse" color-interpolation-filters="sRGB">
<feFlood flood-opacity="0" result="BackgroundImageFix"/>
<feColorMatrix in="SourceAlpha" type="matrix" values="0 0 0 0 0 0 0 0 0 0 0 0 0 0 0 0 0 0 127 0" result="hardAlpha"/>
<feOffset dy="4"/>
<feGaussianBlur stdDeviation="2"/>
<feComposite in2="hardAlpha" operator="out"/>
<feColorMatrix type="matrix" values="0 0 0 0 0 0 0 0 0 0 0 0 0 0 0 0 0 0 0.25 0"/>
<feBlend mode="normal" in2="BackgroundImageFix" result="effect1_dropShadow_688_5930"/>
<feBlend mode="normal" in="SourceGraphic" in2="effect1_dropShadow_688_5930" result="shape"/>
</filter>
</defs>
</svg>
