<svg width="30" height="32" viewBox="0 0 30 32" fill="none" xmlns="http://www.w3.org/2000/svg">
<path fill-rule="evenodd" clip-rule="evenodd" d="M24.5 3H5.5C4.39543 3 3.5 3.89543 3.5 5V27C3.5 28.1046 4.39543 29 5.5 29H24.5C25.6046 29 26.5 28.1046 26.5 27V5C26.5 3.89543 25.6046 3 24.5 3ZM5.5 0C2.73858 0 0.5 2.23858 0.5 5V27C0.5 29.7614 2.73858 32 5.5 32H24.5C27.2614 32 29.5 29.7614 29.5 27V5C29.5 2.23858 27.2614 0 24.5 0H5.5Z" fill="#DBDBDB"/>
<path fill-rule="evenodd" clip-rule="evenodd" d="M7.5 8.5C7.5 7.67157 8.05964 7 8.75 7H21.25C21.9404 7 22.5 7.67157 22.5 8.5C22.5 9.32843 21.9404 10 21.25 10H8.75C8.05964 10 7.5 9.32843 7.5 8.5Z" fill="#DBDBDB"/>
<path fill-rule="evenodd" clip-rule="evenodd" d="M7.5 16C7.5 15.1716 8.05964 14.5 8.75 14.5H21.25C21.9404 14.5 22.5 15.1716 22.5 16C22.5 16.8284 21.9404 17.5 21.25 17.5H8.75C8.05964 17.5 7.5 16.8284 7.5 16Z" fill="#DBDBDB"/>
<path fill-rule="evenodd" clip-rule="evenodd" d="M7.5 23.5C7.5 22.6716 8.05964 22 8.75 22H21.25C21.9404 22 22.5 22.6716 22.5 23.5C22.5 24.3284 21.9404 25 21.25 25H8.75C8.05964 25 7.5 24.3284 7.5 23.5Z" fill="#DBDBDB"/>
</svg>
