<svg width="16" height="16" viewBox="0 0 16 16" fill="none" xmlns="http://www.w3.org/2000/svg">
    <g clip-path="url(#clip0_20154_1505)">
        <g clip-path="url(#clip1_20154_1505)">
            <path
                d="M14.3102 0.856698C10.5469 6.37003 13.8802 1.4867 10.1202 7.00003C10.5214 7.01852 10.9107 7.14141 11.2498 7.35655C11.5889 7.57169 11.8659 7.87163 12.0535 8.2267L15.4135 1.5067C15.4809 1.36179 15.4919 1.19701 15.4444 1.04444C15.3969 0.891869 15.2943 0.762431 15.1567 0.681324C15.019 0.600218 14.8561 0.573248 14.6996 0.605666C14.5431 0.638083 14.4043 0.727568 14.3102 0.856698ZM8.60021 8.4267C8.10021 9.20003 8.66687 11.3334 8.66687 11.3334C8.66687 11.3334 10.8969 11 11.4002 10.24C11.6407 9.86873 11.7238 9.41711 11.6313 8.98452C11.5387 8.55194 11.2782 8.17383 10.9069 7.93336C10.5356 7.6929 10.084 7.60979 9.65137 7.7023C9.21878 7.79482 8.84067 8.0554 8.60021 8.4267Z"
                fill="#262626" />
            <path
                d="M6.00016 13.6667C6.36835 13.6667 6.66683 13.3682 6.66683 13C6.66683 12.6319 6.36835 12.3334 6.00016 12.3334C5.63197 12.3334 5.3335 12.6319 5.3335 13C5.3335 13.3682 5.63197 13.6667 6.00016 13.6667Z"
                fill="#262626" />
            <path
                d="M10.4 12.6666C9.82669 12.6666 9.17669 12.7366 8.80002 12L8.17336 12.09C7.63336 10.03 7.19336 7.85995 9.21669 7.15329L12.2467 2.69662C9.07669 -2.40005 -0.189975 1.26329 0.356692 8.58662C0.452826 9.78698 0.829638 10.948 1.45675 11.976C2.08387 13.004 2.94375 13.8703 3.96707 14.5051C4.99039 15.1398 6.14854 15.5253 7.34815 15.6303C8.54776 15.7354 9.75527 15.5571 10.8734 15.11C11.1439 14.998 11.3673 14.7959 11.506 14.5381C11.6447 14.2803 11.69 13.9824 11.6343 13.695C11.5787 13.4076 11.4254 13.1482 11.2005 12.9608C10.9755 12.7734 10.6928 12.6695 10.4 12.6666ZM3.66669 3.99995C3.99633 3.99995 4.31856 4.0977 4.59264 4.28084C4.86672 4.46397 5.08035 4.72427 5.20649 5.02881C5.33264 5.33336 5.36564 5.66847 5.30133 5.99177C5.23703 6.31507 5.07829 6.61204 4.8452 6.84513C4.61212 7.07822 4.31514 7.23695 3.99184 7.30126C3.66854 7.36557 3.33343 7.33257 3.02889 7.20642C2.72434 7.08027 2.46404 6.86665 2.28091 6.59257C2.09777 6.31849 2.00003 5.99626 2.00003 5.66662C2.00003 5.22459 2.17562 4.80067 2.48818 4.48811C2.80074 4.17555 3.22466 3.99995 3.66669 3.99995ZM3.00003 11.3333C2.73632 11.3333 2.47853 11.2551 2.25926 11.1086C2.04 10.9621 1.8691 10.7538 1.76819 10.5102C1.66727 10.2666 1.64086 9.99847 1.69231 9.73983C1.74376 9.48119 1.87075 9.24361 2.05722 9.05714C2.24369 8.87067 2.48126 8.74369 2.7399 8.69224C2.99855 8.64079 3.26664 8.6672 3.51027 8.76811C3.7539 8.86903 3.96214 9.03993 4.10865 9.25919C4.25516 9.47846 4.33336 9.73624 4.33336 9.99995C4.33336 10.3536 4.19288 10.6927 3.94283 10.9428C3.69279 11.1928 3.35365 11.3333 3.00003 11.3333ZM6.00002 14.3333C5.73632 14.3333 5.47853 14.2551 5.25926 14.1086C5.04 13.9621 4.8691 13.7538 4.76819 13.5102C4.66727 13.2666 4.64086 12.9985 4.69231 12.7398C4.74376 12.4812 4.87075 12.2436 5.05722 12.0571C5.24369 11.8707 5.48126 11.7437 5.7399 11.6922C5.99855 11.6408 6.26663 11.6672 6.51027 11.7681C6.7539 11.869 6.96214 12.0399 7.10865 12.2592C7.25516 12.4785 7.33336 12.7362 7.33336 13C7.33336 13.3536 7.19288 13.6927 6.94283 13.9428C6.69279 14.1928 6.35365 14.3333 6.00002 14.3333ZM6.33336 2.99995C6.33336 2.67032 6.43111 2.34808 6.61424 2.074C6.79738 1.79992 7.05768 1.5863 7.36222 1.46015C7.66676 1.33401 8.00187 1.301 8.32518 1.36531C8.64848 1.42962 8.94545 1.58835 9.17854 1.82144C9.41162 2.05453 9.57036 2.3515 9.63467 2.6748C9.69898 2.9981 9.66597 3.33322 9.53982 3.63776C9.41368 3.9423 9.20006 4.2026 8.92598 4.38574C8.65189 4.56887 8.32966 4.66662 8.00002 4.66662C7.558 4.66662 7.13407 4.49102 6.82151 4.17846C6.50895 3.8659 6.33336 3.44198 6.33336 2.99995Z"
                fill="#262626" />
            <path
                d="M3.6665 6.66663C4.21879 6.66663 4.6665 6.21891 4.6665 5.66663C4.6665 5.11434 4.21879 4.66663 3.6665 4.66663C3.11422 4.66663 2.6665 5.11434 2.6665 5.66663C2.6665 6.21891 3.11422 6.66663 3.6665 6.66663Z"
                fill="#262626" />
            <path
                d="M8 4C8.55228 4 9 3.55228 9 3C9 2.44772 8.55228 2 8 2C7.44772 2 7 2.44772 7 3C7 3.55228 7.44772 4 8 4Z"
                fill="#262626" />
            <path
                d="M3.00016 10.6667C3.36835 10.6667 3.66683 10.3682 3.66683 10C3.66683 9.63185 3.36835 9.33337 3.00016 9.33337C2.63197 9.33337 2.3335 9.63185 2.3335 10C2.3335 10.3682 2.63197 10.6667 3.00016 10.6667Z"
                fill="#262626" />
        </g>
    </g>
    <defs>
        <clipPath id="clip0_20154_1505">
            <rect width="16" height="16" fill="white" />
        </clipPath>
        <clipPath id="clip1_20154_1505">
            <rect width="16" height="16" fill="white" />
        </clipPath>
    </defs>
</svg>