<svg width="59" height="59" viewBox="0 0 59 59" fill="none" xmlns="http://www.w3.org/2000/svg">
<rect x="12.4233" width="48" height="48" rx="8" transform="rotate(15 12.4233 0)" fill="white"/>
<g filter="url(#filter0_b_21782_6046)">
<rect x="1" y="10" width="48" height="48" rx="8" fill="black" fill-opacity="0.75"/>
<rect x="1.5" y="10.5" width="47" height="47" rx="7.5" stroke="white"/>
<path d="M19 38C19 40.2091 20.7909 42 23 42H27C29.2091 42 31 40.2091 31 38C31 35.7909 29.2091 34 27 34H23C20.7909 34 19 32.2091 19 30C19 27.7909 20.7909 26 23 26H27C29.2091 26 31 27.7909 31 30M25 24V44" stroke="white" stroke-width="2" stroke-linecap="round" stroke-linejoin="round"/>
</g>
<defs>
<filter id="filter0_b_21782_6046" x="-15" y="-6" width="80" height="80" filterUnits="userSpaceOnUse" color-interpolation-filters="sRGB">
<feFlood flood-opacity="0" result="BackgroundImageFix"/>
<feGaussianBlur in="BackgroundImageFix" stdDeviation="8"/>
<feComposite in2="SourceAlpha" operator="in" result="effect1_backgroundBlur_21782_6046"/>
<feBlend mode="normal" in="SourceGraphic" in2="effect1_backgroundBlur_21782_6046" result="shape"/>
</filter>
</defs>
</svg>
