<svg width="265" height="258" viewBox="0 0 265 258" fill="none" xmlns="http://www.w3.org/2000/svg">
<path d="M23.4783 50.6957C12.7207 50.6957 4 59.4164 4 70.1739V234.522C4 245.279 12.7207 254 23.4783 254H224.957C235.714 254 244.435 245.279 244.435 234.522V185.826M23.4783 50.6957L192.95 4.73732C198.036 3.35793 203.044 7.18821 203.044 12.4584V50.6957M23.4783 50.6957H203.044M244.435 120.087H181.131C162.977 120.087 148.261 134.803 148.261 152.957C148.261 171.11 162.977 185.826 181.131 185.826H244.435M244.435 120.087H250.522C255.901 120.087 260.261 124.447 260.261 129.826V176.087C260.261 181.466 255.901 185.826 250.522 185.826H244.435M244.435 120.087V70.1739C244.435 59.4164 235.714 50.6957 224.957 50.6957H203.044" stroke="white" stroke-width="8"/>
</svg>
