<svg width="10" height="12" viewBox="0 0 10 12" fill="none" xmlns="http://www.w3.org/2000/svg">
<path fill-rule="evenodd" clip-rule="evenodd" d="M5.27793 0C2.02695 0 0.384613 2.34635 0.384613 4.30748C0.384613 4.67519 0.426724 5.01663 0.510947 5.34057C0.704658 6.07599 1.11735 6.66258 1.79113 6.94274C1.95115 7.01278 2.0859 6.94274 2.13644 6.76764C2.17013 6.64507 2.24593 6.33864 2.27962 6.21607C2.32173 6.04097 2.30488 5.97969 2.17855 5.83085C2.0101 5.62949 1.88377 5.40186 1.80797 5.11294C1.75744 4.92908 1.73217 4.71896 1.73217 4.47382C1.73217 2.73157 3.02919 1.17317 5.10949 1.17317C6.94553 1.17317 7.96462 2.30257 7.96462 3.81719C7.96462 4.2637 7.92251 4.6927 7.83829 5.09543C7.52667 6.46997 6.77709 7.4768 5.77484 7.4768C5.05895 7.4768 4.51993 6.88146 4.68837 6.15479C4.78944 5.73455 4.93262 5.30555 5.05053 4.90282C5.18529 4.45631 5.29478 4.03607 5.29478 3.71213C5.29478 3.14306 4.99157 2.67904 4.36833 2.67904C3.6356 2.67904 3.04604 3.44073 3.04604 4.45631C3.04604 4.64892 3.07131 4.82402 3.09657 4.97286C3.16395 5.33182 3.26502 5.55069 3.26502 5.55069C3.26502 5.55069 2.51544 8.74628 2.38068 9.3066C2.11959 10.4272 2.33857 11.7843 2.35542 11.9244C2.36384 12.0032 2.47333 12.0294 2.52386 11.9594C2.59124 11.8718 3.45873 10.7862 3.76193 9.70933C3.84615 9.40291 4.242 7.80949 4.242 7.80949C4.47782 8.26475 5.17686 8.66748 5.91802 8.66748C7.71196 8.66748 9.03425 7.32796 9.46378 5.36684C9.56485 4.92033 9.61538 4.4388 9.61538 3.93977C9.61538 1.89984 7.89725 0 5.27793 0Z" fill="#808080"/>
</svg>
