<svg width="16" height="17" viewBox="0 0 16 17" fill="none" xmlns="http://www.w3.org/2000/svg">
<path d="M6.76252 4.91838C7.28692 3.61105 7.54912 2.95738 8.00001 2.95738C8.45089 2.95738 8.71309 3.61105 9.23749 4.91838L9.26191 4.97926C9.55817 5.71784 9.70631 6.08713 10.0082 6.31159C10.3101 6.53604 10.7064 6.57154 11.499 6.64252L11.6423 6.65535C12.9395 6.77153 13.5881 6.82962 13.7269 7.24227C13.8657 7.65493 13.384 8.09316 12.4207 8.96962L12.0991 9.26213C11.6115 9.70581 11.3676 9.92765 11.254 10.2184C11.2328 10.2726 11.2152 10.3282 11.2012 10.3847C11.1265 10.6879 11.1979 11.0097 11.3407 11.6533L11.3852 11.8537C11.6476 13.0366 11.7788 13.628 11.5497 13.8831C11.4641 13.9784 11.3528 14.0471 11.2292 14.0808C10.8984 14.1711 10.4288 13.7884 9.48948 13.023C8.87269 12.5204 8.5643 12.2691 8.21024 12.2126C8.07096 12.1903 7.92905 12.1903 7.78978 12.2126C7.43571 12.2691 7.12732 12.5204 6.51054 13.023C5.57123 13.7884 5.10158 14.1711 4.77078 14.0808C4.64717 14.0471 4.5359 13.9784 4.45028 13.8831C4.22116 13.628 4.35239 13.0366 4.61484 11.8537L4.65929 11.6533C4.80209 11.0097 4.8735 10.6879 4.79879 10.3847C4.78486 10.3282 4.76723 10.2726 4.74603 10.2184C4.63238 9.92765 4.38855 9.70581 3.90088 9.26213L3.57936 8.96962C2.61599 8.09316 2.13431 7.65493 2.2731 7.24227C2.41188 6.82962 3.06049 6.77153 4.3577 6.65535L4.50099 6.64252C5.2936 6.57154 5.68991 6.53604 5.99181 6.31159C6.29371 6.08713 6.44184 5.71784 6.7381 4.97926L6.76252 4.91838Z" stroke="#2BCFA1" stroke-width="2"/>
</svg>
