<svg width="16" height="16" viewBox="0 0 16 16" fill="none" xmlns="http://www.w3.org/2000/svg">
<g clip-path="url(#clip0_2891_12096)">
<path fill-rule="evenodd" clip-rule="evenodd" d="M5.5 1.5H2C1.72386 1.5 1.5 1.72386 1.5 2V5.5C1.5 5.77614 1.72386 6 2 6H5.5C5.77614 6 6 5.77614 6 5.5V2C6 1.72386 5.77614 1.5 5.5 1.5ZM2 0C0.895431 0 0 0.89543 0 2V5.5C0 6.60457 0.89543 7.5 2 7.5H5.5C6.60457 7.5 7.5 6.60457 7.5 5.5V2C7.5 0.895431 6.60457 0 5.5 0H2Z" fill="#79E8C9"/>
<path fill-rule="evenodd" clip-rule="evenodd" d="M5.5 10H2C1.72386 10 1.5 10.2239 1.5 10.5V14C1.5 14.2761 1.72386 14.5 2 14.5H5.5C5.77614 14.5 6 14.2761 6 14V10.5C6 10.2239 5.77614 10 5.5 10ZM2 8.5C0.895431 8.5 0 9.39543 0 10.5V14C0 15.1046 0.89543 16 2 16H5.5C6.60457 16 7.5 15.1046 7.5 14V10.5C7.5 9.39543 6.60457 8.5 5.5 8.5H2Z" fill="#79E8C9"/>
<path fill-rule="evenodd" clip-rule="evenodd" d="M14 1.5H10.5C10.2239 1.5 10 1.72386 10 2V5.5C10 5.77614 10.2239 6 10.5 6H14C14.2761 6 14.5 5.77614 14.5 5.5V2C14.5 1.72386 14.2761 1.5 14 1.5ZM10.5 0C9.39543 0 8.5 0.89543 8.5 2V5.5C8.5 6.60457 9.39543 7.5 10.5 7.5H14C15.1046 7.5 16 6.60457 16 5.5V2C16 0.895431 15.1046 0 14 0H10.5Z" fill="#79E8C9"/>
<path fill-rule="evenodd" clip-rule="evenodd" d="M14 10H10.5C10.2239 10 10 10.2239 10 10.5V14C10 14.2761 10.2239 14.5 10.5 14.5H14C14.2761 14.5 14.5 14.2761 14.5 14V10.5C14.5 10.2239 14.2761 10 14 10ZM10.5 8.5C9.39543 8.5 8.5 9.39543 8.5 10.5V14C8.5 15.1046 9.39543 16 10.5 16H14C15.1046 16 16 15.1046 16 14V10.5C16 9.39543 15.1046 8.5 14 8.5H10.5Z" fill="#79E8C9"/>
</g>
<defs>
<clipPath id="clip0_2891_12096">
<rect width="16" height="16" fill="white"/>
</clipPath>
</defs>
</svg>
