<svg width="20" height="21" viewBox="0 0 20 21" fill="none" xmlns="http://www.w3.org/2000/svg">
<path d="M4.54541 7.8909L5.22723 16.0727C5.22723 16.5549 5.41878 17.0174 5.75976 17.3584C6.10074 17.6994 6.5632 17.8909 7.04541 17.8909H12.9545C13.4367 17.8909 13.8991 17.6994 14.2401 17.3584C14.5811 17.0174 14.7727 16.5549 14.7727 16.0727L15.4545 7.8909" stroke="#C6243D" stroke-width="1.5" stroke-linecap="round" stroke-linejoin="round"/>
<path d="M11.3635 11.0727V15.1545" stroke="#C6243D" stroke-width="1.5" stroke-linecap="round" stroke-linejoin="round"/>
<path d="M8.63647 11.0727V15.1545" stroke="#C6243D" stroke-width="1.5" stroke-linecap="round" stroke-linejoin="round"/>
<path d="M3.63647 5.84546H16.3637" stroke="#C6243D" stroke-width="1.5" stroke-linecap="round" stroke-linejoin="round"/>
<path d="M12.2727 5.84547V4.02729C12.2727 3.78619 12.1769 3.55495 12.0065 3.38447C11.836 3.21398 11.6047 3.11819 11.3637 3.11819H8.63639C8.39529 3.11819 8.16405 3.21398 7.99356 3.38447C7.82308 3.55495 7.72729 3.78619 7.72729 4.02729V5.84547" stroke="#C6243D" stroke-width="1.5" stroke-linecap="round" stroke-linejoin="round"/>
</svg>
