<svg width="25" height="28" viewBox="0 0 25 28" fill="none" xmlns="http://www.w3.org/2000/svg">
    <path
        d="M24.5432 6.75162L12.7901 0.0910986C12.5765 -0.0303662 12.3124 -0.0303662 12.0988 0.0910986L0.34568 6.75162C0.132031 6.87308 0 7.09714 0 7.34007V20.6611C0 20.904 0.132031 21.1281 0.34568 21.2496L12.0988 27.9089C12.3124 28.0304 12.5765 28.0304 12.7901 27.9089L24.5432 21.2496C24.7569 21.1281 24.8889 20.904 24.8889 20.6611V7.34243C24.8889 7.0995 24.7581 6.87426 24.5432 6.75162ZM12.4444 1.46495L23.3105 7.6231C21.6097 8.57477 20.0818 9.79649 18.7879 11.2387C16.3297 8.39198 12.9162 5.58178 8.27949 3.82585L12.4444 1.46495ZM21.2425 15.9004C20.9328 15.9004 20.6519 15.72 20.5271 15.4405C20.3663 15.0525 20.5547 14.6091 20.9508 14.4499C21.3457 14.2919 21.797 14.477 21.959 14.8662C21.9974 14.957 22.0166 15.0549 22.0166 15.1527C22.0166 15.2506 21.9974 15.3485 21.959 15.4393C21.8354 15.7188 21.5545 15.8992 21.2437 15.9004H21.2425ZM21.2425 13.6197C21.0564 13.6197 20.8728 13.6551 20.6987 13.7211C20.2558 13.0784 19.7757 12.4239 19.2344 11.7647C20.3927 10.4628 21.7466 9.34247 23.2505 8.44505C22.4679 10.122 21.815 11.8531 21.2965 13.6256C21.2773 13.6256 21.2605 13.6197 21.2413 13.6197H21.2425ZM18.3318 11.7576C17.0835 13.2341 16.0825 14.8485 15.2795 16.4641C14.8918 10.9357 10.566 6.60421 8.24348 4.53813C12.6941 6.2693 15.9708 9.00166 18.3318 11.7576ZM14.7958 18.8686C14.4861 18.8686 14.2052 18.6882 14.0804 18.4099C14.042 18.3191 14.0228 18.2212 14.0228 18.1221C14.0144 17.7011 14.3541 17.3521 14.7826 17.3438C15.2111 17.3356 15.5664 17.6693 15.5748 18.0903C15.5832 18.5113 15.2435 18.8604 14.815 18.8686H14.7958ZM14.5833 16.6091C14.4501 16.6256 14.3193 16.6575 14.1944 16.7058C12.5669 14.5183 10.6116 12.5855 8.39592 10.9722C8.53515 10.7411 8.60837 10.4781 8.61077 10.2092C8.61077 9.49224 8.10305 8.87077 7.39129 8.7151V4.69969C9.52658 6.55704 14.2353 10.9722 14.5833 16.6091ZM7.76217 10.4958C7.58933 10.8838 7.12963 11.0607 6.73474 10.8909C6.5547 10.813 6.41066 10.6727 6.33265 10.4958C6.29424 10.405 6.27503 10.3083 6.27503 10.2104C6.28824 9.7906 6.64472 9.4604 7.07082 9.47337C7.48011 9.48517 7.80899 9.80829 7.82099 10.2104C7.82099 10.3083 7.80058 10.4062 7.76217 10.4958ZM6.69873 4.72209V8.71628C6.33265 8.79883 6.00977 9.00874 5.78892 9.3071C4.51183 8.59364 3.17353 7.98985 1.78961 7.50517L6.69873 4.72327V4.72209ZM1.38511 8.7092C2.41855 10.2128 4.44822 13.4216 5.6773 17.0089C5.66409 17.0172 5.64849 17.0242 5.63529 17.0337C4.32219 15.9157 2.89866 14.931 1.38392 14.0949V8.7092H1.38511ZM7.29047 18.3002C7.29047 18.3981 7.27006 18.496 7.23285 18.5856C7.06001 18.9736 6.59911 19.1505 6.20422 18.9806C6.02418 18.9028 5.88134 18.7625 5.80213 18.5856C5.64129 18.1964 5.83213 17.7542 6.22822 17.5962C6.62431 17.4382 7.07442 17.6257 7.23525 18.0148C7.27246 18.1056 7.29167 18.2023 7.29167 18.3002H7.29047ZM6.66152 23.259L1.38511 20.2708V14.8815C2.72582 15.6539 3.99091 16.549 5.16118 17.5537C4.73388 18.279 4.98714 19.2071 5.72531 19.6269C5.93776 19.7472 6.17661 19.8168 6.42147 19.8285C6.63872 20.9795 6.74674 22.1376 6.66272 23.259H6.66152ZM7.32407 23.6352C7.4621 22.351 7.36368 21.0279 7.12123 19.7153C7.19444 19.6835 7.26526 19.6458 7.33248 19.6033C9.2013 21.6081 10.7761 23.8593 12.0099 26.2933L7.32287 23.6352H7.32407ZM12.3844 25.515C11.1566 23.2013 9.6238 21.0562 7.82459 19.1363C8.2963 18.4299 8.09585 17.4806 7.37689 17.0172C7.12123 16.8521 6.82236 16.7648 6.51629 16.766C6.45747 16.7683 6.39986 16.7742 6.34225 16.7825C5.07596 13.0666 2.98508 9.79295 1.93124 8.27877C3.16752 8.73397 4.3654 9.28587 5.51166 9.92975C5.49365 10.0217 5.48405 10.1149 5.48285 10.2081C5.48285 11.056 6.18381 11.7423 7.04681 11.7423C7.36128 11.7423 7.66975 11.6479 7.92901 11.4734C10.1111 13.0536 12.0352 14.9523 13.6339 17.1021C13.0602 17.7212 13.1058 18.6811 13.7359 19.2448C13.82 19.3203 13.9124 19.3863 14.012 19.4417C13.2894 21.4158 12.7457 23.4477 12.3856 25.515H12.3844ZM12.9654 26.2414C13.3122 23.9925 13.8812 21.7826 14.665 19.6422C14.7082 19.6422 14.7502 19.6552 14.7958 19.6552C14.965 19.6528 15.1331 19.6245 15.2927 19.5691C16.0969 20.9052 16.793 22.3015 17.3728 23.7449L12.9666 26.2414H12.9654ZM17.9765 23.4017C17.3896 21.9571 16.6886 20.5597 15.882 19.2212C16.4978 18.6398 16.5182 17.6776 15.9264 17.0714C15.888 17.0325 15.8472 16.9948 15.8052 16.9606C16.5854 15.3591 17.554 13.7553 18.7783 12.2906C19.2716 12.8956 19.7133 13.497 20.1226 14.0867C19.5237 14.6905 19.5357 15.6563 20.1502 16.2436C20.2738 16.3615 20.4167 16.4594 20.5727 16.5313C20.1802 18.4229 19.9738 20.3474 19.9558 22.2779L17.9777 23.4006L17.9765 23.4017ZM20.6519 21.8864C20.6951 20.1399 20.8956 18.3993 21.2509 16.6881C21.4009 16.6858 21.5509 16.661 21.6938 16.6162C22.3599 17.8073 22.9372 19.0443 23.4222 20.3168L20.6519 21.8864ZM23.5038 18.6941C23.1965 18.0007 22.7908 17.1752 22.2927 16.2801C22.9276 15.7188 22.9793 14.7577 22.4067 14.1338C22.2807 13.9959 22.1295 13.8815 21.9602 13.7966C22.3863 12.352 22.9024 10.9345 23.5062 9.55238L23.5038 18.6929V18.6941Z"
        fill="white" />
</svg>