<svg xmlns="http://www.w3.org/2000/svg" width="16" height="16" viewBox="0 0 16 16" fill="none">
  <path d="M7.875 6.25C7.875 6.18096 7.93096 6.125 8 6.125C8.06904 6.125 8.125 6.18096 8.125 6.25C8.125 6.31904 8.06904 6.375 8 6.375C7.93096 6.375 7.875 6.31904 7.875 6.25Z" fill="white" stroke="CurrentColor" stroke-width="1.5"/>
  <path d="M5.9258 12.0002C2.34518 5.95775 6.49205 2.03337 7.6933 1.10525C7.78106 1.03703 7.88903 1 8.00018 1C8.11133 1 8.21931 1.03703 8.30706 1.10525C9.50831 2.03337 13.6552 5.95775 10.0746 12.0002H5.9258Z" stroke="CurrentColor" stroke-linecap="round" stroke-linejoin="round"/>
  <path d="M11.4898 6.92969L13.3842 9.20219C13.4331 9.26096 13.4679 9.33017 13.4859 9.4045C13.5039 9.47883 13.5046 9.5563 13.488 9.63094L12.7155 13.1078C12.6971 13.1907 12.6578 13.2676 12.6015 13.3311C12.5451 13.3947 12.4735 13.4428 12.3934 13.471C12.3133 13.4992 12.2273 13.5066 12.1436 13.4923C12.0599 13.4781 11.9811 13.4428 11.9148 13.3897L10.0742 11.9997" stroke="CurrentColor" stroke-linecap="round" stroke-linejoin="round"/>
  <path d="M4.51011 6.92969L2.61574 9.20219C2.56681 9.26096 2.53201 9.33017 2.51403 9.4045C2.49604 9.47883 2.49534 9.5563 2.51199 9.63094L3.28449 13.1078C3.30291 13.1907 3.34214 13.2676 3.39849 13.3311C3.45483 13.3947 3.52644 13.4428 3.60655 13.471C3.68666 13.4992 3.77263 13.5066 3.85636 13.4923C3.94009 13.4781 4.01882 13.4428 4.08511 13.3897L5.92574 11.9997" stroke="CurrentColor" stroke-linecap="round" stroke-linejoin="round"/>
  <path d="M6.66602 13.334C6.66602 14.6673 7.99935 15.334 7.99935 15.334C7.99935 15.334 9.33268 14.6673 9.33268 13.334" stroke="CurrentColor" stroke-width="0.8" stroke-linecap="round" stroke-linejoin="round"/>
</svg>