<svg width="24" height="24" viewBox="0 0 24 24" fill="none" xmlns="http://www.w3.org/2000/svg">
<g clip-path="url(#clip0_3148_13979)">
<path d="M24 12C24 18.6274 18.6274 24 12 24C5.37258 24 0 18.6274 0 12C0 5.37258 5.37258 0 12 0C18.6274 0 24 5.37258 24 12Z" fill="#757575"/>
<path d="M12.4732 14.0701C12.4732 14.4336 12.1816 14.7282 11.8218 14.7282C11.4621 14.7282 11.1704 14.4336 11.1704 14.0701V13.6C11.1704 13.249 11.2076 12.9356 11.2821 12.6598C11.3689 12.3715 11.4806 12.1145 11.6171 11.8889C11.766 11.6632 11.9273 11.4627 12.101 11.2872C12.2871 11.0991 12.4732 10.9174 12.6593 10.7419L13.1805 10.2718C13.4907 10.0211 13.745 9.73276 13.9436 9.40684C14.1545 9.08091 14.26 8.6735 14.26 8.18462C14.26 7.83362 14.1979 7.52023 14.0738 7.24445C13.9498 6.96866 13.7823 6.73675 13.5713 6.54872C13.3604 6.36068 13.1122 6.21652 12.8269 6.11624C12.5539 6.01595 12.2561 5.96581 11.9335 5.96581C11.2635 5.96581 10.7175 6.17265 10.2957 6.58633C10.0292 6.85549 9.82847 7.17243 9.69338 7.53713C9.56946 7.87166 9.24676 8.11485 8.89859 8.05278C8.55134 7.99087 8.31626 7.65126 8.42813 7.31341C8.65456 6.62955 9.02271 6.0738 9.53258 5.64615C10.2026 5.08205 11.0215 4.8 11.9893 4.8C12.4856 4.8 12.9509 4.87521 13.3852 5.02564C13.8319 5.16353 14.2165 5.37664 14.5391 5.66496C14.8617 5.94074 15.1161 6.28547 15.3022 6.69915C15.5007 7.11282 15.6 7.58291 15.6 8.1094C15.6 8.51054 15.5566 8.86154 15.4697 9.16239C15.3829 9.46325 15.2588 9.73276 15.0975 9.97094C14.9486 10.2091 14.7687 10.4285 14.5577 10.6291C14.3468 10.8171 14.1235 11.0114 13.8877 11.212C13.6272 11.4251 13.4038 11.6194 13.2177 11.7949C13.044 11.9704 12.9013 12.1584 12.7896 12.359C12.678 12.547 12.5973 12.7601 12.5477 12.9983C12.498 13.2365 12.4732 13.5248 12.4732 13.8632V14.0701ZM12.8269 16.9846C12.8269 17.2479 12.7338 17.486 12.5477 17.6991C12.3616 17.8997 12.1196 18 11.8218 18C11.524 18 11.2821 17.8997 11.096 17.6991C10.9098 17.486 10.8168 17.2479 10.8168 16.9846C10.8168 16.7214 10.9098 16.4895 11.096 16.2889C11.2821 16.0758 11.524 15.9692 11.8218 15.9692C12.1196 15.9692 12.3616 16.0758 12.5477 16.2889C12.7338 16.4895 12.8269 16.7214 12.8269 16.9846Z" fill="black"/>
</g>
<defs>
<clipPath id="clip0_3148_13979">
<rect width="24" height="24" fill="white"/>
</clipPath>
</defs>
</svg>
