<svg width="20" height="20" viewBox="0 0 20 20" fill="none" xmlns="http://www.w3.org/2000/svg">
<path d="M7.91176 7.5H6.19965C5.81118 7.5 5.61695 7.5 5.43416 7.54521C5.27211 7.5853 5.11718 7.65142 4.97508 7.74114C4.8148 7.84233 4.67745 7.98382 4.40277 8.26682L3.24429 9.46045C2.96961 9.74345 2.83226 9.88491 2.73404 10.0501C2.64696 10.1965 2.58279 10.3561 2.54388 10.5231C2.5 10.7114 2.5 10.9115 2.5 11.3117V14.8818C2.5 15.7983 2.5 16.2565 2.67311 16.6065C2.82538 16.9145 3.06835 17.1647 3.36719 17.3216C3.70694 17.5 4.15169 17.5 5.04118 17.5H14.9588C15.8483 17.5 16.293 17.5 16.6328 17.3216C16.9317 17.1647 17.1746 16.9145 17.3269 16.6065C17.5 16.2565 17.5 15.7983 17.5 14.8818V11.3117C17.5 10.9115 17.5 10.7114 17.4561 10.5231C17.4172 10.3561 17.353 10.1965 17.266 10.0501C17.1677 9.88491 17.0304 9.74345 16.7557 9.46045L15.5972 8.26682C15.3225 7.98382 15.1852 7.84233 15.0249 7.74114C14.8829 7.65142 14.7279 7.5853 14.5658 7.54521C14.3831 7.5 14.1888 7.5 13.8004 7.5H12.0882" stroke="CurrentColor" stroke-width="1.5"/>
<path d="M17.5 11.25H15.2425C14.6286 11.25 14.3217 11.25 14.0906 11.4073C13.8596 11.5646 13.7625 11.8396 13.5684 12.3896L13.4904 12.6104C13.2963 13.1604 13.1992 13.4354 12.9682 13.5927C12.7371 13.75 12.4302 13.75 11.8163 13.75H8.18369C7.56982 13.75 7.26289 13.75 7.03181 13.5927C6.80073 13.4354 6.70367 13.1604 6.50954 12.6104L6.43163 12.3896C6.23751 11.8396 6.14045 11.5646 5.90937 11.4073C5.67829 11.25 5.37135 11.25 4.75748 11.25H2.5" stroke="CurrentColor" stroke-width="1.5"/>
<path d="M11.6667 5.41667H12.25C12.3881 5.41667 12.5 5.52858 12.5 5.66667V8.5C12.5 8.63808 12.3881 8.75 12.25 8.75H7.75C7.61193 8.75 7.5 8.63808 7.5 8.5V5.66667C7.5 5.52858 7.61193 5.41667 7.75 5.41667H8.33333M11.6667 5.41667V4.16667C11.6667 3.61111 11.3333 2.5 10 2.5C8.66667 2.5 8.33333 3.61111 8.33333 4.16667V5.41667M11.6667 5.41667H8.33333" stroke="CurrentColor" stroke-linecap="round" stroke-linejoin="round"/>
</svg>
