<svg width="16" height="16" viewBox="0 0 16 16" fill="none" xmlns="http://www.w3.org/2000/svg">
<path fill-rule="evenodd" clip-rule="evenodd" d="M4.75 5.25C4.75 4.83579 5.02653 4.5 5.36765 4.5H11.1324C11.4735 4.5 11.75 4.83579 11.75 5.25C11.75 5.66421 11.4735 6 11.1324 6H5.36765C5.02653 6 4.75 5.66421 4.75 5.25ZM5.36765 7.5C5.02653 7.5 4.75 7.83579 4.75 8.25C4.75 8.66421 5.02653 9 5.36765 9H11.1324C11.4735 9 11.75 8.66421 11.75 8.25C11.75 7.83579 11.4735 7.5 11.1324 7.5H5.36765ZM4.75 11.25C4.75 10.8358 5.02653 10.5 5.36765 10.5H11.1324C11.4735 10.5 11.75 10.8358 11.75 11.25C11.75 11.6642 11.4735 12 11.1324 12H5.36765C5.02653 12 4.75 11.6642 4.75 11.25Z" fill="#2EC99E"/>
<path d="M5.36765 4.5C5.02653 4.5 4.75 4.83579 4.75 5.25C4.75 5.66421 5.02653 6 5.36765 6H11.1324C11.4735 6 11.75 5.66421 11.75 5.25C11.75 4.83579 11.4735 4.5 11.1324 4.5H5.36765Z" fill="#2EC99E"/>
<path d="M5.36765 7.5C5.02653 7.5 4.75 7.83579 4.75 8.25C4.75 8.66421 5.02653 9 5.36765 9H11.1324C11.4735 9 11.75 8.66421 11.75 8.25C11.75 7.83579 11.4735 7.5 11.1324 7.5H5.36765Z" fill="#2EC99E"/>
<path d="M5.36765 10.5C5.02653 10.5 4.75 10.8358 4.75 11.25C4.75 11.6642 5.02653 12 5.36765 12H11.1324C11.4735 12 11.75 11.6642 11.75 11.25C11.75 10.8358 11.4735 10.5 11.1324 10.5H5.36765Z" fill="#2EC99E"/>
<path fill-rule="evenodd" clip-rule="evenodd" d="M7.99999 1.5C4.39599 1.5 1.5 4.39599 1.5 8C1.5 11.604 4.39599 14.5 7.99999 14.5H13.5C14.0523 14.5 14.5 14.0523 14.5 13.5V8.10811C14.5 4.4778 11.5779 1.5 7.99999 1.5ZM7.99999 0C3.56756 0 0 3.56757 0 8C0 12.4324 3.56756 16 7.99999 16H14C15.1046 16 16 15.1046 16 14V8.10811C16 3.67568 12.4324 0 7.99999 0Z" fill="#C2C2C2"/>
</svg>
