<svg width="59" height="59" viewBox="0 0 59 59" fill="none" xmlns="http://www.w3.org/2000/svg">
<rect x="12.4238" width="48" height="48" rx="8" transform="rotate(15 12.4238 0)" fill="white"/>
<g filter="url(#filter0_b_27862_82511)">
<rect x="1" y="10" width="48" height="48" rx="8" fill="black" fill-opacity="0.75"/>
<rect x="1.5" y="10.5" width="47" height="47" rx="7.5" stroke="white"/>
<path d="M21.2941 31H20.4396C19.9734 31 19.7403 31 19.521 31.0543C19.3265 31.1024 19.1406 31.1817 18.9701 31.2894C18.7778 31.4108 18.6129 31.5806 18.2833 31.9202L16.8931 33.3525C16.5635 33.6921 16.3987 33.8619 16.2809 34.0601C16.1764 34.2357 16.0993 34.4273 16.0527 34.6277C16 34.8536 16 35.0939 16 35.5741V39.8582C16 40.9579 16 41.5077 16.2077 41.9279C16.3905 42.2973 16.682 42.5977 17.0406 42.786C17.4483 43 17.982 43 19.0494 43H30.9506C32.018 43 32.5516 43 32.9594 42.786C33.318 42.5977 33.6095 42.2973 33.7923 41.9279C34 41.5077 34 40.9579 34 39.8582V35.5741C34 35.0939 34 34.8536 33.9474 34.6277C33.9007 34.4273 33.8236 34.2357 33.7192 34.0601C33.6012 33.8619 33.4365 33.6921 33.1069 33.3525L31.7166 31.9202C31.387 31.5806 31.2223 31.4108 31.0299 31.2894C30.8594 31.1817 30.6735 31.1024 30.479 31.0543C30.2597 31 30.0266 31 29.5605 31H28.7059" stroke="white" stroke-width="2"/>
<path d="M34 35.5H31.291C30.5544 35.5 30.186 35.5 29.9087 35.6888C29.6315 35.8775 29.515 36.2075 29.2821 36.8675L29.1885 37.1325C28.9556 37.7925 28.8391 38.1225 28.5619 38.3112C28.2846 38.5 27.9162 38.5 27.1796 38.5H22.8204C22.0838 38.5 21.7155 38.5 21.4382 38.3112C21.1609 38.1225 21.0444 37.7925 20.8115 37.1325L20.718 36.8675C20.485 36.2075 20.3685 35.8775 20.0912 35.6888C19.8139 35.5 19.4456 35.5 18.709 35.5H16" stroke="white" stroke-width="2"/>
<path d="M27 28.5H27.7C27.8657 28.5 28 28.6343 28 28.8V32.2C28 32.3657 27.8657 32.5 27.7 32.5H22.3C22.1343 32.5 22 32.3657 22 32.2V28.8C22 28.6343 22.1343 28.5 22.3 28.5H23M27 28.5V27C27 26.3333 26.6 25 25 25C23.4 25 23 26.3333 23 27V28.5M27 28.5H23" stroke="white" stroke-width="1.5" stroke-linecap="round" stroke-linejoin="round"/>
</g>
<defs>
<filter id="filter0_b_27862_82511" x="-15" y="-6" width="80" height="80" filterUnits="userSpaceOnUse" color-interpolation-filters="sRGB">
<feFlood flood-opacity="0" result="BackgroundImageFix"/>
<feGaussianBlur in="BackgroundImageFix" stdDeviation="8"/>
<feComposite in2="SourceAlpha" operator="in" result="effect1_backgroundBlur_27862_82511"/>
<feBlend mode="normal" in="SourceGraphic" in2="effect1_backgroundBlur_27862_82511" result="shape"/>
</filter>
</defs>
</svg>
