<svg width="48" height="48" viewBox="0 0 48 48" fill="none" xmlns="http://www.w3.org/2000/svg">
<path fill-rule="evenodd" clip-rule="evenodd" d="M24 0C10.7027 0 0 10.7027 0 24C0 37.2973 10.7027 48 24 48H48V24.3243C48 11.027 37.2973 0 24 0ZM12.7941 36.2434C12.2203 35.6696 12.2393 34.7202 12.8365 34.123L34.123 12.8365C34.7203 12.2392 35.6696 12.2203 36.2434 12.7941C36.8172 13.3679 36.7983 14.3173 36.2011 14.9145L14.9145 36.201C14.3173 36.7983 13.3679 36.8172 12.7941 36.2434ZM16.6531 24.4898C19.8991 24.4898 22.5306 21.8583 22.5306 18.6122C22.5306 15.3662 19.8991 12.7347 16.6531 12.7347C13.407 12.7347 10.7755 15.3662 10.7755 18.6122C10.7755 21.8583 13.407 24.4898 16.6531 24.4898ZM31.3469 37.2245C34.593 37.2245 37.2245 34.593 37.2245 31.3469C37.2245 28.1009 34.593 25.4694 31.3469 25.4694C28.1009 25.4694 25.4694 28.1009 25.4694 31.3469C25.4694 34.593 28.1009 37.2245 31.3469 37.2245Z" fill="#25BB92"/>
<path d="M19.5918 18.6122C19.5918 20.2353 18.2761 21.551 16.6531 21.551C15.03 21.551 13.7143 20.2353 13.7143 18.6122C13.7143 16.9892 15.03 15.6735 16.6531 15.6735C18.2761 15.6735 19.5918 16.9892 19.5918 18.6122Z" fill="#25BB92"/>
<path d="M34.2857 31.3469C34.2857 32.97 32.97 34.2857 31.3469 34.2857C29.7239 34.2857 28.4082 32.97 28.4082 31.3469C28.4082 29.7239 29.7239 28.4082 31.3469 28.4082C32.97 28.4082 34.2857 29.7239 34.2857 31.3469Z" fill="#25BB92"/>
</svg>
