<svg width="12" height="13" viewBox="0 0 12 13" fill="none" xmlns="http://www.w3.org/2000/svg">
<g clip-path="url(#clip0_4587_17683)">
<path fill-rule="evenodd" clip-rule="evenodd" d="M7.23941 5.9375H3.99788C3.26072 5.9375 2.66314 5.34987 2.66314 4.625V1.63661C1.91066 1.72887 1.51907 2.36007 1.51907 3.125V9.875C1.51907 10.4302 1.82583 10.915 2.28178 11.1743C2.50615 11.302 2.76665 11.375 3.04449 11.375H3.42585L8.76483 11.375L8.95551 11.375C9.31625 11.375 9.64775 11.2519 9.9089 11.046C10.2576 10.7711 10.4809 10.3487 10.4809 9.875V3.73642C10.4809 3.58254 10.4328 3.43238 10.3431 3.30632L9.37391 1.9449C9.23119 1.74441 8.99796 1.625 8.74908 1.625H8.57415V4.625C8.57415 5.34987 7.97657 5.9375 7.23941 5.9375ZM7.43008 1.625V4.625C7.43008 4.72855 7.34472 4.8125 7.23941 4.8125H3.99788C3.89257 4.8125 3.8072 4.72855 3.8072 4.625V1.625H5.90466H7.04873H7.43008ZM2.85381 0.5C2.7897 0.5 2.91679 0.502222 2.85381 0.506593C1.46849 0.602733 0.375 1.7383 0.375 3.125V9.875C0.375 11.3247 1.57017 12.5 3.04449 12.5H8.95551C10.4298 12.5 11.625 11.3247 11.625 9.875V3.36535C11.625 3.20903 11.5753 3.05662 11.4829 2.92942L9.94636 0.814071C9.80319 0.616974 9.57203 0.5 9.32572 0.5H2.85381Z" fill="#2EC99E"/>
<path d="M6.4767 3.3125C6.79262 3.3125 7.04873 3.06066 7.04873 2.75V1.625H5.90466V2.75C5.90466 3.06066 6.16077 3.3125 6.4767 3.3125Z" fill="#2EC99E"/>
<path d="M4.95127 8.75H7.23941C8.08188 8.75 8.76483 9.04657 8.76483 9.875V11.375L8.95551 11.375C9.31625 11.375 9.64775 11.2519 9.9089 11.046V9.875C9.9089 8.42525 8.71373 7.625 7.23941 7.625H4.95127C3.47695 7.625 2.28178 8.42525 2.28178 9.875V11.1743C2.50615 11.302 2.76665 11.375 3.04449 11.375H3.42585V9.875C3.42585 9.42157 4.1088 8.75 4.95127 8.75Z" fill="#2EC99E"/>
</g>
<defs>
<clipPath id="clip0_4587_17683">
<rect width="12" height="12" fill="white" transform="translate(0 0.5)"/>
</clipPath>
</defs>
</svg>
