<svg width="33" height="33" viewBox="0 0 33 33" fill="none" xmlns="http://www.w3.org/2000/svg">
<path fill-rule="evenodd" clip-rule="evenodd" d="M14.2375 0.500164L17.6338 0.5C17.7365 0.504766 17.8267 0.516511 17.9533 0.544085C18.8821 0.746331 19.2352 1.07984 20.0996 3.1224L20.2405 3.45934L20.7837 4.80535L20.8284 4.82372L21.5283 4.50688C23.0527 3.82522 23.8385 3.5381 24.3668 3.45799L24.4763 3.44392L24.6757 3.43316C25.1515 3.43316 25.636 3.60166 26.0069 3.89505L26.1823 4.05195L28.3536 6.21424L28.5045 6.37377C29.1866 7.12508 29.2502 7.65773 28.4959 9.599L28.2448 10.2253L27.6531 11.6253L27.6643 11.6527L29.0198 12.1589L29.6733 12.4171C31.3614 13.1073 31.7082 13.4752 31.9338 14.3201C31.9793 14.4905 31.9955 14.6065 32.0007 14.7506L32.003 14.9071V17.9597C32.003 18.1767 31.9956 18.2993 31.9422 18.5138C31.7176 19.4158 31.3842 19.7593 29.3555 20.6162L29.0209 20.7559L27.6842 21.2953L27.6749 21.3178L28.1582 22.3738C29.3602 25.0452 29.4022 25.6309 28.6121 26.5106L28.5133 26.6178L26.2845 28.845C25.8855 29.2483 25.317 29.4704 24.767 29.4704C24.2999 29.4704 23.5662 29.2483 22.3156 28.7468L21.646 28.4725L20.8834 28.15L20.8397 28.168L20.4457 29.2249C19.4808 31.7669 19.1503 32.1796 18.1591 32.4354C18.0127 32.4732 17.9079 32.4893 17.789 32.4958L17.5929 32.5H14.5384C14.3477 32.5 14.2402 32.4943 14.0508 32.4532C13.1224 32.2519 12.7678 31.9177 11.9017 29.8739L11.7606 29.5368L11.2164 28.1901L11.1746 28.1728L10.158 28.6298C8.53201 29.3456 7.82761 29.5634 7.32558 29.5634C6.85546 29.5634 6.37673 29.3982 5.9959 29.1021L5.81413 28.9432L3.64584 26.7777L3.39823 26.5077C2.8036 25.8081 2.77436 25.2655 3.50423 23.3981L3.88457 22.4634L4.34885 21.372L4.33916 21.3485L3.28805 20.9568C1.17945 20.1567 0.529618 19.7882 0.220818 19.1153L0.13729 18.9036L0.0675186 18.6692C0.028039 18.5193 0.0111906 18.412 0.00434496 18.2898L0 18.0883V15.0338C0 14.8151 0.00758141 14.6915 0.0620412 14.4752C0.265082 13.6687 0.55327 13.3105 2.07134 12.6303L2.70051 12.3586L4.31613 11.7053L4.3272 11.6783L3.72314 10.3455C2.72639 8.08155 2.64383 7.39221 3.27272 6.62229L3.35876 6.52128L3.56252 6.30531L5.7224 4.15033C6.11812 3.75241 6.68415 3.52809 7.23508 3.52809C7.62913 3.52809 8.20772 3.68401 9.13374 4.03475L10.0654 4.40406L11.1215 4.8467L11.1648 4.82869L11.5619 3.76488C12.5357 1.20465 12.8833 0.776501 13.9105 0.546559C14.04 0.517554 14.1325 0.505186 14.2375 0.500164ZM16.8384 3.69729H15.0543L14.8028 4.28698C14.7073 4.52142 14.5995 4.79526 14.4778 5.11311L13.9202 6.60465C13.7865 6.95778 13.5331 7.25026 13.2072 7.4332L13.0385 7.51531L11.7278 8.06073C11.3969 8.19843 11.0314 8.22028 10.6896 8.1265L10.4879 8.05635L8.93724 7.40273L8.09965 7.06872L7.53667 6.86093L6.27222 8.12252L6.42103 8.49841C6.47919 8.63998 6.54612 8.79828 6.62243 8.97462L6.88017 9.55912L7.52656 10.9722C7.68139 11.3087 7.71376 11.6863 7.62236 12.0406L7.55265 12.25L7.0167 13.5524C6.87481 13.8972 6.61782 14.1797 6.29246 14.354L6.12431 14.4319L4.38402 15.1314L3.51407 15.5043L3.2003 15.6496V17.4581L3.57575 17.6208C3.71789 17.6803 3.8775 17.7451 4.05602 17.8158L4.64969 18.0462L6.09228 18.5819C6.45598 18.713 6.75777 18.9705 6.94494 19.3039L7.02874 19.4767L7.56477 20.7753C7.70241 21.1088 7.72257 21.4769 7.62578 21.8201L7.55367 22.0226L6.93156 23.4825L6.54141 24.4455L6.35134 24.9568L7.61588 26.2198L7.99241 26.0709C8.1311 26.0145 8.28311 25.951 8.4488 25.8804L9.61026 25.3682L10.4479 24.9826C10.7984 24.8151 11.1957 24.7818 11.5658 24.8846L11.7483 24.9473L13.0667 25.4917C13.4162 25.6359 13.7013 25.8984 13.8745 26.23L13.9515 26.4013L14.2796 27.2292L14.7465 28.3647L15.0167 28.9851L15.1633 29.2997H16.9526L17.2081 28.6973L17.541 27.8474L18.0829 26.3944C18.2165 26.0382 18.4719 25.7432 18.8005 25.5596L18.9707 25.4773L20.2835 24.9355C20.6106 24.8005 20.9712 24.7785 21.3092 24.8693L21.5088 24.9373L22.745 25.4617L23.6472 25.8292L24.141 26.0196L24.4668 26.1375L25.7328 24.8738L25.4889 24.2717L25.1229 23.4372L24.4752 22.0252C24.3198 21.6881 24.2874 21.3098 24.3792 20.9547L24.4492 20.745L24.9842 19.4483C25.1254 19.1061 25.3799 18.8253 25.7023 18.651L25.8689 18.573L27.3428 17.9805L28.0952 17.6651L28.3021 17.5751L28.8027 17.346V15.5394L28.3008 15.3251L27.621 15.0561L25.905 14.4173C25.5421 14.2853 25.2414 14.0274 25.0551 13.6939L24.9718 13.5212L24.4367 12.2173C24.3002 11.8847 24.2804 11.5178 24.3769 11.1757L24.4487 10.9738L24.9455 9.81226C25.0748 9.50509 25.1874 9.2327 25.2846 8.99195L25.4589 8.55169L25.6489 8.03723L24.3837 6.77728L24.0069 6.92636C23.7986 7.01133 23.5598 7.11217 23.289 7.22992L23.0073 7.35335L21.5306 8.02313C21.1947 8.17706 20.8181 8.20908 20.4645 8.11791L20.2556 8.04842L18.9381 7.50682C18.5932 7.36505 18.3105 7.10815 18.1361 6.78283L18.0582 6.61469L17.5923 5.44915L17.2547 4.63261L17.0678 4.19834L16.8384 3.69729ZM16.0023 10.0979C19.5324 10.0979 22.4021 12.967 22.4021 16.4971C22.4021 20.0275 19.5322 22.8991 16.0023 22.8991C12.4713 22.8991 9.60091 20.028 9.60091 16.4971C9.60091 12.9665 12.4711 10.0979 16.0023 10.0979ZM16.0023 13.2982C14.2382 13.2982 12.8012 14.7344 12.8012 16.4971C12.8012 18.2607 14.239 19.6988 16.0023 19.6988C17.7643 19.6988 19.2018 18.2604 19.2018 16.4971C19.2018 14.7346 17.7651 13.2982 16.0023 13.2982Z" fill="#DBDBDB"/>
</svg>
