<svg width="24" height="24" viewBox="0 0 24 24" fill="none" xmlns="http://www.w3.org/2000/svg">
    <g clip-path="url(#clip0_17299_28992)">
        <path d="M12 7.7467V22.208" stroke="black" stroke-linecap="round" stroke-linejoin="round" />
        <g opacity="0.25">
            <path
                d="M16.9091 4.34412H19.3636C19.5806 4.34412 19.7887 4.43374 19.9422 4.59327C20.0956 4.7528 20.1818 4.96917 20.1818 5.19478V21.3573C20.1818 21.583 20.0956 21.7993 19.9422 21.9589C19.7887 22.1184 19.5806 22.208 19.3636 22.208H4.63636C4.41936 22.208 4.21126 22.1184 4.05782 21.9589C3.90438 21.7993 3.81818 21.583 3.81818 21.3573V5.19478C3.81818 4.96917 3.90438 4.7528 4.05782 4.59327C4.21126 4.43374 4.41936 4.34412 4.63636 4.34412H7.0909"
                fill="black" />
            <path
                d="M16.9091 4.34412H19.3636C19.5806 4.34412 19.7887 4.43374 19.9422 4.59327C20.0956 4.7528 20.1818 4.96917 20.1818 5.19478V21.3574C20.1818 21.583 20.0956 21.7993 19.9422 21.9589C19.7887 22.1184 19.5806 22.208 19.3636 22.208H4.63636C4.41936 22.208 4.21126 22.1184 4.05782 21.9589C3.90438 21.7993 3.81818 21.583 3.81818 21.3574V5.19478C3.81818 4.96917 3.90438 4.7528 4.05782 4.59327C4.21126 4.43374 4.41936 4.34412 4.63636 4.34412H7.0909"
                stroke="black" stroke-linecap="round" stroke-linejoin="round" />
        </g>
        <path d="M9.50001 4L12 7.5L15 3.00008L9.04846 2.9413L9.50001 4Z" fill="#B5B5B5" />
        <path d="M15.2727 2.92627L15 3.00008M15 3.00008L12 7.5L9.50001 4L9.04846 2.9413L15 3.00008Z" stroke="black"
            stroke-width="0.4" />
        <path
            d="M12 7.74667L15.2727 2.6427L16.9091 4.34402V10.2987C16.9091 10.4603 16.8649 10.6187 16.7815 10.7552C16.6981 10.8917 16.579 11.0006 16.4382 11.0692C16.2974 11.1378 16.1406 11.1633 15.9864 11.1427C15.8322 11.122 15.6868 11.0561 15.5673 10.9526L12 7.74667Z"
            fill="#B5B5B5" stroke="black" stroke-linecap="round" stroke-linejoin="round" />
        <path
            d="M8.4327 10.9505C8.31334 11.0538 8.16814 11.1197 8.01408 11.1405C7.86002 11.1612 7.70346 11.1359 7.56272 11.0675C7.42198 10.9992 7.30287 10.8906 7.21932 10.7544C7.13576 10.6182 7.09121 10.4602 7.09088 10.2987V4.34402L8.72724 2.6427L12 7.74667L8.4327 10.9505Z"
            fill="#B5B5B5" stroke="black" stroke-linecap="round" stroke-linejoin="round" />
        <path d="M8.72729 2.6427H15.2727" stroke="black" stroke-linecap="round" stroke-linejoin="round" />
    </g>
    <defs>
        <clipPath id="clip0_17299_28992">
            <rect width="24" height="24" fill="white" />
        </clipPath>
    </defs>
</svg>