<svg width="18" height="18" viewBox="0 0 18 18" fill="none" xmlns="http://www.w3.org/2000/svg">
<path fill-rule="evenodd" clip-rule="evenodd" d="M10.8373 1.9875C10.8373 1.82181 10.703 1.6875 10.5373 1.6875H7.31384C7.14815 1.6875 7.01384 1.82181 7.01384 1.9875V6.1875C7.01384 7.27481 7.86975 8.15625 8.92557 8.15625C9.98138 8.15625 10.8373 7.27481 10.8373 6.1875V1.9875ZM5.37522 0V6.1875C5.37522 8.20679 6.96476 9.84375 8.92557 9.84375C10.8864 9.84375 12.4759 8.20679 12.4759 6.1875V0H5.37522Z" fill="#2EC99E"/>
<path fill-rule="evenodd" clip-rule="evenodd" d="M15.1968 3.34869C15.0318 2.38892 14.1995 1.6875 13.2257 1.6875H12.7759C12.6102 1.6875 12.4759 1.82182 12.4759 1.9875V6.4901C12.4759 7.41029 13.2003 8.15625 14.0938 8.15625C15.0936 8.15625 15.854 7.23176 15.6897 6.21619L15.1968 3.34869ZM16.8641 3.33152C16.538 1.40778 14.8715 0 12.9203 0H10.8373V6.4901C10.8373 8.34227 12.2953 9.84375 14.0938 9.84375C14.2877 9.84375 14.4771 9.82648 14.6607 9.79344C15.2906 9.68015 15.8534 9.38144 16.2994 8.95779C17.0735 8.22247 17.4957 7.11075 17.306 5.93876L16.8641 3.33152Z" fill="#2EC99E"/>
<path fill-rule="evenodd" clip-rule="evenodd" d="M4.62543 1.6875C3.65159 1.6875 2.81931 2.38892 2.65434 3.34869L2.16144 6.21619C1.99708 7.23176 2.75756 8.15625 3.75732 8.15625C4.65086 8.15625 5.37521 7.41029 5.37521 6.4901V1.9875C5.37521 1.82181 5.2409 1.6875 5.07521 1.6875H4.62543ZM4.9308 0C2.97961 0 1.31313 1.40778 0.987052 3.33152L0.545114 5.93876C0.355441 7.11075 0.777676 8.22248 1.55176 8.95779C1.99775 9.38145 2.56054 9.68015 3.19038 9.79344C3.37407 9.82648 3.56346 9.84375 3.75732 9.84375C5.55584 9.84375 7.01384 8.34227 7.01384 6.4901V0H4.9308Z" fill="#2EC99E"/>
<path d="M4.2828 16.3125C3.67947 16.3125 3.19038 15.8088 3.19038 15.1875V9.79344C2.56054 9.68015 1.99775 9.38145 1.55176 8.95779V15.1875C1.55176 16.7408 2.77449 18 4.2828 18H13.5683C15.0766 18 16.2994 16.7408 16.2994 15.1875V8.95779C15.8534 9.38144 15.2906 9.68015 14.6607 9.79344V15.1875C14.6607 15.8088 14.1717 16.3125 13.5683 16.3125H4.2828Z" fill="#2EC99E"/>
</svg>
