<svg width="32" height="32" viewBox="0 0 32 32" fill="none" xmlns="http://www.w3.org/2000/svg">
<path fill-rule="evenodd" clip-rule="evenodd" d="M19.4256 3.3C19.4256 3.13431 19.2913 3 19.1256 3H12.7256C12.5599 3 12.4256 3.13431 12.4256 3.3V11C12.4256 12.933 13.9926 14.5 15.9256 14.5C17.8586 14.5 19.4256 12.933 19.4256 11V3.3ZM9.42557 0V11C9.42557 14.5899 12.3357 17.5 15.9256 17.5C19.5154 17.5 22.4256 14.5899 22.4256 11V0H9.42557Z" fill="#DBDBDB"/>
<path fill-rule="evenodd" clip-rule="evenodd" d="M27.1765 4.65139C27.0074 3.69615 26.1772 3 25.2071 3H22.7256C22.5599 3 22.4256 3.13431 22.4256 3.3V11.538C22.4256 13.1738 23.7517 14.5 25.3876 14.5C27.218 14.5 28.6103 12.8565 28.3094 11.051L27.1765 4.65139ZM30.0037 3.31216C29.6695 1.39735 28.0071 0 26.0633 0H19.4256V11.538C19.4256 14.8307 22.0949 17.5 25.3876 17.5C25.7425 17.5 26.0893 17.4693 26.4256 17.4106C27.5787 17.2092 28.609 16.6781 29.4256 15.925C30.8428 14.6177 31.6158 12.6413 31.2685 10.5578L30.0037 3.31216Z" fill="#DBDBDB"/>
<path fill-rule="evenodd" clip-rule="evenodd" d="M6.644 3C5.67392 3 4.84371 3.69615 4.67462 4.65139L3.54178 11.051C3.24087 12.8565 4.63316 14.5 6.46352 14.5C8.09941 14.5 9.42556 13.1738 9.42556 11.538V3.3C9.42556 3.13431 9.29125 3 9.12556 3H6.644ZM5.78781 0C3.84405 0 2.18164 1.39736 1.84739 3.31217L0.582595 10.5578C0.23534 12.6413 1.00837 14.6177 2.42557 15.925C3.24209 16.6781 4.27244 17.2092 5.42557 17.4106C5.76186 17.4693 6.1086 17.5 6.46352 17.5C9.75627 17.5 12.4256 14.8307 12.4256 11.538V0H5.78781Z" fill="#DBDBDB"/>
<path d="M7.42557 29C6.321 29 5.42557 28.1046 5.42557 27V17.4106C4.27244 17.2092 3.24209 16.6781 2.42557 15.925V27C2.42557 29.7614 4.66414 32 7.42557 32H24.4256C27.187 32 29.4256 29.7614 29.4256 27V15.925C28.609 16.6781 27.5787 17.2092 26.4256 17.4106V27C26.4256 28.1046 25.5301 29 24.4256 29H7.42557Z" fill="#DBDBDB"/>
</svg>
