<svg width="23" height="19" viewBox="0 0 23 19" fill="none" xmlns="http://www.w3.org/2000/svg">
<path d="M22.0924 13.4698H6.82488L7.59146 12.0355L20.3285 12.0143C20.7592 12.0143 21.1284 11.7316 21.2053 11.3406L22.9692 2.27048C23.0154 2.0326 22.9462 1.78765 22.7769 1.60159C22.6933 1.51001 22.589 1.43625 22.4712 1.38541C22.3535 1.33457 22.2251 1.30788 22.095 1.30718L5.89165 1.25772L5.75321 0.659477C5.66604 0.277922 5.29172 0 4.86612 0H0.905027C0.664999 0 0.434802 0.0875948 0.265076 0.243515C0.0953508 0.399435 0 0.610908 0 0.831412C0 1.05192 0.0953508 1.26339 0.265076 1.41931C0.434802 1.57523 0.664999 1.66282 0.905027 1.66282H4.13287L4.73793 4.30544L6.22751 10.9308L4.30978 13.8066C4.21019 13.9301 4.1502 14.0767 4.13661 14.2299C4.12301 14.3831 4.15636 14.5367 4.23286 14.6734C4.38669 14.9536 4.69691 15.1303 5.04046 15.1303H6.65054C6.30729 15.5491 6.12189 16.0592 6.12239 16.5835C6.12239 17.9166 7.30175 19 8.75287 19C10.204 19 11.3833 17.9166 11.3833 16.5835C11.3833 16.0583 11.1936 15.5472 10.8552 15.1303H14.9855C14.6423 15.5491 14.4569 16.0592 14.4574 16.5835C14.4574 17.9166 15.6367 19 17.0878 19C18.539 19 19.7183 17.9166 19.7183 16.5835C19.7183 16.0583 19.5286 15.5472 19.1902 15.1303H22.095C22.5924 15.1303 23 14.7582 23 14.2989C22.9985 14.0786 22.9023 13.8678 22.7322 13.7125C22.5622 13.5572 22.3322 13.4699 22.0924 13.4698ZM6.26853 2.89699L21.031 2.94174L19.585 10.3797L7.98885 10.3985L6.26853 2.89699ZM8.75287 17.3278C8.30677 17.3278 7.9427 16.9933 7.9427 16.5835C7.9427 16.1737 8.30677 15.8392 8.75287 15.8392C9.19897 15.8392 9.56304 16.1737 9.56304 16.5835C9.56304 16.7809 9.47768 16.9702 9.32574 17.1098C9.17381 17.2493 8.96774 17.3278 8.75287 17.3278ZM17.0878 17.3278C16.6417 17.3278 16.2777 16.9933 16.2777 16.5835C16.2777 16.1737 16.6417 15.8392 17.0878 15.8392C17.5339 15.8392 17.898 16.1737 17.898 16.5835C17.898 16.7809 17.8126 16.9702 17.6607 17.1098C17.5088 17.2493 17.3027 17.3278 17.0878 17.3278Z" fill="white"/>
</svg>
