<svg width="20" height="20" viewBox="0 0 20 20" fill="none" xmlns="http://www.w3.org/2000/svg">
    <path
        d="M7.50008 2.5V4.16667M10.0001 2.5V4.16667M12.5001 2.5V4.16667M10.8334 7.5H7.50008M12.5001 10.8333H7.50008M6.83341 17.5H13.1667C14.1002 17.5 14.5669 17.5 14.9234 17.3183C15.237 17.1586 15.492 16.9036 15.6517 16.59C15.8334 16.2335 15.8334 15.7667 15.8334 14.8333V6C15.8334 5.06658 15.8334 4.59987 15.6517 4.24335C15.492 3.92974 15.237 3.67477 14.9234 3.51499C14.5669 3.33333 14.1002 3.33333 13.1667 3.33333H6.83341C5.9 3.33333 5.43328 3.33333 5.07676 3.51499C4.76316 3.67477 4.50819 3.92974 4.34841 4.24335C4.16675 4.59987 4.16675 5.06657 4.16675 6V14.8333C4.16675 15.7667 4.16675 16.2335 4.34841 16.59C4.50819 16.9036 4.76316 17.1586 5.07676 17.3183C5.43328 17.5 5.89999 17.5 6.83341 17.5Z"
        stroke="white" stroke-width="1.5" stroke-linecap="round" stroke-linejoin="round" />
</svg>