<svg width="20" height="20" viewBox="0 0 20 20" fill="none" xmlns="http://www.w3.org/2000/svg">
    <g id="Dashboard">
        <path id="Vector"
            d="M15.5 2.5H4.5C3.39543 2.5 2.5 3.39543 2.5 4.5V15.5C2.5 16.6046 3.39543 17.5 4.5 17.5H15.5C16.6046 17.5 17.5 16.6046 17.5 15.5V4.5C17.5 3.39543 16.6046 2.5 15.5 2.5Z"
            stroke="white" stroke-width="1.5" stroke-miterlimit="10" stroke-linecap="round" stroke-linejoin="round" />
        <path id="Vector_2"
            d="M11.6667 11.25L14.1667 8.33337M12.0239 12.7084C12.0239 13.5138 11.3843 14.1667 10.5953 14.1667C9.80632 14.1667 9.16675 13.5138 9.16675 12.7084C9.16675 11.9029 9.80632 11.25 10.5953 11.25C11.3843 11.25 12.0239 11.9029 12.0239 12.7084Z"
            stroke="white" stroke-width="1.5" stroke-linecap="round" />
        <path id="Vector_3"
            d="M5.83325 10C5.83325 7.69885 7.8231 5.83337 10.2777 5.83337C11.0873 5.83337 11.8462 6.03628 12.4999 6.3908"
            stroke="white" stroke-width="1.5" stroke-linecap="round" />
    </g>
</svg>