<svg width="20" height="20" viewBox="0 0 20 20" fill="none" xmlns="http://www.w3.org/2000/svg">
    <g id="Price Plan" clip-path="url(#clip0_9675_914)">
        <path id="Icon" fill-rule="evenodd" clip-rule="evenodd"
            d="M13.3315 5.499C12.8317 4.9529 11.9982 4.806 11.3719 5.30606C10.7457 5.80613 10.6575 6.6422 11.1493 7.23363C11.5582 7.72536 12.7957 8.76246 13.2013 9.09813C13.2467 9.13568 13.2693 9.15446 13.2958 9.16184C13.3189 9.16828 13.3442 9.16828 13.3673 9.16184C13.3937 9.15446 13.4164 9.13568 13.4618 9.09813C13.8674 8.76246 15.1049 7.72536 15.5138 7.23363C16.0056 6.6422 15.9282 5.80087 15.2912 5.30606C14.6541 4.81126 13.8314 4.9529 13.3315 5.499Z"
            stroke="white" stroke-linecap="round" stroke-linejoin="round" />
        <path id="Vector"
            d="M9.38103 18.3333H3.95246H3.95245C3.15238 18.3333 2.75235 18.3333 2.44676 18.1837C2.17796 18.0521 1.95941 17.8421 1.82246 17.5839C1.66675 17.2903 1.66675 16.9059 1.66675 16.1372V8.8627C1.66675 8.094 1.66675 7.70965 1.82246 7.41605C1.95941 7.15779 2.17796 6.94781 2.44676 6.81623C2.75235 6.66663 3.15239 6.66663 3.95246 6.66663H9.38103C10.1811 6.66663 10.5812 6.66663 10.8867 6.81623C11.1555 6.94781 11.3741 7.15779 11.511 7.41605C11.6667 7.70965 11.6667 8.09401 11.6667 8.8627V16.1372C11.6667 16.9059 11.6667 17.2903 11.511 17.5839C11.3741 17.8421 11.1555 18.0521 10.8867 18.1837C10.5812 18.3333 10.1811 18.3333 9.38105 18.3333H9.38103Z"
            stroke="white" stroke-width="1.5" stroke-linecap="round" stroke-linejoin="round" />
        <path id="Vector_2"
            d="M12.0833 13.3333H16.0475C16.8476 13.3333 17.2477 13.3333 17.5533 13.1837C17.822 13.0521 18.0406 12.8421 18.1775 12.5839C18.3333 12.2903 18.3333 11.9059 18.3333 11.1372V3.8627C18.3333 3.09401 18.3333 2.70965 18.1775 2.41605C18.0406 2.15779 17.822 1.94781 17.5533 1.81623C17.2477 1.66663 16.8476 1.66663 16.0475 1.66663H10.619C9.81889 1.66663 9.41885 1.66663 9.11327 1.81623C8.84446 1.94781 8.62592 2.15779 8.48896 2.41605C8.33325 2.70965 8.33325 3.094 8.33325 3.8627V6.52774"
            stroke="white" stroke-width="1.5" stroke-linecap="round" stroke-linejoin="round" />
        <path id="Vector_3"
            d="M7.18697 13.9786C6.89951 14.2293 6.43206 14.2293 6.1446 13.9786L4.41231 12.4629C4.17234 12.2532 4.09485 11.8555 4.23984 11.5761L4.83976 10.4146C4.95725 10.1852 5.26971 10 5.53468 10H7.7994C8.06436 10 8.37682 10.1856 8.49431 10.4143L9.09423 11.5761C9.23922 11.8555 9.15923 12.2532 8.92176 12.4627C8.05861 13.225 8.05536 13.2217 7.18697 13.9786Z"
            stroke="white" stroke-linecap="round" stroke-linejoin="round" />
    </g>
    <defs>
        <clipPath id="clip0_9675_914">
            <rect width="20" height="20" fill="white" />
        </clipPath>
    </defs>
</svg>