<svg width="20" height="20" viewBox="0 0 20 20" fill="none" xmlns="http://www.w3.org/2000/svg">
<path d="M15.5 2.5H4.5C3.39543 2.5 2.5 3.39543 2.5 4.5V15.5C2.5 16.6046 3.39543 17.5 4.5 17.5H15.5C16.6046 17.5 17.5 16.6046 17.5 15.5V4.5C17.5 3.39543 16.6046 2.5 15.5 2.5Z" stroke="white" stroke-width="1.5" stroke-miterlimit="10" stroke-linecap="round" stroke-linejoin="round"/>
<path d="M11.667 11.25L14.167 8.33334M12.0241 12.7083C12.0241 13.5138 11.3846 14.1667 10.5956 14.1667C9.80656 14.1667 9.16699 13.5138 9.16699 12.7083C9.16699 11.9029 9.80656 11.25 10.5956 11.25C11.3846 11.25 12.0241 11.9029 12.0241 12.7083Z" stroke="white" stroke-width="1.5" stroke-linecap="round"/>
<path d="M5.83301 10C5.83301 7.69882 7.82285 5.83334 10.2775 5.83334C11.087 5.83334 11.846 6.03625 12.4997 6.39077" stroke="white" stroke-width="1.5" stroke-linecap="round"/>
</svg>
