<svg xmlns="http://www.w3.org/2000/svg" width="16" height="16" viewBox="0 0 16 16" fill="none">
  <path d="M8 14C11.3137 14 14 11.3137 14 8C14 4.68629 11.3137 2 8 2C4.68629 2 2 4.68629 2 8C2 11.3137 4.68629 14 8 14Z" stroke="CurrentColor"/>
  <path d="M6 10.2C6.26264 10.4536 6.57448 10.6548 6.9176 10.7921C7.2608 10.9294 7.62856 11 8 11C8.37144 11 8.7392 10.9294 9.0824 10.7921C9.42552 10.6548 9.73736 10.4536 10 10.2" stroke="CurrentColor" stroke-linecap="round" stroke-linejoin="round"/>
  <path d="M6.20117 6.19922H6.20917" stroke="CurrentColor" stroke-linecap="round" stroke-linejoin="round"/>
  <path d="M9.79883 6.19922H9.80683" stroke="CurrentColor" stroke-linecap="round" stroke-linejoin="round"/>
</svg>