<svg width="12" height="12" viewBox="0 0 12 12" fill="none" xmlns="http://www.w3.org/2000/svg">
<path fill-rule="evenodd" clip-rule="evenodd" d="M11.8835 9.16555C11.8835 9.15616 11.8747 9.15616 11.8747 9.15616C11.7347 9.06225 11.586 9.04347 11.4986 9.0059H11.4898C10.8687 8.7993 10.3264 8.33915 9.92396 7.78508C9.69651 7.47518 9.51281 7.13711 9.39034 6.78025C9.39034 6.78025 9.39034 6.78025 9.39034 6.77086C9.33785 6.62061 9.33785 6.44218 9.40784 6.33888C9.52156 6.16984 9.7315 6.05715 9.94145 5.97263C10.1864 5.87872 10.4488 5.77542 10.6675 5.56882C10.6675 5.56882 10.6675 5.56882 10.6763 5.56882C10.7113 5.54065 10.7462 5.4937 10.7812 5.42796C10.79 5.40918 10.7987 5.39979 10.7987 5.37161C10.8162 5.30588 10.8162 5.23075 10.7812 5.16501C10.72 5.03354 10.6063 4.95841 10.5276 4.90207C10.3963 4.81755 10.2301 4.80816 10.0902 4.8645C9.94145 4.91146 9.81898 4.9678 9.70526 4.98659H9.69651C9.53905 5.01476 9.38159 5.02415 9.25912 4.97719C9.25912 4.95841 9.25912 4.92085 9.25038 4.87389C9.24163 4.59217 9.26787 4.30105 9.26787 3.99115C9.28537 3.53099 9.29412 3.05205 9.23288 2.57312V2.56372C9.09292 1.7561 8.61179 1.06118 7.99944 0.60102C7.55331 0.262946 7.02844 0.0751275 6.48608 0.0281728C6.31112 0.00939093 6.13616 0 5.95246 0C5.2264 0.00939093 4.47409 0.2066 3.88798 0.70432C3.45059 1.07057 3.10068 1.56829 2.88199 2.11296C2.67204 2.67642 2.68954 3.27744 2.71578 3.8315C2.73328 4.22592 2.77702 4.60156 2.74202 4.95841C2.74202 4.9678 2.74202 4.97719 2.73328 4.98659C2.56707 5.01476 2.39211 5.00537 2.21716 4.9678C2.09469 4.94902 1.96347 4.89268 1.82351 4.84572H1.81476C1.67479 4.81755 1.53483 4.85511 1.42986 4.93963H1.42111C1.42111 4.93963 1.41236 4.93963 1.41236 4.94902C1.32488 5.00537 1.20241 5.10867 1.20241 5.28709C1.20241 5.29649 1.20241 5.30588 1.20241 5.31527C1.21991 5.41857 1.28114 5.4937 1.33363 5.55004C1.38612 5.597 1.4386 5.63456 1.46485 5.66273C1.46485 5.66273 1.4736 5.66273 1.4736 5.67212C1.73603 5.85994 2.03345 5.94446 2.28714 6.04776C2.4621 6.13228 2.61081 6.25436 2.65455 6.4234C2.69829 6.63 2.61956 6.86477 2.51458 7.09015C2.2259 7.69117 1.80601 8.21707 1.28114 8.61148C1.00996 8.80869 0.695043 8.95895 0.371375 9.05286C0.371375 9.05286 0.362627 9.05286 0.353879 9.06225C0.283897 9.09042 0.126437 9.09981 0.030211 9.25946C0.0214632 9.26885 0.0214632 9.28763 0.0127154 9.29702C-0.0222757 9.40032 0.0214632 9.50362 0.0652021 9.56936C0.108941 9.62571 0.161428 9.66327 0.205167 9.68205H0.213914C0.485096 9.85109 0.78252 9.91682 1.0537 9.99195C1.24615 10.0389 1.42986 10.0671 1.57857 10.1328C1.58732 10.1422 1.60481 10.1986 1.63106 10.2831C1.68354 10.4427 1.70104 10.6305 1.75352 10.8277C1.77102 10.8841 1.81476 10.9217 1.86725 10.9404C1.98971 10.9686 2.0597 10.9217 2.06844 10.9217C2.07719 10.9217 2.07719 10.9217 2.08594 10.9217C2.54083 10.8371 2.99571 10.762 3.40686 10.8747C3.84424 10.9968 4.2204 11.3255 4.64904 11.5978C4.92897 11.7856 5.26139 11.9734 5.63754 11.9922C5.92622 12.011 6.20615 11.9922 6.47733 11.9734C6.47733 11.9734 6.47733 11.9734 6.48608 11.9734C6.72227 11.9453 6.94971 11.8607 7.15091 11.7293L7.15966 11.7199C7.60579 11.4475 8.00819 11.1189 8.44558 10.9123C8.58554 10.8559 8.76925 10.8653 8.9617 10.8465H8.97045C9.33785 10.8371 9.69651 10.8559 10.0552 10.9029C10.0639 10.9029 10.0814 10.9029 10.0902 10.9029C10.1426 10.8935 10.1864 10.8653 10.2126 10.8277C10.2389 10.7996 10.2476 10.762 10.2476 10.7432C10.2564 10.7057 10.2651 10.6869 10.2476 10.7151C10.2564 10.7057 10.2564 10.6963 10.2651 10.6869C10.3351 10.4521 10.3701 10.2455 10.4751 10.114C10.5188 10.0671 10.6063 10.0389 10.7025 10.0389C10.7113 10.0389 10.72 10.0389 10.72 10.0389C11.0349 10.0013 11.3149 9.87926 11.586 9.77596H11.5948C11.691 9.72901 11.8397 9.67266 11.9447 9.52241C12.0409 9.41911 12.0059 9.24068 11.8835 9.16555Z" fill="#808080"/>
</svg>
