<svg width="12" height="12" viewBox="0 0 12 12" fill="none" xmlns="http://www.w3.org/2000/svg">
<path fill-rule="evenodd" clip-rule="evenodd" d="M5.11172 0.663992C5.38641 -0.221336 6.61359 -0.221326 6.88828 0.663993L7.87863 3.85593H11.0679C11.5333 3.85593 11.8496 4.1766 11.9562 4.51993C12.0622 4.86184 11.9848 5.29639 11.6247 5.57038L9.02441 7.54884L10.0204 10.759C10.1518 11.1825 9.98274 11.5859 9.68896 11.8094C9.39164 12.0356 8.94404 12.09 8.57528 11.8094L6 9.84999L3.42472 11.8094C3.05596 12.09 2.60836 12.0356 2.31104 11.8094C2.01726 11.5859 1.84818 11.1825 1.9796 10.759L2.97559 7.54884L0.375284 5.57038C0.01517 5.29638 -0.0622393 4.86184 0.0438467 4.51992C0.150371 4.17659 0.466696 3.85593 0.932124 3.85593H4.12137L5.11172 0.663992ZM6 1.27232L5.08528 4.2205C4.96656 4.60313 4.61626 4.8845 4.197 4.8845H1.17253L3.63953 6.76153C3.96375 7.00821 4.08866 7.43265 3.97097 7.81198L3.04117 10.8088L5.44316 8.98118C5.77351 8.72984 6.22649 8.72984 6.55684 8.98118L8.95883 10.8088L8.02903 7.81198C7.91134 7.43265 8.03625 7.00822 8.36047 6.76153L10.8275 4.8845H7.803C7.38374 4.8845 7.03344 4.60313 6.91472 4.2205L6 1.27232Z" fill="#C2C2C2"/>
</svg>
