<svg width="59" height="59" viewBox="0 0 59 59" fill="none" xmlns="http://www.w3.org/2000/svg">
<rect x="12.4233" width="48" height="48" rx="8" transform="rotate(15 12.4233 0)" fill="white"/>
<g filter="url(#filter0_b_21782_6390)">
<rect x="1" y="10" width="48" height="48" rx="8" fill="black" fill-opacity="0.75"/>
<rect x="1.5" y="10.5" width="47" height="47" rx="7.5" stroke="white"/>
<path d="M35 32H15M24 36H19M15 30.2L15 37.8C15 38.9201 15 39.4802 15.218 39.908C15.4097 40.2843 15.7157 40.5903 16.092 40.782C16.5198 41 17.0799 41 18.2 41L31.8 41C32.9201 41 33.4802 41 33.908 40.782C34.2843 40.5903 34.5903 40.2843 34.782 39.908C35 39.4802 35 38.9201 35 37.8V30.2C35 29.0799 35 28.5198 34.782 28.092C34.5903 27.7157 34.2843 27.4097 33.908 27.218C33.4802 27 32.9201 27 31.8 27L18.2 27C17.0799 27 16.5198 27 16.092 27.218C15.7157 27.4097 15.4097 27.7157 15.218 28.092C15 28.5198 15 29.0799 15 30.2Z" stroke="white" stroke-width="2" stroke-linecap="round" stroke-linejoin="round"/>
</g>
<defs>
<filter id="filter0_b_21782_6390" x="-15" y="-6" width="80" height="80" filterUnits="userSpaceOnUse" color-interpolation-filters="sRGB">
<feFlood flood-opacity="0" result="BackgroundImageFix"/>
<feGaussianBlur in="BackgroundImageFix" stdDeviation="8"/>
<feComposite in2="SourceAlpha" operator="in" result="effect1_backgroundBlur_21782_6390"/>
<feBlend mode="normal" in="SourceGraphic" in2="effect1_backgroundBlur_21782_6390" result="shape"/>
</filter>
</defs>
</svg>
