<svg width="16" height="16" viewBox="0 0 16 16" fill="none" xmlns="http://www.w3.org/2000/svg">
<g clip-path="url(#clip0_18976_7780)">
<path d="M7.46856 0C7.64014 0.0520833 7.76121 0.16625 7.86766 0.30625C8.01252 0.496667 8.16866 0.67875 8.31895 0.865C8.5185 1.1125 8.51808 1.31667 8.31644 1.56708C8.15321 1.77 7.98789 1.97083 7.82383 2.17292C7.62595 2.41625 7.39091 2.48417 7.17132 2.36083C6.94922 2.23583 6.88577 2.00917 6.98888 1.7075C6.98262 1.70167 6.97636 1.69 6.9701 1.69C6.15478 1.7025 5.33779 1.62458 4.52831 1.8075C2.73778 2.21208 1.26035 3.785 1.00318 5.60292C0.950999 5.97208 0.946407 6.34958 0.940145 6.72333C0.930126 7.32708 0.93764 7.93125 0.93764 8.53542C0.93764 8.86417 0.819496 9.04333 0.564421 9.10375C0.327715 9.15958 0.144445 9.04417 0 8.74917C0 7.81167 0 6.87417 0 5.93667C0.0308929 5.73708 0.0609508 5.5375 0.0935135 5.33833C0.467568 3.0525 2.45807 1.10583 4.76627 0.82C5.43422 0.737083 6.11637 0.768333 6.79184 0.747917C6.85696 0.745833 6.92251 0.747917 6.99222 0.747917C6.87408 0.33125 6.94505 0.171667 7.31243 0.000416667H7.46856V0Z" fill="#C2C2C2"/>
<path d="M8.4997 15.9998C8.37947 15.8973 8.24713 15.8056 8.14193 15.6898C7.97411 15.5052 7.82173 15.3065 7.66685 15.1102C7.49861 14.8973 7.49861 14.6823 7.66768 14.4698C7.84553 14.2456 8.02713 14.024 8.20914 13.8031C8.39158 13.5815 8.63204 13.5235 8.84286 13.6465C9.05285 13.769 9.12007 13.9886 9.02989 14.2581C9.02488 14.2727 9.02363 14.2881 9.0182 14.3181C9.48494 14.3181 9.94749 14.3211 10.4101 14.3177C12.7654 14.3002 14.7167 12.5773 15.0227 10.2406C15.0511 10.0248 15.0586 9.8048 15.0598 9.58647C15.0644 8.87313 15.0611 8.1598 15.0619 7.44647C15.0619 7.13313 15.2573 6.91647 15.5333 6.91897C15.8092 6.92147 15.9987 7.1373 15.9992 7.45313C16 8.18188 16.0025 8.91105 15.9992 9.6398C15.985 12.326 14.1544 14.5848 11.5251 15.139C11.1415 15.2198 10.7411 15.2348 10.347 15.2515C9.90575 15.2702 9.46323 15.2556 9.02989 15.2556C9.0445 15.3711 9.07289 15.4781 9.0683 15.584C9.0587 15.8056 8.89797 15.9131 8.71929 15.9998H8.50054H8.4997Z" fill="#C2C2C2"/>
<path d="M1.87488 15.9998C1.61855 15.8965 1.49665 15.7103 1.50542 15.4307C1.50667 15.3915 1.44322 15.3403 1.39896 15.3107C1.1848 15.1673 0.950183 15.049 0.754389 14.8848C0.533547 14.6998 0.535634 14.3965 0.720157 14.2057C0.906766 14.0128 1.19023 14.0144 1.4023 14.2194C1.56721 14.3786 1.75924 14.4723 1.98635 14.479C2.08195 14.4819 2.18715 14.4682 2.27231 14.4282C2.33911 14.3969 2.41968 14.3157 2.42344 14.2523C2.4272 14.1928 2.35163 14.099 2.28818 14.0698C2.01515 13.9432 1.73628 13.8286 1.45532 13.7211C1.02366 13.5557 0.768166 13.2548 0.751884 12.7882C0.735186 12.3053 0.976901 11.9653 1.40564 11.7636C1.51544 11.7119 1.50918 11.6419 1.5121 11.5536C1.52003 11.3115 1.63901 11.1469 1.84816 11.0811C2.02935 11.024 2.24434 11.0811 2.34537 11.2448C2.40465 11.3407 2.4297 11.4648 2.44348 11.5794C2.45391 11.6636 2.47729 11.6998 2.55619 11.7357C2.73946 11.8194 2.92399 11.9078 3.08805 12.0232C3.30806 12.1782 3.34021 12.4657 3.18616 12.6732C3.03754 12.8732 2.76326 12.9219 2.54576 12.7778C2.34621 12.6453 2.1429 12.5373 1.89242 12.5861C1.84733 12.5948 1.79974 12.6086 1.76175 12.6328C1.65571 12.7007 1.66072 12.7894 1.77636 12.8373C2.021 12.939 2.26939 13.0315 2.51403 13.1328C2.9052 13.2944 3.22123 13.5369 3.33854 13.9657C3.48716 14.5086 3.18157 15.0773 2.61255 15.3065C2.48648 15.3573 2.43972 15.4157 2.44223 15.5515C2.44598 15.7861 2.284 15.9082 2.09322 15.9998H1.87446H1.87488Z" fill="#C2C2C2"/>
<path d="M15.6246 0C16.1022 0.17375 16.0634 0.620833 15.7887 0.886667C14.988 1.66167 14.2082 2.45833 13.42 3.24583C13.1323 3.53292 12.8898 3.5325 12.6026 3.245C12.2269 2.86958 11.8511 2.49417 11.4758 2.11792C11.2487 1.89042 11.2303 1.61167 11.4274 1.41208C11.6207 1.21667 11.9117 1.23167 12.1338 1.45292C12.4214 1.73917 12.7061 2.02792 13.0021 2.32583C13.0505 2.28083 13.0923 2.245 13.1311 2.20625C13.7869 1.55083 14.4403 0.893333 15.0999 0.242083C15.1972 0.14625 15.3241 0.08 15.4372 0C15.4998 0 15.562 0 15.6246 0Z" fill="#C2C2C2"/>
<path d="M9.76213 4.35363C9.76297 4.60488 9.73583 4.86071 9.77299 5.10654C9.80471 5.31446 10.0385 5.43279 10.2577 5.41071C10.4706 5.38946 10.6463 5.22571 10.6626 5.00196C10.6781 4.79029 10.666 4.57654 10.666 4.35404C10.7227 4.34863 10.7628 4.34196 10.8029 4.34196C11.2037 4.34113 11.6048 4.33988 12.0056 4.34196C12.3133 4.34363 12.5032 4.53113 12.5032 4.83863C12.5045 6.99404 12.5045 9.14946 12.5032 11.3049C12.5032 11.6282 12.3062 11.8082 11.961 11.8082C10.1387 11.8086 8.31643 11.8082 6.49458 11.8082C5.67718 11.8082 4.85977 11.8086 4.04236 11.8082C3.67624 11.8082 3.49505 11.6274 3.49464 11.2628C3.49422 9.13863 3.49422 7.01446 3.49464 4.89029C3.49464 4.51279 3.66872 4.34113 4.05071 4.34154C4.48279 4.34196 4.91487 4.34488 5.34654 4.34654L5.34153 4.34154C5.34153 4.53363 5.34028 4.72613 5.34236 4.91821C5.34529 5.20946 5.53858 5.41279 5.80951 5.41279C6.08004 5.41279 6.27416 5.20946 6.27875 4.91821C6.28209 4.72613 6.28167 4.53363 6.28293 4.34154L6.27875 4.34613C6.69664 4.34613 7.11495 4.34613 7.53284 4.34613L7.52824 4.34113C7.52908 4.53863 7.52741 4.73613 7.53075 4.93363C7.53576 5.21238 7.73322 5.41238 7.99832 5.41279C8.26341 5.41279 8.46087 5.21279 8.46672 4.93363C8.47089 4.73613 8.46922 4.53863 8.47006 4.34113L8.46588 4.34571C8.8988 4.34904 9.33172 4.35238 9.76505 4.35571L9.76171 4.35279L9.76213 4.35363ZM6.27917 7.36113C6.28084 7.10571 6.07503 6.90279 5.81202 6.90113C5.54776 6.89904 5.3432 7.09738 5.34236 7.35571C5.34153 7.61738 5.55736 7.83529 5.81452 7.83238C6.06375 7.82946 6.2775 7.61279 6.27917 7.36113ZM6.27917 9.36904C6.28 9.11529 6.0696 8.90779 5.81035 8.90696C5.54943 8.90613 5.34236 9.10946 5.34236 9.36654C5.34236 9.62946 5.55694 9.84446 5.81578 9.84154C6.06417 9.83863 6.27833 9.61988 6.27917 9.36904ZM8.00708 6.90071C7.74074 6.89821 7.53242 7.09696 7.53158 7.35488C7.53075 7.61113 7.74115 7.82863 7.99247 7.83154C8.25339 7.83446 8.46881 7.61738 8.46755 7.35363C8.4663 7.10279 8.26341 6.90321 8.00708 6.90113V6.90071ZM8.005 9.84154C8.26174 9.83821 8.47507 9.61363 8.46797 9.35404C8.46087 9.09863 8.24671 8.90029 7.98579 8.90696C7.73155 8.91363 7.53158 9.11529 7.53158 9.36571C7.53158 9.62738 7.74783 9.84446 8.00541 9.84154H8.005ZM10.2072 6.90071C9.94081 6.89863 9.73583 7.09821 9.73708 7.35863C9.73834 7.61696 9.94665 7.82988 10.2005 7.83196C10.4518 7.83404 10.6672 7.62113 10.6722 7.36529C10.6776 7.10738 10.4722 6.90279 10.2067 6.90071H10.2072ZM10.2042 8.90654C9.94415 8.90613 9.73625 9.11113 9.73708 9.36738C9.7375 9.62404 9.94373 9.83738 10.1955 9.84154C10.4535 9.84613 10.6697 9.63071 10.671 9.36821C10.6722 9.11279 10.4643 8.90696 10.2042 8.90654Z" fill="#C2C2C2"/>
<path d="M5.34656 4.34704C5.34531 4.16038 5.33988 3.97371 5.34322 3.78746C5.34823 3.52079 5.54653 3.31913 5.80119 3.31454C6.05835 3.30954 6.27001 3.51538 6.27794 3.78704C6.28337 3.97329 6.27919 4.16038 6.27919 4.34663L6.28337 4.34204C5.96943 4.34204 5.65549 4.34204 5.34155 4.34204L5.34656 4.34704Z" fill="#C2C2C2"/>
<path d="M7.53371 4.34704C7.53287 4.16038 7.52828 3.97371 7.53204 3.78746C7.53746 3.52163 7.73701 3.31954 7.99125 3.31454C8.24967 3.30954 8.46007 3.51496 8.46717 3.78704C8.47176 3.97329 8.46717 4.16038 8.46675 4.34663L8.47093 4.34204C8.15699 4.34204 7.84305 4.34204 7.52911 4.34204L7.53371 4.34704Z" fill="#C2C2C2"/>
<path d="M9.76551 4.35661C9.76593 4.11077 9.73796 3.86036 9.77595 3.61994C9.80768 3.41744 10.0435 3.29494 10.2464 3.31577C10.4556 3.33744 10.6251 3.49327 10.6614 3.70077C10.6693 3.74661 10.6723 3.79369 10.6727 3.84036C10.6739 4.00077 10.6731 4.16119 10.6731 4.35286C10.3596 4.35286 10.0607 4.35286 9.76217 4.35286L9.76551 4.35577V4.35661Z" fill="#C2C2C2"/>
</g>
<defs>
<clipPath id="clip0_18976_7780">
<rect width="16" height="16" fill="white"/>
</clipPath>
</defs>
</svg>
