<svg width="20" height="20" viewBox="0 0 20 20" fill="none" xmlns="http://www.w3.org/2000/svg">
<path fill-rule="evenodd" clip-rule="evenodd" d="M16.4812 3.69133C17.3877 3.30961 18.3597 4.07621 18.1996 5.04679L16.3088 16.5107C16.1265 17.616 14.9125 18.2503 13.8984 17.6995C13.0498 17.2385 11.7908 16.5291 10.6562 15.7877C10.0896 15.4175 8.35466 14.2303 8.56791 13.3852C8.75024 12.6626 11.6668 9.94771 13.3335 8.33313C13.9882 7.69891 13.69 7.33251 12.9168 7.91646C10.9988 9.36505 7.91951 11.5675 6.90121 12.1873C6.00277 12.7341 5.53367 12.8275 4.97413 12.7341C3.95235 12.5639 3.00504 12.3002 2.23164 11.9796C1.18634 11.5463 1.23725 10.1098 2.23094 9.69146L16.4812 3.69133Z" stroke="white" stroke-width="1.5"/>
</svg>
