<svg width="12" height="12" viewBox="0 0 12 12" fill="none" xmlns="http://www.w3.org/2000/svg">
<path fill-rule="evenodd" clip-rule="evenodd" d="M12 2.181C11.5624 2.39408 11.081 2.53937 10.5908 2.59748C11.0985 2.26817 11.4923 1.74515 11.6674 1.11559C11.1947 1.42552 10.6696 1.64829 10.1007 1.76452C9.65427 1.25118 9.01532 0.921875 8.30634 0.921875C6.94967 0.921875 5.84683 2.12289 5.84683 3.60478C5.84683 3.81786 5.87309 4.02126 5.9081 4.21497C3.85996 4.09874 2.04814 3.03333 0.83151 1.41584C0.630197 1.80326 0.507659 2.26817 0.507659 2.76213C0.507659 3.69195 0.945295 4.50554 1.60175 4.98981C1.19912 4.97044 0.822757 4.85422 0.490153 4.65082C0.490153 4.6605 0.490153 4.67988 0.490153 4.67988C0.490153 5.02856 0.551422 5.34818 0.656455 5.64843C0.954048 6.49108 1.63676 7.12064 2.45952 7.30467C2.24945 7.36278 2.03063 7.40152 1.81182 7.40152C1.65427 7.40152 1.49672 7.38215 1.34792 7.35309C1.66302 8.41851 2.5733 9.19335 3.64989 9.21272C2.80087 9.94883 1.74179 10.375 0.586433 10.375C0.38512 10.375 0.19256 10.3653 0 10.3362C1.09409 11.1014 2.38074 11.5373 3.77243 11.5373C7.62363 11.5373 9.98687 8.58316 10.6083 5.53221C10.7221 4.98981 10.7746 4.44742 10.7746 3.91472C10.7746 3.79849 10.7746 3.68226 10.7659 3.56604C11.256 3.1883 11.6674 2.71371 12 2.181Z" fill="#808080"/>
</svg>
