<svg width="24" height="24" viewBox="0 0 24 24" fill="none" xmlns="http://www.w3.org/2000/svg">
<path d="M4.91338 7.37295C8.82695 3.54235 15.1731 3.54235 19.0866 7.37295L19.5578 7.83379C19.6043 7.87881 19.6412 7.9327 19.6664 7.99227C19.6917 8.05184 19.7047 8.11587 19.7047 8.18056C19.7047 8.24525 19.6917 8.30928 19.6664 8.36884C19.6412 8.42841 19.6043 8.4823 19.5578 8.52732L17.9465 10.1043C17.899 10.1503 17.8354 10.1761 17.7692 10.1761C17.7031 10.1761 17.6395 10.1503 17.592 10.1043L16.9438 9.46974C14.2138 6.79804 9.78687 6.79804 7.05619 9.46974L6.36201 10.149C6.31449 10.1951 6.25091 10.2208 6.18474 10.2208C6.11856 10.2208 6.05499 10.1951 6.00747 10.149L4.39615 8.57204C4.3497 8.52703 4.31276 8.47313 4.28754 8.41357C4.26231 8.354 4.24932 8.28997 4.24932 8.22528C4.24932 8.16059 4.26231 8.09656 4.28754 8.037C4.31276 7.97743 4.3497 7.92353 4.39615 7.87852L4.91338 7.37295ZM22.4194 10.6338L23.8532 12.0377C23.8996 12.0828 23.9366 12.1367 23.9618 12.1962C23.987 12.2558 24 12.3198 24 12.3845C24 12.4492 23.987 12.5132 23.9618 12.5728C23.9366 12.6324 23.8996 12.6862 23.8532 12.7313L17.3872 19.0599C17.2922 19.1521 17.165 19.2037 17.0326 19.2037C16.9002 19.2037 16.773 19.1521 16.6781 19.0599L12.0891 14.5681C12.0654 14.5449 12.0335 14.532 12.0003 14.532C11.9671 14.532 11.9353 14.5449 11.9115 14.5681L7.32258 19.0599C7.22762 19.1521 7.10043 19.2037 6.96804 19.2037C6.83564 19.2037 6.70846 19.1521 6.61349 19.0599L0.146834 12.7313C0.10038 12.6862 0.0634444 12.6324 0.0382209 12.5728C0.0129973 12.5132 0 12.4492 0 12.3845C0 12.3198 0.0129973 12.2558 0.0382209 12.1962C0.0634444 12.1367 0.10038 12.0828 0.146834 12.0377L1.5812 10.6338C1.67614 10.5418 1.80318 10.4903 1.93542 10.4903C2.06766 10.4903 2.19471 10.5418 2.28964 10.6338L6.87859 15.1256C6.90233 15.1488 6.9342 15.1617 6.96739 15.1617C7.00058 15.1617 7.03245 15.1488 7.05619 15.1256L11.6451 10.6338C11.7401 10.5416 11.8673 10.49 11.9997 10.49C12.1321 10.49 12.2593 10.5416 12.3542 10.6338L16.9438 15.1256C16.9676 15.1488 16.9994 15.1617 17.0326 15.1617C17.0658 15.1617 17.0977 15.1488 17.1214 15.1256L21.7104 10.6338C21.8053 10.5416 21.9325 10.49 22.0649 10.49C22.1973 10.49 22.3245 10.5416 22.4194 10.6338Z" fill="white"/>
</svg>
