<svg width="24" height="16" viewBox="0 0 24 16" fill="none" xmlns="http://www.w3.org/2000/svg">
<path d="M4.91338 3.37295C8.82695 -0.457652 15.1731 -0.457652 19.0866 3.37295L19.5578 3.83379C19.6043 3.87881 19.6412 3.9327 19.6664 3.99227C19.6917 4.05184 19.7047 4.11587 19.7047 4.18056C19.7047 4.24525 19.6917 4.30928 19.6664 4.36884C19.6412 4.42841 19.6043 4.4823 19.5578 4.52732L17.9465 6.10429C17.899 6.15034 17.8354 6.17609 17.7692 6.17609C17.7031 6.17609 17.6395 6.15034 17.592 6.10429L16.9438 5.46974C14.2138 2.79804 9.78687 2.79804 7.05619 5.46974L6.36201 6.14901C6.31449 6.19506 6.25091 6.22081 6.18474 6.22081C6.11856 6.22081 6.05499 6.19506 6.00747 6.14901L4.39615 4.57205C4.3497 4.52703 4.31276 4.47313 4.28754 4.41357C4.26231 4.354 4.24932 4.28997 4.24932 4.22528C4.24932 4.16059 4.26231 4.09656 4.28754 4.037C4.31276 3.97743 4.3497 3.92353 4.39615 3.87852L4.91338 3.37295ZM22.4194 6.63383L23.8532 8.03774C23.8996 8.08276 23.9366 8.13665 23.9618 8.19622C23.987 8.25579 24 8.31981 24 8.3845C24 8.44919 23.987 8.51322 23.9618 8.57279C23.9366 8.63236 23.8996 8.68625 23.8532 8.73127L17.3872 15.0599C17.2922 15.1521 17.165 15.2037 17.0326 15.2037C16.9002 15.2037 16.773 15.1521 16.6781 15.0599L12.0891 10.5681C12.0654 10.5449 12.0335 10.532 12.0003 10.532C11.9671 10.532 11.9353 10.5449 11.9115 10.5681L7.32258 15.0599C7.22762 15.1521 7.10043 15.2037 6.96804 15.2037C6.83564 15.2037 6.70846 15.1521 6.61349 15.0599L0.146834 8.73127C0.10038 8.68625 0.0634444 8.63236 0.0382209 8.57279C0.0129973 8.51322 0 8.44919 0 8.3845C0 8.31981 0.0129973 8.25579 0.0382209 8.19622C0.0634444 8.13665 0.10038 8.08276 0.146834 8.03774L1.5812 6.63383C1.67614 6.54177 1.80318 6.49028 1.93542 6.49028C2.06766 6.49028 2.19471 6.54177 2.28964 6.63383L6.87859 11.1256C6.90233 11.1488 6.9342 11.1617 6.96739 11.1617C7.00058 11.1617 7.03245 11.1488 7.05619 11.1256L11.6451 6.63383C11.7401 6.54158 11.8673 6.48997 11.9997 6.48997C12.1321 6.48997 12.2593 6.54158 12.3542 6.63383L16.9438 11.1256C16.9676 11.1488 16.9994 11.1617 17.0326 11.1617C17.0658 11.1617 17.0977 11.1488 17.1214 11.1256L21.7104 6.63383C21.8053 6.54158 21.9325 6.48997 22.0649 6.48997C22.1973 6.48997 22.3245 6.54158 22.4194 6.63383Z" fill="white"/>
</svg>
