<svg width="32" height="32" viewBox="0 0 32 32" fill="none" xmlns="http://www.w3.org/2000/svg">
<g clip-path="url(#clip0_6105_25882)">
<path fill-rule="evenodd" clip-rule="evenodd" d="M16 29C23.1797 29 29 23.1797 29 16C29 8.8203 23.1797 3 16 3C8.8203 3 3 8.8203 3 16C3 23.1797 8.8203 29 16 29ZM16 32C16.5058 32 17.0062 31.9765 17.5 31.9306C21.9084 31.5207 25.7979 29.3224 28.4358 26.0681C28.6051 25.8593 28.7692 25.6462 28.928 25.4289C29.537 24.5952 30.0673 23.7005 30.5081 22.7556C31.4654 20.7032 32 18.414 32 16C32 13.586 31.4654 11.2968 30.5081 9.24444C30.0673 8.2995 29.537 7.40476 28.928 6.57115C28.7692 6.35383 28.6051 6.14068 28.4358 5.93187C25.7979 2.67763 21.9084 0.47927 17.5 0.0693874C17.0062 0.0234724 16.5058 0 16 0C15.4942 0 14.9938 0.0234724 14.5 0.0693874C10.0916 0.47927 6.2021 2.67763 3.56418 5.93186C3.39492 6.14068 3.23081 6.35384 3.07204 6.57115C2.46301 7.40477 1.93266 8.2995 1.49191 9.24444C0.534616 11.2968 0 13.586 0 16C0 18.414 0.534616 20.7032 1.49191 22.7556C1.93266 23.7005 2.46301 24.5952 3.07204 25.4289C3.2308 25.6462 3.39492 25.8593 3.56418 26.0681C6.2021 29.3224 10.0916 31.5207 14.5 31.9306C14.9938 31.9765 15.4942 32 16 32Z" fill="#C2C2C2"/>
<path fill-rule="evenodd" clip-rule="evenodd" d="M19.7492 25.8429C21.0815 23.4745 22 20.0006 22 16C22 11.9994 21.0815 8.52547 19.7492 6.15708C18.9848 4.79803 18.2024 3.97747 17.5 3.51497C16.9298 3.13947 16.4123 3 16 3C15.5877 3 15.0702 3.13947 14.5 3.51497C13.7976 3.97747 13.0152 4.79803 12.2508 6.15708C10.9185 8.52547 10 11.9994 10 16C10 20.0006 10.9185 23.4745 12.2508 25.8429C13.0152 27.202 13.7976 28.0225 14.5 28.485C15.0702 28.8605 15.5877 29 16 29C16.4123 29 16.9298 28.8605 17.5 28.485C18.2024 28.0225 18.9848 27.202 19.7492 25.8429ZM16 32C20.9706 32 25 24.8366 25 16C25 7.16344 20.9706 0 16 0C11.0294 0 7 7.16344 7 16C7 24.8366 11.0294 32 16 32Z" fill="#C2C2C2"/>
<path fill-rule="evenodd" clip-rule="evenodd" d="M28.928 6.57115C28.8765 6.64336 28.7942 6.74184 28.6645 6.86645C28.2207 7.29272 27.4201 7.81484 26.1846 8.31679C24.0311 9.19164 20.9984 9.82646 17.5 9.96952C17.0088 9.98961 16.5084 10 16 10C15.4916 10 14.9912 9.98961 14.5 9.96952C11.0016 9.82646 7.96889 9.19164 5.81542 8.31679C4.57985 7.81484 3.7793 7.29272 3.3355 6.86645C3.20576 6.74184 3.12354 6.64336 3.07204 6.57115C2.46301 7.40477 1.93266 8.2995 1.49191 9.24444C3.8382 11.288 8.7236 12.7536 14.5 12.9718C14.9938 12.9905 15.4942 13 16 13C16.5058 13 17.0062 12.9905 17.5 12.9718C23.2764 12.7536 28.1618 11.288 30.5081 9.24444C30.0673 8.2995 29.537 7.40476 28.928 6.57115Z" fill="#C2C2C2"/>
<path fill-rule="evenodd" clip-rule="evenodd" d="M26.1846 23.6832C24.0311 22.8084 20.9984 22.1735 17.5 22.0305C17.0088 22.0104 16.5084 22 16 22C15.4916 22 14.9912 22.0104 14.5 22.0305C11.0016 22.1735 7.96889 22.8084 5.81542 23.6832C4.57985 24.1852 3.7793 24.7073 3.3355 25.1335C3.20576 25.2582 3.12354 25.3566 3.07204 25.4289C2.46301 24.5952 1.93266 23.7005 1.49191 22.7556C3.83819 20.712 8.72359 19.2464 14.5 19.0282C14.9938 19.0095 15.4942 19 16 19C16.5058 19 17.0062 19.0095 17.5 19.0282C23.2764 19.2464 28.1618 20.712 30.5081 22.7556C30.0673 23.7005 29.537 24.5952 28.928 25.4289C28.8765 25.3566 28.7942 25.2582 28.6645 25.1335C28.2207 24.7073 27.4201 24.1852 26.1846 23.6832Z" fill="#C2C2C2"/>
<path d="M17.5 3.51497C16.9298 3.13947 16.4123 3 16 3C15.5877 3 15.0702 3.13947 14.5 3.51497V9.96952C14.9912 9.98961 15.4916 10 16 10C16.5084 10 17.0088 9.98961 17.5 9.96952V3.51497Z" fill="#C2C2C2"/>
<path d="M16 13C15.4942 13 14.9938 12.9905 14.5 12.9718V19.0282C14.9938 19.0095 15.4942 19 16 19C16.5058 19 17.0062 19.0095 17.5 19.0282V12.9718C17.0062 12.9905 16.5058 13 16 13Z" fill="#C2C2C2"/>
<path d="M14.5 28.485C15.0702 28.8605 15.5877 29 16 29C16.4123 29 16.9298 28.8605 17.5 28.485V22.0305C17.0088 22.0104 16.5084 22 16 22C15.4916 22 14.9912 22.0104 14.5 22.0305V28.485Z" fill="#C2C2C2"/>
</g>
<defs>
<clipPath id="clip0_6105_25882">
<rect width="32" height="32" fill="white"/>
</clipPath>
</defs>
</svg>
