<svg width="12" height="12" viewBox="0 0 12 12" fill="none" xmlns="http://www.w3.org/2000/svg">
<path fill-rule="evenodd" clip-rule="evenodd" d="M6 10.875C8.69239 10.875 10.875 8.69239 10.875 6C10.875 3.30761 8.69239 1.125 6 1.125C3.30761 1.125 1.125 3.30761 1.125 6C1.125 8.69239 3.30761 10.875 6 10.875ZM6 12C6.18968 12 6.37731 11.9912 6.5625 11.974C8.21566 11.8203 9.67421 10.9959 10.6634 9.77555C10.7269 9.69725 10.7884 9.61731 10.848 9.53582C11.0764 9.22321 11.2753 8.88769 11.4405 8.53333C11.7995 7.7637 12 6.90526 12 6C12 5.09474 11.7995 4.2363 11.4405 3.46667C11.2753 3.11231 11.0764 2.77679 10.848 2.46418C10.7884 2.38269 10.7269 2.30275 10.6634 2.22445C9.67421 1.00411 8.21566 0.179726 6.5625 0.0260203C6.37731 0.00880215 6.18968 0 6 0C5.81032 0 5.62269 0.00880215 5.4375 0.0260203C3.78434 0.179726 2.32579 1.00411 1.33657 2.22445C1.27309 2.30275 1.21155 2.38269 1.15201 2.46418C0.92363 2.77679 0.724748 3.11231 0.559466 3.46667C0.200481 4.2363 0 5.09474 0 6C0 6.90526 0.200481 7.7637 0.559466 8.53333C0.724748 8.88769 0.92363 9.22321 1.15201 9.53582C1.21155 9.61731 1.27309 9.69725 1.33657 9.77555C2.32579 10.9959 3.78434 11.8203 5.4375 11.974C5.62269 11.9912 5.81032 12 6 12Z" fill="#808080"/>
<path fill-rule="evenodd" clip-rule="evenodd" d="M7.40596 9.6911C7.90555 8.80295 8.25 7.50024 8.25 6C8.25 4.49976 7.90555 3.19705 7.40596 2.3089C7.11929 1.79926 6.82589 1.49155 6.5625 1.31811C6.34866 1.1773 6.15461 1.125 6 1.125C5.84539 1.125 5.65134 1.1773 5.4375 1.31811C5.17411 1.49155 4.88071 1.79926 4.59404 2.3089C4.09445 3.19705 3.75 4.49976 3.75 6C3.75 7.50024 4.09445 8.80295 4.59404 9.6911C4.88071 10.2007 5.17411 10.5085 5.4375 10.6819C5.65134 10.8227 5.84539 10.875 6 10.875C6.15461 10.875 6.34866 10.8227 6.5625 10.6819C6.82589 10.5085 7.11929 10.2007 7.40596 9.6911ZM6 12C7.86396 12 9.375 9.31371 9.375 6C9.375 2.68629 7.86396 0 6 0C4.13604 0 2.625 2.68629 2.625 6C2.625 9.31371 4.13604 12 6 12Z" fill="#808080"/>
<path fill-rule="evenodd" clip-rule="evenodd" d="M10.848 2.46418C10.8287 2.49126 10.7978 2.52819 10.7492 2.57492C10.5828 2.73477 10.2826 2.93057 9.81922 3.1188C9.01166 3.44687 7.87439 3.68492 6.5625 3.73857C6.3783 3.7461 6.19066 3.75 6 3.75C5.80934 3.75 5.6217 3.7461 5.4375 3.73857C4.12561 3.68492 2.98834 3.44687 2.18078 3.1188C1.71744 2.93057 1.41724 2.73477 1.25081 2.57492C1.20216 2.52819 1.17133 2.49126 1.15201 2.46418C0.92363 2.77679 0.724748 3.11231 0.559466 3.46667C1.43932 4.23299 3.27135 4.78261 5.4375 4.86443C5.62269 4.87142 5.81032 4.875 6 4.875C6.18968 4.875 6.37731 4.87142 6.5625 4.86443C8.72865 4.78261 10.5607 4.233 11.4405 3.46667C11.2753 3.11231 11.0764 2.77679 10.848 2.46418Z" fill="#808080"/>
<path fill-rule="evenodd" clip-rule="evenodd" d="M9.81922 8.8812C9.01166 8.55313 7.87439 8.31508 6.5625 8.26143C6.3783 8.2539 6.19066 8.25 6 8.25C5.80934 8.25 5.6217 8.2539 5.4375 8.26143C4.12561 8.31508 2.98834 8.55313 2.18078 8.8812C1.71744 9.06943 1.41724 9.26523 1.25081 9.42508C1.20216 9.47181 1.17133 9.50874 1.15201 9.53582C0.92363 9.22321 0.724748 8.88769 0.559466 8.53333C1.43932 7.767 3.27135 7.21739 5.4375 7.13557C5.62269 7.12858 5.81032 7.125 6 7.125C6.18968 7.125 6.37731 7.12858 6.5625 7.13557C8.72865 7.21739 10.5607 7.76701 11.4405 8.53333C11.2753 8.88769 11.0764 9.22321 10.848 9.53582C10.8287 9.50874 10.7978 9.47181 10.7492 9.42508C10.5828 9.26523 10.2826 9.06943 9.81922 8.8812Z" fill="#808080"/>
<path d="M6.5625 1.31811C6.34866 1.1773 6.15461 1.125 6 1.125C5.84539 1.125 5.65134 1.1773 5.4375 1.31811V3.73857C5.6217 3.7461 5.80934 3.75 6 3.75C6.19066 3.75 6.3783 3.7461 6.5625 3.73857V1.31811Z" fill="#808080"/>
<path d="M6 4.875C5.81032 4.875 5.62269 4.87142 5.4375 4.86443V7.13557C5.62269 7.12858 5.81032 7.125 6 7.125C6.18968 7.125 6.37731 7.12858 6.5625 7.13557V4.86443C6.37731 4.87142 6.18968 4.875 6 4.875Z" fill="#808080"/>
<path d="M5.4375 10.6819C5.65134 10.8227 5.84539 10.875 6 10.875C6.15461 10.875 6.34866 10.8227 6.5625 10.6819V8.26143C6.3783 8.2539 6.19066 8.25 6 8.25C5.80934 8.25 5.6217 8.2539 5.4375 8.26143V10.6819Z" fill="#808080"/>
</svg>
