<svg width="20" height="20" viewBox="0 0 20 20" fill="none" xmlns="http://www.w3.org/2000/svg">
<path fill-rule="evenodd" clip-rule="evenodd" d="M14.4366 3.28186C14.1693 2.07599 12.9978 1.28347 11.8101 1.62542L6.05639 3.28186H14.4366ZM15.4392 3.28186C15.1579 1.38383 13.3681 0.0942549 11.5525 0.616974L2.29113 3.28325C1.29566 3.32251 0.5 4.19162 0.5 5.25802V17.5238C0.5 18.6152 1.33342 19.5 2.36149 19.5H16.5259C17.554 19.5 18.3874 18.6152 18.3874 17.5238V14.4101C19.0075 14.3747 19.5 13.8298 19.5 13.1627V9.71006C19.5 9.04295 19.0075 8.49797 18.3874 8.46259V5.25802C18.3874 4.16662 17.554 3.28186 16.5259 3.28186H15.4392ZM17.4032 8.46076V5.25802C17.4032 4.74368 17.0104 4.32673 16.5259 4.32673H2.36148C1.87699 4.32673 1.48423 4.74368 1.48423 5.25802V17.5238C1.48423 18.0382 1.87699 18.4551 2.36149 18.4551H16.5259C17.0104 18.4551 17.4032 18.0382 17.4032 17.5238V14.412H13.4448C11.8968 14.412 10.6419 13.0797 10.6419 11.4364C10.6419 9.79298 11.8968 8.46076 13.4448 8.46076H17.4032ZM13.4448 9.50563C12.4404 9.50563 11.6261 10.37 11.6261 11.4364C11.6261 12.5027 12.4404 13.3671 13.4448 13.3671H18.3232C18.4296 13.3671 18.5158 13.2756 18.5158 13.1627V9.71006C18.5158 9.59716 18.4296 9.50563 18.3232 9.50563H13.4448Z" fill="white"/>
</svg>
