<svg width="16" height="16" viewBox="0 0 16 16" fill="none" xmlns="http://www.w3.org/2000/svg">
<path fill-rule="evenodd" clip-rule="evenodd" d="M8.49998 2.02073C8.19058 1.84209 7.80938 1.84209 7.49998 2.02073L3.07178 4.57735C2.76238 4.75598 2.57178 5.08611 2.57178 5.44338V10.5566C2.57178 10.9139 2.76238 11.244 3.07178 11.4227L7.49998 13.9793C7.80938 14.1579 8.19058 14.1579 8.49998 13.9793L12.9282 11.4227C13.2376 11.244 13.4282 10.9139 13.4282 10.5566V5.44338C13.4282 5.08611 13.2376 4.75598 12.9282 4.57735L8.49998 2.02073ZM14.9282 5.1547C14.9282 4.44017 14.547 3.77992 13.9282 3.42265L8.99998 0.57735C8.38118 0.220085 7.61878 0.220085 6.99998 0.57735L2.07178 3.42265C1.45298 3.77992 1.07178 4.44017 1.07178 5.1547V10.8453C1.07178 11.5598 1.45297 12.2201 2.07178 12.5774L6.99998 15.4226C7.61878 15.7799 8.38118 15.7799 8.99998 15.4227L13.9282 12.5774C14.547 12.2201 14.9282 11.5598 14.9282 10.8453V5.1547Z" fill="#C2C2C2"/>
<path d="M9.72016 11C9.38999 11 9.08109 10.837 8.89472 10.5645L6.69498 7.34777C6.6392 7.2662 6.5115 7.30635 6.51244 7.40517L6.54179 10.4953C6.54443 10.7732 6.31981 11 6.04181 11H5.5C5.22386 11 5 10.7761 5 10.5V5.5C5 5.22386 5.22386 5 5.5 5H6.28876C6.61915 5 6.92822 5.16319 7.11455 5.43603L9.30498 8.64333C9.36073 8.72497 9.48849 8.68483 9.48755 8.58598L9.45822 5.50476C9.45557 5.22677 9.6802 5 9.9582 5H10.5C10.7761 5 11 5.22386 11 5.5V10.5C11 10.7761 10.7761 11 10.5 11H9.72016Z" fill="#C2C2C2"/>
</svg>
