<svg width="20" height="20" viewBox="0 0 20 20" fill="none" xmlns="http://www.w3.org/2000/svg">
<mask id="path-1-outside-1_28519_38131" maskUnits="userSpaceOnUse" x="2.74219" y="-0.552734" width="14" height="21" fill="black">
<rect fill="white" x="2.74219" y="-0.552734" width="14" height="21"/>
<path d="M4.985 18.3876L4.78996 18.378C4.16775 18.3141 3.65729 17.737 3.75401 17.1022C3.77196 16.9844 3.81688 16.8664 3.85604 16.7545L4.46929 14.7457L4.61771 14.0896C4.88941 12.9517 5.23079 12.0421 5.75862 11.0019L6.91612 8.74768C7.28508 7.97227 7.35283 7.65143 7.07975 6.82543C6.81546 6.02581 6.18908 5.19018 6.17058 4.40189C6.15771 3.8527 6.20204 3.373 6.62441 2.95757C6.71358 2.86983 6.71537 2.89247 6.69454 2.77758L6.52308 1.61059C6.49966 1.46604 6.47554 1.31174 6.49675 1.16465C6.61679 0.331622 7.89883 0.19572 8.12108 1.00335L8.1255 1.01977C8.13387 1.04331 8.14254 1.06069 8.14687 1.08558L8.14933 1.10018C8.17425 1.23732 8.16154 1.38061 8.17137 1.51974L8.27054 2.53784C8.27779 2.58731 8.36279 2.6096 8.40666 2.6304C8.75025 2.79338 9.03021 3.03471 9.29483 3.30213L9.64246 3.66001C9.75654 3.78257 9.87 3.92397 10.0065 4.02133C10.0974 3.93667 10.1782 3.83942 10.2635 3.74891L10.5457 3.46178C10.7774 3.21757 11.0128 2.9687 11.3002 2.78883C11.4275 2.7092 11.731 2.62346 11.7407 2.51718L11.808 1.7229C11.8135 1.65926 11.8235 1.59645 11.8262 1.53247L11.8305 1.23088C11.8311 1.17212 11.8266 1.09566 11.8511 1.04152L11.9144 0.897701C12.0583 0.624322 12.3087 0.488997 12.604 0.452292C12.6198 0.441288 12.7267 0.451363 12.7467 0.454209L12.8756 0.473509C13.3193 0.556592 13.5747 1.06847 13.4939 1.48612C13.4751 1.58324 13.4717 1.68273 13.4586 1.78063L13.3158 2.80071C13.3064 2.89241 13.2991 2.87118 13.3668 2.93559C13.7589 3.30827 13.8897 4.02175 13.822 4.55006C13.7362 5.21814 13.353 5.76035 13.0864 6.36156C12.8874 6.81035 12.6573 7.47993 12.7709 7.98185C12.8346 8.26306 12.9733 8.52693 13.0972 8.78435L14.0381 10.5312L14.8582 12.168L15.239 13.0908C15.2863 13.2022 15.318 13.3236 15.3583 13.4379L15.6397 14.3571C15.6808 14.5087 15.7065 14.6657 15.7422 14.8186L15.9604 15.8776C15.989 16.0042 16.0157 16.145 16.0611 16.2665L16.1722 16.6155C16.2446 16.815 16.2963 17.1069 16.2767 17.3188C16.225 17.8759 15.7161 18.356 15.1593 18.3856C14.9989 18.3942 14.8355 18.3773 14.6755 18.3907C14.1192 18.437 13.5791 18.6826 13.0669 18.8867L11.8311 19.3349C11.2571 19.5124 10.7361 19.5101 10.1402 19.5102C8.96487 19.5103 8.61508 19.507 7.53908 19.1024L7.11825 18.9593C6.31508 18.6721 5.86741 18.3876 4.985 18.3876ZM12.6491 1.02631C12.5777 1.0437 12.5319 1.05849 12.4722 1.10361L12.4635 1.10992C12.4387 1.12895 12.4178 1.16298 12.4134 1.19385L12.3452 2.50508C12.456 2.51231 12.5681 2.51639 12.6762 2.54389L12.7668 2.56565L12.9025 1.6065C12.9299 1.39756 13.0102 1.00376 12.6491 1.02631ZM7.27416 1.03582C7.19083 1.0554 7.14762 1.08606 7.09729 1.15649L7.08946 1.1671C7.02141 1.26268 7.13637 1.95033 7.16387 2.06622L7.23683 2.56249L7.434 2.52463C7.51362 2.51173 7.5935 2.50087 7.67441 2.50376L7.62741 1.91821C7.61662 1.81031 7.59504 1.2384 7.56262 1.179L7.55458 1.16397C7.49379 1.05288 7.3945 1.0179 7.27416 1.03582ZM7.59075 3.08825C6.91208 3.19013 6.74716 3.69587 6.74783 4.2806C6.74862 4.94593 7.07954 5.35556 7.34954 5.93402C7.47112 6.19443 7.54233 6.46573 7.64925 6.72927C7.9885 6.64102 8.34937 6.66885 8.69791 6.66877L9.82912 6.6691L10.7021 6.65527C10.6735 6.62414 10.6614 6.58118 10.637 6.54689C10.3482 6.14114 10.1051 5.64502 9.93971 5.17506L9.83396 4.83268C9.77325 4.62323 9.72775 4.62664 9.58071 4.46498L9.14946 4.00331C8.74583 3.56598 8.41854 3.1403 7.78891 3.08848L7.59075 3.08825ZM12.2123 3.08893C11.8387 3.1368 11.5937 3.26665 11.3202 3.51901L10.3417 4.49431C10.3527 4.57406 10.3829 4.66502 10.4105 4.74048L10.5862 5.22989C10.7557 5.67423 11.0352 6.09918 11.3052 6.48656C11.3475 6.54727 11.3817 6.62389 11.4307 6.67777L11.4722 6.67923L11.8989 6.67148C12.073 6.6726 12.1925 6.68198 12.3542 6.74256C12.3754 6.69152 12.381 6.62714 12.3975 6.57285C12.6635 5.69535 13.4122 4.87923 13.2353 3.95923C13.1848 3.69675 13.0781 3.39923 12.8474 3.24016L12.7881 3.20516C12.6156 3.1094 12.41 3.06157 12.2123 3.08893ZM10.8986 7.26339L8.25841 7.26373C8.11975 7.26381 7.79996 7.19331 7.81483 7.40889L7.82546 7.57898C7.83304 7.71339 7.82912 7.84164 7.82325 7.97585L9.126 7.97548L12.186 7.96473C12.1607 7.80639 12.1716 7.64027 12.1776 7.4806C12.1897 7.16302 12.0576 7.26014 11.757 7.26264L10.8986 7.26339ZM7.65746 8.54989C7.56258 8.78106 7.44275 9.00093 7.33433 9.22777L6.83904 10.3719C6.45887 11.3781 6.22304 12.4455 6.03708 13.503L5.77962 15.2556C5.75554 15.5035 5.4325 15.6028 5.27525 15.3995L5.2665 15.3883C5.13087 15.2084 5.40612 13.6752 5.45391 13.4391L5.5585 12.9443C5.5685 12.8925 5.59241 12.8176 5.5825 12.7672L4.34496 17.0769C4.32458 17.1409 4.31429 17.2229 4.32179 17.2893L4.32346 17.3048C4.38929 17.8817 5.02821 17.7856 5.41958 17.8175C6.05321 17.8691 6.53554 18.1104 7.11246 18.3442C7.30362 18.4216 7.50166 18.4706 7.69537 18.5393L8.31796 18.7784C8.6325 18.8821 8.92662 18.9178 9.25379 18.9187L10.4735 18.9197C10.6583 18.9196 10.8478 18.927 11.0319 18.9102C11.5289 18.8649 11.9923 18.6369 12.4621 18.4881C13.2241 18.2763 13.7532 17.8615 14.6384 17.8156C14.8428 17.805 15.0575 17.8316 15.2549 17.7656C15.6197 17.6436 15.779 17.3061 15.675 16.9408L15.3673 15.8964L15.1222 14.683C15.0061 14.1681 14.8355 13.6602 14.645 13.1685L14.5237 12.8357C14.4641 12.6881 14.3926 12.5468 14.3216 12.4046L14.7391 14.3022C14.7744 14.4407 14.8517 15.1182 14.8341 15.2684C14.7984 15.5737 14.3135 15.5994 14.2582 15.2602L14.1752 14.5365L13.6184 11.9317C13.4026 11.0503 13.1388 10.1445 12.7215 9.33427L12.4774 8.87127C12.4235 8.76864 12.3645 8.66598 12.329 8.55531L7.65746 8.54989Z"/>
</mask>
<path d="M4.985 18.3876L4.78996 18.378C4.16775 18.3141 3.65729 17.737 3.75401 17.1022C3.77196 16.9844 3.81688 16.8664 3.85604 16.7545L4.46929 14.7457L4.61771 14.0896C4.88941 12.9517 5.23079 12.0421 5.75862 11.0019L6.91612 8.74768C7.28508 7.97227 7.35283 7.65143 7.07975 6.82543C6.81546 6.02581 6.18908 5.19018 6.17058 4.40189C6.15771 3.8527 6.20204 3.373 6.62441 2.95757C6.71358 2.86983 6.71537 2.89247 6.69454 2.77758L6.52308 1.61059C6.49966 1.46604 6.47554 1.31174 6.49675 1.16465C6.61679 0.331622 7.89883 0.19572 8.12108 1.00335L8.1255 1.01977C8.13387 1.04331 8.14254 1.06069 8.14687 1.08558L8.14933 1.10018C8.17425 1.23732 8.16154 1.38061 8.17137 1.51974L8.27054 2.53784C8.27779 2.58731 8.36279 2.6096 8.40666 2.6304C8.75025 2.79338 9.03021 3.03471 9.29483 3.30213L9.64246 3.66001C9.75654 3.78257 9.87 3.92397 10.0065 4.02133C10.0974 3.93667 10.1782 3.83942 10.2635 3.74891L10.5457 3.46178C10.7774 3.21757 11.0128 2.9687 11.3002 2.78883C11.4275 2.7092 11.731 2.62346 11.7407 2.51718L11.808 1.7229C11.8135 1.65926 11.8235 1.59645 11.8262 1.53247L11.8305 1.23088C11.8311 1.17212 11.8266 1.09566 11.8511 1.04152L11.9144 0.897701C12.0583 0.624322 12.3087 0.488997 12.604 0.452292C12.6198 0.441288 12.7267 0.451363 12.7467 0.454209L12.8756 0.473509C13.3193 0.556592 13.5747 1.06847 13.4939 1.48612C13.4751 1.58324 13.4717 1.68273 13.4586 1.78063L13.3158 2.80071C13.3064 2.89241 13.2991 2.87118 13.3668 2.93559C13.7589 3.30827 13.8897 4.02175 13.822 4.55006C13.7362 5.21814 13.353 5.76035 13.0864 6.36156C12.8874 6.81035 12.6573 7.47993 12.7709 7.98185C12.8346 8.26306 12.9733 8.52693 13.0972 8.78435L14.0381 10.5312L14.8582 12.168L15.239 13.0908C15.2863 13.2022 15.318 13.3236 15.3583 13.4379L15.6397 14.3571C15.6808 14.5087 15.7065 14.6657 15.7422 14.8186L15.9604 15.8776C15.989 16.0042 16.0157 16.145 16.0611 16.2665L16.1722 16.6155C16.2446 16.815 16.2963 17.1069 16.2767 17.3188C16.225 17.8759 15.7161 18.356 15.1593 18.3856C14.9989 18.3942 14.8355 18.3773 14.6755 18.3907C14.1192 18.437 13.5791 18.6826 13.0669 18.8867L11.8311 19.3349C11.2571 19.5124 10.7361 19.5101 10.1402 19.5102C8.96487 19.5103 8.61508 19.507 7.53908 19.1024L7.11825 18.9593C6.31508 18.6721 5.86741 18.3876 4.985 18.3876ZM12.6491 1.02631C12.5777 1.0437 12.5319 1.05849 12.4722 1.10361L12.4635 1.10992C12.4387 1.12895 12.4178 1.16298 12.4134 1.19385L12.3452 2.50508C12.456 2.51231 12.5681 2.51639 12.6762 2.54389L12.7668 2.56565L12.9025 1.6065C12.9299 1.39756 13.0102 1.00376 12.6491 1.02631ZM7.27416 1.03582C7.19083 1.0554 7.14762 1.08606 7.09729 1.15649L7.08946 1.1671C7.02141 1.26268 7.13637 1.95033 7.16387 2.06622L7.23683 2.56249L7.434 2.52463C7.51362 2.51173 7.5935 2.50087 7.67441 2.50376L7.62741 1.91821C7.61662 1.81031 7.59504 1.2384 7.56262 1.179L7.55458 1.16397C7.49379 1.05288 7.3945 1.0179 7.27416 1.03582ZM7.59075 3.08825C6.91208 3.19013 6.74716 3.69587 6.74783 4.2806C6.74862 4.94593 7.07954 5.35556 7.34954 5.93402C7.47112 6.19443 7.54233 6.46573 7.64925 6.72927C7.9885 6.64102 8.34937 6.66885 8.69791 6.66877L9.82912 6.6691L10.7021 6.65527C10.6735 6.62414 10.6614 6.58118 10.637 6.54689C10.3482 6.14114 10.1051 5.64502 9.93971 5.17506L9.83396 4.83268C9.77325 4.62323 9.72775 4.62664 9.58071 4.46498L9.14946 4.00331C8.74583 3.56598 8.41854 3.1403 7.78891 3.08848L7.59075 3.08825ZM12.2123 3.08893C11.8387 3.1368 11.5937 3.26665 11.3202 3.51901L10.3417 4.49431C10.3527 4.57406 10.3829 4.66502 10.4105 4.74048L10.5862 5.22989C10.7557 5.67423 11.0352 6.09918 11.3052 6.48656C11.3475 6.54727 11.3817 6.62389 11.4307 6.67777L11.4722 6.67923L11.8989 6.67148C12.073 6.6726 12.1925 6.68198 12.3542 6.74256C12.3754 6.69152 12.381 6.62714 12.3975 6.57285C12.6635 5.69535 13.4122 4.87923 13.2353 3.95923C13.1848 3.69675 13.0781 3.39923 12.8474 3.24016L12.7881 3.20516C12.6156 3.1094 12.41 3.06157 12.2123 3.08893ZM10.8986 7.26339L8.25841 7.26373C8.11975 7.26381 7.79996 7.19331 7.81483 7.40889L7.82546 7.57898C7.83304 7.71339 7.82912 7.84164 7.82325 7.97585L9.126 7.97548L12.186 7.96473C12.1607 7.80639 12.1716 7.64027 12.1776 7.4806C12.1897 7.16302 12.0576 7.26014 11.757 7.26264L10.8986 7.26339ZM7.65746 8.54989C7.56258 8.78106 7.44275 9.00093 7.33433 9.22777L6.83904 10.3719C6.45887 11.3781 6.22304 12.4455 6.03708 13.503L5.77962 15.2556C5.75554 15.5035 5.4325 15.6028 5.27525 15.3995L5.2665 15.3883C5.13087 15.2084 5.40612 13.6752 5.45391 13.4391L5.5585 12.9443C5.5685 12.8925 5.59241 12.8176 5.5825 12.7672L4.34496 17.0769C4.32458 17.1409 4.31429 17.2229 4.32179 17.2893L4.32346 17.3048C4.38929 17.8817 5.02821 17.7856 5.41958 17.8175C6.05321 17.8691 6.53554 18.1104 7.11246 18.3442C7.30362 18.4216 7.50166 18.4706 7.69537 18.5393L8.31796 18.7784C8.6325 18.8821 8.92662 18.9178 9.25379 18.9187L10.4735 18.9197C10.6583 18.9196 10.8478 18.927 11.0319 18.9102C11.5289 18.8649 11.9923 18.6369 12.4621 18.4881C13.2241 18.2763 13.7532 17.8615 14.6384 17.8156C14.8428 17.805 15.0575 17.8316 15.2549 17.7656C15.6197 17.6436 15.779 17.3061 15.675 16.9408L15.3673 15.8964L15.1222 14.683C15.0061 14.1681 14.8355 13.6602 14.645 13.1685L14.5237 12.8357C14.4641 12.6881 14.3926 12.5468 14.3216 12.4046L14.7391 14.3022C14.7744 14.4407 14.8517 15.1182 14.8341 15.2684C14.7984 15.5737 14.3135 15.5994 14.2582 15.2602L14.1752 14.5365L13.6184 11.9317C13.4026 11.0503 13.1388 10.1445 12.7215 9.33427L12.4774 8.87127C12.4235 8.76864 12.3645 8.66598 12.329 8.55531L7.65746 8.54989Z" fill="white"/>
<path d="M4.985 18.3876L4.78996 18.378C4.16775 18.3141 3.65729 17.737 3.75401 17.1022C3.77196 16.9844 3.81688 16.8664 3.85604 16.7545L4.46929 14.7457L4.61771 14.0896C4.88941 12.9517 5.23079 12.0421 5.75862 11.0019L6.91612 8.74768C7.28508 7.97227 7.35283 7.65143 7.07975 6.82543C6.81546 6.02581 6.18908 5.19018 6.17058 4.40189C6.15771 3.8527 6.20204 3.373 6.62441 2.95757C6.71358 2.86983 6.71537 2.89247 6.69454 2.77758L6.52308 1.61059C6.49966 1.46604 6.47554 1.31174 6.49675 1.16465C6.61679 0.331622 7.89883 0.19572 8.12108 1.00335L8.1255 1.01977C8.13387 1.04331 8.14254 1.06069 8.14687 1.08558L8.14933 1.10018C8.17425 1.23732 8.16154 1.38061 8.17137 1.51974L8.27054 2.53784C8.27779 2.58731 8.36279 2.6096 8.40666 2.6304C8.75025 2.79338 9.03021 3.03471 9.29483 3.30213L9.64246 3.66001C9.75654 3.78257 9.87 3.92397 10.0065 4.02133C10.0974 3.93667 10.1782 3.83942 10.2635 3.74891L10.5457 3.46178C10.7774 3.21757 11.0128 2.9687 11.3002 2.78883C11.4275 2.7092 11.731 2.62346 11.7407 2.51718L11.808 1.7229C11.8135 1.65926 11.8235 1.59645 11.8262 1.53247L11.8305 1.23088C11.8311 1.17212 11.8266 1.09566 11.8511 1.04152L11.9144 0.897701C12.0583 0.624322 12.3087 0.488997 12.604 0.452292C12.6198 0.441288 12.7267 0.451363 12.7467 0.454209L12.8756 0.473509C13.3193 0.556592 13.5747 1.06847 13.4939 1.48612C13.4751 1.58324 13.4717 1.68273 13.4586 1.78063L13.3158 2.80071C13.3064 2.89241 13.2991 2.87118 13.3668 2.93559C13.7589 3.30827 13.8897 4.02175 13.822 4.55006C13.7362 5.21814 13.353 5.76035 13.0864 6.36156C12.8874 6.81035 12.6573 7.47993 12.7709 7.98185C12.8346 8.26306 12.9733 8.52693 13.0972 8.78435L14.0381 10.5312L14.8582 12.168L15.239 13.0908C15.2863 13.2022 15.318 13.3236 15.3583 13.4379L15.6397 14.3571C15.6808 14.5087 15.7065 14.6657 15.7422 14.8186L15.9604 15.8776C15.989 16.0042 16.0157 16.145 16.0611 16.2665L16.1722 16.6155C16.2446 16.815 16.2963 17.1069 16.2767 17.3188C16.225 17.8759 15.7161 18.356 15.1593 18.3856C14.9989 18.3942 14.8355 18.3773 14.6755 18.3907C14.1192 18.437 13.5791 18.6826 13.0669 18.8867L11.8311 19.3349C11.2571 19.5124 10.7361 19.5101 10.1402 19.5102C8.96487 19.5103 8.61508 19.507 7.53908 19.1024L7.11825 18.9593C6.31508 18.6721 5.86741 18.3876 4.985 18.3876ZM12.6491 1.02631C12.5777 1.0437 12.5319 1.05849 12.4722 1.10361L12.4635 1.10992C12.4387 1.12895 12.4178 1.16298 12.4134 1.19385L12.3452 2.50508C12.456 2.51231 12.5681 2.51639 12.6762 2.54389L12.7668 2.56565L12.9025 1.6065C12.9299 1.39756 13.0102 1.00376 12.6491 1.02631ZM7.27416 1.03582C7.19083 1.0554 7.14762 1.08606 7.09729 1.15649L7.08946 1.1671C7.02141 1.26268 7.13637 1.95033 7.16387 2.06622L7.23683 2.56249L7.434 2.52463C7.51362 2.51173 7.5935 2.50087 7.67441 2.50376L7.62741 1.91821C7.61662 1.81031 7.59504 1.2384 7.56262 1.179L7.55458 1.16397C7.49379 1.05288 7.3945 1.0179 7.27416 1.03582ZM7.59075 3.08825C6.91208 3.19013 6.74716 3.69587 6.74783 4.2806C6.74862 4.94593 7.07954 5.35556 7.34954 5.93402C7.47112 6.19443 7.54233 6.46573 7.64925 6.72927C7.9885 6.64102 8.34937 6.66885 8.69791 6.66877L9.82912 6.6691L10.7021 6.65527C10.6735 6.62414 10.6614 6.58118 10.637 6.54689C10.3482 6.14114 10.1051 5.64502 9.93971 5.17506L9.83396 4.83268C9.77325 4.62323 9.72775 4.62664 9.58071 4.46498L9.14946 4.00331C8.74583 3.56598 8.41854 3.1403 7.78891 3.08848L7.59075 3.08825ZM12.2123 3.08893C11.8387 3.1368 11.5937 3.26665 11.3202 3.51901L10.3417 4.49431C10.3527 4.57406 10.3829 4.66502 10.4105 4.74048L10.5862 5.22989C10.7557 5.67423 11.0352 6.09918 11.3052 6.48656C11.3475 6.54727 11.3817 6.62389 11.4307 6.67777L11.4722 6.67923L11.8989 6.67148C12.073 6.6726 12.1925 6.68198 12.3542 6.74256C12.3754 6.69152 12.381 6.62714 12.3975 6.57285C12.6635 5.69535 13.4122 4.87923 13.2353 3.95923C13.1848 3.69675 13.0781 3.39923 12.8474 3.24016L12.7881 3.20516C12.6156 3.1094 12.41 3.06157 12.2123 3.08893ZM10.8986 7.26339L8.25841 7.26373C8.11975 7.26381 7.79996 7.19331 7.81483 7.40889L7.82546 7.57898C7.83304 7.71339 7.82912 7.84164 7.82325 7.97585L9.126 7.97548L12.186 7.96473C12.1607 7.80639 12.1716 7.64027 12.1776 7.4806C12.1897 7.16302 12.0576 7.26014 11.757 7.26264L10.8986 7.26339ZM7.65746 8.54989C7.56258 8.78106 7.44275 9.00093 7.33433 9.22777L6.83904 10.3719C6.45887 11.3781 6.22304 12.4455 6.03708 13.503L5.77962 15.2556C5.75554 15.5035 5.4325 15.6028 5.27525 15.3995L5.2665 15.3883C5.13087 15.2084 5.40612 13.6752 5.45391 13.4391L5.5585 12.9443C5.5685 12.8925 5.59241 12.8176 5.5825 12.7672L4.34496 17.0769C4.32458 17.1409 4.31429 17.2229 4.32179 17.2893L4.32346 17.3048C4.38929 17.8817 5.02821 17.7856 5.41958 17.8175C6.05321 17.8691 6.53554 18.1104 7.11246 18.3442C7.30362 18.4216 7.50166 18.4706 7.69537 18.5393L8.31796 18.7784C8.6325 18.8821 8.92662 18.9178 9.25379 18.9187L10.4735 18.9197C10.6583 18.9196 10.8478 18.927 11.0319 18.9102C11.5289 18.8649 11.9923 18.6369 12.4621 18.4881C13.2241 18.2763 13.7532 17.8615 14.6384 17.8156C14.8428 17.805 15.0575 17.8316 15.2549 17.7656C15.6197 17.6436 15.779 17.3061 15.675 16.9408L15.3673 15.8964L15.1222 14.683C15.0061 14.1681 14.8355 13.6602 14.645 13.1685L14.5237 12.8357C14.4641 12.6881 14.3926 12.5468 14.3216 12.4046L14.7391 14.3022C14.7744 14.4407 14.8517 15.1182 14.8341 15.2684C14.7984 15.5737 14.3135 15.5994 14.2582 15.2602L14.1752 14.5365L13.6184 11.9317C13.4026 11.0503 13.1388 10.1445 12.7215 9.33427L12.4774 8.87127C12.4235 8.76864 12.3645 8.66598 12.329 8.55531L7.65746 8.54989Z" stroke="white" stroke-width="0.3" mask="url(#path-1-outside-1_28519_38131)"/>
</svg>
