<svg width="191" height="145" viewBox="0 0 191 145" fill="none" xmlns="http://www.w3.org/2000/svg">
<path d="M15.5059 122.163L0 144.265H7.19022L19.3198 126.755C20.8204 129.327 22.5085 132.02 24.2592 134.531L31.1993 144.265H38.4521L23.1338 122.102L38.2645 100H31.1993L19.2573 117.633C17.9443 115.184 16.4437 112.735 14.443 109.857L7.37779 100H0.0625237L15.5059 122.163Z" fill="black"/>
<path d="M51.8394 144.265H57.6541L70.409 114.327H64.2817L57.4666 131.041C56.4037 133.673 55.4033 136.245 54.9031 138.204C54.4029 136.367 53.5276 133.857 52.4647 131.041L45.7746 114.327H39.5223L51.8394 144.265Z" fill="black"/>
<path d="M88.1237 145C95.689 145 100.816 141.388 102.317 134.959H96.8145C95.8141 138.388 92.813 140.224 88.2487 140.224C82.434 140.224 79.0577 136.735 78.6201 130.429L102.254 130.367V128.224C102.254 119.347 96.5644 113.469 87.8736 113.469C78.9952 113.469 72.9304 119.959 72.9304 129.327C72.9304 138.633 79.1203 145 88.1237 145ZM87.8736 118.306C93.063 118.306 96.3768 121.612 96.3768 126.571H78.7451C79.4954 121.306 82.7466 118.306 87.8736 118.306Z" fill="black"/>
<path d="M127.576 114.082C126.388 113.837 125.512 113.714 124.449 113.714C120.26 113.714 117.197 115.796 115.946 118.918L115.571 114.388H110.069V144.265H115.946V128.408C115.946 122.653 119.385 119.347 124.95 119.347H127.576V114.082Z" fill="black"/>
<path d="M131.837 135.571C131.837 141.265 136.402 145 143.592 145C150.845 145 155.847 141.388 155.847 135.694C155.847 131.224 153.283 128.898 148.094 127.673L142.717 126.388C139.715 125.653 138.215 124.306 138.215 122.286C138.215 119.531 140.278 117.939 143.967 117.939C147.531 117.939 149.594 119.837 149.719 122.837H155.346C155.221 117.143 150.845 113.469 144.155 113.469C137.402 113.469 132.65 116.959 132.65 122.469C132.65 126.878 135.214 129.51 140.653 130.796L146.03 132.02C149.219 132.816 150.219 134.041 150.219 136.061C150.219 138.816 147.844 140.469 143.717 140.469C139.841 140.469 137.465 138.633 137.465 135.571H131.837Z" fill="black"/>
<path d="M176.807 145C184.372 145 189.499 141.388 191 134.959H185.498C184.498 138.388 181.496 140.224 176.932 140.224C171.117 140.224 167.741 136.735 167.304 130.429L190.937 130.367V128.224C190.937 119.347 185.248 113.469 176.557 113.469C167.679 113.469 161.614 119.959 161.614 129.327C161.614 138.633 167.804 145 176.807 145ZM176.557 118.306C181.746 118.306 185.06 121.612 185.06 126.571H167.429C168.179 121.306 171.43 118.306 176.557 118.306Z" fill="black"/>
<path fill-rule="evenodd" clip-rule="evenodd" d="M68.1645 10.3364C83.3739 -3.44558 106.627 -3.44548 121.836 10.3368L117.875 14.2974C104.859 2.69182 85.1414 2.69172 72.1251 14.297L68.1645 10.3364ZM124.664 13.1652L120.704 17.1259C132.308 30.1421 132.308 49.8589 120.703 62.8749L124.664 66.8355C138.445 51.6264 138.445 28.3745 124.664 13.1652ZM72.1258 65.7036C85.1419 77.3081 104.859 77.308 117.875 65.7033L121.835 69.6639C106.626 83.4453 83.3744 83.4454 68.1652 69.6642L72.1258 65.7036ZM69.2974 62.8752L65.3367 66.8359C51.5546 51.6267 51.5544 28.3743 65.3361 13.1649L69.2967 17.1255C57.6917 30.1418 57.6919 49.8592 69.2974 62.8752ZM119.928 23.2984C118.859 21.7067 117.621 20.1947 116.214 18.7877C106.894 9.46722 92.966 7.56167 81.7617 13.071L84.5667 17.9294C93.623 13.6485 104.769 15.2529 112.259 22.7426C113.312 23.7959 114.249 24.9215 115.07 26.1034L119.928 23.2984ZM117.072 29.5662L121.93 26.7612C127.44 37.9656 125.535 51.8935 116.214 61.2141C114.807 62.6214 113.294 63.8596 111.702 64.9288L108.897 60.0704C110.08 59.2498 111.206 58.3127 112.259 57.2592C119.749 49.7693 121.353 38.6226 117.072 29.5662ZM105.435 62.0726C96.3783 66.3532 85.2321 64.7488 77.7425 57.2592C76.6887 56.2053 75.7514 55.0791 74.9305 53.8965L70.0722 56.7014C71.1416 58.2939 72.38 59.8065 73.7876 61.2141C83.108 70.5345 97.0353 72.4401 108.239 66.9309L105.435 62.0726ZM68.0702 53.2385L72.9286 50.4335C68.6486 41.3774 70.2532 30.2319 77.7425 22.7426C78.796 21.6892 79.9217 20.7522 81.1039 19.9316L78.2989 15.0732C76.7069 16.1424 75.1948 17.3805 73.7876 18.7877C64.4675 28.1078 62.5617 42.0344 68.0702 53.2385ZM109.142 25.8577C112.095 28.8107 113.932 32.4574 114.652 36.2733L109.041 36.7642C108.456 34.2166 107.172 31.7972 105.187 29.8127C102.565 27.19 99.1824 25.7899 95.7487 25.6123L95.2578 20.0015C100.29 20.0659 105.303 22.018 109.142 25.8577ZM91.2729 20.3483C87.4573 21.0684 83.8109 22.9049 80.858 25.8577C77.0185 29.6972 75.0664 34.7094 75.0018 39.7414L80.6127 39.2505C80.7904 35.8171 82.1905 32.4351 84.813 29.8127C86.7973 27.8283 89.2165 26.5438 91.7638 25.9592L91.2729 20.3483ZM75.3484 43.7263C76.0684 47.5422 77.905 51.189 80.858 54.142C84.6975 57.9815 89.7096 59.9335 94.7415 59.9982L94.2506 54.3873C90.8173 54.2096 87.4354 52.8095 84.813 50.1871C82.8284 48.2025 81.5439 45.783 80.9593 43.2354L75.3484 43.7263ZM109.142 54.142C106.189 57.0951 102.542 58.9316 98.7265 59.6516L98.2356 54.0407C100.783 53.4562 103.203 52.1716 105.187 50.187C107.81 47.5646 109.21 44.1826 109.388 40.7491L114.998 40.2582C114.934 45.2902 112.982 50.3025 109.142 54.142Z" fill="url(#paint0_linear_1208_15444)"/>
<defs>
<linearGradient id="paint0_linear_1208_15444" x1="66.8936" y1="68.5632" x2="137.556" y2="-2.09887" gradientUnits="userSpaceOnUse">
<stop stop-color="#5565F7"/>
<stop offset="1" stop-color="#9EA7FA"/>
</linearGradient>
</defs>
</svg>
