<svg width="16" height="16" viewBox="0 0 16 16" fill="none" xmlns="http://www.w3.org/2000/svg">
<mask id="path-1-outside-1_11233_195" maskUnits="userSpaceOnUse" x="0.542969" y="0.794678" width="15" height="14" fill="black">
<rect fill="white" x="0.542969" y="0.794678" width="15" height="14"/>
<path d="M5.15057 13.2679C4.5051 12.5401 4.3309 11.779 4.49163 10.8316C4.5276 10.6197 4.56783 10.4085 4.63397 10.2037C4.12457 10.2052 3.91287 10.0396 4.16423 9.52345C4.47143 8.89271 4.70173 8.19442 4.7509 7.49042L4.75347 6.37315C4.72833 5.96465 4.66183 5.55551 4.55867 5.15961C4.51447 5.20031 4.4757 5.24765 4.4339 5.29098L3.15375 6.56155C2.85848 6.84498 2.7569 6.74195 2.42842 6.53775L2.03411 6.29518C1.87928 6.20241 1.48103 6.05718 1.55117 5.81728L1.55737 5.79691C1.57389 5.74321 1.60731 5.69742 1.63409 5.64845L3.2649 2.98889C3.60493 2.42811 3.8897 2.01819 4.59527 1.85547C4.91593 1.78152 5.65593 1.76508 5.97057 1.86255C6.24693 1.94816 6.47703 2.12067 6.6123 2.38017C7.14627 3.40461 8.599 3.57521 9.25297 2.60167C9.3519 2.45442 9.41977 2.29034 9.5428 2.16016C9.79753 1.89067 10.1079 1.81383 10.4596 1.8007C10.6756 1.80141 10.9001 1.78906 11.115 1.80634C11.6362 1.84825 12.1679 2.14377 12.4751 2.57016C12.5919 2.73214 12.6878 2.90791 12.7905 3.07891L14.3827 5.67168C14.406 5.71188 14.432 5.75375 14.4386 5.80041L14.4456 5.85555C14.4562 6.01385 14.3358 6.06905 14.2244 6.14205L13.6289 6.50035C13.3049 6.69198 13.2127 6.87468 12.8949 6.57741L11.4145 5.14441C11.1296 6.05145 11.1636 7.46431 11.4063 8.39455L11.4935 8.69141C11.5128 8.76425 11.5449 8.83365 11.5665 8.90575L11.8244 9.53828C11.9046 9.71865 11.9974 9.87815 11.8484 10.0549C11.732 10.1928 11.5464 10.2046 11.3793 10.2147L11.503 10.7019C11.5716 10.9365 11.5898 11.3144 11.5799 11.561C11.5277 12.8609 10.4081 14.0398 9.11777 14.1831C8.55233 14.2459 8.0956 14.0247 7.4668 14.1273C7.36893 14.1433 7.27153 14.1714 7.17373 14.184C6.4677 14.275 5.60683 13.7638 5.15057 13.2679ZM5.01353 2.33705C4.31693 2.37209 4.0635 2.68794 3.7396 3.21636L2.18356 5.75928L2.80872 6.14538L4.39833 4.55858C4.44957 4.50541 4.49567 4.44338 4.5547 4.39905L4.56367 4.39221C4.6734 4.31008 4.857 4.35231 4.92953 4.46605C4.9989 4.57488 5.00857 4.73655 5.04363 4.86005L5.13673 5.29315C5.1647 5.40061 5.17343 5.51815 5.1892 5.62828L5.23413 5.97265L5.2723 7.07875C5.27227 7.24438 5.2793 7.41391 5.26487 7.57898L5.12783 8.43465C5.1078 8.54048 5.07073 8.64865 5.03837 8.75155L4.7139 9.58838C4.697 9.62551 4.67073 9.66755 4.6643 9.70741L11.1445 9.70451C11.2018 9.70448 11.2693 9.71095 11.3253 9.70078L11.3174 9.68772C11.28 9.62458 11.2528 9.54491 11.2242 9.47678L11.0002 8.89581C10.8725 8.53532 10.7797 8.13671 10.729 7.75781L10.69 7.33668C10.667 7.05445 10.6553 6.76075 10.6717 6.47748L10.7144 6.03508C10.7663 5.52691 10.862 5.00701 11.0397 4.52625C11.1172 4.31655 11.3526 4.30265 11.4979 4.44201C11.6111 4.55065 11.7102 4.67771 11.8191 4.79115L12.7548 5.71428C12.8987 5.85171 13.0405 6.00428 13.1945 6.12928L13.8091 5.77168L12.3043 3.29687C12.2047 3.13128 12.1165 2.94711 11.9848 2.80406C11.5784 2.36244 11.1973 2.33542 10.6582 2.33577C10.115 2.33609 10.0422 2.34292 9.7375 2.82683C8.93967 4.09411 6.9524 4.08445 6.22097 2.77055C6.00617 2.38469 5.86807 2.33597 5.40297 2.33606L5.01353 2.33705ZM5.18127 10.2452C5.14517 10.312 5.1091 10.4652 5.09907 10.5468C5.18237 10.6033 5.28363 10.6398 5.3746 10.6828C6.1628 11.0559 6.83027 11.8236 7.06783 12.6601C7.13993 12.914 7.1997 13.1652 7.20937 13.431L7.21667 13.6387C7.522 13.5876 7.82393 13.5326 8.1355 13.5688C8.3645 13.5954 8.58583 13.6598 8.8187 13.6552C8.8207 13.0742 8.9129 12.5732 9.1934 12.0501C9.5144 11.5058 9.93957 11.0782 10.494 10.7673L10.7162 10.6526C10.7836 10.6213 10.8561 10.5949 10.9211 10.5593L10.8322 10.2457L5.18127 10.2452ZM4.989 11.0898C4.9324 11.3703 4.94023 11.8095 5.04393 12.0699L5.1367 12.3075C5.39277 12.8645 5.87883 13.3057 6.4507 13.5246L6.66987 13.6055L6.6889 13.604C6.64887 12.5962 6.1628 11.7162 5.2578 11.2188C5.17053 11.1709 5.07823 11.1337 4.989 11.0898ZM11.0203 11.1055C10.3905 11.344 9.83327 11.8815 9.56527 12.4868C9.43037 12.7915 9.30917 13.2581 9.3307 13.5998C9.34443 13.6023 9.35033 13.6016 9.36327 13.5963C10.5303 13.1828 11.1236 12.3284 11.0386 11.105L11.0203 11.1055Z"/>
</mask>
<path d="M5.15057 13.2679C4.5051 12.5401 4.3309 11.779 4.49163 10.8316C4.5276 10.6197 4.56783 10.4085 4.63397 10.2037C4.12457 10.2052 3.91287 10.0396 4.16423 9.52345C4.47143 8.89271 4.70173 8.19442 4.7509 7.49042L4.75347 6.37315C4.72833 5.96465 4.66183 5.55551 4.55867 5.15961C4.51447 5.20031 4.4757 5.24765 4.4339 5.29098L3.15375 6.56155C2.85848 6.84498 2.7569 6.74195 2.42842 6.53775L2.03411 6.29518C1.87928 6.20241 1.48103 6.05718 1.55117 5.81728L1.55737 5.79691C1.57389 5.74321 1.60731 5.69742 1.63409 5.64845L3.2649 2.98889C3.60493 2.42811 3.8897 2.01819 4.59527 1.85547C4.91593 1.78152 5.65593 1.76508 5.97057 1.86255C6.24693 1.94816 6.47703 2.12067 6.6123 2.38017C7.14627 3.40461 8.599 3.57521 9.25297 2.60167C9.3519 2.45442 9.41977 2.29034 9.5428 2.16016C9.79753 1.89067 10.1079 1.81383 10.4596 1.8007C10.6756 1.80141 10.9001 1.78906 11.115 1.80634C11.6362 1.84825 12.1679 2.14377 12.4751 2.57016C12.5919 2.73214 12.6878 2.90791 12.7905 3.07891L14.3827 5.67168C14.406 5.71188 14.432 5.75375 14.4386 5.80041L14.4456 5.85555C14.4562 6.01385 14.3358 6.06905 14.2244 6.14205L13.6289 6.50035C13.3049 6.69198 13.2127 6.87468 12.8949 6.57741L11.4145 5.14441C11.1296 6.05145 11.1636 7.46431 11.4063 8.39455L11.4935 8.69141C11.5128 8.76425 11.5449 8.83365 11.5665 8.90575L11.8244 9.53828C11.9046 9.71865 11.9974 9.87815 11.8484 10.0549C11.732 10.1928 11.5464 10.2046 11.3793 10.2147L11.503 10.7019C11.5716 10.9365 11.5898 11.3144 11.5799 11.561C11.5277 12.8609 10.4081 14.0398 9.11777 14.1831C8.55233 14.2459 8.0956 14.0247 7.4668 14.1273C7.36893 14.1433 7.27153 14.1714 7.17373 14.184C6.4677 14.275 5.60683 13.7638 5.15057 13.2679ZM5.01353 2.33705C4.31693 2.37209 4.0635 2.68794 3.7396 3.21636L2.18356 5.75928L2.80872 6.14538L4.39833 4.55858C4.44957 4.50541 4.49567 4.44338 4.5547 4.39905L4.56367 4.39221C4.6734 4.31008 4.857 4.35231 4.92953 4.46605C4.9989 4.57488 5.00857 4.73655 5.04363 4.86005L5.13673 5.29315C5.1647 5.40061 5.17343 5.51815 5.1892 5.62828L5.23413 5.97265L5.2723 7.07875C5.27227 7.24438 5.2793 7.41391 5.26487 7.57898L5.12783 8.43465C5.1078 8.54048 5.07073 8.64865 5.03837 8.75155L4.7139 9.58838C4.697 9.62551 4.67073 9.66755 4.6643 9.70741L11.1445 9.70451C11.2018 9.70448 11.2693 9.71095 11.3253 9.70078L11.3174 9.68772C11.28 9.62458 11.2528 9.54491 11.2242 9.47678L11.0002 8.89581C10.8725 8.53532 10.7797 8.13671 10.729 7.75781L10.69 7.33668C10.667 7.05445 10.6553 6.76075 10.6717 6.47748L10.7144 6.03508C10.7663 5.52691 10.862 5.00701 11.0397 4.52625C11.1172 4.31655 11.3526 4.30265 11.4979 4.44201C11.6111 4.55065 11.7102 4.67771 11.8191 4.79115L12.7548 5.71428C12.8987 5.85171 13.0405 6.00428 13.1945 6.12928L13.8091 5.77168L12.3043 3.29687C12.2047 3.13128 12.1165 2.94711 11.9848 2.80406C11.5784 2.36244 11.1973 2.33542 10.6582 2.33577C10.115 2.33609 10.0422 2.34292 9.7375 2.82683C8.93967 4.09411 6.9524 4.08445 6.22097 2.77055C6.00617 2.38469 5.86807 2.33597 5.40297 2.33606L5.01353 2.33705ZM5.18127 10.2452C5.14517 10.312 5.1091 10.4652 5.09907 10.5468C5.18237 10.6033 5.28363 10.6398 5.3746 10.6828C6.1628 11.0559 6.83027 11.8236 7.06783 12.6601C7.13993 12.914 7.1997 13.1652 7.20937 13.431L7.21667 13.6387C7.522 13.5876 7.82393 13.5326 8.1355 13.5688C8.3645 13.5954 8.58583 13.6598 8.8187 13.6552C8.8207 13.0742 8.9129 12.5732 9.1934 12.0501C9.5144 11.5058 9.93957 11.0782 10.494 10.7673L10.7162 10.6526C10.7836 10.6213 10.8561 10.5949 10.9211 10.5593L10.8322 10.2457L5.18127 10.2452ZM4.989 11.0898C4.9324 11.3703 4.94023 11.8095 5.04393 12.0699L5.1367 12.3075C5.39277 12.8645 5.87883 13.3057 6.4507 13.5246L6.66987 13.6055L6.6889 13.604C6.64887 12.5962 6.1628 11.7162 5.2578 11.2188C5.17053 11.1709 5.07823 11.1337 4.989 11.0898ZM11.0203 11.1055C10.3905 11.344 9.83327 11.8815 9.56527 12.4868C9.43037 12.7915 9.30917 13.2581 9.3307 13.5998C9.34443 13.6023 9.35033 13.6016 9.36327 13.5963C10.5303 13.1828 11.1236 12.3284 11.0386 11.105L11.0203 11.1055Z" fill="black"/>
<path d="M5.15057 13.2679C4.5051 12.5401 4.3309 11.779 4.49163 10.8316C4.5276 10.6197 4.56783 10.4085 4.63397 10.2037C4.12457 10.2052 3.91287 10.0396 4.16423 9.52345C4.47143 8.89271 4.70173 8.19442 4.7509 7.49042L4.75347 6.37315C4.72833 5.96465 4.66183 5.55551 4.55867 5.15961C4.51447 5.20031 4.4757 5.24765 4.4339 5.29098L3.15375 6.56155C2.85848 6.84498 2.7569 6.74195 2.42842 6.53775L2.03411 6.29518C1.87928 6.20241 1.48103 6.05718 1.55117 5.81728L1.55737 5.79691C1.57389 5.74321 1.60731 5.69742 1.63409 5.64845L3.2649 2.98889C3.60493 2.42811 3.8897 2.01819 4.59527 1.85547C4.91593 1.78152 5.65593 1.76508 5.97057 1.86255C6.24693 1.94816 6.47703 2.12067 6.6123 2.38017C7.14627 3.40461 8.599 3.57521 9.25297 2.60167C9.3519 2.45442 9.41977 2.29034 9.5428 2.16016C9.79753 1.89067 10.1079 1.81383 10.4596 1.8007C10.6756 1.80141 10.9001 1.78906 11.115 1.80634C11.6362 1.84825 12.1679 2.14377 12.4751 2.57016C12.5919 2.73214 12.6878 2.90791 12.7905 3.07891L14.3827 5.67168C14.406 5.71188 14.432 5.75375 14.4386 5.80041L14.4456 5.85555C14.4562 6.01385 14.3358 6.06905 14.2244 6.14205L13.6289 6.50035C13.3049 6.69198 13.2127 6.87468 12.8949 6.57741L11.4145 5.14441C11.1296 6.05145 11.1636 7.46431 11.4063 8.39455L11.4935 8.69141C11.5128 8.76425 11.5449 8.83365 11.5665 8.90575L11.8244 9.53828C11.9046 9.71865 11.9974 9.87815 11.8484 10.0549C11.732 10.1928 11.5464 10.2046 11.3793 10.2147L11.503 10.7019C11.5716 10.9365 11.5898 11.3144 11.5799 11.561C11.5277 12.8609 10.4081 14.0398 9.11777 14.1831C8.55233 14.2459 8.0956 14.0247 7.4668 14.1273C7.36893 14.1433 7.27153 14.1714 7.17373 14.184C6.4677 14.275 5.60683 13.7638 5.15057 13.2679ZM5.01353 2.33705C4.31693 2.37209 4.0635 2.68794 3.7396 3.21636L2.18356 5.75928L2.80872 6.14538L4.39833 4.55858C4.44957 4.50541 4.49567 4.44338 4.5547 4.39905L4.56367 4.39221C4.6734 4.31008 4.857 4.35231 4.92953 4.46605C4.9989 4.57488 5.00857 4.73655 5.04363 4.86005L5.13673 5.29315C5.1647 5.40061 5.17343 5.51815 5.1892 5.62828L5.23413 5.97265L5.2723 7.07875C5.27227 7.24438 5.2793 7.41391 5.26487 7.57898L5.12783 8.43465C5.1078 8.54048 5.07073 8.64865 5.03837 8.75155L4.7139 9.58838C4.697 9.62551 4.67073 9.66755 4.6643 9.70741L11.1445 9.70451C11.2018 9.70448 11.2693 9.71095 11.3253 9.70078L11.3174 9.68772C11.28 9.62458 11.2528 9.54491 11.2242 9.47678L11.0002 8.89581C10.8725 8.53532 10.7797 8.13671 10.729 7.75781L10.69 7.33668C10.667 7.05445 10.6553 6.76075 10.6717 6.47748L10.7144 6.03508C10.7663 5.52691 10.862 5.00701 11.0397 4.52625C11.1172 4.31655 11.3526 4.30265 11.4979 4.44201C11.6111 4.55065 11.7102 4.67771 11.8191 4.79115L12.7548 5.71428C12.8987 5.85171 13.0405 6.00428 13.1945 6.12928L13.8091 5.77168L12.3043 3.29687C12.2047 3.13128 12.1165 2.94711 11.9848 2.80406C11.5784 2.36244 11.1973 2.33542 10.6582 2.33577C10.115 2.33609 10.0422 2.34292 9.7375 2.82683C8.93967 4.09411 6.9524 4.08445 6.22097 2.77055C6.00617 2.38469 5.86807 2.33597 5.40297 2.33606L5.01353 2.33705ZM5.18127 10.2452C5.14517 10.312 5.1091 10.4652 5.09907 10.5468C5.18237 10.6033 5.28363 10.6398 5.3746 10.6828C6.1628 11.0559 6.83027 11.8236 7.06783 12.6601C7.13993 12.914 7.1997 13.1652 7.20937 13.431L7.21667 13.6387C7.522 13.5876 7.82393 13.5326 8.1355 13.5688C8.3645 13.5954 8.58583 13.6598 8.8187 13.6552C8.8207 13.0742 8.9129 12.5732 9.1934 12.0501C9.5144 11.5058 9.93957 11.0782 10.494 10.7673L10.7162 10.6526C10.7836 10.6213 10.8561 10.5949 10.9211 10.5593L10.8322 10.2457L5.18127 10.2452ZM4.989 11.0898C4.9324 11.3703 4.94023 11.8095 5.04393 12.0699L5.1367 12.3075C5.39277 12.8645 5.87883 13.3057 6.4507 13.5246L6.66987 13.6055L6.6889 13.604C6.64887 12.5962 6.1628 11.7162 5.2578 11.2188C5.17053 11.1709 5.07823 11.1337 4.989 11.0898ZM11.0203 11.1055C10.3905 11.344 9.83327 11.8815 9.56527 12.4868C9.43037 12.7915 9.30917 13.2581 9.3307 13.5998C9.34443 13.6023 9.35033 13.6016 9.36327 13.5963C10.5303 13.1828 11.1236 12.3284 11.0386 11.105L11.0203 11.1055Z" stroke="black" stroke-width="0.4" mask="url(#path-1-outside-1_11233_195)"/>
<path d="M8.87781 6.47342C8.72751 6.40282 8.58257 6.59879 8.36227 6.57462C7.95467 6.52986 8.14094 6.12886 8.11201 5.94366C8.10647 5.90832 7.88907 5.70599 7.84547 5.61292L7.82494 5.56506C7.70014 5.19462 8.04727 5.07672 8.34571 5.04359C8.55941 5.01982 8.54707 4.66592 8.87264 4.56396C9.13884 4.55502 9.2148 4.67109 9.3294 4.90236L9.40177 5.04112C9.45817 5.16242 9.83104 5.14689 9.9436 5.40036L9.9478 5.41012C9.97267 5.46649 9.96297 5.55352 9.94167 5.60976L9.93727 5.62106C9.85007 5.85206 9.57027 5.86122 9.57074 6.06562C9.57214 6.64202 9.35337 6.73766 8.87781 6.47342ZM8.90817 5.26412C8.80964 5.42776 8.70414 5.51329 8.52734 5.57022L8.53537 5.58076C8.61041 5.68139 8.65514 5.89776 8.67044 5.91629C8.72927 5.90409 8.79194 5.88959 8.85207 5.88989C8.92621 5.89159 8.98154 5.90466 9.04964 5.93626C9.078 5.80622 9.14417 5.70149 9.21867 5.59282L9.20744 5.58686C9.07627 5.51559 8.97434 5.39746 8.90817 5.26412Z" fill="black"/>
<path d="M6.9622 7.43283C6.7512 7.46589 6.66667 7.26029 6.58497 7.10563C6.5579 7.05439 6.3438 7.23239 6.1669 7.17163C6.0259 7.12319 5.962 6.91899 6.02323 6.79096C6.07356 6.68583 6.20597 6.63836 6.3076 6.59953C6.21823 6.39339 6.06843 6.11273 6.41273 6.00296C6.60263 5.97869 6.7133 6.10676 6.78123 6.27356L6.79737 6.31016C6.82473 6.36063 6.82283 6.38419 6.8708 6.36046C6.96033 6.31619 7.0926 6.25333 7.19263 6.28346C7.3405 6.32796 7.4529 6.49199 7.3986 6.64633C7.35476 6.77086 7.23137 6.83033 7.12153 6.88516L7.18856 7.09533C7.2306 7.26883 7.12736 7.39389 6.9622 7.43283Z" fill="black"/>
<path d="M9.43344 9.12468C9.21811 9.13038 9.13157 8.96488 9.03717 8.79614C8.91014 8.86774 8.77751 8.99688 8.62087 8.93344C8.46961 8.87221 8.42274 8.68494 8.48301 8.54258C8.53041 8.43068 8.64774 8.36638 8.75437 8.32314L8.71801 8.24601C8.61794 8.05028 8.68947 7.86968 8.88541 7.78264C9.05987 7.76761 9.17907 7.82244 9.24947 7.99478L9.29641 8.10301L9.55257 7.98934C9.68297 7.94321 9.82584 8.02171 9.87737 8.14694L9.88474 8.16448C9.97267 8.36941 9.74964 8.51521 9.58951 8.58238L9.64051 8.72754C9.69544 8.92041 9.63354 9.07034 9.43344 9.12468Z" fill="black"/>
</svg>
