<svg width="37" height="28" viewBox="0 0 37 28" fill="none" xmlns="http://www.w3.org/2000/svg">
<path d="M8.44005 1.73012H9.10763V-0.00781036H8.44005C7.73228 -0.00844533 7.03132 0.132223 6.37729 0.406146C5.72328 0.68007 5.12902 1.08187 4.62856 1.58856C4.12809 2.09524 3.73122 2.69687 3.46066 3.35902C3.19008 4.02115 3.05115 4.7308 3.05177 5.44736V9.40598C3.0532 10.2442 2.73789 11.0512 2.17046 11.6615C1.60304 12.2719 0.826484 12.6394 0 12.6887L0.0476839 13.5577L0 14.4267C0.826484 14.476 1.60304 14.8435 2.17046 15.4539C2.73789 16.0642 3.0532 16.8712 3.05177 17.7094V22.2715C3.04924 23.7853 3.64048 25.2383 4.69555 26.311C5.75063 27.3837 7.1832 27.9883 8.67847 27.9922V26.2543C7.64166 26.2535 6.64747 25.8364 5.91433 25.0942C5.18119 24.3519 4.76901 23.3453 4.76839 22.2956V17.7094C4.76911 16.8906 4.57174 16.0841 4.19354 15.3604C3.81533 14.6367 3.26778 14.0177 2.59877 13.5577C3.26587 13.0957 3.81197 12.4764 4.18994 11.7531C4.56793 11.0298 4.76644 10.2243 4.76839 9.40598V5.44736C4.77278 4.46285 5.16102 3.51995 5.84864 2.82378C6.53627 2.12763 7.46761 1.73456 8.44005 1.73012Z" fill="black"/>
<path d="M28.2769 1.73012H27.6094V-0.0078125H28.2769C29.7027 -0.00397592 31.0686 0.572765 32.0745 1.59567C33.0804 2.61859 33.644 4.00396 33.6414 5.44736V9.40598C33.64 10.2442 33.9551 11.0512 34.5226 11.6615C35.09 12.2719 35.8666 12.6394 36.6932 12.6887L36.6455 13.5577L36.6932 14.4267C35.8666 14.476 35.09 14.8435 34.5226 15.4539C33.9551 16.0642 33.64 16.8712 33.6414 17.7094V22.2715C33.644 23.7853 33.0527 25.2383 31.9977 26.311C30.9425 27.3837 29.5101 27.9883 28.0147 27.9922V26.2543C29.0516 26.2535 30.0458 25.8364 30.7789 25.0942C31.5121 24.3519 31.9241 23.3453 31.9248 22.2956V17.7094C31.9241 16.8906 32.1215 16.0841 32.4996 15.3604C32.8777 14.6367 33.4254 14.0177 34.0944 13.5577C33.4273 13.0957 32.8811 12.4763 32.5032 11.7531C32.1253 11.0298 31.9267 10.2243 31.9248 9.40598V5.44736C31.9274 4.96052 31.8349 4.47798 31.6527 4.0274C31.4706 3.57684 31.2024 3.16712 30.8633 2.82176C30.5245 2.47637 30.1216 2.20216 29.6777 2.01483C29.2337 1.8275 28.7578 1.73075 28.2769 1.73012Z" fill="black"/>
<path d="M24.6068 6.99219H27.1579L21.8411 12.037C20.8872 12.9109 19.6466 13.3948 18.3602 13.3948C17.0737 13.3948 15.8331 12.9109 14.8793 12.037L9.5625 6.99219H12.1136L16.1429 10.806C16.7446 11.3651 17.5316 11.6753 18.3483 11.6753C19.1649 11.6753 19.9519 11.3651 20.5536 10.806L24.6068 6.99219Z" fill="black"/>
<path d="M12.0902 20.9925H9.53906L14.8797 15.9235C15.8283 15.0389 17.0709 14.5479 18.3606 14.5479C19.6503 14.5479 20.8929 15.0389 21.8415 15.9235L27.1821 20.9925H24.631L20.5779 17.1304C19.9762 16.5714 19.1892 16.2612 18.3725 16.2612C17.5558 16.2612 16.7688 16.5714 16.1671 17.1304L12.0902 20.9925Z" fill="black"/>
</svg>
