<svg width="20" height="20" viewBox="0 0 20 20" fill="none" xmlns="http://www.w3.org/2000/svg">
<path d="M9.8272 0.0918756L4.41418 8.51561C4.33617 8.63702 4.37834 8.79527 4.50792 8.86728L9.65835 11.7298C9.86923 11.847 10.1308 11.847 10.3417 11.7298L15.4921 8.86728C15.6217 8.79527 15.6638 8.63702 15.5858 8.51561L10.1728 0.0918758C10.0941 -0.0306251 9.90592 -0.0306253 9.8272 0.0918756Z" fill="#C2C2C2"/>
<path d="M9.82412 19.9032L4.52034 11.0599C4.45236 10.9465 4.58707 10.8213 4.70592 10.8873L9.82917 13.7348C9.93461 13.7934 10.0654 13.7934 10.1708 13.7348L15.2941 10.8873C15.4129 10.8213 15.5476 10.9465 15.4797 11.0599L10.1759 19.9032C10.0984 20.0323 9.90156 20.0323 9.82412 19.9032Z" fill="#C2C2C2"/>
</svg>
