<svg width="76" height="20" viewBox="0 0 76 20" fill="none" xmlns="http://www.w3.org/2000/svg">
<path d="M8.9125 6.04922C9.73084 6.04922 10.4379 6.19457 11.032 6.47996C11.629 6.76817 12.1215 7.15641 12.5167 7.64467C12.9064 8.13544 13.1966 8.70904 13.3839 9.36641C13.5699 10.0257 13.6633 10.7343 13.6633 11.493C13.6633 12.6583 13.4479 13.7592 13.013 14.797C12.5782 15.8364 11.9881 16.7379 11.2376 17.5068C10.4877 18.2749 9.60218 18.8804 8.58107 19.3277C7.56153 19.7753 6.45306 19.9991 5.26292 19.9991C5.10903 19.9991 4.83845 19.9948 4.45624 19.9869C4.07404 19.9791 3.63476 19.94 3.14281 19.8741C2.6477 19.8056 2.12422 19.7044 1.5714 19.5687C1.01891 19.4355 0.494158 19.2489 0 19.012L4.41872 0.607988L8.3764 0L6.79427 6.53092C7.13296 6.37963 7.47417 6.2624 7.81475 6.17707C8.15565 6.09298 8.52146 6.04922 8.9125 6.04922ZM5.59278 16.887C6.18879 16.887 6.75044 16.7416 7.27802 16.4562C7.80718 16.1705 8.26382 15.7848 8.64634 15.3044C9.02887 14.8217 9.3316 14.2781 9.55235 13.6708C9.7731 13.0634 9.88474 12.4298 9.88474 11.7705C9.88474 10.9606 9.74818 10.3289 9.47603 9.87218C9.20388 9.41737 8.70027 9.18855 7.96896 9.18855C7.72929 9.18855 7.42056 9.23387 7.03772 9.31483C6.65363 9.40079 6.30989 9.57929 6.00179 9.8478L4.31718 16.7835C4.41872 16.8013 4.50859 16.8182 4.58522 16.8342C4.66028 16.8514 4.74322 16.8636 4.82584 16.872C4.91319 16.8817 5.01316 16.8867 5.13394 16.8867C5.25472 16.8867 5.40577 16.887 5.59278 16.887Z" fill="black"/>
<path d="M17.7668 19.6468H13.9867L17.179 6.33141H20.985L17.7668 19.6468ZM19.6063 4.70907C19.0787 4.70907 18.6003 4.5534 18.1758 4.24144C17.7479 3.93135 17.536 3.45403 17.536 2.81072C17.536 2.45687 17.6085 2.1249 17.7523 1.81168C17.8983 1.49909 18.0891 1.22996 18.3281 1.00114C18.5669 0.774203 18.8434 0.592898 19.1575 0.456297C19.4735 0.321883 19.8097 0.25468 20.1679 0.25468C20.6952 0.25468 21.171 0.41035 21.5971 0.722314C22.0215 1.03584 22.235 1.51316 22.235 2.15303C22.235 2.50813 22.1628 2.84135 22.0178 3.15394C21.8736 3.46653 21.6829 3.73566 21.4438 3.96448C21.207 4.19173 20.9279 4.37241 20.6144 4.50776C20.2981 4.64436 19.9632 4.70907 19.6063 4.70907Z" fill="black"/>
<path d="M24.2979 3.01384L28.2571 2.40586L27.2849 6.33072H31.5251L30.7594 9.41847H26.5448L25.4221 14.0761C25.3187 14.4643 25.26 14.8269 25.2436 15.1639C25.225 15.5024 25.2682 15.7931 25.3704 16.0379C25.4719 16.2832 25.6545 16.4724 25.9194 16.6061C26.183 16.7421 26.5605 16.8106 27.0556 16.8106C27.4634 16.8106 27.8607 16.7721 28.2448 16.6959C28.6267 16.6208 29.0136 16.5164 29.4053 16.3798L29.6872 19.2669C29.1764 19.4526 28.6232 19.6123 28.0272 19.7467C27.4303 19.883 26.7236 19.9487 25.9068 19.9487C24.7324 19.9487 23.822 19.7758 23.1733 19.4316C22.5256 19.085 22.0677 18.6114 21.7936 18.0119C21.5234 17.4145 21.4026 16.7259 21.4364 15.95C21.4714 15.1723 21.5896 14.3549 21.7936 13.494L24.2979 3.01384Z" fill="black"/>
<path d="M31.3601 14.3296C31.3601 13.1827 31.5474 12.1012 31.9218 11.0887C32.2955 10.0753 32.8338 9.18911 33.5323 8.42858C34.2282 7.6718 35.0762 7.07226 36.0743 6.63213C37.0677 6.19451 38.1799 5.97382 39.4057 5.97382C40.173 5.97382 40.8582 6.04572 41.4612 6.18982C42.0667 6.33518 42.6144 6.52305 43.1098 6.75874L41.8062 9.69707C41.4656 9.56016 41.1121 9.4395 40.7466 9.33009C40.3808 9.21849 39.9342 9.16473 39.406 9.16473C38.1443 9.16473 37.1468 9.59579 36.4045 10.4551C35.665 11.315 35.2926 12.4725 35.2926 13.9245C35.2926 14.7851 35.4799 15.4809 35.8558 16.0132C36.2298 16.5456 36.9207 16.8103 37.9239 16.8103C38.419 16.8103 38.8967 16.7591 39.3543 16.6591C39.8154 16.5578 40.2225 16.4302 40.581 16.2796L40.8633 19.2917C40.3852 19.4755 39.8579 19.6415 39.2796 19.7868C38.7 19.9272 38.01 20 37.2099 20C36.1538 20 35.2598 19.8468 34.5285 19.5452C33.7968 19.2389 33.1923 18.8322 32.7161 18.317C32.2374 17.8006 31.8937 17.1976 31.6811 16.5056C31.4686 15.8141 31.3601 15.0877 31.3601 14.3296Z" fill="black"/>
<path d="M48.155 20C47.2527 20 46.4691 19.8637 45.8043 19.5939C45.1414 19.3242 44.5924 18.9456 44.1582 18.4549C43.7233 17.9666 43.3979 17.388 43.1749 16.7213C42.952 16.0548 42.8447 15.3168 42.8447 14.5081C42.8447 13.4938 43.009 12.4797 43.3411 11.4685C43.6716 10.4551 44.162 9.54453 44.811 8.73524C45.4549 7.92469 46.2493 7.262 47.1846 6.74529C48.119 6.23202 49.1937 5.97382 50.4009 5.97382C51.2867 5.97382 52.0663 6.11042 52.7402 6.38018C53.4109 6.64932 53.9634 7.031 54.4002 7.51926C54.8322 8.01003 55.1605 8.58613 55.3813 9.25382C55.6036 9.91901 55.7133 10.6589 55.7133 11.4682C55.7133 12.4794 55.5513 13.4935 55.2296 14.5078C54.9076 15.5172 54.4299 16.4299 53.7991 17.2411C53.1697 18.0504 52.3826 18.7128 51.4372 19.2273C50.493 19.7418 49.3981 20 48.155 20ZM50.0442 9.16505C49.4839 9.16505 48.9884 9.32633 48.5643 9.64486C48.1386 9.96714 47.7809 10.3723 47.4927 10.8608C47.2013 11.3516 46.9853 11.8868 46.8393 12.4685C46.6946 13.0515 46.6236 13.6026 46.6236 14.1261C46.6236 14.9711 46.7611 15.6291 47.0314 16.1026C47.3054 16.5737 47.7977 16.8107 48.5132 16.8107C49.0755 16.8107 49.5684 16.6506 49.995 16.3286C50.4183 16.0089 50.7762 15.6034 51.0666 15.1139C51.3561 14.6257 51.574 14.0889 51.72 13.5063C51.8629 12.9252 51.9357 12.371 51.9357 11.8483C51.9357 11.0056 51.7989 10.346 51.5261 9.87306C51.2536 9.40198 50.7592 9.16505 50.0442 9.16505Z" fill="black"/>
<path d="M59.8314 19.6468H56.0481L59.2404 6.33141H63.0483L59.8314 19.6468ZM61.668 4.70907C61.1407 4.70907 60.6627 4.5534 60.2388 4.24144C59.8131 3.93135 59.5993 3.45403 59.5993 2.81072C59.5993 2.45687 59.6728 2.1249 59.8169 1.81168C59.961 1.49909 60.153 1.22996 60.3921 1.00114C60.6295 0.774203 60.9086 0.592898 61.2221 0.456297C61.5362 0.321883 61.8723 0.25468 62.2293 0.25468C62.7578 0.25468 63.2353 0.41035 63.6604 0.722314C64.0858 1.03584 64.3006 1.51316 64.3006 2.15303C64.3006 2.50813 64.2243 2.84135 64.0814 3.15394C63.9385 3.46653 63.7465 3.73566 63.5084 3.96448C63.2687 4.19173 62.9931 4.37241 62.679 4.50776C62.3624 4.64436 62.0269 4.70907 61.668 4.70907Z" fill="black"/>
<path d="M65.7728 6.93686C66.0598 6.85371 66.3802 6.75368 66.7286 6.6449C67.0784 6.53612 67.4691 6.43485 67.9055 6.34357C68.3373 6.24948 68.8245 6.17321 69.3603 6.11413C69.8961 6.0538 70.5066 6.02441 71.1849 6.02441C73.1786 6.02441 74.5529 6.59989 75.3116 7.74741C76.0697 8.89492 76.2009 10.4654 75.7089 12.4559L73.9701 19.6455H70.165L71.8503 12.6072C71.9531 12.1677 72.0338 11.7429 72.0934 11.3278C72.1537 10.9164 72.1502 10.5538 72.0799 10.24C72.0127 9.9299 71.8544 9.67607 71.6087 9.47946C71.3593 9.28596 70.9824 9.18875 70.4712 9.18875C69.9783 9.18875 69.4769 9.24127 68.9651 9.34255L66.4874 19.6452H62.6808L65.7728 6.93686Z" fill="black"/>
</svg>
