<svg width="16" height="16" viewBox="0 0 16 16" fill="none" xmlns="http://www.w3.org/2000/svg" {...props}>
<path d="M6.66699 10.0001L10.391 6.27677C10.2359 6.12176 10.1215 5.93089 10.0578 5.72108C9.99412 5.51127 9.98316 5.289 10.0259 5.07394C10.0686 4.85889 10.1637 4.65769 10.3028 4.48817C10.4419 4.31865 10.6206 4.18605 10.8231 4.10209C11.0257 4.01814 11.2458 3.98544 11.464 4.00688C11.6822 4.02832 11.8918 4.10324 12.0741 4.22501C12.2565 4.34678 12.406 4.51163 12.5094 4.70498C12.6128 4.89832 12.6669 5.11418 12.667 5.33344C12.8863 5.33328 13.1023 5.38723 13.2958 5.4905C13.4892 5.59377 13.6543 5.74317 13.7762 5.92546C13.8981 6.10776 13.9732 6.31731 13.9948 6.53557C14.0164 6.75382 13.9838 6.97403 13.8999 7.17667C13.8161 7.37932 13.6835 7.55814 13.514 7.69731C13.3445 7.83647 13.1432 7.93167 12.9281 7.97447C12.713 8.01727 12.4907 8.00635 12.2808 7.94268C12.071 7.879 11.88 7.76454 11.725 7.60944L9.33366 10.0001" stroke="currentColor" stroke-linecap="round" stroke-linejoin="round"/>
<path d="M7.99997 8.66677L5.60931 6.27677C5.76437 6.12176 5.87881 5.93089 5.9425 5.72108C6.00618 5.51127 6.01714 5.289 5.9744 5.07394C5.93167 4.85889 5.83656 4.65769 5.69749 4.48817C5.55843 4.31865 5.37971 4.18605 5.17716 4.10209C4.9746 4.01814 4.75447 3.98544 4.53626 4.00688C4.31806 4.02832 4.1085 4.10324 3.92616 4.22501C3.74382 4.34678 3.59433 4.51163 3.49092 4.70498C3.38751 4.89832 3.33337 5.11418 3.33331 5.33344C3.11399 5.33328 2.89802 5.38723 2.70454 5.4905C2.51106 5.59377 2.34604 5.74317 2.2241 5.92546C2.10216 6.10776 2.02708 6.31731 2.0055 6.53557C1.98391 6.75382 2.0165 6.97403 2.10037 7.17667C2.18425 7.37932 2.31681 7.55814 2.48632 7.69731C2.65583 7.83647 2.85705 7.93167 3.07215 7.97447C3.28725 8.01727 3.50959 8.00635 3.71946 7.94268C3.92933 7.879 4.12025 7.76454 4.27531 7.60944L6.66664 10.0001" stroke="currentColor" stroke-linecap="round" stroke-linejoin="round"/>
<path d="M2 13.3333H14C13.8833 12.2193 13.9693 11.1033 12.6667 10H3.33333C2.44467 10.6667 2 11.778 2 13.3333Z" stroke="currentColor" stroke-linecap="round" stroke-linejoin="round"/>
</svg>
