<svg width="746" height="140" viewBox="0 0 746 140" fill="none" xmlns="http://www.w3.org/2000/svg">
<g clip-path="url(#clip0_21842_2612)">
<rect x="35" y="1" width="4" height="4" rx="2" fill="white" fill-opacity="0.04"/>
<rect x="63" y="1" width="4" height="4" rx="2" fill="white" fill-opacity="0.04"/>
<rect x="91" y="1" width="4" height="4" rx="2" fill="white" fill-opacity="0.04"/>
<rect x="119" y="1" width="4" height="4" rx="2" fill="white" fill-opacity="0.04"/>
<rect x="147" y="1" width="4" height="4" rx="2" fill="white" fill-opacity="0.04"/>
<rect x="175" y="1" width="4" height="4" rx="2" fill="white" fill-opacity="0.04"/>
<rect x="203" y="1" width="4" height="4" rx="2" fill="white" fill-opacity="0.04"/>
<rect x="231" y="1" width="4" height="4" rx="2" fill="white" fill-opacity="0.04"/>
<rect x="259" y="1" width="4" height="4" rx="2" fill="white" fill-opacity="0.04"/>
<rect x="287" y="1" width="4" height="4" rx="2" fill="white" fill-opacity="0.04"/>
<rect x="315" y="1" width="4" height="4" rx="2" fill="white" fill-opacity="0.04"/>
<rect x="343" y="1" width="4" height="4" rx="2" fill="white" fill-opacity="0.04"/>
<rect x="371" y="1" width="4" height="4" rx="2" fill="white" fill-opacity="0.04"/>
<rect x="399" y="1" width="4" height="4" rx="2" fill="white" fill-opacity="0.04"/>
<rect x="427" y="1" width="4" height="4" rx="2" fill="white" fill-opacity="0.04"/>
<rect x="455" y="1" width="4" height="4" rx="2" fill="white" fill-opacity="0.04"/>
<rect x="483" y="1" width="4" height="4" rx="2" fill="white" fill-opacity="0.04"/>
<rect x="511" y="1" width="4" height="4" rx="2" fill="white" fill-opacity="0.04"/>
<rect x="539" y="1" width="4" height="4" rx="2" fill="white" fill-opacity="0.04"/>
<rect x="567" y="1" width="4" height="4" rx="2" fill="white" fill-opacity="0.04"/>
<rect x="595" y="1" width="4" height="4" rx="2" fill="white" fill-opacity="0.04"/>
<rect x="623" y="1" width="4" height="4" rx="2" fill="white" fill-opacity="0.04"/>
<rect x="651" y="1" width="4" height="4" rx="2" fill="white" fill-opacity="0.04"/>
<rect x="679" y="1" width="4" height="4" rx="2" fill="white" fill-opacity="0.04"/>
<rect x="707" y="1" width="4" height="4" rx="2" fill="white" fill-opacity="0.04"/>
<rect x="35" y="29" width="4" height="4" rx="2" fill="white" fill-opacity="0.04"/>
<rect x="63" y="29" width="4" height="4" rx="2" fill="white" fill-opacity="0.04"/>
<rect x="91" y="29" width="4" height="4" rx="2" fill="white" fill-opacity="0.04"/>
<rect x="119" y="29" width="4" height="4" rx="2" fill="white" fill-opacity="0.04"/>
<rect x="147" y="29" width="4" height="4" rx="2" fill="white" fill-opacity="0.04"/>
<rect x="175" y="29" width="4" height="4" rx="2" fill="white" fill-opacity="0.04"/>
<rect x="203" y="29" width="4" height="4" rx="2" fill="white" fill-opacity="0.04"/>
<rect x="231" y="29" width="4" height="4" rx="2" fill="white" fill-opacity="0.04"/>
<rect x="259" y="29" width="4" height="4" rx="2" fill="white" fill-opacity="0.04"/>
<rect x="287" y="29" width="4" height="4" rx="2" fill="white" fill-opacity="0.04"/>
<rect x="315" y="29" width="4" height="4" rx="2" fill="white" fill-opacity="0.04"/>
<rect x="343" y="29" width="4" height="4" rx="2" fill="white" fill-opacity="0.04"/>
<rect x="371" y="29" width="4" height="4" rx="2" fill="white" fill-opacity="0.04"/>
<rect x="399" y="29" width="4" height="4" rx="2" fill="white" fill-opacity="0.04"/>
<rect x="427" y="29" width="4" height="4" rx="2" fill="white" fill-opacity="0.04"/>
<rect x="455" y="29" width="4" height="4" rx="2" fill="white" fill-opacity="0.04"/>
<rect x="483" y="29" width="4" height="4" rx="2" fill="white" fill-opacity="0.04"/>
<rect x="511" y="29" width="4" height="4" rx="2" fill="white" fill-opacity="0.04"/>
<rect x="539" y="29" width="4" height="4" rx="2" fill="white" fill-opacity="0.04"/>
<rect x="567" y="29" width="4" height="4" rx="2" fill="white" fill-opacity="0.04"/>
<rect x="595" y="29" width="4" height="4" rx="2" fill="white" fill-opacity="0.04"/>
<rect x="623" y="29" width="4" height="4" rx="2" fill="white" fill-opacity="0.04"/>
<rect x="651" y="29" width="4" height="4" rx="2" fill="white" fill-opacity="0.04"/>
<rect x="679" y="29" width="4" height="4" rx="2" fill="white" fill-opacity="0.04"/>
<rect x="707" y="29" width="4" height="4" rx="2" fill="white" fill-opacity="0.04"/>
<rect x="35" y="57" width="4" height="4" rx="2" fill="white" fill-opacity="0.04"/>
<rect x="63" y="57" width="4" height="4" rx="2" fill="white" fill-opacity="0.04"/>
<rect x="91" y="57" width="4" height="4" rx="2" fill="white" fill-opacity="0.04"/>
<rect x="119" y="57" width="4" height="4" rx="2" fill="white" fill-opacity="0.04"/>
<rect x="147" y="57" width="4" height="4" rx="2" fill="white" fill-opacity="0.04"/>
<rect x="175" y="57" width="4" height="4" rx="2" fill="white" fill-opacity="0.04"/>
<rect x="203" y="57" width="4" height="4" rx="2" fill="white" fill-opacity="0.04"/>
<rect x="231" y="57" width="4" height="4" rx="2" fill="white" fill-opacity="0.04"/>
<rect x="259" y="57" width="4" height="4" rx="2" fill="white" fill-opacity="0.04"/>
<rect x="287" y="57" width="4" height="4" rx="2" fill="white" fill-opacity="0.04"/>
<rect x="315" y="57" width="4" height="4" rx="2" fill="white" fill-opacity="0.04"/>
<rect x="343" y="57" width="4" height="4" rx="2" fill="white" fill-opacity="0.04"/>
<rect x="371" y="57" width="4" height="4" rx="2" fill="white" fill-opacity="0.04"/>
<rect x="399" y="57" width="4" height="4" rx="2" fill="white" fill-opacity="0.04"/>
<rect x="427" y="57" width="4" height="4" rx="2" fill="white" fill-opacity="0.04"/>
<rect x="455" y="57" width="4" height="4" rx="2" fill="white" fill-opacity="0.04"/>
<rect x="483" y="57" width="4" height="4" rx="2" fill="white" fill-opacity="0.04"/>
<rect x="511" y="57" width="4" height="4" rx="2" fill="white" fill-opacity="0.04"/>
<rect x="539" y="57" width="4" height="4" rx="2" fill="white" fill-opacity="0.04"/>
<rect x="567" y="57" width="4" height="4" rx="2" fill="white" fill-opacity="0.04"/>
<rect x="595" y="57" width="4" height="4" rx="2" fill="white" fill-opacity="0.04"/>
<rect x="623" y="57" width="4" height="4" rx="2" fill="white" fill-opacity="0.04"/>
<rect x="651" y="57" width="4" height="4" rx="2" fill="white" fill-opacity="0.04"/>
<rect x="679" y="57" width="4" height="4" rx="2" fill="white" fill-opacity="0.04"/>
<rect x="707" y="57" width="4" height="4" rx="2" fill="white" fill-opacity="0.04"/>
<rect x="35" y="85" width="4" height="4" rx="2" fill="white" fill-opacity="0.04"/>
<rect x="63" y="85" width="4" height="4" rx="2" fill="white" fill-opacity="0.04"/>
<rect x="91" y="85" width="4" height="4" rx="2" fill="white" fill-opacity="0.04"/>
<rect x="119" y="85" width="4" height="4" rx="2" fill="white" fill-opacity="0.04"/>
<rect x="147" y="85" width="4" height="4" rx="2" fill="white" fill-opacity="0.04"/>
<rect x="175" y="85" width="4" height="4" rx="2" fill="white" fill-opacity="0.04"/>
<rect x="203" y="85" width="4" height="4" rx="2" fill="white" fill-opacity="0.04"/>
<rect x="231" y="85" width="4" height="4" rx="2" fill="white" fill-opacity="0.04"/>
<rect x="259" y="85" width="4" height="4" rx="2" fill="white" fill-opacity="0.04"/>
<rect x="287" y="85" width="4" height="4" rx="2" fill="white" fill-opacity="0.04"/>
<rect x="315" y="85" width="4" height="4" rx="2" fill="white" fill-opacity="0.04"/>
<rect x="343" y="85" width="4" height="4" rx="2" fill="white" fill-opacity="0.04"/>
<rect x="371" y="85" width="4" height="4" rx="2" fill="white" fill-opacity="0.04"/>
<rect x="399" y="85" width="4" height="4" rx="2" fill="white" fill-opacity="0.04"/>
<rect x="427" y="85" width="4" height="4" rx="2" fill="white" fill-opacity="0.04"/>
<rect x="455" y="85" width="4" height="4" rx="2" fill="white" fill-opacity="0.04"/>
<rect x="483" y="85" width="4" height="4" rx="2" fill="white" fill-opacity="0.04"/>
<rect x="511" y="85" width="4" height="4" rx="2" fill="white" fill-opacity="0.04"/>
<rect x="539" y="85" width="4" height="4" rx="2" fill="white" fill-opacity="0.04"/>
<rect x="567" y="85" width="4" height="4" rx="2" fill="white" fill-opacity="0.04"/>
<rect x="595" y="85" width="4" height="4" rx="2" fill="white" fill-opacity="0.04"/>
<rect x="623" y="85" width="4" height="4" rx="2" fill="white" fill-opacity="0.04"/>
<rect x="651" y="85" width="4" height="4" rx="2" fill="white" fill-opacity="0.04"/>
<rect x="679" y="85" width="4" height="4" rx="2" fill="white" fill-opacity="0.04"/>
<rect x="707" y="85" width="4" height="4" rx="2" fill="white" fill-opacity="0.04"/>
<rect x="35" y="113" width="4" height="4" rx="2" fill="white" fill-opacity="0.04"/>
<rect x="63" y="113" width="4" height="4" rx="2" fill="white" fill-opacity="0.04"/>
<rect x="91" y="113" width="4" height="4" rx="2" fill="white" fill-opacity="0.04"/>
<rect x="119" y="113" width="4" height="4" rx="2" fill="white" fill-opacity="0.04"/>
<rect x="147" y="113" width="4" height="4" rx="2" fill="white" fill-opacity="0.04"/>
<rect x="175" y="113" width="4" height="4" rx="2" fill="white" fill-opacity="0.04"/>
<rect x="203" y="113" width="4" height="4" rx="2" fill="white" fill-opacity="0.04"/>
<rect x="231" y="113" width="4" height="4" rx="2" fill="white" fill-opacity="0.04"/>
<rect x="259" y="113" width="4" height="4" rx="2" fill="white" fill-opacity="0.04"/>
<rect x="287" y="113" width="4" height="4" rx="2" fill="white" fill-opacity="0.04"/>
<rect x="315" y="113" width="4" height="4" rx="2" fill="white" fill-opacity="0.04"/>
<rect x="343" y="113" width="4" height="4" rx="2" fill="white" fill-opacity="0.04"/>
<rect x="371" y="113" width="4" height="4" rx="2" fill="white" fill-opacity="0.04"/>
<rect x="399" y="113" width="4" height="4" rx="2" fill="white" fill-opacity="0.04"/>
<rect x="427" y="113" width="4" height="4" rx="2" fill="white" fill-opacity="0.04"/>
<rect x="455" y="113" width="4" height="4" rx="2" fill="white" fill-opacity="0.04"/>
<rect x="483" y="113" width="4" height="4" rx="2" fill="white" fill-opacity="0.04"/>
<rect x="511" y="113" width="4" height="4" rx="2" fill="white" fill-opacity="0.04"/>
<rect x="539" y="113" width="4" height="4" rx="2" fill="white" fill-opacity="0.04"/>
<rect x="567" y="113" width="4" height="4" rx="2" fill="white" fill-opacity="0.04"/>
<rect x="595" y="113" width="4" height="4" rx="2" fill="white" fill-opacity="0.04"/>
<rect x="623" y="113" width="4" height="4" rx="2" fill="white" fill-opacity="0.04"/>
<rect x="651" y="113" width="4" height="4" rx="2" fill="white" fill-opacity="0.04"/>
<rect x="679" y="113" width="4" height="4" rx="2" fill="white" fill-opacity="0.04"/>
<rect x="707" y="113" width="4" height="4" rx="2" fill="white" fill-opacity="0.04"/>
<rect width="745" height="140" transform="translate(0 1)" fill="url(#paint0_linear_21842_2612)"/>
<g filter="url(#filter0_b_21842_2612)">
<rect x="273" width="200" height="200" rx="100" fill="url(#paint1_radial_21842_2612)"/>
<rect x="273.5" y="0.5" width="199" height="199" rx="99.5" stroke="url(#paint2_radial_21842_2612)"/>
</g>
<g filter="url(#filter1_b_21842_2612)">
<rect x="534" y="52" width="184" height="36" rx="8" fill="#1C1C1C" fill-opacity="0.04"/>
<rect x="534.5" y="52.5" width="183" height="35" rx="7.5" stroke="url(#paint3_radial_21842_2612)"/>
<g filter="url(#filter2_d_21842_2612)">
<path d="M551.539 75V64.8182H554.979C555.778 64.8182 556.431 64.9624 556.938 65.2507C557.448 65.5357 557.826 65.9219 558.071 66.4091C558.317 66.8963 558.439 67.4399 558.439 68.0398C558.439 68.6397 558.317 69.1849 558.071 69.6754C557.829 70.166 557.455 70.5571 556.948 70.8487C556.441 71.1371 555.791 71.2812 554.999 71.2812H552.533V70.1875H554.959C555.506 70.1875 555.945 70.093 556.277 69.9041C556.608 69.7152 556.848 69.46 556.997 69.1385C557.15 68.8137 557.226 68.4474 557.226 68.0398C557.226 67.6321 557.15 67.2675 556.997 66.946C556.848 66.6245 556.606 66.3726 556.272 66.1903C555.937 66.0047 555.493 65.9119 554.939 65.9119H552.772V75H551.539ZM560.266 75V67.3636H561.4V68.517H561.479C561.619 68.1392 561.87 67.8326 562.235 67.5973C562.6 67.362 563.011 67.2443 563.468 67.2443C563.554 67.2443 563.662 67.246 563.791 67.2493C563.92 67.2526 564.018 67.2576 564.084 67.2642V68.4574C564.045 68.4474 563.954 68.4325 563.811 68.4126C563.672 68.3894 563.524 68.3778 563.369 68.3778C562.997 68.3778 562.666 68.4557 562.374 68.6115C562.086 68.764 561.857 68.9761 561.688 69.2479C561.522 69.5163 561.44 69.8229 561.44 70.1676V75H560.266ZM568.345 75.1591C567.656 75.1591 567.051 74.995 566.53 74.6669C566.013 74.3388 565.609 73.8797 565.317 73.2898C565.029 72.6998 564.885 72.0104 564.885 71.2216C564.885 70.4261 565.029 69.7318 565.317 69.1385C565.609 68.5452 566.013 68.0845 566.53 67.7564C567.051 67.4283 567.656 67.2642 568.345 67.2642C569.034 67.2642 569.638 67.4283 570.155 67.7564C570.675 68.0845 571.079 68.5452 571.368 69.1385C571.659 69.7318 571.805 70.4261 571.805 71.2216C571.805 72.0104 571.659 72.6998 571.368 73.2898C571.079 73.8797 570.675 74.3388 570.155 74.6669C569.638 74.995 569.034 75.1591 568.345 75.1591ZM568.345 74.1051C568.869 74.1051 569.3 73.9709 569.638 73.7024C569.976 73.4339 570.226 73.081 570.388 72.6435C570.551 72.206 570.632 71.732 570.632 71.2216C570.632 70.7112 570.551 70.2356 570.388 69.7947C570.226 69.3539 569.976 68.9976 569.638 68.7259C569.3 68.4541 568.869 68.3182 568.345 68.3182C567.821 68.3182 567.391 68.4541 567.052 68.7259C566.714 68.9976 566.464 69.3539 566.302 69.7947C566.139 70.2356 566.058 70.7112 566.058 71.2216C566.058 71.732 566.139 72.206 566.302 72.6435C566.464 73.081 566.714 73.4339 567.052 73.7024C567.391 73.9709 567.821 74.1051 568.345 74.1051ZM576.48 75.1591C575.843 75.1591 575.282 74.9983 574.794 74.6768C574.307 74.352 573.926 73.8946 573.651 73.3047C573.376 72.7114 573.238 72.0104 573.238 71.2017C573.238 70.3996 573.376 69.7036 573.651 69.1136C573.926 68.5237 574.309 68.0679 574.799 67.7464C575.29 67.425 575.857 67.2642 576.5 67.2642C576.997 67.2642 577.39 67.3471 577.678 67.5128C577.97 67.6752 578.192 67.8608 578.344 68.0696C578.5 68.2751 578.621 68.4441 578.707 68.5767H578.807V64.8182H579.98V75H578.846V73.8267H578.707C578.621 73.9659 578.498 74.1416 578.339 74.3537C578.18 74.5625 577.953 74.7498 577.658 74.9155C577.363 75.0779 576.97 75.1591 576.48 75.1591ZM576.639 74.1051C577.11 74.1051 577.507 73.9825 577.832 73.7372C578.157 73.4886 578.404 73.1456 578.573 72.7081C578.742 72.2673 578.826 71.7585 578.826 71.1818C578.826 70.6117 578.744 70.1129 578.578 69.6854C578.412 69.2545 578.167 68.9197 577.842 68.6811C577.517 68.4392 577.116 68.3182 576.639 68.3182C576.142 68.3182 575.727 68.4458 575.396 68.701C575.068 68.9529 574.821 69.2959 574.655 69.7301C574.493 70.161 574.412 70.6449 574.412 71.1818C574.412 71.7254 574.495 72.2192 574.66 72.6634C574.829 73.1042 575.078 73.4555 575.406 73.7173C575.737 73.9759 576.148 74.1051 576.639 74.1051ZM587.104 71.8778V67.3636H588.277V75H587.104V73.7074H587.025C586.846 74.0952 586.567 74.425 586.189 74.6967C585.812 74.9652 585.334 75.0994 584.758 75.0994C584.28 75.0994 583.856 74.995 583.485 74.7862C583.114 74.5741 582.822 74.2559 582.61 73.8317C582.398 73.4041 582.292 72.8655 582.292 72.2159V67.3636H583.465V72.1364C583.465 72.6932 583.621 73.1373 583.932 73.4688C584.247 73.8002 584.648 73.9659 585.135 73.9659C585.427 73.9659 585.724 73.8913 586.025 73.7422C586.33 73.593 586.585 73.3643 586.791 73.0561C587 72.7479 587.104 72.3551 587.104 71.8778ZM593.529 75.1591C592.813 75.1591 592.196 74.9901 591.679 74.652C591.162 74.3139 590.764 73.8482 590.486 73.255C590.208 72.6617 590.068 71.9839 590.068 71.2216C590.068 70.446 590.211 69.7616 590.496 69.1683C590.784 68.5717 591.185 68.1061 591.699 67.7713C592.216 67.4332 592.819 67.2642 593.509 67.2642C594.046 67.2642 594.53 67.3636 594.96 67.5625C595.391 67.7614 595.744 68.0398 596.019 68.3977C596.295 68.7557 596.465 69.1733 596.532 69.6506H595.358C595.269 69.3026 595.07 68.9943 594.762 68.7259C594.457 68.4541 594.046 68.3182 593.529 68.3182C593.071 68.3182 592.67 68.4375 592.326 68.6761C591.984 68.9115 591.717 69.2446 591.525 69.6754C591.336 70.103 591.242 70.6051 591.242 71.1818C591.242 71.7718 591.335 72.2855 591.52 72.723C591.709 73.1605 591.974 73.5002 592.316 73.7422C592.66 73.9841 593.065 74.1051 593.529 74.1051C593.834 74.1051 594.11 74.0521 594.359 73.946C594.608 73.84 594.818 73.6875 594.99 73.4886C595.163 73.2898 595.285 73.0511 595.358 72.7727H596.532C596.465 73.2235 596.301 73.6295 596.039 73.9908C595.781 74.3487 595.438 74.6338 595.01 74.8459C594.586 75.0547 594.092 75.1591 593.529 75.1591ZM601.568 67.3636V68.358H597.61V67.3636H601.568ZM598.764 65.5341H599.937V72.8125C599.937 73.1439 599.985 73.3925 600.081 73.5582C600.181 73.7206 600.307 73.83 600.459 73.8864C600.615 73.9394 600.779 73.9659 600.951 73.9659C601.081 73.9659 601.187 73.9593 601.269 73.946C601.352 73.9295 601.419 73.9162 601.468 73.9062L601.707 74.9602C601.627 74.9901 601.516 75.0199 601.374 75.0497C601.231 75.0829 601.051 75.0994 600.832 75.0994C600.501 75.0994 600.176 75.0282 599.858 74.8857C599.543 74.7431 599.281 74.526 599.072 74.2344C598.867 73.9427 598.764 73.5748 598.764 73.1307V65.5341ZM603.333 75V67.3636H604.506V75H603.333ZM603.929 66.0909C603.701 66.0909 603.503 66.013 603.338 65.8572C603.175 65.7015 603.094 65.5142 603.094 65.2955C603.094 65.0767 603.175 64.8894 603.338 64.7337C603.503 64.5779 603.701 64.5 603.929 64.5C604.158 64.5 604.353 64.5779 604.516 64.7337C604.682 64.8894 604.764 65.0767 604.764 65.2955C604.764 65.5142 604.682 65.7015 604.516 65.8572C604.353 66.013 604.158 66.0909 603.929 66.0909ZM609.757 75.1591C609.068 75.1591 608.463 74.995 607.943 74.6669C607.426 74.3388 607.021 73.8797 606.729 73.2898C606.441 72.6998 606.297 72.0104 606.297 71.2216C606.297 70.4261 606.441 69.7318 606.729 69.1385C607.021 68.5452 607.426 68.0845 607.943 67.7564C608.463 67.4283 609.068 67.2642 609.757 67.2642C610.447 67.2642 611.05 67.4283 611.567 67.7564C612.087 68.0845 612.492 68.5452 612.78 69.1385C613.072 69.7318 613.217 70.4261 613.217 71.2216C613.217 72.0104 613.072 72.6998 612.78 73.2898C612.492 73.8797 612.087 74.3388 611.567 74.6669C611.05 74.995 610.447 75.1591 609.757 75.1591ZM609.757 74.1051C610.281 74.1051 610.712 73.9709 611.05 73.7024C611.388 73.4339 611.638 73.081 611.801 72.6435C611.963 72.206 612.044 71.732 612.044 71.2216C612.044 70.7112 611.963 70.2356 611.801 69.7947C611.638 69.3539 611.388 68.9976 611.05 68.7259C610.712 68.4541 610.281 68.3182 609.757 68.3182C609.234 68.3182 608.803 68.4541 608.465 68.7259C608.127 68.9976 607.876 69.3539 607.714 69.7947C607.551 70.2356 607.47 70.7112 607.47 71.2216C607.47 71.732 607.551 72.206 607.714 72.6435C607.876 73.081 608.127 73.4339 608.465 73.7024C608.803 73.9709 609.234 74.1051 609.757 74.1051ZM616.182 70.4062V75H615.008V67.3636H616.142V68.5568H616.241C616.42 68.169 616.692 67.8575 617.057 67.6222C617.421 67.3835 617.892 67.2642 618.469 67.2642C618.986 67.2642 619.438 67.3703 619.826 67.5824C620.214 67.7912 620.515 68.1094 620.731 68.5369C620.946 68.9612 621.054 69.4981 621.054 70.1477V75H619.881V70.2273C619.881 69.6274 619.725 69.16 619.413 68.8253C619.102 68.4872 618.674 68.3182 618.131 68.3182C617.756 68.3182 617.421 68.3994 617.126 68.5618C616.835 68.7242 616.604 68.9612 616.435 69.2727C616.266 69.5843 616.182 69.9621 616.182 70.4062ZM630.238 75.1591C629.548 75.1591 628.943 74.995 628.423 74.6669C627.906 74.3388 627.502 73.8797 627.21 73.2898C626.922 72.6998 626.777 72.0104 626.777 71.2216C626.777 70.4261 626.922 69.7318 627.21 69.1385C627.502 68.5452 627.906 68.0845 628.423 67.7564C628.943 67.4283 629.548 67.2642 630.238 67.2642C630.927 67.2642 631.53 67.4283 632.047 67.7564C632.568 68.0845 632.972 68.5452 633.26 69.1385C633.552 69.7318 633.698 70.4261 633.698 71.2216C633.698 72.0104 633.552 72.6998 633.26 73.2898C632.972 73.8797 632.568 74.3388 632.047 74.6669C631.53 74.995 630.927 75.1591 630.238 75.1591ZM630.238 74.1051C630.761 74.1051 631.192 73.9709 631.53 73.7024C631.868 73.4339 632.119 73.081 632.281 72.6435C632.443 72.206 632.525 71.732 632.525 71.2216C632.525 70.7112 632.443 70.2356 632.281 69.7947C632.119 69.3539 631.868 68.9976 631.53 68.7259C631.192 68.4541 630.761 68.3182 630.238 68.3182C629.714 68.3182 629.283 68.4541 628.945 68.7259C628.607 68.9976 628.357 69.3539 628.194 69.7947C628.032 70.2356 627.951 70.7112 627.951 71.2216C627.951 71.732 628.032 72.206 628.194 72.6435C628.357 73.081 628.607 73.4339 628.945 73.7024C629.283 73.9709 629.714 74.1051 630.238 74.1051ZM636.662 70.4062V75H635.489V67.3636H636.622V68.5568H636.722C636.901 68.169 637.173 67.8575 637.537 67.6222C637.902 67.3835 638.372 67.2642 638.949 67.2642C639.466 67.2642 639.919 67.3703 640.306 67.5824C640.694 67.7912 640.996 68.1094 641.211 68.5369C641.427 68.9612 641.534 69.4981 641.534 70.1477V75H640.361V70.2273C640.361 69.6274 640.205 69.16 639.894 68.8253C639.582 68.4872 639.155 68.3182 638.611 68.3182C638.237 68.3182 637.902 68.3994 637.607 68.5618C637.315 68.7242 637.085 68.9612 636.916 69.2727C636.747 69.5843 636.662 69.9621 636.662 70.4062ZM650.917 75H647.775V64.8182H651.056C652.044 64.8182 652.889 65.022 653.592 65.4297C654.294 65.834 654.833 66.4157 655.207 67.1747C655.582 67.9304 655.769 68.8352 655.769 69.8892C655.769 70.9498 655.58 71.8629 655.203 72.6286C654.825 73.3909 654.274 73.9775 653.552 74.3885C652.829 74.7962 651.951 75 650.917 75ZM649.008 73.9062H650.837C651.679 73.9062 652.377 73.7438 652.93 73.419C653.484 73.0942 653.897 72.6319 654.168 72.032C654.44 71.4321 654.576 70.7178 654.576 69.8892C654.576 69.0672 654.442 68.3596 654.173 67.7663C653.905 67.1697 653.504 66.7124 652.97 66.3942C652.437 66.0727 651.772 65.9119 650.977 65.9119H649.008V73.9062ZM660.88 75.1591C660.144 75.1591 659.51 74.9967 658.976 74.6719C658.446 74.3438 658.036 73.8864 657.748 73.2997C657.463 72.7098 657.32 72.0237 657.32 71.2415C657.32 70.4593 657.463 69.7699 657.748 69.1733C658.036 68.5734 658.437 68.1061 658.951 67.7713C659.468 67.4332 660.071 67.2642 660.761 67.2642C661.158 67.2642 661.551 67.3305 661.939 67.4631C662.327 67.5956 662.68 67.8111 662.998 68.1094C663.316 68.4044 663.57 68.7955 663.759 69.2827C663.948 69.7699 664.042 70.3698 664.042 71.0824V71.5795H658.156V70.5653H662.849C662.849 70.1345 662.763 69.75 662.59 69.4119C662.421 69.0739 662.179 68.8071 661.864 68.6115C661.553 68.416 661.185 68.3182 660.761 68.3182C660.293 68.3182 659.889 68.4342 659.548 68.6662C659.21 68.8949 658.949 69.1932 658.767 69.5611C658.585 69.929 658.494 70.3234 658.494 70.7443V71.4205C658.494 71.9972 658.593 72.486 658.792 72.8871C658.994 73.2848 659.274 73.5881 659.632 73.7969C659.99 74.0024 660.406 74.1051 660.88 74.1051C661.188 74.1051 661.467 74.062 661.715 73.9759C661.967 73.8864 662.184 73.7538 662.367 73.5781C662.549 73.3991 662.69 73.1771 662.789 72.9119L663.923 73.2301C663.803 73.6146 663.603 73.9527 663.321 74.2443C663.039 74.5327 662.691 74.758 662.277 74.9205C661.863 75.0795 661.397 75.1591 660.88 75.1591ZM665.827 75V67.3636H666.96V68.5568H667.06C667.219 68.1491 667.476 67.8326 667.83 67.6072C668.185 67.3786 668.611 67.2642 669.108 67.2642C669.612 67.2642 670.031 67.3786 670.366 67.6072C670.704 67.8326 670.967 68.1491 671.156 68.5568H671.236C671.431 68.1624 671.725 67.8492 672.116 67.6172C672.507 67.3819 672.976 67.2642 673.523 67.2642C674.206 67.2642 674.764 67.478 675.198 67.9055C675.632 68.3298 675.85 68.991 675.85 69.8892V75H674.676V69.8892C674.676 69.3258 674.522 68.9231 674.214 68.6811C673.906 68.4392 673.543 68.3182 673.125 68.3182C672.588 68.3182 672.172 68.4806 671.877 68.8054C671.582 69.1269 671.435 69.5346 671.435 70.0284V75H670.242V69.7699C670.242 69.3357 670.101 68.986 669.819 68.7209C669.537 68.4524 669.174 68.3182 668.73 68.3182C668.425 68.3182 668.14 68.3994 667.875 68.5618C667.613 68.7242 667.401 68.9496 667.239 69.2379C667.08 69.523 667 69.8527 667 70.2273V75H665.827ZM680.242 75.179C679.758 75.179 679.319 75.0878 678.924 74.9055C678.53 74.7199 678.217 74.4531 677.985 74.1051C677.753 73.7538 677.637 73.3295 677.637 72.8324C677.637 72.3949 677.723 72.0402 677.895 71.7685C678.068 71.4934 678.298 71.2779 678.586 71.1222C678.875 70.9664 679.193 70.8504 679.541 70.7741C679.892 70.6946 680.245 70.6316 680.6 70.5852C681.064 70.5256 681.44 70.4808 681.728 70.451C682.02 70.4179 682.232 70.3632 682.365 70.2869C682.501 70.2107 682.569 70.0781 682.569 69.8892V69.8494C682.569 69.3589 682.434 68.9777 682.166 68.706C681.901 68.4342 681.498 68.2983 680.958 68.2983C680.398 68.2983 679.959 68.4209 679.64 68.6662C679.322 68.9115 679.098 69.1733 678.969 69.4517L677.856 69.054C678.054 68.59 678.32 68.2287 678.651 67.9702C678.986 67.7083 679.35 67.526 679.745 67.4233C680.142 67.3172 680.534 67.2642 680.918 67.2642C681.163 67.2642 681.445 67.294 681.763 67.3537C682.085 67.41 682.395 67.5277 682.693 67.7067C682.995 67.8857 683.245 68.1558 683.444 68.517C683.642 68.8783 683.742 69.3622 683.742 69.9688V75H682.569V73.9659H682.509C682.429 74.1316 682.297 74.3089 682.111 74.4979C681.926 74.6868 681.679 74.8475 681.37 74.9801C681.062 75.1127 680.686 75.179 680.242 75.179ZM680.421 74.125C680.885 74.125 681.276 74.0339 681.594 73.8516C681.916 73.6693 682.158 73.4339 682.32 73.1456C682.486 72.8572 682.569 72.554 682.569 72.2358V71.1619C682.519 71.2216 682.41 71.2763 682.241 71.326C682.075 71.3724 681.883 71.4138 681.664 71.4503C681.448 71.4834 681.238 71.5133 681.032 71.5398C680.83 71.563 680.666 71.5829 680.54 71.5994C680.235 71.6392 679.95 71.7038 679.685 71.7933C679.423 71.8795 679.211 72.0104 679.049 72.1861C678.89 72.3584 678.81 72.5937 678.81 72.892C678.81 73.2997 678.961 73.608 679.263 73.8168C679.567 74.0223 679.954 74.125 680.421 74.125ZM687.057 70.4062V75H685.883V67.3636H687.017V68.5568H687.116C687.295 68.169 687.567 67.8575 687.932 67.6222C688.296 67.3835 688.767 67.2642 689.344 67.2642C689.861 67.2642 690.313 67.3703 690.701 67.5824C691.089 67.7912 691.39 68.1094 691.606 68.5369C691.821 68.9612 691.929 69.4981 691.929 70.1477V75H690.756V70.2273C690.756 69.6274 690.6 69.16 690.288 68.8253C689.977 68.4872 689.549 68.3182 689.006 68.3182C688.631 68.3182 688.296 68.3994 688.001 68.5618C687.71 68.7242 687.479 68.9612 687.31 69.2727C687.141 69.5843 687.057 69.9621 687.057 70.4062ZM696.956 75.1591C696.32 75.1591 695.758 74.9983 695.271 74.6768C694.784 74.352 694.403 73.8946 694.128 73.3047C693.852 72.7114 693.715 72.0104 693.715 71.2017C693.715 70.3996 693.852 69.7036 694.128 69.1136C694.403 68.5237 694.785 68.0679 695.276 67.7464C695.767 67.425 696.333 67.2642 696.976 67.2642C697.473 67.2642 697.866 67.3471 698.155 67.5128C698.446 67.6752 698.668 67.8608 698.821 68.0696C698.977 68.2751 699.098 68.4441 699.184 68.5767H699.283V64.8182H700.456V75H699.323V73.8267H699.184C699.098 73.9659 698.975 74.1416 698.816 74.3537C698.657 74.5625 698.43 74.7498 698.135 74.9155C697.84 75.0779 697.447 75.1591 696.956 75.1591ZM697.116 74.1051C697.586 74.1051 697.984 73.9825 698.309 73.7372C698.633 73.4886 698.88 73.1456 699.049 72.7081C699.218 72.2673 699.303 71.7585 699.303 71.1818C699.303 70.6117 699.22 70.1129 699.054 69.6854C698.889 69.2545 698.643 68.9197 698.319 68.6811C697.994 68.4392 697.593 68.3182 697.116 68.3182C696.618 68.3182 696.204 68.4458 695.873 68.701C695.544 68.9529 695.298 69.2959 695.132 69.7301C694.969 70.161 694.888 70.6449 694.888 71.1818C694.888 71.7254 694.971 72.2192 695.137 72.6634C695.306 73.1042 695.554 73.4555 695.883 73.7173C696.214 73.9759 696.625 74.1051 697.116 74.1051Z" fill="#2BCFA1"/>
</g>
</g>
<g filter="url(#filter3_b_21842_2612)">
<rect x="28" y="52" width="127" height="36" rx="8" fill="#1C1C1C" fill-opacity="0.04"/>
<rect x="28.5" y="52.5" width="126" height="35" rx="7.5" stroke="url(#paint4_radial_21842_2612)"/>
<g filter="url(#filter4_d_21842_2612)">
<path d="M45.4214 75V64.8182H48.8618C49.6605 64.8182 50.3135 64.9624 50.8206 65.2507C51.331 65.5357 51.7088 65.9219 51.9541 66.4091C52.1994 66.8963 52.322 67.4399 52.322 68.0398C52.322 68.6397 52.1994 69.1849 51.9541 69.6754C51.7122 70.166 51.3376 70.5571 50.8305 70.8487C50.3234 71.1371 49.6738 71.2812 48.8817 71.2812H46.4157V70.1875H48.8419C49.3888 70.1875 49.8279 70.093 50.1594 69.9041C50.4908 69.7152 50.7311 69.46 50.8802 69.1385C51.0327 68.8137 51.1089 68.4474 51.1089 68.0398C51.1089 67.6321 51.0327 67.2675 50.8802 66.946C50.7311 66.6245 50.4891 66.3726 50.1544 66.1903C49.8196 66.0047 49.3755 65.9119 48.822 65.9119H46.6544V75H45.4214ZM55.3224 70.4062V75H54.1491V64.8182H55.3224V68.5568H55.4218C55.6008 68.1624 55.8692 67.8492 56.2272 67.6172C56.5885 67.3819 57.069 67.2642 57.6689 67.2642C58.1893 67.2642 58.645 67.3686 59.0361 67.5774C59.4272 67.7829 59.7305 68.0994 59.9459 68.527C60.1647 68.9512 60.2741 69.4915 60.2741 70.1477V75H59.1008V70.2273C59.1008 69.6207 58.9433 69.1518 58.6285 68.8203C58.3169 68.4856 57.8844 68.3182 57.3309 68.3182C56.9464 68.3182 56.6017 68.3994 56.2968 68.5618C55.9952 68.7242 55.7565 68.9612 55.5809 69.2727C55.4085 69.5843 55.3224 69.9621 55.3224 70.4062ZM62.9028 77.8636C62.7039 77.8636 62.5266 77.8471 62.3708 77.8139C62.2151 77.7841 62.1073 77.7543 62.0477 77.7244L62.346 76.6903C62.631 76.7633 62.8829 76.7898 63.1017 76.7699C63.3204 76.75 63.5143 76.6522 63.6833 76.4766C63.8557 76.3042 64.0131 76.0241 64.1556 75.6364L64.3744 75.0398L61.5505 67.3636H62.8232L64.9312 73.4489H65.0107L67.1187 67.3636H68.3914L65.1499 76.1136C65.0041 76.508 64.8235 76.8345 64.608 77.093C64.3926 77.3549 64.1424 77.5488 63.8573 77.6747C63.5756 77.8007 63.2574 77.8636 62.9028 77.8636ZM75.3492 69.0739L74.2952 69.3722C74.2289 69.1965 74.1311 69.0258 74.0019 68.8601C73.8759 68.6911 73.7036 68.5518 73.4848 68.4425C73.2661 68.3331 72.986 68.2784 72.6446 68.2784C72.1773 68.2784 71.7878 68.3861 71.4763 68.6016C71.1681 68.8137 71.0139 69.0838 71.0139 69.4119C71.0139 69.7036 71.12 69.9339 71.3321 70.103C71.5442 70.272 71.8757 70.4129 72.3264 70.5256L73.46 70.804C74.1427 70.9697 74.6515 71.2232 74.9862 71.5646C75.321 71.9027 75.4884 72.3385 75.4884 72.8722C75.4884 73.3097 75.3624 73.7008 75.1105 74.0455C74.8619 74.3902 74.5139 74.6619 74.0665 74.8608C73.6191 75.0597 73.0987 75.1591 72.5054 75.1591C71.7265 75.1591 71.0819 74.9901 70.5715 74.652C70.061 74.3139 69.7379 73.8201 69.602 73.1705L70.7156 72.892C70.8217 73.303 71.0222 73.6113 71.3172 73.8168C71.6155 74.0223 72.0049 74.125 72.4855 74.125C73.0324 74.125 73.4666 74.009 73.7881 73.777C74.1129 73.5417 74.2753 73.2599 74.2753 72.9318C74.2753 72.6667 74.1825 72.4446 73.9969 72.2656C73.8113 72.0833 73.5262 71.9474 73.1418 71.858L71.8691 71.5597C71.1697 71.3939 70.656 71.1371 70.3279 70.7891C70.003 70.4377 69.8406 69.9986 69.8406 69.4716C69.8406 69.0407 69.9616 68.6596 70.2036 68.3281C70.4488 67.9967 70.7819 67.7365 71.2029 67.5476C71.6271 67.3587 72.1077 67.2642 72.6446 67.2642C73.4003 67.2642 73.9936 67.4299 74.4244 67.7614C74.8586 68.0928 75.1669 68.5303 75.3492 69.0739ZM77.2545 75V67.3636H78.4278V75H77.2545ZM77.8511 66.0909C77.6224 66.0909 77.4252 66.013 77.2595 65.8572C77.0971 65.7015 77.0159 65.5142 77.0159 65.2955C77.0159 65.0767 77.0971 64.8894 77.2595 64.7337C77.4252 64.5779 77.6224 64.5 77.8511 64.5C78.0798 64.5 78.2754 64.5779 78.4378 64.7337C78.6035 64.8894 78.6863 65.0767 78.6863 65.2955C78.6863 65.5142 78.6035 65.7015 78.4378 65.8572C78.2754 66.013 78.0798 66.0909 77.8511 66.0909ZM83.6791 75.1591C82.9632 75.1591 82.3467 74.9901 81.8296 74.652C81.3126 74.3139 80.9149 73.8482 80.6365 73.255C80.358 72.6617 80.2188 71.9839 80.2188 71.2216C80.2188 70.446 80.3614 69.7616 80.6464 69.1683C80.9347 68.5717 81.3358 68.1061 81.8495 67.7713C82.3666 67.4332 82.9698 67.2642 83.6592 67.2642C84.1961 67.2642 84.68 67.3636 85.1109 67.5625C85.5418 67.7614 85.8947 68.0398 86.1698 68.3977C86.4449 68.7557 86.6156 69.1733 86.6819 69.6506H85.5086C85.4191 69.3026 85.2203 68.9943 84.912 68.7259C84.6071 68.4541 84.1961 68.3182 83.6791 68.3182C83.2217 68.3182 82.8206 68.4375 82.4759 68.6761C82.1346 68.9115 81.8677 69.2446 81.6755 69.6754C81.4866 70.103 81.3921 70.6051 81.3921 71.1818C81.3921 71.7718 81.4849 72.2855 81.6705 72.723C81.8595 73.1605 82.1246 73.5002 82.466 73.7422C82.8107 73.9841 83.2151 74.1051 83.6791 74.1051C83.984 74.1051 84.2607 74.0521 84.5093 73.946C84.7579 73.84 84.9684 73.6875 85.1407 73.4886C85.3131 73.2898 85.4357 73.0511 85.5086 72.7727H86.6819C86.6156 73.2235 86.4516 73.6295 86.1897 73.9908C85.9312 74.3487 85.5882 74.6338 85.1606 74.8459C84.7364 75.0547 84.2425 75.1591 83.6791 75.1591ZM90.6443 75.179C90.1604 75.179 89.7212 75.0878 89.3268 74.9055C88.9324 74.7199 88.6192 74.4531 88.3872 74.1051C88.1552 73.7538 88.0392 73.3295 88.0392 72.8324C88.0392 72.3949 88.1253 72.0402 88.2977 71.7685C88.47 71.4934 88.7004 71.2779 88.9887 71.1222C89.2771 70.9664 89.5953 70.8504 89.9433 70.7741C90.2946 70.6946 90.6476 70.6316 91.0022 70.5852C91.4662 70.5256 91.8424 70.4808 92.1308 70.451C92.4224 70.4179 92.6346 70.3632 92.7671 70.2869C92.903 70.2107 92.971 70.0781 92.971 69.8892V69.8494C92.971 69.3589 92.8367 68.9777 92.5683 68.706C92.3031 68.4342 91.9004 68.2983 91.3602 68.2983C90.8 68.2983 90.3609 68.4209 90.0427 68.6662C89.7245 68.9115 89.5008 69.1733 89.3715 69.4517L88.2579 69.054C88.4568 68.59 88.7219 68.2287 89.0534 67.9702C89.3881 67.7083 89.7527 67.526 90.1471 67.4233C90.5448 67.3172 90.9359 67.2642 91.3204 67.2642C91.5657 67.2642 91.8474 67.294 92.1656 67.3537C92.4871 67.41 92.797 67.5277 93.0953 67.7067C93.3969 67.8857 93.6471 68.1558 93.846 68.517C94.0448 68.8783 94.1443 69.3622 94.1443 69.9688V75H92.971V73.9659H92.9113C92.8318 74.1316 92.6992 74.3089 92.5136 74.4979C92.328 74.6868 92.0811 74.8475 91.7728 74.9801C91.4646 75.1127 91.0884 75.179 90.6443 75.179ZM90.8232 74.125C91.2873 74.125 91.6784 74.0339 91.9965 73.8516C92.318 73.6693 92.56 73.4339 92.7224 73.1456C92.8881 72.8572 92.971 72.554 92.971 72.2358V71.1619C92.9213 71.2216 92.8119 71.2763 92.6428 71.326C92.4771 71.3724 92.2849 71.4138 92.0661 71.4503C91.8507 71.4834 91.6402 71.5133 91.4347 71.5398C91.2326 71.563 91.0685 71.5829 90.9426 71.5994C90.6376 71.6392 90.3526 71.7038 90.0874 71.7933C89.8256 71.8795 89.6135 72.0104 89.4511 72.1861C89.292 72.3584 89.2124 72.5937 89.2124 72.892C89.2124 73.2997 89.3633 73.608 89.6649 73.8168C89.9698 74.0223 90.3559 74.125 90.8232 74.125ZM97.4591 64.8182V75H96.2858V64.8182H97.4591ZM104.938 64.8182V75H103.705V64.8182H104.938ZM110.572 67.3636V68.358H106.614V67.3636H110.572ZM107.768 65.5341H108.941V72.8125C108.941 73.1439 108.989 73.3925 109.085 73.5582C109.185 73.7206 109.311 73.83 109.463 73.8864C109.619 73.9394 109.783 73.9659 109.955 73.9659C110.084 73.9659 110.19 73.9593 110.273 73.946C110.356 73.9295 110.422 73.9162 110.472 73.9062L110.711 74.9602C110.631 74.9901 110.52 75.0199 110.378 75.0497C110.235 75.0829 110.055 75.0994 109.836 75.0994C109.504 75.0994 109.18 75.0282 108.861 74.8857C108.547 74.7431 108.285 74.526 108.076 74.2344C107.87 73.9427 107.768 73.5748 107.768 73.1307V65.5341ZM115.456 75.1591C114.72 75.1591 114.086 74.9967 113.552 74.6719C113.022 74.3438 112.612 73.8864 112.324 73.2997C112.039 72.7098 111.897 72.0237 111.897 71.2415C111.897 70.4593 112.039 69.7699 112.324 69.1733C112.612 68.5734 113.014 68.1061 113.527 67.7713C114.044 67.4332 114.648 67.2642 115.337 67.2642C115.735 67.2642 116.127 67.3305 116.515 67.4631C116.903 67.5956 117.256 67.8111 117.574 68.1094C117.892 68.4044 118.146 68.7955 118.335 69.2827C118.524 69.7699 118.618 70.3698 118.618 71.0824V71.5795H112.732V70.5653H117.425C117.425 70.1345 117.339 69.75 117.166 69.4119C116.997 69.0739 116.755 68.8071 116.441 68.6115C116.129 68.416 115.761 68.3182 115.337 68.3182C114.87 68.3182 114.465 68.4342 114.124 68.6662C113.786 68.8949 113.526 69.1932 113.343 69.5611C113.161 69.929 113.07 70.3234 113.07 70.7443V71.4205C113.07 71.9972 113.169 72.486 113.368 72.8871C113.57 73.2848 113.85 73.5881 114.208 73.7969C114.566 74.0024 114.982 74.1051 115.456 74.1051C115.764 74.1051 116.043 74.062 116.291 73.9759C116.543 73.8864 116.76 73.7538 116.943 73.5781C117.125 73.3991 117.266 73.1771 117.365 72.9119L118.499 73.2301C118.38 73.6146 118.179 73.9527 117.897 74.2443C117.616 74.5327 117.268 74.758 116.853 74.9205C116.439 75.0795 115.973 75.1591 115.456 75.1591ZM120.403 75V67.3636H121.536V68.5568H121.636C121.795 68.1491 122.052 67.8326 122.407 67.6072C122.761 67.3786 123.187 67.2642 123.684 67.2642C124.188 67.2642 124.607 67.3786 124.942 67.6072C125.28 67.8326 125.544 68.1491 125.733 68.5568H125.812C126.008 68.1624 126.301 67.8492 126.692 67.6172C127.083 67.3819 127.552 67.2642 128.099 67.2642C128.782 67.2642 129.34 67.478 129.774 67.9055C130.209 68.3298 130.426 68.991 130.426 69.8892V75H129.252V69.8892C129.252 69.3258 129.098 68.9231 128.79 68.6811C128.482 68.4392 128.119 68.3182 127.701 68.3182C127.164 68.3182 126.748 68.4806 126.453 68.8054C126.158 69.1269 126.011 69.5346 126.011 70.0284V75H124.818V69.7699C124.818 69.3357 124.677 68.986 124.395 68.7209C124.113 68.4524 123.751 68.3182 123.306 68.3182C123.001 68.3182 122.716 68.3994 122.451 68.5618C122.189 68.7242 121.977 68.9496 121.815 69.2379C121.656 69.523 121.576 69.8527 121.576 70.2273V75H120.403ZM137.98 69.0739L136.926 69.3722C136.86 69.1965 136.762 69.0258 136.633 68.8601C136.507 68.6911 136.334 68.5518 136.116 68.4425C135.897 68.3331 135.617 68.2784 135.275 68.2784C134.808 68.2784 134.419 68.3861 134.107 68.6016C133.799 68.8137 133.645 69.0838 133.645 69.4119C133.645 69.7036 133.751 69.9339 133.963 70.103C134.175 70.272 134.507 70.4129 134.957 70.5256L136.091 70.804C136.774 70.9697 137.282 71.2232 137.617 71.5646C137.952 71.9027 138.119 72.3385 138.119 72.8722C138.119 73.3097 137.993 73.7008 137.741 74.0455C137.493 74.3902 137.145 74.6619 136.697 74.8608C136.25 75.0597 135.73 75.1591 135.136 75.1591C134.357 75.1591 133.713 74.9901 133.202 74.652C132.692 74.3139 132.369 73.8201 132.233 73.1705L133.347 72.892C133.453 73.303 133.653 73.6113 133.948 73.8168C134.246 74.0223 134.636 74.125 135.116 74.125C135.663 74.125 136.097 74.009 136.419 73.777C136.744 73.5417 136.906 73.2599 136.906 72.9318C136.906 72.6667 136.813 72.4446 136.628 72.2656C136.442 72.0833 136.157 71.9474 135.773 71.858L134.5 71.5597C133.801 71.3939 133.287 71.1371 132.959 70.7891C132.634 70.4377 132.472 69.9986 132.472 69.4716C132.472 69.0407 132.592 68.6596 132.834 68.3281C133.08 67.9967 133.413 67.7365 133.834 67.5476C134.258 67.3587 134.739 67.2642 135.275 67.2642C136.031 67.2642 136.624 67.4299 137.055 67.7614C137.489 68.0928 137.798 68.5303 137.98 69.0739Z" fill="#2BCFA1"/>
</g>
</g>
<g filter="url(#filter5_b_21842_2612)">
<rect x="33" y="-29" width="127" height="36" rx="8" transform="rotate(4 33 -29)" fill="#1C1C1C" fill-opacity="0.04"/>
<rect x="33.4639" y="-28.4663" width="126" height="35" rx="7.5" transform="rotate(4 33.4639 -28.4663)" stroke="url(#paint5_radial_21842_2612)"/>
</g>
<g filter="url(#filter6_b_21842_2612)">
<rect x="30.5337" y="133.323" width="126" height="35" rx="7.5" transform="rotate(-4 30.5337 133.323)" stroke="url(#paint6_radial_21842_2612)"/>
</g>
<g filter="url(#filter7_b_21842_2612)">
<rect x="576.464" y="124.534" width="138.961" height="35" rx="7.5" transform="rotate(4 576.464 124.534)" stroke="url(#paint7_radial_21842_2612)"/>
</g>
<g filter="url(#filter8_b_21842_2612)">
<rect x="573.07" y="-19.1409" width="139.961" height="36" rx="8" transform="rotate(-4 573.07 -19.1409)" fill="#1C1C1C" fill-opacity="0.04"/>
<rect x="573.604" y="-18.677" width="138.961" height="35" rx="7.5" transform="rotate(-4 573.604 -18.677)" stroke="url(#paint8_radial_21842_2612)"/>
</g>
<rect width="746" height="140" transform="translate(0 1)" fill="url(#paint9_linear_21842_2612)"/>
<g filter="url(#filter9_bdi_21842_2612)">
<rect x="301" y="28" width="144" height="144" rx="72" fill="#1C1C1C" fill-opacity="0.16" shape-rendering="crispEdges"/>
<rect x="301" y="28" width="144" height="144" rx="72" fill="url(#paint10_radial_21842_2612)" shape-rendering="crispEdges"/>
<rect x="301.5" y="28.5" width="143" height="143" rx="71.5" stroke="#2D9275" shape-rendering="crispEdges"/>
<path fill-rule="evenodd" clip-rule="evenodd" d="M352.818 74V74L344.908 90.6787L348.806 77.0325L348.806 77.0318C349.055 76.161 349.58 75.3946 350.302 74.8479C351.024 74.3011 351.905 74.0036 352.81 74L352.818 74ZM401.092 90.6798L397.202 77.0336L397.202 77.0318C396.952 76.1585 396.425 75.3902 395.699 74.8432C394.974 74.2962 394.091 74.0002 393.182 74H393.182H352.818L344.819 91.2085C344.819 91.2298 344.818 91.2512 344.818 91.2727V91.281V95.6364C344.818 98.4814 345.948 101.21 347.96 103.222C348.343 103.604 348.751 103.955 349.182 104.272V121.818C349.182 122.927 349.622 123.991 350.407 124.775C351.191 125.559 352.255 126 353.364 126H392.636C393.745 126 394.809 125.559 395.593 124.775C396.378 123.991 396.818 122.927 396.818 121.818V104.272C397.249 103.955 397.657 103.604 398.04 103.222C400.052 101.21 401.182 98.4814 401.182 95.6364V91.2811M401.092 90.6798C401.142 90.8397 401.172 91.0082 401.18 91.1825L401.092 90.6798ZM401.182 91.2727C401.182 91.2427 401.181 91.2126 401.18 91.1825L401.182 91.2727ZM397.182 93.2727V95.6364C397.182 97.4205 396.473 99.1316 395.211 100.393C394.867 100.737 394.49 101.04 394.087 101.299C393.898 101.373 393.723 101.475 393.568 101.6C392.615 102.097 391.549 102.364 390.455 102.364C388.67 102.364 386.959 101.655 385.698 100.393C384.439 99.1348 383.731 97.4292 383.727 95.6499C383.727 95.6454 383.727 95.6409 383.727 95.6364V93.2727H397.182ZM381.737 89.2727H381.737H396.532L393.356 78.1318L393.356 78.1313C393.345 78.0936 393.322 78.0603 393.291 78.0367C393.259 78.0129 393.221 78 393.181 78H352.824C352.786 78.0005 352.748 78.0134 352.717 78.0369C352.686 78.0606 352.663 78.0938 352.652 78.1316L352.652 78.1318L349.469 89.2727H364.263L364.273 89.2727L364.282 89.2727H381.718C381.721 89.2727 381.724 89.2727 381.727 89.2727C381.73 89.2727 381.734 89.2727 381.737 89.2727ZM379.727 93.2727H366.273L366.273 95.6364C366.273 97.4205 366.981 99.1316 368.243 100.393C369.505 101.655 371.216 102.364 373 102.364C374.784 102.364 376.495 101.655 377.757 100.393C379.015 99.1348 379.724 97.4292 379.727 95.6499C379.727 95.6454 379.727 95.6409 379.727 95.6364V93.2727ZM381.727 101.874C381.387 102.351 381.005 102.802 380.585 103.222C378.574 105.233 375.845 106.364 373 106.364C370.155 106.364 367.426 105.233 365.415 103.222C364.995 102.802 364.613 102.351 364.273 101.874C363.932 102.351 363.551 102.802 363.131 103.222C361.119 105.233 358.391 106.364 355.545 106.364C354.744 106.364 353.951 106.274 353.182 106.1V121.818C353.182 121.866 353.201 121.913 353.235 121.947C353.269 121.981 353.315 122 353.364 122H392.636C392.685 122 392.731 121.981 392.765 121.947C392.799 121.913 392.818 121.866 392.818 121.818V106.1C392.049 106.274 391.256 106.364 390.455 106.364C387.609 106.364 384.881 105.233 382.869 103.222C382.449 102.802 382.068 102.351 381.727 101.874ZM348.818 93.2727V95.6364C348.818 97.4205 349.527 99.1316 350.789 100.393C351.133 100.737 351.51 101.04 351.913 101.299C352.102 101.373 352.277 101.475 352.432 101.6C353.385 102.097 354.451 102.364 355.545 102.364C357.33 102.364 359.041 101.655 360.302 100.393C361.564 99.1316 362.273 97.4205 362.273 95.6364V93.2727H348.818Z" fill="url(#paint11_linear_21842_2612)"/>
</g>
</g>
<defs>
<filter id="filter0_b_21842_2612" x="261" y="-12" width="224" height="224" filterUnits="userSpaceOnUse" color-interpolation-filters="sRGB">
<feFlood flood-opacity="0" result="BackgroundImageFix"/>
<feGaussianBlur in="BackgroundImageFix" stdDeviation="6"/>
<feComposite in2="SourceAlpha" operator="in" result="effect1_backgroundBlur_21842_2612"/>
<feBlend mode="normal" in="SourceGraphic" in2="effect1_backgroundBlur_21842_2612" result="shape"/>
</filter>
<filter id="filter1_b_21842_2612" x="494" y="12" width="264" height="116" filterUnits="userSpaceOnUse" color-interpolation-filters="sRGB">
<feFlood flood-opacity="0" result="BackgroundImageFix"/>
<feGaussianBlur in="BackgroundImageFix" stdDeviation="20"/>
<feComposite in2="SourceAlpha" operator="in" result="effect1_backgroundBlur_21842_2612"/>
<feBlend mode="normal" in="SourceGraphic" in2="effect1_backgroundBlur_21842_2612" result="shape"/>
</filter>
<filter id="filter2_d_21842_2612" x="535.025" y="57.4225" width="172.509" height="34.2705" filterUnits="userSpaceOnUse" color-interpolation-filters="sRGB">
<feFlood flood-opacity="0" result="BackgroundImageFix"/>
<feColorMatrix in="SourceAlpha" type="matrix" values="0 0 0 0 0 0 0 0 0 0 0 0 0 0 0 0 0 0 127 0" result="hardAlpha"/>
<feOffset dx="-4.71831" dy="4.71831"/>
<feGaussianBlur stdDeviation="5.89789"/>
<feComposite in2="hardAlpha" operator="out"/>
<feColorMatrix type="matrix" values="0 0 0 0 0 0 0 0 0 0 0 0 0 0 0 0 0 0 0.25 0"/>
<feBlend mode="normal" in2="BackgroundImageFix" result="effect1_dropShadow_21842_2612"/>
<feBlend mode="normal" in="SourceGraphic" in2="effect1_dropShadow_21842_2612" result="shape"/>
</filter>
<filter id="filter3_b_21842_2612" x="-12" y="12" width="207" height="116" filterUnits="userSpaceOnUse" color-interpolation-filters="sRGB">
<feFlood flood-opacity="0" result="BackgroundImageFix"/>
<feGaussianBlur in="BackgroundImageFix" stdDeviation="20"/>
<feComposite in2="SourceAlpha" operator="in" result="effect1_backgroundBlur_21842_2612"/>
<feBlend mode="normal" in="SourceGraphic" in2="effect1_backgroundBlur_21842_2612" result="shape"/>
</filter>
<filter id="filter4_d_21842_2612" x="28.9074" y="57.4225" width="116.289" height="36.9551" filterUnits="userSpaceOnUse" color-interpolation-filters="sRGB">
<feFlood flood-opacity="0" result="BackgroundImageFix"/>
<feColorMatrix in="SourceAlpha" type="matrix" values="0 0 0 0 0 0 0 0 0 0 0 0 0 0 0 0 0 0 127 0" result="hardAlpha"/>
<feOffset dx="-4.71831" dy="4.71831"/>
<feGaussianBlur stdDeviation="5.89789"/>
<feComposite in2="hardAlpha" operator="out"/>
<feColorMatrix type="matrix" values="0 0 0 0 0 0 0 0 0 0 0 0 0 0 0 0 0 0 0.25 0"/>
<feBlend mode="normal" in2="BackgroundImageFix" result="effect1_dropShadow_21842_2612"/>
<feBlend mode="normal" in="SourceGraphic" in2="effect1_dropShadow_21842_2612" result="shape"/>
</filter>
<filter id="filter5_b_21842_2612" x="-9.51123" y="-69" width="209.202" height="124.771" filterUnits="userSpaceOnUse" color-interpolation-filters="sRGB">
<feFlood flood-opacity="0" result="BackgroundImageFix"/>
<feGaussianBlur in="BackgroundImageFix" stdDeviation="20"/>
<feComposite in2="SourceAlpha" operator="in" result="effect1_backgroundBlur_21842_2612"/>
<feBlend mode="normal" in="SourceGraphic" in2="effect1_backgroundBlur_21842_2612" result="shape"/>
</filter>
<filter id="filter6_b_21842_2612" x="-10" y="84" width="209.202" height="124.771" filterUnits="userSpaceOnUse" color-interpolation-filters="sRGB">
<feFlood flood-opacity="0" result="BackgroundImageFix"/>
<feGaussianBlur in="BackgroundImageFix" stdDeviation="20"/>
<feComposite in2="SourceAlpha" operator="in" result="effect1_backgroundBlur_21842_2612"/>
<feBlend mode="normal" in="SourceGraphic" in2="effect1_backgroundBlur_21842_2612" result="shape"/>
</filter>
<filter id="filter7_b_21842_2612" x="533.489" y="84" width="222.132" height="125.676" filterUnits="userSpaceOnUse" color-interpolation-filters="sRGB">
<feFlood flood-opacity="0" result="BackgroundImageFix"/>
<feGaussianBlur in="BackgroundImageFix" stdDeviation="20"/>
<feComposite in2="SourceAlpha" operator="in" result="effect1_backgroundBlur_21842_2612"/>
<feBlend mode="normal" in="SourceGraphic" in2="effect1_backgroundBlur_21842_2612" result="shape"/>
</filter>
<filter id="filter8_b_21842_2612" x="533.07" y="-68.9041" width="222.132" height="125.676" filterUnits="userSpaceOnUse" color-interpolation-filters="sRGB">
<feFlood flood-opacity="0" result="BackgroundImageFix"/>
<feGaussianBlur in="BackgroundImageFix" stdDeviation="20"/>
<feComposite in2="SourceAlpha" operator="in" result="effect1_backgroundBlur_21842_2612"/>
<feBlend mode="normal" in="SourceGraphic" in2="effect1_backgroundBlur_21842_2612" result="shape"/>
</filter>
<filter id="filter9_bdi_21842_2612" x="141" y="-132" width="464" height="464" filterUnits="userSpaceOnUse" color-interpolation-filters="sRGB">
<feFlood flood-opacity="0" result="BackgroundImageFix"/>
<feGaussianBlur in="BackgroundImageFix" stdDeviation="6"/>
<feComposite in2="SourceAlpha" operator="in" result="effect1_backgroundBlur_21842_2612"/>
<feColorMatrix in="SourceAlpha" type="matrix" values="0 0 0 0 0 0 0 0 0 0 0 0 0 0 0 0 0 0 127 0" result="hardAlpha"/>
<feOffset/>
<feGaussianBlur stdDeviation="80"/>
<feComposite in2="hardAlpha" operator="out"/>
<feColorMatrix type="matrix" values="0 0 0 0 0.168627 0 0 0 0 0.811765 0 0 0 0 0.631373 0 0 0 0.24 0"/>
<feBlend mode="normal" in2="effect1_backgroundBlur_21842_2612" result="effect2_dropShadow_21842_2612"/>
<feBlend mode="normal" in="SourceGraphic" in2="effect2_dropShadow_21842_2612" result="shape"/>
<feColorMatrix in="SourceAlpha" type="matrix" values="0 0 0 0 0 0 0 0 0 0 0 0 0 0 0 0 0 0 127 0" result="hardAlpha"/>
<feOffset dy="-4"/>
<feGaussianBlur stdDeviation="8"/>
<feComposite in2="hardAlpha" operator="arithmetic" k2="-1" k3="1"/>
<feColorMatrix type="matrix" values="0 0 0 0 0.168627 0 0 0 0 0.811765 0 0 0 0 0.631373 0 0 0 0.4 0"/>
<feBlend mode="normal" in2="shape" result="effect3_innerShadow_21842_2612"/>
</filter>
<linearGradient id="paint0_linear_21842_2612" x1="372.5" y1="0" x2="372.5" y2="140" gradientUnits="userSpaceOnUse">
<stop stop-color="#010101" stop-opacity="0"/>
<stop offset="1" stop-color="#141414"/>
</linearGradient>
<radialGradient id="paint1_radial_21842_2612" cx="0" cy="0" r="1" gradientUnits="userSpaceOnUse" gradientTransform="translate(273) rotate(45) scale(282.843)">
<stop stop-color="#1C1C1C" stop-opacity="0.04"/>
<stop offset="1" stop-color="#1C1C1C" stop-opacity="0"/>
</radialGradient>
<radialGradient id="paint2_radial_21842_2612" cx="0" cy="0" r="1" gradientUnits="userSpaceOnUse" gradientTransform="translate(273) rotate(45) scale(282.843)">
<stop stop-color="#2BCFA1" stop-opacity="0.5"/>
<stop offset="0.603151" stop-color="#2BCFA1" stop-opacity="0.04"/>
</radialGradient>
<radialGradient id="paint3_radial_21842_2612" cx="0" cy="0" r="1" gradientUnits="userSpaceOnUse" gradientTransform="translate(534.387 52.0972) rotate(11.0568) scale(186.698 271.723)">
<stop offset="0.00350991" stop-color="#2BCFA1" stop-opacity="0.32"/>
<stop offset="1" stop-color="#2BCFA1" stop-opacity="0"/>
</radialGradient>
<radialGradient id="paint4_radial_21842_2612" cx="0" cy="0" r="1" gradientUnits="userSpaceOnUse" gradientTransform="translate(154.082 51.9825) rotate(163.324) scale(128.237 261.56)">
<stop offset="0.00350991" stop-color="#2BCFA1" stop-opacity="0.32"/>
<stop offset="1" stop-color="#2BCFA1" stop-opacity="0"/>
</radialGradient>
<radialGradient id="paint5_radial_21842_2612" cx="0" cy="0" r="1" gradientUnits="userSpaceOnUse" gradientTransform="translate(112.569 8.78339) rotate(-22.3233) scale(52.9953 108.093)">
<stop offset="0.00350991" stop-color="#2BCFA1" stop-opacity="0.32"/>
<stop offset="1" stop-color="#2BCFA1" stop-opacity="0"/>
</radialGradient>
<radialGradient id="paint6_radial_21842_2612" cx="0" cy="0" r="1" gradientUnits="userSpaceOnUse" gradientTransform="translate(109.569 170.643) rotate(-22.3233) scale(52.9953 108.093)">
<stop offset="0.00350991" stop-color="#2BCFA1" stop-opacity="0.32"/>
<stop offset="1" stop-color="#2BCFA1" stop-opacity="0"/>
</radialGradient>
<radialGradient id="paint7_radial_21842_2612" cx="0" cy="0" r="1" gradientUnits="userSpaceOnUse" gradientTransform="translate(713.003 123.812) rotate(152.715) scale(115.859 224.097)">
<stop offset="0.00350991" stop-color="#2BCFA1" stop-opacity="0.32"/>
<stop offset="1" stop-color="#2BCFA1" stop-opacity="0"/>
</radialGradient>
<radialGradient id="paint8_radial_21842_2612" cx="0" cy="0" r="1" gradientUnits="userSpaceOnUse" gradientTransform="translate(628.338 20.9529) rotate(-93.4314) scale(46.3897 89.7279)">
<stop offset="0.00350991" stop-color="#2BCFA1" stop-opacity="0.32"/>
<stop offset="1" stop-color="#2BCFA1" stop-opacity="0"/>
</radialGradient>
<linearGradient id="paint9_linear_21842_2612" x1="373" y1="0" x2="373" y2="140" gradientUnits="userSpaceOnUse">
<stop offset="0.503542" stop-color="#010101" stop-opacity="0"/>
<stop offset="1" stop-color="#010101"/>
</linearGradient>
<radialGradient id="paint10_radial_21842_2612" cx="0" cy="0" r="1" gradientUnits="userSpaceOnUse" gradientTransform="translate(373 28) rotate(90) scale(144)">
<stop stop-color="#2BCFA1" stop-opacity="0.08"/>
<stop offset="1" stop-color="#2BCFA1" stop-opacity="0.24"/>
</radialGradient>
<linearGradient id="paint11_linear_21842_2612" x1="344.494" y1="74.5098" x2="401.582" y2="125.404" gradientUnits="userSpaceOnUse">
<stop stop-color="#80EDCF"/>
<stop offset="1" stop-color="#80EDCF" stop-opacity="0.4"/>
</linearGradient>
<clipPath id="clip0_21842_2612">
<rect width="746" height="140" fill="white"/>
</clipPath>
</defs>
</svg>
