<svg width="16" height="16" viewBox="0 0 16 16" fill="none" xmlns="http://www.w3.org/2000/svg">
<path d="M12.6668 6C12.6668 6.96666 12.3802 7.85334 11.8868 8.59334C11.1668 9.66 10.0268 10.4133 8.70016 10.6067C8.4735 10.6467 8.24016 10.6667 8.00016 10.6667C7.76016 10.6667 7.52683 10.6467 7.30016 10.6067C5.9735 10.4133 4.8335 9.66 4.1135 8.59334C3.62016 7.85334 3.3335 6.96666 3.3335 6C3.3335 3.42 5.42016 1.33333 8.00016 1.33333C10.5802 1.33333 12.6668 3.42 12.6668 6Z" stroke="black" stroke-linecap="round" stroke-linejoin="round"/>
<path d="M14.1669 12.3133L13.0669 12.5733C12.8202 12.6333 12.6269 12.82 12.5735 13.0667L12.3402 14.0467C12.2135 14.58 11.5335 14.74 11.1802 14.32L8.00022 10.6667L4.82022 14.3267C4.46688 14.7467 3.78688 14.5867 3.66022 14.0533L3.42688 13.0733C3.36688 12.8267 3.17355 12.6333 2.93355 12.58L1.83355 12.32C1.32688 12.2 1.14688 11.5667 1.51355 11.2L4.11355 8.59999C4.83355 9.66666 5.97355 10.42 7.30022 10.6133C7.52688 10.6533 7.76022 10.6733 8.00022 10.6733C8.24022 10.6733 8.47355 10.6533 8.70022 10.6133C10.0269 10.42 11.1669 9.66666 11.8869 8.59999L14.4869 11.2C14.8535 11.56 14.6735 12.1933 14.1669 12.3133Z" stroke="black" stroke-linecap="round" stroke-linejoin="round"/>
<path d="M8.38681 3.98667L8.78014 4.77333C8.83348 4.88 8.97348 4.98667 9.10014 5.00667L9.81348 5.12667C10.2668 5.2 10.3735 5.53334 10.0468 5.86L9.49348 6.41333C9.40014 6.50666 9.34681 6.68667 9.38014 6.82L9.54014 7.50667C9.66681 8.04667 9.38014 8.25999 8.90014 7.97333L8.23348 7.57999C8.11348 7.50666 7.91348 7.50666 7.79348 7.57999L7.12681 7.97333C6.64681 8.25333 6.36014 8.04667 6.48681 7.50667L6.64681 6.82C6.67348 6.69334 6.62681 6.50666 6.53348 6.41333L5.98014 5.86C5.65348 5.53334 5.76014 5.20667 6.21348 5.12667L6.92681 5.00667C7.04681 4.98667 7.18681 4.88 7.24014 4.77333L7.63348 3.98667C7.82681 3.56001 8.17348 3.56001 8.38681 3.98667Z" stroke="black" stroke-linecap="round" stroke-linejoin="round"/>
</svg>
