<svg width="16" height="16" viewBox="0 0 16 16" fill="none" xmlns="http://www.w3.org/2000/svg">
<g clip-path="url(#clip0_10025_4319)">
<path d="M7.99902 16C12.4173 16 15.999 12.4183 15.999 8C15.999 3.58172 12.4173 0 7.99902 0C3.58075 0 -0.000976562 3.58172 -0.000976562 8C-0.000976562 12.4183 3.58075 16 7.99902 16Z" fill="url(#paint0_linear_10025_4319)"/>
<path fill-rule="evenodd" clip-rule="evenodd" d="M3.62069 7.91547C5.95285 6.89938 7.508 6.22952 8.28611 5.90587C10.5078 4.9818 10.9694 4.82128 11.2703 4.81597C11.3365 4.81481 11.4845 4.83121 11.5803 4.90899C11.6613 4.97466 11.6835 5.06337 11.6942 5.12564C11.7049 5.1879 11.7181 5.32974 11.7076 5.44057C11.5872 6.70556 11.0662 9.77535 10.8012 11.1922C10.6891 11.7917 10.4683 11.9927 10.2545 12.0123C9.78991 12.0551 9.43714 11.7053 8.98717 11.4104C8.28307 10.9488 7.88529 10.6615 7.20184 10.2111C6.41199 9.69062 6.92402 9.40454 7.37415 8.93701C7.49195 8.81466 9.53888 6.95282 9.5785 6.78392C9.58345 6.7628 9.58805 6.68406 9.54127 6.64248C9.4945 6.60091 9.42546 6.61513 9.37564 6.62643C9.30502 6.64246 8.1802 7.38592 6.00119 8.85682C5.68192 9.07606 5.39273 9.18288 5.13362 9.17728C4.84798 9.17111 4.29852 9.01577 3.89006 8.883C3.38905 8.72014 2.99087 8.63404 3.02554 8.35746C3.0436 8.2134 3.24199 8.06607 3.62069 7.91547Z" fill="white"/>
</g>
<defs>
<linearGradient id="paint0_linear_10025_4319" x1="799.999" y1="0" x2="799.999" y2="1588.13" gradientUnits="userSpaceOnUse">
<stop stop-color="#2AABEE"/>
<stop offset="1" stop-color="#229ED9"/>
</linearGradient>
<clipPath id="clip0_10025_4319">
<rect width="16" height="16" fill="white" transform="translate(-0.000976562)"/>
</clipPath>
</defs>
</svg>
