<svg width="165" height="32" viewBox="0 0 165 32" fill="none" xmlns="http://www.w3.org/2000/svg">
<g clip-path="url(#clip0_3211_15658)">
<path d="M49.5894 20.4439C49.7178 22.0961 50.3856 23.4074 51.5671 24.4039C52.7487 25.4004 54.2897 25.8987 56.1904 25.8987C57.8601 25.8987 59.1956 25.5316 60.223 24.7972C61.2505 24.063 61.7642 23.0403 61.7642 21.7552C61.7642 20.8374 61.4816 20.0768 60.9165 19.5523C60.3514 19.0016 59.6065 18.5821 58.6305 18.2935C57.6545 18.0051 56.3188 17.6904 54.5722 17.3757C52.8 17.0609 51.2845 16.6414 50.026 16.1169C48.7674 15.5924 47.7401 14.8056 46.9437 13.7567C46.1475 12.6815 45.7622 11.2915 45.7622 9.56072C45.7622 7.96102 46.1732 6.54488 46.9952 5.28611C47.817 4.02731 48.9472 3.057 50.437 2.37515C51.9011 1.69332 53.5962 1.32617 55.497 1.32617C57.449 1.32617 59.1956 1.69332 60.7367 2.45383C62.2778 3.18813 63.4851 4.21089 64.3584 5.52212C65.2317 6.83335 65.7197 8.30193 65.7968 9.98032H61.3789C61.2247 8.53796 60.6083 7.38407 59.5552 6.51866C58.4765 5.65325 57.1408 5.20743 55.497 5.20743C53.9044 5.20743 52.646 5.54835 51.6956 6.25642C50.7452 6.96448 50.2829 7.96102 50.2829 9.21981C50.2829 10.1114 50.5654 10.8457 51.1305 11.3702C51.6956 11.8947 52.4404 12.2881 53.3651 12.5766C54.2898 12.8388 55.6511 13.1273 57.3977 13.442C59.1699 13.7567 60.6854 14.1763 61.9696 14.7269C63.254 15.2515 64.2813 16.0382 65.1033 17.0872C65.8995 18.1363 66.3104 19.4999 66.3104 21.2045C66.3104 22.8567 65.8737 24.3252 65.0262 25.6365C64.1786 26.9478 62.9713 27.9443 61.4303 28.6785C59.8892 29.4128 58.1425 29.7799 56.1904 29.7799C54.0329 29.7799 52.1322 29.3866 50.4883 28.5736C48.8445 27.7869 47.5601 26.6592 46.6355 25.243C45.7108 23.8269 45.2486 22.201 45.2228 20.3654L49.5894 20.4439ZM71.0623 12.9175H67.5948V9.14113H71.0623V3.42414H75.326V9.11491H80.1292V12.8913H75.326V23.5384C75.326 24.3252 75.4801 24.9022 75.7884 25.243C76.0966 25.584 76.6359 25.7414 77.3808 25.7414H80.5914V29.544H76.5332C74.6324 29.544 73.2455 29.0982 72.3722 28.1802C71.4989 27.2886 71.0623 25.8724 71.0623 23.9843V12.9175ZM101.833 9.14113V29.544H98.1345L97.6721 26.4232C96.9786 27.4459 96.0797 28.2327 94.9751 28.8621C93.8707 29.4653 92.6122 29.7799 91.1481 29.7799C89.3245 29.7799 87.7063 29.3604 86.2679 28.5211C84.8295 27.682 83.7251 26.4756 82.9031 24.9022C82.1069 23.3287 81.6959 21.4667 81.6959 19.3425C81.6959 17.2708 82.1069 15.435 82.9289 13.8616C83.7507 12.2881 84.8809 11.0555 86.2935 10.1901C87.7319 9.3247 89.3501 8.9051 91.1225 8.9051C92.6122 8.9051 93.8964 9.19357 94.9751 9.77051C96.0797 10.3475 96.953 11.1342 97.6208 12.1307L98.1345 9.14113H101.833ZM96.054 24.2727C97.1328 23.0139 97.6464 21.4142 97.6464 19.4212C97.6464 17.4019 97.1071 15.7498 96.054 14.491C94.9751 13.2059 93.5882 12.5766 91.8416 12.5766C90.095 12.5766 88.6823 13.2059 87.6292 14.4647C86.5504 15.7235 86.0367 17.3495 86.0367 19.3425C86.0367 21.3619 86.5761 23.0139 87.6292 24.2727C88.7079 25.5316 90.095 26.161 91.8416 26.161C93.5882 26.161 95.0009 25.5316 96.054 24.2727ZM121.405 27.7607C119.787 29.0982 117.732 29.7799 115.19 29.7799C113.212 29.7799 111.465 29.3604 109.95 28.495C108.434 27.6295 107.278 26.3969 106.456 24.7972C105.635 23.1975 105.224 21.3619 105.224 19.2901C105.224 17.2183 105.635 15.4088 106.482 13.8353C107.304 12.2619 108.486 11.0555 110.027 10.1901C111.542 9.3247 113.314 8.9051 115.318 8.9051C117.809 8.9051 119.864 9.58695 121.457 10.9244C123.049 12.2619 124.025 14.0976 124.436 16.4053H120.095C119.813 15.2253 119.248 14.3074 118.375 13.6256C117.527 12.9437 116.474 12.5766 115.215 12.5766C113.52 12.5766 112.159 13.2059 111.131 14.4385C110.104 15.6973 109.59 17.297 109.59 19.2901C109.59 21.3094 110.104 22.9616 111.131 24.2203C112.159 25.4791 113.52 26.1085 115.215 26.1085C116.525 26.1085 117.604 25.7675 118.451 25.0595C119.299 24.3514 119.864 23.4074 120.121 22.201H124.41C124.025 24.5875 122.998 26.4232 121.405 27.7607ZM127.801 1.64087H132.013V19.1064L141.157 9.14113H146.038L138.589 17.3495L146.525 29.544H141.517L135.584 20.4964L132.039 24.3252V29.544H127.827V1.64087H127.801ZM151.329 22.8042C151.406 23.8794 151.894 24.7448 152.793 25.4266C153.691 26.1085 154.848 26.4494 156.286 26.4494C157.571 26.4494 158.598 26.2134 159.393 25.7152C160.19 25.2168 160.576 24.5613 160.576 23.7483C160.576 23.0664 160.395 22.5419 160.036 22.201C159.677 21.86 159.188 21.5978 158.571 21.4667C157.955 21.3094 157.005 21.1783 155.747 21.0209C154 20.8112 152.561 20.5226 151.431 20.1555C150.301 19.7883 149.376 19.2376 148.708 18.4509C148.016 17.6641 147.681 16.6151 147.681 15.2776C147.681 14.0189 148.016 12.9175 148.708 11.9472C149.402 10.9769 150.353 10.2163 151.559 9.69185C152.766 9.16736 154.154 8.9051 155.67 8.9051C158.186 8.9051 160.241 9.48205 161.808 10.6097C163.374 11.7636 164.222 13.3633 164.377 15.435H160.267C160.164 14.5172 159.702 13.7304 158.906 13.1535C158.109 12.5503 157.082 12.2619 155.849 12.2619C154.617 12.2619 153.641 12.4979 152.87 12.9699C152.125 13.442 151.739 14.0976 151.739 14.9105C151.739 15.5137 151.92 15.9857 152.305 16.2743C152.689 16.5889 153.152 16.7988 153.718 16.9037C154.282 17.0347 155.207 17.1659 156.492 17.3232C158.212 17.5067 159.651 17.7953 160.832 18.1886C162.014 18.5821 162.938 19.1851 163.632 20.0244C164.326 20.8635 164.685 21.9912 164.685 23.4336C164.685 24.7187 164.326 25.82 163.581 26.7904C162.861 27.7607 161.86 28.495 160.576 29.0195C159.291 29.544 157.878 29.8062 156.286 29.8062C153.614 29.8062 151.431 29.1768 149.787 27.9443C148.144 26.7117 147.27 25.0071 147.219 22.8304H151.329V22.8042Z" fill="white"/>
<path d="M22.1129 21.7099L28.7043 32.0004H23.7802L16.0425 19.9098L8.30475 32.0004H3.40679L9.99819 21.7367H0.540955V17.8408H31.57V21.7099H22.1129Z" fill="white"/>
<path d="M31.57 10.1562V14.0521V14.0789H0.540955V10.1562H9.81582L3.30257 0H8.2266L16.0425 12.2519L23.8845 0H28.8084L22.2953 10.1562H31.57Z" fill="white"/>
</g>
<defs>
<clipPath id="clip0_3211_15658">
<rect width="164.364" height="32" fill="white" transform="translate(0.540955)"/>
</clipPath>
</defs>
</svg>
