<svg width="16" height="16" viewBox="0 0 16 16" fill="none" xmlns="http://www.w3.org/2000/svg">
<path d="M5.58471 10.4109L1.81348 14.1821M7.7965 4.4279L6.75591 5.46849C6.67103 5.55337 6.62859 5.59581 6.58023 5.62954C6.53731 5.65947 6.49102 5.68425 6.44231 5.70335C6.38742 5.72488 6.32857 5.73665 6.21086 5.76019L3.76788 6.24879C3.13301 6.37576 2.81558 6.43925 2.66707 6.60662C2.53769 6.75242 2.47861 6.94755 2.50538 7.14064C2.53611 7.36227 2.76501 7.59118 3.22282 8.04899L7.94665 12.7728C8.40446 13.2306 8.63336 13.4595 8.855 13.4903C9.04808 13.517 9.24321 13.4579 9.38902 13.3286C9.55639 13.1801 9.61987 12.8626 9.74685 12.2278L10.2354 9.78478C10.259 9.66707 10.2708 9.60821 10.2923 9.55333C10.3114 9.50462 10.3362 9.45832 10.3661 9.4154C10.3998 9.36705 10.4423 9.32461 10.5271 9.23972L11.5677 8.19913C11.622 8.14486 11.6491 8.11773 11.679 8.09404C11.7055 8.07299 11.7335 8.05399 11.7629 8.0372C11.796 8.01831 11.8313 8.00319 11.9018 7.97296L13.5647 7.26029C14.0498 7.05237 14.2924 6.94841 14.4026 6.78042C14.499 6.63352 14.5334 6.45452 14.4985 6.28234C14.4586 6.08544 14.272 5.89883 13.8988 5.52562L10.47 2.09686C10.0968 1.72364 9.91019 1.53703 9.7133 1.49712C9.54112 1.46221 9.36212 1.49669 9.21521 1.59304C9.04722 1.70323 8.94327 1.94579 8.73535 2.43093L8.02268 4.09383C7.99244 4.16437 7.97733 4.19965 7.95843 4.23272C7.94165 4.2621 7.92265 4.29017 7.9016 4.31666C7.87791 4.34649 7.85077 4.37363 7.7965 4.4279Z" stroke="black" stroke-linecap="round" stroke-linejoin="round"/>
</svg>
