<svg width="20" height="20" viewBox="0 0 20 20" fill="none" xmlns="http://www.w3.org/2000/svg">
<path d="M12.0827 7.08331H12.091M13.516 16.6332L8.79201 11.892C8.13126 11.2288 7.80087 10.8972 7.4196 10.773C7.08424 10.6637 6.72286 10.6637 6.38746 10.7728C6.00614 10.8969 5.67563 11.2284 5.01461 11.8913L3.5855 13.3247M3.5855 13.3247L2.05091 10.6667C1.91068 10.4237 1.84058 10.3023 1.81313 10.1732C1.78885 10.059 1.78885 9.94091 1.81313 9.82675C1.84058 9.69758 1.91068 9.57616 2.05091 9.33333L5.44778 3.44976C5.58799 3.2069 5.6581 3.08546 5.75619 2.99715C5.84298 2.919 5.94522 2.85997 6.05628 2.82389C6.18181 2.7831 6.32203 2.7831 6.60248 2.7831H13.3962C13.6767 2.7831 13.8168 2.7831 13.9424 2.82389C14.0534 2.85997 14.1557 2.919 14.2425 2.99715C14.3406 3.08546 14.4107 3.2069 14.5509 3.44976L17.9478 9.33333C18.088 9.57616 18.1581 9.69758 18.1855 9.82675C18.2098 9.94091 18.2098 10.059 18.1855 10.1732C18.1581 10.3023 18.088 10.4237 17.9478 10.6667L15.7404 14.4899M3.5855 13.3247L5.44778 16.5502C5.58799 16.7931 5.6581 16.9145 5.75619 17.0028C5.84298 17.0809 5.94522 17.14 6.05628 17.1761C6.18181 17.2168 6.32203 17.2168 6.60248 17.2168H13.3962C13.6767 17.2168 13.8168 17.2168 13.9424 17.1761C14.0534 17.14 14.1557 17.0809 14.2425 17.0028C14.3406 16.9145 14.4107 16.7931 14.5509 16.5502L15.7404 14.4899M10.1984 13.3036L10.5054 12.9958C11.1731 12.3329 11.5069 12.0014 11.8904 11.8794C12.2278 11.7722 12.5905 11.7751 12.9261 11.8877C13.3077 12.0158 13.6362 12.3526 14.2932 13.0261L15.7404 14.4899M12.4993 7.08331C12.4993 7.31343 12.3128 7.49998 12.0827 7.49998C11.8526 7.49998 11.666 7.31343 11.666 7.08331C11.666 6.85319 11.8526 6.66665 12.0827 6.66665C12.3128 6.66665 12.4993 6.85319 12.4993 7.08331Z" stroke="black" stroke-width="1.5" stroke-linecap="round" stroke-linejoin="round"/>
</svg>
